<svg width="40" height="60" viewBox="0 0 40 60" fill="none" xmlns="http://www.w3.org/2000/svg">
<g clip-path="url(#clip0_2024_371)">
<path d="M0.0499902 22.06V6.89C0.0499902 3.08 3.13999 0 6.93999 0H33.1C36.91 0 39.99 3.08 39.99 6.89V33.04C39.99 36.84 36.9 39.93 33.1 39.93H26.18C17.07 39.93 9.67999 47.31 9.67999 56.42C9.67999 58.4 8.06999 60.01 6.07999 60.01H3.85999C1.71999 60.01 -0.0100098 58.28 -0.0100098 56.14V22.06H0.0399902H0.0499902Z" fill="#FFCC00"/>
<path d="M20.56 19C17.52 19 15.05 21.47 15.05 24.51V36.65H15.01V44.32C17.95 41.6 21.88 39.92 26.2 39.92H33.12C36.93 39.92 40.01 36.84 40.01 33.03V19H20.57H20.56Z" fill="#E6B800"/>
</g>
<defs>
<clipPath id="clip0_2024_371">
<rect width="40" height="60" fill="white"/>
</clipPath>
</defs>
</svg>
