<svg width="580" height="935" viewBox="0 0 580 935" fill="none" xmlns="http://www.w3.org/2000/svg">
<g clip-path="url(#clip0_2011_88)">
<path d="M42.1247 144.521H0V713.504H42.1247V144.521Z" fill="#FFCC00"/>
<path d="M18.8948 231.974H0V713.514H18.8948V231.974Z" fill="#0066FF"/>
<path d="M248.035 92.5221V144.511H42.1248V30.4848H247.895L248.035 92.5221Z" fill="#0033CC"/>
<path d="M248.025 52.9867H204.694V117.788H248.025V52.9867Z" fill="#FF6600"/>
<path d="M42.1247 713.504V144.521H0" stroke="black" stroke-width="4" stroke-miterlimit="10"/>
<path d="M101.899 713.504H49.31H29.9268H10.5536H0V794.96H28.4718H75.5296H105.975H126.663V713.504H101.899Z" fill="#0033CC"/>
<path d="M126.663 794.96V713.504H72.3206H0" stroke="black" stroke-width="4" stroke-miterlimit="10"/>
<path d="M0 231.974H18.8948V713.504H0" stroke="black" stroke-width="4" stroke-miterlimit="10"/>
<path d="M147.621 737.133H110.389V774.443H147.621V737.133Z" fill="#FFFF00" stroke="black" stroke-width="4" stroke-miterlimit="10"/>
<path d="M174.737 794.96V870.977H50.1072V794.96H90.6075H174.737Z" fill="#FF6600"/>
<path d="M50.1072 870.977H174.737V794.96H90.6075H50.1072" stroke="black" stroke-width="4" stroke-miterlimit="10"/>
<path d="M50.1072 794.96H0V870.977H50.1072V794.96Z" fill="#FFCC00"/>
<path d="M0 794.96H50.1072V870.977H0" stroke="black" stroke-width="4" stroke-miterlimit="10"/>
<path d="M280.552 52.9867H248.025V117.788H280.552V52.9867Z" fill="#FFCC00"/>
<path d="M280.552 52.9867H408.033H578.007V117.798H408.033H280.552V52.9867Z" stroke="black" stroke-width="4" stroke-miterlimit="10"/>
<path d="M280.553 52.9867H248.035H204.694V117.798H248.035H280.553V52.9867Z" stroke="black" stroke-width="4" stroke-miterlimit="10"/>
<path d="M248.035 30.4848H42.1248V144.521H248.035V30.4848Z" stroke="black" stroke-width="4" stroke-miterlimit="10"/>
<path fill-rule="evenodd" clip-rule="evenodd" d="M162.849 1.99573H74.2341C74.2341 25.735 83.5719 48.5262 100.185 65.3203C116.797 82.1044 139.35 91.5442 162.839 91.5442V1.99573H162.849Z" fill="#0099FF" stroke="black" stroke-width="4" stroke-miterlimit="10"/>
<path d="M59.8935 61.8277H22.6619V99.1379H59.8935V61.8277Z" fill="#FFFF00" stroke="black" stroke-width="4" stroke-miterlimit="10"/>
<path opacity="0.9" fill-rule="evenodd" clip-rule="evenodd" d="M0 794.92V911.211C21.8247 925.321 47.3567 933.004 73.656 933.004V794.92H0Z" fill="#FFCC00"/>
<path d="M0 792.924V796.915H71.6629V930.989C46.2007 930.599 21.2168 922.726 0 908.766V913.516C21.9443 927.366 47.6058 934.99 73.656 934.99H75.6491V792.914H0V792.924Z" fill="black"/>
</g>
<defs>
<clipPath id="clip0_2011_88">
<rect width="580" height="935" fill="white"/>
</clipPath>
</defs>
</svg>
