<svg width="580" height="310" viewBox="0 0 580 310" fill="none" xmlns="http://www.w3.org/2000/svg">
<g clip-path="url(#clip0_2016_178)">
<path d="M1.98633 72.236V37.1295H34.0949V72.236H15.523H1.98633Z" fill="#FF6600"/>
<path d="M16.2578 109.859V72.236H34.8198H62.1513H104.38H152.886V109.859H120.459H103.069H85.679H38.4845H16.2578Z" fill="#0033CC"/>
<path d="M62.1414 37.1295H34.8198V72.2461H62.1414V37.1295Z" fill="#FFCC00"/>
<path d="M38.4846 283.167V109.859H85.6791V242.776H103.069V283.167H38.4846Z" fill="#FFCC00"/>
<path d="M62.1514 72.236V37.1295H87.1192H87.8243H104.38V72.236H62.1514Z" fill="#0099FF"/>
<path d="M103.069 109.859H85.6792V242.786H103.069V109.859Z" fill="#0066FF"/>
<path d="M87.1191 37.1295V2.01299H129.268V37.1295H104.38H87.8243H87.1191Z" fill="#FF6600"/>
<path d="M103.069 242.776V109.859H120.459L131.89 242.776H103.069Z" fill="#0033CC"/>
<path d="M38.4846 109.859V283.167H103.069V242.776" stroke="black" stroke-width="4" stroke-miterlimit="10"/>
<path d="M16.2578 72.236V109.859H38.4845H85.679" stroke="black" stroke-width="4" stroke-miterlimit="10"/>
<path d="M119.459 109.859H151.886V72.236H103.38" stroke="black" stroke-width="4" stroke-miterlimit="10"/>
<path d="M34.0949 37.1295H1.98633V72.236H15.523H34.0949" stroke="black" stroke-width="4" stroke-miterlimit="10"/>
<path d="M62.1513 72.236H34.8198V37.1295H62.1513" stroke="black" stroke-width="4" stroke-miterlimit="10"/>
<path d="M87.8243 37.1295H87.1192H62.1514V72.236H104.38V37.1295" stroke="black" stroke-width="4" stroke-miterlimit="10"/>
<path d="M87.8243 37.1295H104.38H129.268V2.01299H87.1191V37.1295" stroke="black" stroke-width="4" stroke-miterlimit="10"/>
<path d="M103.069 242.776H85.6792V109.859H103.069" stroke="black" stroke-width="4" stroke-miterlimit="10"/>
<path d="M120.459 109.859H103.069V242.776H131.89L120.459 109.859Z" stroke="black" stroke-width="4" stroke-miterlimit="10"/>
<path fill-rule="evenodd" clip-rule="evenodd" d="M23.1504 242.666H85.7884C85.7884 225.757 79.184 209.522 67.4449 197.575C55.7059 185.618 39.7559 178.894 23.1504 178.894V242.666Z" fill="#FFFF00" stroke="black" stroke-width="4" stroke-miterlimit="10"/>
<path d="M67.8124 307.987H147.304V242.776H67.8124L67.8124 307.987Z" fill="#FF6600" stroke="black" stroke-width="4" stroke-miterlimit="10"/>
<path d="M280.555 30.1847H248.039V95.476H280.555V30.1847Z" fill="#FFCC00"/>
<path d="M248.039 30.1847H204.688V95.476H248.039V30.1847Z" fill="#FF6600"/>
<path d="M280.555 30.1847H248.039H204.688V95.4659H248.039H280.555V30.1847Z" stroke="black" stroke-width="4" stroke-miterlimit="10"/>
<path d="M280.555 30.1847H408.036H578.014V95.4659H408.036H280.555V30.1847Z" fill="#0033CC" stroke="black" stroke-width="4" stroke-miterlimit="10"/>
<path d="M248.039 30.1847H152.329V135.162H248.039V30.1847Z" stroke="black" stroke-width="4" stroke-miterlimit="10"/>
</g>
<defs>
<clipPath id="clip0_2016_178">
<rect width="580" height="310" fill="white"/>
</clipPath>
</defs>
</svg>
