<svg width="160" height="46" viewBox="0 0 160 46" fill="none" xmlns="http://www.w3.org/2000/svg">
<path d="M41 1V45H1V1H41Z" fill="white" stroke="black" stroke-width="2"/>
<path d="M159 1V28H54V1H159Z" fill="#0033CC" stroke="black" stroke-width="2"/>
<path d="M54 1V28H41V1H54Z" fill="#FFCC00" stroke="black" stroke-width="2"/>
<path d="M41 1V28H23V1H41Z" fill="#FF6600" stroke="black" stroke-width="2"/>
<path d="M77.8 20.66C77.1733 21.1533 76.3667 21.5333 75.38 21.8C74.3933 22.0667 73.3267 22.2 72.18 22.2C70.8333 22.2 69.6867 22.0267 68.74 21.68C67.8067 21.3333 67.1 20.8533 66.62 20.24C66.14 19.6267 65.9 18.92 65.9 18.12C65.9 17.3467 66.1133 16.6733 66.54 16.1C66.9667 15.5267 67.54 15.1067 68.26 14.84C67.7133 14.5467 67.28 14.14 66.96 13.62C66.6533 13.0867 66.5 12.4933 66.5 11.84C66.5 11.0933 66.72 10.42 67.16 9.82C67.6133 9.20667 68.2867 8.72 69.18 8.36C70.0733 7.98667 71.1733 7.8 72.48 7.8C73.36 7.8 74.22 7.89333 75.06 8.08C75.9 8.26667 76.6333 8.52 77.26 8.84L76.52 10.9C75.3467 10.2867 74.0333 9.98 72.58 9.98C71.4333 9.98 70.5667 10.1667 69.98 10.54C69.4067 10.9 69.12 11.3867 69.12 12C69.12 12.6 69.3333 13.06 69.76 13.38C70.1867 13.6867 70.8133 13.84 71.64 13.84H75.34V16H71.5C70.5533 16 69.82 16.1667 69.3 16.5C68.78 16.82 68.52 17.3 68.52 17.94C68.52 18.58 68.8333 19.0867 69.46 19.46C70.0867 19.8333 71.0333 20.02 72.3 20.02C73.18 20.02 74.0333 19.9 74.86 19.66C75.7 19.42 76.4 19.0867 76.96 18.66L77.8 20.66ZM92.7855 8L86.6855 22H84.1255L78.0055 8H80.8255L85.4855 18.8L90.1855 8H92.7855ZM105.027 20.66C104.4 21.1533 103.593 21.5333 102.607 21.8C101.62 22.0667 100.553 22.2 99.4066 22.2C98.0599 22.2 96.9132 22.0267 95.9666 21.68C95.0332 21.3333 94.3266 20.8533 93.8466 20.24C93.3666 19.6267 93.1266 18.92 93.1266 18.12C93.1266 17.3467 93.3399 16.6733 93.7666 16.1C94.1932 15.5267 94.7666 15.1067 95.4866 14.84C94.9399 14.5467 94.5066 14.14 94.1866 13.62C93.8799 13.0867 93.7266 12.4933 93.7266 11.84C93.7266 11.0933 93.9466 10.42 94.3866 9.82C94.8399 9.20667 95.5132 8.72 96.4066 8.36C97.2999 7.98667 98.3999 7.8 99.7066 7.8C100.587 7.8 101.447 7.89333 102.287 8.08C103.127 8.26667 103.86 8.52 104.487 8.84L103.747 10.9C102.573 10.2867 101.26 9.98 99.8066 9.98C98.6599 9.98 97.7932 10.1667 97.2066 10.54C96.6332 10.9 96.3466 11.3867 96.3466 12C96.3466 12.6 96.5599 13.06 96.9866 13.38C97.4132 13.6867 98.0399 13.84 98.8666 13.84H102.567V16H98.7266C97.7799 16 97.0466 16.1667 96.5266 16.5C96.0066 16.82 95.7466 17.3 95.7466 17.94C95.7466 18.58 96.0599 19.0867 96.6866 19.46C97.3132 19.8333 98.2599 20.02 99.5266 20.02C100.407 20.02 101.26 19.9 102.087 19.66C102.927 19.42 103.627 19.0867 104.187 18.66L105.027 20.66ZM114.172 7.8C115.852 7.8 117.159 8.31333 118.092 9.34C119.039 10.3667 119.512 11.8333 119.512 13.74V22H116.912V13.84C116.912 12.6 116.612 11.6667 116.012 11.04C115.425 10.4 114.605 10.08 113.552 10.08C112.405 10.08 111.492 10.42 110.812 11.1C110.145 11.7667 109.812 12.7667 109.812 14.1V22H107.212V8H109.732V9.76C110.705 8.45333 112.185 7.8 114.172 7.8ZM132.87 11.48C131.55 10.7333 130.176 10.28 128.75 10.12V22H126.15V10.12C124.71 10.28 123.33 10.7333 122.01 11.48L121.11 9.48C122.043 8.92 123.043 8.5 124.11 8.22C125.19 7.94 126.296 7.8 127.43 7.8C128.563 7.8 129.67 7.94 130.75 8.22C131.83 8.5 132.836 8.92 133.77 9.48L132.87 11.48ZM141.838 22.2C140.411 22.2 139.125 21.8933 137.978 21.28C136.831 20.6533 135.931 19.7933 135.278 18.7C134.625 17.5933 134.298 16.36 134.298 15C134.298 13.64 134.625 12.4133 135.278 11.32C135.931 10.2133 136.831 9.35333 137.978 8.74C139.125 8.11333 140.411 7.8 141.838 7.8C143.265 7.8 144.551 8.11333 145.698 8.74C146.845 9.35333 147.745 10.2067 148.398 11.3C149.051 12.3933 149.378 13.6267 149.378 15C149.378 16.3733 149.051 17.6067 148.398 18.7C147.745 19.7933 146.845 20.6533 145.698 21.28C144.551 21.8933 143.265 22.2 141.838 22.2ZM141.838 19.92C142.771 19.92 143.611 19.7133 144.358 19.3C145.105 18.8733 145.691 18.2867 146.118 17.54C146.545 16.78 146.758 15.9333 146.758 15C146.758 14.0667 146.545 13.2267 146.118 12.48C145.691 11.72 145.105 11.1333 144.358 10.72C143.611 10.2933 142.771 10.08 141.838 10.08C140.905 10.08 140.065 10.2933 139.318 10.72C138.571 11.1333 137.985 11.72 137.558 12.48C137.131 13.2267 136.918 14.0667 136.918 15C136.918 15.9333 137.131 16.78 137.558 17.54C137.985 18.2867 138.571 18.8733 139.318 19.3C140.065 19.7133 140.905 19.92 141.838 19.92Z" fill="white"/>
</svg>
