<svg width="280" height="46" viewBox="0 0 280 46" fill="none" xmlns="http://www.w3.org/2000/svg">
<path d="M41 1V45H1V1H41Z" fill="white" stroke="black" stroke-width="2"/>
<path d="M279 1V28H54V1H279Z" fill="#0033CC" stroke="black" stroke-width="2"/>
<path d="M54 1V28H41V1H54Z" fill="#FFCC00" stroke="black" stroke-width="2"/>
<path d="M41 1V28H23V1H41Z" fill="#FF6600" stroke="black" stroke-width="2"/>
<path d="M71.22 22.2C70.14 22.2 69.0933 22.0467 68.08 21.74C67.08 21.4333 66.2867 21.0267 65.7 20.52L66.6 18.5C67.1733 18.9533 67.8733 19.3267 68.7 19.62C69.54 19.9 70.38 20.04 71.22 20.04C72.26 20.04 73.0333 19.8733 73.54 19.54C74.06 19.2067 74.32 18.7667 74.32 18.22C74.32 17.82 74.1733 17.4933 73.88 17.24C73.6 16.9733 73.24 16.7667 72.8 16.62C72.36 16.4733 71.76 16.3067 71 16.12C69.9333 15.8667 69.0667 15.6133 68.4 15.36C67.7467 15.1067 67.18 14.7133 66.7 14.18C66.2333 13.6333 66 12.9 66 11.98C66 11.2067 66.2067 10.5067 66.62 9.88C67.0467 9.24 67.68 8.73333 68.52 8.36C69.3733 7.98667 70.4133 7.8 71.64 7.8C72.4933 7.8 73.3333 7.90667 74.16 8.12C74.9867 8.33333 75.7 8.64 76.3 9.04L75.48 11.06C74.8667 10.7 74.2267 10.4267 73.56 10.24C72.8933 10.0533 72.2467 9.96 71.62 9.96C70.5933 9.96 69.8267 10.1333 69.32 10.48C68.8267 10.8267 68.58 11.2867 68.58 11.86C68.58 12.26 68.72 12.5867 69 12.84C69.2933 13.0933 69.66 13.2933 70.1 13.44C70.54 13.5867 71.14 13.7533 71.9 13.94C72.94 14.18 73.7933 14.4333 74.46 14.7C75.1267 14.9533 75.6933 15.3467 76.16 15.88C76.64 16.4133 76.88 17.1333 76.88 18.04C76.88 18.8133 76.6667 19.5133 76.24 20.14C75.8267 20.7667 75.1933 21.2667 74.34 21.64C73.4867 22.0133 72.4467 22.2 71.22 22.2ZM91.8981 8V22H89.2981V16H82.0581V22H79.4581V8H82.0581V13.78H89.2981V8H91.8981ZM102.19 22.2C100.763 22.2 99.4762 21.8933 98.3295 21.28C97.1829 20.6533 96.2829 19.7933 95.6295 18.7C94.9762 17.5933 94.6495 16.36 94.6495 15C94.6495 13.64 94.9762 12.4133 95.6295 11.32C96.2829 10.2133 97.1829 9.35333 98.3295 8.74C99.4762 8.11333 100.763 7.8 102.19 7.8C103.616 7.8 104.903 8.11333 106.05 8.74C107.196 9.35333 108.096 10.2067 108.75 11.3C109.403 12.3933 109.73 13.6267 109.73 15C109.73 16.3733 109.403 17.6067 108.75 18.7C108.096 19.7933 107.196 20.6533 106.05 21.28C104.903 21.8933 103.616 22.2 102.19 22.2ZM102.19 19.92C103.123 19.92 103.963 19.7133 104.71 19.3C105.456 18.8733 106.043 18.2867 106.47 17.54C106.896 16.78 107.11 15.9333 107.11 15C107.11 14.0667 106.896 13.2267 106.47 12.48C106.043 11.72 105.456 11.1333 104.71 10.72C103.963 10.2933 103.123 10.08 102.19 10.08C101.256 10.08 100.416 10.2933 99.6695 10.72C98.9229 11.1333 98.3362 11.72 97.9095 12.48C97.4829 13.2267 97.2695 14.0667 97.2695 15C97.2695 15.9333 97.4829 16.78 97.9095 17.54C98.3362 18.2867 98.9229 18.8733 99.6695 19.3C100.416 19.7133 101.256 19.92 102.19 19.92ZM118.245 8C119.459 8 120.512 8.2 121.405 8.6C122.312 9 123.005 9.57333 123.485 10.32C123.965 11.0667 124.205 11.9533 124.205 12.98C124.205 13.9933 123.965 14.88 123.485 15.64C123.005 16.3867 122.312 16.96 121.405 17.36C120.512 17.76 119.459 17.96 118.245 17.96H115.085V22H112.485V8H118.245ZM118.125 15.76C119.259 15.76 120.119 15.52 120.705 15.04C121.292 14.56 121.585 13.8733 121.585 12.98C121.585 12.0867 121.292 11.4 120.705 10.92C120.119 10.44 119.259 10.2 118.125 10.2H115.085V15.76H118.125ZM132.562 8C133.775 8 134.829 8.2 135.722 8.6C136.629 9 137.322 9.57333 137.802 10.32C138.282 11.0667 138.522 11.9533 138.522 12.98C138.522 13.9933 138.282 14.88 137.802 15.64C137.322 16.3867 136.629 16.96 135.722 17.36C134.829 17.76 133.775 17.96 132.562 17.96H129.402V22H126.802V8H132.562ZM132.442 15.76C133.575 15.76 134.435 15.52 135.022 15.04C135.609 14.56 135.902 13.8733 135.902 12.98C135.902 12.0867 135.609 11.4 135.022 10.92C134.435 10.44 133.575 10.2 132.442 10.2H129.402V15.76H132.442ZM145.218 10.18V19.82H147.798V22H140.058V19.82H142.638V10.18H140.058V8H147.798V10.18H145.218ZM157.453 7.8C159.133 7.8 160.44 8.31333 161.373 9.34C162.32 10.3667 162.793 11.8333 162.793 13.74V22H160.193V13.84C160.193 12.6 159.893 11.6667 159.293 11.04C158.707 10.4 157.887 10.08 156.833 10.08C155.687 10.08 154.773 10.42 154.093 11.1C153.427 11.7667 153.093 12.7667 153.093 14.1V22H150.493V8H153.013V9.76C153.987 8.45333 155.467 7.8 157.453 7.8ZM175.991 14.84H178.451V22H176.311V21.18C175.311 21.86 174.057 22.2 172.551 22.2C171.257 22.2 170.071 21.92 168.991 21.36C167.911 20.8 167.044 19.9867 166.391 18.92C165.751 17.8533 165.431 16.58 165.431 15.1C165.431 13.7 165.757 12.4467 166.411 11.34C167.064 10.22 167.964 9.35333 169.111 8.74C170.271 8.11333 171.571 7.8 173.011 7.8C174.184 7.8 175.251 7.99333 176.211 8.38C177.171 8.76667 177.977 9.33333 178.631 10.08L176.991 11.68C175.924 10.6133 174.637 10.08 173.131 10.08C172.144 10.08 171.264 10.2933 170.491 10.72C169.731 11.1333 169.131 11.72 168.691 12.48C168.264 13.24 168.051 14.1067 168.051 15.08C168.051 16.1067 168.264 16.9933 168.691 17.74C169.131 18.4733 169.711 19.0333 170.431 19.42C171.151 19.7933 171.937 19.98 172.791 19.98C173.391 19.98 173.964 19.8867 174.511 19.7C175.071 19.5133 175.564 19.24 175.991 18.88V14.84ZM193.887 22.2C192.474 22.2 191.194 21.8933 190.047 21.28C188.914 20.6533 188.021 19.7933 187.367 18.7C186.727 17.6067 186.407 16.3733 186.407 15C186.407 13.6267 186.734 12.3933 187.387 11.3C188.041 10.2067 188.934 9.35333 190.067 8.74C191.214 8.11333 192.494 7.8 193.907 7.8C195.054 7.8 196.101 8 197.047 8.4C197.994 8.8 198.794 9.38 199.447 10.14L197.767 11.72C196.754 10.6267 195.507 10.08 194.027 10.08C193.067 10.08 192.207 10.2933 191.447 10.72C190.687 11.1333 190.094 11.7133 189.667 12.46C189.241 13.2067 189.027 14.0533 189.027 15C189.027 15.9467 189.241 16.7933 189.667 17.54C190.094 18.2867 190.687 18.8733 191.447 19.3C192.207 19.7133 193.067 19.92 194.027 19.92C195.507 19.92 196.754 19.3667 197.767 18.26L199.447 19.86C198.794 20.62 197.987 21.2 197.027 21.6C196.081 22 195.034 22.2 193.887 22.2ZM212.663 20.66C212.037 21.1533 211.23 21.5333 210.243 21.8C209.257 22.0667 208.19 22.2 207.043 22.2C205.697 22.2 204.55 22.0267 203.603 21.68C202.67 21.3333 201.963 20.8533 201.483 20.24C201.003 19.6267 200.763 18.92 200.763 18.12C200.763 17.3467 200.977 16.6733 201.403 16.1C201.83 15.5267 202.403 15.1067 203.123 14.84C202.577 14.5467 202.143 14.14 201.823 13.62C201.517 13.0867 201.363 12.4933 201.363 11.84C201.363 11.0933 201.583 10.42 202.023 9.82C202.477 9.20667 203.15 8.72 204.043 8.36C204.937 7.98667 206.037 7.8 207.343 7.8C208.223 7.8 209.083 7.89333 209.923 8.08C210.763 8.26667 211.497 8.52 212.123 8.84L211.383 10.9C210.21 10.2867 208.897 9.98 207.443 9.98C206.297 9.98 205.43 10.1667 204.843 10.54C204.27 10.9 203.983 11.3867 203.983 12C203.983 12.6 204.197 13.06 204.623 13.38C205.05 13.6867 205.677 13.84 206.503 13.84H210.203V16H206.363C205.417 16 204.683 16.1667 204.163 16.5C203.643 16.82 203.383 17.3 203.383 17.94C203.383 18.58 203.697 19.0867 204.323 19.46C204.95 19.8333 205.897 20.02 207.163 20.02C208.043 20.02 208.897 19.9 209.723 19.66C210.563 19.42 211.263 19.0867 211.823 18.66L212.663 20.66ZM221.809 7.8C223.489 7.8 224.795 8.31333 225.729 9.34C226.675 10.3667 227.149 11.8333 227.149 13.74V22H224.549V13.84C224.549 12.6 224.249 11.6667 223.649 11.04C223.062 10.4 222.242 10.08 221.189 10.08C220.042 10.08 219.129 10.42 218.449 11.1C217.782 11.7667 217.449 12.7667 217.449 14.1V22H214.849V8H217.369V9.76C218.342 8.45333 219.822 7.8 221.809 7.8ZM240.506 11.48C239.186 10.7333 237.813 10.28 236.386 10.12V22H233.786V10.12C232.346 10.28 230.966 10.7333 229.646 11.48L228.746 9.48C229.68 8.92 230.68 8.5 231.746 8.22C232.826 7.94 233.933 7.8 235.066 7.8C236.2 7.8 237.306 7.94 238.386 8.22C239.466 8.5 240.473 8.92 241.406 9.48L240.506 11.48ZM253.855 20.66C253.228 21.1533 252.421 21.5333 251.435 21.8C250.448 22.0667 249.381 22.2 248.235 22.2C246.888 22.2 245.741 22.0267 244.795 21.68C243.861 21.3333 243.155 20.8533 242.675 20.24C242.195 19.6267 241.955 18.92 241.955 18.12C241.955 17.3467 242.168 16.6733 242.595 16.1C243.021 15.5267 243.595 15.1067 244.315 14.84C243.768 14.5467 243.335 14.14 243.015 13.62C242.708 13.0867 242.555 12.4933 242.555 11.84C242.555 11.0933 242.775 10.42 243.215 9.82C243.668 9.20667 244.341 8.72 245.235 8.36C246.128 7.98667 247.228 7.8 248.535 7.8C249.415 7.8 250.275 7.89333 251.115 8.08C251.955 8.26667 252.688 8.52 253.315 8.84L252.575 10.9C251.401 10.2867 250.088 9.98 248.635 9.98C247.488 9.98 246.621 10.1667 246.035 10.54C245.461 10.9 245.175 11.3867 245.175 12C245.175 12.6 245.388 13.06 245.815 13.38C246.241 13.6867 246.868 13.84 247.695 13.84H251.395V16H247.555C246.608 16 245.875 16.1667 245.355 16.5C244.835 16.82 244.575 17.3 244.575 17.94C244.575 18.58 244.888 19.0867 245.515 19.46C246.141 19.8333 247.088 20.02 248.355 20.02C249.235 20.02 250.088 19.9 250.915 19.66C251.755 19.42 252.455 19.0867 253.015 18.66L253.855 20.66ZM265.2 22L262.34 17.9C262.22 17.9133 262.04 17.92 261.8 17.92H258.64V22H256.04V8H261.8C263.013 8 264.067 8.2 264.96 8.6C265.867 9 266.56 9.57333 267.04 10.32C267.52 11.0667 267.76 11.9533 267.76 12.98C267.76 14.0333 267.5 14.94 266.98 15.7C266.473 16.46 265.74 17.0267 264.78 17.4L268 22H265.2ZM265.14 12.98C265.14 12.0867 264.847 11.4 264.26 10.92C263.673 10.44 262.813 10.2 261.68 10.2H258.64V15.78H261.68C262.813 15.78 263.673 15.54 264.26 15.06C264.847 14.5667 265.14 13.8733 265.14 12.98Z" fill="white"/>
</svg>
