<svg width="117" height="46" viewBox="0 0 117 46" fill="none" xmlns="http://www.w3.org/2000/svg">
<path d="M41 1V45H1V1H41Z" fill="white" stroke="black" stroke-width="2"/>
<path d="M116 1V28H54V1H116Z" fill="#0033CC" stroke="black" stroke-width="2"/>
<path d="M54 1V28H41V1H54Z" fill="#FFCC00" stroke="black" stroke-width="2"/>
<path d="M41 1V28H23V1H41Z" fill="#FF6600" stroke="black" stroke-width="2"/>
<path d="M71.22 22.2C70.14 22.2 69.0933 22.0467 68.08 21.74C67.08 21.4333 66.2867 21.0267 65.7 20.52L66.6 18.5C67.1733 18.9533 67.8733 19.3267 68.7 19.62C69.54 19.9 70.38 20.04 71.22 20.04C72.26 20.04 73.0333 19.8733 73.54 19.54C74.06 19.2067 74.32 18.7667 74.32 18.22C74.32 17.82 74.1733 17.4933 73.88 17.24C73.6 16.9733 73.24 16.7667 72.8 16.62C72.36 16.4733 71.76 16.3067 71 16.12C69.9333 15.8667 69.0667 15.6133 68.4 15.36C67.7467 15.1067 67.18 14.7133 66.7 14.18C66.2333 13.6333 66 12.9 66 11.98C66 11.2067 66.2067 10.5067 66.62 9.88C67.0467 9.24 67.68 8.73333 68.52 8.36C69.3733 7.98667 70.4133 7.8 71.64 7.8C72.4933 7.8 73.3333 7.90667 74.16 8.12C74.9867 8.33333 75.7 8.64 76.3 9.04L75.48 11.06C74.8667 10.7 74.2267 10.4267 73.56 10.24C72.8933 10.0533 72.2467 9.96 71.62 9.96C70.5933 9.96 69.8267 10.1333 69.32 10.48C68.8267 10.8267 68.58 11.2867 68.58 11.86C68.58 12.26 68.72 12.5867 69 12.84C69.2933 13.0933 69.66 13.2933 70.1 13.44C70.54 13.5867 71.14 13.7533 71.9 13.94C72.94 14.18 73.7933 14.4333 74.46 14.7C75.1267 14.9533 75.6933 15.3467 76.16 15.88C76.64 16.4133 76.88 17.1333 76.88 18.04C76.88 18.8133 76.6667 19.5133 76.24 20.14C75.8267 20.7667 75.1933 21.2667 74.34 21.64C73.4867 22.0133 72.4467 22.2 71.22 22.2ZM85.5581 7.8C86.8115 7.8 87.9048 8.04667 88.8381 8.54C89.7715 9.03333 90.4915 9.76667 90.9981 10.74C91.5181 11.7 91.7781 12.8667 91.7781 14.24V22H89.1781V18.4H81.8981V22H79.3381V14.24C79.3381 12.8667 79.5915 11.7 80.0981 10.74C80.6181 9.76667 81.3448 9.03333 82.2781 8.54C83.2115 8.04667 84.3048 7.8 85.5581 7.8ZM89.1781 16.22V14C89.1781 12.7067 88.8581 11.7333 88.2181 11.08C87.5781 10.4133 86.6848 10.08 85.5381 10.08C84.3915 10.08 83.4981 10.4133 82.8581 11.08C82.2181 11.7333 81.8981 12.7067 81.8981 14V16.22H89.1781ZM95.4152 8H98.0152V19.8H105.335V22H95.4152V8Z" fill="white"/>
</svg>
