<svg width="312" height="46" viewBox="0 0 312 46" fill="none" xmlns="http://www.w3.org/2000/svg">
<path d="M41 1V45H1V1H41Z" fill="white" stroke="black" stroke-width="2"/>
<path d="M311 1V28H54V1H311Z" fill="#0033CC" stroke="black" stroke-width="2"/>
<path d="M54 1V28H41V1H54Z" fill="#FFCC00" stroke="black" stroke-width="2"/>
<path d="M41 1V28H23V1H41Z" fill="#FF6600" stroke="black" stroke-width="2"/>
<path d="M72.64 8C73.8533 8 74.9067 8.2 75.8 8.6C76.7067 9 77.4 9.57333 77.88 10.32C78.36 11.0667 78.6 11.9533 78.6 12.98C78.6 13.9933 78.36 14.88 77.88 15.64C77.4 16.3867 76.7067 16.96 75.8 17.36C74.9067 17.76 73.8533 17.96 72.64 17.96H69.48V22H66.88V8H72.64ZM72.52 15.76C73.6533 15.76 74.5133 15.52 75.1 15.04C75.6867 14.56 75.98 13.8733 75.98 12.98C75.98 12.0867 75.6867 11.4 75.1 10.92C74.5133 10.44 73.6533 10.2 72.52 10.2H69.48V15.76H72.52ZM90.3564 22L87.4964 17.9C87.3764 17.9133 87.1964 17.92 86.9564 17.92H83.7964V22H81.1964V8H86.9564C88.1697 8 89.2231 8.2 90.1164 8.6C91.0231 9 91.7164 9.57333 92.1964 10.32C92.6764 11.0667 92.9164 11.9533 92.9164 12.98C92.9164 14.0333 92.6564 14.94 92.1364 15.7C91.6297 16.46 90.8964 17.0267 89.9364 17.4L93.1564 22H90.3564ZM90.2964 12.98C90.2964 12.0867 90.0031 11.4 89.4164 10.92C88.8297 10.44 87.9697 10.2 86.8364 10.2H83.7964V15.78H86.8364C87.9697 15.78 88.8297 15.54 89.4164 15.06C90.0031 14.5667 90.2964 13.8733 90.2964 12.98ZM102.365 22.2C100.939 22.2 99.652 21.8933 98.5053 21.28C97.3586 20.6533 96.4586 19.7933 95.8053 18.7C95.152 17.5933 94.8253 16.36 94.8253 15C94.8253 13.64 95.152 12.4133 95.8053 11.32C96.4586 10.2133 97.3586 9.35333 98.5053 8.74C99.652 8.11333 100.939 7.8 102.365 7.8C103.792 7.8 105.079 8.11333 106.225 8.74C107.372 9.35333 108.272 10.2067 108.925 11.3C109.579 12.3933 109.905 13.6267 109.905 15C109.905 16.3733 109.579 17.6067 108.925 18.7C108.272 19.7933 107.372 20.6533 106.225 21.28C105.079 21.8933 103.792 22.2 102.365 22.2ZM102.365 19.92C103.299 19.92 104.139 19.7133 104.885 19.3C105.632 18.8733 106.219 18.2867 106.645 17.54C107.072 16.78 107.285 15.9333 107.285 15C107.285 14.0667 107.072 13.2267 106.645 12.48C106.219 11.72 105.632 11.1333 104.885 10.72C104.139 10.2933 103.299 10.08 102.365 10.08C101.432 10.08 100.592 10.2933 99.8453 10.72C99.0986 11.1333 98.512 11.72 98.0853 12.48C97.6586 13.2267 97.4453 14.0667 97.4453 15C97.4453 15.9333 97.6586 16.78 98.0853 17.54C98.512 18.2867 99.0986 18.8733 99.8453 19.3C100.592 19.7133 101.432 19.92 102.365 19.92ZM122.186 11.48C120.866 10.7333 119.493 10.28 118.066 10.12V22H115.466V10.12C114.026 10.28 112.646 10.7333 111.326 11.48L110.426 9.48C111.359 8.92 112.359 8.5 113.426 8.22C114.506 7.94 115.613 7.8 116.746 7.8C117.879 7.8 118.986 7.94 120.066 8.22C121.146 8.5 122.153 8.92 123.086 9.48L122.186 11.48ZM135.534 20.66C134.908 21.1533 134.101 21.5333 133.114 21.8C132.128 22.0667 131.061 22.2 129.914 22.2C128.568 22.2 127.421 22.0267 126.474 21.68C125.541 21.3333 124.834 20.8533 124.354 20.24C123.874 19.6267 123.634 18.92 123.634 18.12C123.634 17.3467 123.848 16.6733 124.274 16.1C124.701 15.5267 125.274 15.1067 125.994 14.84C125.448 14.5467 125.014 14.14 124.694 13.62C124.388 13.0867 124.234 12.4933 124.234 11.84C124.234 11.0933 124.454 10.42 124.894 9.82C125.348 9.20667 126.021 8.72 126.914 8.36C127.808 7.98667 128.908 7.8 130.214 7.8C131.094 7.8 131.954 7.89333 132.794 8.08C133.634 8.26667 134.368 8.52 134.994 8.84L134.254 10.9C133.081 10.2867 131.768 9.98 130.314 9.98C129.168 9.98 128.301 10.1667 127.714 10.54C127.141 10.9 126.854 11.3867 126.854 12C126.854 12.6 127.068 13.06 127.494 13.38C127.921 13.6867 128.548 13.84 129.374 13.84H133.074V16H129.234C128.288 16 127.554 16.1667 127.034 16.5C126.514 16.82 126.254 17.3 126.254 17.94C126.254 18.58 126.568 19.0867 127.194 19.46C127.821 19.8333 128.768 20.02 130.034 20.02C130.914 20.02 131.768 19.9 132.594 19.66C133.434 19.42 134.134 19.0867 134.694 18.66L135.534 20.66ZM143.907 22.2C142.494 22.2 141.214 21.8933 140.067 21.28C138.934 20.6533 138.04 19.7933 137.387 18.7C136.747 17.6067 136.427 16.3733 136.427 15C136.427 13.6267 136.754 12.3933 137.407 11.3C138.06 10.2067 138.954 9.35333 140.087 8.74C141.234 8.11333 142.514 7.8 143.927 7.8C145.074 7.8 146.12 8 147.067 8.4C148.014 8.8 148.814 9.38 149.467 10.14L147.787 11.72C146.774 10.6267 145.527 10.08 144.047 10.08C143.087 10.08 142.227 10.2933 141.467 10.72C140.707 11.1333 140.114 11.7133 139.687 12.46C139.26 13.2067 139.047 14.0533 139.047 15C139.047 15.9467 139.26 16.7933 139.687 17.54C140.114 18.2867 140.707 18.8733 141.467 19.3C142.227 19.7133 143.087 19.92 144.047 19.92C145.527 19.92 146.774 19.3667 147.787 18.26L149.467 19.86C148.814 20.62 148.007 21.2 147.047 21.6C146.1 22 145.054 22.2 143.907 22.2ZM142.967 26.56C142.247 26.56 141.634 26.42 141.127 26.14L141.587 24.96C142 25.1733 142.454 25.28 142.947 25.28C143.654 25.28 144.007 25.04 144.007 24.56C144.007 24.36 143.92 24.2 143.747 24.08C143.574 23.96 143.307 23.9 142.947 23.9H142.327L142.867 21.86H144.227L143.947 22.98C144.52 23.0467 144.954 23.2267 145.247 23.52C145.54 23.8267 145.687 24.2067 145.687 24.66C145.687 25.2333 145.44 25.6933 144.947 26.04C144.454 26.3867 143.794 26.56 142.967 26.56ZM158.058 7.8C159.311 7.8 160.405 8.04667 161.338 8.54C162.271 9.03333 162.991 9.76667 163.498 10.74C164.018 11.7 164.278 12.8667 164.278 14.24V22H161.678V18.4H154.398V22H151.838V14.24C151.838 12.8667 152.091 11.7 152.598 10.74C153.118 9.76667 153.845 9.03333 154.778 8.54C155.711 8.04667 156.805 7.8 158.058 7.8ZM161.678 16.22V14C161.678 12.7067 161.358 11.7333 160.718 11.08C160.078 10.4133 159.185 10.08 158.038 10.08C156.891 10.08 155.998 10.4133 155.358 11.08C154.718 11.7333 154.398 12.7067 154.398 14V16.22H161.678ZM159.498 6.86C159.165 6.86 158.871 6.79333 158.618 6.66C158.378 6.52667 158.078 6.32667 157.718 6.06C157.505 5.88667 157.325 5.76 157.178 5.68C157.045 5.58667 156.911 5.54 156.778 5.54C156.498 5.54 156.265 5.64667 156.078 5.86C155.905 6.07333 155.811 6.36667 155.798 6.74H154.458C154.471 5.92667 154.671 5.28 155.058 4.8C155.458 4.30667 155.978 4.06 156.618 4.06C156.951 4.06 157.238 4.12667 157.478 4.26C157.731 4.39333 158.038 4.59333 158.398 4.86C158.611 5.03333 158.785 5.16667 158.918 5.26C159.065 5.34 159.205 5.38 159.338 5.38C159.618 5.38 159.845 5.28 160.018 5.08C160.205 4.88 160.305 4.6 160.318 4.24H161.658C161.631 5.02667 161.425 5.66 161.038 6.14C160.651 6.62 160.138 6.86 159.498 6.86ZM174.455 22.2C173.028 22.2 171.742 21.8933 170.595 21.28C169.448 20.6533 168.548 19.7933 167.895 18.7C167.242 17.5933 166.915 16.36 166.915 15C166.915 13.64 167.242 12.4133 167.895 11.32C168.548 10.2133 169.448 9.35333 170.595 8.74C171.742 8.11333 173.028 7.8 174.455 7.8C175.882 7.8 177.168 8.11333 178.315 8.74C179.462 9.35333 180.362 10.2067 181.015 11.3C181.668 12.3933 181.995 13.6267 181.995 15C181.995 16.3733 181.668 17.6067 181.015 18.7C180.362 19.7933 179.462 20.6533 178.315 21.28C177.168 21.8933 175.882 22.2 174.455 22.2ZM174.455 19.92C175.388 19.92 176.228 19.7133 176.975 19.3C177.722 18.8733 178.308 18.2867 178.735 17.54C179.162 16.78 179.375 15.9333 179.375 15C179.375 14.0667 179.162 13.2267 178.735 12.48C178.308 11.72 177.722 11.1333 176.975 10.72C176.228 10.2933 175.388 10.08 174.455 10.08C173.522 10.08 172.682 10.2933 171.935 10.72C171.188 11.1333 170.602 11.72 170.175 12.48C169.748 13.2267 169.535 14.0667 169.535 15C169.535 15.9333 169.748 16.78 170.175 17.54C170.602 18.2867 171.188 18.8733 171.935 19.3C172.682 19.7133 173.522 19.92 174.455 19.92ZM203.078 8L196.978 22H194.418L188.298 8H191.118L195.778 18.8L200.478 8H203.078ZM215.32 20.66C214.693 21.1533 213.886 21.5333 212.9 21.8C211.913 22.0667 210.846 22.2 209.7 22.2C208.353 22.2 207.206 22.0267 206.26 21.68C205.326 21.3333 204.62 20.8533 204.14 20.24C203.66 19.6267 203.42 18.92 203.42 18.12C203.42 17.3467 203.633 16.6733 204.06 16.1C204.486 15.5267 205.06 15.1067 205.78 14.84C205.233 14.5467 204.8 14.14 204.48 13.62C204.173 13.0867 204.02 12.4933 204.02 11.84C204.02 11.0933 204.24 10.42 204.68 9.82C205.133 9.20667 205.806 8.72 206.7 8.36C207.593 7.98667 208.693 7.8 210 7.8C210.88 7.8 211.74 7.89333 212.58 8.08C213.42 8.26667 214.153 8.52 214.78 8.84L214.04 10.9C212.866 10.2867 211.553 9.98 210.1 9.98C208.953 9.98 208.086 10.1667 207.5 10.54C206.926 10.9 206.64 11.3867 206.64 12C206.64 12.6 206.853 13.06 207.28 13.38C207.706 13.6867 208.333 13.84 209.16 13.84H212.86V16H209.02C208.073 16 207.34 16.1667 206.82 16.5C206.3 16.82 206.04 17.3 206.04 17.94C206.04 18.58 206.353 19.0867 206.98 19.46C207.606 19.8333 208.553 20.02 209.82 20.02C210.7 20.02 211.553 19.9 212.38 19.66C213.22 19.42 213.92 19.0867 214.48 18.66L215.32 20.66ZM221.605 10.18V19.82H224.185V22H216.445V19.82H219.025V10.18H216.445V8H224.185V10.18H221.605ZM233.262 22.2C231.849 22.2 230.569 21.8933 229.422 21.28C228.289 20.6533 227.396 19.7933 226.742 18.7C226.102 17.6067 225.782 16.3733 225.782 15C225.782 13.6267 226.109 12.3933 226.762 11.3C227.416 10.2067 228.309 9.35333 229.442 8.74C230.589 8.11333 231.869 7.8 233.282 7.8C234.429 7.8 235.476 8 236.422 8.4C237.369 8.8 238.169 9.38 238.822 10.14L237.142 11.72C236.129 10.6267 234.882 10.08 233.402 10.08C232.442 10.08 231.582 10.2933 230.822 10.72C230.062 11.1333 229.469 11.7133 229.042 12.46C228.616 13.2067 228.402 14.0533 228.402 15C228.402 15.9467 228.616 16.7933 229.042 17.54C229.469 18.2867 230.062 18.8733 230.822 19.3C231.582 19.7133 232.442 19.92 233.402 19.92C234.882 19.92 236.129 19.3667 237.142 18.26L238.822 19.86C238.169 20.62 237.362 21.2 236.402 21.6C235.456 22 234.409 22.2 233.262 22.2ZM253.316 8V22H250.816V20.22C249.869 21.54 248.403 22.2 246.416 22.2C244.763 22.2 243.463 21.6867 242.516 20.66C241.569 19.62 241.096 18.1533 241.096 16.26V8H243.696V16.16C243.696 17.4 243.989 18.34 244.576 18.98C245.176 19.6067 245.996 19.92 247.036 19.92C248.156 19.92 249.049 19.5867 249.716 18.92C250.383 18.24 250.716 17.2333 250.716 15.9V8H253.316ZM257.075 8H259.675V19.8H266.995V22H257.075V8ZM275.148 7.8C276.401 7.8 277.495 8.04667 278.428 8.54C279.361 9.03333 280.081 9.76667 280.588 10.74C281.108 11.7 281.368 12.8667 281.368 14.24V22H278.768V18.4H271.488V22H268.928V14.24C268.928 12.8667 269.181 11.7 269.688 10.74C270.208 9.76667 270.935 9.03333 271.868 8.54C272.801 8.04667 273.895 7.8 275.148 7.8ZM278.768 16.22V14C278.768 12.7067 278.448 11.7333 277.808 11.08C277.168 10.4133 276.275 10.08 275.128 10.08C273.981 10.08 273.088 10.4133 272.448 11.08C271.808 11.7333 271.488 12.7067 271.488 14V16.22H278.768ZM294.165 22L291.305 17.9C291.185 17.9133 291.005 17.92 290.765 17.92H287.605V22H285.005V8H290.765C291.978 8 293.032 8.2 293.925 8.6C294.832 9 295.525 9.57333 296.005 10.32C296.485 11.0667 296.725 11.9533 296.725 12.98C296.725 14.0333 296.465 14.94 295.945 15.7C295.438 16.46 294.705 17.0267 293.745 17.4L296.965 22H294.165ZM294.105 12.98C294.105 12.0867 293.812 11.4 293.225 10.92C292.638 10.44 291.778 10.2 290.645 10.2H287.605V15.78H290.645C291.778 15.78 292.638 15.54 293.225 15.06C293.812 14.5667 294.105 13.8733 294.105 12.98Z" fill="white"/>
</svg>
