<svg width="387" height="46" viewBox="0 0 387 46" fill="none" xmlns="http://www.w3.org/2000/svg">
<path d="M41 1V45H1V1H41Z" fill="white" stroke="black" stroke-width="2"/>
<path d="M386 1V28H54V1H386Z" fill="#0033CC" stroke="black" stroke-width="2"/>
<path d="M54 1V28H41V1H54Z" fill="#FFCC00" stroke="black" stroke-width="2"/>
<path d="M41 1V28H23V1H41Z" fill="#FF6600" stroke="black" stroke-width="2"/>
<path d="M66.88 8H69.48V19.8H76.8V22H66.88V8ZM85.1388 22.2C83.7121 22.2 82.4254 21.8933 81.2788 21.28C80.1321 20.6533 79.2321 19.7933 78.5788 18.7C77.9254 17.5933 77.5988 16.36 77.5988 15C77.5988 13.64 77.9254 12.4133 78.5788 11.32C79.2321 10.2133 80.1321 9.35333 81.2788 8.74C82.4254 8.11333 83.7121 7.8 85.1388 7.8C86.5654 7.8 87.8521 8.11333 88.9988 8.74C90.1454 9.35333 91.0454 10.2067 91.6988 11.3C92.3521 12.3933 92.6788 13.6267 92.6788 15C92.6788 16.3733 92.3521 17.6067 91.6988 18.7C91.0454 19.7933 90.1454 20.6533 88.9988 21.28C87.8521 21.8933 86.5654 22.2 85.1388 22.2ZM85.1388 19.92C86.0721 19.92 86.9121 19.7133 87.6588 19.3C88.4054 18.8733 88.9921 18.2867 89.4188 17.54C89.8454 16.78 90.0588 15.9333 90.0588 15C90.0588 14.0667 89.8454 13.2267 89.4188 12.48C88.9921 11.72 88.4054 11.1333 87.6588 10.72C86.9121 10.2933 86.0721 10.08 85.1388 10.08C84.2054 10.08 83.3654 10.2933 82.6188 10.72C81.8721 11.1333 81.2854 11.72 80.8588 12.48C80.4321 13.2267 80.2188 14.0667 80.2188 15C80.2188 15.9333 80.4321 16.78 80.8588 17.54C81.2854 18.2867 81.8721 18.8733 82.6188 19.3C83.3654 19.7133 84.2054 19.92 85.1388 19.92ZM96.9492 24.2C96.0692 24.2 95.2559 24.0267 94.5092 23.68C93.7759 23.3333 93.1692 22.8333 92.6892 22.18L94.1292 20.4C94.8892 21.4667 95.8026 22 96.8692 22C98.3492 22 99.0892 21.14 99.0892 19.42V10.18H94.0892V8H101.669V19.28C101.669 20.92 101.269 22.1467 100.469 22.96C99.6692 23.7867 98.4959 24.2 96.9492 24.2ZM111.418 7.8C112.671 7.8 113.764 8.04667 114.698 8.54C115.631 9.03333 116.351 9.76667 116.858 10.74C117.378 11.7 117.638 12.8667 117.638 14.24V22H115.038V18.4H107.758V22H105.198V14.24C105.198 12.8667 105.451 11.7 105.958 10.74C106.478 9.76667 107.204 9.03333 108.138 8.54C109.071 8.04667 110.164 7.8 111.418 7.8ZM115.038 16.22V14C115.038 12.7067 114.718 11.7333 114.078 11.08C113.438 10.4133 112.544 10.08 111.398 10.08C110.251 10.08 109.358 10.4133 108.717 11.08C108.078 11.7333 107.758 12.7067 107.758 14V16.22H115.038ZM126.802 8H132.922C134.415 8 135.742 8.29333 136.902 8.88C138.062 9.45333 138.962 10.2733 139.602 11.34C140.242 12.3933 140.562 13.6133 140.562 15C140.562 16.3867 140.242 17.6133 139.602 18.68C138.962 19.7333 138.062 20.5533 136.902 21.14C135.742 21.7133 134.415 22 132.922 22H126.802V8ZM132.802 19.8C133.829 19.8 134.729 19.6067 135.502 19.22C136.289 18.82 136.889 18.26 137.302 17.54C137.729 16.8067 137.942 15.96 137.942 15C137.942 14.04 137.729 13.2 137.302 12.48C136.889 11.7467 136.289 11.1867 135.502 10.8C134.729 10.4 133.829 10.2 132.802 10.2H129.402V19.8H132.802ZM154.245 20.66C153.619 21.1533 152.812 21.5333 151.825 21.8C150.839 22.0667 149.772 22.2 148.625 22.2C147.279 22.2 146.132 22.0267 145.185 21.68C144.252 21.3333 143.545 20.8533 143.065 20.24C142.585 19.6267 142.345 18.92 142.345 18.12C142.345 17.3467 142.559 16.6733 142.985 16.1C143.412 15.5267 143.985 15.1067 144.705 14.84C144.159 14.5467 143.725 14.14 143.405 13.62C143.099 13.0867 142.945 12.4933 142.945 11.84C142.945 11.0933 143.165 10.42 143.605 9.82C144.059 9.20667 144.732 8.72 145.625 8.36C146.519 7.98667 147.619 7.8 148.925 7.8C149.805 7.8 150.665 7.89333 151.505 8.08C152.345 8.26667 153.079 8.52 153.705 8.84L152.965 10.9C151.792 10.2867 150.479 9.98 149.025 9.98C147.879 9.98 147.012 10.1667 146.425 10.54C145.852 10.9 145.565 11.3867 145.565 12C145.565 12.6 145.779 13.06 146.205 13.38C146.632 13.6867 147.259 13.84 148.085 13.84H151.785V16H147.945C146.999 16 146.265 16.1667 145.745 16.5C145.225 16.82 144.965 17.3 144.965 17.94C144.965 18.58 145.279 19.0867 145.905 19.46C146.532 19.8333 147.479 20.02 148.745 20.02C149.625 20.02 150.479 19.9 151.305 19.66C152.145 19.42 152.845 19.0867 153.405 18.66L154.245 20.66ZM174.758 8L168.658 22H166.098L159.978 8H162.798L167.458 18.8L172.158 8H174.758ZM186.999 20.66C186.373 21.1533 185.566 21.5333 184.579 21.8C183.593 22.0667 182.526 22.2 181.379 22.2C180.033 22.2 178.886 22.0267 177.939 21.68C177.006 21.3333 176.299 20.8533 175.819 20.24C175.339 19.6267 175.099 18.92 175.099 18.12C175.099 17.3467 175.313 16.6733 175.739 16.1C176.166 15.5267 176.739 15.1067 177.459 14.84C176.913 14.5467 176.479 14.14 176.159 13.62C175.853 13.0867 175.699 12.4933 175.699 11.84C175.699 11.0933 175.919 10.42 176.359 9.82C176.813 9.20667 177.486 8.72 178.379 8.36C179.273 7.98667 180.373 7.8 181.679 7.8C182.559 7.8 183.419 7.89333 184.259 8.08C185.099 8.26667 185.833 8.52 186.459 8.84L185.719 10.9C184.546 10.2867 183.233 9.98 181.779 9.98C180.633 9.98 179.766 10.1667 179.179 10.54C178.606 10.9 178.319 11.3867 178.319 12C178.319 12.6 178.533 13.06 178.959 13.38C179.386 13.6867 180.013 13.84 180.839 13.84H184.539V16H180.699C179.753 16 179.019 16.1667 178.499 16.5C177.979 16.82 177.719 17.3 177.719 17.94C177.719 18.58 178.033 19.0867 178.659 19.46C179.286 19.8333 180.233 20.02 181.499 20.02C182.379 20.02 183.233 19.9 184.059 19.66C184.899 19.42 185.599 19.0867 186.159 18.66L186.999 20.66ZM193.285 10.18V19.82H195.865V22H188.125V19.82H190.705V10.18H188.125V8H195.865V10.18H193.285ZM193.025 4.12H195.965L192.485 6.86H190.325L193.025 4.12ZM204.942 22.2C203.529 22.2 202.249 21.8933 201.102 21.28C199.969 20.6533 199.075 19.7933 198.422 18.7C197.782 17.6067 197.462 16.3733 197.462 15C197.462 13.6267 197.789 12.3933 198.442 11.3C199.095 10.2067 199.989 9.35333 201.122 8.74C202.269 8.11333 203.549 7.8 204.962 7.8C206.109 7.8 207.155 8 208.102 8.4C209.049 8.8 209.849 9.38 210.502 10.14L208.822 11.72C207.809 10.6267 206.562 10.08 205.082 10.08C204.122 10.08 203.262 10.2933 202.502 10.72C201.742 11.1333 201.149 11.7133 200.722 12.46C200.295 13.2067 200.082 14.0533 200.082 15C200.082 15.9467 200.295 16.7933 200.722 17.54C201.149 18.2867 201.742 18.8733 202.502 19.3C203.262 19.7133 204.122 19.92 205.082 19.92C206.562 19.92 207.809 19.3667 208.822 18.26L210.502 19.86C209.849 20.62 209.042 21.2 208.082 21.6C207.135 22 206.089 22.2 204.942 22.2ZM224.996 8V22H222.496V20.22C221.549 21.54 220.082 22.2 218.096 22.2C216.442 22.2 215.142 21.6867 214.196 20.66C213.249 19.62 212.776 18.1533 212.776 16.26V8H215.376V16.16C215.376 17.4 215.669 18.34 216.256 18.98C216.856 19.6067 217.676 19.92 218.716 19.92C219.836 19.92 220.729 19.5867 221.396 18.92C222.062 18.24 222.396 17.2333 222.396 15.9V8H224.996ZM228.755 8H231.355V19.8H238.675V22H228.755V8ZM247.014 22.2C245.587 22.2 244.3 21.8933 243.154 21.28C242.007 20.6533 241.107 19.7933 240.454 18.7C239.8 17.5933 239.474 16.36 239.474 15C239.474 13.64 239.8 12.4133 240.454 11.32C241.107 10.2133 242.007 9.35333 243.154 8.74C244.3 8.11333 245.587 7.8 247.014 7.8C248.44 7.8 249.727 8.11333 250.874 8.74C252.02 9.35333 252.92 10.2067 253.574 11.3C254.227 12.3933 254.554 13.6267 254.554 15C254.554 16.3733 254.227 17.6067 253.574 18.7C252.92 19.7933 252.02 20.6533 250.874 21.28C249.727 21.8933 248.44 22.2 247.014 22.2ZM247.014 19.92C247.947 19.92 248.787 19.7133 249.534 19.3C250.28 18.8733 250.867 18.2867 251.294 17.54C251.72 16.78 251.934 15.9333 251.934 15C251.934 14.0667 251.72 13.2267 251.294 12.48C250.867 11.72 250.28 11.1333 249.534 10.72C248.787 10.2933 247.947 10.08 247.014 10.08C246.08 10.08 245.24 10.2933 244.494 10.72C243.747 11.1333 243.16 11.72 242.734 12.48C242.307 13.2267 242.094 14.0667 242.094 15C242.094 15.9333 242.307 16.78 242.734 17.54C243.16 18.2867 243.747 18.8733 244.494 19.3C245.24 19.7133 246.08 19.92 247.014 19.92ZM261.65 22.2C260.57 22.2 259.523 22.0467 258.51 21.74C257.51 21.4333 256.716 21.0267 256.13 20.52L257.03 18.5C257.603 18.9533 258.303 19.3267 259.13 19.62C259.97 19.9 260.81 20.04 261.65 20.04C262.69 20.04 263.463 19.8733 263.97 19.54C264.49 19.2067 264.75 18.7667 264.75 18.22C264.75 17.82 264.603 17.4933 264.31 17.24C264.03 16.9733 263.67 16.7667 263.23 16.62C262.79 16.4733 262.19 16.3067 261.43 16.12C260.363 15.8667 259.496 15.6133 258.83 15.36C258.176 15.1067 257.61 14.7133 257.13 14.18C256.663 13.6333 256.43 12.9 256.43 11.98C256.43 11.2067 256.636 10.5067 257.05 9.88C257.476 9.24 258.11 8.73333 258.95 8.36C259.803 7.98667 260.843 7.8 262.07 7.8C262.923 7.8 263.763 7.90667 264.59 8.12C265.416 8.33333 266.13 8.64 266.73 9.04L265.91 11.06C265.296 10.7 264.656 10.4267 263.99 10.24C263.323 10.0533 262.676 9.96 262.05 9.96C261.023 9.96 260.256 10.1333 259.75 10.48C259.256 10.8267 259.01 11.2867 259.01 11.86C259.01 12.26 259.15 12.5867 259.43 12.84C259.723 13.0933 260.09 13.2933 260.53 13.44C260.97 13.5867 261.57 13.7533 262.33 13.94C263.37 14.18 264.223 14.4333 264.89 14.7C265.556 14.9533 266.123 15.3467 266.59 15.88C267.07 16.4133 267.31 17.1333 267.31 18.04C267.31 18.8133 267.096 19.5133 266.67 20.14C266.256 20.7667 265.623 21.2667 264.77 21.64C263.916 22.0133 262.876 22.2 261.65 22.2ZM286.395 19.82V22H274.455V20.42L278.095 15.9H275.615V13.84H279.755L282.715 10.18H274.555V8H286.095V9.56L282.615 13.88H284.935V15.94H280.955L277.835 19.82H286.395ZM299.792 20.66C299.166 21.1533 298.359 21.5333 297.372 21.8C296.386 22.0667 295.319 22.2 294.172 22.2C292.826 22.2 291.679 22.0267 290.732 21.68C289.799 21.3333 289.092 20.8533 288.612 20.24C288.132 19.6267 287.892 18.92 287.892 18.12C287.892 17.3467 288.106 16.6733 288.532 16.1C288.959 15.5267 289.532 15.1067 290.252 14.84C289.706 14.5467 289.272 14.14 288.952 13.62C288.646 13.0867 288.492 12.4933 288.492 11.84C288.492 11.0933 288.712 10.42 289.152 9.82C289.606 9.20667 290.279 8.72 291.172 8.36C292.066 7.98667 293.166 7.8 294.472 7.8C295.352 7.8 296.212 7.89333 297.052 8.08C297.892 8.26667 298.626 8.52 299.252 8.84L298.512 10.9C297.339 10.2867 296.026 9.98 294.572 9.98C293.426 9.98 292.559 10.1667 291.972 10.54C291.399 10.9 291.112 11.3867 291.112 12C291.112 12.6 291.326 13.06 291.752 13.38C292.179 13.6867 292.806 13.84 293.632 13.84H297.332V16H293.492C292.546 16 291.812 16.1667 291.292 16.5C290.772 16.82 290.512 17.3 290.512 17.94C290.512 18.58 290.826 19.0867 291.452 19.46C292.079 19.8333 293.026 20.02 294.292 20.02C295.172 20.02 296.026 19.9 296.852 19.66C297.692 19.42 298.392 19.0867 298.952 18.66L299.792 20.66ZM311.138 22L308.278 17.9C308.158 17.9133 307.978 17.92 307.738 17.92H304.578V22H301.978V8H307.738C308.951 8 310.004 8.2 310.898 8.6C311.804 9 312.498 9.57333 312.978 10.32C313.458 11.0667 313.698 11.9533 313.698 12.98C313.698 14.0333 313.438 14.94 312.918 15.7C312.411 16.46 311.678 17.0267 310.718 17.4L313.938 22H311.138ZM311.078 12.98C311.078 12.0867 310.784 11.4 310.198 10.92C309.611 10.44 308.751 10.2 307.618 10.2H304.578V15.78H307.618C308.751 15.78 309.611 15.54 310.198 15.06C310.784 14.5667 311.078 13.8733 311.078 12.98ZM323.147 22.2C321.72 22.2 320.433 21.8933 319.287 21.28C318.14 20.6533 317.24 19.7933 316.587 18.7C315.933 17.5933 315.607 16.36 315.607 15C315.607 13.64 315.933 12.4133 316.587 11.32C317.24 10.2133 318.14 9.35333 319.287 8.74C320.433 8.11333 321.72 7.8 323.147 7.8C324.573 7.8 325.86 8.11333 327.007 8.74C328.153 9.35333 329.053 10.2067 329.707 11.3C330.36 12.3933 330.687 13.6267 330.687 15C330.687 16.3733 330.36 17.6067 329.707 18.7C329.053 19.7933 328.153 20.6533 327.007 21.28C325.86 21.8933 324.573 22.2 323.147 22.2ZM323.147 19.92C324.08 19.92 324.92 19.7133 325.667 19.3C326.413 18.8733 327 18.2867 327.427 17.54C327.853 16.78 328.067 15.9333 328.067 15C328.067 14.0667 327.853 13.2267 327.427 12.48C327 11.72 326.413 11.1333 325.667 10.72C324.92 10.2933 324.08 10.08 323.147 10.08C322.213 10.08 321.373 10.2933 320.627 10.72C319.88 11.1333 319.293 11.72 318.867 12.48C318.44 13.2267 318.227 14.0667 318.227 15C318.227 15.9333 318.44 16.78 318.867 17.54C319.293 18.2867 319.88 18.8733 320.627 19.3C321.373 19.7133 322.213 19.92 323.147 19.92ZM343.79 16.14L341.57 18.42V22H338.97V8H341.57V15.18L348.49 8H351.41L345.53 14.26L351.77 22H348.73L343.79 16.14ZM369.18 7.8C370.82 7.8 372.1 8.28 373.02 9.24C373.94 10.1867 374.4 11.5533 374.4 13.34V22H371.8V13.44C371.8 12.3333 371.507 11.5 370.92 10.94C370.347 10.3667 369.593 10.08 368.66 10.08C367.62 10.08 366.787 10.3733 366.16 10.96C365.547 11.5467 365.24 12.4467 365.24 13.66V22H362.64V13.44C362.64 12.32 362.367 11.48 361.82 10.92C361.287 10.36 360.553 10.08 359.62 10.08C358.567 10.08 357.72 10.38 357.08 10.98C356.453 11.5667 356.14 12.46 356.14 13.66V22H353.54V8H356.06V9.84C356.487 9.18667 357.067 8.68667 357.8 8.34C358.533 7.98 359.38 7.8 360.34 7.8C361.327 7.8 362.187 7.98667 362.92 8.36C363.653 8.73333 364.207 9.26 364.58 9.94C365.047 9.26 365.68 8.73333 366.48 8.36C367.293 7.98667 368.193 7.8 369.18 7.8Z" fill="white"/>
</svg>
