<svg width="304" height="46" viewBox="0 0 304 46" fill="none" xmlns="http://www.w3.org/2000/svg">
<path d="M41 1V45H1V1H41Z" fill="white" stroke="black" stroke-width="2"/>
<path d="M303 1V28H54V1H303Z" fill="#0033CC" stroke="black" stroke-width="2"/>
<path d="M54 1V28H41V1H54Z" fill="#FFCC00" stroke="black" stroke-width="2"/>
<path d="M41 1V28H23V1H41Z" fill="#FF6600" stroke="black" stroke-width="2"/>
<path d="M73 10.08C71.8 10.08 70.8933 10.3467 70.28 10.88C69.6667 11.4133 69.36 12.2 69.36 13.24V14.44H75.46V16.64H69.36V22H66.76V13.24C66.76 11.5467 67.3 10.22 68.38 9.26C69.4733 8.28667 70.9733 7.8 72.88 7.8C73.68 7.8 74.4267 7.88667 75.12 8.06C75.8133 8.23333 76.42 8.48667 76.94 8.82L76.12 10.94C75.2933 10.3667 74.2533 10.08 73 10.08ZM84.6792 7.8C85.9326 7.8 87.0259 8.04667 87.9592 8.54C88.8926 9.03333 89.6126 9.76667 90.1192 10.74C90.6392 11.7 90.8992 12.8667 90.8992 14.24V22H88.2992V18.4H81.0192V22H78.4592V14.24C78.4592 12.8667 78.7126 11.7 79.2192 10.74C79.7392 9.76667 80.4659 9.03333 81.3992 8.54C82.3326 8.04667 83.4259 7.8 84.6792 7.8ZM88.2992 16.22V14C88.2992 12.7067 87.9792 11.7333 87.3392 11.08C86.6992 10.4133 85.8059 10.08 84.6592 10.08C83.5126 10.08 82.6192 10.4133 81.9792 11.08C81.3392 11.7333 81.0192 12.7067 81.0192 14V16.22H88.2992ZM85.6992 4.12H88.6392L85.1592 6.86H82.9992L85.6992 4.12ZM104.456 14.72C105.23 14.9733 105.843 15.4 106.296 16C106.75 16.5867 106.976 17.32 106.976 18.2C106.976 19.4133 106.51 20.3533 105.576 21.02C104.643 21.6733 103.283 22 101.496 22H94.5363V8H101.096C102.75 8 104.023 8.32667 104.916 8.98C105.81 9.62 106.256 10.5067 106.256 11.64C106.256 12.3333 106.096 12.9467 105.776 13.48C105.456 14.0133 105.016 14.4267 104.456 14.72ZM97.1363 10.04V13.9H100.816C101.723 13.9 102.416 13.74 102.896 13.42C103.39 13.0867 103.636 12.6067 103.636 11.98C103.636 11.34 103.39 10.86 102.896 10.54C102.416 10.2067 101.723 10.04 100.816 10.04H97.1363ZM101.336 19.96C103.35 19.96 104.356 19.2867 104.356 17.94C104.356 16.5933 103.35 15.92 101.336 15.92H97.1363V19.96H101.336ZM118.911 22L116.051 17.9C115.931 17.9133 115.751 17.92 115.511 17.92H112.351V22H109.751V8H115.511C116.724 8 117.778 8.2 118.671 8.6C119.578 9 120.271 9.57333 120.751 10.32C121.231 11.0667 121.471 11.9533 121.471 12.98C121.471 14.0333 121.211 14.94 120.691 15.7C120.184 16.46 119.451 17.0267 118.491 17.4L121.711 22H118.911ZM118.851 12.98C118.851 12.0867 118.558 11.4 117.971 10.92C117.384 10.44 116.524 10.2 115.391 10.2H112.351V15.78H115.391C116.524 15.78 117.384 15.54 117.971 15.06C118.558 14.5667 118.851 13.8733 118.851 12.98ZM128.48 10.18V19.82H131.06V22H123.32V19.82H125.9V10.18H123.32V8H131.06V10.18H128.48ZM140.137 22.2C138.724 22.2 137.444 21.8933 136.297 21.28C135.164 20.6533 134.271 19.7933 133.617 18.7C132.977 17.6067 132.657 16.3733 132.657 15C132.657 13.6267 132.984 12.3933 133.637 11.3C134.291 10.2067 135.184 9.35333 136.317 8.74C137.464 8.11333 138.744 7.8 140.157 7.8C141.304 7.8 142.351 8 143.297 8.4C144.244 8.8 145.044 9.38 145.697 10.14L144.017 11.72C143.004 10.6267 141.757 10.08 140.277 10.08C139.317 10.08 138.457 10.2933 137.697 10.72C136.937 11.1333 136.344 11.7133 135.917 12.46C135.491 13.2067 135.277 14.0533 135.277 15C135.277 15.9467 135.491 16.7933 135.917 17.54C136.344 18.2867 136.937 18.8733 137.697 19.3C138.457 19.7133 139.317 19.92 140.277 19.92C141.757 19.92 143.004 19.3667 144.017 18.26L145.697 19.86C145.044 20.62 144.237 21.2 143.277 21.6C142.331 22 141.284 22.2 140.137 22.2ZM154.289 7.8C155.542 7.8 156.635 8.04667 157.569 8.54C158.502 9.03333 159.222 9.76667 159.729 10.74C160.249 11.7 160.509 12.8667 160.509 14.24V22H157.909V18.4H150.629V22H148.069V14.24C148.069 12.8667 148.322 11.7 148.829 10.74C149.349 9.76667 150.075 9.03333 151.009 8.54C151.942 8.04667 153.035 7.8 154.289 7.8ZM157.909 16.22V14C157.909 12.7067 157.589 11.7333 156.949 11.08C156.309 10.4133 155.415 10.08 154.269 10.08C153.122 10.08 152.229 10.4133 151.589 11.08C150.949 11.7333 150.629 12.7067 150.629 14V16.22H157.909ZM169.673 8H175.793C177.286 8 178.613 8.29333 179.773 8.88C180.933 9.45333 181.833 10.2733 182.473 11.34C183.113 12.3933 183.433 13.6133 183.433 15C183.433 16.3867 183.113 17.6133 182.473 18.68C181.833 19.7333 180.933 20.5533 179.773 21.14C178.613 21.7133 177.286 22 175.793 22H169.673V8ZM175.673 19.8C176.7 19.8 177.6 19.6067 178.373 19.22C179.16 18.82 179.76 18.26 180.173 17.54C180.6 16.8067 180.813 15.96 180.813 15C180.813 14.04 180.6 13.2 180.173 12.48C179.76 11.7467 179.16 11.1867 178.373 10.8C177.6 10.4 176.7 10.2 175.673 10.2H172.273V19.8H175.673ZM197.116 20.66C196.49 21.1533 195.683 21.5333 194.696 21.8C193.71 22.0667 192.643 22.2 191.496 22.2C190.15 22.2 189.003 22.0267 188.056 21.68C187.123 21.3333 186.416 20.8533 185.936 20.24C185.456 19.6267 185.216 18.92 185.216 18.12C185.216 17.3467 185.43 16.6733 185.856 16.1C186.283 15.5267 186.856 15.1067 187.576 14.84C187.03 14.5467 186.596 14.14 186.276 13.62C185.97 13.0867 185.816 12.4933 185.816 11.84C185.816 11.0933 186.036 10.42 186.476 9.82C186.93 9.20667 187.603 8.72 188.496 8.36C189.39 7.98667 190.49 7.8 191.796 7.8C192.676 7.8 193.536 7.89333 194.376 8.08C195.216 8.26667 195.95 8.52 196.576 8.84L195.836 10.9C194.663 10.2867 193.35 9.98 191.896 9.98C190.75 9.98 189.883 10.1667 189.296 10.54C188.723 10.9 188.436 11.3867 188.436 12C188.436 12.6 188.65 13.06 189.076 13.38C189.503 13.6867 190.13 13.84 190.956 13.84H194.656V16H190.816C189.87 16 189.136 16.1667 188.616 16.5C188.096 16.82 187.836 17.3 187.836 17.94C187.836 18.58 188.15 19.0867 188.776 19.46C189.403 19.8333 190.35 20.02 191.616 20.02C192.496 20.02 193.35 19.9 194.176 19.66C195.016 19.42 195.716 19.0867 196.276 18.66L197.116 20.66ZM220.469 7.8C222.109 7.8 223.389 8.28 224.309 9.24C225.229 10.1867 225.689 11.5533 225.689 13.34V22H223.089V13.44C223.089 12.3333 222.796 11.5 222.209 10.94C221.636 10.3667 220.883 10.08 219.949 10.08C218.909 10.08 218.076 10.3733 217.449 10.96C216.836 11.5467 216.529 12.4467 216.529 13.66V22H213.929V13.44C213.929 12.32 213.656 11.48 213.109 10.92C212.576 10.36 211.843 10.08 210.909 10.08C209.856 10.08 209.009 10.38 208.369 10.98C207.743 11.5667 207.429 12.46 207.429 13.66V22H204.829V8H207.349V9.84C207.776 9.18667 208.356 8.68667 209.089 8.34C209.823 7.98 210.669 7.8 211.629 7.8C212.616 7.8 213.476 7.98667 214.209 8.36C214.943 8.73333 215.496 9.26 215.869 9.94C216.336 9.26 216.969 8.73333 217.769 8.36C218.583 7.98667 219.483 7.8 220.469 7.8ZM235.861 22.2C234.435 22.2 233.148 21.8933 232.001 21.28C230.855 20.6533 229.955 19.7933 229.301 18.7C228.648 17.5933 228.321 16.36 228.321 15C228.321 13.64 228.648 12.4133 229.301 11.32C229.955 10.2133 230.855 9.35333 232.001 8.74C233.148 8.11333 234.435 7.8 235.861 7.8C237.288 7.8 238.575 8.11333 239.721 8.74C240.868 9.35333 241.768 10.2067 242.421 11.3C243.075 12.3933 243.401 13.6267 243.401 15C243.401 16.3733 243.075 17.6067 242.421 18.7C241.768 19.7933 240.868 20.6533 239.721 21.28C238.575 21.8933 237.288 22.2 235.861 22.2ZM235.861 19.92C236.795 19.92 237.635 19.7133 238.381 19.3C239.128 18.8733 239.715 18.2867 240.141 17.54C240.568 16.78 240.781 15.9333 240.781 15C240.781 14.0667 240.568 13.2267 240.141 12.48C239.715 11.72 239.128 11.1333 238.381 10.72C237.635 10.2933 236.795 10.08 235.861 10.08C234.928 10.08 234.088 10.2933 233.341 10.72C232.595 11.1333 232.008 11.72 231.581 12.48C231.155 13.2267 230.941 14.0667 230.941 15C230.941 15.9333 231.155 16.78 231.581 17.54C232.008 18.2867 232.595 18.8733 233.341 19.3C234.088 19.7133 234.928 19.92 235.861 19.92ZM236.881 4.12H239.821L236.341 6.86H234.181L236.881 4.12ZM258.508 8L252.408 22H249.848L243.728 8H246.548L251.208 18.8L255.908 8H258.508ZM270.749 20.66C270.123 21.1533 269.316 21.5333 268.329 21.8C267.343 22.0667 266.276 22.2 265.129 22.2C263.783 22.2 262.636 22.0267 261.689 21.68C260.756 21.3333 260.049 20.8533 259.569 20.24C259.089 19.6267 258.849 18.92 258.849 18.12C258.849 17.3467 259.063 16.6733 259.489 16.1C259.916 15.5267 260.489 15.1067 261.209 14.84C260.663 14.5467 260.229 14.14 259.909 13.62C259.603 13.0867 259.449 12.4933 259.449 11.84C259.449 11.0933 259.669 10.42 260.109 9.82C260.563 9.20667 261.236 8.72 262.129 8.36C263.023 7.98667 264.123 7.8 265.429 7.8C266.309 7.8 267.169 7.89333 268.009 8.08C268.849 8.26667 269.583 8.52 270.209 8.84L269.469 10.9C268.296 10.2867 266.983 9.98 265.529 9.98C264.383 9.98 263.516 10.1667 262.929 10.54C262.356 10.9 262.069 11.3867 262.069 12C262.069 12.6 262.283 13.06 262.709 13.38C263.136 13.6867 263.763 13.84 264.589 13.84H268.289V16H264.449C263.503 16 262.769 16.1667 262.249 16.5C261.729 16.82 261.469 17.3 261.469 17.94C261.469 18.58 261.783 19.0867 262.409 19.46C263.036 19.8333 263.983 20.02 265.249 20.02C266.129 20.02 266.983 19.9 267.809 19.66C268.649 19.42 269.349 19.0867 269.909 18.66L270.749 20.66ZM277.035 10.18V19.82H279.615V22H271.875V19.82H274.455V10.18H271.875V8H279.615V10.18H277.035ZM286.65 22.2C285.57 22.2 284.523 22.0467 283.51 21.74C282.51 21.4333 281.716 21.0267 281.13 20.52L282.03 18.5C282.603 18.9533 283.303 19.3267 284.13 19.62C284.97 19.9 285.81 20.04 286.65 20.04C287.69 20.04 288.463 19.8733 288.97 19.54C289.49 19.2067 289.75 18.7667 289.75 18.22C289.75 17.82 289.603 17.4933 289.31 17.24C289.03 16.9733 288.67 16.7667 288.23 16.62C287.79 16.4733 287.19 16.3067 286.43 16.12C285.363 15.8667 284.496 15.6133 283.83 15.36C283.176 15.1067 282.61 14.7133 282.13 14.18C281.663 13.6333 281.43 12.9 281.43 11.98C281.43 11.2067 281.636 10.5067 282.05 9.88C282.476 9.24 283.11 8.73333 283.95 8.36C284.803 7.98667 285.843 7.8 287.07 7.8C287.923 7.8 288.763 7.90667 289.59 8.12C290.416 8.33333 291.13 8.64 291.73 9.04L290.91 11.06C290.296 10.7 289.656 10.4267 288.99 10.24C288.323 10.0533 287.676 9.96 287.05 9.96C286.023 9.96 285.256 10.1333 284.75 10.48C284.256 10.8267 284.01 11.2867 284.01 11.86C284.01 12.26 284.15 12.5867 284.43 12.84C284.723 13.0933 285.09 13.2933 285.53 13.44C285.97 13.5867 286.57 13.7533 287.33 13.94C288.37 14.18 289.223 14.4333 289.89 14.7C290.556 14.9533 291.123 15.3467 291.59 15.88C292.07 16.4133 292.31 17.1333 292.31 18.04C292.31 18.8133 292.096 19.5133 291.67 20.14C291.256 20.7667 290.623 21.2667 289.77 21.64C288.916 22.0133 287.876 22.2 286.65 22.2Z" fill="white"/>
</svg>
