<svg width="419" height="56" viewBox="0 0 419 56" fill="none" xmlns="http://www.w3.org/2000/svg">
<path d="M41 1V45H1V1H41Z" fill="white" stroke="black" stroke-width="2"/>
<path d="M342 1V28H54V1H342Z" fill="#0033CC" stroke="black" stroke-width="2"/>
<path d="M418 28V55H54V28H418Z" fill="#0033CC" stroke="black" stroke-width="2"/>
<path d="M54 1V28H41V1H54Z" fill="#FFCC00" stroke="black" stroke-width="2"/>
<path d="M41 1V28H23V1H41Z" fill="#FF6600" stroke="black" stroke-width="2"/>
<path d="M70.98 10.18V19.82H73.56V22H65.82V19.82H68.4V10.18H65.82V8H73.56V10.18H70.98ZM83.215 7.8C84.895 7.8 86.2017 8.31333 87.135 9.34C88.0817 10.3667 88.555 11.8333 88.555 13.74V22H85.955V13.84C85.955 12.6 85.655 11.6667 85.055 11.04C84.4683 10.4 83.6483 10.08 82.595 10.08C81.4483 10.08 80.535 10.42 79.855 11.1C79.1883 11.7667 78.855 12.7667 78.855 14.1V22H76.255V8H78.775V9.76C79.7483 8.45333 81.2283 7.8 83.215 7.8ZM96.5325 22.2C95.4525 22.2 94.4058 22.0467 93.3925 21.74C92.3925 21.4333 91.5992 21.0267 91.0125 20.52L91.9125 18.5C92.4858 18.9533 93.1858 19.3267 94.0125 19.62C94.8525 19.9 95.6925 20.04 96.5325 20.04C97.5725 20.04 98.3458 19.8733 98.8525 19.54C99.3725 19.2067 99.6325 18.7667 99.6325 18.22C99.6325 17.82 99.4858 17.4933 99.1925 17.24C98.9125 16.9733 98.5525 16.7667 98.1125 16.62C97.6725 16.4733 97.0725 16.3067 96.3125 16.12C95.2458 15.8667 94.3792 15.6133 93.7125 15.36C93.0592 15.1067 92.4925 14.7133 92.0125 14.18C91.5458 13.6333 91.3125 12.9 91.3125 11.98C91.3125 11.2067 91.5192 10.5067 91.9325 9.88C92.3592 9.24 92.9925 8.73333 93.8325 8.36C94.6858 7.98667 95.7258 7.8 96.9525 7.8C97.8058 7.8 98.6458 7.90667 99.4725 8.12C100.299 8.33333 101.013 8.64 101.612 9.04L100.793 11.06C100.179 10.7 99.5392 10.4267 98.8725 10.24C98.2058 10.0533 97.5592 9.96 96.9325 9.96C95.9058 9.96 95.1392 10.1333 94.6325 10.48C94.1392 10.8267 93.8925 11.2867 93.8925 11.86C93.8925 12.26 94.0325 12.5867 94.3125 12.84C94.6058 13.0933 94.9725 13.2933 95.4125 13.44C95.8525 13.5867 96.4525 13.7533 97.2125 13.94C98.2525 14.18 99.1058 14.4333 99.7725 14.7C100.439 14.9533 101.006 15.3467 101.473 15.88C101.953 16.4133 102.193 17.1333 102.193 18.04C102.193 18.8133 101.979 19.5133 101.553 20.14C101.139 20.7667 100.506 21.2667 99.6525 21.64C98.7992 22.0133 97.7592 22.2 96.5325 22.2ZM114.334 11.48C113.014 10.7333 111.641 10.28 110.214 10.12V22H107.614V10.12C106.174 10.28 104.794 10.7333 103.474 11.48L102.574 9.48C103.508 8.92 104.508 8.5 105.574 8.22C106.654 7.94 107.761 7.8 108.894 7.8C110.028 7.8 111.134 7.94 112.214 8.22C113.294 8.5 114.301 8.92 115.234 9.48L114.334 11.48ZM121.058 10.18V19.82H123.638V22H115.898V19.82H118.478V10.18H115.898V8H123.638V10.18H121.058ZM136.053 11.48C134.733 10.7333 133.36 10.28 131.933 10.12V22H129.333V10.12C127.893 10.28 126.513 10.7333 125.193 11.48L124.293 9.48C125.226 8.92 126.226 8.5 127.293 8.22C128.373 7.94 129.48 7.8 130.613 7.8C131.746 7.8 132.853 7.94 133.933 8.22C135.013 8.5 136.02 8.92 136.953 9.48L136.053 11.48ZM150.777 8V22H148.277V20.22C147.33 21.54 145.864 22.2 143.877 22.2C142.224 22.2 140.924 21.6867 139.977 20.66C139.03 19.62 138.557 18.1533 138.557 16.26V8H141.157V16.16C141.157 17.4 141.45 18.34 142.037 18.98C142.637 19.6067 143.457 19.92 144.497 19.92C145.617 19.92 146.51 19.5867 147.177 18.92C147.844 18.24 148.177 17.2333 148.177 15.9V8H150.777ZM158.636 10.18V19.82H161.216V22H153.476V19.82H156.056V10.18H153.476V8H161.216V10.18H158.636ZM170.294 22.2C168.88 22.2 167.6 21.8933 166.454 21.28C165.32 20.6533 164.427 19.7933 163.774 18.7C163.134 17.6067 162.814 16.3733 162.814 15C162.814 13.6267 163.14 12.3933 163.794 11.3C164.447 10.2067 165.34 9.35333 166.474 8.74C167.62 8.11333 168.9 7.8 170.314 7.8C171.46 7.8 172.507 8 173.454 8.4C174.4 8.8 175.2 9.38 175.854 10.14L174.174 11.72C173.16 10.6267 171.914 10.08 170.434 10.08C169.474 10.08 168.614 10.2933 167.854 10.72C167.094 11.1333 166.5 11.7133 166.074 12.46C165.647 13.2067 165.434 14.0533 165.434 15C165.434 15.9467 165.647 16.7933 166.074 17.54C166.5 18.2867 167.094 18.8733 167.854 19.3C168.614 19.7133 169.474 19.92 170.434 19.92C171.914 19.92 173.16 19.3667 174.174 18.26L175.854 19.86C175.2 20.62 174.394 21.2 173.434 21.6C172.487 22 171.44 22.2 170.294 22.2ZM169.354 26.56C168.634 26.56 168.02 26.42 167.514 26.14L167.974 24.96C168.387 25.1733 168.84 25.28 169.334 25.28C170.04 25.28 170.394 25.04 170.394 24.56C170.394 24.36 170.307 24.2 170.134 24.08C169.96 23.96 169.694 23.9 169.334 23.9H168.714L169.254 21.86H170.614L170.334 22.98C170.907 23.0467 171.34 23.2267 171.634 23.52C171.927 23.8267 172.074 24.2067 172.074 24.66C172.074 25.2333 171.827 25.6933 171.334 26.04C170.84 26.3867 170.18 26.56 169.354 26.56ZM184.445 7.8C185.698 7.8 186.792 8.04667 187.725 8.54C188.658 9.03333 189.378 9.76667 189.885 10.74C190.405 11.7 190.665 12.8667 190.665 14.24V22H188.065V18.4H180.785V22H178.225V14.24C178.225 12.8667 178.478 11.7 178.985 10.74C179.505 9.76667 180.232 9.03333 181.165 8.54C182.098 8.04667 183.192 7.8 184.445 7.8ZM188.065 16.22V14C188.065 12.7067 187.745 11.7333 187.105 11.08C186.465 10.4133 185.572 10.08 184.425 10.08C183.278 10.08 182.385 10.4133 181.745 11.08C181.105 11.7333 180.785 12.7067 180.785 14V16.22H188.065ZM185.885 6.86C185.552 6.86 185.258 6.79333 185.005 6.66C184.765 6.52667 184.465 6.32667 184.105 6.06C183.892 5.88667 183.712 5.76 183.565 5.68C183.432 5.58667 183.298 5.54 183.165 5.54C182.885 5.54 182.652 5.64667 182.465 5.86C182.292 6.07333 182.198 6.36667 182.185 6.74H180.845C180.858 5.92667 181.058 5.28 181.445 4.8C181.845 4.30667 182.365 4.06 183.005 4.06C183.338 4.06 183.625 4.12667 183.865 4.26C184.118 4.39333 184.425 4.59333 184.785 4.86C184.998 5.03333 185.172 5.16667 185.305 5.26C185.452 5.34 185.592 5.38 185.725 5.38C186.005 5.38 186.232 5.28 186.405 5.08C186.592 4.88 186.692 4.6 186.705 4.24H188.045C188.018 5.02667 187.812 5.66 187.425 6.14C187.038 6.62 186.525 6.86 185.885 6.86ZM200.842 22.2C199.415 22.2 198.129 21.8933 196.982 21.28C195.835 20.6533 194.935 19.7933 194.282 18.7C193.629 17.5933 193.302 16.36 193.302 15C193.302 13.64 193.629 12.4133 194.282 11.32C194.935 10.2133 195.835 9.35333 196.982 8.74C198.129 8.11333 199.415 7.8 200.842 7.8C202.269 7.8 203.555 8.11333 204.702 8.74C205.849 9.35333 206.749 10.2067 207.402 11.3C208.055 12.3933 208.382 13.6267 208.382 15C208.382 16.3733 208.055 17.6067 207.402 18.7C206.749 19.7933 205.849 20.6533 204.702 21.28C203.555 21.8933 202.269 22.2 200.842 22.2ZM200.842 19.92C201.775 19.92 202.615 19.7133 203.362 19.3C204.109 18.8733 204.695 18.2867 205.122 17.54C205.549 16.78 205.762 15.9333 205.762 15C205.762 14.0667 205.549 13.2267 205.122 12.48C204.695 11.72 204.109 11.1333 203.362 10.72C202.615 10.2933 201.775 10.08 200.842 10.08C199.909 10.08 199.069 10.2933 198.322 10.72C197.575 11.1333 196.989 11.72 196.562 12.48C196.135 13.2267 195.922 14.0667 195.922 15C195.922 15.9333 196.135 16.78 196.562 17.54C196.989 18.2867 197.575 18.8733 198.322 19.3C199.069 19.7133 199.909 19.92 200.842 19.92ZM216.665 8H222.785C224.278 8 225.605 8.29333 226.765 8.88C227.925 9.45333 228.825 10.2733 229.465 11.34C230.105 12.3933 230.425 13.6133 230.425 15C230.425 16.3867 230.105 17.6133 229.465 18.68C228.825 19.7333 227.925 20.5533 226.765 21.14C225.605 21.7133 224.278 22 222.785 22H216.665V8ZM222.665 19.8C223.692 19.8 224.592 19.6067 225.365 19.22C226.152 18.82 226.752 18.26 227.165 17.54C227.592 16.8067 227.805 15.96 227.805 15C227.805 14.04 227.592 13.2 227.165 12.48C226.752 11.7467 226.152 11.1867 225.365 10.8C224.592 10.4 223.692 10.2 222.665 10.2H219.265V19.8H222.665ZM244.109 20.66C243.482 21.1533 242.675 21.5333 241.689 21.8C240.702 22.0667 239.635 22.2 238.489 22.2C237.142 22.2 235.995 22.0267 235.049 21.68C234.115 21.3333 233.409 20.8533 232.929 20.24C232.449 19.6267 232.209 18.92 232.209 18.12C232.209 17.3467 232.422 16.6733 232.849 16.1C233.275 15.5267 233.849 15.1067 234.569 14.84C234.022 14.5467 233.589 14.14 233.269 13.62C232.962 13.0867 232.809 12.4933 232.809 11.84C232.809 11.0933 233.029 10.42 233.469 9.82C233.922 9.20667 234.595 8.72 235.489 8.36C236.382 7.98667 237.482 7.8 238.789 7.8C239.669 7.8 240.529 7.89333 241.369 8.08C242.209 8.26667 242.942 8.52 243.569 8.84L242.829 10.9C241.655 10.2867 240.342 9.98 238.889 9.98C237.742 9.98 236.875 10.1667 236.289 10.54C235.715 10.9 235.429 11.3867 235.429 12C235.429 12.6 235.642 13.06 236.069 13.38C236.495 13.6867 237.122 13.84 237.949 13.84H241.649V16H237.809C236.862 16 236.129 16.1667 235.609 16.5C235.089 16.82 234.829 17.3 234.829 17.94C234.829 18.58 235.142 19.0867 235.769 19.46C236.395 19.8333 237.342 20.02 238.609 20.02C239.489 20.02 240.342 19.9 241.169 19.66C242.009 19.42 242.709 19.0867 243.269 18.66L244.109 20.66ZM262.741 20.66C262.115 21.1533 261.308 21.5333 260.321 21.8C259.335 22.0667 258.268 22.2 257.121 22.2C255.775 22.2 254.628 22.0267 253.681 21.68C252.748 21.3333 252.041 20.8533 251.561 20.24C251.081 19.6267 250.841 18.92 250.841 18.12C250.841 17.3467 251.055 16.6733 251.481 16.1C251.908 15.5267 252.481 15.1067 253.201 14.84C252.655 14.5467 252.221 14.14 251.901 13.62C251.595 13.0867 251.441 12.4933 251.441 11.84C251.441 11.0933 251.661 10.42 252.101 9.82C252.555 9.20667 253.228 8.72 254.121 8.36C255.015 7.98667 256.115 7.8 257.421 7.8C258.301 7.8 259.161 7.89333 260.001 8.08C260.841 8.26667 261.575 8.52 262.201 8.84L261.461 10.9C260.288 10.2867 258.975 9.98 257.521 9.98C256.375 9.98 255.508 10.1667 254.921 10.54C254.348 10.9 254.061 11.3867 254.061 12C254.061 12.6 254.275 13.06 254.701 13.38C255.128 13.6867 255.755 13.84 256.581 13.84H260.281V16H256.441C255.495 16 254.761 16.1667 254.241 16.5C253.721 16.82 253.461 17.3 253.461 17.94C253.461 18.58 253.775 19.0867 254.401 19.46C255.028 19.8333 255.975 20.02 257.241 20.02C258.121 20.02 258.975 19.9 259.801 19.66C260.641 19.42 261.341 19.0867 261.901 18.66L262.741 20.66ZM271.887 7.8C273.567 7.8 274.874 8.31333 275.807 9.34C276.754 10.3667 277.227 11.8333 277.227 13.74V22H274.627V13.84C274.627 12.6 274.327 11.6667 273.727 11.04C273.14 10.4 272.32 10.08 271.267 10.08C270.12 10.08 269.207 10.42 268.527 11.1C267.86 11.7667 267.527 12.7667 267.527 14.1V22H264.927V8H267.447V9.76C268.42 8.45333 269.9 7.8 271.887 7.8ZM285.204 22.2C284.124 22.2 283.078 22.0467 282.064 21.74C281.064 21.4333 280.271 21.0267 279.684 20.52L280.584 18.5C281.158 18.9533 281.858 19.3267 282.684 19.62C283.524 19.9 284.364 20.04 285.204 20.04C286.244 20.04 287.018 19.8733 287.524 19.54C288.044 19.2067 288.304 18.7667 288.304 18.22C288.304 17.82 288.158 17.4933 287.864 17.24C287.584 16.9733 287.224 16.7667 286.784 16.62C286.344 16.4733 285.744 16.3067 284.984 16.12C283.918 15.8667 283.051 15.6133 282.384 15.36C281.731 15.1067 281.164 14.7133 280.684 14.18C280.218 13.6333 279.984 12.9 279.984 11.98C279.984 11.2067 280.191 10.5067 280.604 9.88C281.031 9.24 281.664 8.73333 282.504 8.36C283.358 7.98667 284.398 7.8 285.624 7.8C286.478 7.8 287.318 7.90667 288.144 8.12C288.971 8.33333 289.684 8.64 290.284 9.04L289.464 11.06C288.851 10.7 288.211 10.4267 287.544 10.24C286.878 10.0533 286.231 9.96 285.604 9.96C284.578 9.96 283.811 10.1333 283.304 10.48C282.811 10.8267 282.564 11.2867 282.564 11.86C282.564 12.26 282.704 12.5867 282.984 12.84C283.278 13.0933 283.644 13.2933 284.084 13.44C284.524 13.5867 285.124 13.7533 285.884 13.94C286.924 14.18 287.778 14.4333 288.444 14.7C289.111 14.9533 289.678 15.3467 290.144 15.88C290.624 16.4133 290.864 17.1333 290.864 18.04C290.864 18.8133 290.651 19.5133 290.224 20.14C289.811 20.7667 289.178 21.2667 288.324 21.64C287.471 22.0133 286.431 22.2 285.204 22.2ZM297.543 10.18V19.82H300.123V22H292.383V19.82H294.963V10.18H292.383V8H300.123V10.18H297.543ZM309.778 7.8C311.458 7.8 312.764 8.31333 313.698 9.34C314.644 10.3667 315.118 11.8333 315.118 13.74V22H312.518V13.84C312.518 12.6 312.218 11.6667 311.618 11.04C311.031 10.4 310.211 10.08 309.158 10.08C308.011 10.08 307.098 10.42 306.418 11.1C305.751 11.7667 305.418 12.7667 305.418 14.1V22H302.818V8H305.338V9.76C306.311 8.45333 307.791 7.8 309.778 7.8ZM325.295 22.2C323.868 22.2 322.582 21.8933 321.435 21.28C320.288 20.6533 319.388 19.7933 318.735 18.7C318.082 17.5933 317.755 16.36 317.755 15C317.755 13.64 318.082 12.4133 318.735 11.32C319.388 10.2133 320.288 9.35333 321.435 8.74C322.582 8.11333 323.868 7.8 325.295 7.8C326.722 7.8 328.008 8.11333 329.155 8.74C330.302 9.35333 331.202 10.2067 331.855 11.3C332.508 12.3933 332.835 13.6267 332.835 15C332.835 16.3733 332.508 17.6067 331.855 18.7C331.202 19.7933 330.302 20.6533 329.155 21.28C328.008 21.8933 326.722 22.2 325.295 22.2ZM325.295 19.92C326.228 19.92 327.068 19.7133 327.815 19.3C328.562 18.8733 329.148 18.2867 329.575 17.54C330.002 16.78 330.215 15.9333 330.215 15C330.215 14.0667 330.002 13.2267 329.575 12.48C329.148 11.72 328.562 11.1333 327.815 10.72C327.068 10.2933 326.228 10.08 325.295 10.08C324.362 10.08 323.522 10.2933 322.775 10.72C322.028 11.1333 321.442 11.72 321.015 12.48C320.588 13.2267 320.375 14.0667 320.375 15C320.375 15.9333 320.588 16.78 321.015 17.54C321.442 18.2867 322.028 18.8733 322.775 19.3C323.522 19.7133 324.362 19.92 325.295 19.92Z" fill="white"/>
<path d="M76.6 38.48C75.28 37.7333 73.9067 37.28 72.48 37.12V49H69.88V37.12C68.44 37.28 67.06 37.7333 65.74 38.48L64.84 36.48C65.7733 35.92 66.7733 35.5 67.84 35.22C68.92 34.94 70.0267 34.8 71.16 34.8C72.2933 34.8 73.4 34.94 74.48 35.22C75.56 35.5 76.5667 35.92 77.5 36.48L76.6 38.48ZM89.9484 47.66C89.3218 48.1533 88.5151 48.5333 87.5284 48.8C86.5418 49.0667 85.4751 49.2 84.3284 49.2C82.9818 49.2 81.8351 49.0267 80.8884 48.68C79.9551 48.3333 79.2484 47.8533 78.7684 47.24C78.2884 46.6267 78.0484 45.92 78.0484 45.12C78.0484 44.3467 78.2618 43.6733 78.6884 43.1C79.1151 42.5267 79.6884 42.1067 80.4084 41.84C79.8618 41.5467 79.4284 41.14 79.1084 40.62C78.8018 40.0867 78.6484 39.4933 78.6484 38.84C78.6484 38.0933 78.8684 37.42 79.3084 36.82C79.7618 36.2067 80.4351 35.72 81.3284 35.36C82.2218 34.9867 83.3218 34.8 84.6284 34.8C85.5084 34.8 86.3684 34.8933 87.2084 35.08C88.0484 35.2667 88.7818 35.52 89.4084 35.84L88.6684 37.9C87.4951 37.2867 86.1818 36.98 84.7284 36.98C83.5818 36.98 82.7151 37.1667 82.1284 37.54C81.5551 37.9 81.2684 38.3867 81.2684 39C81.2684 39.6 81.4818 40.06 81.9084 40.38C82.3351 40.6867 82.9618 40.84 83.7884 40.84H87.4884V43H83.6484C82.7018 43 81.9684 43.1667 81.4484 43.5C80.9284 43.82 80.6684 44.3 80.6684 44.94C80.6684 45.58 80.9818 46.0867 81.6084 46.46C82.2351 46.8333 83.1818 47.02 84.4484 47.02C85.3284 47.02 86.1818 46.9 87.0084 46.66C87.8484 46.42 88.5484 46.0867 89.1084 45.66L89.9484 47.66ZM85.2884 31.12H88.2284L84.7484 33.86H82.5884L85.2884 31.12ZM98.3209 49.2C96.9076 49.2 95.6276 48.8933 94.4809 48.28C93.3476 47.6533 92.4543 46.7933 91.8009 45.7C91.1609 44.6067 90.8409 43.3733 90.8409 42C90.8409 40.6267 91.1676 39.3933 91.8209 38.3C92.4743 37.2067 93.3676 36.3533 94.5009 35.74C95.6476 35.1133 96.9276 34.8 98.3409 34.8C99.4876 34.8 100.534 35 101.481 35.4C102.428 35.8 103.228 36.38 103.881 37.14L102.201 38.72C101.188 37.6267 99.9409 37.08 98.4609 37.08C97.5009 37.08 96.6409 37.2933 95.8809 37.72C95.1209 38.1333 94.5276 38.7133 94.1009 39.46C93.6743 40.2067 93.4609 41.0533 93.4609 42C93.4609 42.9467 93.6743 43.7933 94.1009 44.54C94.5276 45.2867 95.1209 45.8733 95.8809 46.3C96.6409 46.7133 97.5009 46.92 98.4609 46.92C99.9409 46.92 101.188 46.3667 102.201 45.26L103.881 46.86C103.228 47.62 102.421 48.2 101.461 48.6C100.514 49 99.4676 49.2 98.3209 49.2ZM113.332 34.8C115.012 34.8 116.319 35.3133 117.252 36.34C118.199 37.3667 118.672 38.8333 118.672 40.74V49H116.072V40.84C116.072 39.6 115.772 38.6667 115.172 38.04C114.586 37.4 113.766 37.08 112.712 37.08C111.566 37.08 110.652 37.42 109.972 38.1C109.306 38.7667 108.972 39.7667 108.972 41.1V49H106.372V35H108.892V36.76C109.866 35.4533 111.346 34.8 113.332 34.8ZM126.41 37.18V46.82H128.99V49H121.25V46.82H123.83V37.18H121.25V35H128.99V37.18H126.41ZM138.067 49.2C136.654 49.2 135.374 48.8933 134.227 48.28C133.094 47.6533 132.2 46.7933 131.547 45.7C130.907 44.6067 130.587 43.3733 130.587 42C130.587 40.6267 130.914 39.3933 131.567 38.3C132.22 37.2067 133.114 36.3533 134.247 35.74C135.394 35.1133 136.674 34.8 138.087 34.8C139.234 34.8 140.28 35 141.227 35.4C142.174 35.8 142.974 36.38 143.627 37.14L141.947 38.72C140.934 37.6267 139.687 37.08 138.207 37.08C137.247 37.08 136.387 37.2933 135.627 37.72C134.867 38.1333 134.274 38.7133 133.847 39.46C133.42 40.2067 133.207 41.0533 133.207 42C133.207 42.9467 133.42 43.7933 133.847 44.54C134.274 45.2867 134.867 45.8733 135.627 46.3C136.387 46.7133 137.247 46.92 138.207 46.92C139.687 46.92 140.934 46.3667 141.947 45.26L143.627 46.86C142.974 47.62 142.167 48.2 141.207 48.6C140.26 49 139.214 49.2 138.067 49.2ZM152.365 49.2C150.939 49.2 149.652 48.8933 148.505 48.28C147.359 47.6533 146.459 46.7933 145.805 45.7C145.152 44.5933 144.825 43.36 144.825 42C144.825 40.64 145.152 39.4133 145.805 38.32C146.459 37.2133 147.359 36.3533 148.505 35.74C149.652 35.1133 150.939 34.8 152.365 34.8C153.792 34.8 155.079 35.1133 156.225 35.74C157.372 36.3533 158.272 37.2067 158.925 38.3C159.579 39.3933 159.905 40.6267 159.905 42C159.905 43.3733 159.579 44.6067 158.925 45.7C158.272 46.7933 157.372 47.6533 156.225 48.28C155.079 48.8933 153.792 49.2 152.365 49.2ZM152.365 46.92C153.299 46.92 154.139 46.7133 154.885 46.3C155.632 45.8733 156.219 45.2867 156.645 44.54C157.072 43.78 157.285 42.9333 157.285 42C157.285 41.0667 157.072 40.2267 156.645 39.48C156.219 38.72 155.632 38.1333 154.885 37.72C154.139 37.2933 153.299 37.08 152.365 37.08C151.432 37.08 150.592 37.2933 149.845 37.72C149.099 38.1333 148.512 38.72 148.085 39.48C147.659 40.2267 147.445 41.0667 147.445 42C147.445 42.9333 147.659 43.78 148.085 44.54C148.512 45.2867 149.099 45.8733 149.845 46.3C150.592 46.7133 151.432 46.92 152.365 46.92ZM173.949 35C175.162 35 176.215 35.2 177.109 35.6C178.015 36 178.709 36.5733 179.189 37.32C179.669 38.0667 179.909 38.9533 179.909 39.98C179.909 40.9933 179.669 41.88 179.189 42.64C178.709 43.3867 178.015 43.96 177.109 44.36C176.215 44.76 175.162 44.96 173.949 44.96H170.789V49H168.189V35H173.949ZM173.829 42.76C174.962 42.76 175.822 42.52 176.409 42.04C176.995 41.56 177.289 40.8733 177.289 39.98C177.289 39.0867 176.995 38.4 176.409 37.92C175.822 37.44 174.962 37.2 173.829 37.2H170.789V42.76H173.829ZM191.665 49L188.805 44.9C188.685 44.9133 188.505 44.92 188.265 44.92H185.105V49H182.505V35H188.265C189.478 35 190.532 35.2 191.425 35.6C192.332 36 193.025 36.5733 193.505 37.32C193.985 38.0667 194.225 38.9533 194.225 39.98C194.225 41.0333 193.965 41.94 193.445 42.7C192.938 43.46 192.205 44.0267 191.245 44.4L194.465 49H191.665ZM191.605 39.98C191.605 39.0867 191.312 38.4 190.725 37.92C190.138 37.44 189.278 37.2 188.145 37.2H185.105V42.78H188.145C189.278 42.78 190.138 42.54 190.725 42.06C191.312 41.5667 191.605 40.8733 191.605 39.98ZM203.674 49.2C202.247 49.2 200.961 48.8933 199.814 48.28C198.667 47.6533 197.767 46.7933 197.114 45.7C196.461 44.5933 196.134 43.36 196.134 42C196.134 40.64 196.461 39.4133 197.114 38.32C197.767 37.2133 198.667 36.3533 199.814 35.74C200.961 35.1133 202.247 34.8 203.674 34.8C205.101 34.8 206.387 35.1133 207.534 35.74C208.681 36.3533 209.581 37.2067 210.234 38.3C210.887 39.3933 211.214 40.6267 211.214 42C211.214 43.3733 210.887 44.6067 210.234 45.7C209.581 46.7933 208.681 47.6533 207.534 48.28C206.387 48.8933 205.101 49.2 203.674 49.2ZM203.674 46.92C204.607 46.92 205.447 46.7133 206.194 46.3C206.941 45.8733 207.527 45.2867 207.954 44.54C208.381 43.78 208.594 42.9333 208.594 42C208.594 41.0667 208.381 40.2267 207.954 39.48C207.527 38.72 206.941 38.1333 206.194 37.72C205.447 37.2933 204.607 37.08 203.674 37.08C202.741 37.08 201.901 37.2933 201.154 37.72C200.407 38.1333 199.821 38.72 199.394 39.48C198.967 40.2267 198.754 41.0667 198.754 42C198.754 42.9333 198.967 43.78 199.394 44.54C199.821 45.2867 200.407 45.8733 201.154 46.3C201.901 46.7133 202.741 46.92 203.674 46.92ZM220.09 37.08C218.89 37.08 217.983 37.3467 217.37 37.88C216.757 38.4133 216.45 39.2 216.45 40.24V41.44H222.55V43.64H216.45V49H213.85V40.24C213.85 38.5467 214.39 37.22 215.47 36.26C216.563 35.2867 218.063 34.8 219.97 34.8C220.77 34.8 221.517 34.8867 222.21 35.06C222.903 35.2333 223.51 35.4867 224.03 35.82L223.21 37.94C222.383 37.3667 221.343 37.08 220.09 37.08ZM230.277 37.18V46.82H232.857V49H225.117V46.82H227.697V37.18H225.117V35H232.857V37.18H230.277ZM239.892 49.2C238.812 49.2 237.765 49.0467 236.752 48.74C235.752 48.4333 234.959 48.0267 234.372 47.52L235.272 45.5C235.845 45.9533 236.545 46.3267 237.372 46.62C238.212 46.9 239.052 47.04 239.892 47.04C240.932 47.04 241.705 46.8733 242.212 46.54C242.732 46.2067 242.992 45.7667 242.992 45.22C242.992 44.82 242.845 44.4933 242.552 44.24C242.272 43.9733 241.912 43.7667 241.472 43.62C241.032 43.4733 240.432 43.3067 239.672 43.12C238.605 42.8667 237.739 42.6133 237.072 42.36C236.419 42.1067 235.852 41.7133 235.372 41.18C234.905 40.6333 234.672 39.9 234.672 38.98C234.672 38.2067 234.879 37.5067 235.292 36.88C235.719 36.24 236.352 35.7333 237.192 35.36C238.045 34.9867 239.085 34.8 240.312 34.8C241.165 34.8 242.005 34.9067 242.832 35.12C243.659 35.3333 244.372 35.64 244.972 36.04L244.152 38.06C243.539 37.7 242.899 37.4267 242.232 37.24C241.565 37.0533 240.919 36.96 240.292 36.96C239.265 36.96 238.499 37.1333 237.992 37.48C237.499 37.8267 237.252 38.2867 237.252 38.86C237.252 39.26 237.392 39.5867 237.672 39.84C237.965 40.0933 238.332 40.2933 238.772 40.44C239.212 40.5867 239.812 40.7533 240.572 40.94C241.612 41.18 242.465 41.4333 243.132 41.7C243.799 41.9533 244.365 42.3467 244.832 42.88C245.312 43.4133 245.552 44.1333 245.552 45.04C245.552 45.8133 245.339 46.5133 244.912 47.14C244.499 47.7667 243.865 48.2667 243.012 48.64C242.159 49.0133 241.119 49.2 239.892 49.2ZM252.47 49.2C251.39 49.2 250.343 49.0467 249.33 48.74C248.33 48.4333 247.537 48.0267 246.95 47.52L247.85 45.5C248.423 45.9533 249.123 46.3267 249.95 46.62C250.79 46.9 251.63 47.04 252.47 47.04C253.51 47.04 254.283 46.8733 254.79 46.54C255.31 46.2067 255.57 45.7667 255.57 45.22C255.57 44.82 255.423 44.4933 255.13 44.24C254.85 43.9733 254.49 43.7667 254.05 43.62C253.61 43.4733 253.01 43.3067 252.25 43.12C251.183 42.8667 250.317 42.6133 249.65 42.36C248.997 42.1067 248.43 41.7133 247.95 41.18C247.483 40.6333 247.25 39.9 247.25 38.98C247.25 38.2067 247.457 37.5067 247.87 36.88C248.297 36.24 248.93 35.7333 249.77 35.36C250.623 34.9867 251.663 34.8 252.89 34.8C253.743 34.8 254.583 34.9067 255.41 35.12C256.237 35.3333 256.95 35.64 257.55 36.04L256.73 38.06C256.117 37.7 255.477 37.4267 254.81 37.24C254.143 37.0533 253.497 36.96 252.87 36.96C251.843 36.96 251.077 37.1333 250.57 37.48C250.077 37.8267 249.83 38.2867 249.83 38.86C249.83 39.26 249.97 39.5867 250.25 39.84C250.543 40.0933 250.91 40.2933 251.35 40.44C251.79 40.5867 252.39 40.7533 253.15 40.94C254.19 41.18 255.043 41.4333 255.71 41.7C256.377 41.9533 256.943 42.3467 257.41 42.88C257.89 43.4133 258.13 44.1333 258.13 45.04C258.13 45.8133 257.917 46.5133 257.49 47.14C257.077 47.7667 256.443 48.2667 255.59 48.64C254.737 49.0133 253.697 49.2 252.47 49.2ZM264.808 37.18V46.82H267.388V49H259.648V46.82H262.228V37.18H259.648V35H267.388V37.18H264.808ZM276.525 49.2C275.099 49.2 273.812 48.8933 272.665 48.28C271.519 47.6533 270.619 46.7933 269.965 45.7C269.312 44.5933 268.985 43.36 268.985 42C268.985 40.64 269.312 39.4133 269.965 38.32C270.619 37.2133 271.519 36.3533 272.665 35.74C273.812 35.1133 275.099 34.8 276.525 34.8C277.952 34.8 279.239 35.1133 280.385 35.74C281.532 36.3533 282.432 37.2067 283.085 38.3C283.739 39.3933 284.065 40.6267 284.065 42C284.065 43.3733 283.739 44.6067 283.085 45.7C282.432 46.7933 281.532 47.6533 280.385 48.28C279.239 48.8933 277.952 49.2 276.525 49.2ZM276.525 46.92C277.459 46.92 278.299 46.7133 279.045 46.3C279.792 45.8733 280.379 45.2867 280.805 44.54C281.232 43.78 281.445 42.9333 281.445 42C281.445 41.0667 281.232 40.2267 280.805 39.48C280.379 38.72 279.792 38.1333 279.045 37.72C278.299 37.2933 277.459 37.08 276.525 37.08C275.592 37.08 274.752 37.2933 274.005 37.72C273.259 38.1333 272.672 38.72 272.245 39.48C271.819 40.2267 271.605 41.0667 271.605 42C271.605 42.9333 271.819 43.78 272.245 44.54C272.672 45.2867 273.259 45.8733 274.005 46.3C274.752 46.7133 275.592 46.92 276.525 46.92ZM293.781 34.8C295.461 34.8 296.768 35.3133 297.701 36.34C298.648 37.3667 299.121 38.8333 299.121 40.74V49H296.521V40.84C296.521 39.6 296.221 38.6667 295.621 38.04C295.035 37.4 294.215 37.08 293.161 37.08C292.015 37.08 291.101 37.42 290.421 38.1C289.755 38.7667 289.421 39.7667 289.421 41.1V49H286.821V35H289.341V36.76C290.315 35.4533 291.795 34.8 293.781 34.8ZM308.859 34.8C310.112 34.8 311.206 35.0467 312.139 35.54C313.072 36.0333 313.792 36.7667 314.299 37.74C314.819 38.7 315.079 39.8667 315.079 41.24V49H312.479V45.4H305.199V49H302.639V41.24C302.639 39.8667 302.892 38.7 303.399 37.74C303.919 36.7667 304.646 36.0333 305.579 35.54C306.512 35.0467 307.606 34.8 308.859 34.8ZM312.479 43.22V41C312.479 39.7067 312.159 38.7333 311.519 38.08C310.879 37.4133 309.986 37.08 308.839 37.08C307.692 37.08 306.799 37.4133 306.159 38.08C305.519 38.7333 305.199 39.7067 305.199 41V43.22H312.479ZM318.716 35H321.316V46.8H328.636V49H318.716V35ZM334.789 37.18V46.82H337.369V49H329.629V46.82H332.209V37.18H329.629V35H337.369V37.18H334.789ZM351.044 46.82V49H339.104V47.42L342.744 42.9H340.264V40.84H344.404L347.364 37.18H339.204V35H350.744V36.56L347.264 40.88H349.584V42.94H345.604L342.484 46.82H351.044ZM359.621 34.8C360.874 34.8 361.967 35.0467 362.901 35.54C363.834 36.0333 364.554 36.7667 365.061 37.74C365.581 38.7 365.841 39.8667 365.841 41.24V49H363.241V45.4H355.961V49H353.401V41.24C353.401 39.8667 353.654 38.7 354.161 37.74C354.681 36.7667 355.407 36.0333 356.341 35.54C357.274 35.0467 358.367 34.8 359.621 34.8ZM363.241 43.22V41C363.241 39.7067 362.921 38.7333 362.281 38.08C361.641 37.4133 360.747 37.08 359.601 37.08C358.454 37.08 357.561 37.4133 356.921 38.08C356.281 38.7333 355.961 39.7067 355.961 41V43.22H363.241ZM376.438 34.8C378.118 34.8 379.424 35.3133 380.358 36.34C381.304 37.3667 381.778 38.8333 381.778 40.74V49H379.178V40.84C379.178 39.6 378.878 38.6667 378.278 38.04C377.691 37.4 376.871 37.08 375.818 37.08C374.671 37.08 373.758 37.42 373.078 38.1C372.411 38.7667 372.078 39.7667 372.078 41.1V49H369.478V35H371.998V36.76C372.971 35.4533 374.451 34.8 376.438 34.8ZM395.135 38.48C393.815 37.7333 392.442 37.28 391.015 37.12V49H388.415V37.12C386.975 37.28 385.595 37.7333 384.275 38.48L383.375 36.48C384.308 35.92 385.308 35.5 386.375 35.22C387.455 34.94 388.562 34.8 389.695 34.8C390.828 34.8 391.935 34.94 393.015 35.22C394.095 35.5 395.102 35.92 396.035 36.48L395.135 38.48ZM408.484 47.66C407.857 48.1533 407.05 48.5333 406.064 48.8C405.077 49.0667 404.01 49.2 402.864 49.2C401.517 49.2 400.37 49.0267 399.424 48.68C398.49 48.3333 397.784 47.8533 397.304 47.24C396.824 46.6267 396.584 45.92 396.584 45.12C396.584 44.3467 396.797 43.6733 397.224 43.1C397.65 42.5267 398.224 42.1067 398.944 41.84C398.397 41.5467 397.964 41.14 397.644 40.62C397.337 40.0867 397.184 39.4933 397.184 38.84C397.184 38.0933 397.404 37.42 397.844 36.82C398.297 36.2067 398.97 35.72 399.864 35.36C400.757 34.9867 401.857 34.8 403.164 34.8C404.044 34.8 404.904 34.8933 405.744 35.08C406.584 35.2667 407.317 35.52 407.944 35.84L407.204 37.9C406.03 37.2867 404.717 36.98 403.264 36.98C402.117 36.98 401.25 37.1667 400.664 37.54C400.09 37.9 399.804 38.3867 399.804 39C399.804 39.6 400.017 40.06 400.444 40.38C400.87 40.6867 401.497 40.84 402.324 40.84H406.024V43H402.184C401.237 43 400.504 43.1667 399.984 43.5C399.464 43.82 399.204 44.3 399.204 44.94C399.204 45.58 399.517 46.0867 400.144 46.46C400.77 46.8333 401.717 47.02 402.984 47.02C403.864 47.02 404.717 46.9 405.544 46.66C406.384 46.42 407.084 46.0867 407.644 45.66L408.484 47.66Z" fill="white"/>
</svg>
