<svg width="344" height="46" viewBox="0 0 344 46" fill="none" xmlns="http://www.w3.org/2000/svg">
<path d="M41 1V45H1V1H41Z" fill="white" stroke="black" stroke-width="2"/>
<path d="M343 1V28H54V1H343Z" fill="#0033CC" stroke="black" stroke-width="2"/>
<path d="M54 1V28H41V1H54Z" fill="#FFCC00" stroke="black" stroke-width="2"/>
<path d="M41 1V28H23V1H41Z" fill="#FF6600" stroke="black" stroke-width="2"/>
<path d="M66.88 8H69.48V19.8H76.8V22H66.88V8ZM85.1388 22.2C83.7121 22.2 82.4254 21.8933 81.2788 21.28C80.1321 20.6533 79.2321 19.7933 78.5788 18.7C77.9254 17.5933 77.5988 16.36 77.5988 15C77.5988 13.64 77.9254 12.4133 78.5788 11.32C79.2321 10.2133 80.1321 9.35333 81.2788 8.74C82.4254 8.11333 83.7121 7.8 85.1388 7.8C86.5654 7.8 87.8521 8.11333 88.9988 8.74C90.1454 9.35333 91.0454 10.2067 91.6988 11.3C92.3521 12.3933 92.6788 13.6267 92.6788 15C92.6788 16.3733 92.3521 17.6067 91.6988 18.7C91.0454 19.7933 90.1454 20.6533 88.9988 21.28C87.8521 21.8933 86.5654 22.2 85.1388 22.2ZM85.1388 19.92C86.0721 19.92 86.9121 19.7133 87.6588 19.3C88.4054 18.8733 88.9921 18.2867 89.4188 17.54C89.8454 16.78 90.0588 15.9333 90.0588 15C90.0588 14.0667 89.8454 13.2267 89.4188 12.48C88.9921 11.72 88.4054 11.1333 87.6588 10.72C86.9121 10.2933 86.0721 10.08 85.1388 10.08C84.2054 10.08 83.3654 10.2933 82.6188 10.72C81.8721 11.1333 81.2854 11.72 80.8588 12.48C80.4321 13.2267 80.2188 14.0667 80.2188 15C80.2188 15.9333 80.4321 16.78 80.8588 17.54C81.2854 18.2867 81.8721 18.8733 82.6188 19.3C83.3654 19.7133 84.2054 19.92 85.1388 19.92ZM96.9492 24.2C96.0692 24.2 95.2559 24.0267 94.5092 23.68C93.7759 23.3333 93.1692 22.8333 92.6892 22.18L94.1292 20.4C94.8892 21.4667 95.8026 22 96.8692 22C98.3492 22 99.0892 21.14 99.0892 19.42V10.18H94.0892V8H101.669V19.28C101.669 20.92 101.269 22.1467 100.469 22.96C99.6692 23.7867 98.4959 24.2 96.9492 24.2ZM111.418 7.8C112.671 7.8 113.764 8.04667 114.698 8.54C115.631 9.03333 116.351 9.76667 116.858 10.74C117.378 11.7 117.638 12.8667 117.638 14.24V22H115.038V18.4H107.758V22H105.198V14.24C105.198 12.8667 105.451 11.7 105.958 10.74C106.478 9.76667 107.204 9.03333 108.138 8.54C109.071 8.04667 110.164 7.8 111.418 7.8ZM115.038 16.22V14C115.038 12.7067 114.718 11.7333 114.078 11.08C113.438 10.4133 112.544 10.08 111.398 10.08C110.251 10.08 109.358 10.4133 108.717 11.08C108.078 11.7333 107.758 12.7067 107.758 14V16.22H115.038ZM126.802 8H132.922C134.415 8 135.742 8.29333 136.902 8.88C138.062 9.45333 138.962 10.2733 139.602 11.34C140.242 12.3933 140.562 13.6133 140.562 15C140.562 16.3867 140.242 17.6133 139.602 18.68C138.962 19.7333 138.062 20.5533 136.902 21.14C135.742 21.7133 134.415 22 132.922 22H126.802V8ZM132.802 19.8C133.829 19.8 134.729 19.6067 135.502 19.22C136.289 18.82 136.889 18.26 137.302 17.54C137.729 16.8067 137.942 15.96 137.942 15C137.942 14.04 137.729 13.2 137.302 12.48C136.889 11.7467 136.289 11.1867 135.502 10.8C134.729 10.4 133.829 10.2 132.802 10.2H129.402V19.8H132.802ZM154.245 20.66C153.619 21.1533 152.812 21.5333 151.825 21.8C150.839 22.0667 149.772 22.2 148.625 22.2C147.279 22.2 146.132 22.0267 145.185 21.68C144.252 21.3333 143.545 20.8533 143.065 20.24C142.585 19.6267 142.345 18.92 142.345 18.12C142.345 17.3467 142.559 16.6733 142.985 16.1C143.412 15.5267 143.985 15.1067 144.705 14.84C144.159 14.5467 143.725 14.14 143.405 13.62C143.099 13.0867 142.945 12.4933 142.945 11.84C142.945 11.0933 143.165 10.42 143.605 9.82C144.059 9.20667 144.732 8.72 145.625 8.36C146.519 7.98667 147.619 7.8 148.925 7.8C149.805 7.8 150.665 7.89333 151.505 8.08C152.345 8.26667 153.079 8.52 153.705 8.84L152.965 10.9C151.792 10.2867 150.479 9.98 149.025 9.98C147.879 9.98 147.012 10.1667 146.425 10.54C145.852 10.9 145.565 11.3867 145.565 12C145.565 12.6 145.779 13.06 146.205 13.38C146.632 13.6867 147.259 13.84 148.085 13.84H151.785V16H147.945C146.999 16 146.265 16.1667 145.745 16.5C145.225 16.82 144.965 17.3 144.965 17.94C144.965 18.58 145.279 19.0867 145.905 19.46C146.532 19.8333 147.479 20.02 148.745 20.02C149.625 20.02 150.479 19.9 151.305 19.66C152.145 19.42 152.845 19.0867 153.405 18.66L154.245 20.66ZM168.058 7.8C169.311 7.8 170.405 8.04667 171.338 8.54C172.271 9.03333 172.991 9.76667 173.498 10.74C174.018 11.7 174.278 12.8667 174.278 14.24V22H171.678V18.4H164.398V22H161.838V14.24C161.838 12.8667 162.091 11.7 162.598 10.74C163.118 9.76667 163.845 9.03333 164.778 8.54C165.711 8.04667 166.805 7.8 168.058 7.8ZM171.678 16.22V14C171.678 12.7067 171.358 11.7333 170.718 11.08C170.078 10.4133 169.185 10.08 168.038 10.08C166.891 10.08 165.998 10.4133 165.358 11.08C164.718 11.7333 164.398 12.7067 164.398 14V16.22H171.678ZM184.395 22.2C182.982 22.2 181.702 21.8933 180.555 21.28C179.422 20.6533 178.528 19.7933 177.875 18.7C177.235 17.6067 176.915 16.3733 176.915 15C176.915 13.6267 177.242 12.3933 177.895 11.3C178.548 10.2067 179.442 9.35333 180.575 8.74C181.722 8.11333 183.002 7.8 184.415 7.8C185.562 7.8 186.608 8 187.555 8.4C188.502 8.8 189.302 9.38 189.955 10.14L188.275 11.72C187.262 10.6267 186.015 10.08 184.535 10.08C183.575 10.08 182.715 10.2933 181.955 10.72C181.195 11.1333 180.602 11.7133 180.175 12.46C179.748 13.2067 179.535 14.0533 179.535 15C179.535 15.9467 179.748 16.7933 180.175 17.54C180.602 18.2867 181.195 18.8733 181.955 19.3C182.715 19.7133 183.575 19.92 184.535 19.92C186.015 19.92 187.262 19.3667 188.275 18.26L189.955 19.86C189.302 20.62 188.495 21.2 187.535 21.6C186.588 22 185.542 22.2 184.395 22.2ZM198.546 7.8C199.8 7.8 200.893 8.04667 201.826 8.54C202.76 9.03333 203.48 9.76667 203.986 10.74C204.506 11.7 204.766 12.8667 204.766 14.24V22H202.166V18.4H194.886V22H192.326V14.24C192.326 12.8667 192.58 11.7 193.086 10.74C193.606 9.76667 194.333 9.03333 195.266 8.54C196.2 8.04667 197.293 7.8 198.546 7.8ZM202.166 16.22V14C202.166 12.7067 201.846 11.7333 201.206 11.08C200.566 10.4133 199.673 10.08 198.526 10.08C197.38 10.08 196.486 10.4133 195.846 11.08C195.206 11.7333 194.886 12.7067 194.886 14V16.22H202.166ZM218.323 14.72C219.097 14.9733 219.71 15.4 220.163 16C220.617 16.5867 220.843 17.32 220.843 18.2C220.843 19.4133 220.377 20.3533 219.443 21.02C218.51 21.6733 217.15 22 215.363 22H208.403V8H214.963C216.617 8 217.89 8.32667 218.783 8.98C219.677 9.62 220.123 10.5067 220.123 11.64C220.123 12.3333 219.963 12.9467 219.643 13.48C219.323 14.0133 218.883 14.4267 218.323 14.72ZM211.003 10.04V13.9H214.683C215.59 13.9 216.283 13.74 216.763 13.42C217.257 13.0867 217.503 12.6067 217.503 11.98C217.503 11.34 217.257 10.86 216.763 10.54C216.283 10.2067 215.59 10.04 214.683 10.04H211.003ZM215.203 19.96C217.217 19.96 218.223 19.2867 218.223 17.94C218.223 16.5933 217.217 15.92 215.203 15.92H211.003V19.96H215.203ZM229.718 7.8C230.972 7.8 232.065 8.04667 232.998 8.54C233.932 9.03333 234.652 9.76667 235.158 10.74C235.678 11.7 235.938 12.8667 235.938 14.24V22H233.338V18.4H226.058V22H223.498V14.24C223.498 12.8667 223.752 11.7 224.258 10.74C224.778 9.76667 225.505 9.03333 226.438 8.54C227.372 8.04667 228.465 7.8 229.718 7.8ZM233.338 16.22V14C233.338 12.7067 233.018 11.7333 232.378 11.08C231.738 10.4133 230.845 10.08 229.698 10.08C228.552 10.08 227.658 10.4133 227.018 11.08C226.378 11.7333 226.058 12.7067 226.058 14V16.22H233.338ZM255.215 7.8C256.855 7.8 258.135 8.28 259.055 9.24C259.975 10.1867 260.435 11.5533 260.435 13.34V22H257.835V13.44C257.835 12.3333 257.542 11.5 256.955 10.94C256.382 10.3667 255.629 10.08 254.695 10.08C253.655 10.08 252.822 10.3733 252.195 10.96C251.582 11.5467 251.275 12.4467 251.275 13.66V22H248.675V13.44C248.675 12.32 248.402 11.48 247.855 10.92C247.322 10.36 246.589 10.08 245.655 10.08C244.602 10.08 243.755 10.38 243.115 10.98C242.489 11.5667 242.175 12.46 242.175 13.66V22H239.575V8H242.095V9.84C242.522 9.18667 243.102 8.68667 243.835 8.34C244.569 7.98 245.415 7.8 246.375 7.8C247.362 7.8 248.222 7.98667 248.955 8.36C249.689 8.73333 250.242 9.26 250.615 9.94C251.082 9.26 251.715 8.73333 252.515 8.36C253.329 7.98667 254.229 7.8 255.215 7.8ZM274.988 20.66C274.361 21.1533 273.554 21.5333 272.568 21.8C271.581 22.0667 270.514 22.2 269.368 22.2C268.021 22.2 266.874 22.0267 265.928 21.68C264.994 21.3333 264.288 20.8533 263.808 20.24C263.328 19.6267 263.088 18.92 263.088 18.12C263.088 17.3467 263.301 16.6733 263.728 16.1C264.154 15.5267 264.728 15.1067 265.448 14.84C264.901 14.5467 264.468 14.14 264.148 13.62C263.841 13.0867 263.688 12.4933 263.688 11.84C263.688 11.0933 263.908 10.42 264.348 9.82C264.801 9.20667 265.474 8.72 266.368 8.36C267.261 7.98667 268.361 7.8 269.668 7.8C270.548 7.8 271.408 7.89333 272.248 8.08C273.088 8.26667 273.821 8.52 274.448 8.84L273.708 10.9C272.534 10.2867 271.221 9.98 269.768 9.98C268.621 9.98 267.754 10.1667 267.168 10.54C266.594 10.9 266.308 11.3867 266.308 12C266.308 12.6 266.521 13.06 266.948 13.38C267.374 13.6867 268.001 13.84 268.828 13.84H272.528V16H268.688C267.741 16 267.008 16.1667 266.488 16.5C265.968 16.82 265.708 17.3 265.708 17.94C265.708 18.58 266.021 19.0867 266.648 19.46C267.274 19.8333 268.221 20.02 269.488 20.02C270.368 20.02 271.221 19.9 272.048 19.66C272.888 19.42 273.588 19.0867 274.148 18.66L274.988 20.66ZM284.133 7.8C285.813 7.8 287.12 8.31333 288.053 9.34C289 10.3667 289.473 11.8333 289.473 13.74V22H286.873V13.84C286.873 12.6 286.573 11.6667 285.973 11.04C285.386 10.4 284.566 10.08 283.513 10.08C282.366 10.08 281.453 10.42 280.773 11.1C280.106 11.7667 279.773 12.7667 279.773 14.1V22H277.173V8H279.693V9.76C280.666 8.45333 282.146 7.8 284.133 7.8ZM302.83 11.48C301.51 10.7333 300.137 10.28 298.71 10.12V22H296.11V10.12C294.67 10.28 293.29 10.7333 291.97 11.48L291.07 9.48C292.004 8.92 293.004 8.5 294.07 8.22C295.15 7.94 296.257 7.8 297.39 7.8C298.524 7.8 299.63 7.94 300.71 8.22C301.79 8.5 302.797 8.92 303.73 9.48L302.83 11.48ZM311.799 22.2C310.372 22.2 309.086 21.8933 307.939 21.28C306.792 20.6533 305.892 19.7933 305.239 18.7C304.586 17.5933 304.259 16.36 304.259 15C304.259 13.64 304.586 12.4133 305.239 11.32C305.892 10.2133 306.792 9.35333 307.939 8.74C309.086 8.11333 310.372 7.8 311.799 7.8C313.226 7.8 314.512 8.11333 315.659 8.74C316.806 9.35333 317.706 10.2067 318.359 11.3C319.012 12.3933 319.339 13.6267 319.339 15C319.339 16.3733 319.012 17.6067 318.359 18.7C317.706 19.7933 316.806 20.6533 315.659 21.28C314.512 21.8933 313.226 22.2 311.799 22.2ZM311.799 19.92C312.732 19.92 313.572 19.7133 314.319 19.3C315.066 18.8733 315.652 18.2867 316.079 17.54C316.506 16.78 316.719 15.9333 316.719 15C316.719 14.0667 316.506 13.2267 316.079 12.48C315.652 11.72 315.066 11.1333 314.319 10.72C313.572 10.2933 312.732 10.08 311.799 10.08C310.866 10.08 310.026 10.2933 309.279 10.72C308.532 11.1333 307.946 11.72 307.519 12.48C307.092 13.2267 306.879 14.0667 306.879 15C306.879 15.9333 307.092 16.78 307.519 17.54C307.946 18.2867 308.532 18.8733 309.279 19.3C310.026 19.7133 310.866 19.92 311.799 19.92ZM326.435 22.2C325.355 22.2 324.308 22.0467 323.295 21.74C322.295 21.4333 321.502 21.0267 320.915 20.52L321.815 18.5C322.388 18.9533 323.088 19.3267 323.915 19.62C324.755 19.9 325.595 20.04 326.435 20.04C327.475 20.04 328.248 19.8733 328.755 19.54C329.275 19.2067 329.535 18.7667 329.535 18.22C329.535 17.82 329.388 17.4933 329.095 17.24C328.815 16.9733 328.455 16.7667 328.015 16.62C327.575 16.4733 326.975 16.3067 326.215 16.12C325.148 15.8667 324.282 15.6133 323.615 15.36C322.962 15.1067 322.395 14.7133 321.915 14.18C321.448 13.6333 321.215 12.9 321.215 11.98C321.215 11.2067 321.422 10.5067 321.835 9.88C322.262 9.24 322.895 8.73333 323.735 8.36C324.588 7.98667 325.628 7.8 326.855 7.8C327.708 7.8 328.548 7.90667 329.375 8.12C330.202 8.33333 330.915 8.64 331.515 9.04L330.695 11.06C330.082 10.7 329.442 10.4267 328.775 10.24C328.108 10.0533 327.462 9.96 326.835 9.96C325.808 9.96 325.042 10.1333 324.535 10.48C324.042 10.8267 323.795 11.2867 323.795 11.86C323.795 12.26 323.935 12.5867 324.215 12.84C324.508 13.0933 324.875 13.2933 325.315 13.44C325.755 13.5867 326.355 13.7533 327.115 13.94C328.155 14.18 329.008 14.4333 329.675 14.7C330.342 14.9533 330.908 15.3467 331.375 15.88C331.855 16.4133 332.095 17.1333 332.095 18.04C332.095 18.8133 331.882 19.5133 331.455 20.14C331.042 20.7667 330.408 21.2667 329.555 21.64C328.702 22.0133 327.662 22.2 326.435 22.2Z" fill="white"/>
</svg>
