<svg width="378" height="46" viewBox="0 0 378 46" fill="none" xmlns="http://www.w3.org/2000/svg">
<path d="M41 1V45H1V1H41Z" fill="white" stroke="black" stroke-width="2"/>
<path d="M377 1V28H54V1H377Z" fill="#0033CC" stroke="black" stroke-width="2"/>
<path d="M54 1V28H41V1H54Z" fill="#FFCC00" stroke="black" stroke-width="2"/>
<path d="M41 1V28H23V1H41Z" fill="#FF6600" stroke="black" stroke-width="2"/>
<path d="M73.36 22.2C71.9467 22.2 70.6667 21.8933 69.52 21.28C68.3867 20.6533 67.4933 19.7933 66.84 18.7C66.2 17.6067 65.88 16.3733 65.88 15C65.88 13.6267 66.2067 12.3933 66.86 11.3C67.5133 10.2067 68.4067 9.35333 69.54 8.74C70.6867 8.11333 71.9667 7.8 73.38 7.8C74.5267 7.8 75.5733 8 76.52 8.4C77.4667 8.8 78.2667 9.38 78.92 10.14L77.24 11.72C76.2267 10.6267 74.98 10.08 73.5 10.08C72.54 10.08 71.68 10.2933 70.92 10.72C70.16 11.1333 69.5667 11.7133 69.14 12.46C68.7133 13.2067 68.5 14.0533 68.5 15C68.5 15.9467 68.7133 16.7933 69.14 17.54C69.5667 18.2867 70.16 18.8733 70.92 19.3C71.68 19.7133 72.54 19.92 73.5 19.92C74.98 19.92 76.2267 19.3667 77.24 18.26L78.92 19.86C78.2667 20.62 77.46 21.2 76.5 21.6C75.5533 22 74.5067 22.2 73.36 22.2ZM87.6583 22.2C86.2316 22.2 84.9449 21.8933 83.7983 21.28C82.6516 20.6533 81.7516 19.7933 81.0983 18.7C80.4449 17.5933 80.1183 16.36 80.1183 15C80.1183 13.64 80.4449 12.4133 81.0983 11.32C81.7516 10.2133 82.6516 9.35333 83.7983 8.74C84.9449 8.11333 86.2316 7.8 87.6583 7.8C89.0849 7.8 90.3716 8.11333 91.5183 8.74C92.6649 9.35333 93.5649 10.2067 94.2183 11.3C94.8716 12.3933 95.1983 13.6267 95.1983 15C95.1983 16.3733 94.8716 17.6067 94.2183 18.7C93.5649 19.7933 92.6649 20.6533 91.5183 21.28C90.3716 21.8933 89.0849 22.2 87.6583 22.2ZM87.6583 19.92C88.5916 19.92 89.4316 19.7133 90.1783 19.3C90.9249 18.8733 91.5116 18.2867 91.9383 17.54C92.3649 16.78 92.5783 15.9333 92.5783 15C92.5783 14.0667 92.3649 13.2267 91.9383 12.48C91.5116 11.72 90.9249 11.1333 90.1783 10.72C89.4316 10.2933 88.5916 10.08 87.6583 10.08C86.7249 10.08 85.8849 10.2933 85.1383 10.72C84.3916 11.1333 83.8049 11.72 83.3783 12.48C82.9516 13.2267 82.7383 14.0667 82.7383 15C82.7383 15.9333 82.9516 16.78 83.3783 17.54C83.8049 18.2867 84.3916 18.8733 85.1383 19.3C85.8849 19.7133 86.7249 19.92 87.6583 19.92ZM104.914 7.8C106.594 7.8 107.901 8.31333 108.834 9.34C109.781 10.3667 110.254 11.8333 110.254 13.74V22H107.654V13.84C107.654 12.6 107.354 11.6667 106.754 11.04C106.168 10.4 105.348 10.08 104.294 10.08C103.148 10.08 102.234 10.42 101.554 11.1C100.888 11.7667 100.554 12.7667 100.554 14.1V22H97.9542V8H100.474V9.76C101.448 8.45333 102.928 7.8 104.914 7.8ZM118.232 22.2C117.152 22.2 116.105 22.0467 115.092 21.74C114.092 21.4333 113.298 21.0267 112.712 20.52L113.612 18.5C114.185 18.9533 114.885 19.3267 115.712 19.62C116.552 19.9 117.392 20.04 118.232 20.04C119.272 20.04 120.045 19.8733 120.552 19.54C121.072 19.2067 121.332 18.7667 121.332 18.22C121.332 17.82 121.185 17.4933 120.892 17.24C120.612 16.9733 120.252 16.7667 119.812 16.62C119.372 16.4733 118.772 16.3067 118.012 16.12C116.945 15.8667 116.078 15.6133 115.412 15.36C114.758 15.1067 114.192 14.7133 113.712 14.18C113.245 13.6333 113.012 12.9 113.012 11.98C113.012 11.2067 113.218 10.5067 113.632 9.88C114.058 9.24 114.692 8.73333 115.532 8.36C116.385 7.98667 117.425 7.8 118.652 7.8C119.505 7.8 120.345 7.90667 121.172 8.12C121.998 8.33333 122.712 8.64 123.312 9.04L122.492 11.06C121.878 10.7 121.238 10.4267 120.572 10.24C119.905 10.0533 119.258 9.96 118.632 9.96C117.605 9.96 116.838 10.1333 116.332 10.48C115.838 10.8267 115.592 11.2867 115.592 11.86C115.592 12.26 115.732 12.5867 116.012 12.84C116.305 13.0933 116.672 13.2933 117.112 13.44C117.552 13.5867 118.152 13.7533 118.912 13.94C119.952 14.18 120.805 14.4333 121.472 14.7C122.138 14.9533 122.705 15.3467 123.172 15.88C123.652 16.4133 123.892 17.1333 123.892 18.04C123.892 18.8133 123.678 19.5133 123.252 20.14C122.838 20.7667 122.205 21.2667 121.352 21.64C120.498 22.0133 119.458 22.2 118.232 22.2ZM136.034 11.48C134.714 10.7333 133.34 10.28 131.914 10.12V22H129.314V10.12C127.874 10.28 126.494 10.7333 125.174 11.48L124.274 9.48C125.207 8.92 126.207 8.5 127.274 8.22C128.354 7.94 129.46 7.8 130.594 7.8C131.727 7.8 132.834 7.94 133.914 8.22C134.994 8.5 136 8.92 136.934 9.48L136.034 11.48ZM147.817 22L144.957 17.9C144.837 17.9133 144.657 17.92 144.417 17.92H141.257V22H138.657V8H144.417C145.631 8 146.684 8.2 147.577 8.6C148.484 9 149.177 9.57333 149.657 10.32C150.137 11.0667 150.377 11.9533 150.377 12.98C150.377 14.0333 150.117 14.94 149.597 15.7C149.091 16.46 148.357 17.0267 147.397 17.4L150.617 22H147.817ZM147.757 12.98C147.757 12.0867 147.464 11.4 146.877 10.92C146.291 10.44 145.431 10.2 144.297 10.2H141.257V15.78H144.297C145.431 15.78 146.291 15.54 146.877 15.06C147.464 14.5667 147.757 13.8733 147.757 12.98ZM165.386 8V22H162.886V20.22C161.94 21.54 160.473 22.2 158.486 22.2C156.833 22.2 155.533 21.6867 154.586 20.66C153.64 19.62 153.166 18.1533 153.166 16.26V8H155.766V16.16C155.766 17.4 156.06 18.34 156.646 18.98C157.246 19.6067 158.066 19.92 159.106 19.92C160.226 19.92 161.12 19.5867 161.786 18.92C162.453 18.24 162.786 17.2333 162.786 15.9V8H165.386ZM178.866 11.48C177.546 10.7333 176.172 10.28 174.746 10.12V22H172.146V10.12C170.706 10.28 169.326 10.7333 168.006 11.48L167.106 9.48C168.039 8.92 169.039 8.5 170.106 8.22C171.186 7.94 172.292 7.8 173.426 7.8C174.559 7.8 175.666 7.94 176.746 8.22C177.826 8.5 178.832 8.92 179.766 9.48L178.866 11.48ZM187.834 22.2C186.407 22.2 185.121 21.8933 183.974 21.28C182.827 20.6533 181.927 19.7933 181.274 18.7C180.621 17.5933 180.294 16.36 180.294 15C180.294 13.64 180.621 12.4133 181.274 11.32C181.927 10.2133 182.827 9.35333 183.974 8.74C185.121 8.11333 186.407 7.8 187.834 7.8C189.261 7.8 190.547 8.11333 191.694 8.74C192.841 9.35333 193.741 10.2067 194.394 11.3C195.047 12.3933 195.374 13.6267 195.374 15C195.374 16.3733 195.047 17.6067 194.394 18.7C193.741 19.7933 192.841 20.6533 191.694 21.28C190.547 21.8933 189.261 22.2 187.834 22.2ZM187.834 19.92C188.767 19.92 189.607 19.7133 190.354 19.3C191.101 18.8733 191.687 18.2867 192.114 17.54C192.541 16.78 192.754 15.9333 192.754 15C192.754 14.0667 192.541 13.2267 192.114 12.48C191.687 11.72 191.101 11.1333 190.354 10.72C189.607 10.2933 188.767 10.08 187.834 10.08C186.901 10.08 186.061 10.2933 185.314 10.72C184.567 11.1333 183.981 11.72 183.554 12.48C183.127 13.2267 182.914 14.0667 182.914 15C182.914 15.9333 183.127 16.78 183.554 17.54C183.981 18.2867 184.567 18.8733 185.314 19.3C186.061 19.7133 186.901 19.92 187.834 19.92ZM207.29 22L204.43 17.9C204.31 17.9133 204.13 17.92 203.89 17.92H200.73V22H198.13V8H203.89C205.103 8 206.157 8.2 207.05 8.6C207.957 9 208.65 9.57333 209.13 10.32C209.61 11.0667 209.85 11.9533 209.85 12.98C209.85 14.0333 209.59 14.94 209.07 15.7C208.563 16.46 207.83 17.0267 206.87 17.4L210.09 22H207.29ZM207.23 12.98C207.23 12.0867 206.937 11.4 206.35 10.92C205.763 10.44 204.903 10.2 203.77 10.2H200.73V15.78H203.77C204.903 15.78 205.763 15.54 206.35 15.06C206.937 14.5667 207.23 13.8733 207.23 12.98ZM218.859 7.8C220.112 7.8 221.206 8.04667 222.139 8.54C223.072 9.03333 223.792 9.76667 224.299 10.74C224.819 11.7 225.079 12.8667 225.079 14.24V22H222.479V18.4H215.199V22H212.639V14.24C212.639 12.8667 212.892 11.7 213.399 10.74C213.919 9.76667 214.646 9.03333 215.579 8.54C216.512 8.04667 217.606 7.8 218.859 7.8ZM222.479 16.22V14C222.479 12.7067 222.159 11.7333 221.519 11.08C220.879 10.4133 219.986 10.08 218.839 10.08C217.692 10.08 216.799 10.4133 216.159 11.08C215.519 11.7333 215.199 12.7067 215.199 14V16.22H222.479ZM234.243 8H240.363C241.857 8 243.183 8.29333 244.343 8.88C245.503 9.45333 246.403 10.2733 247.043 11.34C247.683 12.3933 248.003 13.6133 248.003 15C248.003 16.3867 247.683 17.6133 247.043 18.68C246.403 19.7333 245.503 20.5533 244.343 21.14C243.183 21.7133 241.857 22 240.363 22H234.243V8ZM240.243 19.8C241.27 19.8 242.17 19.6067 242.943 19.22C243.73 18.82 244.33 18.26 244.743 17.54C245.17 16.8067 245.383 15.96 245.383 15C245.383 14.04 245.17 13.2 244.743 12.48C244.33 11.7467 243.73 11.1867 242.943 10.8C242.17 10.4 241.27 10.2 240.243 10.2H236.843V19.8H240.243ZM261.687 20.66C261.06 21.1533 260.253 21.5333 259.267 21.8C258.28 22.0667 257.213 22.2 256.067 22.2C254.72 22.2 253.573 22.0267 252.627 21.68C251.693 21.3333 250.987 20.8533 250.507 20.24C250.027 19.6267 249.787 18.92 249.787 18.12C249.787 17.3467 250 16.6733 250.427 16.1C250.853 15.5267 251.427 15.1067 252.147 14.84C251.6 14.5467 251.167 14.14 250.847 13.62C250.54 13.0867 250.387 12.4933 250.387 11.84C250.387 11.0933 250.607 10.42 251.047 9.82C251.5 9.20667 252.173 8.72 253.067 8.36C253.96 7.98667 255.06 7.8 256.367 7.8C257.247 7.8 258.107 7.89333 258.947 8.08C259.787 8.26667 260.52 8.52 261.147 8.84L260.407 10.9C259.233 10.2867 257.92 9.98 256.467 9.98C255.32 9.98 254.453 10.1667 253.867 10.54C253.293 10.9 253.007 11.3867 253.007 12C253.007 12.6 253.22 13.06 253.647 13.38C254.073 13.6867 254.7 13.84 255.527 13.84H259.227V16H255.387C254.44 16 253.707 16.1667 253.187 16.5C252.667 16.82 252.407 17.3 252.407 17.94C252.407 18.58 252.72 19.0867 253.347 19.46C253.973 19.8333 254.92 20.02 256.187 20.02C257.067 20.02 257.92 19.9 258.747 19.66C259.587 19.42 260.287 19.0867 260.847 18.66L261.687 20.66ZM273.5 10.18V19.82H276.08V22H268.34V19.82H270.92V10.18H268.34V8H276.08V10.18H273.5ZM294.415 7.8C296.055 7.8 297.335 8.28 298.255 9.24C299.175 10.1867 299.635 11.5533 299.635 13.34V22H297.035V13.44C297.035 12.3333 296.741 11.5 296.155 10.94C295.581 10.3667 294.828 10.08 293.895 10.08C292.855 10.08 292.021 10.3733 291.395 10.96C290.781 11.5467 290.475 12.4467 290.475 13.66V22H287.875V13.44C287.875 12.32 287.601 11.48 287.055 10.92C286.521 10.36 285.788 10.08 284.855 10.08C283.801 10.08 282.955 10.38 282.315 10.98C281.688 11.5667 281.375 12.46 281.375 13.66V22H278.775V8H281.295V9.84C281.721 9.18667 282.301 8.68667 283.035 8.34C283.768 7.98 284.615 7.8 285.575 7.8C286.561 7.8 287.421 7.98667 288.155 8.36C288.888 8.73333 289.441 9.26 289.815 9.94C290.281 9.26 290.915 8.73333 291.715 8.36C292.528 7.98667 293.428 7.8 294.415 7.8ZM309.807 22.2C308.38 22.2 307.093 21.8933 305.947 21.28C304.8 20.6533 303.9 19.7933 303.247 18.7C302.593 17.5933 302.267 16.36 302.267 15C302.267 13.64 302.593 12.4133 303.247 11.32C303.9 10.2133 304.8 9.35333 305.947 8.74C307.093 8.11333 308.38 7.8 309.807 7.8C311.233 7.8 312.52 8.11333 313.667 8.74C314.813 9.35333 315.713 10.2067 316.367 11.3C317.02 12.3933 317.347 13.6267 317.347 15C317.347 16.3733 317.02 17.6067 316.367 18.7C315.713 19.7933 314.813 20.6533 313.667 21.28C312.52 21.8933 311.233 22.2 309.807 22.2ZM309.807 19.92C310.74 19.92 311.58 19.7133 312.327 19.3C313.073 18.8733 313.66 18.2867 314.087 17.54C314.513 16.78 314.727 15.9333 314.727 15C314.727 14.0667 314.513 13.2267 314.087 12.48C313.66 11.72 313.073 11.1333 312.327 10.72C311.58 10.2933 310.74 10.08 309.807 10.08C308.873 10.08 308.033 10.2933 307.287 10.72C306.54 11.1333 305.953 11.72 305.527 12.48C305.1 13.2267 304.887 14.0667 304.887 15C304.887 15.9333 305.1 16.78 305.527 17.54C305.953 18.2867 306.54 18.8733 307.287 19.3C308.033 19.7133 308.873 19.92 309.807 19.92ZM310.827 4.12H313.767L310.287 6.86H308.127L310.827 4.12ZM332.453 8L326.353 22H323.793L317.673 8H320.493L325.153 18.8L329.853 8H332.453ZM344.695 20.66C344.068 21.1533 343.261 21.5333 342.275 21.8C341.288 22.0667 340.221 22.2 339.075 22.2C337.728 22.2 336.581 22.0267 335.635 21.68C334.701 21.3333 333.995 20.8533 333.515 20.24C333.035 19.6267 332.795 18.92 332.795 18.12C332.795 17.3467 333.008 16.6733 333.435 16.1C333.861 15.5267 334.435 15.1067 335.155 14.84C334.608 14.5467 334.175 14.14 333.855 13.62C333.548 13.0867 333.395 12.4933 333.395 11.84C333.395 11.0933 333.615 10.42 334.055 9.82C334.508 9.20667 335.181 8.72 336.075 8.36C336.968 7.98667 338.068 7.8 339.375 7.8C340.255 7.8 341.115 7.89333 341.955 8.08C342.795 8.26667 343.528 8.52 344.155 8.84L343.415 10.9C342.241 10.2867 340.928 9.98 339.475 9.98C338.328 9.98 337.461 10.1667 336.875 10.54C336.301 10.9 336.015 11.3867 336.015 12C336.015 12.6 336.228 13.06 336.655 13.38C337.081 13.6867 337.708 13.84 338.535 13.84H342.235V16H338.395C337.448 16 336.715 16.1667 336.195 16.5C335.675 16.82 335.415 17.3 335.415 17.94C335.415 18.58 335.728 19.0867 336.355 19.46C336.981 19.8333 337.928 20.02 339.195 20.02C340.075 20.02 340.928 19.9 341.755 19.66C342.595 19.42 343.295 19.0867 343.855 18.66L344.695 20.66ZM350.98 10.18V19.82H353.56V22H345.82V19.82H348.4V10.18H345.82V8H353.56V10.18H350.98ZM360.595 22.2C359.515 22.2 358.468 22.0467 357.455 21.74C356.455 21.4333 355.662 21.0267 355.075 20.52L355.975 18.5C356.548 18.9533 357.248 19.3267 358.075 19.62C358.915 19.9 359.755 20.04 360.595 20.04C361.635 20.04 362.408 19.8733 362.915 19.54C363.435 19.2067 363.695 18.7667 363.695 18.22C363.695 17.82 363.548 17.4933 363.255 17.24C362.975 16.9733 362.615 16.7667 362.175 16.62C361.735 16.4733 361.135 16.3067 360.375 16.12C359.308 15.8667 358.442 15.6133 357.775 15.36C357.122 15.1067 356.555 14.7133 356.075 14.18C355.608 13.6333 355.375 12.9 355.375 11.98C355.375 11.2067 355.582 10.5067 355.995 9.88C356.422 9.24 357.055 8.73333 357.895 8.36C358.748 7.98667 359.788 7.8 361.015 7.8C361.868 7.8 362.708 7.90667 363.535 8.12C364.362 8.33333 365.075 8.64 365.675 9.04L364.855 11.06C364.242 10.7 363.602 10.4267 362.935 10.24C362.268 10.0533 361.622 9.96 360.995 9.96C359.968 9.96 359.202 10.1333 358.695 10.48C358.202 10.8267 357.955 11.2867 357.955 11.86C357.955 12.26 358.095 12.5867 358.375 12.84C358.668 13.0933 359.035 13.2933 359.475 13.44C359.915 13.5867 360.515 13.7533 361.275 13.94C362.315 14.18 363.168 14.4333 363.835 14.7C364.502 14.9533 365.068 15.3467 365.535 15.88C366.015 16.4133 366.255 17.1333 366.255 18.04C366.255 18.8133 366.042 19.5133 365.615 20.14C365.202 20.7667 364.568 21.2667 363.715 21.64C362.862 22.0133 361.822 22.2 360.595 22.2Z" fill="white"/>
</svg>
