<svg width="233" height="46" viewBox="0 0 233 46" fill="none" xmlns="http://www.w3.org/2000/svg">
<path d="M41 1V45H1V1H41Z" fill="white" stroke="black" stroke-width="2"/>
<path d="M232 1V28H54V1H232Z" fill="#0033CC" stroke="black" stroke-width="2"/>
<path d="M54 1V28H41V1H54Z" fill="#FFCC00" stroke="black" stroke-width="2"/>
<path d="M41 1V28H23V1H41Z" fill="#FF6600" stroke="black" stroke-width="2"/>
<path d="M73.36 22.2C71.9467 22.2 70.6667 21.8933 69.52 21.28C68.3867 20.6533 67.4933 19.7933 66.84 18.7C66.2 17.6067 65.88 16.3733 65.88 15C65.88 13.6267 66.2067 12.3933 66.86 11.3C67.5133 10.2067 68.4067 9.35333 69.54 8.74C70.6867 8.11333 71.9667 7.8 73.38 7.8C74.5267 7.8 75.5733 8 76.52 8.4C77.4667 8.8 78.2667 9.38 78.92 10.14L77.24 11.72C76.2267 10.6267 74.98 10.08 73.5 10.08C72.54 10.08 71.68 10.2933 70.92 10.72C70.16 11.1333 69.5667 11.7133 69.14 12.46C68.7133 13.2067 68.5 14.0533 68.5 15C68.5 15.9467 68.7133 16.7933 69.14 17.54C69.5667 18.2867 70.16 18.8733 70.92 19.3C71.68 19.7133 72.54 19.92 73.5 19.92C74.98 19.92 76.2267 19.3667 77.24 18.26L78.92 19.86C78.2667 20.62 77.46 21.2 76.5 21.6C75.5533 22 74.5067 22.2 73.36 22.2ZM87.6583 22.2C86.2316 22.2 84.9449 21.8933 83.7983 21.28C82.6516 20.6533 81.7516 19.7933 81.0983 18.7C80.4449 17.5933 80.1183 16.36 80.1183 15C80.1183 13.64 80.4449 12.4133 81.0983 11.32C81.7516 10.2133 82.6516 9.35333 83.7983 8.74C84.9449 8.11333 86.2316 7.8 87.6583 7.8C89.0849 7.8 90.3716 8.11333 91.5183 8.74C92.6649 9.35333 93.5649 10.2067 94.2183 11.3C94.8716 12.3933 95.1983 13.6267 95.1983 15C95.1983 16.3733 94.8716 17.6067 94.2183 18.7C93.5649 19.7933 92.6649 20.6533 91.5183 21.28C90.3716 21.8933 89.0849 22.2 87.6583 22.2ZM87.6583 19.92C88.5916 19.92 89.4316 19.7133 90.1783 19.3C90.9249 18.8733 91.5116 18.2867 91.9383 17.54C92.3649 16.78 92.5783 15.9333 92.5783 15C92.5783 14.0667 92.3649 13.2267 91.9383 12.48C91.5116 11.72 90.9249 11.1333 90.1783 10.72C89.4316 10.2933 88.5916 10.08 87.6583 10.08C86.7249 10.08 85.8849 10.2933 85.1383 10.72C84.3916 11.1333 83.8049 11.72 83.3783 12.48C82.9516 13.2267 82.7383 14.0667 82.7383 15C82.7383 15.9333 82.9516 16.78 83.3783 17.54C83.8049 18.2867 84.3916 18.8733 85.1383 19.3C85.8849 19.7133 86.7249 19.92 87.6583 19.92ZM104.494 22.2C103.068 22.2 101.781 21.8933 100.634 21.28C99.4876 20.6533 98.5876 19.7933 97.9342 18.7C97.2809 17.5933 96.9542 16.36 96.9542 15C96.9542 13.64 97.2809 12.4133 97.9342 11.32C98.5876 10.2133 99.4876 9.35333 100.634 8.74C101.781 8.11333 103.068 7.8 104.494 7.8C105.921 7.8 107.208 8.11333 108.354 8.74C109.501 9.35333 110.401 10.2067 111.054 11.3C111.708 12.3933 112.034 13.6267 112.034 15C112.034 16.3733 111.708 17.6067 111.054 18.7C110.401 19.7933 109.501 20.6533 108.354 21.28C107.208 21.8933 105.921 22.2 104.494 22.2ZM104.494 19.92C105.428 19.92 106.268 19.7133 107.014 19.3C107.761 18.8733 108.348 18.2867 108.774 17.54C109.201 16.78 109.414 15.9333 109.414 15C109.414 14.0667 109.201 13.2267 108.774 12.48C108.348 11.72 107.761 11.1333 107.014 10.72C106.268 10.2933 105.428 10.08 104.494 10.08C103.561 10.08 102.721 10.2933 101.974 10.72C101.228 11.1333 100.641 11.72 100.214 12.48C99.7876 13.2267 99.5742 14.0667 99.5742 15C99.5742 15.9333 99.7876 16.78 100.214 17.54C100.641 18.2867 101.228 18.8733 101.974 19.3C102.721 19.7133 103.561 19.92 104.494 19.92ZM120.55 8C121.763 8 122.817 8.2 123.71 8.6C124.617 9 125.31 9.57333 125.79 10.32C126.27 11.0667 126.51 11.9533 126.51 12.98C126.51 13.9933 126.27 14.88 125.79 15.64C125.31 16.3867 124.617 16.96 123.71 17.36C122.817 17.76 121.763 17.96 120.55 17.96H117.39V22H114.79V8H120.55ZM120.43 15.76C121.563 15.76 122.423 15.52 123.01 15.04C123.597 14.56 123.89 13.8733 123.89 12.98C123.89 12.0867 123.597 11.4 123.01 10.92C122.423 10.44 121.563 10.2 120.43 10.2H117.39V15.76H120.43ZM140.124 20.66C139.498 21.1533 138.691 21.5333 137.704 21.8C136.718 22.0667 135.651 22.2 134.504 22.2C133.158 22.2 132.011 22.0267 131.064 21.68C130.131 21.3333 129.424 20.8533 128.944 20.24C128.464 19.6267 128.224 18.92 128.224 18.12C128.224 17.3467 128.438 16.6733 128.864 16.1C129.291 15.5267 129.864 15.1067 130.584 14.84C130.038 14.5467 129.604 14.14 129.284 13.62C128.978 13.0867 128.824 12.4933 128.824 11.84C128.824 11.0933 129.044 10.42 129.484 9.82C129.938 9.20667 130.611 8.72 131.504 8.36C132.398 7.98667 133.498 7.8 134.804 7.8C135.684 7.8 136.544 7.89333 137.384 8.08C138.224 8.26667 138.958 8.52 139.584 8.84L138.844 10.9C137.671 10.2867 136.358 9.98 134.904 9.98C133.758 9.98 132.891 10.1667 132.304 10.54C131.731 10.9 131.444 11.3867 131.444 12C131.444 12.6 131.658 13.06 132.084 13.38C132.511 13.6867 133.138 13.84 133.964 13.84H137.664V16H133.824C132.878 16 132.144 16.1667 131.624 16.5C131.104 16.82 130.844 17.3 130.844 17.94C130.844 18.58 131.158 19.0867 131.784 19.46C132.411 19.8333 133.358 20.02 134.624 20.02C135.504 20.02 136.358 19.9 137.184 19.66C138.024 19.42 138.724 19.0867 139.284 18.66L140.124 20.66ZM151.47 22L148.61 17.9C148.49 17.9133 148.31 17.92 148.07 17.92H144.91V22H142.31V8H148.07C149.283 8 150.336 8.2 151.23 8.6C152.136 9 152.83 9.57333 153.31 10.32C153.79 11.0667 154.03 11.9533 154.03 12.98C154.03 14.0333 153.77 14.94 153.25 15.7C152.743 16.46 152.01 17.0267 151.05 17.4L154.27 22H151.47ZM151.41 12.98C151.41 12.0867 151.116 11.4 150.53 10.92C149.943 10.44 149.083 10.2 147.95 10.2H144.91V15.78H147.95C149.083 15.78 149.943 15.54 150.53 15.06C151.116 14.5667 151.41 13.8733 151.41 12.98ZM163.039 7.8C164.292 7.8 165.385 8.04667 166.319 8.54C167.252 9.03333 167.972 9.76667 168.479 10.74C168.999 11.7 169.259 12.8667 169.259 14.24V22H166.659V18.4H159.379V22H156.819V14.24C156.819 12.8667 157.072 11.7 157.579 10.74C158.099 9.76667 158.825 9.03333 159.759 8.54C160.692 8.04667 161.785 7.8 163.039 7.8ZM166.659 16.22V14C166.659 12.7067 166.339 11.7333 165.699 11.08C165.059 10.4133 164.165 10.08 163.019 10.08C161.872 10.08 160.979 10.4133 160.339 11.08C159.699 11.7333 159.379 12.7067 159.379 14V16.22H166.659ZM182.42 11.48C181.1 10.7333 179.727 10.28 178.3 10.12V22H175.7V10.12C174.26 10.28 172.88 10.7333 171.56 11.48L170.66 9.48C171.594 8.92 172.594 8.5 173.66 8.22C174.74 7.94 175.847 7.8 176.98 7.8C178.114 7.8 179.22 7.94 180.3 8.22C181.38 8.5 182.387 8.92 183.32 9.48L182.42 11.48ZM189.144 10.18V19.82H191.724V22H183.984V19.82H186.564V10.18H183.984V8H191.724V10.18H189.144ZM207.219 8L201.119 22H198.559L192.439 8H195.259L199.919 18.8L204.619 8H207.219ZM214.699 7.8C215.952 7.8 217.045 8.04667 217.979 8.54C218.912 9.03333 219.632 9.76667 220.139 10.74C220.659 11.7 220.919 12.8667 220.919 14.24V22H218.319V18.4H211.039V22H208.479V14.24C208.479 12.8667 208.732 11.7 209.239 10.74C209.759 9.76667 210.485 9.03333 211.419 8.54C212.352 8.04667 213.445 7.8 214.699 7.8ZM218.319 16.22V14C218.319 12.7067 217.999 11.7333 217.359 11.08C216.719 10.4133 215.825 10.08 214.679 10.08C213.532 10.08 212.639 10.4133 211.999 11.08C211.359 11.7333 211.039 12.7067 211.039 14V16.22H218.319Z" fill="white"/>
</svg>
