<svg width="152" height="46" viewBox="0 0 152 46" fill="none" xmlns="http://www.w3.org/2000/svg">
<path d="M41 1V45H1V1H41Z" fill="white" stroke="black" stroke-width="2"/>
<path d="M151 1V28H54V1H151Z" fill="#0033CC" stroke="black" stroke-width="2"/>
<path d="M54 1V28H41V1H54Z" fill="#FFCC00" stroke="black" stroke-width="2"/>
<path d="M41 1V28H23V1H41Z" fill="#FF6600" stroke="black" stroke-width="2"/>
<path d="M72.98 7.8C74.2333 7.8 75.3267 8.04667 76.26 8.54C77.1933 9.03333 77.9133 9.76667 78.42 10.74C78.94 11.7 79.2 12.8667 79.2 14.24V22H76.6V18.4H69.32V22H66.76V14.24C66.76 12.8667 67.0133 11.7 67.52 10.74C68.04 9.76667 68.7667 9.03333 69.7 8.54C70.6333 8.04667 71.7267 7.8 72.98 7.8ZM76.6 16.22V14C76.6 12.7067 76.28 11.7333 75.64 11.08C75 10.4133 74.1067 10.08 72.96 10.08C71.8133 10.08 70.92 10.4133 70.28 11.08C69.64 11.7333 69.32 12.7067 69.32 14V16.22H76.6ZM91.997 22L89.137 17.9C89.017 17.9133 88.837 17.92 88.597 17.92H85.437V22H82.837V8H88.597C89.8104 8 90.8637 8.2 91.757 8.6C92.6637 9 93.357 9.57333 93.837 10.32C94.317 11.0667 94.557 11.9533 94.557 12.98C94.557 14.0333 94.297 14.94 93.777 15.7C93.2704 16.46 92.537 17.0267 91.577 17.4L94.797 22H91.997ZM91.937 12.98C91.937 12.0867 91.6437 11.4 91.057 10.92C90.4704 10.44 89.6104 10.2 88.477 10.2H85.437V15.78H88.477C89.6104 15.78 90.4704 15.54 91.057 15.06C91.6437 14.5667 91.937 13.8733 91.937 12.98ZM106.626 22L103.766 17.9C103.646 17.9133 103.466 17.92 103.226 17.92H100.066V22H97.4659V8H103.226C104.439 8 105.493 8.2 106.386 8.6C107.293 9 107.986 9.57333 108.466 10.32C108.946 11.0667 109.186 11.9533 109.186 12.98C109.186 14.0333 108.926 14.94 108.406 15.7C107.899 16.46 107.166 17.0267 106.206 17.4L109.426 22H106.626ZM106.566 12.98C106.566 12.0867 106.273 11.4 105.686 10.92C105.099 10.44 104.239 10.2 103.106 10.2H100.066V15.78H103.106C104.239 15.78 105.099 15.54 105.686 15.06C106.273 14.5667 106.566 13.8733 106.566 12.98ZM118.635 22.2C117.208 22.2 115.922 21.8933 114.775 21.28C113.628 20.6533 112.728 19.7933 112.075 18.7C111.422 17.5933 111.095 16.36 111.095 15C111.095 13.64 111.422 12.4133 112.075 11.32C112.728 10.2133 113.628 9.35333 114.775 8.74C115.922 8.11333 117.208 7.8 118.635 7.8C120.062 7.8 121.348 8.11333 122.495 8.74C123.642 9.35333 124.542 10.2067 125.195 11.3C125.848 12.3933 126.175 13.6267 126.175 15C126.175 16.3733 125.848 17.6067 125.195 18.7C124.542 19.7933 123.642 20.6533 122.495 21.28C121.348 21.8933 120.062 22.2 118.635 22.2ZM118.635 19.92C119.568 19.92 120.408 19.7133 121.155 19.3C121.902 18.8733 122.488 18.2867 122.915 17.54C123.342 16.78 123.555 15.9333 123.555 15C123.555 14.0667 123.342 13.2267 122.915 12.48C122.488 11.72 121.902 11.1333 121.155 10.72C120.408 10.2933 119.568 10.08 118.635 10.08C117.702 10.08 116.862 10.2933 116.115 10.72C115.368 11.1333 114.782 11.72 114.355 12.48C113.928 13.2267 113.715 14.0667 113.715 15C113.715 15.9333 113.928 16.78 114.355 17.54C114.782 18.2867 115.368 18.8733 116.115 19.3C116.862 19.7133 117.702 19.92 118.635 19.92ZM139.755 19.82V22H127.815V20.42L131.455 15.9H128.975V13.84H133.115L136.075 10.18H127.915V8H139.455V9.56L135.975 13.88H138.295V15.94H134.315L131.195 19.82H139.755Z" fill="white"/>
</svg>
