<svg width="350" height="46" viewBox="0 0 350 46" fill="none" xmlns="http://www.w3.org/2000/svg">
<path d="M41 1V45H1V1H41Z" fill="white" stroke="black" stroke-width="2"/>
<path d="M349 1V28H54V1H349Z" fill="#0033CC" stroke="black" stroke-width="2"/>
<path d="M54 1V28H41V1H54Z" fill="#FFCC00" stroke="black" stroke-width="2"/>
<path d="M41 1V28H23V1H41Z" fill="#FF6600" stroke="black" stroke-width="2"/>
<path d="M82.52 7.8C84.16 7.8 85.44 8.28 86.36 9.24C87.28 10.1867 87.74 11.5533 87.74 13.34V22H85.14V13.44C85.14 12.3333 84.8467 11.5 84.26 10.94C83.6867 10.3667 82.9333 10.08 82 10.08C80.96 10.08 80.1267 10.3733 79.5 10.96C78.8867 11.5467 78.58 12.4467 78.58 13.66V22H75.98V13.44C75.98 12.32 75.7067 11.48 75.16 10.92C74.6267 10.36 73.8933 10.08 72.96 10.08C71.9067 10.08 71.06 10.38 70.42 10.98C69.7933 11.5667 69.48 12.46 69.48 13.66V22H66.88V8H69.4V9.84C69.8267 9.18667 70.4067 8.68667 71.14 8.34C71.8733 7.98 72.72 7.8 73.68 7.8C74.6667 7.8 75.5267 7.98667 76.26 8.36C76.9933 8.73333 77.5467 9.26 77.92 9.94C78.3867 9.26 79.02 8.73333 79.82 8.36C80.6333 7.98667 81.5333 7.8 82.52 7.8ZM97.4722 7.8C98.7255 7.8 99.8189 8.04667 100.752 8.54C101.686 9.03333 102.406 9.76667 102.912 10.74C103.432 11.7 103.692 12.8667 103.692 14.24V22H101.092V18.4H93.8122V22H91.2522V14.24C91.2522 12.8667 91.5055 11.7 92.0122 10.74C92.5322 9.76667 93.2589 9.03333 94.1922 8.54C95.1255 8.04667 96.2189 7.8 97.4722 7.8ZM101.092 16.22V14C101.092 12.7067 100.772 11.7333 100.132 11.08C99.4922 10.4133 98.5989 10.08 97.4522 10.08C96.3055 10.08 95.4122 10.4133 94.7722 11.08C94.1322 11.7333 93.8122 12.7067 93.8122 14V16.22H101.092ZM116.854 11.48C115.534 10.7333 114.161 10.28 112.734 10.12V22H110.134V10.12C108.694 10.28 107.314 10.7333 105.994 11.48L105.094 9.48C106.027 8.92 107.027 8.5 108.094 8.22C109.174 7.94 110.281 7.8 111.414 7.8C112.547 7.8 113.654 7.94 114.734 8.22C115.814 8.5 116.821 8.92 117.754 9.48L116.854 11.48ZM130.202 20.66C129.576 21.1533 128.769 21.5333 127.782 21.8C126.796 22.0667 125.729 22.2 124.582 22.2C123.236 22.2 122.089 22.0267 121.142 21.68C120.209 21.3333 119.502 20.8533 119.022 20.24C118.542 19.6267 118.302 18.92 118.302 18.12C118.302 17.3467 118.516 16.6733 118.942 16.1C119.369 15.5267 119.942 15.1067 120.662 14.84C120.116 14.5467 119.682 14.14 119.362 13.62C119.056 13.0867 118.902 12.4933 118.902 11.84C118.902 11.0933 119.122 10.42 119.562 9.82C120.016 9.20667 120.689 8.72 121.582 8.36C122.476 7.98667 123.576 7.8 124.882 7.8C125.762 7.8 126.622 7.89333 127.462 8.08C128.302 8.26667 129.036 8.52 129.662 8.84L128.922 10.9C127.749 10.2867 126.436 9.98 124.982 9.98C123.836 9.98 122.969 10.1667 122.382 10.54C121.809 10.9 121.522 11.3867 121.522 12C121.522 12.6 121.736 13.06 122.162 13.38C122.589 13.6867 123.216 13.84 124.042 13.84H127.742V16H123.902C122.956 16 122.222 16.1667 121.702 16.5C121.182 16.82 120.922 17.3 120.922 17.94C120.922 18.58 121.236 19.0867 121.862 19.46C122.489 19.8333 123.436 20.02 124.702 20.02C125.582 20.02 126.436 19.9 127.262 19.66C128.102 19.42 128.802 19.0867 129.362 18.66L130.202 20.66ZM141.548 22L138.688 17.9C138.568 17.9133 138.388 17.92 138.148 17.92H134.988V22H132.388V8H138.148C139.361 8 140.414 8.2 141.308 8.6C142.214 9 142.908 9.57333 143.388 10.32C143.868 11.0667 144.108 11.9533 144.108 12.98C144.108 14.0333 143.848 14.94 143.328 15.7C142.821 16.46 142.088 17.0267 141.128 17.4L144.348 22H141.548ZM141.488 12.98C141.488 12.0867 141.194 11.4 140.608 10.92C140.021 10.44 139.161 10.2 138.028 10.2H134.988V15.78H138.028C139.161 15.78 140.021 15.54 140.608 15.06C141.194 14.5667 141.488 13.8733 141.488 12.98ZM153.977 7.8C155.657 7.8 156.963 8.31333 157.897 9.34C158.843 10.3667 159.317 11.8333 159.317 13.74V22H156.717V13.84C156.717 12.6 156.417 11.6667 155.817 11.04C155.23 10.4 154.41 10.08 153.357 10.08C152.21 10.08 151.297 10.42 150.617 11.1C149.95 11.7667 149.617 12.7667 149.617 14.1V22H147.017V8H149.537V9.76C150.51 8.45333 151.99 7.8 153.977 7.8ZM167.054 10.18V19.82H169.634V22H161.894V19.82H164.474V10.18H161.894V8H169.634V10.18H167.054ZM172.329 8H178.449C179.943 8 181.269 8.29333 182.429 8.88C183.589 9.45333 184.489 10.2733 185.129 11.34C185.769 12.3933 186.089 13.6133 186.089 15C186.089 16.3867 185.769 17.6133 185.129 18.68C184.489 19.7333 183.589 20.5533 182.429 21.14C181.269 21.7133 179.943 22 178.449 22H172.329V8ZM178.329 19.8C179.356 19.8 180.256 19.6067 181.029 19.22C181.816 18.82 182.416 18.26 182.829 17.54C183.256 16.8067 183.469 15.96 183.469 15C183.469 14.04 183.256 13.2 182.829 12.48C182.416 11.7467 181.816 11.1867 181.029 10.8C180.256 10.4 179.356 10.2 178.329 10.2H174.929V19.8H178.329ZM194.953 7.8C196.206 7.8 197.299 8.04667 198.233 8.54C199.166 9.03333 199.886 9.76667 200.393 10.74C200.913 11.7 201.173 12.8667 201.173 14.24V22H198.573V18.4H191.293V22H188.733V14.24C188.733 12.8667 188.986 11.7 189.493 10.74C190.013 9.76667 190.739 9.03333 191.673 8.54C192.606 8.04667 193.699 7.8 194.953 7.8ZM198.573 16.22V14C198.573 12.7067 198.253 11.7333 197.613 11.08C196.973 10.4133 196.079 10.08 194.933 10.08C193.786 10.08 192.893 10.4133 192.253 11.08C191.613 11.7333 191.293 12.7067 191.293 14V16.22H198.573ZM204.81 8H210.93C212.423 8 213.75 8.29333 214.91 8.88C216.07 9.45333 216.97 10.2733 217.61 11.34C218.25 12.3933 218.57 13.6133 218.57 15C218.57 16.3867 218.25 17.6133 217.61 18.68C216.97 19.7333 216.07 20.5533 214.91 21.14C213.75 21.7133 212.423 22 210.93 22H204.81V8ZM210.81 19.8C211.836 19.8 212.736 19.6067 213.51 19.22C214.296 18.82 214.896 18.26 215.31 17.54C215.736 16.8067 215.95 15.96 215.95 15C215.95 14.04 215.736 13.2 215.31 12.48C214.896 11.7467 214.296 11.1867 213.51 10.8C212.736 10.4 211.836 10.2 210.81 10.2H207.41V19.8H210.81ZM232.253 20.66C231.626 21.1533 230.82 21.5333 229.833 21.8C228.846 22.0667 227.78 22.2 226.633 22.2C225.286 22.2 224.14 22.0267 223.193 21.68C222.26 21.3333 221.553 20.8533 221.073 20.24C220.593 19.6267 220.353 18.92 220.353 18.12C220.353 17.3467 220.566 16.6733 220.993 16.1C221.42 15.5267 221.993 15.1067 222.713 14.84C222.166 14.5467 221.733 14.14 221.413 13.62C221.106 13.0867 220.953 12.4933 220.953 11.84C220.953 11.0933 221.173 10.42 221.613 9.82C222.066 9.20667 222.74 8.72 223.633 8.36C224.526 7.98667 225.626 7.8 226.933 7.8C227.813 7.8 228.673 7.89333 229.513 8.08C230.353 8.26667 231.086 8.52 231.713 8.84L230.973 10.9C229.8 10.2867 228.486 9.98 227.033 9.98C225.886 9.98 225.02 10.1667 224.433 10.54C223.86 10.9 223.573 11.3867 223.573 12C223.573 12.6 223.786 13.06 224.213 13.38C224.64 13.6867 225.266 13.84 226.093 13.84H229.793V16H225.953C225.006 16 224.273 16.1667 223.753 16.5C223.233 16.82 222.973 17.3 222.973 17.94C222.973 18.58 223.286 19.0867 223.913 19.46C224.54 19.8333 225.486 20.02 226.753 20.02C227.633 20.02 228.486 19.9 229.313 19.66C230.153 19.42 230.853 19.0867 231.413 18.66L232.253 20.66ZM245.726 8C246.939 8 247.993 8.2 248.886 8.6C249.793 9 250.486 9.57333 250.966 10.32C251.446 11.0667 251.686 11.9533 251.686 12.98C251.686 13.9933 251.446 14.88 250.966 15.64C250.486 16.3867 249.793 16.96 248.886 17.36C247.993 17.76 246.939 17.96 245.726 17.96H242.566V22H239.966V8H245.726ZM245.606 15.76C246.739 15.76 247.599 15.52 248.186 15.04C248.773 14.56 249.066 13.8733 249.066 12.98C249.066 12.0867 248.773 11.4 248.186 10.92C247.599 10.44 246.739 10.2 245.606 10.2H242.566V15.76H245.606ZM263.442 22L260.582 17.9C260.462 17.9133 260.282 17.92 260.042 17.92H256.882V22H254.282V8H260.042C261.256 8 262.309 8.2 263.202 8.6C264.109 9 264.802 9.57333 265.282 10.32C265.762 11.0667 266.002 11.9533 266.002 12.98C266.002 14.0333 265.742 14.94 265.222 15.7C264.716 16.46 263.982 17.0267 263.022 17.4L266.242 22H263.442ZM263.382 12.98C263.382 12.0867 263.089 11.4 262.502 10.92C261.916 10.44 261.056 10.2 259.922 10.2H256.882V15.78H259.922C261.056 15.78 261.916 15.54 262.502 15.06C263.089 14.5667 263.382 13.8733 263.382 12.98ZM273.011 10.18V19.82H275.591V22H267.851V19.82H270.431V10.18H267.851V8H275.591V10.18H273.011ZM291.086 8L284.986 22H282.426L276.306 8H279.126L283.786 18.8L288.486 8H291.086ZM298.566 7.8C299.819 7.8 300.913 8.04667 301.846 8.54C302.779 9.03333 303.499 9.76667 304.006 10.74C304.526 11.7 304.786 12.8667 304.786 14.24V22H302.186V18.4H294.906V22H292.346V14.24C292.346 12.8667 292.599 11.7 293.106 10.74C293.626 9.76667 294.353 9.03333 295.286 8.54C296.219 8.04667 297.313 7.8 298.566 7.8ZM302.186 16.22V14C302.186 12.7067 301.866 11.7333 301.226 11.08C300.586 10.4133 299.693 10.08 298.546 10.08C297.399 10.08 296.506 10.4133 295.866 11.08C295.226 11.7333 294.906 12.7067 294.906 14V16.22H302.186ZM308.423 8H314.543C316.036 8 317.363 8.29333 318.523 8.88C319.683 9.45333 320.583 10.2733 321.223 11.34C321.863 12.3933 322.183 13.6133 322.183 15C322.183 16.3867 321.863 17.6133 321.223 18.68C320.583 19.7333 319.683 20.5533 318.523 21.14C317.363 21.7133 316.036 22 314.543 22H308.423V8ZM314.423 19.8C315.45 19.8 316.35 19.6067 317.123 19.22C317.91 18.82 318.51 18.26 318.923 17.54C319.35 16.8067 319.563 15.96 319.563 15C319.563 14.04 319.35 13.2 318.923 12.48C318.51 11.7467 317.91 11.1867 317.123 10.8C316.35 10.4 315.45 10.2 314.423 10.2H311.023V19.8H314.423ZM331.046 7.8C332.3 7.8 333.393 8.04667 334.326 8.54C335.26 9.03333 335.98 9.76667 336.486 10.74C337.006 11.7 337.266 12.8667 337.266 14.24V22H334.666V18.4H327.386V22H324.826V14.24C324.826 12.8667 325.08 11.7 325.586 10.74C326.106 9.76667 326.833 9.03333 327.766 8.54C328.7 8.04667 329.793 7.8 331.046 7.8ZM334.666 16.22V14C334.666 12.7067 334.346 11.7333 333.706 11.08C333.066 10.4133 332.173 10.08 331.026 10.08C329.88 10.08 328.986 10.4133 328.346 11.08C327.706 11.7333 327.386 12.7067 327.386 14V16.22H334.666Z" fill="white"/>
</svg>
