<svg width="315" height="56" viewBox="0 0 315 56" fill="none" xmlns="http://www.w3.org/2000/svg">
<path d="M41 1V45H1V1H41Z" fill="white" stroke="black" stroke-width="2"/>
<path d="M283 1V28H54V1H283Z" fill="#0033CC" stroke="black" stroke-width="2"/>
<path d="M314 28V55H54V28H314Z" fill="#0033CC" stroke="black" stroke-width="2"/>
<path d="M54 1V28H41V1H54Z" fill="#FFCC00" stroke="black" stroke-width="2"/>
<path d="M41 1V28H23V1H41Z" fill="#FF6600" stroke="black" stroke-width="2"/>
<path d="M73 10.08C71.8 10.08 70.8933 10.3467 70.28 10.88C69.6667 11.4133 69.36 12.2 69.36 13.24V14.44H75.46V16.64H69.36V22H66.76V13.24C66.76 11.5467 67.3 10.22 68.38 9.26C69.4733 8.28667 70.9733 7.8 72.88 7.8C73.68 7.8 74.4267 7.88667 75.12 8.06C75.8133 8.23333 76.42 8.48667 76.94 8.82L76.12 10.94C75.2933 10.3667 74.2533 10.08 73 10.08ZM84.6792 7.8C85.9326 7.8 87.0259 8.04667 87.9592 8.54C88.8926 9.03333 89.6126 9.76667 90.1192 10.74C90.6392 11.7 90.8992 12.8667 90.8992 14.24V22H88.2992V18.4H81.0192V22H78.4592V14.24C78.4592 12.8667 78.7126 11.7 79.2192 10.74C79.7392 9.76667 80.4659 9.03333 81.3992 8.54C82.3326 8.04667 83.4259 7.8 84.6792 7.8ZM88.2992 16.22V14C88.2992 12.7067 87.9792 11.7333 87.3392 11.08C86.6992 10.4133 85.8059 10.08 84.6592 10.08C83.5126 10.08 82.6192 10.4133 81.9792 11.08C81.3392 11.7333 81.0192 12.7067 81.0192 14V16.22H88.2992ZM103.696 22L100.836 17.9C100.716 17.9133 100.536 17.92 100.296 17.92H97.1363V22H94.5363V8H100.296C101.51 8 102.563 8.2 103.456 8.6C104.363 9 105.056 9.57333 105.536 10.32C106.016 11.0667 106.256 11.9533 106.256 12.98C106.256 14.0333 105.996 14.94 105.476 15.7C104.97 16.46 104.236 17.0267 103.276 17.4L106.496 22H103.696ZM103.636 12.98C103.636 12.0867 103.343 11.4 102.756 10.92C102.17 10.44 101.31 10.2 100.176 10.2H97.1363V15.78H100.176C101.31 15.78 102.17 15.54 102.756 15.06C103.343 14.5667 103.636 13.8733 103.636 12.98ZM113.265 10.18V19.82H115.845V22H108.105V19.82H110.685V10.18H108.105V8H115.845V10.18H113.265ZM125.5 7.8C127.18 7.8 128.487 8.31333 129.42 9.34C130.367 10.3667 130.84 11.8333 130.84 13.74V22H128.24V13.84C128.24 12.6 127.94 11.6667 127.34 11.04C126.753 10.4 125.933 10.08 124.88 10.08C123.733 10.08 122.82 10.42 122.14 11.1C121.473 11.7667 121.14 12.7667 121.14 14.1V22H118.54V8H121.06V9.76C122.033 8.45333 123.513 7.8 125.5 7.8ZM146.918 8V22H144.318V16H137.078V22H134.478V8H137.078V13.78H144.318V8H146.918ZM156.769 7.8C158.022 7.8 159.116 8.04667 160.049 8.54C160.982 9.03333 161.702 9.76667 162.209 10.74C162.729 11.7 162.989 12.8667 162.989 14.24V22H160.389V18.4H153.109V22H150.549V14.24C150.549 12.8667 150.802 11.7 151.309 10.74C151.829 9.76667 152.556 9.03333 153.489 8.54C154.422 8.04667 155.516 7.8 156.769 7.8ZM160.389 16.22V14C160.389 12.7067 160.069 11.7333 159.429 11.08C158.789 10.4133 157.896 10.08 156.749 10.08C155.602 10.08 154.709 10.4133 154.069 11.08C153.429 11.7333 153.109 12.7067 153.109 14V16.22H160.389ZM172.153 8H178.273C179.767 8 181.093 8.29333 182.253 8.88C183.413 9.45333 184.313 10.2733 184.953 11.34C185.593 12.3933 185.913 13.6133 185.913 15C185.913 16.3867 185.593 17.6133 184.953 18.68C184.313 19.7333 183.413 20.5533 182.253 21.14C181.093 21.7133 179.767 22 178.273 22H172.153V8ZM178.153 19.8C179.18 19.8 180.08 19.6067 180.853 19.22C181.64 18.82 182.24 18.26 182.653 17.54C183.08 16.8067 183.293 15.96 183.293 15C183.293 14.04 183.08 13.2 182.653 12.48C182.24 11.7467 181.64 11.1867 180.853 10.8C180.08 10.4 179.18 10.2 178.153 10.2H174.753V19.8H178.153ZM199.597 20.66C198.97 21.1533 198.164 21.5333 197.177 21.8C196.19 22.0667 195.124 22.2 193.977 22.2C192.63 22.2 191.484 22.0267 190.537 21.68C189.604 21.3333 188.897 20.8533 188.417 20.24C187.937 19.6267 187.697 18.92 187.697 18.12C187.697 17.3467 187.91 16.6733 188.337 16.1C188.764 15.5267 189.337 15.1067 190.057 14.84C189.51 14.5467 189.077 14.14 188.757 13.62C188.45 13.0867 188.297 12.4933 188.297 11.84C188.297 11.0933 188.517 10.42 188.957 9.82C189.41 9.20667 190.084 8.72 190.977 8.36C191.87 7.98667 192.97 7.8 194.277 7.8C195.157 7.8 196.017 7.89333 196.857 8.08C197.697 8.26667 198.43 8.52 199.057 8.84L198.317 10.9C197.144 10.2867 195.83 9.98 194.377 9.98C193.23 9.98 192.364 10.1667 191.777 10.54C191.204 10.9 190.917 11.3867 190.917 12C190.917 12.6 191.13 13.06 191.557 13.38C191.984 13.6867 192.61 13.84 193.437 13.84H197.137V16H193.297C192.35 16 191.617 16.1667 191.097 16.5C190.577 16.82 190.317 17.3 190.317 17.94C190.317 18.58 190.63 19.0867 191.257 19.46C191.884 19.8333 192.83 20.02 194.097 20.02C194.977 20.02 195.83 19.9 196.657 19.66C197.497 19.42 198.197 19.0867 198.757 18.66L199.597 20.66ZM217.03 11.48C215.71 10.7333 214.336 10.28 212.91 10.12V22H210.31V10.12C208.87 10.28 207.49 10.7333 206.17 11.48L205.27 9.48C206.203 8.92 207.203 8.5 208.27 8.22C209.35 7.94 210.456 7.8 211.59 7.8C212.723 7.8 213.83 7.94 214.91 8.22C215.99 8.5 216.996 8.92 217.93 9.48L217.03 11.48ZM228.813 22L225.953 17.9C225.833 17.9133 225.653 17.92 225.413 17.92H222.253V22H219.653V8H225.413C226.627 8 227.68 8.2 228.573 8.6C229.48 9 230.173 9.57333 230.653 10.32C231.133 11.0667 231.373 11.9533 231.373 12.98C231.373 14.0333 231.113 14.94 230.593 15.7C230.087 16.46 229.353 17.0267 228.393 17.4L231.613 22H228.813ZM228.753 12.98C228.753 12.0867 228.46 11.4 227.873 10.92C227.287 10.44 226.427 10.2 225.293 10.2H222.253V15.78H225.293C226.427 15.78 227.287 15.54 227.873 15.06C228.46 14.5667 228.753 13.8733 228.753 12.98ZM238.382 10.18V19.82H240.962V22H233.222V19.82H235.802V10.18H233.222V8H240.962V10.18H238.382ZM253.12 14.84H255.58V22H253.44V21.18C252.44 21.86 251.186 22.2 249.68 22.2C248.386 22.2 247.2 21.92 246.12 21.36C245.04 20.8 244.173 19.9867 243.52 18.92C242.88 17.8533 242.56 16.58 242.56 15.1C242.56 13.7 242.886 12.4467 243.54 11.34C244.193 10.22 245.093 9.35333 246.24 8.74C247.4 8.11333 248.7 7.8 250.14 7.8C251.313 7.8 252.38 7.99333 253.34 8.38C254.3 8.76667 255.106 9.33333 255.76 10.08L254.12 11.68C253.053 10.6133 251.766 10.08 250.26 10.08C249.273 10.08 248.393 10.2933 247.62 10.72C246.86 11.1333 246.26 11.72 245.82 12.48C245.393 13.24 245.18 14.1067 245.18 15.08C245.18 16.1067 245.393 16.9933 245.82 17.74C246.26 18.4733 246.84 19.0333 247.56 19.42C248.28 19.7933 249.066 19.98 249.92 19.98C250.52 19.98 251.093 19.8867 251.64 19.7C252.2 19.5133 252.693 19.24 253.12 18.88V14.84ZM265.549 22.2C264.122 22.2 262.836 21.8933 261.689 21.28C260.542 20.6533 259.642 19.7933 258.989 18.7C258.336 17.5933 258.009 16.36 258.009 15C258.009 13.64 258.336 12.4133 258.989 11.32C259.642 10.2133 260.542 9.35333 261.689 8.74C262.836 8.11333 264.122 7.8 265.549 7.8C266.976 7.8 268.262 8.11333 269.409 8.74C270.556 9.35333 271.456 10.2067 272.109 11.3C272.762 12.3933 273.089 13.6267 273.089 15C273.089 16.3733 272.762 17.6067 272.109 18.7C271.456 19.7933 270.556 20.6533 269.409 21.28C268.262 21.8933 266.976 22.2 265.549 22.2ZM265.549 19.92C266.482 19.92 267.322 19.7133 268.069 19.3C268.816 18.8733 269.402 18.2867 269.829 17.54C270.256 16.78 270.469 15.9333 270.469 15C270.469 14.0667 270.256 13.2267 269.829 12.48C269.402 11.72 268.816 11.1333 268.069 10.72C267.322 10.2933 266.482 10.08 265.549 10.08C264.616 10.08 263.776 10.2933 263.029 10.72C262.282 11.1333 261.696 11.72 261.269 12.48C260.842 13.2267 260.629 14.0667 260.629 15C260.629 15.9333 260.842 16.78 261.269 17.54C261.696 18.2867 262.282 18.8733 263.029 19.3C263.776 19.7133 264.616 19.92 265.549 19.92Z" fill="white"/>
<path d="M82.52 34.8C84.16 34.8 85.44 35.28 86.36 36.24C87.28 37.1867 87.74 38.5533 87.74 40.34V49H85.14V40.44C85.14 39.3333 84.8467 38.5 84.26 37.94C83.6867 37.3667 82.9333 37.08 82 37.08C80.96 37.08 80.1267 37.3733 79.5 37.96C78.8867 38.5467 78.58 39.4467 78.58 40.66V49H75.98V40.44C75.98 39.32 75.7067 38.48 75.16 37.92C74.6267 37.36 73.8933 37.08 72.96 37.08C71.9067 37.08 71.06 37.38 70.42 37.98C69.7933 38.5667 69.48 39.46 69.48 40.66V49H66.88V35H69.4V36.84C69.8267 36.1867 70.4067 35.6867 71.14 35.34C71.8733 34.98 72.72 34.8 73.68 34.8C74.6667 34.8 75.5267 34.9867 76.26 35.36C76.9933 35.7333 77.5467 36.26 77.92 36.94C78.3867 36.26 79.02 35.7333 79.82 35.36C80.6333 34.9867 81.5333 34.8 82.52 34.8ZM95.4722 37.18V46.82H98.0522V49H90.3122V46.82H92.8922V37.18H90.3122V35H98.0522V37.18H95.4722ZM105.087 49.2C104.007 49.2 102.961 49.0467 101.947 48.74C100.947 48.4333 100.154 48.0267 99.5672 47.52L100.467 45.5C101.041 45.9533 101.741 46.3267 102.567 46.62C103.407 46.9 104.247 47.04 105.087 47.04C106.127 47.04 106.901 46.8733 107.407 46.54C107.927 46.2067 108.187 45.7667 108.187 45.22C108.187 44.82 108.041 44.4933 107.747 44.24C107.467 43.9733 107.107 43.7667 106.667 43.62C106.227 43.4733 105.627 43.3067 104.867 43.12C103.801 42.8667 102.934 42.6133 102.267 42.36C101.614 42.1067 101.047 41.7133 100.567 41.18C100.101 40.6333 99.8672 39.9 99.8672 38.98C99.8672 38.2067 100.074 37.5067 100.487 36.88C100.914 36.24 101.547 35.7333 102.387 35.36C103.241 34.9867 104.281 34.8 105.507 34.8C106.361 34.8 107.201 34.9067 108.027 35.12C108.854 35.3333 109.567 35.64 110.167 36.04L109.347 38.06C108.734 37.7 108.094 37.4267 107.427 37.24C106.761 37.0533 106.114 36.96 105.487 36.96C104.461 36.96 103.694 37.1333 103.187 37.48C102.694 37.8267 102.447 38.2867 102.447 38.86C102.447 39.26 102.587 39.5867 102.867 39.84C103.161 40.0933 103.527 40.2933 103.967 40.44C104.407 40.5867 105.007 40.7533 105.767 40.94C106.807 41.18 107.661 41.4333 108.327 41.7C108.994 41.9533 109.561 42.3467 110.027 42.88C110.507 43.4133 110.747 44.1333 110.747 45.04C110.747 45.8133 110.534 46.5133 110.107 47.14C109.694 47.7667 109.061 48.2667 108.207 48.64C107.354 49.0133 106.314 49.2 105.087 49.2ZM122.889 38.48C121.569 37.7333 120.196 37.28 118.769 37.12V49H116.169V37.12C114.729 37.28 113.349 37.7333 112.029 38.48L111.129 36.48C112.062 35.92 113.062 35.5 114.129 35.22C115.209 34.94 116.316 34.8 117.449 34.8C118.582 34.8 119.689 34.94 120.769 35.22C121.849 35.5 122.856 35.92 123.789 36.48L122.889 38.48ZM137.613 35V49H135.113V47.22C134.166 48.54 132.699 49.2 130.713 49.2C129.059 49.2 127.759 48.6867 126.813 47.66C125.866 46.62 125.393 45.1533 125.393 43.26V35H127.993V43.16C127.993 44.4 128.286 45.34 128.873 45.98C129.473 46.6067 130.293 46.92 131.333 46.92C132.453 46.92 133.346 46.5867 134.013 45.92C134.679 45.24 135.013 44.2333 135.013 42.9V35H137.613ZM150.532 49L147.672 44.9C147.552 44.9133 147.372 44.92 147.132 44.92H143.972V49H141.372V35H147.132C148.346 35 149.399 35.2 150.292 35.6C151.199 36 151.892 36.5733 152.372 37.32C152.852 38.0667 153.092 38.9533 153.092 39.98C153.092 41.0333 152.832 41.94 152.312 42.7C151.806 43.46 151.072 44.0267 150.112 44.4L153.332 49H150.532ZM150.472 39.98C150.472 39.0867 150.179 38.4 149.592 37.92C149.006 37.44 148.146 37.2 147.012 37.2H143.972V42.78H147.012C148.146 42.78 149.006 42.54 149.592 42.06C150.179 41.5667 150.472 40.8733 150.472 39.98ZM162.101 34.8C163.354 34.8 164.448 35.0467 165.381 35.54C166.314 36.0333 167.034 36.7667 167.541 37.74C168.061 38.7 168.321 39.8667 168.321 41.24V49H165.721V45.4H158.441V49H155.881V41.24C155.881 39.8667 156.134 38.7 156.641 37.74C157.161 36.7667 157.888 36.0333 158.821 35.54C159.754 35.0467 160.848 34.8 162.101 34.8ZM165.721 43.22V41C165.721 39.7067 165.401 38.7333 164.761 38.08C164.121 37.4133 163.228 37.08 162.081 37.08C160.934 37.08 160.041 37.4133 159.401 38.08C158.761 38.7333 158.441 39.7067 158.441 41V43.22H165.721ZM183.245 35C184.459 35 185.512 35.2 186.405 35.6C187.312 36 188.005 36.5733 188.485 37.32C188.965 38.0667 189.205 38.9533 189.205 39.98C189.205 40.9933 188.965 41.88 188.485 42.64C188.005 43.3867 187.312 43.96 186.405 44.36C185.512 44.76 184.459 44.96 183.245 44.96H180.085V49H177.485V35H183.245ZM183.125 42.76C184.259 42.76 185.119 42.52 185.705 42.04C186.292 41.56 186.585 40.8733 186.585 39.98C186.585 39.0867 186.292 38.4 185.705 37.92C185.119 37.44 184.259 37.2 183.125 37.2H180.085V42.76H183.125ZM197.648 34.8C198.901 34.8 199.995 35.0467 200.928 35.54C201.861 36.0333 202.581 36.7667 203.088 37.74C203.608 38.7 203.868 39.8667 203.868 41.24V49H201.268V45.4H193.988V49H191.428V41.24C191.428 39.8667 191.681 38.7 192.188 37.74C192.708 36.7667 193.435 36.0333 194.368 35.54C195.301 35.0467 196.395 34.8 197.648 34.8ZM201.268 43.22V41C201.268 39.7067 200.948 38.7333 200.308 38.08C199.668 37.4133 198.775 37.08 197.628 37.08C196.481 37.08 195.588 37.4133 194.948 38.08C194.308 38.7333 193.988 39.7067 193.988 41V43.22H201.268ZM216.665 49L213.805 44.9C213.685 44.9133 213.505 44.92 213.265 44.92H210.105V49H207.505V35H213.265C214.478 35 215.532 35.2 216.425 35.6C217.332 36 218.025 36.5733 218.505 37.32C218.985 38.0667 219.225 38.9533 219.225 39.98C219.225 41.0333 218.965 41.94 218.445 42.7C217.938 43.46 217.205 44.0267 216.245 44.4L219.465 49H216.665ZM216.605 39.98C216.605 39.0867 216.312 38.4 215.725 37.92C215.138 37.44 214.278 37.2 213.145 37.2H210.105V42.78H213.145C214.278 42.78 215.138 42.54 215.725 42.06C216.312 41.5667 216.605 40.8733 216.605 39.98ZM228.234 34.8C229.487 34.8 230.581 35.0467 231.514 35.54C232.447 36.0333 233.167 36.7667 233.674 37.74C234.194 38.7 234.454 39.8667 234.454 41.24V49H231.854V45.4H224.574V49H222.014V41.24C222.014 39.8667 222.267 38.7 222.774 37.74C223.294 36.7667 224.021 36.0333 224.954 35.54C225.887 35.0467 226.981 34.8 228.234 34.8ZM231.854 43.22V41C231.854 39.7067 231.534 38.7333 230.894 38.08C230.254 37.4133 229.361 37.08 228.214 37.08C227.067 37.08 226.174 37.4133 225.534 38.08C224.894 38.7333 224.574 39.7067 224.574 41V43.22H231.854ZM253.538 41.72C254.312 41.9733 254.925 42.4 255.378 43C255.832 43.5867 256.058 44.32 256.058 45.2C256.058 46.4133 255.592 47.3533 254.658 48.02C253.725 48.6733 252.365 49 250.578 49H243.618V35H250.178C251.832 35 253.105 35.3267 253.998 35.98C254.892 36.62 255.338 37.5067 255.338 38.64C255.338 39.3333 255.178 39.9467 254.858 40.48C254.538 41.0133 254.098 41.4267 253.538 41.72ZM246.218 37.04V40.9H249.898C250.805 40.9 251.498 40.74 251.978 40.42C252.472 40.0867 252.718 39.6067 252.718 38.98C252.718 38.34 252.472 37.86 251.978 37.54C251.498 37.2067 250.805 37.04 249.898 37.04H246.218ZM250.418 46.96C252.432 46.96 253.438 46.2867 253.438 44.94C253.438 43.5933 252.432 42.92 250.418 42.92H246.218V46.96H250.418ZM265.373 49.2C263.946 49.2 262.66 48.8933 261.513 48.28C260.366 47.6533 259.466 46.7933 258.813 45.7C258.16 44.5933 257.833 43.36 257.833 42C257.833 40.64 258.16 39.4133 258.813 38.32C259.466 37.2133 260.366 36.3533 261.513 35.74C262.66 35.1133 263.946 34.8 265.373 34.8C266.8 34.8 268.086 35.1133 269.233 35.74C270.38 36.3533 271.28 37.2067 271.933 38.3C272.586 39.3933 272.913 40.6267 272.913 42C272.913 43.3733 272.586 44.6067 271.933 45.7C271.28 46.7933 270.38 47.6533 269.233 48.28C268.086 48.8933 266.8 49.2 265.373 49.2ZM265.373 46.92C266.306 46.92 267.146 46.7133 267.893 46.3C268.64 45.8733 269.226 45.2867 269.653 44.54C270.08 43.78 270.293 42.9333 270.293 42C270.293 41.0667 270.08 40.2267 269.653 39.48C269.226 38.72 268.64 38.1333 267.893 37.72C267.146 37.2933 266.306 37.08 265.373 37.08C264.44 37.08 263.6 37.2933 262.853 37.72C262.106 38.1333 261.52 38.72 261.093 39.48C260.666 40.2267 260.453 41.0667 260.453 42C260.453 42.9333 260.666 43.78 261.093 44.54C261.52 45.2867 262.106 45.8733 262.853 46.3C263.6 46.7133 264.44 46.92 265.373 46.92ZM275.669 35H278.269V46.8H285.589V49H275.669V35ZM293.928 49.2C292.501 49.2 291.214 48.8933 290.068 48.28C288.921 47.6533 288.021 46.7933 287.368 45.7C286.714 44.5933 286.388 43.36 286.388 42C286.388 40.64 286.714 39.4133 287.368 38.32C288.021 37.2133 288.921 36.3533 290.068 35.74C291.214 35.1133 292.501 34.8 293.928 34.8C295.354 34.8 296.641 35.1133 297.788 35.74C298.934 36.3533 299.834 37.2067 300.488 38.3C301.141 39.3933 301.468 40.6267 301.468 42C301.468 43.3733 301.141 44.6067 300.488 45.7C299.834 46.7933 298.934 47.6533 297.788 48.28C296.641 48.8933 295.354 49.2 293.928 49.2ZM293.928 46.92C294.861 46.92 295.701 46.7133 296.448 46.3C297.194 45.8733 297.781 45.2867 298.208 44.54C298.634 43.78 298.848 42.9333 298.848 42C298.848 41.0667 298.634 40.2267 298.208 39.48C297.781 38.72 297.194 38.1333 296.448 37.72C295.701 37.2933 294.861 37.08 293.928 37.08C292.994 37.08 292.154 37.2933 291.408 37.72C290.661 38.1333 290.074 38.72 289.648 39.48C289.221 40.2267 289.008 41.0667 289.008 42C289.008 42.9333 289.221 43.78 289.648 44.54C290.074 45.2867 290.661 45.8733 291.408 46.3C292.154 46.7133 292.994 46.92 293.928 46.92Z" fill="white"/>
</svg>
