<svg width="379" height="56" viewBox="0 0 379 56" fill="none" xmlns="http://www.w3.org/2000/svg">
<path d="M41 1V45H1V1H41Z" fill="white" stroke="black" stroke-width="2"/>
<path d="M378 1V28H54V1H378Z" fill="#0033CC" stroke="black" stroke-width="2"/>
<path d="M229 28V55H54V28H229Z" fill="#0033CC" stroke="black" stroke-width="2"/>
<path d="M54 1V28H41V1H54Z" fill="#FFCC00" stroke="black" stroke-width="2"/>
<path d="M41 1V28H23V1H41Z" fill="#FF6600" stroke="black" stroke-width="2"/>
<path d="M77.8 20.66C77.1733 21.1533 76.3667 21.5333 75.38 21.8C74.3933 22.0667 73.3267 22.2 72.18 22.2C70.8333 22.2 69.6867 22.0267 68.74 21.68C67.8067 21.3333 67.1 20.8533 66.62 20.24C66.14 19.6267 65.9 18.92 65.9 18.12C65.9 17.3467 66.1133 16.6733 66.54 16.1C66.9667 15.5267 67.54 15.1067 68.26 14.84C67.7133 14.5467 67.28 14.14 66.96 13.62C66.6533 13.0867 66.5 12.4933 66.5 11.84C66.5 11.0933 66.72 10.42 67.16 9.82C67.6133 9.20667 68.2867 8.72 69.18 8.36C70.0733 7.98667 71.1733 7.8 72.48 7.8C73.36 7.8 74.22 7.89333 75.06 8.08C75.9 8.26667 76.6333 8.52 77.26 8.84L76.52 10.9C75.3467 10.2867 74.0333 9.98 72.58 9.98C71.4333 9.98 70.5667 10.1667 69.98 10.54C69.4067 10.9 69.12 11.3867 69.12 12C69.12 12.6 69.3333 13.06 69.76 13.38C70.1867 13.6867 70.8133 13.84 71.64 13.84H75.34V16H71.5C70.5533 16 69.82 16.1667 69.3 16.5C68.78 16.82 68.52 17.3 68.52 17.94C68.52 18.58 68.8333 19.0867 69.46 19.46C70.0867 19.8333 71.0333 20.02 72.3 20.02C73.18 20.02 74.0333 19.9 74.86 19.66C75.7 19.42 76.4 19.0867 76.96 18.66L77.8 20.66ZM95.6255 7.8C97.2655 7.8 98.5455 8.28 99.4655 9.24C100.385 10.1867 100.845 11.5533 100.845 13.34V22H98.2455V13.44C98.2455 12.3333 97.9521 11.5 97.3655 10.94C96.7921 10.3667 96.0388 10.08 95.1055 10.08C94.0655 10.08 93.2321 10.3733 92.6055 10.96C91.9921 11.5467 91.6855 12.4467 91.6855 13.66V22H89.0855V13.44C89.0855 12.32 88.8121 11.48 88.2655 10.92C87.7321 10.36 86.9988 10.08 86.0655 10.08C85.0121 10.08 84.1655 10.38 83.5255 10.98C82.8988 11.5667 82.5855 12.46 82.5855 13.66V22H79.9855V8H82.5055V9.84C82.9321 9.18667 83.5121 8.68667 84.2455 8.34C84.9788 7.98 85.8255 7.8 86.7855 7.8C87.7721 7.8 88.6321 7.98667 89.3655 8.36C90.0988 8.73333 90.6521 9.26 91.0255 9.94C91.4921 9.26 92.1255 8.73333 92.9255 8.36C93.7388 7.98667 94.6388 7.8 95.6255 7.8ZM110.238 8C111.451 8 112.504 8.2 113.398 8.6C114.304 9 114.998 9.57333 115.478 10.32C115.958 11.0667 116.198 11.9533 116.198 12.98C116.198 13.9933 115.958 14.88 115.478 15.64C114.998 16.3867 114.304 16.96 113.398 17.36C112.504 17.76 111.451 17.96 110.238 17.96H107.078V22H104.478V8H110.238ZM110.118 15.76C111.251 15.76 112.111 15.52 112.698 15.04C113.284 14.56 113.578 13.8733 113.578 12.98C113.578 12.0867 113.284 11.4 112.698 10.92C112.111 10.44 111.251 10.2 110.118 10.2H107.078V15.76H110.118ZM127.954 22L125.094 17.9C124.974 17.9133 124.794 17.92 124.554 17.92H121.394V22H118.794V8H124.554C125.767 8 126.821 8.2 127.714 8.6C128.621 9 129.314 9.57333 129.794 10.32C130.274 11.0667 130.514 11.9533 130.514 12.98C130.514 14.0333 130.254 14.94 129.734 15.7C129.227 16.46 128.494 17.0267 127.534 17.4L130.754 22H127.954ZM127.894 12.98C127.894 12.0867 127.601 11.4 127.014 10.92C126.427 10.44 125.567 10.2 124.434 10.2H121.394V15.78H124.434C125.567 15.78 126.427 15.54 127.014 15.06C127.601 14.5667 127.894 13.8733 127.894 12.98ZM144.343 20.66C143.716 21.1533 142.91 21.5333 141.923 21.8C140.936 22.0667 139.87 22.2 138.723 22.2C137.376 22.2 136.23 22.0267 135.283 21.68C134.35 21.3333 133.643 20.8533 133.163 20.24C132.683 19.6267 132.443 18.92 132.443 18.12C132.443 17.3467 132.656 16.6733 133.083 16.1C133.51 15.5267 134.083 15.1067 134.803 14.84C134.256 14.5467 133.823 14.14 133.503 13.62C133.196 13.0867 133.043 12.4933 133.043 11.84C133.043 11.0933 133.263 10.42 133.703 9.82C134.156 9.20667 134.83 8.72 135.723 8.36C136.616 7.98667 137.716 7.8 139.023 7.8C139.903 7.8 140.763 7.89333 141.603 8.08C142.443 8.26667 143.176 8.52 143.803 8.84L143.063 10.9C141.89 10.2867 140.576 9.98 139.123 9.98C137.976 9.98 137.11 10.1667 136.523 10.54C135.95 10.9 135.663 11.3867 135.663 12C135.663 12.6 135.876 13.06 136.303 13.38C136.73 13.6867 137.356 13.84 138.183 13.84H141.883V16H138.043C137.096 16 136.363 16.1667 135.843 16.5C135.323 16.82 135.063 17.3 135.063 17.94C135.063 18.58 135.376 19.0867 136.003 19.46C136.63 19.8333 137.576 20.02 138.843 20.02C139.723 20.02 140.576 19.9 141.403 19.66C142.243 19.42 142.943 19.0867 143.503 18.66L144.343 20.66ZM150.868 22.2C149.788 22.2 148.742 22.0467 147.728 21.74C146.728 21.4333 145.935 21.0267 145.348 20.52L146.248 18.5C146.822 18.9533 147.522 19.3267 148.348 19.62C149.188 19.9 150.028 20.04 150.868 20.04C151.908 20.04 152.682 19.8733 153.188 19.54C153.708 19.2067 153.968 18.7667 153.968 18.22C153.968 17.82 153.822 17.4933 153.528 17.24C153.248 16.9733 152.888 16.7667 152.448 16.62C152.008 16.4733 151.408 16.3067 150.648 16.12C149.582 15.8667 148.715 15.6133 148.048 15.36C147.395 15.1067 146.828 14.7133 146.348 14.18C145.882 13.6333 145.648 12.9 145.648 11.98C145.648 11.2067 145.855 10.5067 146.268 9.88C146.695 9.24 147.328 8.73333 148.168 8.36C149.022 7.98667 150.062 7.8 151.288 7.8C152.142 7.8 152.982 7.90667 153.808 8.12C154.635 8.33333 155.348 8.64 155.948 9.04L155.128 11.06C154.515 10.7 153.875 10.4267 153.208 10.24C152.542 10.0533 151.895 9.96 151.268 9.96C150.242 9.96 149.475 10.1333 148.968 10.48C148.475 10.8267 148.228 11.2867 148.228 11.86C148.228 12.26 148.368 12.5867 148.648 12.84C148.942 13.0933 149.308 13.2933 149.748 13.44C150.188 13.5867 150.788 13.7533 151.548 13.94C152.588 14.18 153.442 14.4333 154.108 14.7C154.775 14.9533 155.342 15.3467 155.808 15.88C156.288 16.4133 156.528 17.1333 156.528 18.04C156.528 18.8133 156.315 19.5133 155.888 20.14C155.475 20.7667 154.842 21.2667 153.988 21.64C153.135 22.0133 152.095 22.2 150.868 22.2ZM165.207 7.8C166.46 7.8 167.553 8.04667 168.487 8.54C169.42 9.03333 170.14 9.76667 170.647 10.74C171.167 11.7 171.427 12.8667 171.427 14.24V22H168.827V18.4H161.547V22H158.987V14.24C158.987 12.8667 159.24 11.7 159.747 10.74C160.267 9.76667 160.993 9.03333 161.927 8.54C162.86 8.04667 163.953 7.8 165.207 7.8ZM168.827 16.22V14C168.827 12.7067 168.507 11.7333 167.867 11.08C167.227 10.4133 166.333 10.08 165.187 10.08C164.04 10.08 163.147 10.4133 162.507 11.08C161.867 11.7333 161.547 12.7067 161.547 14V16.22H168.827ZM180.591 8H186.711C188.204 8 189.531 8.29333 190.691 8.88C191.851 9.45333 192.751 10.2733 193.391 11.34C194.031 12.3933 194.351 13.6133 194.351 15C194.351 16.3867 194.031 17.6133 193.391 18.68C192.751 19.7333 191.851 20.5533 190.691 21.14C189.531 21.7133 188.204 22 186.711 22H180.591V8ZM186.591 19.8C187.618 19.8 188.518 19.6067 189.291 19.22C190.078 18.82 190.678 18.26 191.091 17.54C191.518 16.8067 191.731 15.96 191.731 15C191.731 14.04 191.518 13.2 191.091 12.48C190.678 11.7467 190.078 11.1867 189.291 10.8C188.518 10.4 187.618 10.2 186.591 10.2H183.191V19.8H186.591ZM208.034 20.66C207.408 21.1533 206.601 21.5333 205.614 21.8C204.628 22.0667 203.561 22.2 202.414 22.2C201.068 22.2 199.921 22.0267 198.974 21.68C198.041 21.3333 197.334 20.8533 196.854 20.24C196.374 19.6267 196.134 18.92 196.134 18.12C196.134 17.3467 196.348 16.6733 196.774 16.1C197.201 15.5267 197.774 15.1067 198.494 14.84C197.948 14.5467 197.514 14.14 197.194 13.62C196.888 13.0867 196.734 12.4933 196.734 11.84C196.734 11.0933 196.954 10.42 197.394 9.82C197.848 9.20667 198.521 8.72 199.414 8.36C200.308 7.98667 201.408 7.8 202.714 7.8C203.594 7.8 204.454 7.89333 205.294 8.08C206.134 8.26667 206.868 8.52 207.494 8.84L206.754 10.9C205.581 10.2867 204.268 9.98 202.814 9.98C201.668 9.98 200.801 10.1667 200.214 10.54C199.641 10.9 199.354 11.3867 199.354 12C199.354 12.6 199.568 13.06 199.994 13.38C200.421 13.6867 201.048 13.84 201.874 13.84H205.574V16H201.734C200.788 16 200.054 16.1667 199.534 16.5C199.014 16.82 198.754 17.3 198.754 17.94C198.754 18.58 199.068 19.0867 199.694 19.46C200.321 19.8333 201.268 20.02 202.534 20.02C203.414 20.02 204.268 19.9 205.094 19.66C205.934 19.42 206.634 19.0867 207.194 18.66L208.034 20.66ZM215.747 8H218.347V19.8H225.667V22H215.747V8ZM234.006 22.2C232.579 22.2 231.293 21.8933 230.146 21.28C228.999 20.6533 228.099 19.7933 227.446 18.7C226.793 17.5933 226.466 16.36 226.466 15C226.466 13.64 226.793 12.4133 227.446 11.32C228.099 10.2133 228.999 9.35333 230.146 8.74C231.293 8.11333 232.579 7.8 234.006 7.8C235.433 7.8 236.719 8.11333 237.866 8.74C239.013 9.35333 239.913 10.2067 240.566 11.3C241.219 12.3933 241.546 13.6267 241.546 15C241.546 16.3733 241.219 17.6067 240.566 18.7C239.913 19.7933 239.013 20.6533 237.866 21.28C236.719 21.8933 235.433 22.2 234.006 22.2ZM234.006 19.92C234.939 19.92 235.779 19.7133 236.526 19.3C237.273 18.8733 237.859 18.2867 238.286 17.54C238.713 16.78 238.926 15.9333 238.926 15C238.926 14.0667 238.713 13.2267 238.286 12.48C237.859 11.72 237.273 11.1333 236.526 10.72C235.779 10.2933 234.939 10.08 234.006 10.08C233.073 10.08 232.233 10.2933 231.486 10.72C230.739 11.1333 230.153 11.72 229.726 12.48C229.299 13.2267 229.086 14.0667 229.086 15C229.086 15.9333 229.299 16.78 229.726 17.54C230.153 18.2867 230.739 18.8733 231.486 19.3C232.233 19.7133 233.073 19.92 234.006 19.92ZM253.827 11.48C252.507 10.7333 251.133 10.28 249.707 10.12V22H247.107V10.12C245.667 10.28 244.287 10.7333 242.967 11.48L242.067 9.48C243 8.92 244 8.5 245.067 8.22C246.147 7.94 247.253 7.8 248.387 7.8C249.52 7.8 250.627 7.94 251.707 8.22C252.787 8.5 253.793 8.92 254.727 9.48L253.827 11.48ZM267.175 20.66C266.548 21.1533 265.742 21.5333 264.755 21.8C263.768 22.0667 262.702 22.2 261.555 22.2C260.208 22.2 259.062 22.0267 258.115 21.68C257.182 21.3333 256.475 20.8533 255.995 20.24C255.515 19.6267 255.275 18.92 255.275 18.12C255.275 17.3467 255.488 16.6733 255.915 16.1C256.342 15.5267 256.915 15.1067 257.635 14.84C257.088 14.5467 256.655 14.14 256.335 13.62C256.028 13.0867 255.875 12.4933 255.875 11.84C255.875 11.0933 256.095 10.42 256.535 9.82C256.988 9.20667 257.662 8.72 258.555 8.36C259.448 7.98667 260.548 7.8 261.855 7.8C262.735 7.8 263.595 7.89333 264.435 8.08C265.275 8.26667 266.008 8.52 266.635 8.84L265.895 10.9C264.722 10.2867 263.408 9.98 261.955 9.98C260.808 9.98 259.942 10.1667 259.355 10.54C258.782 10.9 258.495 11.3867 258.495 12C258.495 12.6 258.708 13.06 259.135 13.38C259.562 13.6867 260.188 13.84 261.015 13.84H264.715V16H260.875C259.928 16 259.195 16.1667 258.675 16.5C258.155 16.82 257.895 17.3 257.895 17.94C257.895 18.58 258.208 19.0867 258.835 19.46C259.462 19.8333 260.408 20.02 261.675 20.02C262.555 20.02 263.408 19.9 264.235 19.66C265.075 19.42 265.775 19.0867 266.335 18.66L267.175 20.66ZM274.953 7.8C276.206 7.8 277.299 8.04667 278.233 8.54C279.166 9.03333 279.886 9.76667 280.393 10.74C280.913 11.7 281.173 12.8667 281.173 14.24V22H278.573V18.4H271.293V22H268.733V14.24C268.733 12.8667 268.986 11.7 269.493 10.74C270.013 9.76667 270.739 9.03333 271.673 8.54C272.606 8.04667 273.699 7.8 274.953 7.8ZM278.573 16.22V14C278.573 12.7067 278.253 11.7333 277.613 11.08C276.973 10.4133 276.079 10.08 274.933 10.08C273.786 10.08 272.893 10.4133 272.253 11.08C271.613 11.7333 271.293 12.7067 271.293 14V16.22H278.573ZM300.45 7.8C302.09 7.8 303.37 8.28 304.29 9.24C305.21 10.1867 305.67 11.5533 305.67 13.34V22H303.07V13.44C303.07 12.3333 302.776 11.5 302.19 10.94C301.616 10.3667 300.863 10.08 299.93 10.08C298.89 10.08 298.056 10.3733 297.43 10.96C296.816 11.5467 296.51 12.4467 296.51 13.66V22H293.91V13.44C293.91 12.32 293.636 11.48 293.09 10.92C292.556 10.36 291.823 10.08 290.89 10.08C289.836 10.08 288.99 10.38 288.35 10.98C287.723 11.5667 287.41 12.46 287.41 13.66V22H284.81V8H287.33V9.84C287.756 9.18667 288.336 8.68667 289.07 8.34C289.803 7.98 290.65 7.8 291.61 7.8C292.596 7.8 293.456 7.98667 294.19 8.36C294.923 8.73333 295.476 9.26 295.85 9.94C296.316 9.26 296.95 8.73333 297.75 8.36C298.563 7.98667 299.463 7.8 300.45 7.8ZM320.222 20.66C319.595 21.1533 318.789 21.5333 317.802 21.8C316.815 22.0667 315.749 22.2 314.602 22.2C313.255 22.2 312.109 22.0267 311.162 21.68C310.229 21.3333 309.522 20.8533 309.042 20.24C308.562 19.6267 308.322 18.92 308.322 18.12C308.322 17.3467 308.535 16.6733 308.962 16.1C309.389 15.5267 309.962 15.1067 310.682 14.84C310.135 14.5467 309.702 14.14 309.382 13.62C309.075 13.0867 308.922 12.4933 308.922 11.84C308.922 11.0933 309.142 10.42 309.582 9.82C310.035 9.20667 310.709 8.72 311.602 8.36C312.495 7.98667 313.595 7.8 314.902 7.8C315.782 7.8 316.642 7.89333 317.482 8.08C318.322 8.26667 319.055 8.52 319.682 8.84L318.942 10.9C317.769 10.2867 316.455 9.98 315.002 9.98C313.855 9.98 312.989 10.1667 312.402 10.54C311.829 10.9 311.542 11.3867 311.542 12C311.542 12.6 311.755 13.06 312.182 13.38C312.609 13.6867 313.235 13.84 314.062 13.84H317.762V16H313.922C312.975 16 312.242 16.1667 311.722 16.5C311.202 16.82 310.942 17.3 310.942 17.94C310.942 18.58 311.255 19.0867 311.882 19.46C312.509 19.8333 313.455 20.02 314.722 20.02C315.602 20.02 316.455 19.9 317.282 19.66C318.122 19.42 318.822 19.0867 319.382 18.66L320.222 20.66ZM329.367 7.8C331.047 7.8 332.354 8.31333 333.287 9.34C334.234 10.3667 334.707 11.8333 334.707 13.74V22H332.107V13.84C332.107 12.6 331.807 11.6667 331.207 11.04C330.621 10.4 329.801 10.08 328.747 10.08C327.601 10.08 326.687 10.42 326.007 11.1C325.341 11.7667 325.007 12.7667 325.007 14.1V22H322.407V8H324.927V9.76C325.901 8.45333 327.381 7.8 329.367 7.8ZM348.065 11.48C346.745 10.7333 345.372 10.28 343.945 10.12V22H341.345V10.12C339.905 10.28 338.525 10.7333 337.205 11.48L336.305 9.48C337.238 8.92 338.238 8.5 339.305 8.22C340.385 7.94 341.492 7.8 342.625 7.8C343.758 7.8 344.865 7.94 345.945 8.22C347.025 8.5 348.032 8.92 348.965 9.48L348.065 11.48ZM357.033 22.2C355.607 22.2 354.32 21.8933 353.173 21.28C352.027 20.6533 351.127 19.7933 350.473 18.7C349.82 17.5933 349.493 16.36 349.493 15C349.493 13.64 349.82 12.4133 350.473 11.32C351.127 10.2133 352.027 9.35333 353.173 8.74C354.32 8.11333 355.607 7.8 357.033 7.8C358.46 7.8 359.747 8.11333 360.893 8.74C362.04 9.35333 362.94 10.2067 363.593 11.3C364.247 12.3933 364.573 13.6267 364.573 15C364.573 16.3733 364.247 17.6067 363.593 18.7C362.94 19.7933 362.04 20.6533 360.893 21.28C359.747 21.8933 358.46 22.2 357.033 22.2ZM357.033 19.92C357.967 19.92 358.807 19.7133 359.553 19.3C360.3 18.8733 360.887 18.2867 361.313 17.54C361.74 16.78 361.953 15.9333 361.953 15C361.953 14.0667 361.74 13.2267 361.313 12.48C360.887 11.72 360.3 11.1333 359.553 10.72C358.807 10.2933 357.967 10.08 357.033 10.08C356.1 10.08 355.26 10.2933 354.513 10.72C353.767 11.1333 353.18 11.72 352.753 12.48C352.327 13.2267 352.113 14.0667 352.113 15C352.113 15.9333 352.327 16.78 352.753 17.54C353.18 18.2867 353.767 18.8733 354.513 19.3C355.26 19.7133 356.1 19.92 357.033 19.92Z" fill="white"/>
<path d="M70.98 37.18V46.82H73.56V49H65.82V46.82H68.4V37.18H65.82V35H73.56V37.18H70.98ZM91.895 34.8C93.535 34.8 94.815 35.28 95.735 36.24C96.655 37.1867 97.115 38.5533 97.115 40.34V49H94.515V40.44C94.515 39.3333 94.2217 38.5 93.635 37.94C93.0617 37.3667 92.3083 37.08 91.375 37.08C90.335 37.08 89.5017 37.3733 88.875 37.96C88.2617 38.5467 87.955 39.4467 87.955 40.66V49H85.355V40.44C85.355 39.32 85.0817 38.48 84.535 37.92C84.0017 37.36 83.2683 37.08 82.335 37.08C81.2817 37.08 80.435 37.38 79.795 37.98C79.1683 38.5667 78.855 39.46 78.855 40.66V49H76.255V35H78.775V36.84C79.2017 36.1867 79.7817 35.6867 80.515 35.34C81.2483 34.98 82.095 34.8 83.055 34.8C84.0417 34.8 84.9017 34.9867 85.635 35.36C86.3683 35.7333 86.9217 36.26 87.295 36.94C87.7617 36.26 88.395 35.7333 89.195 35.36C90.0083 34.9867 90.9083 34.8 91.895 34.8ZM107.287 49.2C105.861 49.2 104.574 48.8933 103.427 48.28C102.281 47.6533 101.381 46.7933 100.727 45.7C100.074 44.5933 99.7472 43.36 99.7472 42C99.7472 40.64 100.074 39.4133 100.727 38.32C101.381 37.2133 102.281 36.3533 103.427 35.74C104.574 35.1133 105.861 34.8 107.287 34.8C108.714 34.8 110.001 35.1133 111.147 35.74C112.294 36.3533 113.194 37.2067 113.847 38.3C114.501 39.3933 114.827 40.6267 114.827 42C114.827 43.3733 114.501 44.6067 113.847 45.7C113.194 46.7933 112.294 47.6533 111.147 48.28C110.001 48.8933 108.714 49.2 107.287 49.2ZM107.287 46.92C108.221 46.92 109.061 46.7133 109.807 46.3C110.554 45.8733 111.141 45.2867 111.567 44.54C111.994 43.78 112.207 42.9333 112.207 42C112.207 41.0667 111.994 40.2267 111.567 39.48C111.141 38.72 110.554 38.1333 109.807 37.72C109.061 37.2933 108.221 37.08 107.287 37.08C106.354 37.08 105.514 37.2933 104.767 37.72C104.021 38.1333 103.434 38.72 103.007 39.48C102.581 40.2267 102.367 41.0667 102.367 42C102.367 42.9333 102.581 43.78 103.007 44.54C103.434 45.2867 104.021 45.8733 104.767 46.3C105.514 46.7133 106.354 46.92 107.287 46.92ZM127.503 41.72C128.276 41.9733 128.89 42.4 129.343 43C129.796 43.5867 130.023 44.32 130.023 45.2C130.023 46.4133 129.556 47.3533 128.623 48.02C127.69 48.6733 126.33 49 124.543 49H117.583V35H124.143C125.796 35 127.07 35.3267 127.963 35.98C128.856 36.62 129.303 37.5067 129.303 38.64C129.303 39.3333 129.143 39.9467 128.823 40.48C128.503 41.0133 128.063 41.4267 127.503 41.72ZM120.183 37.04V40.9H123.863C124.77 40.9 125.463 40.74 125.943 40.42C126.436 40.0867 126.683 39.6067 126.683 38.98C126.683 38.34 126.436 37.86 125.943 37.54C125.463 37.2067 124.77 37.04 123.863 37.04H120.183ZM124.383 46.96C126.396 46.96 127.403 46.2867 127.403 44.94C127.403 43.5933 126.396 42.92 124.383 42.92H120.183V46.96H124.383ZM136.898 37.18V46.82H139.478V49H131.738V46.82H134.318V37.18H131.738V35H139.478V37.18H136.898ZM142.173 35H144.773V46.8H152.093V49H142.173V35ZM158.246 37.18V46.82H160.826V49H153.086V46.82H155.666V37.18H153.086V35H160.826V37.18H158.246ZM169.621 34.8C170.874 34.8 171.967 35.0467 172.901 35.54C173.834 36.0333 174.554 36.7667 175.061 37.74C175.581 38.7 175.841 39.8667 175.841 41.24V49H173.241V45.4H165.961V49H163.401V41.24C163.401 39.8667 163.654 38.7 164.161 37.74C164.681 36.7667 165.407 36.0333 166.341 35.54C167.274 35.0467 168.367 34.8 169.621 34.8ZM173.241 43.22V41C173.241 39.7067 172.921 38.7333 172.281 38.08C171.641 37.4133 170.747 37.08 169.601 37.08C168.454 37.08 167.561 37.4133 166.921 38.08C166.281 38.7333 165.961 39.7067 165.961 41V43.22H173.241ZM170.641 31.12H173.581L170.101 33.86H167.941L170.641 31.12ZM188.638 49L185.778 44.9C185.658 44.9133 185.478 44.92 185.238 44.92H182.078V49H179.478V35H185.238C186.451 35 187.504 35.2 188.398 35.6C189.304 36 189.998 36.5733 190.478 37.32C190.958 38.0667 191.198 38.9533 191.198 39.98C191.198 41.0333 190.938 41.94 190.418 42.7C189.911 43.46 189.178 44.0267 188.218 44.4L191.438 49H188.638ZM188.578 39.98C188.578 39.0867 188.284 38.4 187.698 37.92C187.111 37.44 186.251 37.2 185.118 37.2H182.078V42.78H185.118C186.251 42.78 187.111 42.54 187.698 42.06C188.284 41.5667 188.578 40.8733 188.578 39.98ZM198.207 37.18V46.82H200.787V49H193.047V46.82H195.627V37.18H193.047V35H200.787V37.18H198.207ZM209.582 34.8C210.835 34.8 211.928 35.0467 212.862 35.54C213.795 36.0333 214.515 36.7667 215.022 37.74C215.542 38.7 215.802 39.8667 215.802 41.24V49H213.202V45.4H205.922V49H203.362V41.24C203.362 39.8667 203.615 38.7 204.122 37.74C204.642 36.7667 205.368 36.0333 206.302 35.54C207.235 35.0467 208.328 34.8 209.582 34.8ZM213.202 43.22V41C213.202 39.7067 212.882 38.7333 212.242 38.08C211.602 37.4133 210.708 37.08 209.562 37.08C208.415 37.08 207.522 37.4133 206.882 38.08C206.242 38.7333 205.922 39.7067 205.922 41V43.22H213.202Z" fill="white"/>
</svg>
