<svg width="267" height="46" viewBox="0 0 267 46" fill="none" xmlns="http://www.w3.org/2000/svg">
<path d="M41 1V45H1V1H41Z" fill="white" stroke="black" stroke-width="2"/>
<path d="M266 1V28H54V1H266Z" fill="#0033CC" stroke="black" stroke-width="2"/>
<path d="M54 1V28H41V1H54Z" fill="#FFCC00" stroke="black" stroke-width="2"/>
<path d="M41 1V28H23V1H41Z" fill="#FF6600" stroke="black" stroke-width="2"/>
<path d="M72.64 8C73.8533 8 74.9067 8.2 75.8 8.6C76.7067 9 77.4 9.57333 77.88 10.32C78.36 11.0667 78.6 11.9533 78.6 12.98C78.6 13.9933 78.36 14.88 77.88 15.64C77.4 16.3867 76.7067 16.96 75.8 17.36C74.9067 17.76 73.8533 17.96 72.64 17.96H69.48V22H66.88V8H72.64ZM72.52 15.76C73.6533 15.76 74.5133 15.52 75.1 15.04C75.6867 14.56 75.98 13.8733 75.98 12.98C75.98 12.0867 75.6867 11.4 75.1 10.92C74.5133 10.44 73.6533 10.2 72.52 10.2H69.48V15.76H72.52ZM81.1964 8H83.7964V19.8H91.1164V22H81.1964V8ZM99.2691 7.8C100.522 7.8 101.616 8.04667 102.549 8.54C103.482 9.03333 104.202 9.76667 104.709 10.74C105.229 11.7 105.489 12.8667 105.489 14.24V22H102.889V18.4H95.6091V22H93.0491V14.24C93.0491 12.8667 93.3024 11.7 93.8091 10.74C94.3291 9.76667 95.0557 9.03333 95.9891 8.54C96.9224 8.04667 98.0157 7.8 99.2691 7.8ZM102.889 16.22V14C102.889 12.7067 102.569 11.7333 101.929 11.08C101.289 10.4133 100.396 10.08 99.2491 10.08C98.1024 10.08 97.2091 10.4133 96.5691 11.08C95.9291 11.7333 95.6091 12.7067 95.6091 14V16.22H102.889ZM116.086 7.8C117.766 7.8 119.073 8.31333 120.006 9.34C120.953 10.3667 121.426 11.8333 121.426 13.74V22H118.826V13.84C118.826 12.6 118.526 11.6667 117.926 11.04C117.339 10.4 116.519 10.08 115.466 10.08C114.319 10.08 113.406 10.42 112.726 11.1C112.059 11.7667 111.726 12.7667 111.726 14.1V22H109.126V8H111.646V9.76C112.619 8.45333 114.099 7.8 116.086 7.8ZM131.604 22.2C130.177 22.2 128.89 21.8933 127.744 21.28C126.597 20.6533 125.697 19.7933 125.044 18.7C124.39 17.5933 124.064 16.36 124.064 15C124.064 13.64 124.39 12.4133 125.044 11.32C125.697 10.2133 126.597 9.35333 127.744 8.74C128.89 8.11333 130.177 7.8 131.604 7.8C133.03 7.8 134.317 8.11333 135.464 8.74C136.61 9.35333 137.51 10.2067 138.164 11.3C138.817 12.3933 139.144 13.6267 139.144 15C139.144 16.3733 138.817 17.6067 138.164 18.7C137.51 19.7933 136.61 20.6533 135.464 21.28C134.317 21.8933 133.03 22.2 131.604 22.2ZM131.604 19.92C132.537 19.92 133.377 19.7133 134.124 19.3C134.87 18.8733 135.457 18.2867 135.884 17.54C136.31 16.78 136.524 15.9333 136.524 15C136.524 14.0667 136.31 13.2267 135.884 12.48C135.457 11.72 134.87 11.1333 134.124 10.72C133.377 10.2933 132.537 10.08 131.604 10.08C130.67 10.08 129.83 10.2933 129.084 10.72C128.337 11.1333 127.75 11.72 127.324 12.48C126.897 13.2267 126.684 14.0667 126.684 15C126.684 15.9333 126.897 16.78 127.324 17.54C127.75 18.2867 128.337 18.8733 129.084 19.3C129.83 19.7133 130.67 19.92 131.604 19.92ZM147.427 8H153.547C155.04 8 156.367 8.29333 157.527 8.88C158.687 9.45333 159.587 10.2733 160.227 11.34C160.867 12.3933 161.187 13.6133 161.187 15C161.187 16.3867 160.867 17.6133 160.227 18.68C159.587 19.7333 158.687 20.5533 157.527 21.14C156.367 21.7133 155.04 22 153.547 22H147.427V8ZM153.427 19.8C154.454 19.8 155.354 19.6067 156.127 19.22C156.914 18.82 157.514 18.26 157.927 17.54C158.354 16.8067 158.567 15.96 158.567 15C158.567 14.04 158.354 13.2 157.927 12.48C157.514 11.7467 156.914 11.1867 156.127 10.8C155.354 10.4 154.454 10.2 153.427 10.2H150.027V19.8H153.427ZM174.87 20.66C174.244 21.1533 173.437 21.5333 172.45 21.8C171.464 22.0667 170.397 22.2 169.25 22.2C167.904 22.2 166.757 22.0267 165.81 21.68C164.877 21.3333 164.17 20.8533 163.69 20.24C163.21 19.6267 162.97 18.92 162.97 18.12C162.97 17.3467 163.184 16.6733 163.61 16.1C164.037 15.5267 164.61 15.1067 165.33 14.84C164.784 14.5467 164.35 14.14 164.03 13.62C163.724 13.0867 163.57 12.4933 163.57 11.84C163.57 11.0933 163.79 10.42 164.23 9.82C164.684 9.20667 165.357 8.72 166.25 8.36C167.144 7.98667 168.244 7.8 169.55 7.8C170.43 7.8 171.29 7.89333 172.13 8.08C172.97 8.26667 173.704 8.52 174.33 8.84L173.59 10.9C172.417 10.2867 171.104 9.98 169.65 9.98C168.504 9.98 167.637 10.1667 167.05 10.54C166.477 10.9 166.19 11.3867 166.19 12C166.19 12.6 166.404 13.06 166.83 13.38C167.257 13.6867 167.884 13.84 168.71 13.84H172.41V16H168.57C167.624 16 166.89 16.1667 166.37 16.5C165.85 16.82 165.59 17.3 165.59 17.94C165.59 18.58 165.904 19.0867 166.53 19.46C167.157 19.8333 168.104 20.02 169.37 20.02C170.25 20.02 171.104 19.9 171.93 19.66C172.77 19.42 173.47 19.0867 174.03 18.66L174.87 20.66ZM186.923 22.2C185.843 22.2 184.796 22.0467 183.783 21.74C182.783 21.4333 181.99 21.0267 181.403 20.52L182.303 18.5C182.876 18.9533 183.576 19.3267 184.403 19.62C185.243 19.9 186.083 20.04 186.923 20.04C187.963 20.04 188.736 19.8733 189.243 19.54C189.763 19.2067 190.023 18.7667 190.023 18.22C190.023 17.82 189.876 17.4933 189.583 17.24C189.303 16.9733 188.943 16.7667 188.503 16.62C188.063 16.4733 187.463 16.3067 186.703 16.12C185.636 15.8667 184.77 15.6133 184.103 15.36C183.45 15.1067 182.883 14.7133 182.403 14.18C181.936 13.6333 181.703 12.9 181.703 11.98C181.703 11.2067 181.91 10.5067 182.323 9.88C182.75 9.24 183.383 8.73333 184.223 8.36C185.076 7.98667 186.116 7.8 187.343 7.8C188.196 7.8 189.036 7.90667 189.863 8.12C190.69 8.33333 191.403 8.64 192.003 9.04L191.183 11.06C190.57 10.7 189.93 10.4267 189.263 10.24C188.596 10.0533 187.95 9.96 187.323 9.96C186.296 9.96 185.53 10.1333 185.023 10.48C184.53 10.8267 184.283 11.2867 184.283 11.86C184.283 12.26 184.423 12.5867 184.703 12.84C184.996 13.0933 185.363 13.2933 185.803 13.44C186.243 13.5867 186.843 13.7533 187.603 13.94C188.643 14.18 189.496 14.4333 190.163 14.7C190.83 14.9533 191.396 15.3467 191.863 15.88C192.343 16.4133 192.583 17.1333 192.583 18.04C192.583 18.8133 192.37 19.5133 191.943 20.14C191.53 20.7667 190.896 21.2667 190.043 21.64C189.19 22.0133 188.15 22.2 186.923 22.2ZM201.261 7.8C202.515 7.8 203.608 8.04667 204.541 8.54C205.475 9.03333 206.195 9.76667 206.701 10.74C207.221 11.7 207.481 12.8667 207.481 14.24V22H204.881V18.4H197.601V22H195.041V14.24C195.041 12.8667 195.295 11.7 195.801 10.74C196.321 9.76667 197.048 9.03333 197.981 8.54C198.915 8.04667 200.008 7.8 201.261 7.8ZM204.881 16.22V14C204.881 12.7067 204.561 11.7333 203.921 11.08C203.281 10.4133 202.388 10.08 201.241 10.08C200.095 10.08 199.201 10.4133 198.561 11.08C197.921 11.7333 197.601 12.7067 197.601 14V16.22H204.881ZM223.218 8V22H220.718V20.22C219.772 21.54 218.305 22.2 216.318 22.2C214.665 22.2 213.365 21.6867 212.418 20.66C211.472 19.62 210.998 18.1533 210.998 16.26V8H213.598V16.16C213.598 17.4 213.892 18.34 214.478 18.98C215.078 19.6067 215.898 19.92 216.938 19.92C218.058 19.92 218.952 19.5867 219.618 18.92C220.285 18.24 220.618 17.2333 220.618 15.9V8H223.218ZM218.098 4.12H221.038L217.558 6.86H215.398L218.098 4.12ZM226.978 8H233.098C234.591 8 235.918 8.29333 237.078 8.88C238.238 9.45333 239.138 10.2733 239.778 11.34C240.418 12.3933 240.738 13.6133 240.738 15C240.738 16.3867 240.418 17.6133 239.778 18.68C239.138 19.7333 238.238 20.5533 237.078 21.14C235.918 21.7133 234.591 22 233.098 22H226.978V8ZM232.978 19.8C234.004 19.8 234.904 19.6067 235.678 19.22C236.464 18.82 237.064 18.26 237.478 17.54C237.904 16.8067 238.118 15.96 238.118 15C238.118 14.04 237.904 13.2 237.478 12.48C237.064 11.7467 236.464 11.1867 235.678 10.8C234.904 10.4 234.004 10.2 232.978 10.2H229.578V19.8H232.978ZM254.421 20.66C253.794 21.1533 252.988 21.5333 252.001 21.8C251.014 22.0667 249.948 22.2 248.801 22.2C247.454 22.2 246.308 22.0267 245.361 21.68C244.428 21.3333 243.721 20.8533 243.241 20.24C242.761 19.6267 242.521 18.92 242.521 18.12C242.521 17.3467 242.734 16.6733 243.161 16.1C243.588 15.5267 244.161 15.1067 244.881 14.84C244.334 14.5467 243.901 14.14 243.581 13.62C243.274 13.0867 243.121 12.4933 243.121 11.84C243.121 11.0933 243.341 10.42 243.781 9.82C244.234 9.20667 244.908 8.72 245.801 8.36C246.694 7.98667 247.794 7.8 249.101 7.8C249.981 7.8 250.841 7.89333 251.681 8.08C252.521 8.26667 253.254 8.52 253.881 8.84L253.141 10.9C251.968 10.2867 250.654 9.98 249.201 9.98C248.054 9.98 247.188 10.1667 246.601 10.54C246.028 10.9 245.741 11.3867 245.741 12C245.741 12.6 245.954 13.06 246.381 13.38C246.808 13.6867 247.434 13.84 248.261 13.84H251.961V16H248.121C247.174 16 246.441 16.1667 245.921 16.5C245.401 16.82 245.141 17.3 245.141 17.94C245.141 18.58 245.454 19.0867 246.081 19.46C246.708 19.8333 247.654 20.02 248.921 20.02C249.801 20.02 250.654 19.9 251.481 19.66C252.321 19.42 253.021 19.0867 253.581 18.66L254.421 20.66Z" fill="white"/>
</svg>
