<svg width="563" height="83" viewBox="0 0 563 83" fill="none" xmlns="http://www.w3.org/2000/svg">
<path d="M41 1V45H1V1H41Z" fill="white" stroke="black" stroke-width="2"/>
<path d="M467 1V28H54V1H467Z" fill="#0033CC" stroke="black" stroke-width="2"/>
<path d="M562 28V55H54V28H562Z" fill="#0033CC" stroke="black" stroke-width="2"/>
<path d="M432 55V82H54V55H432Z" fill="#0033CC" stroke="black" stroke-width="2"/>
<path d="M54 1V28H41V1H54Z" fill="#FFCC00" stroke="black" stroke-width="2"/>
<path d="M41 1V28H23V1H41Z" fill="#FF6600" stroke="black" stroke-width="2"/>
<path d="M70.98 10.18V19.82H73.56V22H65.82V19.82H68.4V10.18H65.82V8H73.56V10.18H70.98ZM82.415 7.8C84.095 7.8 85.4017 8.31333 86.335 9.34C87.2817 10.3667 87.755 11.8333 87.755 13.74V22H85.155V13.84C85.155 12.6 84.855 11.6667 84.255 11.04C83.6683 10.4 82.8483 10.08 81.795 10.08C80.6483 10.08 79.735 10.42 79.055 11.1C78.3883 11.7667 78.055 12.7667 78.055 14.1V22H75.455V8H77.975V9.76C78.9483 8.45333 80.4283 7.8 82.415 7.8ZM94.9325 22.2C93.8525 22.2 92.8058 22.0467 91.7925 21.74C90.7925 21.4333 89.9992 21.0267 89.4125 20.52L90.3125 18.5C90.8858 18.9533 91.5858 19.3267 92.4125 19.62C93.2525 19.9 94.0925 20.04 94.9325 20.04C95.9725 20.04 96.7458 19.8733 97.2525 19.54C97.7725 19.2067 98.0325 18.7667 98.0325 18.22C98.0325 17.82 97.8858 17.4933 97.5925 17.24C97.3125 16.9733 96.9525 16.7667 96.5125 16.62C96.0725 16.4733 95.4725 16.3067 94.7125 16.12C93.6458 15.8667 92.7792 15.6133 92.1125 15.36C91.4592 15.1067 90.8925 14.7133 90.4125 14.18C89.9458 13.6333 89.7125 12.9 89.7125 11.98C89.7125 11.2067 89.9192 10.5067 90.3325 9.88C90.7592 9.24 91.3925 8.73333 92.2325 8.36C93.0858 7.98667 94.1258 7.8 95.3525 7.8C96.2058 7.8 97.0458 7.90667 97.8725 8.12C98.6992 8.33333 99.4125 8.64 100.012 9.04L99.1925 11.06C98.5792 10.7 97.9392 10.4267 97.2725 10.24C96.6058 10.0533 95.9592 9.96 95.3325 9.96C94.3058 9.96 93.5392 10.1333 93.0325 10.48C92.5392 10.8267 92.2925 11.2867 92.2925 11.86C92.2925 12.26 92.4325 12.5867 92.7125 12.84C93.0058 13.0933 93.3725 13.2933 93.8125 13.44C94.2525 13.5867 94.8525 13.7533 95.6125 13.94C96.6525 14.18 97.5058 14.4333 98.1725 14.7C98.8392 14.9533 99.4058 15.3467 99.8725 15.88C100.353 16.4133 100.593 17.1333 100.593 18.04C100.593 18.8133 100.379 19.5133 99.9525 20.14C99.5392 20.7667 98.9058 21.2667 98.0525 21.64C97.1992 22.0133 96.1592 22.2 94.9325 22.2ZM111.934 11.48C110.614 10.7333 109.241 10.28 107.814 10.12V22H105.214V10.12C103.774 10.28 102.394 10.7333 101.074 11.48L100.174 9.48C101.108 8.92 102.108 8.5 103.174 8.22C104.254 7.94 105.361 7.8 106.494 7.8C107.628 7.8 108.734 7.94 109.814 8.22C110.894 8.5 111.901 8.92 112.834 9.48L111.934 11.48ZM117.858 10.18V19.82H120.438V22H112.698V19.82H115.278V10.18H112.698V8H120.438V10.18H117.858ZM132.053 11.48C130.733 10.7333 129.36 10.28 127.933 10.12V22H125.333V10.12C123.893 10.28 122.513 10.7333 121.193 11.48L120.293 9.48C121.226 8.92 122.226 8.5 123.293 8.22C124.373 7.94 125.48 7.8 126.613 7.8C127.746 7.8 128.853 7.94 129.933 8.22C131.013 8.5 132.02 8.92 132.953 9.48L132.053 11.48ZM145.977 8V22H143.477V20.22C142.53 21.54 141.064 22.2 139.077 22.2C137.424 22.2 136.124 21.6867 135.177 20.66C134.23 19.62 133.757 18.1533 133.757 16.26V8H136.357V16.16C136.357 17.4 136.65 18.34 137.237 18.98C137.837 19.6067 138.657 19.92 139.697 19.92C140.817 19.92 141.71 19.5867 142.377 18.92C143.044 18.24 143.377 17.2333 143.377 15.9V8H145.977ZM153.036 10.18V19.82H155.616V22H147.876V19.82H150.456V10.18H147.876V8H155.616V10.18H153.036ZM163.894 22.2C162.48 22.2 161.2 21.8933 160.054 21.28C158.92 20.6533 158.027 19.7933 157.374 18.7C156.734 17.6067 156.414 16.3733 156.414 15C156.414 13.6267 156.74 12.3933 157.394 11.3C158.047 10.2067 158.94 9.35333 160.074 8.74C161.22 8.11333 162.5 7.8 163.914 7.8C165.06 7.8 166.107 8 167.054 8.4C168 8.8 168.8 9.38 169.454 10.14L167.774 11.72C166.76 10.6267 165.514 10.08 164.034 10.08C163.074 10.08 162.214 10.2933 161.454 10.72C160.694 11.1333 160.1 11.7133 159.674 12.46C159.247 13.2067 159.034 14.0533 159.034 15C159.034 15.9467 159.247 16.7933 159.674 17.54C160.1 18.2867 160.694 18.8733 161.454 19.3C162.214 19.7133 163.074 19.92 164.034 19.92C165.514 19.92 166.76 19.3667 167.774 18.26L169.454 19.86C168.8 20.62 167.994 21.2 167.034 21.6C166.087 22 165.04 22.2 163.894 22.2ZM162.954 26.56C162.234 26.56 161.62 26.42 161.114 26.14L161.574 24.96C161.987 25.1733 162.44 25.28 162.934 25.28C163.64 25.28 163.994 25.04 163.994 24.56C163.994 24.36 163.907 24.2 163.734 24.08C163.56 23.96 163.294 23.9 162.934 23.9H162.314L162.854 21.86H164.214L163.934 22.98C164.507 23.0467 164.94 23.2267 165.234 23.52C165.527 23.8267 165.674 24.2067 165.674 24.66C165.674 25.2333 165.427 25.6933 164.934 26.04C164.44 26.3867 163.78 26.56 162.954 26.56ZM177.245 7.8C178.498 7.8 179.592 8.04667 180.525 8.54C181.458 9.03333 182.178 9.76667 182.685 10.74C183.205 11.7 183.465 12.8667 183.465 14.24V22H180.865V18.4H173.585V22H171.025V14.24C171.025 12.8667 171.278 11.7 171.785 10.74C172.305 9.76667 173.032 9.03333 173.965 8.54C174.898 8.04667 175.992 7.8 177.245 7.8ZM180.865 16.22V14C180.865 12.7067 180.545 11.7333 179.905 11.08C179.265 10.4133 178.372 10.08 177.225 10.08C176.078 10.08 175.185 10.4133 174.545 11.08C173.905 11.7333 173.585 12.7067 173.585 14V16.22H180.865ZM178.685 6.86C178.352 6.86 178.058 6.79333 177.805 6.66C177.565 6.52667 177.265 6.32667 176.905 6.06C176.692 5.88667 176.512 5.76 176.365 5.68C176.232 5.58667 176.098 5.54 175.965 5.54C175.685 5.54 175.452 5.64667 175.265 5.86C175.092 6.07333 174.998 6.36667 174.985 6.74H173.645C173.658 5.92667 173.858 5.28 174.245 4.8C174.645 4.30667 175.165 4.06 175.805 4.06C176.138 4.06 176.425 4.12667 176.665 4.26C176.918 4.39333 177.225 4.59333 177.585 4.86C177.798 5.03333 177.972 5.16667 178.105 5.26C178.252 5.34 178.392 5.38 178.525 5.38C178.805 5.38 179.032 5.28 179.205 5.08C179.392 4.88 179.492 4.6 179.505 4.24H180.845C180.818 5.02667 180.612 5.66 180.225 6.14C179.838 6.62 179.325 6.86 178.685 6.86ZM192.842 22.2C191.415 22.2 190.129 21.8933 188.982 21.28C187.835 20.6533 186.935 19.7933 186.282 18.7C185.629 17.5933 185.302 16.36 185.302 15C185.302 13.64 185.629 12.4133 186.282 11.32C186.935 10.2133 187.835 9.35333 188.982 8.74C190.129 8.11333 191.415 7.8 192.842 7.8C194.269 7.8 195.555 8.11333 196.702 8.74C197.849 9.35333 198.749 10.2067 199.402 11.3C200.055 12.3933 200.382 13.6267 200.382 15C200.382 16.3733 200.055 17.6067 199.402 18.7C198.749 19.7933 197.849 20.6533 196.702 21.28C195.555 21.8933 194.269 22.2 192.842 22.2ZM192.842 19.92C193.775 19.92 194.615 19.7133 195.362 19.3C196.109 18.8733 196.695 18.2867 197.122 17.54C197.549 16.78 197.762 15.9333 197.762 15C197.762 14.0667 197.549 13.2267 197.122 12.48C196.695 11.72 196.109 11.1333 195.362 10.72C194.615 10.2933 193.775 10.08 192.842 10.08C191.909 10.08 191.069 10.2933 190.322 10.72C189.575 11.1333 188.989 11.72 188.562 12.48C188.135 13.2267 187.922 14.0667 187.922 15C187.922 15.9333 188.135 16.78 188.562 17.54C188.989 18.2867 189.575 18.8733 190.322 19.3C191.069 19.7133 191.909 19.92 192.842 19.92ZM207.065 8H213.185C214.678 8 216.005 8.29333 217.165 8.88C218.325 9.45333 219.225 10.2733 219.865 11.34C220.505 12.3933 220.825 13.6133 220.825 15C220.825 16.3867 220.505 17.6133 219.865 18.68C219.225 19.7333 218.325 20.5533 217.165 21.14C216.005 21.7133 214.678 22 213.185 22H207.065V8ZM213.065 19.8C214.092 19.8 214.992 19.6067 215.765 19.22C216.552 18.82 217.152 18.26 217.565 17.54C217.992 16.8067 218.205 15.96 218.205 15C218.205 14.04 217.992 13.2 217.565 12.48C217.152 11.7467 216.552 11.1867 215.765 10.8C214.992 10.4 214.092 10.2 213.065 10.2H209.665V19.8H213.065ZM233.709 20.66C233.082 21.1533 232.275 21.5333 231.289 21.8C230.302 22.0667 229.235 22.2 228.089 22.2C226.742 22.2 225.595 22.0267 224.649 21.68C223.715 21.3333 223.009 20.8533 222.529 20.24C222.049 19.6267 221.809 18.92 221.809 18.12C221.809 17.3467 222.022 16.6733 222.449 16.1C222.875 15.5267 223.449 15.1067 224.169 14.84C223.622 14.5467 223.189 14.14 222.869 13.62C222.562 13.0867 222.409 12.4933 222.409 11.84C222.409 11.0933 222.629 10.42 223.069 9.82C223.522 9.20667 224.195 8.72 225.089 8.36C225.982 7.98667 227.082 7.8 228.389 7.8C229.269 7.8 230.129 7.89333 230.969 8.08C231.809 8.26667 232.542 8.52 233.169 8.84L232.429 10.9C231.255 10.2867 229.942 9.98 228.489 9.98C227.342 9.98 226.475 10.1667 225.889 10.54C225.315 10.9 225.029 11.3867 225.029 12C225.029 12.6 225.242 13.06 225.669 13.38C226.095 13.6867 226.722 13.84 227.549 13.84H231.249V16H227.409C226.462 16 225.729 16.1667 225.209 16.5C224.689 16.82 224.429 17.3 224.429 17.94C224.429 18.58 224.742 19.0867 225.369 19.46C225.995 19.8333 226.942 20.02 228.209 20.02C229.089 20.02 229.942 19.9 230.769 19.66C231.609 19.42 232.309 19.0867 232.869 18.66L233.709 20.66ZM250.741 20.66C250.115 21.1533 249.308 21.5333 248.321 21.8C247.335 22.0667 246.268 22.2 245.121 22.2C243.775 22.2 242.628 22.0267 241.681 21.68C240.748 21.3333 240.041 20.8533 239.561 20.24C239.081 19.6267 238.841 18.92 238.841 18.12C238.841 17.3467 239.055 16.6733 239.481 16.1C239.908 15.5267 240.481 15.1067 241.201 14.84C240.655 14.5467 240.221 14.14 239.901 13.62C239.595 13.0867 239.441 12.4933 239.441 11.84C239.441 11.0933 239.661 10.42 240.101 9.82C240.555 9.20667 241.228 8.72 242.121 8.36C243.015 7.98667 244.115 7.8 245.421 7.8C246.301 7.8 247.161 7.89333 248.001 8.08C248.841 8.26667 249.575 8.52 250.201 8.84L249.461 10.9C248.288 10.2867 246.975 9.98 245.521 9.98C244.375 9.98 243.508 10.1667 242.921 10.54C242.348 10.9 242.061 11.3867 242.061 12C242.061 12.6 242.275 13.06 242.701 13.38C243.128 13.6867 243.755 13.84 244.581 13.84H248.281V16H244.441C243.495 16 242.761 16.1667 242.241 16.5C241.721 16.82 241.461 17.3 241.461 17.94C241.461 18.58 241.775 19.0867 242.401 19.46C243.028 19.8333 243.975 20.02 245.241 20.02C246.121 20.02 246.975 19.9 247.801 19.66C248.641 19.42 249.341 19.0867 249.901 18.66L250.741 20.66ZM259.087 7.8C260.767 7.8 262.074 8.31333 263.007 9.34C263.954 10.3667 264.427 11.8333 264.427 13.74V22H261.827V13.84C261.827 12.6 261.527 11.6667 260.927 11.04C260.34 10.4 259.52 10.08 258.467 10.08C257.32 10.08 256.407 10.42 255.727 11.1C255.06 11.7667 254.727 12.7667 254.727 14.1V22H252.127V8H254.647V9.76C255.62 8.45333 257.1 7.8 259.087 7.8ZM271.604 22.2C270.524 22.2 269.478 22.0467 268.464 21.74C267.464 21.4333 266.671 21.0267 266.084 20.52L266.984 18.5C267.558 18.9533 268.258 19.3267 269.084 19.62C269.924 19.9 270.764 20.04 271.604 20.04C272.644 20.04 273.418 19.8733 273.924 19.54C274.444 19.2067 274.704 18.7667 274.704 18.22C274.704 17.82 274.558 17.4933 274.264 17.24C273.984 16.9733 273.624 16.7667 273.184 16.62C272.744 16.4733 272.144 16.3067 271.384 16.12C270.318 15.8667 269.451 15.6133 268.784 15.36C268.131 15.1067 267.564 14.7133 267.084 14.18C266.618 13.6333 266.384 12.9 266.384 11.98C266.384 11.2067 266.591 10.5067 267.004 9.88C267.431 9.24 268.064 8.73333 268.904 8.36C269.758 7.98667 270.798 7.8 272.024 7.8C272.878 7.8 273.718 7.90667 274.544 8.12C275.371 8.33333 276.084 8.64 276.684 9.04L275.864 11.06C275.251 10.7 274.611 10.4267 273.944 10.24C273.278 10.0533 272.631 9.96 272.004 9.96C270.978 9.96 270.211 10.1333 269.704 10.48C269.211 10.8267 268.964 11.2867 268.964 11.86C268.964 12.26 269.104 12.5867 269.384 12.84C269.678 13.0933 270.044 13.2933 270.484 13.44C270.924 13.5867 271.524 13.7533 272.284 13.94C273.324 14.18 274.178 14.4333 274.844 14.7C275.511 14.9533 276.078 15.3467 276.544 15.88C277.024 16.4133 277.264 17.1333 277.264 18.04C277.264 18.8133 277.051 19.5133 276.624 20.14C276.211 20.7667 275.578 21.2667 274.724 21.64C273.871 22.0133 272.831 22.2 271.604 22.2ZM283.143 10.18V19.82H285.723V22H277.983V19.82H280.563V10.18H277.983V8H285.723V10.18H283.143ZM294.578 7.8C296.258 7.8 297.564 8.31333 298.498 9.34C299.444 10.3667 299.918 11.8333 299.918 13.74V22H297.318V13.84C297.318 12.6 297.018 11.6667 296.418 11.04C295.831 10.4 295.011 10.08 293.958 10.08C292.811 10.08 291.898 10.42 291.218 11.1C290.551 11.7667 290.218 12.7667 290.218 14.1V22H287.618V8H290.138V9.76C291.111 8.45333 292.591 7.8 294.578 7.8ZM309.295 22.2C307.868 22.2 306.582 21.8933 305.435 21.28C304.288 20.6533 303.388 19.7933 302.735 18.7C302.082 17.5933 301.755 16.36 301.755 15C301.755 13.64 302.082 12.4133 302.735 11.32C303.388 10.2133 304.288 9.35333 305.435 8.74C306.582 8.11333 307.868 7.8 309.295 7.8C310.722 7.8 312.008 8.11333 313.155 8.74C314.302 9.35333 315.202 10.2067 315.855 11.3C316.508 12.3933 316.835 13.6267 316.835 15C316.835 16.3733 316.508 17.6067 315.855 18.7C315.202 19.7933 314.302 20.6533 313.155 21.28C312.008 21.8933 310.722 22.2 309.295 22.2ZM309.295 19.92C310.228 19.92 311.068 19.7133 311.815 19.3C312.562 18.8733 313.148 18.2867 313.575 17.54C314.002 16.78 314.215 15.9333 314.215 15C314.215 14.0667 314.002 13.2267 313.575 12.48C313.148 11.72 312.562 11.1333 311.815 10.72C311.068 10.2933 310.228 10.08 309.295 10.08C308.362 10.08 307.522 10.2933 306.775 10.72C306.028 11.1333 305.442 11.72 305.015 12.48C304.588 13.2267 304.375 14.0667 304.375 15C304.375 15.9333 304.588 16.78 305.015 17.54C305.442 18.2867 306.028 18.8733 306.775 19.3C307.522 19.7133 308.362 19.92 309.295 19.92ZM329.618 7.8C330.872 7.8 331.965 8.04667 332.898 8.54C333.832 9.03333 334.552 9.76667 335.058 10.74C335.578 11.7 335.838 12.8667 335.838 14.24V22H333.238V18.4H325.958V22H323.398V14.24C323.398 12.8667 323.652 11.7 324.158 10.74C324.678 9.76667 325.405 9.03333 326.338 8.54C327.272 8.04667 328.365 7.8 329.618 7.8ZM333.238 16.22V14C333.238 12.7067 332.918 11.7333 332.278 11.08C331.638 10.4133 330.745 10.08 329.598 10.08C328.452 10.08 327.558 10.4133 326.918 11.08C326.278 11.7333 325.958 12.7067 325.958 14V16.22H333.238ZM343.403 8H349.523C351.016 8 352.343 8.29333 353.503 8.88C354.663 9.45333 355.563 10.2733 356.203 11.34C356.843 12.3933 357.163 13.6133 357.163 15C357.163 16.3867 356.843 17.6133 356.203 18.68C355.563 19.7333 354.663 20.5533 353.503 21.14C352.343 21.7133 351.016 22 349.523 22H343.403V8ZM349.403 19.8C350.429 19.8 351.329 19.6067 352.103 19.22C352.889 18.82 353.489 18.26 353.903 17.54C354.329 16.8067 354.543 15.96 354.543 15C354.543 14.04 354.329 13.2 353.903 12.48C353.489 11.7467 352.889 11.1867 352.103 10.8C351.329 10.4 350.429 10.2 349.403 10.2H346.003V19.8H349.403ZM363.128 10.18V19.82H365.708V22H357.968V19.82H360.548V10.18H357.968V8H365.708V10.18H363.128ZM371.943 22.2C370.863 22.2 369.817 22.0467 368.803 21.74C367.803 21.4333 367.01 21.0267 366.423 20.52L367.323 18.5C367.897 18.9533 368.597 19.3267 369.423 19.62C370.263 19.9 371.103 20.04 371.943 20.04C372.983 20.04 373.757 19.8733 374.263 19.54C374.783 19.2067 375.043 18.7667 375.043 18.22C375.043 17.82 374.897 17.4933 374.603 17.24C374.323 16.9733 373.963 16.7667 373.523 16.62C373.083 16.4733 372.483 16.3067 371.723 16.12C370.657 15.8667 369.79 15.6133 369.123 15.36C368.47 15.1067 367.903 14.7133 367.423 14.18C366.957 13.6333 366.723 12.9 366.723 11.98C366.723 11.2067 366.93 10.5067 367.343 9.88C367.77 9.24 368.403 8.73333 369.243 8.36C370.097 7.98667 371.137 7.8 372.363 7.8C373.217 7.8 374.057 7.90667 374.883 8.12C375.71 8.33333 376.423 8.64 377.023 9.04L376.203 11.06C375.59 10.7 374.95 10.4267 374.283 10.24C373.617 10.0533 372.97 9.96 372.343 9.96C371.317 9.96 370.55 10.1333 370.043 10.48C369.55 10.8267 369.303 11.2867 369.303 11.86C369.303 12.26 369.443 12.5867 369.723 12.84C370.017 13.0933 370.383 13.2933 370.823 13.44C371.263 13.5867 371.863 13.7533 372.623 13.94C373.663 14.18 374.517 14.4333 375.183 14.7C375.85 14.9533 376.417 15.3467 376.883 15.88C377.363 16.4133 377.603 17.1333 377.603 18.04C377.603 18.8133 377.39 19.5133 376.963 20.14C376.55 20.7667 375.917 21.2667 375.063 21.64C374.21 22.0133 373.17 22.2 371.943 22.2ZM388.945 11.48C387.625 10.7333 386.252 10.28 384.825 10.12V22H382.225V10.12C380.785 10.28 379.405 10.7333 378.085 11.48L377.185 9.48C378.119 8.92 379.119 8.5 380.185 8.22C381.265 7.94 382.372 7.8 383.505 7.8C384.639 7.8 385.745 7.94 386.825 8.22C387.905 8.5 388.912 8.92 389.845 9.48L388.945 11.48ZM396.674 7.8C397.927 7.8 399.02 8.04667 399.954 8.54C400.887 9.03333 401.607 9.76667 402.114 10.74C402.634 11.7 402.894 12.8667 402.894 14.24V22H400.294V18.4H393.014V22H390.454V14.24C390.454 12.8667 390.707 11.7 391.214 10.74C391.734 9.76667 392.46 9.03333 393.394 8.54C394.327 8.04667 395.42 7.8 396.674 7.8ZM400.294 16.22V14C400.294 12.7067 399.974 11.7333 399.334 11.08C398.694 10.4133 397.8 10.08 396.654 10.08C395.507 10.08 394.614 10.4133 393.974 11.08C393.334 11.7333 393.014 12.7067 393.014 14V16.22H400.294ZM398.434 6.86L396.674 5.38L394.914 6.86H392.854L395.534 4.12H397.814L400.494 6.86H398.434ZM412.691 7.8C414.371 7.8 415.677 8.31333 416.611 9.34C417.557 10.3667 418.031 11.8333 418.031 13.74V22H415.431V13.84C415.431 12.6 415.131 11.6667 414.531 11.04C413.944 10.4 413.124 10.08 412.071 10.08C410.924 10.08 410.011 10.42 409.331 11.1C408.664 11.7667 408.331 12.7667 408.331 14.1V22H405.731V8H408.251V9.76C409.224 8.45333 410.704 7.8 412.691 7.8ZM427.348 22.2C425.935 22.2 424.655 21.8933 423.508 21.28C422.375 20.6533 421.482 19.7933 420.828 18.7C420.188 17.6067 419.868 16.3733 419.868 15C419.868 13.6267 420.195 12.3933 420.848 11.3C421.502 10.2067 422.395 9.35333 423.528 8.74C424.675 8.11333 425.955 7.8 427.368 7.8C428.515 7.8 429.562 8 430.508 8.4C431.455 8.8 432.255 9.38 432.908 10.14L431.228 11.72C430.215 10.6267 428.968 10.08 427.488 10.08C426.528 10.08 425.668 10.2933 424.908 10.72C424.148 11.1333 423.555 11.7133 423.128 12.46C422.702 13.2067 422.488 14.0533 422.488 15C422.488 15.9467 422.702 16.7933 423.128 17.54C423.555 18.2867 424.148 18.8733 424.908 19.3C425.668 19.7133 426.528 19.92 427.488 19.92C428.968 19.92 430.215 19.3667 431.228 18.26L432.908 19.86C432.255 20.62 431.448 21.2 430.488 21.6C429.542 22 428.495 22.2 427.348 22.2ZM438.7 10.18V19.82H441.28V22H433.54V19.82H436.12V10.18H433.54V8H441.28V10.18H438.7ZM449.275 7.8C450.528 7.8 451.621 8.04667 452.555 8.54C453.488 9.03333 454.208 9.76667 454.715 10.74C455.235 11.7 455.495 12.8667 455.495 14.24V22H452.895V18.4H445.615V22H443.055V14.24C443.055 12.8667 443.308 11.7 443.815 10.74C444.335 9.76667 445.061 9.03333 445.995 8.54C446.928 8.04667 448.021 7.8 449.275 7.8ZM452.895 16.22V14C452.895 12.7067 452.575 11.7333 451.935 11.08C451.295 10.4133 450.401 10.08 449.255 10.08C448.108 10.08 447.215 10.4133 446.575 11.08C445.935 11.7333 445.615 12.7067 445.615 14V16.22H452.895Z" fill="white"/>
<path d="M70.98 37.18V46.82H73.56V49H65.82V46.82H68.4V37.18H65.82V35H73.56V37.18H70.98ZM82.215 34.8C83.895 34.8 85.2017 35.3133 86.135 36.34C87.0817 37.3667 87.555 38.8333 87.555 40.74V49H84.955V40.84C84.955 39.6 84.655 38.6667 84.055 38.04C83.4683 37.4 82.6483 37.08 81.595 37.08C80.4483 37.08 79.535 37.42 78.855 38.1C78.1883 38.7667 77.855 39.7667 77.855 41.1V49H75.255V35H77.775V36.76C78.7483 35.4533 80.2283 34.8 82.215 34.8ZM94.5325 49.2C93.4525 49.2 92.4058 49.0467 91.3925 48.74C90.3925 48.4333 89.5992 48.0267 89.0125 47.52L89.9125 45.5C90.4858 45.9533 91.1858 46.3267 92.0125 46.62C92.8525 46.9 93.6925 47.04 94.5325 47.04C95.5725 47.04 96.3458 46.8733 96.8525 46.54C97.3725 46.2067 97.6325 45.7667 97.6325 45.22C97.6325 44.82 97.4858 44.4933 97.1925 44.24C96.9125 43.9733 96.5525 43.7667 96.1125 43.62C95.6725 43.4733 95.0725 43.3067 94.3125 43.12C93.2458 42.8667 92.3792 42.6133 91.7125 42.36C91.0592 42.1067 90.4925 41.7133 90.0125 41.18C89.5458 40.6333 89.3125 39.9 89.3125 38.98C89.3125 38.2067 89.5192 37.5067 89.9325 36.88C90.3592 36.24 90.9925 35.7333 91.8325 35.36C92.6858 34.9867 93.7258 34.8 94.9525 34.8C95.8058 34.8 96.6458 34.9067 97.4725 35.12C98.2992 35.3333 99.0125 35.64 99.6125 36.04L98.7925 38.06C98.1792 37.7 97.5392 37.4267 96.8725 37.24C96.2058 37.0533 95.5592 36.96 94.9325 36.96C93.9058 36.96 93.1392 37.1333 92.6325 37.48C92.1392 37.8267 91.8925 38.2867 91.8925 38.86C91.8925 39.26 92.0325 39.5867 92.3125 39.84C92.6058 40.0933 92.9725 40.2933 93.4125 40.44C93.8525 40.5867 94.4525 40.7533 95.2125 40.94C96.2525 41.18 97.1058 41.4333 97.7725 41.7C98.4392 41.9533 99.0058 42.3467 99.4725 42.88C99.9525 43.4133 100.193 44.1333 100.193 45.04C100.193 45.8133 99.9792 46.5133 99.5525 47.14C99.1392 47.7667 98.5058 48.2667 97.6525 48.64C96.7992 49.0133 95.7592 49.2 94.5325 49.2ZM111.334 38.48C110.014 37.7333 108.641 37.28 107.214 37.12V49H104.614V37.12C103.174 37.28 101.794 37.7333 100.474 38.48L99.5744 36.48C100.508 35.92 101.508 35.5 102.574 35.22C103.654 34.94 104.761 34.8 105.894 34.8C107.028 34.8 108.134 34.94 109.214 35.22C110.294 35.5 111.301 35.92 112.234 36.48L111.334 38.48ZM117.058 37.18V46.82H119.638V49H111.898V46.82H114.478V37.18H111.898V35H119.638V37.18H117.058ZM131.053 38.48C129.733 37.7333 128.36 37.28 126.933 37.12V49H124.333V37.12C122.893 37.28 121.513 37.7333 120.193 38.48L119.293 36.48C120.226 35.92 121.226 35.5 122.293 35.22C123.373 34.94 124.48 34.8 125.613 34.8C126.746 34.8 127.853 34.94 128.933 35.22C130.013 35.5 131.02 35.92 131.953 36.48L131.053 38.48ZM144.777 35V49H142.277V47.22C141.33 48.54 139.864 49.2 137.877 49.2C136.224 49.2 134.924 48.6867 133.977 47.66C133.03 46.62 132.557 45.1533 132.557 43.26V35H135.157V43.16C135.157 44.4 135.45 45.34 136.037 45.98C136.637 46.6067 137.457 46.92 138.497 46.92C139.617 46.92 140.51 46.5867 141.177 45.92C141.844 45.24 142.177 44.2333 142.177 42.9V35H144.777ZM151.636 37.18V46.82H154.216V49H146.476V46.82H149.056V37.18H146.476V35H154.216V37.18H151.636ZM162.294 49.2C160.88 49.2 159.6 48.8933 158.454 48.28C157.32 47.6533 156.427 46.7933 155.774 45.7C155.134 44.6067 154.814 43.3733 154.814 42C154.814 40.6267 155.14 39.3933 155.794 38.3C156.447 37.2067 157.34 36.3533 158.474 35.74C159.62 35.1133 160.9 34.8 162.314 34.8C163.46 34.8 164.507 35 165.454 35.4C166.4 35.8 167.2 36.38 167.854 37.14L166.174 38.72C165.16 37.6267 163.914 37.08 162.434 37.08C161.474 37.08 160.614 37.2933 159.854 37.72C159.094 38.1333 158.5 38.7133 158.074 39.46C157.647 40.2067 157.434 41.0533 157.434 42C157.434 42.9467 157.647 43.7933 158.074 44.54C158.5 45.2867 159.094 45.8733 159.854 46.3C160.614 46.7133 161.474 46.92 162.434 46.92C163.914 46.92 165.16 46.3667 166.174 45.26L167.854 46.86C167.2 47.62 166.394 48.2 165.434 48.6C164.487 49 163.44 49.2 162.294 49.2ZM161.354 53.56C160.634 53.56 160.02 53.42 159.514 53.14L159.974 51.96C160.387 52.1733 160.84 52.28 161.334 52.28C162.04 52.28 162.394 52.04 162.394 51.56C162.394 51.36 162.307 51.2 162.134 51.08C161.96 50.96 161.694 50.9 161.334 50.9H160.714L161.254 48.86H162.614L162.334 49.98C162.907 50.0467 163.34 50.2267 163.634 50.52C163.927 50.8267 164.074 51.2067 164.074 51.66C164.074 52.2333 163.827 52.6933 163.334 53.04C162.84 53.3867 162.18 53.56 161.354 53.56ZM175.445 34.8C176.698 34.8 177.792 35.0467 178.725 35.54C179.658 36.0333 180.378 36.7667 180.885 37.74C181.405 38.7 181.665 39.8667 181.665 41.24V49H179.065V45.4H171.785V49H169.225V41.24C169.225 39.8667 169.478 38.7 169.985 37.74C170.505 36.7667 171.232 36.0333 172.165 35.54C173.098 35.0467 174.192 34.8 175.445 34.8ZM179.065 43.22V41C179.065 39.7067 178.745 38.7333 178.105 38.08C177.465 37.4133 176.572 37.08 175.425 37.08C174.278 37.08 173.385 37.4133 172.745 38.08C172.105 38.7333 171.785 39.7067 171.785 41V43.22H179.065ZM176.885 33.86C176.552 33.86 176.258 33.7933 176.005 33.66C175.765 33.5267 175.465 33.3267 175.105 33.06C174.892 32.8867 174.712 32.76 174.565 32.68C174.432 32.5867 174.298 32.54 174.165 32.54C173.885 32.54 173.652 32.6467 173.465 32.86C173.292 33.0733 173.198 33.3667 173.185 33.74H171.845C171.858 32.9267 172.058 32.28 172.445 31.8C172.845 31.3067 173.365 31.06 174.005 31.06C174.338 31.06 174.625 31.1267 174.865 31.26C175.118 31.3933 175.425 31.5933 175.785 31.86C175.998 32.0333 176.172 32.1667 176.305 32.26C176.452 32.34 176.592 32.38 176.725 32.38C177.005 32.38 177.232 32.28 177.405 32.08C177.592 31.88 177.692 31.6 177.705 31.24H179.045C179.018 32.0267 178.812 32.66 178.425 33.14C178.038 33.62 177.525 33.86 176.885 33.86ZM190.842 49.2C189.415 49.2 188.129 48.8933 186.982 48.28C185.835 47.6533 184.935 46.7933 184.282 45.7C183.629 44.5933 183.302 43.36 183.302 42C183.302 40.64 183.629 39.4133 184.282 38.32C184.935 37.2133 185.835 36.3533 186.982 35.74C188.129 35.1133 189.415 34.8 190.842 34.8C192.269 34.8 193.555 35.1133 194.702 35.74C195.849 36.3533 196.749 37.2067 197.402 38.3C198.055 39.3933 198.382 40.6267 198.382 42C198.382 43.3733 198.055 44.6067 197.402 45.7C196.749 46.7933 195.849 47.6533 194.702 48.28C193.555 48.8933 192.269 49.2 190.842 49.2ZM190.842 46.92C191.775 46.92 192.615 46.7133 193.362 46.3C194.109 45.8733 194.695 45.2867 195.122 44.54C195.549 43.78 195.762 42.9333 195.762 42C195.762 41.0667 195.549 40.2267 195.122 39.48C194.695 38.72 194.109 38.1333 193.362 37.72C192.615 37.2933 191.775 37.08 190.842 37.08C189.909 37.08 189.069 37.2933 188.322 37.72C187.575 38.1333 186.989 38.72 186.562 39.48C186.135 40.2267 185.922 41.0667 185.922 42C185.922 42.9333 186.135 43.78 186.562 44.54C186.989 45.2867 187.575 45.8733 188.322 46.3C189.069 46.7133 189.909 46.92 190.842 46.92ZM204.665 35H210.785C212.278 35 213.605 35.2933 214.765 35.88C215.925 36.4533 216.825 37.2733 217.465 38.34C218.105 39.3933 218.425 40.6133 218.425 42C218.425 43.3867 218.105 44.6133 217.465 45.68C216.825 46.7333 215.925 47.5533 214.765 48.14C213.605 48.7133 212.278 49 210.785 49H204.665V35ZM210.665 46.8C211.692 46.8 212.592 46.6067 213.365 46.22C214.152 45.82 214.752 45.26 215.165 44.54C215.592 43.8067 215.805 42.96 215.805 42C215.805 41.04 215.592 40.2 215.165 39.48C214.752 38.7467 214.152 38.1867 213.365 37.8C212.592 37.4 211.692 37.2 210.665 37.2H207.265V46.8H210.665ZM231.109 47.66C230.482 48.1533 229.675 48.5333 228.689 48.8C227.702 49.0667 226.635 49.2 225.489 49.2C224.142 49.2 222.995 49.0267 222.049 48.68C221.115 48.3333 220.409 47.8533 219.929 47.24C219.449 46.6267 219.209 45.92 219.209 45.12C219.209 44.3467 219.422 43.6733 219.849 43.1C220.275 42.5267 220.849 42.1067 221.569 41.84C221.022 41.5467 220.589 41.14 220.269 40.62C219.962 40.0867 219.809 39.4933 219.809 38.84C219.809 38.0933 220.029 37.42 220.469 36.82C220.922 36.2067 221.595 35.72 222.489 35.36C223.382 34.9867 224.482 34.8 225.789 34.8C226.669 34.8 227.529 34.8933 228.369 35.08C229.209 35.2667 229.942 35.52 230.569 35.84L229.829 37.9C228.655 37.2867 227.342 36.98 225.889 36.98C224.742 36.98 223.875 37.1667 223.289 37.54C222.715 37.9 222.429 38.3867 222.429 39C222.429 39.6 222.642 40.06 223.069 40.38C223.495 40.6867 224.122 40.84 224.949 40.84H228.649V43H224.809C223.862 43 223.129 43.1667 222.609 43.5C222.089 43.82 221.829 44.3 221.829 44.94C221.829 45.58 222.142 46.0867 222.769 46.46C223.395 46.8333 224.342 47.02 225.609 47.02C226.489 47.02 227.342 46.9 228.169 46.66C229.009 46.42 229.709 46.0867 230.269 45.66L231.109 47.66ZM247.741 47.66C247.115 48.1533 246.308 48.5333 245.321 48.8C244.335 49.0667 243.268 49.2 242.121 49.2C240.775 49.2 239.628 49.0267 238.681 48.68C237.748 48.3333 237.041 47.8533 236.561 47.24C236.081 46.6267 235.841 45.92 235.841 45.12C235.841 44.3467 236.055 43.6733 236.481 43.1C236.908 42.5267 237.481 42.1067 238.201 41.84C237.655 41.5467 237.221 41.14 236.901 40.62C236.595 40.0867 236.441 39.4933 236.441 38.84C236.441 38.0933 236.661 37.42 237.101 36.82C237.555 36.2067 238.228 35.72 239.121 35.36C240.015 34.9867 241.115 34.8 242.421 34.8C243.301 34.8 244.161 34.8933 245.001 35.08C245.841 35.2667 246.575 35.52 247.201 35.84L246.461 37.9C245.288 37.2867 243.975 36.98 242.521 36.98C241.375 36.98 240.508 37.1667 239.921 37.54C239.348 37.9 239.061 38.3867 239.061 39C239.061 39.6 239.275 40.06 239.701 40.38C240.128 40.6867 240.755 40.84 241.581 40.84H245.281V43H241.441C240.495 43 239.761 43.1667 239.241 43.5C238.721 43.82 238.461 44.3 238.461 44.94C238.461 45.58 238.775 46.0867 239.401 46.46C240.028 46.8333 240.975 47.02 242.241 47.02C243.121 47.02 243.975 46.9 244.801 46.66C245.641 46.42 246.341 46.0867 246.901 45.66L247.741 47.66ZM255.887 34.8C257.567 34.8 258.874 35.3133 259.807 36.34C260.754 37.3667 261.227 38.8333 261.227 40.74V49H258.627V40.84C258.627 39.6 258.327 38.6667 257.727 38.04C257.14 37.4 256.32 37.08 255.267 37.08C254.12 37.08 253.207 37.42 252.527 38.1C251.86 38.7667 251.527 39.7667 251.527 41.1V49H248.927V35H251.447V36.76C252.42 35.4533 253.9 34.8 255.887 34.8ZM268.204 49.2C267.124 49.2 266.078 49.0467 265.064 48.74C264.064 48.4333 263.271 48.0267 262.684 47.52L263.584 45.5C264.158 45.9533 264.858 46.3267 265.684 46.62C266.524 46.9 267.364 47.04 268.204 47.04C269.244 47.04 270.018 46.8733 270.524 46.54C271.044 46.2067 271.304 45.7667 271.304 45.22C271.304 44.82 271.158 44.4933 270.864 44.24C270.584 43.9733 270.224 43.7667 269.784 43.62C269.344 43.4733 268.744 43.3067 267.984 43.12C266.918 42.8667 266.051 42.6133 265.384 42.36C264.731 42.1067 264.164 41.7133 263.684 41.18C263.218 40.6333 262.984 39.9 262.984 38.98C262.984 38.2067 263.191 37.5067 263.604 36.88C264.031 36.24 264.664 35.7333 265.504 35.36C266.358 34.9867 267.398 34.8 268.624 34.8C269.478 34.8 270.318 34.9067 271.144 35.12C271.971 35.3333 272.684 35.64 273.284 36.04L272.464 38.06C271.851 37.7 271.211 37.4267 270.544 37.24C269.878 37.0533 269.231 36.96 268.604 36.96C267.578 36.96 266.811 37.1333 266.304 37.48C265.811 37.8267 265.564 38.2867 265.564 38.86C265.564 39.26 265.704 39.5867 265.984 39.84C266.278 40.0933 266.644 40.2933 267.084 40.44C267.524 40.5867 268.124 40.7533 268.884 40.94C269.924 41.18 270.778 41.4333 271.444 41.7C272.111 41.9533 272.678 42.3467 273.144 42.88C273.624 43.4133 273.864 44.1333 273.864 45.04C273.864 45.8133 273.651 46.5133 273.224 47.14C272.811 47.7667 272.178 48.2667 271.324 48.64C270.471 49.0133 269.431 49.2 268.204 49.2ZM279.543 37.18V46.82H282.123V49H274.383V46.82H276.963V37.18H274.383V35H282.123V37.18H279.543ZM290.778 34.8C292.458 34.8 293.764 35.3133 294.698 36.34C295.644 37.3667 296.118 38.8333 296.118 40.74V49H293.518V40.84C293.518 39.6 293.218 38.6667 292.618 38.04C292.031 37.4 291.211 37.08 290.158 37.08C289.011 37.08 288.098 37.42 287.418 38.1C286.751 38.7667 286.418 39.7667 286.418 41.1V49H283.818V35H286.338V36.76C287.311 35.4533 288.791 34.8 290.778 34.8ZM305.295 49.2C303.868 49.2 302.582 48.8933 301.435 48.28C300.288 47.6533 299.388 46.7933 298.735 45.7C298.082 44.5933 297.755 43.36 297.755 42C297.755 40.64 298.082 39.4133 298.735 38.32C299.388 37.2133 300.288 36.3533 301.435 35.74C302.582 35.1133 303.868 34.8 305.295 34.8C306.722 34.8 308.008 35.1133 309.155 35.74C310.302 36.3533 311.202 37.2067 311.855 38.3C312.508 39.3933 312.835 40.6267 312.835 42C312.835 43.3733 312.508 44.6067 311.855 45.7C311.202 46.7933 310.302 47.6533 309.155 48.28C308.008 48.8933 306.722 49.2 305.295 49.2ZM305.295 46.92C306.228 46.92 307.068 46.7133 307.815 46.3C308.562 45.8733 309.148 45.2867 309.575 44.54C310.002 43.78 310.215 42.9333 310.215 42C310.215 41.0667 310.002 40.2267 309.575 39.48C309.148 38.72 308.562 38.1333 307.815 37.72C307.068 37.2933 306.228 37.08 305.295 37.08C304.362 37.08 303.522 37.2933 302.775 37.72C302.028 38.1333 301.442 38.72 301.015 39.48C300.588 40.2267 300.375 41.0667 300.375 42C300.375 42.9333 300.588 43.78 301.015 44.54C301.442 45.2867 302.028 45.8733 302.775 46.3C303.522 46.7133 304.362 46.92 305.295 46.92ZM323.458 49.2C322.378 49.2 321.332 49.0467 320.318 48.74C319.318 48.4333 318.525 48.0267 317.938 47.52L318.838 45.5C319.412 45.9533 320.112 46.3267 320.938 46.62C321.778 46.9 322.618 47.04 323.458 47.04C324.498 47.04 325.272 46.8733 325.778 46.54C326.298 46.2067 326.558 45.7667 326.558 45.22C326.558 44.82 326.412 44.4933 326.118 44.24C325.838 43.9733 325.478 43.7667 325.038 43.62C324.598 43.4733 323.998 43.3067 323.238 43.12C322.172 42.8667 321.305 42.6133 320.638 42.36C319.985 42.1067 319.418 41.7133 318.938 41.18C318.472 40.6333 318.238 39.9 318.238 38.98C318.238 38.2067 318.445 37.5067 318.858 36.88C319.285 36.24 319.918 35.7333 320.758 35.36C321.612 34.9867 322.652 34.8 323.878 34.8C324.732 34.8 325.572 34.9067 326.398 35.12C327.225 35.3333 327.938 35.64 328.538 36.04L327.718 38.06C327.105 37.7 326.465 37.4267 325.798 37.24C325.132 37.0533 324.485 36.96 323.858 36.96C322.832 36.96 322.065 37.1333 321.558 37.48C321.065 37.8267 320.818 38.2867 320.818 38.86C320.818 39.26 320.958 39.5867 321.238 39.84C321.532 40.0933 321.898 40.2933 322.338 40.44C322.778 40.5867 323.378 40.7533 324.138 40.94C325.178 41.18 326.032 41.4333 326.698 41.7C327.365 41.9533 327.932 42.3467 328.398 42.88C328.878 43.4133 329.118 44.1333 329.118 45.04C329.118 45.8133 328.905 46.5133 328.478 47.14C328.065 47.7667 327.432 48.2667 326.578 48.64C325.725 49.0133 324.685 49.2 323.458 49.2ZM342.796 35V49H340.296V47.22C339.35 48.54 337.883 49.2 335.896 49.2C334.243 49.2 332.943 48.6867 331.996 47.66C331.05 46.62 330.576 45.1533 330.576 43.26V35H333.176V43.16C333.176 44.4 333.47 45.34 334.056 45.98C334.656 46.6067 335.476 46.92 336.516 46.92C337.636 46.92 338.53 46.5867 339.196 45.92C339.863 45.24 340.196 44.2333 340.196 42.9V35H342.796ZM351.316 35C352.529 35 353.582 35.2 354.476 35.6C355.382 36 356.076 36.5733 356.556 37.32C357.036 38.0667 357.276 38.9533 357.276 39.98C357.276 40.9933 357.036 41.88 356.556 42.64C356.076 43.3867 355.382 43.96 354.476 44.36C353.582 44.76 352.529 44.96 351.316 44.96H348.156V49H345.556V35H351.316ZM351.196 42.76C352.329 42.76 353.189 42.52 353.776 42.04C354.362 41.56 354.656 40.8733 354.656 39.98C354.656 39.0867 354.362 38.4 353.776 37.92C353.189 37.44 352.329 37.2 351.196 37.2H348.156V42.76H351.196ZM369.89 47.66C369.263 48.1533 368.457 48.5333 367.47 48.8C366.483 49.0667 365.417 49.2 364.27 49.2C362.923 49.2 361.777 49.0267 360.83 48.68C359.897 48.3333 359.19 47.8533 358.71 47.24C358.23 46.6267 357.99 45.92 357.99 45.12C357.99 44.3467 358.203 43.6733 358.63 43.1C359.057 42.5267 359.63 42.1067 360.35 41.84C359.803 41.5467 359.37 41.14 359.05 40.62C358.743 40.0867 358.59 39.4933 358.59 38.84C358.59 38.0933 358.81 37.42 359.25 36.82C359.703 36.2067 360.377 35.72 361.27 35.36C362.163 34.9867 363.263 34.8 364.57 34.8C365.45 34.8 366.31 34.8933 367.15 35.08C367.99 35.2667 368.723 35.52 369.35 35.84L368.61 37.9C367.437 37.2867 366.123 36.98 364.67 36.98C363.523 36.98 362.657 37.1667 362.07 37.54C361.497 37.9 361.21 38.3867 361.21 39C361.21 39.6 361.423 40.06 361.85 40.38C362.277 40.6867 362.903 40.84 363.73 40.84H367.43V43H363.59C362.643 43 361.91 43.1667 361.39 43.5C360.87 43.82 360.61 44.3 360.61 44.94C360.61 45.58 360.923 46.0867 361.55 46.46C362.177 46.8333 363.123 47.02 364.39 47.02C365.27 47.02 366.123 46.9 366.95 46.66C367.79 46.42 368.49 46.0867 369.05 45.66L369.89 47.66ZM380.235 49L377.375 44.9C377.255 44.9133 377.075 44.92 376.835 44.92H373.675V49H371.075V35H376.835C378.049 35 379.102 35.2 379.995 35.6C380.902 36 381.595 36.5733 382.075 37.32C382.555 38.0667 382.795 38.9533 382.795 39.98C382.795 41.0333 382.535 41.94 382.015 42.7C381.509 43.46 380.775 44.0267 379.815 44.4L383.035 49H380.235ZM380.175 39.98C380.175 39.0867 379.882 38.4 379.295 37.92C378.709 37.44 377.849 37.2 376.715 37.2H373.675V42.78H376.715C377.849 42.78 378.709 42.54 379.295 42.06C379.882 41.5667 380.175 40.8733 380.175 39.98ZM388.804 37.18V46.82H391.384V49H383.644V46.82H386.224V37.18H383.644V35H391.384V37.18H388.804ZM399.522 49.2C398.095 49.2 396.808 48.8933 395.662 48.28C394.515 47.6533 393.615 46.7933 392.962 45.7C392.308 44.5933 391.982 43.36 391.982 42C391.982 40.64 392.308 39.4133 392.962 38.32C393.615 37.2133 394.515 36.3533 395.662 35.74C396.808 35.1133 398.095 34.8 399.522 34.8C400.948 34.8 402.235 35.1133 403.382 35.74C404.528 36.3533 405.428 37.2067 406.082 38.3C406.735 39.3933 407.062 40.6267 407.062 42C407.062 43.3733 406.735 44.6067 406.082 45.7C405.428 46.7933 404.528 47.6533 403.382 48.28C402.235 48.8933 400.948 49.2 399.522 49.2ZM399.522 46.92C400.455 46.92 401.295 46.7133 402.042 46.3C402.788 45.8733 403.375 45.2867 403.802 44.54C404.228 43.78 404.442 42.9333 404.442 42C404.442 41.0667 404.228 40.2267 403.802 39.48C403.375 38.72 402.788 38.1333 402.042 37.72C401.295 37.2933 400.455 37.08 399.522 37.08C398.588 37.08 397.748 37.2933 397.002 37.72C396.255 38.1333 395.668 38.72 395.242 39.48C394.815 40.2267 394.602 41.0667 394.602 42C394.602 42.9333 394.815 43.78 395.242 44.54C395.668 45.2867 396.255 45.8733 397.002 46.3C397.748 46.7133 398.588 46.92 399.522 46.92ZM417.978 49L415.118 44.9C414.998 44.9133 414.818 44.92 414.578 44.92H411.418V49H408.818V35H414.578C415.791 35 416.844 35.2 417.738 35.6C418.644 36 419.338 36.5733 419.818 37.32C420.298 38.0667 420.538 38.9533 420.538 39.98C420.538 41.0333 420.278 41.94 419.758 42.7C419.251 43.46 418.518 44.0267 417.558 44.4L420.778 49H417.978ZM417.918 39.98C417.918 39.0867 417.624 38.4 417.037 37.92C416.451 37.44 415.591 37.2 414.458 37.2H411.418V42.78H414.458C415.591 42.78 416.451 42.54 417.037 42.06C417.624 41.5667 417.918 40.8733 417.918 39.98ZM432.734 35C433.947 35 435 35.2 435.894 35.6C436.8 36 437.494 36.5733 437.974 37.32C438.454 38.0667 438.694 38.9533 438.694 39.98C438.694 40.9933 438.454 41.88 437.974 42.64C437.494 43.3867 436.8 43.96 435.894 44.36C435 44.76 433.947 44.96 432.734 44.96H429.574V49H426.974V35H432.734ZM432.614 42.76C433.747 42.76 434.607 42.52 435.194 42.04C435.78 41.56 436.074 40.8733 436.074 39.98C436.074 39.0867 435.78 38.4 435.194 37.92C434.607 37.44 433.747 37.2 432.614 37.2H429.574V42.76H432.614ZM446.136 34.8C447.39 34.8 448.483 35.0467 449.416 35.54C450.35 36.0333 451.07 36.7667 451.576 37.74C452.096 38.7 452.356 39.8667 452.356 41.24V49H449.756V45.4H442.476V49H439.916V41.24C439.916 39.8667 440.17 38.7 440.676 37.74C441.196 36.7667 441.923 36.0333 442.856 35.54C443.79 35.0467 444.883 34.8 446.136 34.8ZM449.756 43.22V41C449.756 39.7067 449.436 38.7333 448.796 38.08C448.156 37.4133 447.263 37.08 446.116 37.08C444.97 37.08 444.076 37.4133 443.436 38.08C442.796 38.7333 442.476 39.7067 442.476 41V43.22H449.756ZM464.153 49L461.293 44.9C461.173 44.9133 460.993 44.92 460.753 44.92H457.593V49H454.993V35H460.753C461.967 35 463.02 35.2 463.913 35.6C464.82 36 465.513 36.5733 465.993 37.32C466.473 38.0667 466.713 38.9533 466.713 39.98C466.713 41.0333 466.453 41.94 465.933 42.7C465.427 43.46 464.693 44.0267 463.733 44.4L466.953 49H464.153ZM464.093 39.98C464.093 39.0867 463.8 38.4 463.213 37.92C462.627 37.44 461.767 37.2 460.633 37.2H457.593V42.78H460.633C461.767 42.78 462.627 42.54 463.213 42.06C463.8 41.5667 464.093 40.8733 464.093 39.98ZM478.342 38.48C477.022 37.7333 475.649 37.28 474.222 37.12V49H471.622V37.12C470.182 37.28 468.802 37.7333 467.482 38.48L466.582 36.48C467.516 35.92 468.516 35.5 469.582 35.22C470.662 34.94 471.769 34.8 472.902 34.8C474.036 34.8 475.142 34.94 476.222 35.22C477.302 35.5 478.309 35.92 479.242 36.48L478.342 38.48ZM484.066 37.18V46.82H486.646V49H478.906V46.82H481.486V37.18H478.906V35H486.646V37.18H484.066ZM494.723 49.2C493.31 49.2 492.03 48.8933 490.883 48.28C489.75 47.6533 488.857 46.7933 488.203 45.7C487.563 44.6067 487.243 43.3733 487.243 42C487.243 40.6267 487.57 39.3933 488.223 38.3C488.877 37.2067 489.77 36.3533 490.903 35.74C492.05 35.1133 493.33 34.8 494.743 34.8C495.89 34.8 496.937 35 497.883 35.4C498.83 35.8 499.63 36.38 500.283 37.14L498.603 38.72C497.59 37.6267 496.343 37.08 494.863 37.08C493.903 37.08 493.043 37.2933 492.283 37.72C491.523 38.1333 490.93 38.7133 490.503 39.46C490.077 40.2067 489.863 41.0533 489.863 42C489.863 42.9467 490.077 43.7933 490.503 44.54C490.93 45.2867 491.523 45.8733 492.283 46.3C493.043 46.7133 493.903 46.92 494.863 46.92C496.343 46.92 497.59 46.3667 498.603 45.26L500.283 46.86C499.63 47.62 498.823 48.2 497.863 48.6C496.917 49 495.87 49.2 494.723 49.2ZM513.777 35V49H511.277V47.22C510.33 48.54 508.864 49.2 506.877 49.2C505.224 49.2 503.924 48.6867 502.977 47.66C502.03 46.62 501.557 45.1533 501.557 43.26V35H504.157V43.16C504.157 44.4 504.45 45.34 505.037 45.98C505.637 46.6067 506.457 46.92 507.497 46.92C508.617 46.92 509.51 46.5867 510.177 45.92C510.844 45.24 511.177 44.2333 511.177 42.9V35H513.777ZM516.536 35H519.136V46.8H526.456V49H516.536V35ZM533.609 34.8C534.862 34.8 535.956 35.0467 536.889 35.54C537.822 36.0333 538.542 36.7667 539.049 37.74C539.569 38.7 539.829 39.8667 539.829 41.24V49H537.229V45.4H529.949V49H527.389V41.24C527.389 39.8667 527.642 38.7 528.149 37.74C528.669 36.7667 529.396 36.0333 530.329 35.54C531.262 35.0467 532.356 34.8 533.609 34.8ZM537.229 43.22V41C537.229 39.7067 536.909 38.7333 536.269 38.08C535.629 37.4133 534.736 37.08 533.589 37.08C532.442 37.08 531.549 37.4133 530.909 38.08C530.269 38.7333 529.949 39.7067 529.949 41V43.22H537.229ZM551.626 49L548.766 44.9C548.646 44.9133 548.466 44.92 548.226 44.92H545.066V49H542.466V35H548.226C549.439 35 550.493 35.2 551.386 35.6C552.293 36 552.986 36.5733 553.466 37.32C553.946 38.0667 554.186 38.9533 554.186 39.98C554.186 41.0333 553.926 41.94 553.406 42.7C552.899 43.46 552.166 44.0267 551.206 44.4L554.426 49H551.626ZM551.566 39.98C551.566 39.0867 551.273 38.4 550.686 37.92C550.099 37.44 549.239 37.2 548.106 37.2H545.066V42.78H548.106C549.239 42.78 550.099 42.54 550.686 42.06C551.273 41.5667 551.566 40.8733 551.566 39.98Z" fill="white"/>
<path d="M70.98 64.18V73.82H73.56V76H65.82V73.82H68.4V64.18H65.82V62H73.56V64.18H70.98ZM82.415 61.8C84.095 61.8 85.4017 62.3133 86.335 63.34C87.2817 64.3667 87.755 65.8333 87.755 67.74V76H85.155V67.84C85.155 66.6 84.855 65.6667 84.255 65.04C83.6683 64.4 82.8483 64.08 81.795 64.08C80.6483 64.08 79.735 64.42 79.055 65.1C78.3883 65.7667 78.055 66.7667 78.055 68.1V76H75.455V62H77.975V63.76C78.9483 62.4533 80.4283 61.8 82.415 61.8ZM94.9325 76.2C93.8525 76.2 92.8058 76.0467 91.7925 75.74C90.7925 75.4333 89.9992 75.0267 89.4125 74.52L90.3125 72.5C90.8858 72.9533 91.5858 73.3267 92.4125 73.62C93.2525 73.9 94.0925 74.04 94.9325 74.04C95.9725 74.04 96.7458 73.8733 97.2525 73.54C97.7725 73.2067 98.0325 72.7667 98.0325 72.22C98.0325 71.82 97.8858 71.4933 97.5925 71.24C97.3125 70.9733 96.9525 70.7667 96.5125 70.62C96.0725 70.4733 95.4725 70.3067 94.7125 70.12C93.6458 69.8667 92.7792 69.6133 92.1125 69.36C91.4592 69.1067 90.8925 68.7133 90.4125 68.18C89.9458 67.6333 89.7125 66.9 89.7125 65.98C89.7125 65.2067 89.9192 64.5067 90.3325 63.88C90.7592 63.24 91.3925 62.7333 92.2325 62.36C93.0858 61.9867 94.1258 61.8 95.3525 61.8C96.2058 61.8 97.0458 61.9067 97.8725 62.12C98.6992 62.3333 99.4125 62.64 100.012 63.04L99.1925 65.06C98.5792 64.7 97.9392 64.4267 97.2725 64.24C96.6058 64.0533 95.9592 63.96 95.3325 63.96C94.3058 63.96 93.5392 64.1333 93.0325 64.48C92.5392 64.8267 92.2925 65.2867 92.2925 65.86C92.2925 66.26 92.4325 66.5867 92.7125 66.84C93.0058 67.0933 93.3725 67.2933 93.8125 67.44C94.2525 67.5867 94.8525 67.7533 95.6125 67.94C96.6525 68.18 97.5058 68.4333 98.1725 68.7C98.8392 68.9533 99.4058 69.3467 99.8725 69.88C100.353 70.4133 100.593 71.1333 100.593 72.04C100.593 72.8133 100.379 73.5133 99.9525 74.14C99.5392 74.7667 98.9058 75.2667 98.0525 75.64C97.1992 76.0133 96.1592 76.2 94.9325 76.2ZM111.934 65.48C110.614 64.7333 109.241 64.28 107.814 64.12V76H105.214V64.12C103.774 64.28 102.394 64.7333 101.074 65.48L100.174 63.48C101.108 62.92 102.108 62.5 103.174 62.22C104.254 61.94 105.361 61.8 106.494 61.8C107.628 61.8 108.734 61.94 109.814 62.22C110.894 62.5 111.901 62.92 112.834 63.48L111.934 65.48ZM117.858 64.18V73.82H120.438V76H112.698V73.82H115.278V64.18H112.698V62H120.438V64.18H117.858ZM132.053 65.48C130.733 64.7333 129.36 64.28 127.933 64.12V76H125.333V64.12C123.893 64.28 122.513 64.7333 121.193 65.48L120.293 63.48C121.226 62.92 122.226 62.5 123.293 62.22C124.373 61.94 125.48 61.8 126.613 61.8C127.746 61.8 128.853 61.94 129.933 62.22C131.013 62.5 132.02 62.92 132.953 63.48L132.053 65.48ZM145.977 62V76H143.477V74.22C142.53 75.54 141.064 76.2 139.077 76.2C137.424 76.2 136.124 75.6867 135.177 74.66C134.23 73.62 133.757 72.1533 133.757 70.26V62H136.357V70.16C136.357 71.4 136.65 72.34 137.237 72.98C137.837 73.6067 138.657 73.92 139.697 73.92C140.817 73.92 141.71 73.5867 142.377 72.92C143.044 72.24 143.377 71.2333 143.377 69.9V62H145.977ZM153.036 64.18V73.82H155.616V76H147.876V73.82H150.456V64.18H147.876V62H155.616V64.18H153.036ZM163.894 76.2C162.48 76.2 161.2 75.8933 160.054 75.28C158.92 74.6533 158.027 73.7933 157.374 72.7C156.734 71.6067 156.414 70.3733 156.414 69C156.414 67.6267 156.74 66.3933 157.394 65.3C158.047 64.2067 158.94 63.3533 160.074 62.74C161.22 62.1133 162.5 61.8 163.914 61.8C165.06 61.8 166.107 62 167.054 62.4C168 62.8 168.8 63.38 169.454 64.14L167.774 65.72C166.76 64.6267 165.514 64.08 164.034 64.08C163.074 64.08 162.214 64.2933 161.454 64.72C160.694 65.1333 160.1 65.7133 159.674 66.46C159.247 67.2067 159.034 68.0533 159.034 69C159.034 69.9467 159.247 70.7933 159.674 71.54C160.1 72.2867 160.694 72.8733 161.454 73.3C162.214 73.7133 163.074 73.92 164.034 73.92C165.514 73.92 166.76 73.3667 167.774 72.26L169.454 73.86C168.8 74.62 167.994 75.2 167.034 75.6C166.087 76 165.04 76.2 163.894 76.2ZM162.954 80.56C162.234 80.56 161.62 80.42 161.114 80.14L161.574 78.96C161.987 79.1733 162.44 79.28 162.934 79.28C163.64 79.28 163.994 79.04 163.994 78.56C163.994 78.36 163.907 78.2 163.734 78.08C163.56 77.96 163.294 77.9 162.934 77.9H162.314L162.854 75.86H164.214L163.934 76.98C164.507 77.0467 164.94 77.2267 165.234 77.52C165.527 77.8267 165.674 78.2067 165.674 78.66C165.674 79.2333 165.427 79.6933 164.934 80.04C164.44 80.3867 163.78 80.56 162.954 80.56ZM177.245 61.8C178.498 61.8 179.592 62.0467 180.525 62.54C181.458 63.0333 182.178 63.7667 182.685 64.74C183.205 65.7 183.465 66.8667 183.465 68.24V76H180.865V72.4H173.585V76H171.025V68.24C171.025 66.8667 171.278 65.7 171.785 64.74C172.305 63.7667 173.032 63.0333 173.965 62.54C174.898 62.0467 175.992 61.8 177.245 61.8ZM180.865 70.22V68C180.865 66.7067 180.545 65.7333 179.905 65.08C179.265 64.4133 178.372 64.08 177.225 64.08C176.078 64.08 175.185 64.4133 174.545 65.08C173.905 65.7333 173.585 66.7067 173.585 68V70.22H180.865ZM178.685 60.86C178.352 60.86 178.058 60.7933 177.805 60.66C177.565 60.5267 177.265 60.3267 176.905 60.06C176.692 59.8867 176.512 59.76 176.365 59.68C176.232 59.5867 176.098 59.54 175.965 59.54C175.685 59.54 175.452 59.6467 175.265 59.86C175.092 60.0733 174.998 60.3667 174.985 60.74H173.645C173.658 59.9267 173.858 59.28 174.245 58.8C174.645 58.3067 175.165 58.06 175.805 58.06C176.138 58.06 176.425 58.1267 176.665 58.26C176.918 58.3933 177.225 58.5933 177.585 58.86C177.798 59.0333 177.972 59.1667 178.105 59.26C178.252 59.34 178.392 59.38 178.525 59.38C178.805 59.38 179.032 59.28 179.205 59.08C179.392 58.88 179.492 58.6 179.505 58.24H180.845C180.818 59.0267 180.612 59.66 180.225 60.14C179.838 60.62 179.325 60.86 178.685 60.86ZM192.842 76.2C191.415 76.2 190.129 75.8933 188.982 75.28C187.835 74.6533 186.935 73.7933 186.282 72.7C185.629 71.5933 185.302 70.36 185.302 69C185.302 67.64 185.629 66.4133 186.282 65.32C186.935 64.2133 187.835 63.3533 188.982 62.74C190.129 62.1133 191.415 61.8 192.842 61.8C194.269 61.8 195.555 62.1133 196.702 62.74C197.849 63.3533 198.749 64.2067 199.402 65.3C200.055 66.3933 200.382 67.6267 200.382 69C200.382 70.3733 200.055 71.6067 199.402 72.7C198.749 73.7933 197.849 74.6533 196.702 75.28C195.555 75.8933 194.269 76.2 192.842 76.2ZM192.842 73.92C193.775 73.92 194.615 73.7133 195.362 73.3C196.109 72.8733 196.695 72.2867 197.122 71.54C197.549 70.78 197.762 69.9333 197.762 69C197.762 68.0667 197.549 67.2267 197.122 66.48C196.695 65.72 196.109 65.1333 195.362 64.72C194.615 64.2933 193.775 64.08 192.842 64.08C191.909 64.08 191.069 64.2933 190.322 64.72C189.575 65.1333 188.989 65.72 188.562 66.48C188.135 67.2267 187.922 68.0667 187.922 69C187.922 69.9333 188.135 70.78 188.562 71.54C188.989 72.2867 189.575 72.8733 190.322 73.3C191.069 73.7133 191.909 73.92 192.842 73.92ZM207.065 62H213.185C214.678 62 216.005 62.2933 217.165 62.88C218.325 63.4533 219.225 64.2733 219.865 65.34C220.505 66.3933 220.825 67.6133 220.825 69C220.825 70.3867 220.505 71.6133 219.865 72.68C219.225 73.7333 218.325 74.5533 217.165 75.14C216.005 75.7133 214.678 76 213.185 76H207.065V62ZM213.065 73.8C214.092 73.8 214.992 73.6067 215.765 73.22C216.552 72.82 217.152 72.26 217.565 71.54C217.992 70.8067 218.205 69.96 218.205 69C218.205 68.04 217.992 67.2 217.565 66.48C217.152 65.7467 216.552 65.1867 215.765 64.8C214.992 64.4 214.092 64.2 213.065 64.2H209.665V73.8H213.065ZM233.709 74.66C233.082 75.1533 232.275 75.5333 231.289 75.8C230.302 76.0667 229.235 76.2 228.089 76.2C226.742 76.2 225.595 76.0267 224.649 75.68C223.715 75.3333 223.009 74.8533 222.529 74.24C222.049 73.6267 221.809 72.92 221.809 72.12C221.809 71.3467 222.022 70.6733 222.449 70.1C222.875 69.5267 223.449 69.1067 224.169 68.84C223.622 68.5467 223.189 68.14 222.869 67.62C222.562 67.0867 222.409 66.4933 222.409 65.84C222.409 65.0933 222.629 64.42 223.069 63.82C223.522 63.2067 224.195 62.72 225.089 62.36C225.982 61.9867 227.082 61.8 228.389 61.8C229.269 61.8 230.129 61.8933 230.969 62.08C231.809 62.2667 232.542 62.52 233.169 62.84L232.429 64.9C231.255 64.2867 229.942 63.98 228.489 63.98C227.342 63.98 226.475 64.1667 225.889 64.54C225.315 64.9 225.029 65.3867 225.029 66C225.029 66.6 225.242 67.06 225.669 67.38C226.095 67.6867 226.722 67.84 227.549 67.84H231.249V70H227.409C226.462 70 225.729 70.1667 225.209 70.5C224.689 70.82 224.429 71.3 224.429 71.94C224.429 72.58 224.742 73.0867 225.369 73.46C225.995 73.8333 226.942 74.02 228.209 74.02C229.089 74.02 229.942 73.9 230.769 73.66C231.609 73.42 232.309 73.0867 232.869 72.66L233.709 74.66ZM245.581 62C246.795 62 247.848 62.2 248.741 62.6C249.648 63 250.341 63.5733 250.821 64.32C251.301 65.0667 251.541 65.9533 251.541 66.98C251.541 67.9933 251.301 68.88 250.821 69.64C250.341 70.3867 249.648 70.96 248.741 71.36C247.848 71.76 246.795 71.96 245.581 71.96H242.421V76H239.821V62H245.581ZM245.461 69.76C246.595 69.76 247.455 69.52 248.041 69.04C248.628 68.56 248.921 67.8733 248.921 66.98C248.921 66.0867 248.628 65.4 248.041 64.92C247.455 64.44 246.595 64.2 245.461 64.2H242.421V69.76H245.461ZM260.073 76.2C258.646 76.2 257.36 75.8933 256.213 75.28C255.066 74.6533 254.166 73.7933 253.513 72.7C252.86 71.5933 252.533 70.36 252.533 69C252.533 67.64 252.86 66.4133 253.513 65.32C254.166 64.2133 255.066 63.3533 256.213 62.74C257.36 62.1133 258.646 61.8 260.073 61.8C261.5 61.8 262.786 62.1133 263.933 62.74C265.08 63.3533 265.98 64.2067 266.633 65.3C267.286 66.3933 267.613 67.6267 267.613 69C267.613 70.3733 267.286 71.6067 266.633 72.7C265.98 73.7933 265.08 74.6533 263.933 75.28C262.786 75.8933 261.5 76.2 260.073 76.2ZM260.073 73.92C261.006 73.92 261.846 73.7133 262.593 73.3C263.34 72.8733 263.926 72.2867 264.353 71.54C264.78 70.78 264.993 69.9333 264.993 69C264.993 68.0667 264.78 67.2267 264.353 66.48C263.926 65.72 263.34 65.1333 262.593 64.72C261.846 64.2933 261.006 64.08 260.073 64.08C259.14 64.08 258.3 64.2933 257.553 64.72C256.806 65.1333 256.22 65.72 255.793 66.48C255.366 67.2267 255.153 68.0667 255.153 69C255.153 69.9333 255.366 70.78 255.793 71.54C256.22 72.2867 256.806 72.8733 257.553 73.3C258.3 73.7133 259.14 73.92 260.073 73.92ZM261.093 58.12H264.033L260.553 60.86H258.393L261.093 58.12ZM273.909 76.2C272.829 76.2 271.782 76.0467 270.769 75.74C269.769 75.4333 268.976 75.0267 268.389 74.52L269.289 72.5C269.862 72.9533 270.562 73.3267 271.389 73.62C272.229 73.9 273.069 74.04 273.909 74.04C274.949 74.04 275.722 73.8733 276.229 73.54C276.749 73.2067 277.009 72.7667 277.009 72.22C277.009 71.82 276.862 71.4933 276.569 71.24C276.289 70.9733 275.929 70.7667 275.489 70.62C275.049 70.4733 274.449 70.3067 273.689 70.12C272.622 69.8667 271.756 69.6133 271.089 69.36C270.436 69.1067 269.869 68.7133 269.389 68.18C268.922 67.6333 268.689 66.9 268.689 65.98C268.689 65.2067 268.896 64.5067 269.309 63.88C269.736 63.24 270.369 62.7333 271.209 62.36C272.062 61.9867 273.102 61.8 274.329 61.8C275.182 61.8 276.022 61.9067 276.849 62.12C277.676 62.3333 278.389 62.64 278.989 63.04L278.169 65.06C277.556 64.7 276.916 64.4267 276.249 64.24C275.582 64.0533 274.936 63.96 274.309 63.96C273.282 63.96 272.516 64.1333 272.009 64.48C271.516 64.8267 271.269 65.2867 271.269 65.86C271.269 66.26 271.409 66.5867 271.689 66.84C271.982 67.0933 272.349 67.2933 272.789 67.44C273.229 67.5867 273.829 67.7533 274.589 67.94C275.629 68.18 276.482 68.4333 277.149 68.7C277.816 68.9533 278.382 69.3467 278.849 69.88C279.329 70.4133 279.569 71.1333 279.569 72.04C279.569 72.8133 279.356 73.5133 278.929 74.14C278.516 74.7667 277.882 75.2667 277.029 75.64C276.176 76.0133 275.136 76.2 273.909 76.2ZM280.86 69.4H286.36V71.48H280.86V69.4ZM298.193 68.84H300.653V76H298.513V75.18C297.513 75.86 296.26 76.2 294.753 76.2C293.46 76.2 292.273 75.92 291.193 75.36C290.113 74.8 289.246 73.9867 288.593 72.92C287.953 71.8533 287.633 70.58 287.633 69.1C287.633 67.7 287.96 66.4467 288.613 65.34C289.266 64.22 290.166 63.3533 291.313 62.74C292.473 62.1133 293.773 61.8 295.213 61.8C296.386 61.8 297.453 61.9933 298.413 62.38C299.373 62.7667 300.18 63.3333 300.833 64.08L299.193 65.68C298.126 64.6133 296.84 64.08 295.333 64.08C294.346 64.08 293.466 64.2933 292.693 64.72C291.933 65.1333 291.333 65.72 290.893 66.48C290.466 67.24 290.253 68.1067 290.253 69.08C290.253 70.1067 290.466 70.9933 290.893 71.74C291.333 72.4733 291.913 73.0333 292.633 73.42C293.353 73.7933 294.14 73.98 294.993 73.98C295.593 73.98 296.166 73.8867 296.713 73.7C297.273 73.5133 297.766 73.24 298.193 72.88V68.84ZM312.442 76L309.582 71.9C309.462 71.9133 309.282 71.92 309.042 71.92H305.882V76H303.282V62H309.042C310.256 62 311.309 62.2 312.202 62.6C313.109 63 313.802 63.5733 314.282 64.32C314.762 65.0667 315.002 65.9533 315.002 66.98C315.002 68.0333 314.742 68.94 314.222 69.7C313.716 70.46 312.982 71.0267 312.022 71.4L315.242 76H312.442ZM312.382 66.98C312.382 66.0867 312.089 65.4 311.502 64.92C310.916 64.44 310.056 64.2 308.922 64.2H305.882V69.78H308.922C310.056 69.78 310.916 69.54 311.502 69.06C312.089 68.5667 312.382 67.8733 312.382 66.98ZM323.211 61.8C324.465 61.8 325.558 62.0467 326.491 62.54C327.425 63.0333 328.145 63.7667 328.651 64.74C329.171 65.7 329.431 66.8667 329.431 68.24V76H326.831V72.4H319.551V76H316.991V68.24C316.991 66.8667 317.245 65.7 317.751 64.74C318.271 63.7667 318.998 63.0333 319.931 62.54C320.865 62.0467 321.958 61.8 323.211 61.8ZM326.831 70.22V68C326.831 66.7067 326.511 65.7333 325.871 65.08C325.231 64.4133 324.338 64.08 323.191 64.08C322.045 64.08 321.151 64.4133 320.511 65.08C319.871 65.7333 319.551 66.7067 319.551 68V70.22H326.831ZM332.268 62H338.388C339.882 62 341.208 62.2933 342.368 62.88C343.528 63.4533 344.428 64.2733 345.068 65.34C345.708 66.3933 346.028 67.6133 346.028 69C346.028 70.3867 345.708 71.6133 345.068 72.68C344.428 73.7333 343.528 74.5533 342.368 75.14C341.208 75.7133 339.882 76 338.388 76H332.268V62ZM338.268 73.8C339.295 73.8 340.195 73.6067 340.968 73.22C341.755 72.82 342.355 72.26 342.768 71.54C343.195 70.8067 343.408 69.96 343.408 69C343.408 68.04 343.195 67.2 342.768 66.48C342.355 65.7467 341.755 65.1867 340.968 64.8C340.195 64.4 339.295 64.2 338.268 64.2H334.868V73.8H338.268ZM360.092 62V76H357.592V74.22C356.645 75.54 355.178 76.2 353.192 76.2C351.538 76.2 350.238 75.6867 349.292 74.66C348.345 73.62 347.872 72.1533 347.872 70.26V62H350.472V70.16C350.472 71.4 350.765 72.34 351.352 72.98C351.952 73.6067 352.772 73.92 353.812 73.92C354.932 73.92 355.825 73.5867 356.492 72.92C357.158 72.24 357.492 71.2333 357.492 69.9V62H360.092ZM369.151 61.8C370.404 61.8 371.498 62.0467 372.431 62.54C373.364 63.0333 374.084 63.7667 374.591 64.74C375.111 65.7 375.371 66.8667 375.371 68.24V76H372.771V72.4H365.491V76H362.931V68.24C362.931 66.8667 363.184 65.7 363.691 64.74C364.211 63.7667 364.938 63.0333 365.871 62.54C366.804 62.0467 367.898 61.8 369.151 61.8ZM372.771 70.22V68C372.771 66.7067 372.451 65.7333 371.811 65.08C371.171 64.4133 370.278 64.08 369.131 64.08C367.984 64.08 367.091 64.4133 366.451 65.08C365.811 65.7333 365.491 66.7067 365.491 68V70.22H372.771ZM384.688 76.2C383.275 76.2 381.995 75.8933 380.848 75.28C379.715 74.6533 378.821 73.7933 378.168 72.7C377.528 71.6067 377.208 70.3733 377.208 69C377.208 67.6267 377.535 66.3933 378.188 65.3C378.841 64.2067 379.735 63.3533 380.868 62.74C382.015 62.1133 383.295 61.8 384.708 61.8C385.855 61.8 386.901 62 387.848 62.4C388.795 62.8 389.595 63.38 390.248 64.14L388.568 65.72C387.555 64.6267 386.308 64.08 384.828 64.08C383.868 64.08 383.008 64.2933 382.248 64.72C381.488 65.1333 380.895 65.7133 380.468 66.46C380.041 67.2067 379.828 68.0533 379.828 69C379.828 69.9467 380.041 70.7933 380.468 71.54C380.895 72.2867 381.488 72.8733 382.248 73.3C383.008 73.7133 383.868 73.92 384.828 73.92C386.308 73.92 387.555 73.3667 388.568 72.26L390.248 73.86C389.595 74.62 388.788 75.2 387.828 75.6C386.881 76 385.835 76.2 384.688 76.2ZM383.748 80.56C383.028 80.56 382.415 80.42 381.908 80.14L382.368 78.96C382.781 79.1733 383.235 79.28 383.728 79.28C384.435 79.28 384.788 79.04 384.788 78.56C384.788 78.36 384.701 78.2 384.528 78.08C384.355 77.96 384.088 77.9 383.728 77.9H383.108L383.648 75.86H385.008L384.728 76.98C385.301 77.0467 385.735 77.2267 386.028 77.52C386.321 77.8267 386.468 78.2067 386.468 78.66C386.468 79.2333 386.221 79.6933 385.728 80.04C385.235 80.3867 384.575 80.56 383.748 80.56ZM398.039 61.8C399.293 61.8 400.386 62.0467 401.319 62.54C402.253 63.0333 402.973 63.7667 403.479 64.74C403.999 65.7 404.259 66.8667 404.259 68.24V76H401.659V72.4H394.379V76H391.819V68.24C391.819 66.8667 392.073 65.7 392.579 64.74C393.099 63.7667 393.826 63.0333 394.759 62.54C395.693 62.0467 396.786 61.8 398.039 61.8ZM401.659 70.22V68C401.659 66.7067 401.339 65.7333 400.699 65.08C400.059 64.4133 399.166 64.08 398.019 64.08C396.873 64.08 395.979 64.4133 395.339 65.08C394.699 65.7333 394.379 66.7067 394.379 68V70.22H401.659ZM399.479 60.86C399.146 60.86 398.853 60.7933 398.599 60.66C398.359 60.5267 398.059 60.3267 397.699 60.06C397.486 59.8867 397.306 59.76 397.159 59.68C397.026 59.5867 396.893 59.54 396.759 59.54C396.479 59.54 396.246 59.6467 396.059 59.86C395.886 60.0733 395.793 60.3667 395.779 60.74H394.439C394.453 59.9267 394.653 59.28 395.039 58.8C395.439 58.3067 395.959 58.06 396.599 58.06C396.933 58.06 397.219 58.1267 397.459 58.26C397.713 58.3933 398.019 58.5933 398.379 58.86C398.593 59.0333 398.766 59.1667 398.899 59.26C399.046 59.34 399.186 59.38 399.319 59.38C399.599 59.38 399.826 59.28 399.999 59.08C400.186 58.88 400.286 58.6 400.299 58.24H401.639C401.613 59.0267 401.406 59.66 401.019 60.14C400.633 60.62 400.119 60.86 399.479 60.86ZM413.636 76.2C412.21 76.2 410.923 75.8933 409.776 75.28C408.63 74.6533 407.73 73.7933 407.076 72.7C406.423 71.5933 406.096 70.36 406.096 69C406.096 67.64 406.423 66.4133 407.076 65.32C407.73 64.2133 408.63 63.3533 409.776 62.74C410.923 62.1133 412.21 61.8 413.636 61.8C415.063 61.8 416.35 62.1133 417.496 62.74C418.643 63.3533 419.543 64.2067 420.196 65.3C420.85 66.3933 421.176 67.6267 421.176 69C421.176 70.3733 420.85 71.6067 420.196 72.7C419.543 73.7933 418.643 74.6533 417.496 75.28C416.35 75.8933 415.063 76.2 413.636 76.2ZM413.636 73.92C414.57 73.92 415.41 73.7133 416.156 73.3C416.903 72.8733 417.49 72.2867 417.916 71.54C418.343 70.78 418.556 69.9333 418.556 69C418.556 68.0667 418.343 67.2267 417.916 66.48C417.49 65.72 416.903 65.1333 416.156 64.72C415.41 64.2933 414.57 64.08 413.636 64.08C412.703 64.08 411.863 64.2933 411.116 64.72C410.37 65.1333 409.783 65.72 409.356 66.48C408.93 67.2267 408.716 68.0667 408.716 69C408.716 69.9333 408.93 70.78 409.356 71.54C409.783 72.2867 410.37 72.8733 411.116 73.3C411.863 73.7133 412.703 73.92 413.636 73.92Z" fill="white"/>
</svg>
