<svg width="250" height="46" viewBox="0 0 250 46" fill="none" xmlns="http://www.w3.org/2000/svg">
<path d="M41 1V45H1V1H41Z" fill="white" stroke="black" stroke-width="2"/>
<path d="M249 1V28H54V1H249Z" fill="#0033CC" stroke="black" stroke-width="2"/>
<path d="M54 1V28H41V1H54Z" fill="#FFCC00" stroke="black" stroke-width="2"/>
<path d="M41 1V28H23V1H41Z" fill="#FF6600" stroke="black" stroke-width="2"/>
<path d="M72.98 7.8C74.2333 7.8 75.3267 8.04667 76.26 8.54C77.1933 9.03333 77.9133 9.76667 78.42 10.74C78.94 11.7 79.2 12.8667 79.2 14.24V22H76.6V18.4H69.32V22H66.76V14.24C66.76 12.8667 67.0133 11.7 67.52 10.74C68.04 9.76667 68.7667 9.03333 69.7 8.54C70.6333 8.04667 71.7267 7.8 72.98 7.8ZM76.6 16.22V14C76.6 12.7067 76.28 11.7333 75.64 11.08C75 10.4133 74.1067 10.08 72.96 10.08C71.8133 10.08 70.92 10.4133 70.28 11.08C69.64 11.7333 69.32 12.7067 69.32 14V16.22H76.6ZM74 4.12H76.94L73.46 6.86H71.3L74 4.12ZM92.397 14.84H94.857V22H92.717V21.18C91.717 21.86 90.4637 22.2 88.957 22.2C87.6637 22.2 86.477 21.92 85.397 21.36C84.317 20.8 83.4504 19.9867 82.797 18.92C82.157 17.8533 81.837 16.58 81.837 15.1C81.837 13.7 82.1637 12.4467 82.817 11.34C83.4704 10.22 84.3704 9.35333 85.517 8.74C86.677 8.11333 87.977 7.8 89.417 7.8C90.5904 7.8 91.657 7.99333 92.617 8.38C93.577 8.76667 94.3837 9.33333 95.037 10.08L93.397 11.68C92.3304 10.6133 91.0437 10.08 89.537 10.08C88.5504 10.08 87.6704 10.2933 86.897 10.72C86.137 11.1333 85.537 11.72 85.097 12.48C84.6704 13.24 84.457 14.1067 84.457 15.08C84.457 16.1067 84.6704 16.9933 85.097 17.74C85.537 18.4733 86.117 19.0333 86.837 19.42C87.557 19.7933 88.3437 19.98 89.197 19.98C89.797 19.98 90.3704 19.8867 90.917 19.7C91.477 19.5133 91.9704 19.24 92.397 18.88V14.84ZM110.386 8V22H107.886V20.22C106.94 21.54 105.473 22.2 103.486 22.2C101.833 22.2 100.533 21.6867 99.5863 20.66C98.6396 19.62 98.1663 18.1533 98.1663 16.26V8H100.766V16.16C100.766 17.4 101.06 18.34 101.646 18.98C102.246 19.6067 103.066 19.92 104.106 19.92C105.226 19.92 106.12 19.5867 106.786 18.92C107.453 18.24 107.786 17.2333 107.786 15.9V8H110.386ZM120.246 7.8C121.499 7.8 122.592 8.04667 123.526 8.54C124.459 9.03333 125.179 9.76667 125.686 10.74C126.206 11.7 126.466 12.8667 126.466 14.24V22H123.866V18.4H116.586V22H114.026V14.24C114.026 12.8667 114.279 11.7 114.786 10.74C115.306 9.76667 116.032 9.03333 116.966 8.54C117.899 8.04667 118.992 7.8 120.246 7.8ZM123.866 16.22V14C123.866 12.7067 123.546 11.7333 122.906 11.08C122.266 10.4133 121.372 10.08 120.226 10.08C119.079 10.08 118.186 10.4133 117.546 11.08C116.906 11.7333 116.586 12.7067 116.586 14V16.22H123.866ZM151.27 7.8C152.91 7.8 154.19 8.28 155.11 9.24C156.03 10.1867 156.49 11.5533 156.49 13.34V22H153.89V13.44C153.89 12.3333 153.597 11.5 153.01 10.94C152.437 10.3667 151.683 10.08 150.75 10.08C149.71 10.08 148.877 10.3733 148.25 10.96C147.637 11.5467 147.33 12.4467 147.33 13.66V22H144.73V13.44C144.73 12.32 144.457 11.48 143.91 10.92C143.377 10.36 142.643 10.08 141.71 10.08C140.657 10.08 139.81 10.38 139.17 10.98C138.543 11.5667 138.23 12.46 138.23 13.66V22H135.63V8H138.15V9.84C138.577 9.18667 139.157 8.68667 139.89 8.34C140.623 7.98 141.47 7.8 142.43 7.8C143.417 7.8 144.277 7.98667 145.01 8.36C145.743 8.73333 146.297 9.26 146.67 9.94C147.137 9.26 147.77 8.73333 148.57 8.36C149.383 7.98667 150.283 7.8 151.27 7.8ZM164.222 10.18V19.82H166.802V22H159.062V19.82H161.642V10.18H159.062V8H166.802V10.18H164.222ZM176.457 7.8C178.137 7.8 179.444 8.31333 180.377 9.34C181.324 10.3667 181.797 11.8333 181.797 13.74V22H179.197V13.84C179.197 12.6 178.897 11.6667 178.297 11.04C177.711 10.4 176.891 10.08 175.837 10.08C174.691 10.08 173.777 10.42 173.097 11.1C172.431 11.7667 172.097 12.7667 172.097 14.1V22H169.497V8H172.017V9.76C172.991 8.45333 174.471 7.8 176.457 7.8ZM196.355 20.66C195.728 21.1533 194.921 21.5333 193.935 21.8C192.948 22.0667 191.881 22.2 190.735 22.2C189.388 22.2 188.241 22.0267 187.295 21.68C186.361 21.3333 185.655 20.8533 185.175 20.24C184.695 19.6267 184.455 18.92 184.455 18.12C184.455 17.3467 184.668 16.6733 185.095 16.1C185.521 15.5267 186.095 15.1067 186.815 14.84C186.268 14.5467 185.835 14.14 185.515 13.62C185.208 13.0867 185.055 12.4933 185.055 11.84C185.055 11.0933 185.275 10.42 185.715 9.82C186.168 9.20667 186.841 8.72 187.735 8.36C188.628 7.98667 189.728 7.8 191.035 7.8C191.915 7.8 192.775 7.89333 193.615 8.08C194.455 8.26667 195.188 8.52 195.815 8.84L195.075 10.9C193.901 10.2867 192.588 9.98 191.135 9.98C189.988 9.98 189.121 10.1667 188.535 10.54C187.961 10.9 187.675 11.3867 187.675 12C187.675 12.6 187.888 13.06 188.315 13.38C188.741 13.6867 189.368 13.84 190.195 13.84H193.895V16H190.055C189.108 16 188.375 16.1667 187.855 16.5C187.335 16.82 187.075 17.3 187.075 17.94C187.075 18.58 187.388 19.0867 188.015 19.46C188.641 19.8333 189.588 20.02 190.855 20.02C191.735 20.02 192.588 19.9 193.415 19.66C194.255 19.42 194.955 19.0867 195.515 18.66L196.355 20.66ZM207.7 22L204.84 17.9C204.72 17.9133 204.54 17.92 204.3 17.92H201.14V22H198.54V8H204.3C205.513 8 206.567 8.2 207.46 8.6C208.367 9 209.06 9.57333 209.54 10.32C210.02 11.0667 210.26 11.9533 210.26 12.98C210.26 14.0333 210 14.94 209.48 15.7C208.973 16.46 208.24 17.0267 207.28 17.4L210.5 22H207.7ZM207.64 12.98C207.64 12.0867 207.347 11.4 206.76 10.92C206.173 10.44 205.313 10.2 204.18 10.2H201.14V15.78H204.18C205.313 15.78 206.173 15.54 206.76 15.06C207.347 14.5667 207.64 13.8733 207.64 12.98ZM219.269 7.8C220.522 7.8 221.616 8.04667 222.549 8.54C223.482 9.03333 224.202 9.76667 224.709 10.74C225.229 11.7 225.489 12.8667 225.489 14.24V22H222.889V18.4H215.609V22H213.049V14.24C213.049 12.8667 213.302 11.7 213.809 10.74C214.329 9.76667 215.056 9.03333 215.989 8.54C216.922 8.04667 218.016 7.8 219.269 7.8ZM222.889 16.22V14C222.889 12.7067 222.569 11.7333 221.929 11.08C221.289 10.4133 220.396 10.08 219.249 10.08C218.102 10.08 217.209 10.4133 216.569 11.08C215.929 11.7333 215.609 12.7067 215.609 14V16.22H222.889ZM229.126 8H231.726V19.8H239.046V22H229.126V8Z" fill="white"/>
</svg>
