<svg width="346" height="56" viewBox="0 0 346 56" fill="none" xmlns="http://www.w3.org/2000/svg">
<path d="M41 1V45H1V1H41Z" fill="white" stroke="black" stroke-width="2"/>
<path d="M345 1V28H54V1H345Z" fill="#0033CC" stroke="black" stroke-width="2"/>
<path d="M302 28V55H54V28H302Z" fill="#0033CC" stroke="black" stroke-width="2"/>
<path d="M54 1V28H41V1H54Z" fill="#FFCC00" stroke="black" stroke-width="2"/>
<path d="M41 1V28H23V1H41Z" fill="#FF6600" stroke="black" stroke-width="2"/>
<path d="M73.36 22.2C71.9467 22.2 70.6667 21.8933 69.52 21.28C68.3867 20.6533 67.4933 19.7933 66.84 18.7C66.2 17.6067 65.88 16.3733 65.88 15C65.88 13.6267 66.2067 12.3933 66.86 11.3C67.5133 10.2067 68.4067 9.35333 69.54 8.74C70.6867 8.11333 71.9667 7.8 73.38 7.8C74.5267 7.8 75.5733 8 76.52 8.4C77.4667 8.8 78.2667 9.38 78.92 10.14L77.24 11.72C76.2267 10.6267 74.98 10.08 73.5 10.08C72.54 10.08 71.68 10.2933 70.92 10.72C70.16 11.1333 69.5667 11.7133 69.14 12.46C68.7133 13.2067 68.5 14.0533 68.5 15C68.5 15.9467 68.7133 16.7933 69.14 17.54C69.5667 18.2867 70.16 18.8733 70.92 19.3C71.68 19.7133 72.54 19.92 73.5 19.92C74.98 19.92 76.2267 19.3667 77.24 18.26L78.92 19.86C78.2667 20.62 77.46 21.2 76.5 21.6C75.5533 22 74.5067 22.2 73.36 22.2ZM87.6583 22.2C86.2316 22.2 84.9449 21.8933 83.7983 21.28C82.6516 20.6533 81.7516 19.7933 81.0983 18.7C80.4449 17.5933 80.1183 16.36 80.1183 15C80.1183 13.64 80.4449 12.4133 81.0983 11.32C81.7516 10.2133 82.6516 9.35333 83.7983 8.74C84.9449 8.11333 86.2316 7.8 87.6583 7.8C89.0849 7.8 90.3716 8.11333 91.5183 8.74C92.6649 9.35333 93.5649 10.2067 94.2183 11.3C94.8716 12.3933 95.1983 13.6267 95.1983 15C95.1983 16.3733 94.8716 17.6067 94.2183 18.7C93.5649 19.7933 92.6649 20.6533 91.5183 21.28C90.3716 21.8933 89.0849 22.2 87.6583 22.2ZM87.6583 19.92C88.5916 19.92 89.4316 19.7133 90.1783 19.3C90.9249 18.8733 91.5116 18.2867 91.9383 17.54C92.3649 16.78 92.5783 15.9333 92.5783 15C92.5783 14.0667 92.3649 13.2267 91.9383 12.48C91.5116 11.72 90.9249 11.1333 90.1783 10.72C89.4316 10.2933 88.5916 10.08 87.6583 10.08C86.7249 10.08 85.8849 10.2933 85.1383 10.72C84.3916 11.1333 83.8049 11.72 83.3783 12.48C82.9516 13.2267 82.7383 14.0667 82.7383 15C82.7383 15.9333 82.9516 16.78 83.3783 17.54C83.8049 18.2867 84.3916 18.8733 85.1383 19.3C85.8849 19.7133 86.7249 19.92 87.6583 19.92ZM113.594 7.8C115.234 7.8 116.514 8.28 117.434 9.24C118.354 10.1867 118.814 11.5533 118.814 13.34V22H116.214V13.44C116.214 12.3333 115.921 11.5 115.334 10.94C114.761 10.3667 114.008 10.08 113.074 10.08C112.034 10.08 111.201 10.3733 110.574 10.96C109.961 11.5467 109.654 12.4467 109.654 13.66V22H107.054V13.44C107.054 12.32 106.781 11.48 106.234 10.92C105.701 10.36 104.968 10.08 104.034 10.08C102.981 10.08 102.134 10.38 101.494 10.98C100.868 11.5667 100.554 12.46 100.554 13.66V22H97.9542V8H100.474V9.84C100.901 9.18667 101.481 8.68667 102.214 8.34C102.948 7.98 103.794 7.8 104.754 7.8C105.741 7.8 106.601 7.98667 107.334 8.36C108.068 8.73333 108.621 9.26 108.994 9.94C109.461 9.26 110.094 8.73333 110.894 8.36C111.708 7.98667 112.608 7.8 113.594 7.8ZM133.366 20.66C132.74 21.1533 131.933 21.5333 130.946 21.8C129.96 22.0667 128.893 22.2 127.746 22.2C126.4 22.2 125.253 22.0267 124.306 21.68C123.373 21.3333 122.666 20.8533 122.186 20.24C121.706 19.6267 121.466 18.92 121.466 18.12C121.466 17.3467 121.68 16.6733 122.106 16.1C122.533 15.5267 123.106 15.1067 123.826 14.84C123.28 14.5467 122.846 14.14 122.526 13.62C122.22 13.0867 122.066 12.4933 122.066 11.84C122.066 11.0933 122.286 10.42 122.726 9.82C123.18 9.20667 123.853 8.72 124.746 8.36C125.64 7.98667 126.74 7.8 128.046 7.8C128.926 7.8 129.786 7.89333 130.626 8.08C131.466 8.26667 132.2 8.52 132.826 8.84L132.086 10.9C130.913 10.2867 129.6 9.98 128.146 9.98C127 9.98 126.133 10.1667 125.546 10.54C124.973 10.9 124.686 11.3867 124.686 12C124.686 12.6 124.9 13.06 125.326 13.38C125.753 13.6867 126.38 13.84 127.206 13.84H130.906V16H127.066C126.12 16 125.386 16.1667 124.866 16.5C124.346 16.82 124.086 17.3 124.086 17.94C124.086 18.58 124.4 19.0867 125.026 19.46C125.653 19.8333 126.6 20.02 127.866 20.02C128.746 20.02 129.6 19.9 130.426 19.66C131.266 19.42 131.966 19.0867 132.526 18.66L133.366 20.66ZM128.706 4.12H131.646L128.166 6.86H126.006L128.706 4.12ZM144.712 22L141.852 17.9C141.732 17.9133 141.552 17.92 141.312 17.92H138.152V22H135.552V8H141.312C142.525 8 143.579 8.2 144.472 8.6C145.379 9 146.072 9.57333 146.552 10.32C147.032 11.0667 147.272 11.9533 147.272 12.98C147.272 14.0333 147.012 14.94 146.492 15.7C145.985 16.46 145.252 17.0267 144.292 17.4L147.512 22H144.712ZM144.652 12.98C144.652 12.0867 144.359 11.4 143.772 10.92C143.185 10.44 142.325 10.2 141.192 10.2H138.152V15.78H141.192C142.325 15.78 143.185 15.54 143.772 15.06C144.359 14.5667 144.652 13.8733 144.652 12.98ZM156.661 22.2C155.247 22.2 153.967 21.8933 152.821 21.28C151.687 20.6533 150.794 19.7933 150.141 18.7C149.501 17.6067 149.181 16.3733 149.181 15C149.181 13.6267 149.507 12.3933 150.161 11.3C150.814 10.2067 151.707 9.35333 152.841 8.74C153.987 8.11333 155.267 7.8 156.681 7.8C157.827 7.8 158.874 8 159.821 8.4C160.767 8.8 161.567 9.38 162.221 10.14L160.541 11.72C159.527 10.6267 158.281 10.08 156.801 10.08C155.841 10.08 154.981 10.2933 154.221 10.72C153.461 11.1333 152.867 11.7133 152.441 12.46C152.014 13.2067 151.801 14.0533 151.801 15C151.801 15.9467 152.014 16.7933 152.441 17.54C152.867 18.2867 153.461 18.8733 154.221 19.3C154.981 19.7133 155.841 19.92 156.801 19.92C158.281 19.92 159.527 19.3667 160.541 18.26L162.221 19.86C161.567 20.62 160.761 21.2 159.801 21.6C158.854 22 157.807 22.2 156.661 22.2ZM168.812 10.18V19.82H171.392V22H163.652V19.82H166.232V10.18H163.652V8H171.392V10.18H168.812ZM180.529 22.2C179.103 22.2 177.816 21.8933 176.669 21.28C175.523 20.6533 174.623 19.7933 173.969 18.7C173.316 17.5933 172.989 16.36 172.989 15C172.989 13.64 173.316 12.4133 173.969 11.32C174.623 10.2133 175.523 9.35333 176.669 8.74C177.816 8.11333 179.103 7.8 180.529 7.8C181.956 7.8 183.243 8.11333 184.389 8.74C185.536 9.35333 186.436 10.2067 187.089 11.3C187.743 12.3933 188.069 13.6267 188.069 15C188.069 16.3733 187.743 17.6067 187.089 18.7C186.436 19.7933 185.536 20.6533 184.389 21.28C183.243 21.8933 181.956 22.2 180.529 22.2ZM180.529 19.92C181.463 19.92 182.303 19.7133 183.049 19.3C183.796 18.8733 184.383 18.2867 184.809 17.54C185.236 16.78 185.449 15.9333 185.449 15C185.449 14.0667 185.236 13.2267 184.809 12.48C184.383 11.72 183.796 11.1333 183.049 10.72C182.303 10.2933 181.463 10.08 180.529 10.08C179.596 10.08 178.756 10.2933 178.009 10.72C177.263 11.1333 176.676 11.72 176.249 12.48C175.823 13.2267 175.609 14.0667 175.609 15C175.609 15.9333 175.823 16.78 176.249 17.54C176.676 18.2867 177.263 18.8733 178.009 19.3C178.756 19.7133 179.596 19.92 180.529 19.92ZM202.453 7.8C203.706 7.8 204.799 8.04667 205.733 8.54C206.666 9.03333 207.386 9.76667 207.893 10.74C208.413 11.7 208.673 12.8667 208.673 14.24V22H206.073V18.4H198.793V22H196.233V14.24C196.233 12.8667 196.486 11.7 196.993 10.74C197.513 9.76667 198.239 9.03333 199.173 8.54C200.106 8.04667 201.199 7.8 202.453 7.8ZM206.073 16.22V14C206.073 12.7067 205.753 11.7333 205.113 11.08C204.473 10.4133 203.579 10.08 202.433 10.08C201.286 10.08 200.393 10.4133 199.753 11.08C199.113 11.7333 198.793 12.7067 198.793 14V16.22H206.073ZM221.834 11.48C220.514 10.7333 219.141 10.28 217.714 10.12V22H215.114V10.12C213.674 10.28 212.294 10.7333 210.974 11.48L210.074 9.48C211.008 8.92 212.008 8.5 213.074 8.22C214.154 7.94 215.261 7.8 216.394 7.8C217.528 7.8 218.634 7.94 219.714 8.22C220.794 8.5 221.801 8.92 222.734 9.48L221.834 11.48ZM230.363 7.8C231.616 7.8 232.709 8.04667 233.643 8.54C234.576 9.03333 235.296 9.76667 235.803 10.74C236.323 11.7 236.583 12.8667 236.583 14.24V22H233.983V18.4H226.703V22H224.143V14.24C224.143 12.8667 224.396 11.7 224.903 10.74C225.423 9.76667 226.149 9.03333 227.083 8.54C228.016 8.04667 229.109 7.8 230.363 7.8ZM233.983 16.22V14C233.983 12.7067 233.663 11.7333 233.023 11.08C232.383 10.4133 231.489 10.08 230.343 10.08C229.196 10.08 228.303 10.4133 227.663 11.08C227.023 11.7333 226.703 12.7067 226.703 14V16.22H233.983ZM246.7 22.2C245.287 22.2 244.007 21.8933 242.86 21.28C241.727 20.6533 240.833 19.7933 240.18 18.7C239.54 17.6067 239.22 16.3733 239.22 15C239.22 13.6267 239.547 12.3933 240.2 11.3C240.853 10.2067 241.747 9.35333 242.88 8.74C244.027 8.11333 245.307 7.8 246.72 7.8C247.867 7.8 248.913 8 249.86 8.4C250.807 8.8 251.607 9.38 252.26 10.14L250.58 11.72C249.567 10.6267 248.32 10.08 246.84 10.08C245.88 10.08 245.02 10.2933 244.26 10.72C243.5 11.1333 242.907 11.7133 242.48 12.46C242.053 13.2067 241.84 14.0533 241.84 15C241.84 15.9467 242.053 16.7933 242.48 17.54C242.907 18.2867 243.5 18.8733 244.26 19.3C245.02 19.7133 245.88 19.92 246.84 19.92C248.32 19.92 249.567 19.3667 250.58 18.26L252.26 19.86C251.607 20.62 250.8 21.2 249.84 21.6C248.893 22 247.847 22.2 246.7 22.2ZM260.851 7.8C262.104 7.8 263.198 8.04667 264.131 8.54C265.064 9.03333 265.784 9.76667 266.291 10.74C266.811 11.7 267.071 12.8667 267.071 14.24V22H264.471V18.4H257.191V22H254.631V14.24C254.631 12.8667 254.884 11.7 255.391 10.74C255.911 9.76667 256.638 9.03333 257.571 8.54C258.504 8.04667 259.598 7.8 260.851 7.8ZM264.471 16.22V14C264.471 12.7067 264.151 11.7333 263.511 11.08C262.871 10.4133 261.978 10.08 260.831 10.08C259.684 10.08 258.791 10.4133 258.151 11.08C257.511 11.7333 257.191 12.7067 257.191 14V16.22H264.471ZM270.708 8H276.828C278.321 8 279.648 8.29333 280.808 8.88C281.968 9.45333 282.868 10.2733 283.508 11.34C284.148 12.3933 284.468 13.6133 284.468 15C284.468 16.3867 284.148 17.6133 283.508 18.68C282.868 19.7333 281.968 20.5533 280.808 21.14C279.648 21.7133 278.321 22 276.828 22H270.708V8ZM276.708 19.8C277.735 19.8 278.635 19.6067 279.408 19.22C280.195 18.82 280.795 18.26 281.208 17.54C281.635 16.8067 281.848 15.96 281.848 15C281.848 14.04 281.635 13.2 281.208 12.48C280.795 11.7467 280.195 11.1867 279.408 10.8C278.635 10.4 277.735 10.2 276.708 10.2H273.308V19.8H276.708ZM291.234 10.18V19.82H293.814V22H286.074V19.82H288.654V10.18H286.074V8H293.814V10.18H291.234ZM300.849 22.2C299.769 22.2 298.722 22.0467 297.709 21.74C296.709 21.4333 295.916 21.0267 295.329 20.52L296.229 18.5C296.802 18.9533 297.502 19.3267 298.329 19.62C299.169 19.9 300.009 20.04 300.849 20.04C301.889 20.04 302.662 19.8733 303.169 19.54C303.689 19.2067 303.949 18.7667 303.949 18.22C303.949 17.82 303.802 17.4933 303.509 17.24C303.229 16.9733 302.869 16.7667 302.429 16.62C301.989 16.4733 301.389 16.3067 300.629 16.12C299.562 15.8667 298.696 15.6133 298.029 15.36C297.376 15.1067 296.809 14.7133 296.329 14.18C295.862 13.6333 295.629 12.9 295.629 11.98C295.629 11.2067 295.836 10.5067 296.249 9.88C296.676 9.24 297.309 8.73333 298.149 8.36C299.002 7.98667 300.042 7.8 301.269 7.8C302.122 7.8 302.962 7.90667 303.789 8.12C304.616 8.33333 305.329 8.64 305.929 9.04L305.109 11.06C304.496 10.7 303.856 10.4267 303.189 10.24C302.522 10.0533 301.876 9.96 301.249 9.96C300.222 9.96 299.456 10.1333 298.949 10.48C298.456 10.8267 298.209 11.2867 298.209 11.86C298.209 12.26 298.349 12.5867 298.629 12.84C298.922 13.0933 299.289 13.2933 299.729 13.44C300.169 13.5867 300.769 13.7533 301.529 13.94C302.569 14.18 303.422 14.4333 304.089 14.7C304.756 14.9533 305.322 15.3467 305.789 15.88C306.269 16.4133 306.509 17.1333 306.509 18.04C306.509 18.8133 306.296 19.5133 305.869 20.14C305.456 20.7667 304.822 21.2667 303.969 21.64C303.116 22.0133 302.076 22.2 300.849 22.2ZM318.651 11.48C317.331 10.7333 315.957 10.28 314.531 10.12V22H311.931V10.12C310.491 10.28 309.111 10.7333 307.791 11.48L306.891 9.48C307.824 8.92 308.824 8.5 309.891 8.22C310.971 7.94 312.077 7.8 313.211 7.8C314.344 7.8 315.451 7.94 316.531 8.22C317.611 8.5 318.617 8.92 319.551 9.48L318.651 11.48ZM327.179 7.8C328.433 7.8 329.526 8.04667 330.459 8.54C331.393 9.03333 332.113 9.76667 332.619 10.74C333.139 11.7 333.399 12.8667 333.399 14.24V22H330.799V18.4H323.519V22H320.959V14.24C320.959 12.8667 321.213 11.7 321.719 10.74C322.239 9.76667 322.966 9.03333 323.899 8.54C324.833 8.04667 325.926 7.8 327.179 7.8ZM330.799 16.22V14C330.799 12.7067 330.479 11.7333 329.839 11.08C329.199 10.4133 328.306 10.08 327.159 10.08C326.013 10.08 325.119 10.4133 324.479 11.08C323.839 11.7333 323.519 12.7067 323.519 14V16.22H330.799Z" fill="white"/>
<path d="M66.88 35H73C74.4933 35 75.82 35.2933 76.98 35.88C78.14 36.4533 79.04 37.2733 79.68 38.34C80.32 39.3933 80.64 40.6133 80.64 42C80.64 43.3867 80.32 44.6133 79.68 45.68C79.04 46.7333 78.14 47.5533 76.98 48.14C75.82 48.7133 74.4933 49 73 49H66.88V35ZM72.88 46.8C73.9067 46.8 74.8067 46.6067 75.58 46.22C76.3667 45.82 76.9667 45.26 77.38 44.54C77.8067 43.8067 78.02 42.96 78.02 42C78.02 41.04 77.8067 40.2 77.38 39.48C76.9667 38.7467 76.3667 38.1867 75.58 37.8C74.8067 37.4 73.9067 37.2 72.88 37.2H69.48V46.8H72.88ZM94.3234 47.66C93.6968 48.1533 92.8901 48.5333 91.9034 48.8C90.9168 49.0667 89.8501 49.2 88.7034 49.2C87.3568 49.2 86.2101 49.0267 85.2634 48.68C84.3301 48.3333 83.6234 47.8533 83.1434 47.24C82.6634 46.6267 82.4234 45.92 82.4234 45.12C82.4234 44.3467 82.6368 43.6733 83.0634 43.1C83.4901 42.5267 84.0634 42.1067 84.7834 41.84C84.2368 41.5467 83.8034 41.14 83.4834 40.62C83.1768 40.0867 83.0234 39.4933 83.0234 38.84C83.0234 38.0933 83.2434 37.42 83.6834 36.82C84.1368 36.2067 84.8101 35.72 85.7034 35.36C86.5968 34.9867 87.6968 34.8 89.0034 34.8C89.8834 34.8 90.7434 34.8933 91.5834 35.08C92.4234 35.2667 93.1568 35.52 93.7834 35.84L93.0434 37.9C91.8701 37.2867 90.5568 36.98 89.1034 36.98C87.9568 36.98 87.0901 37.1667 86.5034 37.54C85.9301 37.9 85.6434 38.3867 85.6434 39C85.6434 39.6 85.8568 40.06 86.2834 40.38C86.7101 40.6867 87.3368 40.84 88.1634 40.84H91.8634V43H88.0234C87.0768 43 86.3434 43.1667 85.8234 43.5C85.3034 43.82 85.0434 44.3 85.0434 44.94C85.0434 45.58 85.3568 46.0867 85.9834 46.46C86.6101 46.8333 87.5568 47.02 88.8234 47.02C89.7034 47.02 90.5568 46.9 91.3834 46.66C92.2234 46.42 92.9234 46.0867 93.4834 45.66L94.3234 47.66ZM108.136 34.8C109.39 34.8 110.483 35.0467 111.416 35.54C112.35 36.0333 113.07 36.7667 113.576 37.74C114.096 38.7 114.356 39.8667 114.356 41.24V49H111.756V45.4H104.476V49H101.916V41.24C101.916 39.8667 102.17 38.7 102.676 37.74C103.196 36.7667 103.923 36.0333 104.856 35.54C105.79 35.0467 106.883 34.8 108.136 34.8ZM111.756 43.22V41C111.756 39.7067 111.436 38.7333 110.796 38.08C110.156 37.4133 109.263 37.08 108.116 37.08C106.97 37.08 106.076 37.4133 105.436 38.08C104.796 38.7333 104.476 39.7067 104.476 41V43.22H111.756ZM124.473 49.2C123.06 49.2 121.78 48.8933 120.633 48.28C119.5 47.6533 118.607 46.7933 117.953 45.7C117.313 44.6067 116.993 43.3733 116.993 42C116.993 40.6267 117.32 39.3933 117.973 38.3C118.627 37.2067 119.52 36.3533 120.653 35.74C121.8 35.1133 123.08 34.8 124.493 34.8C125.64 34.8 126.687 35 127.633 35.4C128.58 35.8 129.38 36.38 130.033 37.14L128.353 38.72C127.34 37.6267 126.093 37.08 124.613 37.08C123.653 37.08 122.793 37.2933 122.033 37.72C121.273 38.1333 120.68 38.7133 120.253 39.46C119.827 40.2067 119.613 41.0533 119.613 42C119.613 42.9467 119.827 43.7933 120.253 44.54C120.68 45.2867 121.273 45.8733 122.033 46.3C122.793 46.7133 123.653 46.92 124.613 46.92C126.093 46.92 127.34 46.3667 128.353 45.26L130.033 46.86C129.38 47.62 128.573 48.2 127.613 48.6C126.667 49 125.62 49.2 124.473 49.2ZM123.533 53.56C122.813 53.56 122.2 53.42 121.693 53.14L122.153 51.96C122.567 52.1733 123.02 52.28 123.513 52.28C124.22 52.28 124.573 52.04 124.573 51.56C124.573 51.36 124.487 51.2 124.313 51.08C124.14 50.96 123.873 50.9 123.513 50.9H122.893L123.433 48.86H124.793L124.513 49.98C125.087 50.0467 125.52 50.2267 125.813 50.52C126.107 50.8267 126.253 51.2067 126.253 51.66C126.253 52.2333 126.007 52.6933 125.513 53.04C125.02 53.3867 124.36 53.56 123.533 53.56ZM138.772 49.2C137.345 49.2 136.058 48.8933 134.912 48.28C133.765 47.6533 132.865 46.7933 132.212 45.7C131.558 44.5933 131.232 43.36 131.232 42C131.232 40.64 131.558 39.4133 132.212 38.32C132.865 37.2133 133.765 36.3533 134.912 35.74C136.058 35.1133 137.345 34.8 138.772 34.8C140.198 34.8 141.485 35.1133 142.632 35.74C143.778 36.3533 144.678 37.2067 145.332 38.3C145.985 39.3933 146.312 40.6267 146.312 42C146.312 43.3733 145.985 44.6067 145.332 45.7C144.678 46.7933 143.778 47.6533 142.632 48.28C141.485 48.8933 140.198 49.2 138.772 49.2ZM138.772 46.92C139.705 46.92 140.545 46.7133 141.292 46.3C142.038 45.8733 142.625 45.2867 143.052 44.54C143.478 43.78 143.692 42.9333 143.692 42C143.692 41.0667 143.478 40.2267 143.052 39.48C142.625 38.72 142.038 38.1333 141.292 37.72C140.545 37.2933 139.705 37.08 138.772 37.08C137.838 37.08 136.998 37.2933 136.252 37.72C135.505 38.1333 134.918 38.72 134.492 39.48C134.065 40.2267 133.852 41.0667 133.852 42C133.852 42.9333 134.065 43.78 134.492 44.54C134.918 45.2867 135.505 45.8733 136.252 46.3C136.998 46.7133 137.838 46.92 138.772 46.92ZM158.715 32.16H160.955L154.355 51H152.115L158.715 32.16ZM173.664 37.08C172.464 37.08 171.557 37.3467 170.944 37.88C170.331 38.4133 170.024 39.2 170.024 40.24V41.44H176.124V43.64H170.024V49H167.424V40.24C167.424 38.5467 167.964 37.22 169.044 36.26C170.137 35.2867 171.637 34.8 173.544 34.8C174.344 34.8 175.091 34.8867 175.784 35.06C176.477 35.2333 177.084 35.4867 177.604 35.82L176.784 37.94C175.957 37.3667 174.917 37.08 173.664 37.08ZM190.28 47.66C189.654 48.1533 188.847 48.5333 187.86 48.8C186.874 49.0667 185.807 49.2 184.66 49.2C183.314 49.2 182.167 49.0267 181.22 48.68C180.287 48.3333 179.58 47.8533 179.1 47.24C178.62 46.6267 178.38 45.92 178.38 45.12C178.38 44.3467 178.594 43.6733 179.02 43.1C179.447 42.5267 180.02 42.1067 180.74 41.84C180.194 41.5467 179.76 41.14 179.44 40.62C179.134 40.0867 178.98 39.4933 178.98 38.84C178.98 38.0933 179.2 37.42 179.64 36.82C180.094 36.2067 180.767 35.72 181.66 35.36C182.554 34.9867 183.654 34.8 184.96 34.8C185.84 34.8 186.7 34.8933 187.54 35.08C188.38 35.2667 189.114 35.52 189.74 35.84L189 37.9C187.827 37.2867 186.514 36.98 185.06 36.98C183.914 36.98 183.047 37.1667 182.46 37.54C181.887 37.9 181.6 38.3867 181.6 39C181.6 39.6 181.814 40.06 182.24 40.38C182.667 40.6867 183.294 40.84 184.12 40.84H187.82V43H183.98C183.034 43 182.3 43.1667 181.78 43.5C181.26 43.82 181 44.3 181 44.94C181 45.58 181.314 46.0867 181.94 46.46C182.567 46.8333 183.514 47.02 184.78 47.02C185.66 47.02 186.514 46.9 187.34 46.66C188.18 46.42 188.88 46.0867 189.44 45.66L190.28 47.66ZM201.626 49L198.766 44.9C198.646 44.9133 198.466 44.92 198.226 44.92H195.066V49H192.466V35H198.226C199.439 35 200.493 35.2 201.386 35.6C202.293 36 202.986 36.5733 203.466 37.32C203.946 38.0667 204.186 38.9533 204.186 39.98C204.186 41.0333 203.926 41.94 203.406 42.7C202.899 43.46 202.166 44.0267 201.206 44.4L204.426 49H201.626ZM201.566 39.98C201.566 39.0867 201.273 38.4 200.686 37.92C200.099 37.44 199.239 37.2 198.106 37.2H195.066V42.78H198.106C199.239 42.78 200.099 42.54 200.686 42.06C201.273 41.5667 201.566 40.8733 201.566 39.98ZM216.255 49L213.395 44.9C213.275 44.9133 213.095 44.92 212.855 44.92H209.695V49H207.095V35H212.855C214.068 35 215.122 35.2 216.015 35.6C216.922 36 217.615 36.5733 218.095 37.32C218.575 38.0667 218.815 38.9533 218.815 39.98C218.815 41.0333 218.555 41.94 218.035 42.7C217.528 43.46 216.795 44.0267 215.835 44.4L219.055 49H216.255ZM216.195 39.98C216.195 39.0867 215.902 38.4 215.315 37.92C214.728 37.44 213.868 37.2 212.735 37.2H209.695V42.78H212.735C213.868 42.78 214.728 42.54 215.315 42.06C215.902 41.5667 216.195 40.8733 216.195 39.98ZM227.824 34.8C229.077 34.8 230.17 35.0467 231.104 35.54C232.037 36.0333 232.757 36.7667 233.264 37.74C233.784 38.7 234.044 39.8667 234.044 41.24V49H231.444V45.4H224.164V49H221.604V41.24C221.604 39.8667 221.857 38.7 222.364 37.74C222.884 36.7667 223.61 36.0333 224.544 35.54C225.477 35.0467 226.57 34.8 227.824 34.8ZM231.444 43.22V41C231.444 39.7067 231.124 38.7333 230.484 38.08C229.844 37.4133 228.95 37.08 227.804 37.08C226.657 37.08 225.764 37.4133 225.124 38.08C224.484 38.7333 224.164 39.7067 224.164 41V43.22H231.444ZM247.241 41.84H249.701V49H247.561V48.18C246.561 48.86 245.307 49.2 243.801 49.2C242.507 49.2 241.321 48.92 240.241 48.36C239.161 47.8 238.294 46.9867 237.641 45.92C237.001 44.8533 236.681 43.58 236.681 42.1C236.681 40.7 237.007 39.4467 237.661 38.34C238.314 37.22 239.214 36.3533 240.361 35.74C241.521 35.1133 242.821 34.8 244.261 34.8C245.434 34.8 246.501 34.9933 247.461 35.38C248.421 35.7667 249.227 36.3333 249.881 37.08L248.241 38.68C247.174 37.6133 245.887 37.08 244.381 37.08C243.394 37.08 242.514 37.2933 241.741 37.72C240.981 38.1333 240.381 38.72 239.941 39.48C239.514 40.24 239.301 41.1067 239.301 42.08C239.301 43.1067 239.514 43.9933 239.941 44.74C240.381 45.4733 240.961 46.0333 241.681 46.42C242.401 46.7933 243.187 46.98 244.041 46.98C244.641 46.98 245.214 46.8867 245.761 46.7C246.321 46.5133 246.814 46.24 247.241 45.88V41.84ZM264.05 47.66C263.423 48.1533 262.617 48.5333 261.63 48.8C260.643 49.0667 259.577 49.2 258.43 49.2C257.083 49.2 255.937 49.0267 254.99 48.68C254.057 48.3333 253.35 47.8533 252.87 47.24C252.39 46.6267 252.15 45.92 252.15 45.12C252.15 44.3467 252.363 43.6733 252.79 43.1C253.217 42.5267 253.79 42.1067 254.51 41.84C253.963 41.5467 253.53 41.14 253.21 40.62C252.903 40.0867 252.75 39.4933 252.75 38.84C252.75 38.0933 252.97 37.42 253.41 36.82C253.863 36.2067 254.537 35.72 255.43 35.36C256.323 34.9867 257.423 34.8 258.73 34.8C259.61 34.8 260.47 34.8933 261.31 35.08C262.15 35.2667 262.883 35.52 263.51 35.84L262.77 37.9C261.597 37.2867 260.283 36.98 258.83 36.98C257.683 36.98 256.817 37.1667 256.23 37.54C255.657 37.9 255.37 38.3867 255.37 39C255.37 39.6 255.583 40.06 256.01 40.38C256.437 40.6867 257.063 40.84 257.89 40.84H261.59V43H257.75C256.803 43 256.07 43.1667 255.55 43.5C255.03 43.82 254.77 44.3 254.77 44.94C254.77 45.58 255.083 46.0867 255.71 46.46C256.337 46.8333 257.283 47.02 258.55 47.02C259.43 47.02 260.283 46.9 261.11 46.66C261.95 46.42 262.65 46.0867 263.21 45.66L264.05 47.66ZM273.195 34.8C274.875 34.8 276.182 35.3133 277.115 36.34C278.062 37.3667 278.535 38.8333 278.535 40.74V49H275.935V40.84C275.935 39.6 275.635 38.6667 275.035 38.04C274.449 37.4 273.629 37.08 272.575 37.08C271.429 37.08 270.515 37.42 269.835 38.1C269.169 38.7667 268.835 39.7667 268.835 41.1V49H266.235V35H268.755V36.76C269.729 35.4533 271.209 34.8 273.195 34.8ZM286.513 49.2C285.433 49.2 284.386 49.0467 283.373 48.74C282.373 48.4333 281.58 48.0267 280.993 47.52L281.893 45.5C282.466 45.9533 283.166 46.3267 283.993 46.62C284.833 46.9 285.673 47.04 286.513 47.04C287.553 47.04 288.326 46.8733 288.833 46.54C289.353 46.2067 289.613 45.7667 289.613 45.22C289.613 44.82 289.466 44.4933 289.173 44.24C288.893 43.9733 288.533 43.7667 288.093 43.62C287.653 43.4733 287.053 43.3067 286.293 43.12C285.226 42.8667 284.36 42.6133 283.693 42.36C283.04 42.1067 282.473 41.7133 281.993 41.18C281.526 40.6333 281.293 39.9 281.293 38.98C281.293 38.2067 281.5 37.5067 281.913 36.88C282.34 36.24 282.973 35.7333 283.813 35.36C284.666 34.9867 285.706 34.8 286.933 34.8C287.786 34.8 288.626 34.9067 289.453 35.12C290.28 35.3333 290.993 35.64 291.593 36.04L290.773 38.06C290.16 37.7 289.52 37.4267 288.853 37.24C288.186 37.0533 287.54 36.96 286.913 36.96C285.886 36.96 285.12 37.1333 284.613 37.48C284.12 37.8267 283.873 38.2867 283.873 38.86C283.873 39.26 284.013 39.5867 284.293 39.84C284.586 40.0933 284.953 40.2933 285.393 40.44C285.833 40.5867 286.433 40.7533 287.193 40.94C288.233 41.18 289.086 41.4333 289.753 41.7C290.42 41.9533 290.986 42.3467 291.453 42.88C291.933 43.4133 292.173 44.1333 292.173 45.04C292.173 45.8133 291.96 46.5133 291.533 47.14C291.12 47.7667 290.486 48.2667 289.633 48.64C288.78 49.0133 287.74 49.2 286.513 49.2Z" fill="white"/>
</svg>
