<svg width="426" height="46" viewBox="0 0 426 46" fill="none" xmlns="http://www.w3.org/2000/svg">
<path d="M41 1V45H1V1H41Z" fill="white" stroke="black" stroke-width="2"/>
<path d="M425 1V28H54V1H425Z" fill="#0033CC" stroke="black" stroke-width="2"/>
<path d="M54 1V28H41V1H54Z" fill="#FFCC00" stroke="black" stroke-width="2"/>
<path d="M41 1V28H23V1H41Z" fill="#FF6600" stroke="black" stroke-width="2"/>
<path d="M66.88 8H69.48V19.8H76.8V22H66.88V8ZM85.1388 22.2C83.7121 22.2 82.4254 21.8933 81.2788 21.28C80.1321 20.6533 79.2321 19.7933 78.5788 18.7C77.9254 17.5933 77.5988 16.36 77.5988 15C77.5988 13.64 77.9254 12.4133 78.5788 11.32C79.2321 10.2133 80.1321 9.35333 81.2788 8.74C82.4254 8.11333 83.7121 7.8 85.1388 7.8C86.5654 7.8 87.8521 8.11333 88.9988 8.74C90.1454 9.35333 91.0454 10.2067 91.6988 11.3C92.3521 12.3933 92.6788 13.6267 92.6788 15C92.6788 16.3733 92.3521 17.6067 91.6988 18.7C91.0454 19.7933 90.1454 20.6533 88.9988 21.28C87.8521 21.8933 86.5654 22.2 85.1388 22.2ZM85.1388 19.92C86.0721 19.92 86.9121 19.7133 87.6588 19.3C88.4054 18.8733 88.9921 18.2867 89.4188 17.54C89.8454 16.78 90.0588 15.9333 90.0588 15C90.0588 14.0667 89.8454 13.2267 89.4188 12.48C88.9921 11.72 88.4054 11.1333 87.6588 10.72C86.9121 10.2933 86.0721 10.08 85.1388 10.08C84.2054 10.08 83.3654 10.2933 82.6188 10.72C81.8721 11.1333 81.2854 11.72 80.8588 12.48C80.4321 13.2267 80.2188 14.0667 80.2188 15C80.2188 15.9333 80.4321 16.78 80.8588 17.54C81.2854 18.2867 81.8721 18.8733 82.6188 19.3C83.3654 19.7133 84.2054 19.92 85.1388 19.92ZM96.9492 24.2C96.0692 24.2 95.2559 24.0267 94.5092 23.68C93.7759 23.3333 93.1692 22.8333 92.6892 22.18L94.1292 20.4C94.8892 21.4667 95.8026 22 96.8692 22C98.3492 22 99.0892 21.14 99.0892 19.42V10.18H94.0892V8H101.669V19.28C101.669 20.92 101.269 22.1467 100.469 22.96C99.6692 23.7867 98.4959 24.2 96.9492 24.2ZM111.418 7.8C112.671 7.8 113.764 8.04667 114.698 8.54C115.631 9.03333 116.351 9.76667 116.858 10.74C117.378 11.7 117.638 12.8667 117.638 14.24V22H115.038V18.4H107.758V22H105.198V14.24C105.198 12.8667 105.451 11.7 105.958 10.74C106.478 9.76667 107.204 9.03333 108.138 8.54C109.071 8.04667 110.164 7.8 111.418 7.8ZM115.038 16.22V14C115.038 12.7067 114.718 11.7333 114.078 11.08C113.438 10.4133 112.544 10.08 111.398 10.08C110.251 10.08 109.358 10.4133 108.717 11.08C108.078 11.7333 107.758 12.7067 107.758 14V16.22H115.038ZM126.802 8H132.922C134.415 8 135.742 8.29333 136.902 8.88C138.062 9.45333 138.962 10.2733 139.602 11.34C140.242 12.3933 140.562 13.6133 140.562 15C140.562 16.3867 140.242 17.6133 139.602 18.68C138.962 19.7333 138.062 20.5533 136.902 21.14C135.742 21.7133 134.415 22 132.922 22H126.802V8ZM132.802 19.8C133.829 19.8 134.729 19.6067 135.502 19.22C136.289 18.82 136.889 18.26 137.302 17.54C137.729 16.8067 137.942 15.96 137.942 15C137.942 14.04 137.729 13.2 137.302 12.48C136.889 11.7467 136.289 11.1867 135.502 10.8C134.729 10.4 133.829 10.2 132.802 10.2H129.402V19.8H132.802ZM154.245 20.66C153.619 21.1533 152.812 21.5333 151.825 21.8C150.839 22.0667 149.772 22.2 148.625 22.2C147.279 22.2 146.132 22.0267 145.185 21.68C144.252 21.3333 143.545 20.8533 143.065 20.24C142.585 19.6267 142.345 18.92 142.345 18.12C142.345 17.3467 142.559 16.6733 142.985 16.1C143.412 15.5267 143.985 15.1067 144.705 14.84C144.159 14.5467 143.725 14.14 143.405 13.62C143.099 13.0867 142.945 12.4933 142.945 11.84C142.945 11.0933 143.165 10.42 143.605 9.82C144.059 9.20667 144.732 8.72 145.625 8.36C146.519 7.98667 147.619 7.8 148.925 7.8C149.805 7.8 150.665 7.89333 151.505 8.08C152.345 8.26667 153.079 8.52 153.705 8.84L152.965 10.9C151.792 10.2867 150.479 9.98 149.025 9.98C147.879 9.98 147.012 10.1667 146.425 10.54C145.852 10.9 145.565 11.3867 145.565 12C145.565 12.6 145.779 13.06 146.205 13.38C146.632 13.6867 147.259 13.84 148.085 13.84H151.785V16H147.945C146.999 16 146.265 16.1667 145.745 16.5C145.225 16.82 144.965 17.3 144.965 17.94C144.965 18.58 145.279 19.0867 145.905 19.46C146.532 19.8333 147.479 20.02 148.745 20.02C149.625 20.02 150.479 19.9 151.305 19.66C152.145 19.42 152.845 19.0867 153.405 18.66L154.245 20.66ZM177.598 7.8C179.238 7.8 180.518 8.28 181.438 9.24C182.358 10.1867 182.818 11.5533 182.818 13.34V22H180.218V13.44C180.218 12.3333 179.925 11.5 179.338 10.94C178.765 10.3667 178.011 10.08 177.078 10.08C176.038 10.08 175.205 10.3733 174.578 10.96C173.965 11.5467 173.658 12.4467 173.658 13.66V22H171.058V13.44C171.058 12.32 170.785 11.48 170.238 10.92C169.705 10.36 168.971 10.08 168.038 10.08C166.985 10.08 166.138 10.38 165.498 10.98C164.871 11.5667 164.558 12.46 164.558 13.66V22H161.958V8H164.478V9.84C164.905 9.18667 165.485 8.68667 166.218 8.34C166.951 7.98 167.798 7.8 168.758 7.8C169.745 7.8 170.605 7.98667 171.338 8.36C172.071 8.73333 172.625 9.26 172.998 9.94C173.465 9.26 174.098 8.73333 174.898 8.36C175.711 7.98667 176.611 7.8 177.598 7.8ZM192.99 22.2C191.564 22.2 190.277 21.8933 189.13 21.28C187.984 20.6533 187.084 19.7933 186.43 18.7C185.777 17.5933 185.45 16.36 185.45 15C185.45 13.64 185.777 12.4133 186.43 11.32C187.084 10.2133 187.984 9.35333 189.13 8.74C190.277 8.11333 191.564 7.8 192.99 7.8C194.417 7.8 195.704 8.11333 196.85 8.74C197.997 9.35333 198.897 10.2067 199.55 11.3C200.204 12.3933 200.53 13.6267 200.53 15C200.53 16.3733 200.204 17.6067 199.55 18.7C198.897 19.7933 197.997 20.6533 196.85 21.28C195.704 21.8933 194.417 22.2 192.99 22.2ZM192.99 19.92C193.924 19.92 194.764 19.7133 195.51 19.3C196.257 18.8733 196.844 18.2867 197.27 17.54C197.697 16.78 197.91 15.9333 197.91 15C197.91 14.0667 197.697 13.2267 197.27 12.48C196.844 11.72 196.257 11.1333 195.51 10.72C194.764 10.2933 193.924 10.08 192.99 10.08C192.057 10.08 191.217 10.2933 190.47 10.72C189.724 11.1333 189.137 11.72 188.71 12.48C188.284 13.2267 188.07 14.0667 188.07 15C188.07 15.9333 188.284 16.78 188.71 17.54C189.137 18.2867 189.724 18.8733 190.47 19.3C191.217 19.7133 192.057 19.92 192.99 19.92ZM212.811 11.48C211.491 10.7333 210.118 10.28 208.691 10.12V22H206.091V10.12C204.651 10.28 203.271 10.7333 201.951 11.48L201.051 9.48C201.984 8.92 202.984 8.5 204.051 8.22C205.131 7.94 206.238 7.8 207.371 7.8C208.504 7.8 209.611 7.94 210.691 8.22C211.771 8.5 212.778 8.92 213.711 9.48L212.811 11.48ZM221.779 22.2C220.353 22.2 219.066 21.8933 217.919 21.28C216.773 20.6533 215.873 19.7933 215.219 18.7C214.566 17.5933 214.239 16.36 214.239 15C214.239 13.64 214.566 12.4133 215.219 11.32C215.873 10.2133 216.773 9.35333 217.919 8.74C219.066 8.11333 220.353 7.8 221.779 7.8C223.206 7.8 224.493 8.11333 225.639 8.74C226.786 9.35333 227.686 10.2067 228.339 11.3C228.993 12.3933 229.319 13.6267 229.319 15C229.319 16.3733 228.993 17.6067 228.339 18.7C227.686 19.7933 226.786 20.6533 225.639 21.28C224.493 21.8933 223.206 22.2 221.779 22.2ZM221.779 19.92C222.713 19.92 223.553 19.7133 224.299 19.3C225.046 18.8733 225.633 18.2867 226.059 17.54C226.486 16.78 226.699 15.9333 226.699 15C226.699 14.0667 226.486 13.2267 226.059 12.48C225.633 11.72 225.046 11.1333 224.299 10.72C223.553 10.2933 222.713 10.08 221.779 10.08C220.846 10.08 220.006 10.2933 219.259 10.72C218.513 11.1333 217.926 11.72 217.499 12.48C217.073 13.2267 216.859 14.0667 216.859 15C216.859 15.9333 217.073 16.78 217.499 17.54C217.926 18.2867 218.513 18.8733 219.259 19.3C220.006 19.7133 220.846 19.92 221.779 19.92ZM238.555 22.2C237.142 22.2 235.862 21.8933 234.715 21.28C233.582 20.6533 232.689 19.7933 232.035 18.7C231.395 17.6067 231.075 16.3733 231.075 15C231.075 13.6267 231.402 12.3933 232.055 11.3C232.709 10.2067 233.602 9.35333 234.735 8.74C235.882 8.11333 237.162 7.8 238.575 7.8C239.722 7.8 240.769 8 241.715 8.4C242.662 8.8 243.462 9.38 244.115 10.14L242.435 11.72C241.422 10.6267 240.175 10.08 238.695 10.08C237.735 10.08 236.875 10.2933 236.115 10.72C235.355 11.1333 234.762 11.7133 234.335 12.46C233.909 13.2067 233.695 14.0533 233.695 15C233.695 15.9467 233.909 16.7933 234.335 17.54C234.762 18.2867 235.355 18.8733 236.115 19.3C236.875 19.7133 237.735 19.92 238.695 19.92C240.175 19.92 241.422 19.3667 242.435 18.26L244.115 19.86C243.462 20.62 242.655 21.2 241.695 21.6C240.749 22 239.702 22.2 238.555 22.2ZM250.707 10.18V19.82H253.287V22H245.547V19.82H248.127V10.18H245.547V8H253.287V10.18H250.707ZM255.982 8H258.582V19.8H265.902V22H255.982V8ZM278.777 20.66C278.15 21.1533 277.343 21.5333 276.357 21.8C275.37 22.0667 274.303 22.2 273.157 22.2C271.81 22.2 270.663 22.0267 269.717 21.68C268.783 21.3333 268.077 20.8533 267.597 20.24C267.117 19.6267 266.877 18.92 266.877 18.12C266.877 17.3467 267.09 16.6733 267.517 16.1C267.943 15.5267 268.517 15.1067 269.237 14.84C268.69 14.5467 268.257 14.14 267.937 13.62C267.63 13.0867 267.477 12.4933 267.477 11.84C267.477 11.0933 267.697 10.42 268.137 9.82C268.59 9.20667 269.263 8.72 270.157 8.36C271.05 7.98667 272.15 7.8 273.457 7.8C274.337 7.8 275.197 7.89333 276.037 8.08C276.877 8.26667 277.61 8.52 278.237 8.84L277.497 10.9C276.323 10.2867 275.01 9.98 273.557 9.98C272.41 9.98 271.543 10.1667 270.957 10.54C270.383 10.9 270.097 11.3867 270.097 12C270.097 12.6 270.31 13.06 270.737 13.38C271.163 13.6867 271.79 13.84 272.617 13.84H276.317V16H272.477C271.53 16 270.797 16.1667 270.277 16.5C269.757 16.82 269.497 17.3 269.497 17.94C269.497 18.58 269.81 19.0867 270.437 19.46C271.063 19.8333 272.01 20.02 273.277 20.02C274.157 20.02 275.01 19.9 275.837 19.66C276.677 19.42 277.377 19.0867 277.937 18.66L278.777 20.66ZM290.584 11.48C289.264 10.7333 287.891 10.28 286.464 10.12V22H283.864V10.12C282.424 10.28 281.044 10.7333 279.724 11.48L278.824 9.48C279.758 8.92 280.758 8.5 281.824 8.22C282.904 7.94 284.011 7.8 285.144 7.8C286.278 7.8 287.384 7.94 288.464 8.22C289.544 8.5 290.551 8.92 291.484 9.48L290.584 11.48ZM299.113 7.8C300.366 7.8 301.459 8.04667 302.393 8.54C303.326 9.03333 304.046 9.76667 304.553 10.74C305.073 11.7 305.333 12.8667 305.333 14.24V22H302.733V18.4H295.453V22H292.893V14.24C292.893 12.8667 293.146 11.7 293.653 10.74C294.173 9.76667 294.899 9.03333 295.833 8.54C296.766 8.04667 297.859 7.8 299.113 7.8ZM302.733 16.22V14C302.733 12.7067 302.413 11.7333 301.773 11.08C301.133 10.4133 300.239 10.08 299.093 10.08C297.946 10.08 297.053 10.4133 296.413 11.08C295.773 11.7333 295.453 12.7067 295.453 14V16.22H302.733ZM325.477 19.82V22H313.537V20.42L317.177 15.9H314.697V13.84H318.837L321.797 10.18H313.637V8H325.177V9.56L321.697 13.88H324.017V15.94H320.037L316.917 19.82H325.477ZM338.874 20.66C338.248 21.1533 337.441 21.5333 336.454 21.8C335.468 22.0667 334.401 22.2 333.254 22.2C331.908 22.2 330.761 22.0267 329.814 21.68C328.881 21.3333 328.174 20.8533 327.694 20.24C327.214 19.6267 326.974 18.92 326.974 18.12C326.974 17.3467 327.188 16.6733 327.614 16.1C328.041 15.5267 328.614 15.1067 329.334 14.84C328.788 14.5467 328.354 14.14 328.034 13.62C327.728 13.0867 327.574 12.4933 327.574 11.84C327.574 11.0933 327.794 10.42 328.234 9.82C328.688 9.20667 329.361 8.72 330.254 8.36C331.148 7.98667 332.248 7.8 333.554 7.8C334.434 7.8 335.294 7.89333 336.134 8.08C336.974 8.26667 337.708 8.52 338.334 8.84L337.594 10.9C336.421 10.2867 335.108 9.98 333.654 9.98C332.508 9.98 331.641 10.1667 331.054 10.54C330.481 10.9 330.194 11.3867 330.194 12C330.194 12.6 330.408 13.06 330.834 13.38C331.261 13.6867 331.888 13.84 332.714 13.84H336.414V16H332.574C331.628 16 330.894 16.1667 330.374 16.5C329.854 16.82 329.594 17.3 329.594 17.94C329.594 18.58 329.908 19.0867 330.534 19.46C331.161 19.8333 332.108 20.02 333.374 20.02C334.254 20.02 335.108 19.9 335.934 19.66C336.774 19.42 337.474 19.0867 338.034 18.66L338.874 20.66ZM350.22 22L347.36 17.9C347.24 17.9133 347.06 17.92 346.82 17.92H343.66V22H341.06V8H346.82C348.033 8 349.086 8.2 349.98 8.6C350.886 9 351.58 9.57333 352.06 10.32C352.54 11.0667 352.78 11.9533 352.78 12.98C352.78 14.0333 352.52 14.94 352 15.7C351.493 16.46 350.76 17.0267 349.8 17.4L353.02 22H350.22ZM350.16 12.98C350.16 12.0867 349.866 11.4 349.28 10.92C348.693 10.44 347.833 10.2 346.7 10.2H343.66V15.78H346.7C347.833 15.78 348.693 15.54 349.28 15.06C349.866 14.5667 350.16 13.8733 350.16 12.98ZM362.229 22.2C360.802 22.2 359.515 21.8933 358.369 21.28C357.222 20.6533 356.322 19.7933 355.669 18.7C355.015 17.5933 354.689 16.36 354.689 15C354.689 13.64 355.015 12.4133 355.669 11.32C356.322 10.2133 357.222 9.35333 358.369 8.74C359.515 8.11333 360.802 7.8 362.229 7.8C363.655 7.8 364.942 8.11333 366.089 8.74C367.235 9.35333 368.135 10.2067 368.789 11.3C369.442 12.3933 369.769 13.6267 369.769 15C369.769 16.3733 369.442 17.6067 368.789 18.7C368.135 19.7933 367.235 20.6533 366.089 21.28C364.942 21.8933 363.655 22.2 362.229 22.2ZM362.229 19.92C363.162 19.92 364.002 19.7133 364.749 19.3C365.495 18.8733 366.082 18.2867 366.509 17.54C366.935 16.78 367.149 15.9333 367.149 15C367.149 14.0667 366.935 13.2267 366.509 12.48C366.082 11.72 365.495 11.1333 364.749 10.72C364.002 10.2933 363.162 10.08 362.229 10.08C361.295 10.08 360.455 10.2933 359.709 10.72C358.962 11.1333 358.375 11.72 357.949 12.48C357.522 13.2267 357.309 14.0667 357.309 15C357.309 15.9333 357.522 16.78 357.949 17.54C358.375 18.2867 358.962 18.8733 359.709 19.3C360.455 19.7133 361.295 19.92 362.229 19.92ZM382.872 16.14L380.652 18.42V22H378.052V8H380.652V15.18L387.572 8H390.492L384.612 14.26L390.852 22H387.812L382.872 16.14ZM408.262 7.8C409.902 7.8 411.182 8.28 412.102 9.24C413.022 10.1867 413.482 11.5533 413.482 13.34V22H410.882V13.44C410.882 12.3333 410.589 11.5 410.002 10.94C409.429 10.3667 408.676 10.08 407.742 10.08C406.702 10.08 405.869 10.3733 405.242 10.96C404.629 11.5467 404.322 12.4467 404.322 13.66V22H401.722V13.44C401.722 12.32 401.449 11.48 400.902 10.92C400.369 10.36 399.636 10.08 398.702 10.08C397.649 10.08 396.802 10.38 396.162 10.98C395.536 11.5667 395.222 12.46 395.222 13.66V22H392.622V8H395.142V9.84C395.569 9.18667 396.149 8.68667 396.882 8.34C397.616 7.98 398.462 7.8 399.422 7.8C400.409 7.8 401.269 7.98667 402.002 8.36C402.736 8.73333 403.289 9.26 403.662 9.94C404.129 9.26 404.762 8.73333 405.562 8.36C406.376 7.98667 407.276 7.8 408.262 7.8Z" fill="white"/>
</svg>
