<svg width="474" height="46" viewBox="0 0 474 46" fill="none" xmlns="http://www.w3.org/2000/svg">
<path d="M41 1V45H1V1H41Z" fill="white" stroke="black" stroke-width="2"/>
<path d="M473 1V28H54V1H473Z" fill="#0033CC" stroke="black" stroke-width="2"/>
<path d="M54 1V28H41V1H54Z" fill="#FFCC00" stroke="black" stroke-width="2"/>
<path d="M41 1V28H23V1H41Z" fill="#FF6600" stroke="black" stroke-width="2"/>
<path d="M73.36 22.2C71.9467 22.2 70.6667 21.8933 69.52 21.28C68.3867 20.6533 67.4933 19.7933 66.84 18.7C66.2 17.6067 65.88 16.3733 65.88 15C65.88 13.6267 66.2067 12.3933 66.86 11.3C67.5133 10.2067 68.4067 9.35333 69.54 8.74C70.6867 8.11333 71.9667 7.8 73.38 7.8C74.5267 7.8 75.5733 8 76.52 8.4C77.4667 8.8 78.2667 9.38 78.92 10.14L77.24 11.72C76.2267 10.6267 74.98 10.08 73.5 10.08C72.54 10.08 71.68 10.2933 70.92 10.72C70.16 11.1333 69.5667 11.7133 69.14 12.46C68.7133 13.2067 68.5 14.0533 68.5 15C68.5 15.9467 68.7133 16.7933 69.14 17.54C69.5667 18.2867 70.16 18.8733 70.92 19.3C71.68 19.7133 72.54 19.92 73.5 19.92C74.98 19.92 76.2267 19.3667 77.24 18.26L78.92 19.86C78.2667 20.62 77.46 21.2 76.5 21.6C75.5533 22 74.5067 22.2 73.36 22.2ZM93.8513 8V22H91.2513V16H84.0113V22H81.4113V8H84.0113V13.78H91.2513V8H93.8513ZM104.143 22.2C102.716 22.2 101.429 21.8933 100.283 21.28C99.136 20.6533 98.236 19.7933 97.5827 18.7C96.9293 17.5933 96.6027 16.36 96.6027 15C96.6027 13.64 96.9293 12.4133 97.5827 11.32C98.236 10.2133 99.136 9.35333 100.283 8.74C101.429 8.11333 102.716 7.8 104.143 7.8C105.569 7.8 106.856 8.11333 108.003 8.74C109.149 9.35333 110.049 10.2067 110.703 11.3C111.356 12.3933 111.683 13.6267 111.683 15C111.683 16.3733 111.356 17.6067 110.703 18.7C110.049 19.7933 109.149 20.6533 108.003 21.28C106.856 21.8933 105.569 22.2 104.143 22.2ZM104.143 19.92C105.076 19.92 105.916 19.7133 106.663 19.3C107.409 18.8733 107.996 18.2867 108.423 17.54C108.849 16.78 109.063 15.9333 109.063 15C109.063 14.0667 108.849 13.2267 108.423 12.48C107.996 11.72 107.409 11.1333 106.663 10.72C105.916 10.2933 105.076 10.08 104.143 10.08C103.209 10.08 102.369 10.2933 101.623 10.72C100.876 11.1333 100.289 11.72 99.8627 12.48C99.436 13.2267 99.2227 14.0667 99.2227 15C99.2227 15.9333 99.436 16.78 99.8627 17.54C100.289 18.2867 100.876 18.8733 101.623 19.3C102.369 19.7133 103.209 19.92 104.143 19.92ZM120.919 22.2C119.505 22.2 118.225 21.8933 117.079 21.28C115.945 20.6533 115.052 19.7933 114.399 18.7C113.759 17.6067 113.439 16.3733 113.439 15C113.439 13.6267 113.765 12.3933 114.419 11.3C115.072 10.2067 115.965 9.35333 117.099 8.74C118.245 8.11333 119.525 7.8 120.939 7.8C122.085 7.8 123.132 8 124.079 8.4C125.025 8.8 125.825 9.38 126.479 10.14L124.799 11.72C123.785 10.6267 122.539 10.08 121.059 10.08C120.099 10.08 119.239 10.2933 118.479 10.72C117.719 11.1333 117.125 11.7133 116.699 12.46C116.272 13.2067 116.059 14.0533 116.059 15C116.059 15.9467 116.272 16.7933 116.699 17.54C117.125 18.2867 117.719 18.8733 118.479 19.3C119.239 19.7133 120.099 19.92 121.059 19.92C122.539 19.92 123.785 19.3667 124.799 18.26L126.479 19.86C125.825 20.62 125.019 21.2 124.059 21.6C123.112 22 122.065 22.2 120.919 22.2ZM135.217 22.2C133.79 22.2 132.504 21.8933 131.357 21.28C130.21 20.6533 129.31 19.7933 128.657 18.7C128.004 17.5933 127.677 16.36 127.677 15C127.677 13.64 128.004 12.4133 128.657 11.32C129.31 10.2133 130.21 9.35333 131.357 8.74C132.504 8.11333 133.79 7.8 135.217 7.8C136.644 7.8 137.93 8.11333 139.077 8.74C140.224 9.35333 141.124 10.2067 141.777 11.3C142.43 12.3933 142.757 13.6267 142.757 15C142.757 16.3733 142.43 17.6067 141.777 18.7C141.124 19.7933 140.224 20.6533 139.077 21.28C137.93 21.8933 136.644 22.2 135.217 22.2ZM135.217 19.92C136.15 19.92 136.99 19.7133 137.737 19.3C138.484 18.8733 139.07 18.2867 139.497 17.54C139.924 16.78 140.137 15.9333 140.137 15C140.137 14.0667 139.924 13.2267 139.497 12.48C139.07 11.72 138.484 11.1333 137.737 10.72C136.99 10.2933 136.15 10.08 135.217 10.08C134.284 10.08 133.444 10.2933 132.697 10.72C131.95 11.1333 131.364 11.72 130.937 12.48C130.51 13.2267 130.297 14.0667 130.297 15C130.297 15.9333 130.51 16.78 130.937 17.54C131.364 18.2867 131.95 18.8733 132.697 19.3C133.444 19.7133 134.284 19.92 135.217 19.92ZM145.513 8H148.113V19.8H155.433V22H145.513V8ZM163.585 7.8C164.839 7.8 165.932 8.04667 166.865 8.54C167.799 9.03333 168.519 9.76667 169.025 10.74C169.545 11.7 169.805 12.8667 169.805 14.24V22H167.205V18.4H159.925V22H157.365V14.24C157.365 12.8667 157.619 11.7 158.125 10.74C158.645 9.76667 159.372 9.03333 160.305 8.54C161.239 8.04667 162.332 7.8 163.585 7.8ZM167.205 16.22V14C167.205 12.7067 166.885 11.7333 166.245 11.08C165.605 10.4133 164.712 10.08 163.565 10.08C162.419 10.08 161.525 10.4133 160.885 11.08C160.245 11.7333 159.925 12.7067 159.925 14V16.22H167.205ZM182.967 11.48C181.647 10.7333 180.274 10.28 178.847 10.12V22H176.247V10.12C174.807 10.28 173.427 10.7333 172.107 11.48L171.207 9.48C172.141 8.92 173.141 8.5 174.207 8.22C175.287 7.94 176.394 7.8 177.527 7.8C178.661 7.8 179.767 7.94 180.847 8.22C181.927 8.5 182.934 8.92 183.867 9.48L182.967 11.48ZM196.316 20.66C195.689 21.1533 194.882 21.5333 193.896 21.8C192.909 22.0667 191.842 22.2 190.696 22.2C189.349 22.2 188.202 22.0267 187.256 21.68C186.322 21.3333 185.616 20.8533 185.136 20.24C184.656 19.6267 184.416 18.92 184.416 18.12C184.416 17.3467 184.629 16.6733 185.056 16.1C185.482 15.5267 186.056 15.1067 186.776 14.84C186.229 14.5467 185.796 14.14 185.476 13.62C185.169 13.0867 185.016 12.4933 185.016 11.84C185.016 11.0933 185.236 10.42 185.676 9.82C186.129 9.20667 186.802 8.72 187.696 8.36C188.589 7.98667 189.689 7.8 190.996 7.8C191.876 7.8 192.736 7.89333 193.576 8.08C194.416 8.26667 195.149 8.52 195.776 8.84L195.036 10.9C193.862 10.2867 192.549 9.98 191.096 9.98C189.949 9.98 189.082 10.1667 188.496 10.54C187.922 10.9 187.636 11.3867 187.636 12C187.636 12.6 187.849 13.06 188.276 13.38C188.702 13.6867 189.329 13.84 190.156 13.84H193.856V16H190.016C189.069 16 188.336 16.1667 187.816 16.5C187.296 16.82 187.036 17.3 187.036 17.94C187.036 18.58 187.349 19.0867 187.976 19.46C188.602 19.8333 189.549 20.02 190.816 20.02C191.696 20.02 192.549 19.9 193.376 19.66C194.216 19.42 194.916 19.0867 195.476 18.66L196.316 20.66ZM208.868 20.02C210.028 20.02 210.995 19.6333 211.768 18.86L213.088 20.4C212.622 20.9733 212.022 21.4067 211.288 21.7C210.555 21.9933 209.728 22.14 208.808 22.14C207.635 22.14 206.602 21.9067 205.708 21.44C204.815 20.9733 204.122 20.3267 203.628 19.5C203.148 18.66 202.908 17.7133 202.908 16.66C202.908 15.62 203.142 14.6867 203.608 13.86C204.088 13.02 204.742 12.3667 205.568 11.9C206.408 11.4333 207.355 11.2 208.408 11.2C209.408 11.2 210.315 11.42 211.128 11.86C211.955 12.2867 212.608 12.9067 213.088 13.72C213.568 14.52 213.808 15.46 213.808 16.54L205.628 18.14C205.882 18.7533 206.288 19.22 206.848 19.54C207.408 19.86 208.082 20.02 208.868 20.02ZM208.408 13.2C207.488 13.2 206.742 13.5 206.168 14.1C205.608 14.7 205.328 15.5067 205.328 16.52V16.54L211.368 15.38C211.195 14.7267 210.842 14.2 210.308 13.8C209.788 13.4 209.155 13.2 208.408 13.2ZM226.078 10.18V19.82H228.658V22H220.918V19.82H223.498V10.18H220.918V8H228.658V10.18H226.078ZM238.313 7.8C239.993 7.8 241.299 8.31333 242.233 9.34C243.179 10.3667 243.653 11.8333 243.653 13.74V22H241.053V13.84C241.053 12.6 240.753 11.6667 240.153 11.04C239.566 10.4 238.746 10.08 237.693 10.08C236.546 10.08 235.633 10.42 234.953 11.1C234.286 11.7667 233.953 12.7667 233.953 14.1V22H231.353V8H233.873V9.76C234.846 8.45333 236.326 7.8 238.313 7.8ZM247.29 8H253.41C254.903 8 256.23 8.29333 257.39 8.88C258.55 9.45333 259.45 10.2733 260.09 11.34C260.73 12.3933 261.05 13.6133 261.05 15C261.05 16.3867 260.73 17.6133 260.09 18.68C259.45 19.7333 258.55 20.5533 257.39 21.14C256.23 21.7133 254.903 22 253.41 22H247.29V8ZM253.29 19.8C254.317 19.8 255.217 19.6067 255.99 19.22C256.777 18.82 257.377 18.26 257.79 17.54C258.217 16.8067 258.43 15.96 258.43 15C258.43 14.04 258.217 13.2 257.79 12.48C257.377 11.7467 256.777 11.1867 255.99 10.8C255.217 10.4 254.317 10.2 253.29 10.2H249.89V19.8H253.29ZM275.914 8V22H273.414V20.22C272.467 21.54 271 22.2 269.014 22.2C267.36 22.2 266.06 21.6867 265.114 20.66C264.167 19.62 263.694 18.1533 263.694 16.26V8H266.294V16.16C266.294 17.4 266.587 18.34 267.174 18.98C267.774 19.6067 268.594 19.92 269.634 19.92C270.754 19.92 271.647 19.5867 272.314 18.92C272.98 18.24 273.314 17.2333 273.314 15.9V8H275.914ZM270.794 4.12H273.734L270.254 6.86H268.094L270.794 4.12ZM284.013 22.2C282.933 22.2 281.886 22.0467 280.873 21.74C279.873 21.4333 279.08 21.0267 278.493 20.52L279.393 18.5C279.966 18.9533 280.666 19.3267 281.493 19.62C282.333 19.9 283.173 20.04 284.013 20.04C285.053 20.04 285.826 19.8733 286.333 19.54C286.853 19.2067 287.113 18.7667 287.113 18.22C287.113 17.82 286.966 17.4933 286.673 17.24C286.393 16.9733 286.033 16.7667 285.593 16.62C285.153 16.4733 284.553 16.3067 283.793 16.12C282.726 15.8667 281.86 15.6133 281.193 15.36C280.54 15.1067 279.973 14.7133 279.493 14.18C279.026 13.6333 278.793 12.9 278.793 11.98C278.793 11.2067 279 10.5067 279.413 9.88C279.84 9.24 280.473 8.73333 281.313 8.36C282.166 7.98667 283.206 7.8 284.433 7.8C285.286 7.8 286.126 7.90667 286.953 8.12C287.78 8.33333 288.493 8.64 289.093 9.04L288.273 11.06C287.66 10.7 287.02 10.4267 286.353 10.24C285.686 10.0533 285.04 9.96 284.413 9.96C283.386 9.96 282.62 10.1333 282.113 10.48C281.62 10.8267 281.373 11.2867 281.373 11.86C281.373 12.26 281.513 12.5867 281.793 12.84C282.086 13.0933 282.453 13.2933 282.893 13.44C283.333 13.5867 283.933 13.7533 284.693 13.94C285.733 14.18 286.586 14.4333 287.253 14.7C287.92 14.9533 288.486 15.3467 288.953 15.88C289.433 16.4133 289.673 17.1333 289.673 18.04C289.673 18.8133 289.46 19.5133 289.033 20.14C288.62 20.7667 287.986 21.2667 287.133 21.64C286.28 22.0133 285.24 22.2 284.013 22.2ZM301.815 11.48C300.495 10.7333 299.122 10.28 297.695 10.12V22H295.095V10.12C293.655 10.28 292.275 10.7333 290.955 11.48L290.055 9.48C290.988 8.92 291.988 8.5 293.055 8.22C294.135 7.94 295.242 7.8 296.375 7.8C297.508 7.8 298.615 7.94 299.695 8.22C300.775 8.5 301.782 8.92 302.715 9.48L301.815 11.48ZM313.599 22L310.739 17.9C310.619 17.9133 310.439 17.92 310.199 17.92H307.039V22H304.439V8H310.199C311.412 8 312.465 8.2 313.359 8.6C314.265 9 314.959 9.57333 315.439 10.32C315.919 11.0667 316.159 11.9533 316.159 12.98C316.159 14.0333 315.899 14.94 315.379 15.7C314.872 16.46 314.139 17.0267 313.179 17.4L316.399 22H313.599ZM313.539 12.98C313.539 12.0867 313.245 11.4 312.659 10.92C312.072 10.44 311.212 10.2 310.079 10.2H307.039V15.78H310.079C311.212 15.78 312.072 15.54 312.659 15.06C313.245 14.5667 313.539 13.8733 313.539 12.98ZM323.168 10.18V19.82H325.748V22H318.008V19.82H320.588V10.18H318.008V8H325.748V10.18H323.168ZM334.543 7.8C335.796 7.8 336.889 8.04667 337.823 8.54C338.756 9.03333 339.476 9.76667 339.983 10.74C340.503 11.7 340.763 12.8667 340.763 14.24V22H338.163V18.4H330.883V22H328.323V14.24C328.323 12.8667 328.576 11.7 329.083 10.74C329.603 9.76667 330.329 9.03333 331.263 8.54C332.196 8.04667 333.289 7.8 334.543 7.8ZM338.163 16.22V14C338.163 12.7067 337.843 11.7333 337.203 11.08C336.563 10.4133 335.669 10.08 334.523 10.08C333.376 10.08 332.483 10.4133 331.842 11.08C331.203 11.7333 330.883 12.7067 330.883 14V16.22H338.163ZM356.407 22.2C354.994 22.2 353.714 21.8933 352.567 21.28C351.434 20.6533 350.54 19.7933 349.887 18.7C349.247 17.6067 348.927 16.3733 348.927 15C348.927 13.6267 349.254 12.3933 349.907 11.3C350.56 10.2067 351.454 9.35333 352.587 8.74C353.734 8.11333 355.014 7.8 356.427 7.8C357.574 7.8 358.62 8 359.567 8.4C360.514 8.8 361.314 9.38 361.967 10.14L360.287 11.72C359.274 10.6267 358.027 10.08 356.547 10.08C355.587 10.08 354.727 10.2933 353.967 10.72C353.207 11.1333 352.614 11.7133 352.187 12.46C351.76 13.2067 351.547 14.0533 351.547 15C351.547 15.9467 351.76 16.7933 352.187 17.54C352.614 18.2867 353.207 18.8733 353.967 19.3C354.727 19.7133 355.587 19.92 356.547 19.92C358.027 19.92 359.274 19.3667 360.287 18.26L361.967 19.86C361.314 20.62 360.507 21.2 359.547 21.6C358.6 22 357.554 22.2 356.407 22.2ZM370.558 7.8C371.811 7.8 372.905 8.04667 373.838 8.54C374.771 9.03333 375.491 9.76667 375.998 10.74C376.518 11.7 376.778 12.8667 376.778 14.24V22H374.178V18.4H366.898V22H364.338V14.24C364.338 12.8667 364.591 11.7 365.098 10.74C365.618 9.76667 366.345 9.03333 367.278 8.54C368.211 8.04667 369.305 7.8 370.558 7.8ZM374.178 16.22V14C374.178 12.7067 373.858 11.7333 373.218 11.08C372.578 10.4133 371.685 10.08 370.538 10.08C369.391 10.08 368.498 10.4133 367.858 11.08C367.218 11.7333 366.898 12.7067 366.898 14V16.22H374.178ZM386.175 8C387.388 8 388.442 8.2 389.335 8.6C390.242 9 390.935 9.57333 391.415 10.32C391.895 11.0667 392.135 11.9533 392.135 12.98C392.135 13.9933 391.895 14.88 391.415 15.64C390.935 16.3867 390.242 16.96 389.335 17.36C388.442 17.76 387.388 17.96 386.175 17.96H383.015V22H380.415V8H386.175ZM386.055 15.76C387.188 15.76 388.048 15.52 388.635 15.04C389.222 14.56 389.515 13.8733 389.515 12.98C389.515 12.0867 389.222 11.4 388.635 10.92C388.048 10.44 387.188 10.2 386.055 10.2H383.015V15.76H386.055ZM398.832 10.18V19.82H401.412V22H393.672V19.82H396.252V10.18H393.672V8H401.412V10.18H398.832ZM412.927 22L409.127 16.68L405.367 22H402.407L407.607 14.86L402.687 8H405.627L409.207 12.98L412.747 8H415.567L410.667 14.76L415.927 22H412.927ZM423.781 7.8C425.034 7.8 426.127 8.04667 427.061 8.54C427.994 9.03333 428.714 9.76667 429.221 10.74C429.741 11.7 430.001 12.8667 430.001 14.24V22H427.401V18.4H420.121V22H417.561V14.24C417.561 12.8667 417.814 11.7 418.321 10.74C418.841 9.76667 419.567 9.03333 420.501 8.54C421.434 8.04667 422.527 7.8 423.781 7.8ZM427.401 16.22V14C427.401 12.7067 427.081 11.7333 426.441 11.08C425.801 10.4133 424.907 10.08 423.761 10.08C422.614 10.08 421.721 10.4133 421.081 11.08C420.441 11.7333 420.121 12.7067 420.121 14V16.22H427.401ZM443.558 14.72C444.331 14.9733 444.944 15.4 445.398 16C445.851 16.5867 446.078 17.32 446.078 18.2C446.078 19.4133 445.611 20.3533 444.678 21.02C443.744 21.6733 442.384 22 440.598 22H433.638V8H440.198C441.851 8 443.124 8.32667 444.018 8.98C444.911 9.62 445.358 10.5067 445.358 11.64C445.358 12.3333 445.198 12.9467 444.878 13.48C444.558 14.0133 444.118 14.4267 443.558 14.72ZM436.238 10.04V13.9H439.918C440.824 13.9 441.518 13.74 441.998 13.42C442.491 13.0867 442.738 12.6067 442.738 11.98C442.738 11.34 442.491 10.86 441.998 10.54C441.518 10.2067 440.824 10.04 439.918 10.04H436.238ZM440.438 19.96C442.451 19.96 443.458 19.2867 443.458 17.94C443.458 16.5933 442.451 15.92 440.438 15.92H436.238V19.96H440.438ZM454.953 7.8C456.206 7.8 457.299 8.04667 458.233 8.54C459.166 9.03333 459.886 9.76667 460.393 10.74C460.913 11.7 461.173 12.8667 461.173 14.24V22H458.573V18.4H451.293V22H448.733V14.24C448.733 12.8667 448.986 11.7 449.493 10.74C450.013 9.76667 450.739 9.03333 451.673 8.54C452.606 8.04667 453.699 7.8 454.953 7.8ZM458.573 16.22V14C458.573 12.7067 458.253 11.7333 457.613 11.08C456.973 10.4133 456.079 10.08 454.933 10.08C453.786 10.08 452.893 10.4133 452.253 11.08C451.613 11.7333 451.293 12.7067 451.293 14V16.22H458.573Z" fill="white"/>
</svg>
