<svg width="323" height="46" viewBox="0 0 323 46" fill="none" xmlns="http://www.w3.org/2000/svg">
<path d="M41 1V45H1V1H41Z" fill="white" stroke="black" stroke-width="2"/>
<path d="M322 1V28H54V1H322Z" fill="#0033CC" stroke="black" stroke-width="2"/>
<path d="M54 1V28H41V1H54Z" fill="#FFCC00" stroke="black" stroke-width="2"/>
<path d="M41 1V28H23V1H41Z" fill="#FF6600" stroke="black" stroke-width="2"/>
<path d="M66.88 8H69.48V19.8H76.8V22H66.88V8ZM82.9527 10.18V19.82H85.5327V22H77.7927V19.82H80.3727V10.18H77.7927V8H85.5327V10.18H82.9527ZM95.1877 7.8C96.8677 7.8 98.1743 8.31333 99.1077 9.34C100.054 10.3667 100.528 11.8333 100.528 13.74V22H97.9277V13.84C97.9277 12.6 97.6277 11.6667 97.0277 11.04C96.441 10.4 95.621 10.08 94.5677 10.08C93.421 10.08 92.5077 10.42 91.8277 11.1C91.161 11.7667 90.8277 12.7667 90.8277 14.1V22H88.2277V8H90.7477V9.76C91.721 8.45333 93.201 7.8 95.1877 7.8ZM113.725 14.84H116.185V22H114.045V21.18C113.045 21.86 111.792 22.2 110.285 22.2C108.992 22.2 107.805 21.92 106.725 21.36C105.645 20.8 104.778 19.9867 104.125 18.92C103.485 17.8533 103.165 16.58 103.165 15.1C103.165 13.7 103.492 12.4467 104.145 11.34C104.798 10.22 105.698 9.35333 106.845 8.74C108.005 8.11333 109.305 7.8 110.745 7.8C111.918 7.8 112.985 7.99333 113.945 8.38C114.905 8.76667 115.712 9.33333 116.365 10.08L114.725 11.68C113.658 10.6133 112.372 10.08 110.865 10.08C109.878 10.08 108.998 10.2933 108.225 10.72C107.465 11.1333 106.865 11.72 106.425 12.48C105.998 13.24 105.785 14.1067 105.785 15.08C105.785 16.1067 105.998 16.9933 106.425 17.74C106.865 18.4733 107.445 19.0333 108.165 19.42C108.885 19.7933 109.672 19.98 110.525 19.98C111.125 19.98 111.698 19.8867 112.245 19.7C112.805 19.5133 113.298 19.24 113.725 18.88V14.84ZM131.714 8V22H129.214V20.22C128.268 21.54 126.801 22.2 124.814 22.2C123.161 22.2 121.861 21.6867 120.914 20.66C119.968 19.62 119.494 18.1533 119.494 16.26V8H122.094V16.16C122.094 17.4 122.388 18.34 122.974 18.98C123.574 19.6067 124.394 19.92 125.434 19.92C126.554 19.92 127.448 19.5867 128.114 18.92C128.781 18.24 129.114 17.2333 129.114 15.9V8H131.714ZM139.574 10.18V19.82H142.154V22H134.414V19.82H136.994V10.18H134.414V8H142.154V10.18H139.574ZM151.231 22.2C149.818 22.2 148.538 21.8933 147.391 21.28C146.258 20.6533 145.364 19.7933 144.711 18.7C144.071 17.6067 143.751 16.3733 143.751 15C143.751 13.6267 144.078 12.3933 144.731 11.3C145.384 10.2067 146.278 9.35333 147.411 8.74C148.558 8.11333 149.838 7.8 151.251 7.8C152.398 7.8 153.444 8 154.391 8.4C155.338 8.8 156.138 9.38 156.791 10.14L155.111 11.72C154.098 10.6267 152.851 10.08 151.371 10.08C150.411 10.08 149.551 10.2933 148.791 10.72C148.031 11.1333 147.438 11.7133 147.011 12.46C146.584 13.2067 146.371 14.0533 146.371 15C146.371 15.9467 146.584 16.7933 147.011 17.54C147.438 18.2867 148.031 18.8733 148.791 19.3C149.551 19.7133 150.411 19.92 151.371 19.92C152.851 19.92 154.098 19.3667 155.111 18.26L156.791 19.86C156.138 20.62 155.331 21.2 154.371 21.6C153.424 22 152.378 22.2 151.231 22.2ZM150.291 26.56C149.571 26.56 148.958 26.42 148.451 26.14L148.911 24.96C149.324 25.1733 149.778 25.28 150.271 25.28C150.978 25.28 151.331 25.04 151.331 24.56C151.331 24.36 151.244 24.2 151.071 24.08C150.898 23.96 150.631 23.9 150.271 23.9H149.651L150.191 21.86H151.551L151.271 22.98C151.844 23.0467 152.278 23.2267 152.571 23.52C152.864 23.8267 153.011 24.2067 153.011 24.66C153.011 25.2333 152.764 25.6933 152.271 26.04C151.778 26.3867 151.118 26.56 150.291 26.56ZM165.382 7.8C166.636 7.8 167.729 8.04667 168.662 8.54C169.596 9.03333 170.316 9.76667 170.822 10.74C171.342 11.7 171.602 12.8667 171.602 14.24V22H169.002V18.4H161.722V22H159.162V14.24C159.162 12.8667 159.416 11.7 159.922 10.74C160.442 9.76667 161.169 9.03333 162.102 8.54C163.036 8.04667 164.129 7.8 165.382 7.8ZM169.002 16.22V14C169.002 12.7067 168.682 11.7333 168.042 11.08C167.402 10.4133 166.509 10.08 165.362 10.08C164.216 10.08 163.322 10.4133 162.682 11.08C162.042 11.7333 161.722 12.7067 161.722 14V16.22H169.002ZM191.687 20.66C191.06 21.1533 190.253 21.5333 189.267 21.8C188.28 22.0667 187.213 22.2 186.067 22.2C184.72 22.2 183.573 22.0267 182.627 21.68C181.693 21.3333 180.987 20.8533 180.507 20.24C180.027 19.6267 179.787 18.92 179.787 18.12C179.787 17.3467 180 16.6733 180.427 16.1C180.853 15.5267 181.427 15.1067 182.147 14.84C181.6 14.5467 181.167 14.14 180.847 13.62C180.54 13.0867 180.387 12.4933 180.387 11.84C180.387 11.0933 180.607 10.42 181.047 9.82C181.5 9.20667 182.173 8.72 183.067 8.36C183.96 7.98667 185.06 7.8 186.367 7.8C187.247 7.8 188.107 7.89333 188.947 8.08C189.787 8.26667 190.52 8.52 191.147 8.84L190.407 10.9C189.233 10.2867 187.92 9.98 186.467 9.98C185.32 9.98 184.453 10.1667 183.867 10.54C183.293 10.9 183.007 11.3867 183.007 12C183.007 12.6 183.22 13.06 183.647 13.38C184.073 13.6867 184.7 13.84 185.527 13.84H189.227V16H185.387C184.44 16 183.707 16.1667 183.187 16.5C182.667 16.82 182.407 17.3 182.407 17.94C182.407 18.58 182.72 19.0867 183.347 19.46C183.973 19.8333 184.92 20.02 186.187 20.02C187.067 20.02 187.92 19.9 188.747 19.66C189.587 19.42 190.287 19.0867 190.847 18.66L191.687 20.66ZM205.16 8C206.373 8 207.426 8.2 208.32 8.6C209.226 9 209.92 9.57333 210.4 10.32C210.88 11.0667 211.12 11.9533 211.12 12.98C211.12 13.9933 210.88 14.88 210.4 15.64C209.92 16.3867 209.226 16.96 208.32 17.36C207.426 17.76 206.373 17.96 205.16 17.96H202V22H199.4V8H205.16ZM205.04 15.76C206.173 15.76 207.033 15.52 207.62 15.04C208.206 14.56 208.5 13.8733 208.5 12.98C208.5 12.0867 208.206 11.4 207.62 10.92C207.033 10.44 206.173 10.2 205.04 10.2H202V15.76H205.04ZM222.876 22L220.016 17.9C219.896 17.9133 219.716 17.92 219.476 17.92H216.316V22H213.716V8H219.476C220.689 8 221.743 8.2 222.636 8.6C223.543 9 224.236 9.57333 224.716 10.32C225.196 11.0667 225.436 11.9533 225.436 12.98C225.436 14.0333 225.176 14.94 224.656 15.7C224.149 16.46 223.416 17.0267 222.456 17.4L225.676 22H222.876ZM222.816 12.98C222.816 12.0867 222.523 11.4 221.936 10.92C221.349 10.44 220.489 10.2 219.356 10.2H216.316V15.78H219.356C220.489 15.78 221.349 15.54 221.936 15.06C222.523 14.5667 222.816 13.8733 222.816 12.98ZM239.265 20.66C238.638 21.1533 237.832 21.5333 236.845 21.8C235.858 22.0667 234.792 22.2 233.645 22.2C232.298 22.2 231.152 22.0267 230.205 21.68C229.272 21.3333 228.565 20.8533 228.085 20.24C227.605 19.6267 227.365 18.92 227.365 18.12C227.365 17.3467 227.578 16.6733 228.005 16.1C228.432 15.5267 229.005 15.1067 229.725 14.84C229.178 14.5467 228.745 14.14 228.425 13.62C228.118 13.0867 227.965 12.4933 227.965 11.84C227.965 11.0933 228.185 10.42 228.625 9.82C229.078 9.20667 229.752 8.72 230.645 8.36C231.538 7.98667 232.638 7.8 233.945 7.8C234.825 7.8 235.685 7.89333 236.525 8.08C237.365 8.26667 238.098 8.52 238.725 8.84L237.985 10.9C236.812 10.2867 235.498 9.98 234.045 9.98C232.898 9.98 232.032 10.1667 231.445 10.54C230.872 10.9 230.585 11.3867 230.585 12C230.585 12.6 230.798 13.06 231.225 13.38C231.652 13.6867 232.278 13.84 233.105 13.84H236.805V16H232.965C232.018 16 231.285 16.1667 230.765 16.5C230.245 16.82 229.985 17.3 229.985 17.94C229.985 18.58 230.298 19.0867 230.925 19.46C231.552 19.8333 232.498 20.02 233.765 20.02C234.645 20.02 235.498 19.9 236.325 19.66C237.165 19.42 237.865 19.0867 238.425 18.66L239.265 20.66ZM245.79 22.2C244.71 22.2 243.664 22.0467 242.65 21.74C241.65 21.4333 240.857 21.0267 240.27 20.52L241.17 18.5C241.744 18.9533 242.444 19.3267 243.27 19.62C244.11 19.9 244.95 20.04 245.79 20.04C246.83 20.04 247.604 19.8733 248.11 19.54C248.63 19.2067 248.89 18.7667 248.89 18.22C248.89 17.82 248.744 17.4933 248.45 17.24C248.17 16.9733 247.81 16.7667 247.37 16.62C246.93 16.4733 246.33 16.3067 245.57 16.12C244.504 15.8667 243.637 15.6133 242.97 15.36C242.317 15.1067 241.75 14.7133 241.27 14.18C240.804 13.6333 240.57 12.9 240.57 11.98C240.57 11.2067 240.777 10.5067 241.19 9.88C241.617 9.24 242.25 8.73333 243.09 8.36C243.944 7.98667 244.984 7.8 246.21 7.8C247.064 7.8 247.904 7.90667 248.73 8.12C249.557 8.33333 250.27 8.64 250.87 9.04L250.05 11.06C249.437 10.7 248.797 10.4267 248.13 10.24C247.464 10.0533 246.817 9.96 246.19 9.96C245.164 9.96 244.397 10.1333 243.89 10.48C243.397 10.8267 243.15 11.2867 243.15 11.86C243.15 12.26 243.29 12.5867 243.57 12.84C243.864 13.0933 244.23 13.2933 244.67 13.44C245.11 13.5867 245.71 13.7533 246.47 13.94C247.51 14.18 248.364 14.4333 249.03 14.7C249.697 14.9533 250.264 15.3467 250.73 15.88C251.21 16.4133 251.45 17.1333 251.45 18.04C251.45 18.8133 251.237 19.5133 250.81 20.14C250.397 20.7667 249.764 21.2667 248.91 21.64C248.057 22.0133 247.017 22.2 245.79 22.2ZM266.128 8V22H263.628V20.22C262.682 21.54 261.215 22.2 259.228 22.2C257.575 22.2 256.275 21.6867 255.328 20.66C254.382 19.62 253.908 18.1533 253.908 16.26V8H256.508V16.16C256.508 17.4 256.802 18.34 257.388 18.98C257.988 19.6067 258.808 19.92 259.848 19.92C260.968 19.92 261.862 19.5867 262.528 18.92C263.195 18.24 263.528 17.2333 263.528 15.9V8H266.128ZM276.848 7.8C278.528 7.8 279.834 8.31333 280.768 9.34C281.714 10.3667 282.188 11.8333 282.188 13.74V22H279.588V13.84C279.588 12.6 279.288 11.6667 278.688 11.04C278.101 10.4 277.281 10.08 276.228 10.08C275.081 10.08 274.168 10.42 273.488 11.1C272.821 11.7667 272.488 12.7667 272.488 14.1V22H269.888V8H272.408V9.76C273.381 8.45333 274.861 7.8 276.848 7.8ZM295.545 11.48C294.225 10.7333 292.852 10.28 291.425 10.12V22H288.825V10.12C287.385 10.28 286.005 10.7333 284.685 11.48L283.785 9.48C284.719 8.92 285.719 8.5 286.785 8.22C287.865 7.94 288.972 7.8 290.105 7.8C291.239 7.8 292.345 7.94 293.425 8.22C294.505 8.5 295.512 8.92 296.445 9.48L295.545 11.48ZM304.514 22.2C303.087 22.2 301.8 21.8933 300.654 21.28C299.507 20.6533 298.607 19.7933 297.954 18.7C297.3 17.5933 296.974 16.36 296.974 15C296.974 13.64 297.3 12.4133 297.954 11.32C298.607 10.2133 299.507 9.35333 300.654 8.74C301.8 8.11333 303.087 7.8 304.514 7.8C305.94 7.8 307.227 8.11333 308.374 8.74C309.52 9.35333 310.42 10.2067 311.074 11.3C311.727 12.3933 312.054 13.6267 312.054 15C312.054 16.3733 311.727 17.6067 311.074 18.7C310.42 19.7933 309.52 20.6533 308.374 21.28C307.227 21.8933 305.94 22.2 304.514 22.2ZM304.514 19.92C305.447 19.92 306.287 19.7133 307.034 19.3C307.78 18.8733 308.367 18.2867 308.794 17.54C309.22 16.78 309.434 15.9333 309.434 15C309.434 14.0667 309.22 13.2267 308.794 12.48C308.367 11.72 307.78 11.1333 307.034 10.72C306.287 10.2933 305.447 10.08 304.514 10.08C303.58 10.08 302.74 10.2933 301.994 10.72C301.247 11.1333 300.66 11.72 300.234 12.48C299.807 13.2267 299.594 14.0667 299.594 15C299.594 15.9333 299.807 16.78 300.234 17.54C300.66 18.2867 301.247 18.8733 301.994 19.3C302.74 19.7133 303.58 19.92 304.514 19.92Z" fill="white"/>
</svg>
