<svg width="542" height="46" viewBox="0 0 542 46" fill="none" xmlns="http://www.w3.org/2000/svg">
<path d="M41 1V45H1V1H41Z" fill="white" stroke="black" stroke-width="2"/>
<path d="M541 1V28H54V1H541Z" fill="#0033CC" stroke="black" stroke-width="2"/>
<path d="M54 1V28H41V1H54Z" fill="#FFCC00" stroke="black" stroke-width="2"/>
<path d="M41 1V28H23V1H41Z" fill="#FF6600" stroke="black" stroke-width="2"/>
<path d="M66.88 8H69.48V19.8H76.8V22H66.88V8ZM85.1388 22.2C83.7121 22.2 82.4254 21.8933 81.2788 21.28C80.1321 20.6533 79.2321 19.7933 78.5788 18.7C77.9254 17.5933 77.5988 16.36 77.5988 15C77.5988 13.64 77.9254 12.4133 78.5788 11.32C79.2321 10.2133 80.1321 9.35333 81.2788 8.74C82.4254 8.11333 83.7121 7.8 85.1388 7.8C86.5654 7.8 87.8521 8.11333 88.9988 8.74C90.1454 9.35333 91.0454 10.2067 91.6988 11.3C92.3521 12.3933 92.6788 13.6267 92.6788 15C92.6788 16.3733 92.3521 17.6067 91.6988 18.7C91.0454 19.7933 90.1454 20.6533 88.9988 21.28C87.8521 21.8933 86.5654 22.2 85.1388 22.2ZM85.1388 19.92C86.0721 19.92 86.9121 19.7133 87.6588 19.3C88.4054 18.8733 88.9921 18.2867 89.4188 17.54C89.8454 16.78 90.0588 15.9333 90.0588 15C90.0588 14.0667 89.8454 13.2267 89.4188 12.48C88.9921 11.72 88.4054 11.1333 87.6588 10.72C86.9121 10.2933 86.0721 10.08 85.1388 10.08C84.2054 10.08 83.3654 10.2933 82.6188 10.72C81.8721 11.1333 81.2854 11.72 80.8588 12.48C80.4321 13.2267 80.2188 14.0667 80.2188 15C80.2188 15.9333 80.4321 16.78 80.8588 17.54C81.2854 18.2867 81.8721 18.8733 82.6188 19.3C83.3654 19.7133 84.2054 19.92 85.1388 19.92ZM96.9492 24.2C96.0692 24.2 95.2559 24.0267 94.5092 23.68C93.7759 23.3333 93.1692 22.8333 92.6892 22.18L94.1292 20.4C94.8892 21.4667 95.8026 22 96.8692 22C98.3492 22 99.0892 21.14 99.0892 19.42V10.18H94.0892V8H101.669V19.28C101.669 20.92 101.269 22.1467 100.469 22.96C99.6692 23.7867 98.4959 24.2 96.9492 24.2ZM111.418 7.8C112.671 7.8 113.764 8.04667 114.698 8.54C115.631 9.03333 116.351 9.76667 116.858 10.74C117.378 11.7 117.638 12.8667 117.638 14.24V22H115.038V18.4H107.758V22H105.198V14.24C105.198 12.8667 105.451 11.7 105.958 10.74C106.478 9.76667 107.204 9.03333 108.138 8.54C109.071 8.04667 110.164 7.8 111.418 7.8ZM115.038 16.22V14C115.038 12.7067 114.718 11.7333 114.078 11.08C113.438 10.4133 112.544 10.08 111.398 10.08C110.251 10.08 109.358 10.4133 108.717 11.08C108.078 11.7333 107.758 12.7067 107.758 14V16.22H115.038ZM126.802 8H132.922C134.415 8 135.742 8.29333 136.902 8.88C138.062 9.45333 138.962 10.2733 139.602 11.34C140.242 12.3933 140.562 13.6133 140.562 15C140.562 16.3867 140.242 17.6133 139.602 18.68C138.962 19.7333 138.062 20.5533 136.902 21.14C135.742 21.7133 134.415 22 132.922 22H126.802V8ZM132.802 19.8C133.829 19.8 134.729 19.6067 135.502 19.22C136.289 18.82 136.889 18.26 137.302 17.54C137.729 16.8067 137.942 15.96 137.942 15C137.942 14.04 137.729 13.2 137.302 12.48C136.889 11.7467 136.289 11.1867 135.502 10.8C134.729 10.4 133.829 10.2 132.802 10.2H129.402V19.8H132.802ZM154.245 20.66C153.619 21.1533 152.812 21.5333 151.825 21.8C150.839 22.0667 149.772 22.2 148.625 22.2C147.279 22.2 146.132 22.0267 145.185 21.68C144.252 21.3333 143.545 20.8533 143.065 20.24C142.585 19.6267 142.345 18.92 142.345 18.12C142.345 17.3467 142.559 16.6733 142.985 16.1C143.412 15.5267 143.985 15.1067 144.705 14.84C144.159 14.5467 143.725 14.14 143.405 13.62C143.099 13.0867 142.945 12.4933 142.945 11.84C142.945 11.0933 143.165 10.42 143.605 9.82C144.059 9.20667 144.732 8.72 145.625 8.36C146.519 7.98667 147.619 7.8 148.925 7.8C149.805 7.8 150.665 7.89333 151.505 8.08C152.345 8.26667 153.079 8.52 153.705 8.84L152.965 10.9C151.792 10.2867 150.479 9.98 149.025 9.98C147.879 9.98 147.012 10.1667 146.425 10.54C145.852 10.9 145.565 11.3867 145.565 12C145.565 12.6 145.779 13.06 146.205 13.38C146.632 13.6867 147.259 13.84 148.085 13.84H151.785V16H147.945C146.999 16 146.265 16.1667 145.745 16.5C145.225 16.82 144.965 17.3 144.965 17.94C144.965 18.58 145.279 19.0867 145.905 19.46C146.532 19.8333 147.479 20.02 148.745 20.02C149.625 20.02 150.479 19.9 151.305 19.66C152.145 19.42 152.845 19.0867 153.405 18.66L154.245 20.66ZM171.118 22L168.258 17.9C168.138 17.9133 167.958 17.92 167.718 17.92H164.558V22H161.958V8H167.718C168.931 8 169.985 8.2 170.878 8.6C171.785 9 172.478 9.57333 172.958 10.32C173.438 11.0667 173.678 11.9533 173.678 12.98C173.678 14.0333 173.418 14.94 172.898 15.7C172.391 16.46 171.658 17.0267 170.698 17.4L173.918 22H171.118ZM171.058 12.98C171.058 12.0867 170.765 11.4 170.178 10.92C169.591 10.44 168.731 10.2 167.598 10.2H164.558V15.78H167.598C168.731 15.78 169.591 15.54 170.178 15.06C170.765 14.5667 171.058 13.8733 171.058 12.98ZM183.127 22.2C181.7 22.2 180.414 21.8933 179.267 21.28C178.12 20.6533 177.22 19.7933 176.567 18.7C175.914 17.5933 175.587 16.36 175.587 15C175.587 13.64 175.914 12.4133 176.567 11.32C177.22 10.2133 178.12 9.35333 179.267 8.74C180.414 8.11333 181.7 7.8 183.127 7.8C184.554 7.8 185.84 8.11333 186.987 8.74C188.134 9.35333 189.034 10.2067 189.687 11.3C190.34 12.3933 190.667 13.6267 190.667 15C190.667 16.3733 190.34 17.6067 189.687 18.7C189.034 19.7933 188.134 20.6533 186.987 21.28C185.84 21.8933 184.554 22.2 183.127 22.2ZM183.127 19.92C184.06 19.92 184.9 19.7133 185.647 19.3C186.394 18.8733 186.98 18.2867 187.407 17.54C187.834 16.78 188.047 15.9333 188.047 15C188.047 14.0667 187.834 13.2267 187.407 12.48C186.98 11.72 186.394 11.1333 185.647 10.72C184.9 10.2933 184.06 10.08 183.127 10.08C182.194 10.08 181.354 10.2933 180.607 10.72C179.86 11.1333 179.274 11.72 178.847 12.48C178.42 13.2267 178.207 14.0667 178.207 15C178.207 15.9333 178.42 16.78 178.847 17.54C179.274 18.2867 179.86 18.8733 180.607 19.3C181.354 19.7133 182.194 19.92 183.127 19.92ZM205.523 8V22H203.023V20.22C202.076 21.54 200.61 22.2 198.623 22.2C196.97 22.2 195.67 21.6867 194.723 20.66C193.776 19.62 193.303 18.1533 193.303 16.26V8H195.903V16.16C195.903 17.4 196.196 18.34 196.783 18.98C197.383 19.6067 198.203 19.92 199.243 19.92C200.363 19.92 201.256 19.5867 201.923 18.92C202.59 18.24 202.923 17.2333 202.923 15.9V8H205.523ZM215.042 8C216.256 8 217.309 8.2 218.202 8.6C219.109 9 219.802 9.57333 220.282 10.32C220.762 11.0667 221.002 11.9533 221.002 12.98C221.002 13.9933 220.762 14.88 220.282 15.64C219.802 16.3867 219.109 16.96 218.202 17.36C217.309 17.76 216.256 17.96 215.042 17.96H211.882V22H209.282V8H215.042ZM214.922 15.76C216.056 15.76 216.916 15.52 217.502 15.04C218.089 14.56 218.382 13.8733 218.382 12.98C218.382 12.0867 218.089 11.4 217.502 10.92C216.916 10.44 216.056 10.2 214.922 10.2H211.882V15.76H214.922ZM229.445 7.8C230.698 7.8 231.792 8.04667 232.725 8.54C233.658 9.03333 234.378 9.76667 234.885 10.74C235.405 11.7 235.665 12.8667 235.665 14.24V22H233.065V18.4H225.785V22H223.225V14.24C223.225 12.8667 223.478 11.7 223.985 10.74C224.505 9.76667 225.232 9.03333 226.165 8.54C227.098 8.04667 228.192 7.8 229.445 7.8ZM233.065 16.22V14C233.065 12.7067 232.745 11.7333 232.105 11.08C231.465 10.4133 230.572 10.08 229.425 10.08C228.278 10.08 227.385 10.4133 226.745 11.08C226.105 11.7333 225.785 12.7067 225.785 14V16.22H233.065ZM244.829 8H250.949C252.443 8 253.769 8.29333 254.929 8.88C256.089 9.45333 256.989 10.2733 257.629 11.34C258.269 12.3933 258.589 13.6133 258.589 15C258.589 16.3867 258.269 17.6133 257.629 18.68C256.989 19.7333 256.089 20.5533 254.929 21.14C253.769 21.7133 252.443 22 250.949 22H244.829V8ZM250.829 19.8C251.856 19.8 252.756 19.6067 253.529 19.22C254.316 18.82 254.916 18.26 255.329 17.54C255.756 16.8067 255.969 15.96 255.969 15C255.969 14.04 255.756 13.2 255.329 12.48C254.916 11.7467 254.316 11.1867 253.529 10.8C252.756 10.4 251.856 10.2 250.829 10.2H247.429V19.8H250.829ZM272.273 20.66C271.646 21.1533 270.839 21.5333 269.853 21.8C268.866 22.0667 267.799 22.2 266.653 22.2C265.306 22.2 264.159 22.0267 263.213 21.68C262.279 21.3333 261.573 20.8533 261.093 20.24C260.613 19.6267 260.373 18.92 260.373 18.12C260.373 17.3467 260.586 16.6733 261.013 16.1C261.439 15.5267 262.013 15.1067 262.733 14.84C262.186 14.5467 261.753 14.14 261.433 13.62C261.126 13.0867 260.973 12.4933 260.973 11.84C260.973 11.0933 261.193 10.42 261.633 9.82C262.086 9.20667 262.759 8.72 263.653 8.36C264.546 7.98667 265.646 7.8 266.953 7.8C267.833 7.8 268.693 7.89333 269.533 8.08C270.373 8.26667 271.106 8.52 271.733 8.84L270.993 10.9C269.819 10.2867 268.506 9.98 267.053 9.98C265.906 9.98 265.039 10.1667 264.453 10.54C263.879 10.9 263.593 11.3867 263.593 12C263.593 12.6 263.806 13.06 264.233 13.38C264.659 13.6867 265.286 13.84 266.113 13.84H269.813V16H265.973C265.026 16 264.293 16.1667 263.773 16.5C263.253 16.82 262.993 17.3 262.993 17.94C262.993 18.58 263.306 19.0867 263.933 19.46C264.559 19.8333 265.506 20.02 266.773 20.02C267.653 20.02 268.506 19.9 269.333 19.66C270.173 19.42 270.873 19.0867 271.433 18.66L272.273 20.66ZM286.465 22.2C285.052 22.2 283.772 21.8933 282.625 21.28C281.492 20.6533 280.599 19.7933 279.945 18.7C279.305 17.6067 278.985 16.3733 278.985 15C278.985 13.6267 279.312 12.3933 279.965 11.3C280.619 10.2067 281.512 9.35333 282.645 8.74C283.792 8.11333 285.072 7.8 286.485 7.8C287.632 7.8 288.679 8 289.625 8.4C290.572 8.8 291.372 9.38 292.025 10.14L290.345 11.72C289.332 10.6267 288.085 10.08 286.605 10.08C285.645 10.08 284.785 10.2933 284.025 10.72C283.265 11.1333 282.672 11.7133 282.245 12.46C281.819 13.2067 281.605 14.0533 281.605 15C281.605 15.9467 281.819 16.7933 282.245 17.54C282.672 18.2867 283.265 18.8733 284.025 19.3C284.785 19.7133 285.645 19.92 286.605 19.92C288.085 19.92 289.332 19.3667 290.345 18.26L292.025 19.86C291.372 20.62 290.565 21.2 289.605 21.6C288.659 22 287.612 22.2 286.465 22.2ZM300.617 7.8C301.87 7.8 302.963 8.04667 303.897 8.54C304.83 9.03333 305.55 9.76667 306.057 10.74C306.577 11.7 306.837 12.8667 306.837 14.24V22H304.237V18.4H296.957V22H294.397V14.24C294.397 12.8667 294.65 11.7 295.157 10.74C295.677 9.76667 296.403 9.03333 297.337 8.54C298.27 8.04667 299.363 7.8 300.617 7.8ZM304.237 16.22V14C304.237 12.7067 303.917 11.7333 303.277 11.08C302.637 10.4133 301.743 10.08 300.597 10.08C299.45 10.08 298.557 10.4133 297.917 11.08C297.277 11.7333 296.957 12.7067 296.957 14V16.22H304.237ZM326.114 7.8C327.754 7.8 329.034 8.28 329.954 9.24C330.874 10.1867 331.334 11.5533 331.334 13.34V22H328.734V13.44C328.734 12.3333 328.44 11.5 327.854 10.94C327.28 10.3667 326.527 10.08 325.594 10.08C324.554 10.08 323.72 10.3733 323.094 10.96C322.48 11.5467 322.174 12.4467 322.174 13.66V22H319.574V13.44C319.574 12.32 319.3 11.48 318.754 10.92C318.22 10.36 317.487 10.08 316.554 10.08C315.5 10.08 314.654 10.38 314.014 10.98C313.387 11.5667 313.074 12.46 313.074 13.66V22H310.474V8H312.994V9.84C313.42 9.18667 314 8.68667 314.734 8.34C315.467 7.98 316.314 7.8 317.274 7.8C318.26 7.8 319.12 7.98667 319.854 8.36C320.587 8.73333 321.14 9.26 321.514 9.94C321.98 9.26 322.614 8.73333 323.414 8.36C324.227 7.98667 325.127 7.8 326.114 7.8ZM341.066 7.8C342.319 7.8 343.413 8.04667 344.346 8.54C345.279 9.03333 345.999 9.76667 346.506 10.74C347.026 11.7 347.286 12.8667 347.286 14.24V22H344.686V18.4H337.406V22H334.846V14.24C334.846 12.8667 335.099 11.7 335.606 10.74C336.126 9.76667 336.853 9.03333 337.786 8.54C338.719 8.04667 339.813 7.8 341.066 7.8ZM344.686 16.22V14C344.686 12.7067 344.366 11.7333 343.726 11.08C343.086 10.4133 342.193 10.08 341.046 10.08C339.899 10.08 339.006 10.4133 338.366 11.08C337.726 11.7333 337.406 12.7067 337.406 14V16.22H344.686ZM351.503 18.82C351.97 18.82 352.356 18.9733 352.663 19.28C352.97 19.5867 353.123 19.9867 353.123 20.48C353.123 20.6933 353.09 20.92 353.023 21.16C352.97 21.3867 352.85 21.7333 352.663 22.2L351.643 25.02H350.023L350.823 21.96C350.53 21.84 350.296 21.6533 350.123 21.4C349.963 21.1333 349.883 20.8267 349.883 20.48C349.883 19.9867 350.036 19.5867 350.343 19.28C350.65 18.9733 351.036 18.82 351.503 18.82ZM376.973 7.8C378.613 7.8 379.893 8.28 380.813 9.24C381.733 10.1867 382.193 11.5533 382.193 13.34V22H379.593V13.44C379.593 12.3333 379.3 11.5 378.713 10.94C378.14 10.3667 377.386 10.08 376.453 10.08C375.413 10.08 374.58 10.3733 373.953 10.96C373.34 11.5467 373.033 12.4467 373.033 13.66V22H370.433V13.44C370.433 12.32 370.16 11.48 369.613 10.92C369.08 10.36 368.346 10.08 367.413 10.08C366.36 10.08 365.513 10.38 364.873 10.98C364.246 11.5667 363.933 12.46 363.933 13.66V22H361.333V8H363.853V9.84C364.28 9.18667 364.86 8.68667 365.593 8.34C366.326 7.98 367.173 7.8 368.133 7.8C369.12 7.8 369.98 7.98667 370.713 8.36C371.446 8.73333 372 9.26 372.373 9.94C372.84 9.26 373.473 8.73333 374.273 8.36C375.086 7.98667 375.986 7.8 376.973 7.8ZM396.745 20.66C396.119 21.1533 395.312 21.5333 394.325 21.8C393.339 22.0667 392.272 22.2 391.125 22.2C389.779 22.2 388.632 22.0267 387.685 21.68C386.752 21.3333 386.045 20.8533 385.565 20.24C385.085 19.6267 384.845 18.92 384.845 18.12C384.845 17.3467 385.059 16.6733 385.485 16.1C385.912 15.5267 386.485 15.1067 387.205 14.84C386.659 14.5467 386.225 14.14 385.905 13.62C385.599 13.0867 385.445 12.4933 385.445 11.84C385.445 11.0933 385.665 10.42 386.105 9.82C386.559 9.20667 387.232 8.72 388.125 8.36C389.019 7.98667 390.119 7.8 391.425 7.8C392.305 7.8 393.165 7.89333 394.005 8.08C394.845 8.26667 395.579 8.52 396.205 8.84L395.465 10.9C394.292 10.2867 392.979 9.98 391.525 9.98C390.379 9.98 389.512 10.1667 388.925 10.54C388.352 10.9 388.065 11.3867 388.065 12C388.065 12.6 388.279 13.06 388.705 13.38C389.132 13.6867 389.759 13.84 390.585 13.84H394.285V16H390.445C389.499 16 388.765 16.1667 388.245 16.5C387.725 16.82 387.465 17.3 387.465 17.94C387.465 18.58 387.779 19.0867 388.405 19.46C389.032 19.8333 389.979 20.02 391.245 20.02C392.125 20.02 392.979 19.9 393.805 19.66C394.645 19.42 395.345 19.0867 395.905 18.66L396.745 20.66ZM403.271 22.2C402.191 22.2 401.144 22.0467 400.131 21.74C399.131 21.4333 398.337 21.0267 397.751 20.52L398.651 18.5C399.224 18.9533 399.924 19.3267 400.751 19.62C401.591 19.9 402.431 20.04 403.271 20.04C404.311 20.04 405.084 19.8733 405.591 19.54C406.111 19.2067 406.371 18.7667 406.371 18.22C406.371 17.82 406.224 17.4933 405.931 17.24C405.651 16.9733 405.291 16.7667 404.851 16.62C404.411 16.4733 403.811 16.3067 403.051 16.12C401.984 15.8667 401.117 15.6133 400.451 15.36C399.797 15.1067 399.231 14.7133 398.751 14.18C398.284 13.6333 398.051 12.9 398.051 11.98C398.051 11.2067 398.257 10.5067 398.671 9.88C399.097 9.24 399.731 8.73333 400.571 8.36C401.424 7.98667 402.464 7.8 403.691 7.8C404.544 7.8 405.384 7.90667 406.211 8.12C407.037 8.33333 407.751 8.64 408.351 9.04L407.531 11.06C406.917 10.7 406.277 10.4267 405.611 10.24C404.944 10.0533 404.297 9.96 403.671 9.96C402.644 9.96 401.877 10.1333 401.371 10.48C400.877 10.8267 400.631 11.2867 400.631 11.86C400.631 12.26 400.771 12.5867 401.051 12.84C401.344 13.0933 401.711 13.2933 402.151 13.44C402.591 13.5867 403.191 13.7533 403.951 13.94C404.991 14.18 405.844 14.4333 406.511 14.7C407.177 14.9533 407.744 15.3467 408.211 15.88C408.691 16.4133 408.931 17.1333 408.931 18.04C408.931 18.8133 408.717 19.5133 408.291 20.14C407.877 20.7667 407.244 21.2667 406.391 21.64C405.537 22.0133 404.497 22.2 403.271 22.2ZM417.609 7.8C418.862 7.8 419.956 8.04667 420.889 8.54C421.822 9.03333 422.542 9.76667 423.049 10.74C423.569 11.7 423.829 12.8667 423.829 14.24V22H421.229V18.4H413.949V22H411.389V14.24C411.389 12.8667 411.642 11.7 412.149 10.74C412.669 9.76667 413.396 9.03333 414.329 8.54C415.262 8.04667 416.356 7.8 417.609 7.8ZM421.229 16.22V14C421.229 12.7067 420.909 11.7333 420.269 11.08C419.629 10.4133 418.736 10.08 417.589 10.08C416.442 10.08 415.549 10.4133 414.909 11.08C414.269 11.7333 413.949 12.7067 413.949 14V16.22H421.229ZM443.913 20.66C443.287 21.1533 442.48 21.5333 441.493 21.8C440.507 22.0667 439.44 22.2 438.293 22.2C436.947 22.2 435.8 22.0267 434.853 21.68C433.92 21.3333 433.213 20.8533 432.733 20.24C432.253 19.6267 432.013 18.92 432.013 18.12C432.013 17.3467 432.227 16.6733 432.653 16.1C433.08 15.5267 433.653 15.1067 434.373 14.84C433.827 14.5467 433.393 14.14 433.073 13.62C432.767 13.0867 432.613 12.4933 432.613 11.84C432.613 11.0933 432.833 10.42 433.273 9.82C433.727 9.20667 434.4 8.72 435.293 8.36C436.187 7.98667 437.287 7.8 438.593 7.8C439.473 7.8 440.333 7.89333 441.173 8.08C442.013 8.26667 442.747 8.52 443.373 8.84L442.633 10.9C441.46 10.2867 440.147 9.98 438.693 9.98C437.547 9.98 436.68 10.1667 436.093 10.54C435.52 10.9 435.233 11.3867 435.233 12C435.233 12.6 435.447 13.06 435.873 13.38C436.3 13.6867 436.927 13.84 437.753 13.84H441.453V16H437.613C436.667 16 435.933 16.1667 435.413 16.5C434.893 16.82 434.633 17.3 434.633 17.94C434.633 18.58 434.947 19.0867 435.573 19.46C436.2 19.8333 437.147 20.02 438.413 20.02C439.293 20.02 440.147 19.9 440.973 19.66C441.813 19.42 442.513 19.0867 443.073 18.66L443.913 20.66ZM461.546 14.72C462.319 14.9733 462.933 15.4 463.386 16C463.839 16.5867 464.066 17.32 464.066 18.2C464.066 19.4133 463.599 20.3533 462.666 21.02C461.733 21.6733 460.373 22 458.586 22H451.626V8H458.186C459.839 8 461.113 8.32667 462.006 8.98C462.899 9.62 463.346 10.5067 463.346 11.64C463.346 12.3333 463.186 12.9467 462.866 13.48C462.546 14.0133 462.106 14.4267 461.546 14.72ZM454.226 10.04V13.9H457.906C458.813 13.9 459.506 13.74 459.986 13.42C460.479 13.0867 460.726 12.6067 460.726 11.98C460.726 11.34 460.479 10.86 459.986 10.54C459.506 10.2067 458.813 10.04 457.906 10.04H454.226ZM458.426 19.96C460.439 19.96 461.446 19.2867 461.446 17.94C461.446 16.5933 460.439 15.92 458.426 15.92H454.226V19.96H458.426ZM472.941 7.8C474.194 7.8 475.288 8.04667 476.221 8.54C477.154 9.03333 477.874 9.76667 478.381 10.74C478.901 11.7 479.161 12.8667 479.161 14.24V22H476.561V18.4H469.281V22H466.721V14.24C466.721 12.8667 466.974 11.7 467.481 10.74C468.001 9.76667 468.728 9.03333 469.661 8.54C470.594 8.04667 471.688 7.8 472.941 7.8ZM476.561 16.22V14C476.561 12.7067 476.241 11.7333 475.601 11.08C474.961 10.4133 474.068 10.08 472.921 10.08C471.774 10.08 470.881 10.4133 470.241 11.08C469.601 11.7333 469.281 12.7067 469.281 14V16.22H476.561ZM489.758 7.8C491.438 7.8 492.745 8.31333 493.678 9.34C494.625 10.3667 495.098 11.8333 495.098 13.74V22H492.498V13.84C492.498 12.6 492.198 11.6667 491.598 11.04C491.011 10.4 490.191 10.08 489.138 10.08C487.991 10.08 487.078 10.42 486.398 11.1C485.731 11.7667 485.398 12.7667 485.398 14.1V22H482.798V8H485.318V9.76C486.291 8.45333 487.771 7.8 489.758 7.8ZM511.175 8V22H508.575V16H501.335V22H498.735V8H501.335V13.78H508.575V8H511.175ZM521.467 22.2C520.04 22.2 518.754 21.8933 517.607 21.28C516.46 20.6533 515.56 19.7933 514.907 18.7C514.254 17.5933 513.927 16.36 513.927 15C513.927 13.64 514.254 12.4133 514.907 11.32C515.56 10.2133 516.46 9.35333 517.607 8.74C518.754 8.11333 520.04 7.8 521.467 7.8C522.894 7.8 524.18 8.11333 525.327 8.74C526.474 9.35333 527.374 10.2067 528.027 11.3C528.68 12.3933 529.007 13.6267 529.007 15C529.007 16.3733 528.68 17.6067 528.027 18.7C527.374 19.7933 526.474 20.6533 525.327 21.28C524.18 21.8933 522.894 22.2 521.467 22.2ZM521.467 19.92C522.4 19.92 523.24 19.7133 523.987 19.3C524.734 18.8733 525.32 18.2867 525.747 17.54C526.174 16.78 526.387 15.9333 526.387 15C526.387 14.0667 526.174 13.2267 525.747 12.48C525.32 11.72 524.734 11.1333 523.987 10.72C523.24 10.2933 522.4 10.08 521.467 10.08C520.534 10.08 519.694 10.2933 518.947 10.72C518.2 11.1333 517.614 11.72 517.187 12.48C516.76 13.2267 516.547 14.0667 516.547 15C516.547 15.9333 516.76 16.78 517.187 17.54C517.614 18.2867 518.2 18.8733 518.947 19.3C519.694 19.7133 520.534 19.92 521.467 19.92Z" fill="white"/>
</svg>
