<svg width="243" height="46" viewBox="0 0 243 46" fill="none" xmlns="http://www.w3.org/2000/svg">
<path d="M41 1V45H1V1H41Z" fill="white" stroke="black" stroke-width="2"/>
<path d="M242 1V28H54V1H242Z" fill="#0033CC" stroke="black" stroke-width="2"/>
<path d="M54 1V28H41V1H54Z" fill="#FFCC00" stroke="black" stroke-width="2"/>
<path d="M41 1V28H23V1H41Z" fill="#FF6600" stroke="black" stroke-width="2"/>
<path d="M82.52 7.8C84.16 7.8 85.44 8.28 86.36 9.24C87.28 10.1867 87.74 11.5533 87.74 13.34V22H85.14V13.44C85.14 12.3333 84.8467 11.5 84.26 10.94C83.6867 10.3667 82.9333 10.08 82 10.08C80.96 10.08 80.1267 10.3733 79.5 10.96C78.8867 11.5467 78.58 12.4467 78.58 13.66V22H75.98V13.44C75.98 12.32 75.7067 11.48 75.16 10.92C74.6267 10.36 73.8933 10.08 72.96 10.08C71.9067 10.08 71.06 10.38 70.42 10.98C69.7933 11.5667 69.48 12.46 69.48 13.66V22H66.88V8H69.4V9.84C69.8267 9.18667 70.4067 8.68667 71.14 8.34C71.8733 7.98 72.72 7.8 73.68 7.8C74.6667 7.8 75.5267 7.98667 76.26 8.36C76.9933 8.73333 77.5467 9.26 77.92 9.94C78.3867 9.26 79.02 8.73333 79.82 8.36C80.6333 7.98667 81.5333 7.8 82.52 7.8ZM102.292 20.66C101.666 21.1533 100.859 21.5333 99.8722 21.8C98.8855 22.0667 97.8189 22.2 96.6722 22.2C95.3255 22.2 94.1789 22.0267 93.2322 21.68C92.2989 21.3333 91.5922 20.8533 91.1122 20.24C90.6322 19.6267 90.3922 18.92 90.3922 18.12C90.3922 17.3467 90.6055 16.6733 91.0322 16.1C91.4589 15.5267 92.0322 15.1067 92.7522 14.84C92.2055 14.5467 91.7722 14.14 91.4522 13.62C91.1455 13.0867 90.9922 12.4933 90.9922 11.84C90.9922 11.0933 91.2122 10.42 91.6522 9.82C92.1055 9.20667 92.7789 8.72 93.6722 8.36C94.5655 7.98667 95.6655 7.8 96.9722 7.8C97.8522 7.8 98.7122 7.89333 99.5522 8.08C100.392 8.26667 101.126 8.52 101.752 8.84L101.012 10.9C99.8389 10.2867 98.5255 9.98 97.0722 9.98C95.9255 9.98 95.0589 10.1667 94.4722 10.54C93.8989 10.9 93.6122 11.3867 93.6122 12C93.6122 12.6 93.8255 13.06 94.2522 13.38C94.6789 13.6867 95.3055 13.84 96.1322 13.84H99.8322V16H95.9922C95.0455 16 94.3122 16.1667 93.7922 16.5C93.2722 16.82 93.0122 17.3 93.0122 17.94C93.0122 18.58 93.3255 19.0867 93.9522 19.46C94.5789 19.8333 95.5255 20.02 96.7922 20.02C97.6722 20.02 98.5255 19.9 99.3522 19.66C100.192 19.42 100.892 19.0867 101.452 18.66L102.292 20.66ZM114.1 11.48C112.78 10.7333 111.407 10.28 109.98 10.12V22H107.38V10.12C105.94 10.28 104.56 10.7333 103.24 11.48L102.34 9.48C103.273 8.92 104.273 8.5 105.34 8.22C106.42 7.94 107.527 7.8 108.66 7.8C109.793 7.8 110.9 7.94 111.98 8.22C113.06 8.5 114.067 8.92 115 9.48L114.1 11.48ZM123.068 22.2C121.642 22.2 120.355 21.8933 119.208 21.28C118.062 20.6533 117.162 19.7933 116.508 18.7C115.855 17.5933 115.528 16.36 115.528 15C115.528 13.64 115.855 12.4133 116.508 11.32C117.162 10.2133 118.062 9.35333 119.208 8.74C120.355 8.11333 121.642 7.8 123.068 7.8C124.495 7.8 125.782 8.11333 126.928 8.74C128.075 9.35333 128.975 10.2067 129.628 11.3C130.282 12.3933 130.608 13.6267 130.608 15C130.608 16.3733 130.282 17.6067 129.628 18.7C128.975 19.7933 128.075 20.6533 126.928 21.28C125.782 21.8933 124.495 22.2 123.068 22.2ZM123.068 19.92C124.002 19.92 124.842 19.7133 125.588 19.3C126.335 18.8733 126.922 18.2867 127.348 17.54C127.775 16.78 127.988 15.9333 127.988 15C127.988 14.0667 127.775 13.2267 127.348 12.48C126.922 11.72 126.335 11.1333 125.588 10.72C124.842 10.2933 124.002 10.08 123.068 10.08C122.135 10.08 121.295 10.2933 120.548 10.72C119.802 11.1333 119.215 11.72 118.788 12.48C118.362 13.2267 118.148 14.0667 118.148 15C118.148 15.9333 118.362 16.78 118.788 17.54C119.215 18.2867 119.802 18.8733 120.548 19.3C121.295 19.7133 122.135 19.92 123.068 19.92ZM133.364 8H139.484C140.978 8 142.304 8.29333 143.464 8.88C144.624 9.45333 145.524 10.2733 146.164 11.34C146.804 12.3933 147.124 13.6133 147.124 15C147.124 16.3867 146.804 17.6133 146.164 18.68C145.524 19.7333 144.624 20.5533 143.464 21.14C142.304 21.7133 140.978 22 139.484 22H133.364V8ZM139.364 19.8C140.391 19.8 141.291 19.6067 142.064 19.22C142.851 18.82 143.451 18.26 143.864 17.54C144.291 16.8067 144.504 15.96 144.504 15C144.504 14.04 144.291 13.2 143.864 12.48C143.451 11.7467 142.851 11.1867 142.064 10.8C141.291 10.4 140.391 10.2 139.364 10.2H135.964V19.8H139.364ZM156.428 22.2C155.001 22.2 153.714 21.8933 152.568 21.28C151.421 20.6533 150.521 19.7933 149.868 18.7C149.214 17.5933 148.888 16.36 148.888 15C148.888 13.64 149.214 12.4133 149.868 11.32C150.521 10.2133 151.421 9.35333 152.568 8.74C153.714 8.11333 155.001 7.8 156.428 7.8C157.854 7.8 159.141 8.11333 160.288 8.74C161.434 9.35333 162.334 10.2067 162.988 11.3C163.641 12.3933 163.968 13.6267 163.968 15C163.968 16.3733 163.641 17.6067 162.988 18.7C162.334 19.7933 161.434 20.6533 160.288 21.28C159.141 21.8933 157.854 22.2 156.428 22.2ZM156.428 19.92C157.361 19.92 158.201 19.7133 158.948 19.3C159.694 18.8733 160.281 18.2867 160.708 17.54C161.134 16.78 161.348 15.9333 161.348 15C161.348 14.0667 161.134 13.2267 160.708 12.48C160.281 11.72 159.694 11.1333 158.948 10.72C158.201 10.2933 157.361 10.08 156.428 10.08C155.494 10.08 154.654 10.2933 153.908 10.72C153.161 11.1333 152.574 11.72 152.148 12.48C151.721 13.2267 151.508 14.0667 151.508 15C151.508 15.9333 151.721 16.78 152.148 17.54C152.574 18.2867 153.161 18.8733 153.908 19.3C154.654 19.7133 155.494 19.92 156.428 19.92ZM166.724 8H169.324V19.8H176.644V22H166.724V8ZM184.983 22.2C183.556 22.2 182.269 21.8933 181.123 21.28C179.976 20.6533 179.076 19.7933 178.423 18.7C177.769 17.5933 177.443 16.36 177.443 15C177.443 13.64 177.769 12.4133 178.423 11.32C179.076 10.2133 179.976 9.35333 181.123 8.74C182.269 8.11333 183.556 7.8 184.983 7.8C186.409 7.8 187.696 8.11333 188.843 8.74C189.989 9.35333 190.889 10.2067 191.543 11.3C192.196 12.3933 192.523 13.6267 192.523 15C192.523 16.3733 192.196 17.6067 191.543 18.7C190.889 19.7933 189.989 20.6533 188.843 21.28C187.696 21.8933 186.409 22.2 184.983 22.2ZM184.983 19.92C185.916 19.92 186.756 19.7133 187.503 19.3C188.249 18.8733 188.836 18.2867 189.263 17.54C189.689 16.78 189.903 15.9333 189.903 15C189.903 14.0667 189.689 13.2267 189.263 12.48C188.836 11.72 188.249 11.1333 187.503 10.72C186.756 10.2933 185.916 10.08 184.983 10.08C184.049 10.08 183.209 10.2933 182.463 10.72C181.716 11.1333 181.129 11.72 180.703 12.48C180.276 13.2267 180.063 14.0667 180.063 15C180.063 15.9333 180.276 16.78 180.703 17.54C181.129 18.2867 181.716 18.8733 182.463 19.3C183.209 19.7133 184.049 19.92 184.983 19.92ZM204.838 14.84H207.298V22H205.158V21.18C204.158 21.86 202.905 22.2 201.398 22.2C200.105 22.2 198.918 21.92 197.838 21.36C196.758 20.8 195.892 19.9867 195.238 18.92C194.598 17.8533 194.278 16.58 194.278 15.1C194.278 13.7 194.605 12.4467 195.258 11.34C195.912 10.22 196.812 9.35333 197.958 8.74C199.118 8.11333 200.418 7.8 201.858 7.8C203.032 7.8 204.098 7.99333 205.058 8.38C206.018 8.76667 206.825 9.33333 207.478 10.08L205.838 11.68C204.772 10.6133 203.485 10.08 201.978 10.08C200.992 10.08 200.112 10.2933 199.338 10.72C198.578 11.1333 197.978 11.72 197.538 12.48C197.112 13.24 196.898 14.1067 196.898 15.08C196.898 16.1067 197.112 16.9933 197.538 17.74C197.978 18.4733 198.558 19.0333 199.278 19.42C199.998 19.7933 200.785 19.98 201.638 19.98C202.238 19.98 202.812 19.8867 203.358 19.7C203.918 19.5133 204.412 19.24 204.838 18.88V14.84ZM214.828 10.18V19.82H217.408V22H209.668V19.82H212.248V10.18H209.668V8H217.408V10.18H214.828ZM226.203 7.8C227.456 7.8 228.549 8.04667 229.483 8.54C230.416 9.03333 231.136 9.76667 231.643 10.74C232.163 11.7 232.423 12.8667 232.423 14.24V22H229.823V18.4H222.543V22H219.983V14.24C219.983 12.8667 220.236 11.7 220.743 10.74C221.263 9.76667 221.989 9.03333 222.923 8.54C223.856 8.04667 224.949 7.8 226.203 7.8ZM229.823 16.22V14C229.823 12.7067 229.503 11.7333 228.863 11.08C228.223 10.4133 227.329 10.08 226.183 10.08C225.036 10.08 224.143 10.4133 223.503 11.08C222.863 11.7333 222.543 12.7067 222.543 14V16.22H229.823Z" fill="white"/>
</svg>
