<svg width="547" height="46" viewBox="0 0 547 46" fill="none" xmlns="http://www.w3.org/2000/svg">
<path d="M41 1V45H1V1H41Z" fill="white" stroke="black" stroke-width="2"/>
<path d="M546 1V28H54V1H546Z" fill="#0033CC" stroke="black" stroke-width="2"/>
<path d="M54 1V28H41V1H54Z" fill="#FFCC00" stroke="black" stroke-width="2"/>
<path d="M41 1V28H23V1H41Z" fill="#FF6600" stroke="black" stroke-width="2"/>
<path d="M76.6 11.48C75.28 10.7333 73.9067 10.28 72.48 10.12V22H69.88V10.12C68.44 10.28 67.06 10.7333 65.74 11.48L64.84 9.48C65.7733 8.92 66.7733 8.5 67.84 8.22C68.92 7.94 70.0267 7.8 71.16 7.8C72.2933 7.8 73.4 7.94 74.48 8.22C75.56 8.5 76.5667 8.92 77.5 9.48L76.6 11.48ZM88.3838 22L85.5238 17.9C85.4038 17.9133 85.2238 17.92 84.9838 17.92H81.8238V22H79.2238V8H84.9838C86.1971 8 87.2504 8.2 88.1438 8.6C89.0504 9 89.7438 9.57333 90.2238 10.32C90.7038 11.0667 90.9438 11.9533 90.9438 12.98C90.9438 14.0333 90.6838 14.94 90.1638 15.7C89.6571 16.46 88.9238 17.0267 87.9638 17.4L91.1838 22H88.3838ZM88.3238 12.98C88.3238 12.0867 88.0304 11.4 87.4437 10.92C86.8571 10.44 85.9971 10.2 84.8638 10.2H81.8238V15.78H84.8638C85.9971 15.78 86.8571 15.54 87.4437 15.06C88.0304 14.5667 88.3238 13.8733 88.3238 12.98ZM99.9527 7.8C101.206 7.8 102.299 8.04667 103.233 8.54C104.166 9.03333 104.886 9.76667 105.393 10.74C105.913 11.7 106.173 12.8667 106.173 14.24V22H103.573V18.4H96.2927V22H93.7327V14.24C93.7327 12.8667 93.986 11.7 94.4927 10.74C95.0127 9.76667 95.7393 9.03333 96.6727 8.54C97.606 8.04667 98.6993 7.8 99.9527 7.8ZM103.573 16.22V14C103.573 12.7067 103.253 11.7333 102.613 11.08C101.973 10.4133 101.079 10.08 99.9327 10.08C98.786 10.08 97.8927 10.4133 97.2527 11.08C96.6127 11.7333 96.2927 12.7067 96.2927 14V16.22H103.573ZM116.77 7.8C118.45 7.8 119.756 8.31333 120.69 9.34C121.636 10.3667 122.11 11.8333 122.11 13.74V22H119.51V13.84C119.51 12.6 119.21 11.6667 118.61 11.04C118.023 10.4 117.203 10.08 116.15 10.08C115.003 10.08 114.09 10.42 113.41 11.1C112.743 11.7667 112.41 12.7667 112.41 14.1V22H109.81V8H112.33V9.76C113.303 8.45333 114.783 7.8 116.77 7.8ZM130.087 22.2C129.007 22.2 127.961 22.0467 126.947 21.74C125.947 21.4333 125.154 21.0267 124.567 20.52L125.467 18.5C126.041 18.9533 126.741 19.3267 127.567 19.62C128.407 19.9 129.247 20.04 130.087 20.04C131.127 20.04 131.901 19.8733 132.407 19.54C132.927 19.2067 133.187 18.7667 133.187 18.22C133.187 17.82 133.041 17.4933 132.747 17.24C132.467 16.9733 132.107 16.7667 131.667 16.62C131.227 16.4733 130.627 16.3067 129.867 16.12C128.801 15.8667 127.934 15.6133 127.267 15.36C126.614 15.1067 126.047 14.7133 125.567 14.18C125.101 13.6333 124.867 12.9 124.867 11.98C124.867 11.2067 125.074 10.5067 125.487 9.88C125.914 9.24 126.547 8.73333 127.387 8.36C128.241 7.98667 129.281 7.8 130.507 7.8C131.361 7.8 132.201 7.90667 133.027 8.12C133.854 8.33333 134.567 8.64 135.167 9.04L134.347 11.06C133.734 10.7 133.094 10.4267 132.427 10.24C131.761 10.0533 131.114 9.96 130.487 9.96C129.461 9.96 128.694 10.1333 128.187 10.48C127.694 10.8267 127.447 11.2867 127.447 11.86C127.447 12.26 127.587 12.5867 127.867 12.84C128.161 13.0933 128.527 13.2933 128.967 13.44C129.407 13.5867 130.007 13.7533 130.767 13.94C131.807 14.18 132.661 14.4333 133.327 14.7C133.994 14.9533 134.561 15.3467 135.027 15.88C135.507 16.4133 135.747 17.1333 135.747 18.04C135.747 18.8133 135.534 19.5133 135.107 20.14C134.694 20.7667 134.061 21.2667 133.207 21.64C132.354 22.0133 131.314 22.2 130.087 22.2ZM144.085 8C145.299 8 146.352 8.2 147.245 8.6C148.152 9 148.845 9.57333 149.325 10.32C149.805 11.0667 150.045 11.9533 150.045 12.98C150.045 13.9933 149.805 14.88 149.325 15.64C148.845 16.3867 148.152 16.96 147.245 17.36C146.352 17.76 145.299 17.96 144.085 17.96H140.925V22H138.325V8H144.085ZM143.965 15.76C145.099 15.76 145.959 15.52 146.545 15.04C147.132 14.56 147.425 13.8733 147.425 12.98C147.425 12.0867 147.132 11.4 146.545 10.92C145.959 10.44 145.099 10.2 143.965 10.2H140.925V15.76H143.965ZM159.377 22.2C157.95 22.2 156.664 21.8933 155.517 21.28C154.37 20.6533 153.47 19.7933 152.817 18.7C152.164 17.5933 151.837 16.36 151.837 15C151.837 13.64 152.164 12.4133 152.817 11.32C153.47 10.2133 154.37 9.35333 155.517 8.74C156.664 8.11333 157.95 7.8 159.377 7.8C160.804 7.8 162.09 8.11333 163.237 8.74C164.384 9.35333 165.284 10.2067 165.937 11.3C166.59 12.3933 166.917 13.6267 166.917 15C166.917 16.3733 166.59 17.6067 165.937 18.7C165.284 19.7933 164.384 20.6533 163.237 21.28C162.09 21.8933 160.804 22.2 159.377 22.2ZM159.377 19.92C160.31 19.92 161.15 19.7133 161.897 19.3C162.644 18.8733 163.23 18.2867 163.657 17.54C164.084 16.78 164.297 15.9333 164.297 15C164.297 14.0667 164.084 13.2267 163.657 12.48C163.23 11.72 162.644 11.1333 161.897 10.72C161.15 10.2933 160.31 10.08 159.377 10.08C158.444 10.08 157.604 10.2933 156.857 10.72C156.11 11.1333 155.524 11.72 155.097 12.48C154.67 13.2267 154.457 14.0667 154.457 15C154.457 15.9333 154.67 16.78 155.097 17.54C155.524 18.2867 156.11 18.8733 156.857 19.3C157.604 19.7133 158.444 19.92 159.377 19.92ZM178.833 22L175.973 17.9C175.853 17.9133 175.673 17.92 175.433 17.92H172.273V22H169.673V8H175.433C176.646 8 177.7 8.2 178.593 8.6C179.5 9 180.193 9.57333 180.673 10.32C181.153 11.0667 181.393 11.9533 181.393 12.98C181.393 14.0333 181.133 14.94 180.613 15.7C180.106 16.46 179.373 17.0267 178.413 17.4L181.633 22H178.833ZM178.773 12.98C178.773 12.0867 178.48 11.4 177.893 10.92C177.306 10.44 176.446 10.2 175.313 10.2H172.273V15.78H175.313C176.446 15.78 177.306 15.54 177.893 15.06C178.48 14.5667 178.773 13.8733 178.773 12.98ZM194.022 11.48C192.702 10.7333 191.329 10.28 189.902 10.12V22H187.302V10.12C185.862 10.28 184.482 10.7333 183.162 11.48L182.262 9.48C183.195 8.92 184.195 8.5 185.262 8.22C186.342 7.94 187.449 7.8 188.582 7.8C189.715 7.8 190.822 7.94 191.902 8.22C192.982 8.5 193.989 8.92 194.922 9.48L194.022 11.48ZM207.37 20.66C206.744 21.1533 205.937 21.5333 204.95 21.8C203.964 22.0667 202.897 22.2 201.75 22.2C200.404 22.2 199.257 22.0267 198.31 21.68C197.377 21.3333 196.67 20.8533 196.19 20.24C195.71 19.6267 195.47 18.92 195.47 18.12C195.47 17.3467 195.684 16.6733 196.11 16.1C196.537 15.5267 197.11 15.1067 197.83 14.84C197.284 14.5467 196.85 14.14 196.53 13.62C196.224 13.0867 196.07 12.4933 196.07 11.84C196.07 11.0933 196.29 10.42 196.73 9.82C197.184 9.20667 197.857 8.72 198.75 8.36C199.644 7.98667 200.744 7.8 202.05 7.8C202.93 7.8 203.79 7.89333 204.63 8.08C205.47 8.26667 206.204 8.52 206.83 8.84L206.09 10.9C204.917 10.2867 203.604 9.98 202.15 9.98C201.004 9.98 200.137 10.1667 199.55 10.54C198.977 10.9 198.69 11.3867 198.69 12C198.69 12.6 198.904 13.06 199.33 13.38C199.757 13.6867 200.384 13.84 201.21 13.84H204.91V16H201.07C200.124 16 199.39 16.1667 198.87 16.5C198.35 16.82 198.09 17.3 198.09 17.94C198.09 18.58 198.404 19.0867 199.03 19.46C199.657 19.8333 200.604 20.02 201.87 20.02C202.75 20.02 203.604 19.9 204.43 19.66C205.27 19.42 205.97 19.0867 206.53 18.66L207.37 20.66ZM224.243 22L221.383 17.9C221.263 17.9133 221.083 17.92 220.843 17.92H217.683V22H215.083V8H220.843C222.056 8 223.11 8.2 224.003 8.6C224.91 9 225.603 9.57333 226.083 10.32C226.563 11.0667 226.803 11.9533 226.803 12.98C226.803 14.0333 226.543 14.94 226.023 15.7C225.516 16.46 224.783 17.0267 223.823 17.4L227.043 22H224.243ZM224.183 12.98C224.183 12.0867 223.89 11.4 223.303 10.92C222.716 10.44 221.856 10.2 220.723 10.2H217.683V15.78H220.723C221.856 15.78 222.716 15.54 223.303 15.06C223.89 14.5667 224.183 13.8733 224.183 12.98ZM236.252 22.2C234.825 22.2 233.539 21.8933 232.392 21.28C231.245 20.6533 230.345 19.7933 229.692 18.7C229.039 17.5933 228.712 16.36 228.712 15C228.712 13.64 229.039 12.4133 229.692 11.32C230.345 10.2133 231.245 9.35333 232.392 8.74C233.539 8.11333 234.825 7.8 236.252 7.8C237.679 7.8 238.965 8.11333 240.112 8.74C241.259 9.35333 242.159 10.2067 242.812 11.3C243.465 12.3933 243.792 13.6267 243.792 15C243.792 16.3733 243.465 17.6067 242.812 18.7C242.159 19.7933 241.259 20.6533 240.112 21.28C238.965 21.8933 237.679 22.2 236.252 22.2ZM236.252 19.92C237.185 19.92 238.025 19.7133 238.772 19.3C239.519 18.8733 240.105 18.2867 240.532 17.54C240.959 16.78 241.172 15.9333 241.172 15C241.172 14.0667 240.959 13.2267 240.532 12.48C240.105 11.72 239.519 11.1333 238.772 10.72C238.025 10.2933 237.185 10.08 236.252 10.08C235.319 10.08 234.479 10.2933 233.732 10.72C232.985 11.1333 232.399 11.72 231.972 12.48C231.545 13.2267 231.332 14.0667 231.332 15C231.332 15.9333 231.545 16.78 231.972 17.54C232.399 18.2867 232.985 18.8733 233.732 19.3C234.479 19.7133 235.319 19.92 236.252 19.92ZM246.548 8H252.668C254.161 8 255.488 8.29333 256.648 8.88C257.808 9.45333 258.708 10.2733 259.348 11.34C259.988 12.3933 260.308 13.6133 260.308 15C260.308 16.3867 259.988 17.6133 259.348 18.68C258.708 19.7333 257.808 20.5533 256.648 21.14C255.488 21.7133 254.161 22 252.668 22H246.548V8ZM252.548 19.8C253.575 19.8 254.475 19.6067 255.248 19.22C256.035 18.82 256.635 18.26 257.048 17.54C257.475 16.8067 257.688 15.96 257.688 15C257.688 14.04 257.475 13.2 257.048 12.48C256.635 11.7467 256.035 11.1867 255.248 10.8C254.475 10.4 253.575 10.2 252.548 10.2H249.148V19.8H252.548ZM269.611 22.2C268.185 22.2 266.898 21.8933 265.751 21.28C264.605 20.6533 263.705 19.7933 263.051 18.7C262.398 17.5933 262.071 16.36 262.071 15C262.071 13.64 262.398 12.4133 263.051 11.32C263.705 10.2133 264.605 9.35333 265.751 8.74C266.898 8.11333 268.185 7.8 269.611 7.8C271.038 7.8 272.325 8.11333 273.471 8.74C274.618 9.35333 275.518 10.2067 276.171 11.3C276.825 12.3933 277.151 13.6267 277.151 15C277.151 16.3733 276.825 17.6067 276.171 18.7C275.518 19.7933 274.618 20.6533 273.471 21.28C272.325 21.8933 271.038 22.2 269.611 22.2ZM269.611 19.92C270.545 19.92 271.385 19.7133 272.131 19.3C272.878 18.8733 273.465 18.2867 273.891 17.54C274.318 16.78 274.531 15.9333 274.531 15C274.531 14.0667 274.318 13.2267 273.891 12.48C273.465 11.72 272.878 11.1333 272.131 10.72C271.385 10.2933 270.545 10.08 269.611 10.08C268.678 10.08 267.838 10.2933 267.091 10.72C266.345 11.1333 265.758 11.72 265.331 12.48C264.905 13.2267 264.691 14.0667 264.691 15C264.691 15.9333 264.905 16.78 265.331 17.54C265.758 18.2867 266.345 18.8733 267.091 19.3C267.838 19.7133 268.678 19.92 269.611 19.92ZM292.258 8L286.158 22H283.598L277.478 8H280.298L284.958 18.8L289.658 8H292.258ZM298.128 10.18V19.82H300.708V22H292.968V19.82H295.548V10.18H292.968V8H300.708V10.18H298.128ZM309.503 7.8C310.757 7.8 311.85 8.04667 312.783 8.54C313.717 9.03333 314.437 9.76667 314.943 10.74C315.463 11.7 315.723 12.8667 315.723 14.24V22H313.123V18.4H305.843V22H303.283V14.24C303.283 12.8667 303.537 11.7 304.043 10.74C304.563 9.76667 305.29 9.03333 306.223 8.54C307.157 8.04667 308.25 7.8 309.503 7.8ZM313.123 16.22V14C313.123 12.7067 312.803 11.7333 312.163 11.08C311.523 10.4133 310.63 10.08 309.483 10.08C308.337 10.08 307.443 10.4133 306.803 11.08C306.163 11.7333 305.843 12.7067 305.843 14V16.22H313.123ZM310.523 4.12H313.463L309.983 6.86H307.823L310.523 4.12ZM328.52 22L325.66 17.9C325.54 17.9133 325.36 17.92 325.12 17.92H321.96V22H319.36V8H325.12C326.334 8 327.387 8.2 328.28 8.6C329.187 9 329.88 9.57333 330.36 10.32C330.84 11.0667 331.08 11.9533 331.08 12.98C331.08 14.0333 330.82 14.94 330.3 15.7C329.794 16.46 329.06 17.0267 328.1 17.4L331.32 22H328.52ZM328.46 12.98C328.46 12.0867 328.167 11.4 327.58 10.92C326.994 10.44 326.134 10.2 325 10.2H321.96V15.78H325C326.134 15.78 326.994 15.54 327.58 15.06C328.167 14.5667 328.46 13.8733 328.46 12.98ZM338.089 10.18V19.82H340.669V22H332.929V19.82H335.509V10.18H332.929V8H340.669V10.18H338.089ZM349.807 22.2C348.38 22.2 347.093 21.8933 345.947 21.28C344.8 20.6533 343.9 19.7933 343.247 18.7C342.593 17.5933 342.267 16.36 342.267 15C342.267 13.64 342.593 12.4133 343.247 11.32C343.9 10.2133 344.8 9.35333 345.947 8.74C347.093 8.11333 348.38 7.8 349.807 7.8C351.233 7.8 352.52 8.11333 353.667 8.74C354.813 9.35333 355.713 10.2067 356.367 11.3C357.02 12.3933 357.347 13.6267 357.347 15C357.347 16.3733 357.02 17.6067 356.367 18.7C355.713 19.7933 354.813 20.6533 353.667 21.28C352.52 21.8933 351.233 22.2 349.807 22.2ZM349.807 19.92C350.74 19.92 351.58 19.7133 352.327 19.3C353.073 18.8733 353.66 18.2867 354.087 17.54C354.513 16.78 354.727 15.9333 354.727 15C354.727 14.0667 354.513 13.2267 354.087 12.48C353.66 11.72 353.073 11.1333 352.327 10.72C351.58 10.2933 350.74 10.08 349.807 10.08C348.873 10.08 348.033 10.2933 347.287 10.72C346.54 11.1333 345.953 11.72 345.527 12.48C345.1 13.2267 344.887 14.0667 344.887 15C344.887 15.9333 345.1 16.78 345.527 17.54C345.953 18.2867 346.54 18.8733 347.287 19.3C348.033 19.7133 348.873 19.92 349.807 19.92ZM365.63 8H371.75C373.243 8 374.57 8.29333 375.73 8.88C376.89 9.45333 377.79 10.2733 378.43 11.34C379.07 12.3933 379.39 13.6133 379.39 15C379.39 16.3867 379.07 17.6133 378.43 18.68C377.79 19.7333 376.89 20.5533 375.73 21.14C374.57 21.7133 373.243 22 371.75 22H365.63V8ZM371.63 19.8C372.657 19.8 373.557 19.6067 374.33 19.22C375.117 18.82 375.717 18.26 376.13 17.54C376.557 16.8067 376.77 15.96 376.77 15C376.77 14.04 376.557 13.2 376.13 12.48C375.717 11.7467 375.117 11.1867 374.33 10.8C373.557 10.4 372.657 10.2 371.63 10.2H368.23V19.8H371.63ZM393.073 20.66C392.447 21.1533 391.64 21.5333 390.653 21.8C389.667 22.0667 388.6 22.2 387.453 22.2C386.107 22.2 384.96 22.0267 384.013 21.68C383.08 21.3333 382.373 20.8533 381.893 20.24C381.413 19.6267 381.173 18.92 381.173 18.12C381.173 17.3467 381.387 16.6733 381.813 16.1C382.24 15.5267 382.813 15.1067 383.533 14.84C382.987 14.5467 382.553 14.14 382.233 13.62C381.927 13.0867 381.773 12.4933 381.773 11.84C381.773 11.0933 381.993 10.42 382.433 9.82C382.887 9.20667 383.56 8.72 384.453 8.36C385.347 7.98667 386.447 7.8 387.753 7.8C388.633 7.8 389.493 7.89333 390.333 8.08C391.173 8.26667 391.907 8.52 392.533 8.84L391.793 10.9C390.62 10.2867 389.307 9.98 387.853 9.98C386.707 9.98 385.84 10.1667 385.253 10.54C384.68 10.9 384.393 11.3867 384.393 12C384.393 12.6 384.607 13.06 385.033 13.38C385.46 13.6867 386.087 13.84 386.913 13.84H390.613V16H386.773C385.827 16 385.093 16.1667 384.573 16.5C384.053 16.82 383.793 17.3 383.793 17.94C383.793 18.58 384.107 19.0867 384.733 19.46C385.36 19.8333 386.307 20.02 387.573 20.02C388.453 20.02 389.307 19.9 390.133 19.66C390.973 19.42 391.673 19.0867 392.233 18.66L393.073 20.66ZM406.546 8C407.76 8 408.813 8.2 409.706 8.6C410.613 9 411.306 9.57333 411.786 10.32C412.266 11.0667 412.506 11.9533 412.506 12.98C412.506 13.9933 412.266 14.88 411.786 15.64C411.306 16.3867 410.613 16.96 409.706 17.36C408.813 17.76 407.76 17.96 406.546 17.96H403.386V22H400.786V8H406.546ZM406.426 15.76C407.56 15.76 408.42 15.52 409.006 15.04C409.593 14.56 409.886 13.8733 409.886 12.98C409.886 12.0867 409.593 11.4 409.006 10.92C408.42 10.44 407.56 10.2 406.426 10.2H403.386V15.76H406.426ZM420.949 7.8C422.202 7.8 423.295 8.04667 424.229 8.54C425.162 9.03333 425.882 9.76667 426.389 10.74C426.909 11.7 427.169 12.8667 427.169 14.24V22H424.569V18.4H417.289V22H414.729V14.24C414.729 12.8667 414.982 11.7 415.489 10.74C416.009 9.76667 416.735 9.03333 417.669 8.54C418.602 8.04667 419.695 7.8 420.949 7.8ZM424.569 16.22V14C424.569 12.7067 424.249 11.7333 423.609 11.08C422.969 10.4133 422.075 10.08 420.929 10.08C419.782 10.08 418.889 10.4133 418.249 11.08C417.609 11.7333 417.289 12.7067 417.289 14V16.22H424.569ZM435.146 22.2C434.066 22.2 433.019 22.0467 432.006 21.74C431.006 21.4333 430.212 21.0267 429.626 20.52L430.526 18.5C431.099 18.9533 431.799 19.3267 432.626 19.62C433.466 19.9 434.306 20.04 435.146 20.04C436.186 20.04 436.959 19.8733 437.466 19.54C437.986 19.2067 438.246 18.7667 438.246 18.22C438.246 17.82 438.099 17.4933 437.806 17.24C437.526 16.9733 437.166 16.7667 436.726 16.62C436.286 16.4733 435.686 16.3067 434.926 16.12C433.859 15.8667 432.992 15.6133 432.326 15.36C431.672 15.1067 431.106 14.7133 430.626 14.18C430.159 13.6333 429.926 12.9 429.926 11.98C429.926 11.2067 430.132 10.5067 430.546 9.88C430.972 9.24 431.606 8.73333 432.446 8.36C433.299 7.98667 434.339 7.8 435.566 7.8C436.419 7.8 437.259 7.90667 438.086 8.12C438.912 8.33333 439.626 8.64 440.226 9.04L439.406 11.06C438.792 10.7 438.152 10.4267 437.486 10.24C436.819 10.0533 436.172 9.96 435.546 9.96C434.519 9.96 433.752 10.1333 433.246 10.48C432.752 10.8267 432.506 11.2867 432.506 11.86C432.506 12.26 432.646 12.5867 432.926 12.84C433.219 13.0933 433.586 13.2933 434.026 13.44C434.466 13.5867 435.066 13.7533 435.826 13.94C436.866 14.18 437.719 14.4333 438.386 14.7C439.052 14.9533 439.619 15.3467 440.086 15.88C440.566 16.4133 440.806 17.1333 440.806 18.04C440.806 18.8133 440.592 19.5133 440.166 20.14C439.752 20.7667 439.119 21.2667 438.266 21.64C437.412 22.0133 436.372 22.2 435.146 22.2ZM447.724 22.2C446.644 22.2 445.597 22.0467 444.584 21.74C443.584 21.4333 442.791 21.0267 442.204 20.52L443.104 18.5C443.677 18.9533 444.377 19.3267 445.204 19.62C446.044 19.9 446.884 20.04 447.724 20.04C448.764 20.04 449.537 19.8733 450.044 19.54C450.564 19.2067 450.824 18.7667 450.824 18.22C450.824 17.82 450.677 17.4933 450.384 17.24C450.104 16.9733 449.744 16.7667 449.304 16.62C448.864 16.4733 448.264 16.3067 447.504 16.12C446.437 15.8667 445.571 15.6133 444.904 15.36C444.251 15.1067 443.684 14.7133 443.204 14.18C442.737 13.6333 442.504 12.9 442.504 11.98C442.504 11.2067 442.711 10.5067 443.124 9.88C443.551 9.24 444.184 8.73333 445.024 8.36C445.877 7.98667 446.917 7.8 448.144 7.8C448.997 7.8 449.837 7.90667 450.664 8.12C451.491 8.33333 452.204 8.64 452.804 9.04L451.984 11.06C451.371 10.7 450.731 10.4267 450.064 10.24C449.397 10.0533 448.751 9.96 448.124 9.96C447.097 9.96 446.331 10.1333 445.824 10.48C445.331 10.8267 445.084 11.2867 445.084 11.86C445.084 12.26 445.224 12.5867 445.504 12.84C445.797 13.0933 446.164 13.2933 446.604 13.44C447.044 13.5867 447.644 13.7533 448.404 13.94C449.444 14.18 450.297 14.4333 450.964 14.7C451.631 14.9533 452.197 15.3467 452.664 15.88C453.144 16.4133 453.384 17.1333 453.384 18.04C453.384 18.8133 453.171 19.5133 452.744 20.14C452.331 20.7667 451.697 21.2667 450.844 21.64C449.991 22.0133 448.951 22.2 447.724 22.2ZM462.062 7.8C463.315 7.8 464.409 8.04667 465.342 8.54C466.275 9.03333 466.995 9.76667 467.502 10.74C468.022 11.7 468.282 12.8667 468.282 14.24V22H465.682V18.4H458.402V22H455.842V14.24C455.842 12.8667 456.095 11.7 456.602 10.74C457.122 9.76667 457.849 9.03333 458.782 8.54C459.715 8.04667 460.809 7.8 462.062 7.8ZM465.682 16.22V14C465.682 12.7067 465.362 11.7333 464.722 11.08C464.082 10.4133 463.189 10.08 462.042 10.08C460.895 10.08 460.002 10.4133 459.362 11.08C458.722 11.7333 458.402 12.7067 458.402 14V16.22H465.682ZM481.479 14.84H483.939V22H481.799V21.18C480.799 21.86 479.546 22.2 478.039 22.2C476.746 22.2 475.559 21.92 474.479 21.36C473.399 20.8 472.532 19.9867 471.879 18.92C471.239 17.8533 470.919 16.58 470.919 15.1C470.919 13.7 471.246 12.4467 471.899 11.34C472.552 10.22 473.452 9.35333 474.599 8.74C475.759 8.11333 477.059 7.8 478.499 7.8C479.672 7.8 480.739 7.99333 481.699 8.38C482.659 8.76667 483.466 9.33333 484.119 10.08L482.479 11.68C481.412 10.6133 480.126 10.08 478.619 10.08C477.632 10.08 476.752 10.2933 475.979 10.72C475.219 11.1333 474.619 11.72 474.179 12.48C473.752 13.24 473.539 14.1067 473.539 15.08C473.539 16.1067 473.752 16.9933 474.179 17.74C474.619 18.4733 475.199 19.0333 475.919 19.42C476.639 19.7933 477.426 19.98 478.279 19.98C478.879 19.98 479.452 19.8867 479.999 19.7C480.559 19.5133 481.052 19.24 481.479 18.88V14.84ZM498.288 20.66C497.662 21.1533 496.855 21.5333 495.868 21.8C494.882 22.0667 493.815 22.2 492.668 22.2C491.322 22.2 490.175 22.0267 489.228 21.68C488.295 21.3333 487.588 20.8533 487.108 20.24C486.628 19.6267 486.388 18.92 486.388 18.12C486.388 17.3467 486.602 16.6733 487.028 16.1C487.455 15.5267 488.028 15.1067 488.748 14.84C488.202 14.5467 487.768 14.14 487.448 13.62C487.142 13.0867 486.988 12.4933 486.988 11.84C486.988 11.0933 487.208 10.42 487.648 9.82C488.102 9.20667 488.775 8.72 489.668 8.36C490.562 7.98667 491.662 7.8 492.968 7.8C493.848 7.8 494.708 7.89333 495.548 8.08C496.388 8.26667 497.122 8.52 497.748 8.84L497.008 10.9C495.835 10.2867 494.522 9.98 493.068 9.98C491.922 9.98 491.055 10.1667 490.468 10.54C489.895 10.9 489.608 11.3867 489.608 12C489.608 12.6 489.822 13.06 490.248 13.38C490.675 13.6867 491.302 13.84 492.128 13.84H495.828V16H491.988C491.042 16 490.308 16.1667 489.788 16.5C489.268 16.82 489.008 17.3 489.008 17.94C489.008 18.58 489.322 19.0867 489.948 19.46C490.575 19.8333 491.522 20.02 492.788 20.02C493.668 20.02 494.522 19.9 495.348 19.66C496.188 19.42 496.888 19.0867 497.448 18.66L498.288 20.66ZM504.574 10.18V19.82H507.154V22H499.414V19.82H501.994V10.18H499.414V8H507.154V10.18H504.574ZM516.291 22.2C514.864 22.2 513.578 21.8933 512.431 21.28C511.284 20.6533 510.384 19.7933 509.731 18.7C509.078 17.5933 508.751 16.36 508.751 15C508.751 13.64 509.078 12.4133 509.731 11.32C510.384 10.2133 511.284 9.35333 512.431 8.74C513.578 8.11333 514.864 7.8 516.291 7.8C517.718 7.8 519.004 8.11333 520.151 8.74C521.298 9.35333 522.198 10.2067 522.851 11.3C523.504 12.3933 523.831 13.6267 523.831 15C523.831 16.3733 523.504 17.6067 522.851 18.7C522.198 19.7933 521.298 20.6533 520.151 21.28C519.004 21.8933 517.718 22.2 516.291 22.2ZM516.291 19.92C517.224 19.92 518.064 19.7133 518.811 19.3C519.558 18.8733 520.144 18.2867 520.571 17.54C520.998 16.78 521.211 15.9333 521.211 15C521.211 14.0667 520.998 13.2267 520.571 12.48C520.144 11.72 519.558 11.1333 518.811 10.72C518.064 10.2933 517.224 10.08 516.291 10.08C515.358 10.08 514.518 10.2933 513.771 10.72C513.024 11.1333 512.438 11.72 512.011 12.48C511.584 13.2267 511.371 14.0667 511.371 15C511.371 15.9333 511.584 16.78 512.011 17.54C512.438 18.2867 513.024 18.8733 513.771 19.3C514.518 19.7133 515.358 19.92 516.291 19.92ZM530.927 22.2C529.847 22.2 528.8 22.0467 527.787 21.74C526.787 21.4333 525.994 21.0267 525.407 20.52L526.307 18.5C526.88 18.9533 527.58 19.3267 528.407 19.62C529.247 19.9 530.087 20.04 530.927 20.04C531.967 20.04 532.74 19.8733 533.247 19.54C533.767 19.2067 534.027 18.7667 534.027 18.22C534.027 17.82 533.88 17.4933 533.587 17.24C533.307 16.9733 532.947 16.7667 532.507 16.62C532.067 16.4733 531.467 16.3067 530.707 16.12C529.64 15.8667 528.774 15.6133 528.107 15.36C527.454 15.1067 526.887 14.7133 526.407 14.18C525.94 13.6333 525.707 12.9 525.707 11.98C525.707 11.2067 525.914 10.5067 526.327 9.88C526.754 9.24 527.387 8.73333 528.227 8.36C529.08 7.98667 530.12 7.8 531.347 7.8C532.2 7.8 533.04 7.90667 533.867 8.12C534.694 8.33333 535.407 8.64 536.007 9.04L535.187 11.06C534.574 10.7 533.934 10.4267 533.267 10.24C532.6 10.0533 531.954 9.96 531.327 9.96C530.3 9.96 529.534 10.1333 529.027 10.48C528.534 10.8267 528.287 11.2867 528.287 11.86C528.287 12.26 528.427 12.5867 528.707 12.84C529 13.0933 529.367 13.2933 529.807 13.44C530.247 13.5867 530.847 13.7533 531.607 13.94C532.647 14.18 533.5 14.4333 534.167 14.7C534.834 14.9533 535.4 15.3467 535.867 15.88C536.347 16.4133 536.587 17.1333 536.587 18.04C536.587 18.8133 536.374 19.5133 535.947 20.14C535.534 20.7667 534.9 21.2667 534.047 21.64C533.194 22.0133 532.154 22.2 530.927 22.2Z" fill="white"/>
</svg>
