<svg width="150" height="110" viewBox="0 0 150 110" fill="none" xmlns="http://www.w3.org/2000/svg">
<g clip-path="url(#clip0_2100_98)">
<mask id="mask0_2100_98" style="mask-type:luminance" maskUnits="userSpaceOnUse" x="0" y="0" width="150" height="110">
<path d="M150 0H0V110H150V0Z" fill="white"/>
</mask>
<g mask="url(#mask0_2100_98)">
<path d="M143.52 40.76V40.79H122.92V11.44H99.4V-28.83H143.52V40.76Z" fill="#FF6600"/>
<path d="M122.92 40.79V65.21H49.07V25.92H99.4V40.8H122.92V40.79Z" fill="#FFCC00"/>
<path d="M122.92 11.44V40.79H99.4V11.44H122.92Z" fill="#FFCC00"/>
<path d="M99.4 11.44H49.07V25.92H99.4V11.44Z" fill="#0066FF"/>
<path d="M99.4 -12.56V11.44H49.07V-3.04L99.4 -12.56Z" fill="#0033CC"/>
<path d="M49.07 65.21V84.88H17.84V77.25H17.85V25.09H17.84V-28.83H49.07V65.22V65.21Z" fill="#0033CC"/>
<path d="M17.85 25.09V77.25H17.84V25.09H17.85Z" fill="#0033CC"/>
<path d="M17.84 84.88V108.83H-11.3V77.25H17.84V84.88Z" fill="#FF6600"/>
<path d="M17.84 68.26H-11.3V77.26H17.84V68.26Z" fill="#FF6600"/>
<path d="M17.84 45.51H-11.3V68.26H17.84V45.51Z" fill="#FFCC00"/>
<path d="M18 10H-11V46H18V10Z" fill="#0099FF"/>
<path d="M144.68 39.59V-30H98.15V-13.63L50.01 -4.31V-30H16.4V9.18H-10.44V-11.54H-37V25.89H-12.77V33.11C-15.61 35 -18.28 37.16 -20.7 39.54C-30.8 49.47 -36.58 63.22 -36.58 77.25V78.42H-12.77V110H18.75V86.05H50.02V66.38H124.06V41.96H143.52L144.69 41.93H150.01V39.6H144.69L144.68 39.59ZM50.02 12.61H98.16V24.75H50.02V12.61ZM98.16 10.27H50.02V-1.97L98.16 -11.29V10.27ZM-10.44 67.09V46.67H16.4V67.09H-10.44ZM16.41 11.51V44.34H-10.43V11.51H16.41ZM-34.66 -9.21H-12.77V23.55H-34.66V-9.21ZM-34.23 76.08C-33.91 63.07 -28.44 50.43 -19.07 41.2C-17.12 39.29 -15.02 37.53 -12.77 35.94V76.09H-34.23V76.08ZM-10.44 107.67V69.43H16.4V107.67H-10.44ZM47.68 83.71H18.74V-27.67H47.68V83.71ZM121.72 64.04H50.02V27.08H100.5V12.6H121.73V64.04H121.72ZM142.35 39.63H124.06V10.28H100.5V-27.67H142.36V39.62L142.35 39.63Z" fill="black"/>
</g>
</g>
<defs>
<clipPath id="clip0_2100_98">
<rect width="150" height="110" fill="white"/>
</clipPath>
</defs>
</svg>
