<svg width="320" height="100" viewBox="0 0 320 100" fill="none" xmlns="http://www.w3.org/2000/svg">
<g clip-path="url(#clip0_2042_81)">
<path d="M318.331 0C292.972 0 272.355 20.85 272.355 46.4833C272.355 54.4 274.358 62.1 278.181 68.9667H269.283V0.316667H236.796L239.968 30.7333H-53.0489V48.2167H14.7463V68.8167H-84V148.583H-7.94115V170H-6.27174C7.50099 170 20.0717 161.433 25.4139 148.583H55.8808V110.5H196.997V140.217H229.734V110.5H253.691V156.683H320V0H318.331ZM275.694 46.4833C275.694 23.2667 293.924 4.26667 316.661 3.36667V68.9667H282.037C277.897 62.2 275.677 54.45 275.677 46.4833H275.694ZM316.661 72.3V89.6167C303.84 89.1167 292.037 82.7667 284.274 72.3H316.661ZM240.485 3.65H265.927V68.9667H257.029V30.75H243.307L240.485 3.66667V3.65ZM253.691 68.9667V81H248.549L243.657 34.0667H253.691V68.95V68.9667ZM257.029 72.3H265.927V81H257.029V72.3ZM101.272 52.95V85.25H81.1058V34.0833H101.272V52.9667V52.95ZM104.611 34.0833H226.83V51.3H104.611V34.0833ZM18.1018 107.167V84.7833C18.1018 80.4333 18.8864 76.2 20.3722 72.1667H52.542V107.167H18.1018ZM52.542 68.8333H21.7412C27.5007 56.75 39.2367 48.9 52.542 48.3V68.8333ZM52.542 34.0833V44.9H29.3704V34.0833H52.542ZM26.0316 34.0833V44.9H18.1018V34.0833H26.0316ZM-49.7101 44.9V34.0833H14.7463V44.9H-49.7101ZM38.402 48.2333C29.4539 52.1667 22.1585 59.3833 18.1018 68.8V48.2333H38.402ZM-7.94115 100.45V145.267H-80.6612V72.1667H14.763V107.8C8.73636 103.05 1.4076 100.45 -6.27174 100.45H-7.94115ZM-4.60232 166.617V103.817C2.82661 104.217 9.82148 107.317 15.2638 112.65C21.4073 118.65 24.7962 126.667 24.7962 135.217C24.7962 139.05 24.1117 142.783 22.7428 146.333C18.3522 157.967 7.50099 165.95 -4.61901 166.617H-4.60232ZM52.542 145.25H26.6326C27.6175 142.017 28.1517 138.65 28.1517 135.217C28.1517 126 24.5792 117.367 18.1185 110.8V110.5H52.5587V145.25H52.542ZM226.379 122H200.319V110.5H226.379V122ZM200.336 136.9V125.35H226.396V136.9H200.336ZM229.718 107.167H55.8641V34.0833H77.7502V88.5833H104.595V54.6167H230.152V34.0667H240.268L245.51 84.3333H253.674V107.167H229.718ZM257.029 153.35V84.35H269.266V72.3167H280.201C288.515 84.8 301.97 92.4 316.644 92.9333V153.35H257.013H257.029Z" fill="#E5D7B0"/>
</g>
<defs>
<clipPath id="clip0_2042_81">
<rect width="320" height="100" fill="white"/>
</clipPath>
</defs>
</svg>
