<svg width="150" height="110" viewBox="0 0 150 110" fill="none" xmlns="http://www.w3.org/2000/svg">
<g clip-path="url(#clip0_2101_210)">
<path d="M144.68 39.59V0H142.36V39.62L124.07 39.63V10.28H100.51V0H98.17V10.27H50.03V0H47.69V83.71H18.75V0H16.41V9.18H0V11.51H16.41V44.34H0V46.67H16.4V67.09H0V69.43H16.4V107.67H0V110H18.75V86.05H50.02V66.38H124.06V41.96H143.52L144.69 41.93H150.01V39.6H144.68V39.59ZM50.02 12.61H98.16V24.75H50.02V12.61ZM121.73 64.04H50.02V27.08H100.5V12.6H121.73V64.04Z" fill="#E5D7B0"/>
</g>
<defs>
<clipPath id="clip0_2101_210">
<rect width="150" height="110" fill="white"/>
</clipPath>
</defs>
</svg>
