<svg width="60" height="60" viewBox="0 0 60 60" fill="none" xmlns="http://www.w3.org/2000/svg">
<g clip-path="url(#clip0_2031_9)">
<path d="M59 58.17H59.04C59.57 58.17 60 58.58 60 59.08C60 59.58 59.57 60 59.04 60H40.79C40.9 59.71 40.97 59.4 40.97 59.08V40.06H51.53C53.92 40.06 55.85 41.9 55.85 44.19V58.16H59V58.17Z" fill="#0033CC"/>
<path d="M43.9 2.59999V11.17C43.9 13.74 41.72 15.81 39.03 15.81C38.93 15.81 38.82 15.79 38.73 15.76C39.03 15.17 39.25 14.55 39.41 13.93C40.86 13.74 41.96 12.57 41.98 11.17V3.50999H39.75V1.67999H42.93C43.19 1.67999 43.44 1.77999 43.61 1.93999C43.8 2.11999 43.9 2.34999 43.9 2.59999Z" fill="#0033CC"/>
<path d="M39.03 35.74V59.07C39.03 59.32 38.94 59.55 38.75 59.73C38.58 59.9 38.33 59.99 38.07 59.99H21.88C21.35 59.99 20.92 59.58 20.92 59.07V35.74C20.92 33.59 22.74 31.86 24.98 31.86H34.97C37.21 31.86 39.03 33.59 39.03 35.74Z" fill="#0033CC"/>
<path d="M38.79 0.92V11.44C38.76 16.07 34.83 19.84 29.98 19.84C25.13 19.82 21.19 16.08 21.18 11.43V0.92C21.18 0.41 21.61 0 22.14 0H37.84C38.09 0 38.34 0.1 38.51 0.26C38.7 0.44 38.8 0.67 38.8 0.92H38.79Z" fill="#FF6600"/>
<path d="M37.11 29.4V31.33C36.42 31.08 35.7 30.95 34.98 30.95H24.99C24.25 30.95 23.53 31.08 22.85 31.33V29.4C22.85 27.71 24.28 26.35 26.05 26.35H33.93C34.76 26.35 35.58 26.66 36.18 27.24C36.78 27.82 37.11 28.59 37.11 29.4Z" fill="#FF6600"/>
<path d="M33.33 21.15V24.51H26.61V21.15C27.7 21.5 28.83 21.68 29.98 21.68C31.13 21.68 32.26 21.5 33.33 21.15Z" fill="#FF6600"/>
<path d="M19.21 59.99H0.96C0.43 59.99 0 59.58 0 59.07C0 58.56 0.43 58.16 0.96 58.16H3.36V44.19C3.36 41.91 5.29 40.06 7.68 40.06H19V59.07C19.02 59.38 19.08 59.7 19.21 59.99Z" fill="#0033CC"/>
<path d="M21.19 15.67C21.03 15.77 20.86 15.83 20.68 15.83C18 15.83 15.82 13.74 15.82 11.18V2.59999C15.82 2.08999 16.25 1.67999 16.78 1.67999H20.21V3.51999H17.74V11.18C17.74 12.69 19 13.92 20.57 13.98C20.73 14.56 20.94 15.12 21.19 15.67Z" fill="#0033CC"/>
</g>
<defs>
<clipPath id="clip0_2031_9">
<rect width="60" height="60" fill="white"/>
</clipPath>
</defs>
</svg>
