<svg width="57" height="95" viewBox="0 0 57 95" fill="none" xmlns="http://www.w3.org/2000/svg">
<g clip-path="url(#clip0_2279_2)">
<path d="M27.4028 0.0141906C27.4028 0.0141906 27.5025 0.0141906 27.5595 0.0141906H48.5925C49.7183 0.0141906 50.901 -0.056705 52.0125 0.155982C54.378 0.595534 56.43 2.55225 56.9003 4.93434C57.0713 5.82762 56.9858 6.80598 56.9858 7.72762V87.244C56.9858 90.6896 56.4443 94.0642 52.212 94.9008C51.3143 95.0851 50.3168 95 49.4048 95H29.583H6.07052C4.31777 95 2.96402 94.4754 1.72427 93.2134C2.14938e-05 91.4836 2.14845e-05 89.5127 0.0285215 87.2582V15.9515C0.0285215 12.747 -0.0142285 9.54255 0.0285215 6.35225C0.0427715 4.56568 0.584272 3.00598 1.89527 1.74404C3.83327 -0.127601 5.72852 0.0141906 8.23652 0.0141906H22.5435C24.1538 0.0141906 25.7783 -0.0141676 27.3885 0.0141906H27.4028Z" fill="#0099FF"/>
<path d="M33.744 86.6769C35.6535 86.5351 36.0097 88.747 34.2855 89.5127C32.3617 89.5836 31.9627 87.2157 33.744 86.6769Z" fill="#FFCC00"/>
<path d="M22.8143 86.6769C24.5955 86.4926 24.909 89.1866 22.9568 89.5127C21.0758 89.6261 20.9475 86.8612 22.8143 86.6769Z" fill="#FFCC00"/>
<path d="M28.4573 86.6769C30.495 86.8896 30.3525 89.2149 28.4573 89.5127C26.4195 89.3709 26.4623 86.8896 28.4573 86.6769Z" fill="#FFCC00"/>
<path d="M9.41926 5.96939H43.3913C44.3888 5.96939 47.766 5.68581 48.4928 6.26716C49.704 7.23133 49.1055 8.93283 47.4383 9.00372H10.6875C9.91801 9.00372 8.92051 9.17387 8.27926 8.66342C7.11076 7.74178 7.76626 6.06865 9.41926 5.96939Z" fill="#FFCC00"/>
<path d="M6.48374 15.2142C6.96824 15.1717 7.48124 15.2142 7.96574 15.2142H40.7122C43.8472 15.2142 46.9822 15.1858 50.1172 15.2142C51.1147 15.2142 51.9555 15.5828 51.9982 16.7455C52.0552 18.3052 51.9982 19.8791 51.9982 21.4246V76.3687C51.9982 78.3254 52.6965 81.0052 50.5875 81.8134C49.8465 81.856 49.077 81.8134 48.336 81.8134H9.56174C5.40074 81.8134 5.04449 82.4515 5.04449 77.7582V18.9717C5.04449 17.5821 4.65974 15.5687 6.49799 15.2284L6.48374 15.2142Z" fill="#0033CC"/>
<path d="M28.1947 32.6769C31.0194 32.2757 35.006 33.8003 37.2698 35.3649C45.5234 41.0418 46.5852 52.6765 39.3332 59.5971C36.7289 62.0845 32.6822 63.8698 29.0161 63.7695C20.7624 64.3913 13.0296 56.9692 12.8293 48.6445C12.6289 39.9787 19.5404 32.8374 28.1747 32.6769H28.1947Z" fill="white"/>
<path d="M24.0813 39.7405C25.7122 39.5843 28.0339 41.7128 29.4346 42.6306L34.3083 45.8331C35.2101 46.4384 36.2271 47.0047 37.0329 47.7468C37.0713 48.0592 37.0329 48.3912 37.0329 48.7036C36.5724 49.6018 35.5363 50.0315 34.7304 50.5392L31.6796 52.4724L27.7078 54.9914C24.7145 56.9051 22.8341 58.2329 22.8341 53.312V49.8362C22.8341 47.1609 22.7573 44.4466 22.8341 41.7518C22.8725 40.7169 23.026 40.1311 24.0621 39.7015L24.0813 39.7405Z" fill="#FF6600"/>
</g>
<defs>
<clipPath id="clip0_2279_2">
<rect width="57" height="95" fill="white"/>
</clipPath>
</defs>
</svg>
