<svg width="120" height="57" viewBox="0 0 120 57" fill="none" xmlns="http://www.w3.org/2000/svg">
<g clip-path="url(#clip0_2011_21)">
<path fill-rule="evenodd" clip-rule="evenodd" d="M44.52 10.73C46.18 10.73 47.68 11.42 48.76 12.55C49.84 13.67 50.51 15.21 50.51 16.9C50.51 18.59 49.84 20.14 48.76 21.25C47.67 22.37 46.17 23.07 44.52 23.07C42.87 23.07 41.36 22.38 40.28 21.25C39.2 20.13 38.53 18.59 38.53 16.9C38.53 15.21 39.2 13.66 40.28 12.55C41.37 11.43 42.87 10.73 44.52 10.73ZM47.05 7.44C45.89 6.91 44.61 6.61 43.27 6.61C40.63 6.61 38.23 7.76 36.5 9.61C34.76 11.47 33.68 14.05 33.68 16.89C33.68 19.73 34.76 22.31 36.5 24.17C38.23 26.02 40.63 27.17 43.27 27.17C44.76 27.17 46.16 26.81 47.41 26.17C48.72 25.5 49.86 24.52 50.76 23.32L51.11 22.85L55.63 26.98L58.62 24.25L55.43 21.33V0H51.16V10.86L50.24 9.82C49.35 8.81 48.27 8 47.06 7.45L47.05 7.44ZM3.99 6.62H0V27.18H5.18V17.69C5.18 17.14 5.22 16.63 5.31 16.15C5.4 15.67 5.54 15.22 5.72 14.83C5.9 14.44 6.11 14.08 6.35 13.76C6.59 13.44 6.87 13.15 7.17 12.89C7.47 12.64 7.79 12.42 8.14 12.24C8.49 12.06 8.85 11.91 9.23 11.8C9.61 11.69 9.99 11.61 10.37 11.55C10.76 11.49 11.15 11.47 11.55 11.47H11.8V6.64H11.6C10.96 6.65 10.35 6.73 9.78 6.87C9.22 7.01 8.69 7.21 8.2 7.47C7.7 7.73 7.26 8.03 6.86 8.37C6.47 8.7 6.13 9.06 5.84 9.45L5.68 9.67H4.64L3.99 6.65V6.62ZM70.5 22.87C71.5 22.64 72.45 22.22 73.26 21.63L73.52 21.44L76.11 23.71L75.81 24.01C73.6 26.18 70.92 27.18 68.33 27.18C67 27.18 65.7 26.92 64.49 26.43C63.28 25.94 62.18 25.21 61.25 24.27C59.5 22.5 58.37 20 58.36 16.94V16.85C58.36 15.47 58.62 14.1 59.12 12.82C59.61 11.58 60.33 10.44 61.27 9.48C62.14 8.59 63.21 7.87 64.47 7.37C65.63 6.91 66.95 6.65 68.42 6.64H68.68C70.05 6.66 71.32 6.9 72.46 7.34C73.63 7.79 74.65 8.44 75.49 9.27C76.34 10.11 77.01 11.13 77.47 12.29C77.91 13.42 78.15 14.69 78.16 16.07V16.33C78.16 16.51 78.15 16.74 78.12 17C78.1 17.21 78.06 17.44 78.01 17.68C77.98 17.81 77.95 17.94 77.92 18.06C77.89 18.17 77.85 18.29 77.81 18.43L77.72 18.7H63.07L63.17 19.15C63.34 19.87 63.62 20.48 64.01 20.99C64.71 21.92 65.71 22.53 66.85 22.84C68 23.15 69.28 23.16 70.51 22.88L70.5 22.87ZM63.68 13.04C63.4 13.53 63.19 14.1 63.08 14.77L63 15.29H73.67L73.59 14.78C73.48 14.1 73.28 13.51 73.01 13.02C72.72 12.49 72.35 12.05 71.92 11.71C71.46 11.33 70.93 11.06 70.37 10.88C69.75 10.68 69.1 10.59 68.45 10.59C67.8 10.59 67.12 10.69 66.48 10.89C65.89 11.08 65.33 11.36 64.84 11.74C64.38 12.09 63.99 12.53 63.68 13.06V13.04ZM24.12 22.87C25.12 22.64 26.07 22.22 26.88 21.63L27.14 21.44L29.73 23.71L29.43 24.01C27.22 26.18 24.54 27.18 21.95 27.18C20.62 27.18 19.32 26.92 18.11 26.43C16.9 25.94 15.8 25.21 14.87 24.27C13.12 22.5 11.99 20 11.98 16.94V16.85C11.98 15.47 12.24 14.1 12.74 12.82C13.23 11.58 13.95 10.44 14.89 9.48C15.76 8.59 16.83 7.87 18.09 7.37C19.25 6.91 20.57 6.65 22.04 6.64H22.3C23.67 6.66 24.95 6.9 26.08 7.34C27.25 7.79 28.27 8.44 29.11 9.27C29.96 10.11 30.63 11.13 31.09 12.29C31.53 13.42 31.77 14.69 31.78 16.07V16.33C31.78 16.51 31.77 16.74 31.74 17C31.72 17.21 31.68 17.44 31.63 17.68C31.6 17.81 31.57 17.94 31.54 18.06C31.51 18.17 31.47 18.29 31.43 18.43L31.34 18.7H16.68L16.78 19.15C16.95 19.87 17.24 20.48 17.62 20.99C18.32 21.92 19.32 22.53 20.46 22.84C21.61 23.15 22.89 23.16 24.12 22.88V22.87ZM17.31 13.04C17.03 13.53 16.82 14.1 16.71 14.77L16.63 15.29H27.3L27.22 14.78C27.11 14.1 26.91 13.51 26.64 13.02C26.35 12.49 25.98 12.05 25.55 11.71C25.09 11.33 24.56 11.06 24 10.88C23.38 10.68 22.73 10.59 22.08 10.59C21.43 10.59 20.75 10.69 20.11 10.89C19.52 11.08 18.96 11.36 18.47 11.74C18.01 12.09 17.62 12.53 17.31 13.06V13.04Z" fill="#23388B"/>
<path fill-rule="evenodd" clip-rule="evenodd" d="M77.25 36.44H73.26V57H78.44V47.51C78.44 46.96 78.48 46.45 78.57 45.97C78.66 45.49 78.8 45.04 78.98 44.65C79.16 44.26 79.37 43.9 79.61 43.58C79.85 43.26 80.13 42.97 80.43 42.71C80.73 42.46 81.05 42.24 81.4 42.06C81.75 41.88 82.11 41.73 82.49 41.62C82.87 41.51 83.25 41.43 83.63 41.37C84.02 41.31 84.41 41.29 84.81 41.29H85.06V36.46H84.86C84.22 36.47 83.61 36.55 83.04 36.69C82.48 36.83 81.95 37.03 81.46 37.29C80.96 37.55 80.52 37.85 80.12 38.19C79.73 38.52 79.39 38.88 79.1 39.27L78.94 39.49H77.9L77.26 36.47L77.25 36.44ZM92.91 36.44H87.58V57H92.91V36.44ZM108.43 37.26C107.27 36.73 105.99 36.43 104.65 36.43C102.01 36.43 99.61 37.58 97.88 39.43C96.14 41.29 95.06 43.87 95.06 46.71C95.06 49.55 96.14 52.13 97.88 53.99C99.61 55.84 102.01 56.99 104.65 56.99C106.14 56.99 107.54 56.63 108.79 55.99C110.1 55.32 111.24 54.34 112.14 53.14L112.49 52.67L117.01 56.8L120 54.07L116.81 51.15V36.43H112.54V40.67L111.62 39.63C110.73 38.62 109.65 37.81 108.44 37.25L108.43 37.26ZM105.9 40.55C107.56 40.55 109.06 41.24 110.14 42.37C111.22 43.49 111.89 45.03 111.89 46.72C111.89 48.41 111.22 49.96 110.14 51.07C109.05 52.19 107.55 52.89 105.9 52.89C104.25 52.89 102.74 52.2 101.66 51.07C100.58 49.95 99.91 48.41 99.91 46.72C99.91 45.03 100.58 43.48 101.66 42.37C102.75 41.25 104.25 40.55 105.9 40.55ZM29.91 36.44H24.58V57H29.91V36.44ZM60.93 52.31C60.53 52.39 60.12 52.42 59.7 52.42C59.28 52.42 58.87 52.38 58.47 52.31C58.07 52.23 57.69 52.12 57.32 51.97C56.58 51.67 55.94 51.24 55.39 50.69C55.12 50.42 54.87 50.12 54.65 49.79C54.43 49.47 54.24 49.12 54.08 48.75C53.76 48 53.6 47.19 53.6 46.32C53.6 45.89 53.64 45.47 53.72 45.06C53.8 44.66 53.92 44.27 54.08 43.9C54.24 43.54 54.43 43.2 54.65 42.88C54.87 42.55 55.12 42.26 55.39 41.99C55.66 41.72 55.96 41.48 56.3 41.26C56.63 41.04 56.98 40.86 57.35 40.71C58.1 40.41 58.9 40.25 59.75 40.25C60.6 40.25 61.39 40.4 62.15 40.71C62.52 40.86 62.87 41.05 63.2 41.26C63.53 41.48 63.83 41.72 64.1 41.99C64.38 42.27 64.62 42.56 64.84 42.88C65.05 43.2 65.24 43.54 65.39 43.91C65.54 44.27 65.66 44.66 65.73 45.07C65.81 45.48 65.85 45.89 65.85 46.32C65.85 46.75 65.81 47.17 65.73 47.58C65.65 47.99 65.53 48.38 65.37 48.75C65.21 49.12 65.02 49.46 64.8 49.79C64.58 50.12 64.33 50.42 64.06 50.69C63.79 50.96 63.49 51.2 63.15 51.42C62.83 51.63 62.48 51.81 62.1 51.97C61.73 52.12 61.34 52.24 60.94 52.31H60.93ZM57.42 56.8C58.15 56.93 58.91 57 59.7 57C60.49 57 61.26 56.93 61.98 56.8C62.71 56.67 63.41 56.46 64.09 56.19C64.77 55.92 65.4 55.6 66 55.22C66.59 54.85 67.14 54.42 67.64 53.95C68.14 53.48 68.59 52.96 68.99 52.39C69.39 51.82 69.74 51.22 70.03 50.57C70.32 49.92 70.54 49.24 70.68 48.53C70.82 47.83 70.9 47.09 70.9 46.32C70.9 45.55 70.83 44.84 70.68 44.14C70.53 43.44 70.32 42.77 70.03 42.13C69.74 41.49 69.39 40.88 68.99 40.32C68.59 39.76 68.14 39.24 67.64 38.77C67.14 38.3 66.59 37.87 66 37.5C65.41 37.12 64.77 36.8 64.09 36.53C63.41 36.26 62.71 36.06 61.99 35.92C61.27 35.79 60.52 35.72 59.74 35.72C58.96 35.72 58.21 35.79 57.49 35.92C56.77 36.06 56.07 36.26 55.39 36.53C54.71 36.8 54.08 37.12 53.48 37.5C52.89 37.87 52.34 38.3 51.84 38.77C51.34 39.25 50.88 39.76 50.48 40.32C50.08 40.88 49.73 41.49 49.43 42.13C49.13 42.77 48.91 43.44 48.76 44.14C48.61 44.83 48.54 45.56 48.54 46.31C48.54 47.06 48.61 47.82 48.75 48.53C48.89 49.24 49.11 49.92 49.39 50.57C49.67 51.22 50.01 51.83 50.41 52.39C50.8 52.95 51.25 53.47 51.75 53.94C52.25 54.41 52.8 54.84 53.39 55.21C53.98 55.58 54.62 55.91 55.3 56.18C55.98 56.45 56.68 56.65 57.41 56.79L57.42 56.8ZM46.68 56.55C46.89 56.49 47.09 56.43 47.27 56.35L47.24 51.91L47.01 52C46.81 52.07 46.59 52.15 46.34 52.23C45.81 52.4 45.2 52.49 44.51 52.49C43.86 52.49 43.27 52.4 42.75 52.22C42.21 52.03 41.76 51.75 41.38 51.38C41 51 40.71 50.5 40.53 49.89C40.36 49.31 40.27 48.63 40.27 47.85V40.39H46.53V36.34H40.23V31.69H36.56L35.6 36.34H32.11V40.39H35.2V47.77C35.2 48.62 35.25 49.41 35.35 50.12C35.45 50.83 35.6 51.48 35.8 52.06C36 52.64 36.23 53.17 36.51 53.64C36.78 54.11 37.09 54.52 37.44 54.87C37.78 55.22 38.17 55.53 38.59 55.79C39.01 56.05 39.47 56.27 39.97 56.43C40.47 56.6 41.01 56.73 41.57 56.81C42.14 56.9 42.73 56.94 43.36 56.94C43.68 56.94 44.03 56.92 44.39 56.9C44.77 56.87 45.16 56.82 45.58 56.76C45.99 56.7 46.37 56.62 46.7 56.53L46.68 56.55ZM5.36 36.34H0L10.12 57H12.69L22.76 36.34H17.44L11.89 48.67H10.86L5.35 36.34H5.36Z" fill="#23388B"/>
<path fill-rule="evenodd" clip-rule="evenodd" d="M65.84 33.82V29.12L53.61 30.45V33.82H65.84Z" fill="#E53F2B"/>
</g>
<defs>
<clipPath id="clip0_2011_21">
<rect width="120" height="57" fill="white"/>
</clipPath>
</defs>
</svg>
