<svg width="65" height="95" viewBox="0 0 65 95" fill="none" xmlns="http://www.w3.org/2000/svg">
<g clip-path="url(#clip0_2036_46)">
<path d="M0.0700098 9.76C0.0700098 4.37 4.32001 0 9.55001 0H45.53C50.76 0 55.01 4.37 55.01 9.76V46.8C55.01 52.19 50.77 56.56 45.53 56.56H36.02C23.49 56.56 13.33 67.02 13.33 79.92C13.33 82.73 11.12 85.01 8.39001 85.01H5.33001C2.39001 85.01 0.0100098 82.56 0.0100098 79.53L0.0700098 9.76Z" fill="#FF6600"/>
<path d="M55 26.2C54.44 26.07 53.85 26 53.25 26H23.82C19.54 26 16.07 29.34 16.07 33.46V49.9H16.01V68.91C19.83 61.56 27.36 56.56 36.02 56.56H45.53C50.76 56.56 55.01 52.19 55.01 46.8V26.2H55Z" fill="#D95700"/>
<path d="M20.06 53.9V37.46C20.06 33.34 23.53 30 27.81 30H57.24C61.52 30 64.99 33.34 64.99 37.46V65.78C64.99 69.9 61.52 73.24 57.24 73.24H49.46C39.21 73.24 30.9 81.24 30.9 91.1C30.9 93.25 29.09 94.99 26.85 94.99H24.35C21.95 94.99 20 93.11 20 90.8V53.89H20.06V53.9Z" fill="#0033CC"/>
</g>
<defs>
<clipPath id="clip0_2036_46">
<rect width="65" height="95" fill="white"/>
</clipPath>
</defs>
</svg>
