<svg width="279" height="46" viewBox="0 0 279 46" fill="none" xmlns="http://www.w3.org/2000/svg">
<path d="M41 1V45H1V1H41Z" fill="white" stroke="black" stroke-width="2"/>
<path d="M278 1V28H54V1H278Z" fill="#0033CC" stroke="black" stroke-width="2"/>
<path d="M54 1V28H41V1H54Z" fill="#FFCC00" stroke="black" stroke-width="2"/>
<path d="M41 1V28H23V1H41Z" fill="#FF6600" stroke="black" stroke-width="2"/>
<path d="M76.44 14.84H78.9V22H76.76V21.18C75.76 21.86 74.5067 22.2 73 22.2C71.7067 22.2 70.52 21.92 69.44 21.36C68.36 20.8 67.4933 19.9867 66.84 18.92C66.2 17.8533 65.88 16.58 65.88 15.1C65.88 13.7 66.2067 12.4467 66.86 11.34C67.5133 10.22 68.4133 9.35333 69.56 8.74C70.72 8.11333 72.02 7.8 73.46 7.8C74.6333 7.8 75.7 7.99333 76.66 8.38C77.62 8.76667 78.4267 9.33333 79.08 10.08L77.44 11.68C76.3733 10.6133 75.0867 10.08 73.58 10.08C72.5933 10.08 71.7133 10.2933 70.94 10.72C70.18 11.1333 69.58 11.72 69.14 12.48C68.7133 13.24 68.5 14.1067 68.5 15.08C68.5 16.1067 68.7133 16.9933 69.14 17.74C69.58 18.4733 70.16 19.0333 70.88 19.42C71.6 19.7933 72.3867 19.98 73.24 19.98C73.84 19.98 74.4133 19.8867 74.96 19.7C75.52 19.5133 76.0133 19.24 76.44 18.88V14.84ZM91.4892 22L88.6292 17.9C88.5092 17.9133 88.3292 17.92 88.0892 17.92H84.9292V22H82.3292V8H88.0892C89.3026 8 90.3559 8.2 91.2492 8.6C92.1559 9 92.8492 9.57333 93.3292 10.32C93.8092 11.0667 94.0492 11.9533 94.0492 12.98C94.0492 14.0333 93.7892 14.94 93.2692 15.7C92.7626 16.46 92.0292 17.0267 91.0692 17.4L94.2892 22H91.4892ZM91.4292 12.98C91.4292 12.0867 91.1359 11.4 90.5492 10.92C89.9626 10.44 89.1026 10.2 87.9692 10.2H84.9292V15.78H87.9692C89.1026 15.78 89.9626 15.54 90.5492 15.06C91.1359 14.5667 91.4292 13.8733 91.4292 12.98ZM103.058 7.8C104.311 7.8 105.405 8.04667 106.338 8.54C107.271 9.03333 107.991 9.76667 108.498 10.74C109.018 11.7 109.278 12.8667 109.278 14.24V22H106.678V18.4H99.3981V22H96.8381V14.24C96.8381 12.8667 97.0915 11.7 97.5981 10.74C98.1181 9.76667 98.8448 9.03333 99.7781 8.54C100.711 8.04667 101.805 7.8 103.058 7.8ZM106.678 16.22V14C106.678 12.7067 106.358 11.7333 105.718 11.08C105.078 10.4133 104.185 10.08 103.038 10.08C101.891 10.08 100.998 10.4133 100.358 11.08C99.7181 11.7333 99.3981 12.7067 99.3981 14V16.22H106.678ZM119.875 7.8C121.555 7.8 122.862 8.31333 123.795 9.34C124.742 10.3667 125.215 11.8333 125.215 13.74V22H122.615V13.84C122.615 12.6 122.315 11.6667 121.715 11.04C121.128 10.4 120.308 10.08 119.255 10.08C118.108 10.08 117.195 10.42 116.515 11.1C115.848 11.7667 115.515 12.7667 115.515 14.1V22H112.915V8H115.435V9.76C116.408 8.45333 117.888 7.8 119.875 7.8ZM128.853 8H134.973C136.466 8 137.793 8.29333 138.953 8.88C140.113 9.45333 141.013 10.2733 141.653 11.34C142.293 12.3933 142.613 13.6133 142.613 15C142.613 16.3867 142.293 17.6133 141.653 18.68C141.013 19.7333 140.113 20.5533 138.953 21.14C137.793 21.7133 136.466 22 134.973 22H128.853V8ZM134.853 19.8C135.879 19.8 136.779 19.6067 137.553 19.22C138.339 18.82 138.939 18.26 139.353 17.54C139.779 16.8067 139.993 15.96 139.993 15C139.993 14.04 139.779 13.2 139.353 12.48C138.939 11.7467 138.339 11.1867 137.553 10.8C136.779 10.4 135.879 10.2 134.853 10.2H131.453V19.8H134.853ZM156.296 20.66C155.669 21.1533 154.863 21.5333 153.876 21.8C152.889 22.0667 151.823 22.2 150.676 22.2C149.329 22.2 148.183 22.0267 147.236 21.68C146.303 21.3333 145.596 20.8533 145.116 20.24C144.636 19.6267 144.396 18.92 144.396 18.12C144.396 17.3467 144.609 16.6733 145.036 16.1C145.463 15.5267 146.036 15.1067 146.756 14.84C146.209 14.5467 145.776 14.14 145.456 13.62C145.149 13.0867 144.996 12.4933 144.996 11.84C144.996 11.0933 145.216 10.42 145.656 9.82C146.109 9.20667 146.783 8.72 147.676 8.36C148.569 7.98667 149.669 7.8 150.976 7.8C151.856 7.8 152.716 7.89333 153.556 8.08C154.396 8.26667 155.129 8.52 155.756 8.84L155.016 10.9C153.843 10.2867 152.529 9.98 151.076 9.98C149.929 9.98 149.063 10.1667 148.476 10.54C147.903 10.9 147.616 11.3867 147.616 12C147.616 12.6 147.829 13.06 148.256 13.38C148.683 13.6867 149.309 13.84 150.136 13.84H153.836V16H149.996C149.049 16 148.316 16.1667 147.796 16.5C147.276 16.82 147.016 17.3 147.016 17.94C147.016 18.58 147.329 19.0867 147.956 19.46C148.583 19.8333 149.529 20.02 150.796 20.02C151.676 20.02 152.529 19.9 153.356 19.66C154.196 19.42 154.896 19.0867 155.456 18.66L156.296 20.66ZM174.929 20.66C174.302 21.1533 173.496 21.5333 172.509 21.8C171.522 22.0667 170.456 22.2 169.309 22.2C167.962 22.2 166.816 22.0267 165.869 21.68C164.936 21.3333 164.229 20.8533 163.749 20.24C163.269 19.6267 163.029 18.92 163.029 18.12C163.029 17.3467 163.242 16.6733 163.669 16.1C164.096 15.5267 164.669 15.1067 165.389 14.84C164.842 14.5467 164.409 14.14 164.089 13.62C163.782 13.0867 163.629 12.4933 163.629 11.84C163.629 11.0933 163.849 10.42 164.289 9.82C164.742 9.20667 165.416 8.72 166.309 8.36C167.202 7.98667 168.302 7.8 169.609 7.8C170.489 7.8 171.349 7.89333 172.189 8.08C173.029 8.26667 173.762 8.52 174.389 8.84L173.649 10.9C172.476 10.2867 171.162 9.98 169.709 9.98C168.562 9.98 167.696 10.1667 167.109 10.54C166.536 10.9 166.249 11.3867 166.249 12C166.249 12.6 166.462 13.06 166.889 13.38C167.316 13.6867 167.942 13.84 168.769 13.84H172.469V16H168.629C167.682 16 166.949 16.1667 166.429 16.5C165.909 16.82 165.649 17.3 165.649 17.94C165.649 18.58 165.962 19.0867 166.589 19.46C167.216 19.8333 168.162 20.02 169.429 20.02C170.309 20.02 171.162 19.9 171.989 19.66C172.829 19.42 173.529 19.0867 174.089 18.66L174.929 20.66ZM192.754 7.8C194.394 7.8 195.674 8.28 196.594 9.24C197.514 10.1867 197.974 11.5533 197.974 13.34V22H195.374V13.44C195.374 12.3333 195.081 11.5 194.494 10.94C193.921 10.3667 193.168 10.08 192.234 10.08C191.194 10.08 190.361 10.3733 189.734 10.96C189.121 11.5467 188.814 12.4467 188.814 13.66V22H186.214V13.44C186.214 12.32 185.941 11.48 185.394 10.92C184.861 10.36 184.128 10.08 183.194 10.08C182.141 10.08 181.294 10.38 180.654 10.98C180.028 11.5667 179.714 12.46 179.714 13.66V22H177.114V8H179.634V9.84C180.061 9.18667 180.641 8.68667 181.374 8.34C182.108 7.98 182.954 7.8 183.914 7.8C184.901 7.8 185.761 7.98667 186.494 8.36C187.228 8.73333 187.781 9.26 188.154 9.94C188.621 9.26 189.254 8.73333 190.054 8.36C190.868 7.98667 191.768 7.8 192.754 7.8ZM207.367 8C208.58 8 209.633 8.2 210.527 8.6C211.433 9 212.127 9.57333 212.607 10.32C213.087 11.0667 213.327 11.9533 213.327 12.98C213.327 13.9933 213.087 14.88 212.607 15.64C212.127 16.3867 211.433 16.96 210.527 17.36C209.633 17.76 208.58 17.96 207.367 17.96H204.207V22H201.607V8H207.367ZM207.247 15.76C208.38 15.76 209.24 15.52 209.827 15.04C210.413 14.56 210.707 13.8733 210.707 12.98C210.707 12.0867 210.413 11.4 209.827 10.92C209.24 10.44 208.38 10.2 207.247 10.2H204.207V15.76H207.247ZM225.083 22L222.223 17.9C222.103 17.9133 221.923 17.92 221.683 17.92H218.523V22H215.923V8H221.683C222.896 8 223.95 8.2 224.843 8.6C225.75 9 226.443 9.57333 226.923 10.32C227.403 11.0667 227.643 11.9533 227.643 12.98C227.643 14.0333 227.383 14.94 226.863 15.7C226.356 16.46 225.623 17.0267 224.663 17.4L227.883 22H225.083ZM225.023 12.98C225.023 12.0867 224.73 11.4 224.143 10.92C223.556 10.44 222.696 10.2 221.563 10.2H218.523V15.78H221.563C222.696 15.78 223.556 15.54 224.143 15.06C224.73 14.5667 225.023 13.8733 225.023 12.98ZM241.472 20.66C240.845 21.1533 240.039 21.5333 239.052 21.8C238.065 22.0667 236.999 22.2 235.852 22.2C234.505 22.2 233.359 22.0267 232.412 21.68C231.479 21.3333 230.772 20.8533 230.292 20.24C229.812 19.6267 229.572 18.92 229.572 18.12C229.572 17.3467 229.785 16.6733 230.212 16.1C230.639 15.5267 231.212 15.1067 231.932 14.84C231.385 14.5467 230.952 14.14 230.632 13.62C230.325 13.0867 230.172 12.4933 230.172 11.84C230.172 11.0933 230.392 10.42 230.832 9.82C231.285 9.20667 231.959 8.72 232.852 8.36C233.745 7.98667 234.845 7.8 236.152 7.8C237.032 7.8 237.892 7.89333 238.732 8.08C239.572 8.26667 240.305 8.52 240.932 8.84L240.192 10.9C239.019 10.2867 237.705 9.98 236.252 9.98C235.105 9.98 234.239 10.1667 233.652 10.54C233.079 10.9 232.792 11.3867 232.792 12C232.792 12.6 233.005 13.06 233.432 13.38C233.859 13.6867 234.485 13.84 235.312 13.84H239.012V16H235.172C234.225 16 233.492 16.1667 232.972 16.5C232.452 16.82 232.192 17.3 232.192 17.94C232.192 18.58 232.505 19.0867 233.132 19.46C233.759 19.8333 234.705 20.02 235.972 20.02C236.852 20.02 237.705 19.9 238.532 19.66C239.372 19.42 240.072 19.0867 240.632 18.66L241.472 20.66ZM247.997 22.2C246.917 22.2 245.871 22.0467 244.857 21.74C243.857 21.4333 243.064 21.0267 242.477 20.52L243.377 18.5C243.951 18.9533 244.651 19.3267 245.477 19.62C246.317 19.9 247.157 20.04 247.997 20.04C249.037 20.04 249.811 19.8733 250.317 19.54C250.837 19.2067 251.097 18.7667 251.097 18.22C251.097 17.82 250.951 17.4933 250.657 17.24C250.377 16.9733 250.017 16.7667 249.577 16.62C249.137 16.4733 248.537 16.3067 247.777 16.12C246.711 15.8667 245.844 15.6133 245.177 15.36C244.524 15.1067 243.957 14.7133 243.477 14.18C243.011 13.6333 242.777 12.9 242.777 11.98C242.777 11.2067 242.984 10.5067 243.397 9.88C243.824 9.24 244.457 8.73333 245.297 8.36C246.151 7.98667 247.191 7.8 248.417 7.8C249.271 7.8 250.111 7.90667 250.937 8.12C251.764 8.33333 252.477 8.64 253.077 9.04L252.257 11.06C251.644 10.7 251.004 10.4267 250.337 10.24C249.671 10.0533 249.024 9.96 248.397 9.96C247.371 9.96 246.604 10.1333 246.097 10.48C245.604 10.8267 245.357 11.2867 245.357 11.86C245.357 12.26 245.497 12.5867 245.777 12.84C246.071 13.0933 246.437 13.2933 246.877 13.44C247.317 13.5867 247.917 13.7533 248.677 13.94C249.717 14.18 250.571 14.4333 251.237 14.7C251.904 14.9533 252.471 15.3467 252.937 15.88C253.417 16.4133 253.657 17.1333 253.657 18.04C253.657 18.8133 253.444 19.5133 253.017 20.14C252.604 20.7667 251.971 21.2667 251.117 21.64C250.264 22.0133 249.224 22.2 247.997 22.2ZM262.335 7.8C263.589 7.8 264.682 8.04667 265.615 8.54C266.549 9.03333 267.269 9.76667 267.775 10.74C268.295 11.7 268.555 12.8667 268.555 14.24V22H265.955V18.4H258.675V22H256.115V14.24C256.115 12.8667 256.369 11.7 256.875 10.74C257.395 9.76667 258.122 9.03333 259.055 8.54C259.989 8.04667 261.082 7.8 262.335 7.8ZM265.955 16.22V14C265.955 12.7067 265.635 11.7333 264.995 11.08C264.355 10.4133 263.462 10.08 262.315 10.08C261.169 10.08 260.275 10.4133 259.635 11.08C258.995 11.7333 258.675 12.7067 258.675 14V16.22H265.955Z" fill="white"/>
</svg>
