<svg width="304" height="46" viewBox="0 0 304 46" fill="none" xmlns="http://www.w3.org/2000/svg">
<path d="M41 1V45H1V1H41Z" fill="white" stroke="black" stroke-width="2"/>
<path d="M303 1V28H54V1H303Z" fill="#0033CC" stroke="black" stroke-width="2"/>
<path d="M54 1V28H41V1H54Z" fill="#FFCC00" stroke="black" stroke-width="2"/>
<path d="M41 1V28H23V1H41Z" fill="#FF6600" stroke="black" stroke-width="2"/>
<path d="M66.88 8H69.48V19.8H76.8V22H66.88V8ZM85.1388 22.2C83.7121 22.2 82.4254 21.8933 81.2788 21.28C80.1321 20.6533 79.2321 19.7933 78.5788 18.7C77.9254 17.5933 77.5988 16.36 77.5988 15C77.5988 13.64 77.9254 12.4133 78.5788 11.32C79.2321 10.2133 80.1321 9.35333 81.2788 8.74C82.4254 8.11333 83.7121 7.8 85.1388 7.8C86.5654 7.8 87.8521 8.11333 88.9988 8.74C90.1454 9.35333 91.0454 10.2067 91.6988 11.3C92.3521 12.3933 92.6788 13.6267 92.6788 15C92.6788 16.3733 92.3521 17.6067 91.6988 18.7C91.0454 19.7933 90.1454 20.6533 88.9988 21.28C87.8521 21.8933 86.5654 22.2 85.1388 22.2ZM85.1388 19.92C86.0721 19.92 86.9121 19.7133 87.6588 19.3C88.4054 18.8733 88.9921 18.2867 89.4188 17.54C89.8454 16.78 90.0588 15.9333 90.0588 15C90.0588 14.0667 89.8454 13.2267 89.4188 12.48C88.9921 11.72 88.4054 11.1333 87.6588 10.72C86.9121 10.2933 86.0721 10.08 85.1388 10.08C84.2054 10.08 83.3654 10.2933 82.6188 10.72C81.8721 11.1333 81.2854 11.72 80.8588 12.48C80.4321 13.2267 80.2188 14.0667 80.2188 15C80.2188 15.9333 80.4321 16.78 80.8588 17.54C81.2854 18.2867 81.8721 18.8733 82.6188 19.3C83.3654 19.7133 84.2054 19.92 85.1388 19.92ZM96.9492 24.2C96.0692 24.2 95.2559 24.0267 94.5092 23.68C93.7759 23.3333 93.1692 22.8333 92.6892 22.18L94.1292 20.4C94.8892 21.4667 95.8026 22 96.8692 22C98.3492 22 99.0892 21.14 99.0892 19.42V10.18H94.0892V8H101.669V19.28C101.669 20.92 101.269 22.1467 100.469 22.96C99.6692 23.7867 98.4959 24.2 96.9492 24.2ZM111.418 7.8C112.671 7.8 113.764 8.04667 114.698 8.54C115.631 9.03333 116.351 9.76667 116.858 10.74C117.378 11.7 117.638 12.8667 117.638 14.24V22H115.038V18.4H107.758V22H105.198V14.24C105.198 12.8667 105.451 11.7 105.958 10.74C106.478 9.76667 107.204 9.03333 108.138 8.54C109.071 8.04667 110.164 7.8 111.418 7.8ZM115.038 16.22V14C115.038 12.7067 114.718 11.7333 114.078 11.08C113.438 10.4133 112.544 10.08 111.398 10.08C110.251 10.08 109.358 10.4133 108.717 11.08C108.078 11.7333 107.758 12.7067 107.758 14V16.22H115.038ZM126.802 8H132.922C134.415 8 135.742 8.29333 136.902 8.88C138.062 9.45333 138.962 10.2733 139.602 11.34C140.242 12.3933 140.562 13.6133 140.562 15C140.562 16.3867 140.242 17.6133 139.602 18.68C138.962 19.7333 138.062 20.5533 136.902 21.14C135.742 21.7133 134.415 22 132.922 22H126.802V8ZM132.802 19.8C133.829 19.8 134.729 19.6067 135.502 19.22C136.289 18.82 136.889 18.26 137.302 17.54C137.729 16.8067 137.942 15.96 137.942 15C137.942 14.04 137.729 13.2 137.302 12.48C136.889 11.7467 136.289 11.1867 135.502 10.8C134.729 10.4 133.829 10.2 132.802 10.2H129.402V19.8H132.802ZM154.245 20.66C153.619 21.1533 152.812 21.5333 151.825 21.8C150.839 22.0667 149.772 22.2 148.625 22.2C147.279 22.2 146.132 22.0267 145.185 21.68C144.252 21.3333 143.545 20.8533 143.065 20.24C142.585 19.6267 142.345 18.92 142.345 18.12C142.345 17.3467 142.559 16.6733 142.985 16.1C143.412 15.5267 143.985 15.1067 144.705 14.84C144.159 14.5467 143.725 14.14 143.405 13.62C143.099 13.0867 142.945 12.4933 142.945 11.84C142.945 11.0933 143.165 10.42 143.605 9.82C144.059 9.20667 144.732 8.72 145.625 8.36C146.519 7.98667 147.619 7.8 148.925 7.8C149.805 7.8 150.665 7.89333 151.505 8.08C152.345 8.26667 153.079 8.52 153.705 8.84L152.965 10.9C151.792 10.2867 150.479 9.98 149.025 9.98C147.879 9.98 147.012 10.1667 146.425 10.54C145.852 10.9 145.565 11.3867 145.565 12C145.565 12.6 145.779 13.06 146.205 13.38C146.632 13.6867 147.259 13.84 148.085 13.84H151.785V16H147.945C146.999 16 146.265 16.1667 145.745 16.5C145.225 16.82 144.965 17.3 144.965 17.94C144.965 18.58 145.279 19.0867 145.905 19.46C146.532 19.8333 147.479 20.02 148.745 20.02C149.625 20.02 150.479 19.9 151.305 19.66C152.145 19.42 152.845 19.0867 153.405 18.66L154.245 20.66ZM174.058 8V22H171.558V20.22C170.611 21.54 169.145 22.2 167.158 22.2C165.505 22.2 164.205 21.6867 163.258 20.66C162.311 19.62 161.838 18.1533 161.838 16.26V8H164.438V16.16C164.438 17.4 164.731 18.34 165.318 18.98C165.918 19.6067 166.738 19.92 167.778 19.92C168.898 19.92 169.791 19.5867 170.458 18.92C171.125 18.24 171.458 17.2333 171.458 15.9V8H174.058ZM187.538 11.48C186.218 10.7333 184.844 10.28 183.418 10.12V22H180.818V10.12C179.378 10.28 177.998 10.7333 176.678 11.48L175.777 9.48C176.711 8.92 177.711 8.5 178.778 8.22C179.858 7.94 180.964 7.8 182.098 7.8C183.231 7.8 184.338 7.94 185.418 8.22C186.498 8.5 187.504 8.92 188.438 9.48L187.538 11.48ZM194.261 10.18V19.82H196.841V22H189.101V19.82H191.681V10.18H189.101V8H196.841V10.18H194.261ZM199.536 8H202.136V19.8H209.456V22H199.536V8ZM215.609 10.18V19.82H218.189V22H210.449V19.82H213.029V10.18H210.449V8H218.189V10.18H215.609ZM220.884 8H227.004C228.497 8 229.824 8.29333 230.984 8.88C232.144 9.45333 233.044 10.2733 233.684 11.34C234.324 12.3933 234.644 13.6133 234.644 15C234.644 16.3867 234.324 17.6133 233.684 18.68C233.044 19.7333 232.144 20.5533 230.984 21.14C229.824 21.7133 228.497 22 227.004 22H220.884V8ZM226.884 19.8C227.911 19.8 228.811 19.6067 229.584 19.22C230.371 18.82 230.971 18.26 231.384 17.54C231.811 16.8067 232.024 15.96 232.024 15C232.024 14.04 231.811 13.2 231.384 12.48C230.971 11.7467 230.371 11.1867 229.584 10.8C228.811 10.4 227.911 10.2 226.884 10.2H223.484V19.8H226.884ZM243.507 7.8C244.761 7.8 245.854 8.04667 246.787 8.54C247.721 9.03333 248.441 9.76667 248.947 10.74C249.467 11.7 249.727 12.8667 249.727 14.24V22H247.127V18.4H239.847V22H237.287V14.24C237.287 12.8667 237.541 11.7 238.047 10.74C238.567 9.76667 239.294 9.03333 240.227 8.54C241.161 8.04667 242.254 7.8 243.507 7.8ZM247.127 16.22V14C247.127 12.7067 246.807 11.7333 246.167 11.08C245.527 10.4133 244.634 10.08 243.487 10.08C242.341 10.08 241.447 10.4133 240.807 11.08C240.167 11.7333 239.847 12.7067 239.847 14V16.22H247.127ZM253.364 8H259.484C260.978 8 262.304 8.29333 263.464 8.88C264.624 9.45333 265.524 10.2733 266.164 11.34C266.804 12.3933 267.124 13.6133 267.124 15C267.124 16.3867 266.804 17.6133 266.164 18.68C265.524 19.7333 264.624 20.5533 263.464 21.14C262.304 21.7133 260.978 22 259.484 22H253.364V8ZM259.364 19.8C260.391 19.8 261.291 19.6067 262.064 19.22C262.851 18.82 263.451 18.26 263.864 17.54C264.291 16.8067 264.504 15.96 264.504 15C264.504 14.04 264.291 13.2 263.864 12.48C263.451 11.7467 262.851 11.1867 262.064 10.8C261.291 10.4 260.391 10.2 259.364 10.2H255.964V19.8H259.364ZM280.808 20.66C280.181 21.1533 279.374 21.5333 278.388 21.8C277.401 22.0667 276.334 22.2 275.188 22.2C273.841 22.2 272.694 22.0267 271.748 21.68C270.814 21.3333 270.108 20.8533 269.628 20.24C269.148 19.6267 268.908 18.92 268.908 18.12C268.908 17.3467 269.121 16.6733 269.548 16.1C269.974 15.5267 270.548 15.1067 271.268 14.84C270.721 14.5467 270.288 14.14 269.968 13.62C269.661 13.0867 269.508 12.4933 269.508 11.84C269.508 11.0933 269.728 10.42 270.168 9.82C270.621 9.20667 271.294 8.72 272.188 8.36C273.081 7.98667 274.181 7.8 275.488 7.8C276.368 7.8 277.228 7.89333 278.068 8.08C278.908 8.26667 279.641 8.52 280.268 8.84L279.528 10.9C278.354 10.2867 277.041 9.98 275.588 9.98C274.441 9.98 273.574 10.1667 272.988 10.54C272.414 10.9 272.128 11.3867 272.128 12C272.128 12.6 272.341 13.06 272.768 13.38C273.194 13.6867 273.821 13.84 274.648 13.84H278.348V16H274.508C273.561 16 272.828 16.1667 272.308 16.5C271.788 16.82 271.528 17.3 271.528 17.94C271.528 18.58 271.841 19.0867 272.468 19.46C273.094 19.8333 274.041 20.02 275.308 20.02C276.188 20.02 277.041 19.9 277.868 19.66C278.708 19.42 279.408 19.0867 279.968 18.66L280.808 20.66ZM287.333 22.2C286.253 22.2 285.207 22.0467 284.193 21.74C283.193 21.4333 282.4 21.0267 281.813 20.52L282.713 18.5C283.287 18.9533 283.987 19.3267 284.813 19.62C285.653 19.9 286.493 20.04 287.333 20.04C288.373 20.04 289.147 19.8733 289.653 19.54C290.173 19.2067 290.433 18.7667 290.433 18.22C290.433 17.82 290.287 17.4933 289.993 17.24C289.713 16.9733 289.353 16.7667 288.913 16.62C288.473 16.4733 287.873 16.3067 287.113 16.12C286.047 15.8667 285.18 15.6133 284.513 15.36C283.86 15.1067 283.293 14.7133 282.813 14.18C282.347 13.6333 282.113 12.9 282.113 11.98C282.113 11.2067 282.32 10.5067 282.733 9.88C283.16 9.24 283.793 8.73333 284.633 8.36C285.487 7.98667 286.527 7.8 287.753 7.8C288.607 7.8 289.447 7.90667 290.273 8.12C291.1 8.33333 291.813 8.64 292.413 9.04L291.593 11.06C290.98 10.7 290.34 10.4267 289.673 10.24C289.007 10.0533 288.36 9.96 287.733 9.96C286.707 9.96 285.94 10.1333 285.433 10.48C284.94 10.8267 284.693 11.2867 284.693 11.86C284.693 12.26 284.833 12.5867 285.113 12.84C285.407 13.0933 285.773 13.2933 286.213 13.44C286.653 13.5867 287.253 13.7533 288.013 13.94C289.053 14.18 289.907 14.4333 290.573 14.7C291.24 14.9533 291.807 15.3467 292.273 15.88C292.753 16.4133 292.993 17.1333 292.993 18.04C292.993 18.8133 292.78 19.5133 292.353 20.14C291.94 20.7667 291.307 21.2667 290.453 21.64C289.6 22.0133 288.56 22.2 287.333 22.2Z" fill="white"/>
</svg>
