<svg width="412" height="46" viewBox="0 0 412 46" fill="none" xmlns="http://www.w3.org/2000/svg">
<path d="M41 1V45H1V1H41Z" fill="white" stroke="black" stroke-width="2"/>
<path d="M411 1V28H54V1H411Z" fill="#0033CC" stroke="black" stroke-width="2"/>
<path d="M54 1V28H41V1H54Z" fill="#FFCC00" stroke="black" stroke-width="2"/>
<path d="M41 1V28H23V1H41Z" fill="#FF6600" stroke="black" stroke-width="2"/>
<path d="M73 10.08C71.8 10.08 70.8933 10.3467 70.28 10.88C69.6667 11.4133 69.36 12.2 69.36 13.24V14.44H75.46V16.64H69.36V22H66.76V13.24C66.76 11.5467 67.3 10.22 68.38 9.26C69.4733 8.28667 70.9733 7.8 72.88 7.8C73.68 7.8 74.4267 7.88667 75.12 8.06C75.8133 8.23333 76.42 8.48667 76.94 8.82L76.12 10.94C75.2933 10.3667 74.2533 10.08 73 10.08ZM84.6792 7.8C85.9326 7.8 87.0259 8.04667 87.9592 8.54C88.8926 9.03333 89.6126 9.76667 90.1192 10.74C90.6392 11.7 90.8992 12.8667 90.8992 14.24V22H88.2992V18.4H81.0192V22H78.4592V14.24C78.4592 12.8667 78.7126 11.7 79.2192 10.74C79.7392 9.76667 80.4659 9.03333 81.3992 8.54C82.3326 8.04667 83.4259 7.8 84.6792 7.8ZM88.2992 16.22V14C88.2992 12.7067 87.9792 11.7333 87.3392 11.08C86.6992 10.4133 85.8059 10.08 84.6592 10.08C83.5126 10.08 82.6192 10.4133 81.9792 11.08C81.3392 11.7333 81.0192 12.7067 81.0192 14V16.22H88.2992ZM103.696 22L100.836 17.9C100.716 17.9133 100.536 17.92 100.296 17.92H97.1363V22H94.5363V8H100.296C101.51 8 102.563 8.2 103.456 8.6C104.363 9 105.056 9.57333 105.536 10.32C106.016 11.0667 106.256 11.9533 106.256 12.98C106.256 14.0333 105.996 14.94 105.476 15.7C104.97 16.46 104.236 17.0267 103.276 17.4L106.496 22H103.696ZM103.636 12.98C103.636 12.0867 103.343 11.4 102.756 10.92C102.17 10.44 101.31 10.2 100.176 10.2H97.1363V15.78H100.176C101.31 15.78 102.17 15.54 102.756 15.06C103.343 14.5667 103.636 13.8733 103.636 12.98ZM124.805 7.8C126.445 7.8 127.725 8.28 128.645 9.24C129.565 10.1867 130.025 11.5533 130.025 13.34V22H127.425V13.44C127.425 12.3333 127.132 11.5 126.545 10.94C125.972 10.3667 125.218 10.08 124.285 10.08C123.245 10.08 122.412 10.3733 121.785 10.96C121.172 11.5467 120.865 12.4467 120.865 13.66V22H118.265V13.44C118.265 12.32 117.992 11.48 117.445 10.92C116.912 10.36 116.178 10.08 115.245 10.08C114.192 10.08 113.345 10.38 112.705 10.98C112.078 11.5667 111.765 12.46 111.765 13.66V22H109.165V8H111.685V9.84C112.112 9.18667 112.692 8.68667 113.425 8.34C114.158 7.98 115.005 7.8 115.965 7.8C116.952 7.8 117.812 7.98667 118.545 8.36C119.278 8.73333 119.832 9.26 120.205 9.94C120.672 9.26 121.305 8.73333 122.105 8.36C122.918 7.98667 123.818 7.8 124.805 7.8ZM139.757 7.8C141.011 7.8 142.104 8.04667 143.037 8.54C143.971 9.03333 144.691 9.76667 145.197 10.74C145.717 11.7 145.977 12.8667 145.977 14.24V22H143.377V18.4H136.097V22H133.537V14.24C133.537 12.8667 133.791 11.7 134.297 10.74C134.817 9.76667 135.544 9.03333 136.477 8.54C137.411 8.04667 138.504 7.8 139.757 7.8ZM143.377 16.22V14C143.377 12.7067 143.057 11.7333 142.417 11.08C141.777 10.4133 140.884 10.08 139.737 10.08C138.591 10.08 137.697 10.4133 137.057 11.08C136.417 11.7333 136.097 12.7067 136.097 14V16.22H143.377ZM140.777 4.12H143.717L140.237 6.86H138.077L140.777 4.12ZM156.094 22.2C154.681 22.2 153.401 21.8933 152.254 21.28C151.121 20.6533 150.228 19.7933 149.574 18.7C148.934 17.6067 148.614 16.3733 148.614 15C148.614 13.6267 148.941 12.3933 149.594 11.3C150.248 10.2067 151.141 9.35333 152.274 8.74C153.421 8.11333 154.701 7.8 156.114 7.8C157.261 7.8 158.308 8 159.254 8.4C160.201 8.8 161.001 9.38 161.654 10.14L159.974 11.72C158.961 10.6267 157.714 10.08 156.234 10.08C155.274 10.08 154.414 10.2933 153.654 10.72C152.894 11.1333 152.301 11.7133 151.874 12.46C151.448 13.2067 151.234 14.0533 151.234 15C151.234 15.9467 151.448 16.7933 151.874 17.54C152.301 18.2867 152.894 18.8733 153.654 19.3C154.414 19.7133 155.274 19.92 156.234 19.92C157.714 19.92 158.961 19.3667 159.974 18.26L161.654 19.86C161.001 20.62 160.194 21.2 159.234 21.6C158.288 22 157.241 22.2 156.094 22.2ZM168.246 10.18V19.82H170.826V22H163.086V19.82H165.666V10.18H163.086V8H170.826V10.18H168.246ZM179.621 7.8C180.874 7.8 181.967 8.04667 182.901 8.54C183.834 9.03333 184.554 9.76667 185.061 10.74C185.581 11.7 185.841 12.8667 185.841 14.24V22H183.241V18.4H175.961V22H173.401V14.24C173.401 12.8667 173.654 11.7 174.161 10.74C174.681 9.76667 175.407 9.03333 176.341 8.54C177.274 8.04667 178.367 7.8 179.621 7.8ZM183.241 16.22V14C183.241 12.7067 182.921 11.7333 182.281 11.08C181.641 10.4133 180.747 10.08 179.601 10.08C178.454 10.08 177.561 10.4133 176.921 11.08C176.281 11.7333 175.961 12.7067 175.961 14V16.22H183.241ZM195.005 8H201.125C202.618 8 203.945 8.29333 205.105 8.88C206.265 9.45333 207.165 10.2733 207.805 11.34C208.445 12.3933 208.765 13.6133 208.765 15C208.765 16.3867 208.445 17.6133 207.805 18.68C207.165 19.7333 206.265 20.5533 205.105 21.14C203.945 21.7133 202.618 22 201.125 22H195.005V8ZM201.005 19.8C202.032 19.8 202.932 19.6067 203.705 19.22C204.492 18.82 205.092 18.26 205.505 17.54C205.932 16.8067 206.145 15.96 206.145 15C206.145 14.04 205.932 13.2 205.505 12.48C205.092 11.7467 204.492 11.1867 203.705 10.8C202.932 10.4 202.032 10.2 201.005 10.2H197.605V19.8H201.005ZM222.448 20.66C221.822 21.1533 221.015 21.5333 220.028 21.8C219.042 22.0667 217.975 22.2 216.828 22.2C215.482 22.2 214.335 22.0267 213.388 21.68C212.455 21.3333 211.748 20.8533 211.268 20.24C210.788 19.6267 210.548 18.92 210.548 18.12C210.548 17.3467 210.762 16.6733 211.188 16.1C211.615 15.5267 212.188 15.1067 212.908 14.84C212.362 14.5467 211.928 14.14 211.608 13.62C211.302 13.0867 211.148 12.4933 211.148 11.84C211.148 11.0933 211.368 10.42 211.808 9.82C212.262 9.20667 212.935 8.72 213.828 8.36C214.722 7.98667 215.822 7.8 217.128 7.8C218.008 7.8 218.868 7.89333 219.708 8.08C220.548 8.26667 221.282 8.52 221.908 8.84L221.168 10.9C219.995 10.2867 218.682 9.98 217.228 9.98C216.082 9.98 215.215 10.1667 214.628 10.54C214.055 10.9 213.768 11.3867 213.768 12C213.768 12.6 213.982 13.06 214.408 13.38C214.835 13.6867 215.462 13.84 216.288 13.84H219.988V16H216.148C215.202 16 214.468 16.1667 213.948 16.5C213.428 16.82 213.168 17.3 213.168 17.94C213.168 18.58 213.482 19.0867 214.108 19.46C214.735 19.8333 215.682 20.02 216.948 20.02C217.828 20.02 218.682 19.9 219.508 19.66C220.348 19.42 221.048 19.0867 221.608 18.66L222.448 20.66ZM245.801 7.8C247.441 7.8 248.721 8.28 249.641 9.24C250.561 10.1867 251.021 11.5533 251.021 13.34V22H248.421V13.44C248.421 12.3333 248.128 11.5 247.541 10.94C246.968 10.3667 246.215 10.08 245.281 10.08C244.241 10.08 243.408 10.3733 242.781 10.96C242.168 11.5467 241.861 12.4467 241.861 13.66V22H239.261V13.44C239.261 12.32 238.988 11.48 238.441 10.92C237.908 10.36 237.175 10.08 236.241 10.08C235.188 10.08 234.341 10.38 233.701 10.98C233.075 11.5667 232.761 12.46 232.761 13.66V22H230.161V8H232.681V9.84C233.108 9.18667 233.688 8.68667 234.421 8.34C235.155 7.98 236.001 7.8 236.961 7.8C237.948 7.8 238.808 7.98667 239.541 8.36C240.275 8.73333 240.828 9.26 241.201 9.94C241.668 9.26 242.301 8.73333 243.101 8.36C243.915 7.98667 244.815 7.8 245.801 7.8ZM260.753 7.8C262.007 7.8 263.1 8.04667 264.033 8.54C264.967 9.03333 265.687 9.76667 266.193 10.74C266.713 11.7 266.973 12.8667 266.973 14.24V22H264.373V18.4H257.093V22H254.533V14.24C254.533 12.8667 254.787 11.7 255.293 10.74C255.813 9.76667 256.54 9.03333 257.473 8.54C258.407 8.04667 259.5 7.8 260.753 7.8ZM264.373 16.22V14C264.373 12.7067 264.053 11.7333 263.413 11.08C262.773 10.4133 261.88 10.08 260.733 10.08C259.587 10.08 258.693 10.4133 258.053 11.08C257.413 11.7333 257.093 12.7067 257.093 14V16.22H264.373ZM277.57 7.8C279.25 7.8 280.557 8.31333 281.49 9.34C282.437 10.3667 282.91 11.8333 282.91 13.74V22H280.31V13.84C280.31 12.6 280.01 11.6667 279.41 11.04C278.824 10.4 278.004 10.08 276.95 10.08C275.804 10.08 274.89 10.42 274.21 11.1C273.544 11.7667 273.21 12.7667 273.21 14.1V22H270.61V8H273.13V9.76C274.104 8.45333 275.584 7.8 277.57 7.8ZM290.648 10.18V19.82H293.228V22H285.488V19.82H288.068V10.18H285.488V8H293.228V10.18H290.648ZM301.683 8C302.896 8 303.95 8.2 304.843 8.6C305.75 9 306.443 9.57333 306.923 10.32C307.403 11.0667 307.643 11.9533 307.643 12.98C307.643 13.9933 307.403 14.88 306.923 15.64C306.443 16.3867 305.75 16.96 304.843 17.36C303.95 17.76 302.896 17.96 301.683 17.96H298.523V22H295.923V8H301.683ZM301.563 15.76C302.696 15.76 303.556 15.52 304.143 15.04C304.73 14.56 305.023 13.8733 305.023 12.98C305.023 12.0867 304.73 11.4 304.143 10.92C303.556 10.44 302.696 10.2 301.563 10.2H298.523V15.76H301.563ZM322.339 8V22H319.839V20.22C318.893 21.54 317.426 22.2 315.439 22.2C313.786 22.2 312.486 21.6867 311.539 20.66C310.593 19.62 310.119 18.1533 310.119 16.26V8H312.719V16.16C312.719 17.4 313.013 18.34 313.599 18.98C314.199 19.6067 315.019 19.92 316.059 19.92C317.179 19.92 318.073 19.5867 318.739 18.92C319.406 18.24 319.739 17.2333 319.739 15.9V8H322.339ZM326.099 8H328.699V19.8H336.019V22H326.099V8ZM344.171 7.8C345.425 7.8 346.518 8.04667 347.451 8.54C348.385 9.03333 349.105 9.76667 349.611 10.74C350.131 11.7 350.391 12.8667 350.391 14.24V22H347.791V18.4H340.511V22H337.951V14.24C337.951 12.8667 338.205 11.7 338.711 10.74C339.231 9.76667 339.958 9.03333 340.891 8.54C341.825 8.04667 342.918 7.8 344.171 7.8ZM347.791 16.22V14C347.791 12.7067 347.471 11.7333 346.831 11.08C346.191 10.4133 345.298 10.08 344.151 10.08C343.005 10.08 342.111 10.4133 341.471 11.08C340.831 11.7333 340.511 12.7067 340.511 14V16.22H347.791ZM360.508 22.2C359.095 22.2 357.815 21.8933 356.668 21.28C355.535 20.6533 354.642 19.7933 353.988 18.7C353.348 17.6067 353.028 16.3733 353.028 15C353.028 13.6267 353.355 12.3933 354.008 11.3C354.662 10.2067 355.555 9.35333 356.688 8.74C357.835 8.11333 359.115 7.8 360.528 7.8C361.675 7.8 362.722 8 363.668 8.4C364.615 8.8 365.415 9.38 366.068 10.14L364.388 11.72C363.375 10.6267 362.128 10.08 360.648 10.08C359.688 10.08 358.828 10.2933 358.068 10.72C357.308 11.1333 356.715 11.7133 356.288 12.46C355.862 13.2067 355.648 14.0533 355.648 15C355.648 15.9467 355.862 16.7933 356.288 17.54C356.715 18.2867 357.308 18.8733 358.068 19.3C358.828 19.7133 359.688 19.92 360.648 19.92C362.128 19.92 363.375 19.3667 364.388 18.26L366.068 19.86C365.415 20.62 364.608 21.2 363.648 21.6C362.702 22 361.655 22.2 360.508 22.2ZM359.568 26.56C358.848 26.56 358.235 26.42 357.728 26.14L358.188 24.96C358.602 25.1733 359.055 25.28 359.548 25.28C360.255 25.28 360.608 25.04 360.608 24.56C360.608 24.36 360.522 24.2 360.348 24.08C360.175 23.96 359.908 23.9 359.548 23.9H358.928L359.468 21.86H360.828L360.548 22.98C361.122 23.0467 361.555 23.2267 361.848 23.52C362.142 23.8267 362.288 24.2067 362.288 24.66C362.288 25.2333 362.042 25.6933 361.548 26.04C361.055 26.3867 360.395 26.56 359.568 26.56ZM374.66 7.8C375.913 7.8 377.006 8.04667 377.94 8.54C378.873 9.03333 379.593 9.76667 380.1 10.74C380.62 11.7 380.88 12.8667 380.88 14.24V22H378.28V18.4H371V22H368.44V14.24C368.44 12.8667 368.693 11.7 369.2 10.74C369.72 9.76667 370.446 9.03333 371.38 8.54C372.313 8.04667 373.406 7.8 374.66 7.8ZM378.28 16.22V14C378.28 12.7067 377.96 11.7333 377.32 11.08C376.68 10.4133 375.786 10.08 374.64 10.08C373.493 10.08 372.6 10.4133 371.96 11.08C371.32 11.7333 371 12.7067 371 14V16.22H378.28ZM376.1 6.86C375.766 6.86 375.473 6.79333 375.22 6.66C374.98 6.52667 374.68 6.32667 374.32 6.06C374.106 5.88667 373.926 5.76 373.78 5.68C373.646 5.58667 373.513 5.54 373.38 5.54C373.1 5.54 372.866 5.64667 372.68 5.86C372.506 6.07333 372.413 6.36667 372.4 6.74H371.06C371.073 5.92667 371.273 5.28 371.66 4.8C372.06 4.30667 372.58 4.06 373.22 4.06C373.553 4.06 373.84 4.12667 374.08 4.26C374.333 4.39333 374.64 4.59333 375 4.86C375.213 5.03333 375.386 5.16667 375.52 5.26C375.666 5.34 375.806 5.38 375.94 5.38C376.22 5.38 376.446 5.28 376.62 5.08C376.806 4.88 376.906 4.6 376.92 4.24H378.26C378.233 5.02667 378.026 5.66 377.64 6.14C377.253 6.62 376.74 6.86 376.1 6.86ZM391.057 22.2C389.63 22.2 388.343 21.8933 387.197 21.28C386.05 20.6533 385.15 19.7933 384.497 18.7C383.843 17.5933 383.517 16.36 383.517 15C383.517 13.64 383.843 12.4133 384.497 11.32C385.15 10.2133 386.05 9.35333 387.197 8.74C388.343 8.11333 389.63 7.8 391.057 7.8C392.483 7.8 393.77 8.11333 394.917 8.74C396.063 9.35333 396.963 10.2067 397.617 11.3C398.27 12.3933 398.597 13.6267 398.597 15C398.597 16.3733 398.27 17.6067 397.617 18.7C396.963 19.7933 396.063 20.6533 394.917 21.28C393.77 21.8933 392.483 22.2 391.057 22.2ZM391.057 19.92C391.99 19.92 392.83 19.7133 393.577 19.3C394.323 18.8733 394.91 18.2867 395.337 17.54C395.763 16.78 395.977 15.9333 395.977 15C395.977 14.0667 395.763 13.2267 395.337 12.48C394.91 11.72 394.323 11.1333 393.577 10.72C392.83 10.2933 391.99 10.08 391.057 10.08C390.123 10.08 389.283 10.2933 388.537 10.72C387.79 11.1333 387.203 11.72 386.777 12.48C386.35 13.2267 386.137 14.0667 386.137 15C386.137 15.9333 386.35 16.78 386.777 17.54C387.203 18.2867 387.79 18.8733 388.537 19.3C389.283 19.7133 390.123 19.92 391.057 19.92Z" fill="white"/>
</svg>
