<svg width="565" height="83" viewBox="0 0 565 83" fill="none" xmlns="http://www.w3.org/2000/svg">
<path d="M41 1V45H1V1H41Z" fill="white" stroke="black" stroke-width="2"/>
<path d="M328 1V28H54V1H328Z" fill="#0033CC" stroke="black" stroke-width="2"/>
<path d="M454 28V55H54V28H454Z" fill="#0033CC" stroke="black" stroke-width="2"/>
<path d="M564 55V82H54V55H564Z" fill="#0033CC" stroke="black" stroke-width="2"/>
<path d="M54 1V28H41V1H54Z" fill="#FFCC00" stroke="black" stroke-width="2"/>
<path d="M41 1V28H23V1H41Z" fill="#FF6600" stroke="black" stroke-width="2"/>
<path d="M70.98 10.18V19.82H73.56V22H65.82V19.82H68.4V10.18H65.82V8H73.56V10.18H70.98ZM82.415 7.8C84.095 7.8 85.4017 8.31333 86.335 9.34C87.2817 10.3667 87.755 11.8333 87.755 13.74V22H85.155V13.84C85.155 12.6 84.855 11.6667 84.255 11.04C83.6683 10.4 82.8483 10.08 81.795 10.08C80.6483 10.08 79.735 10.42 79.055 11.1C78.3883 11.7667 78.055 12.7667 78.055 14.1V22H75.455V8H77.975V9.76C78.9483 8.45333 80.4283 7.8 82.415 7.8ZM94.9325 22.2C93.8525 22.2 92.8058 22.0467 91.7925 21.74C90.7925 21.4333 89.9992 21.0267 89.4125 20.52L90.3125 18.5C90.8858 18.9533 91.5858 19.3267 92.4125 19.62C93.2525 19.9 94.0925 20.04 94.9325 20.04C95.9725 20.04 96.7458 19.8733 97.2525 19.54C97.7725 19.2067 98.0325 18.7667 98.0325 18.22C98.0325 17.82 97.8858 17.4933 97.5925 17.24C97.3125 16.9733 96.9525 16.7667 96.5125 16.62C96.0725 16.4733 95.4725 16.3067 94.7125 16.12C93.6458 15.8667 92.7792 15.6133 92.1125 15.36C91.4592 15.1067 90.8925 14.7133 90.4125 14.18C89.9458 13.6333 89.7125 12.9 89.7125 11.98C89.7125 11.2067 89.9192 10.5067 90.3325 9.88C90.7592 9.24 91.3925 8.73333 92.2325 8.36C93.0858 7.98667 94.1258 7.8 95.3525 7.8C96.2058 7.8 97.0458 7.90667 97.8725 8.12C98.6992 8.33333 99.4125 8.64 100.012 9.04L99.1925 11.06C98.5792 10.7 97.9392 10.4267 97.2725 10.24C96.6058 10.0533 95.9592 9.96 95.3325 9.96C94.3058 9.96 93.5392 10.1333 93.0325 10.48C92.5392 10.8267 92.2925 11.2867 92.2925 11.86C92.2925 12.26 92.4325 12.5867 92.7125 12.84C93.0058 13.0933 93.3725 13.2933 93.8125 13.44C94.2525 13.5867 94.8525 13.7533 95.6125 13.94C96.6525 14.18 97.5058 14.4333 98.1725 14.7C98.8392 14.9533 99.4058 15.3467 99.8725 15.88C100.353 16.4133 100.593 17.1333 100.593 18.04C100.593 18.8133 100.379 19.5133 99.9525 20.14C99.5392 20.7667 98.9058 21.2667 98.0525 21.64C97.1992 22.0133 96.1592 22.2 94.9325 22.2ZM111.934 11.48C110.614 10.7333 109.241 10.28 107.814 10.12V22H105.214V10.12C103.774 10.28 102.394 10.7333 101.074 11.48L100.174 9.48C101.108 8.92 102.108 8.5 103.174 8.22C104.254 7.94 105.361 7.8 106.494 7.8C107.628 7.8 108.734 7.94 109.814 8.22C110.894 8.5 111.901 8.92 112.834 9.48L111.934 11.48ZM117.858 10.18V19.82H120.438V22H112.698V19.82H115.278V10.18H112.698V8H120.438V10.18H117.858ZM132.053 11.48C130.733 10.7333 129.36 10.28 127.933 10.12V22H125.333V10.12C123.893 10.28 122.513 10.7333 121.193 11.48L120.293 9.48C121.226 8.92 122.226 8.5 123.293 8.22C124.373 7.94 125.48 7.8 126.613 7.8C127.746 7.8 128.853 7.94 129.933 8.22C131.013 8.5 132.02 8.92 132.953 9.48L132.053 11.48ZM145.977 8V22H143.477V20.22C142.53 21.54 141.064 22.2 139.077 22.2C137.424 22.2 136.124 21.6867 135.177 20.66C134.23 19.62 133.757 18.1533 133.757 16.26V8H136.357V16.16C136.357 17.4 136.65 18.34 137.237 18.98C137.837 19.6067 138.657 19.92 139.697 19.92C140.817 19.92 141.71 19.5867 142.377 18.92C143.044 18.24 143.377 17.2333 143.377 15.9V8H145.977ZM153.036 10.18V19.82H155.616V22H147.876V19.82H150.456V10.18H147.876V8H155.616V10.18H153.036ZM163.894 22.2C162.48 22.2 161.2 21.8933 160.054 21.28C158.92 20.6533 158.027 19.7933 157.374 18.7C156.734 17.6067 156.414 16.3733 156.414 15C156.414 13.6267 156.74 12.3933 157.394 11.3C158.047 10.2067 158.94 9.35333 160.074 8.74C161.22 8.11333 162.5 7.8 163.914 7.8C165.06 7.8 166.107 8 167.054 8.4C168 8.8 168.8 9.38 169.454 10.14L167.774 11.72C166.76 10.6267 165.514 10.08 164.034 10.08C163.074 10.08 162.214 10.2933 161.454 10.72C160.694 11.1333 160.1 11.7133 159.674 12.46C159.247 13.2067 159.034 14.0533 159.034 15C159.034 15.9467 159.247 16.7933 159.674 17.54C160.1 18.2867 160.694 18.8733 161.454 19.3C162.214 19.7133 163.074 19.92 164.034 19.92C165.514 19.92 166.76 19.3667 167.774 18.26L169.454 19.86C168.8 20.62 167.994 21.2 167.034 21.6C166.087 22 165.04 22.2 163.894 22.2ZM162.954 26.56C162.234 26.56 161.62 26.42 161.114 26.14L161.574 24.96C161.987 25.1733 162.44 25.28 162.934 25.28C163.64 25.28 163.994 25.04 163.994 24.56C163.994 24.36 163.907 24.2 163.734 24.08C163.56 23.96 163.294 23.9 162.934 23.9H162.314L162.854 21.86H164.214L163.934 22.98C164.507 23.0467 164.94 23.2267 165.234 23.52C165.527 23.8267 165.674 24.2067 165.674 24.66C165.674 25.2333 165.427 25.6933 164.934 26.04C164.44 26.3867 163.78 26.56 162.954 26.56ZM177.245 7.8C178.498 7.8 179.592 8.04667 180.525 8.54C181.458 9.03333 182.178 9.76667 182.685 10.74C183.205 11.7 183.465 12.8667 183.465 14.24V22H180.865V18.4H173.585V22H171.025V14.24C171.025 12.8667 171.278 11.7 171.785 10.74C172.305 9.76667 173.032 9.03333 173.965 8.54C174.898 8.04667 175.992 7.8 177.245 7.8ZM180.865 16.22V14C180.865 12.7067 180.545 11.7333 179.905 11.08C179.265 10.4133 178.372 10.08 177.225 10.08C176.078 10.08 175.185 10.4133 174.545 11.08C173.905 11.7333 173.585 12.7067 173.585 14V16.22H180.865ZM178.685 6.86C178.352 6.86 178.058 6.79333 177.805 6.66C177.565 6.52667 177.265 6.32667 176.905 6.06C176.692 5.88667 176.512 5.76 176.365 5.68C176.232 5.58667 176.098 5.54 175.965 5.54C175.685 5.54 175.452 5.64667 175.265 5.86C175.092 6.07333 174.998 6.36667 174.985 6.74H173.645C173.658 5.92667 173.858 5.28 174.245 4.8C174.645 4.30667 175.165 4.06 175.805 4.06C176.138 4.06 176.425 4.12667 176.665 4.26C176.918 4.39333 177.225 4.59333 177.585 4.86C177.798 5.03333 177.972 5.16667 178.105 5.26C178.252 5.34 178.392 5.38 178.525 5.38C178.805 5.38 179.032 5.28 179.205 5.08C179.392 4.88 179.492 4.6 179.505 4.24H180.845C180.818 5.02667 180.612 5.66 180.225 6.14C179.838 6.62 179.325 6.86 178.685 6.86ZM192.842 22.2C191.415 22.2 190.129 21.8933 188.982 21.28C187.835 20.6533 186.935 19.7933 186.282 18.7C185.629 17.5933 185.302 16.36 185.302 15C185.302 13.64 185.629 12.4133 186.282 11.32C186.935 10.2133 187.835 9.35333 188.982 8.74C190.129 8.11333 191.415 7.8 192.842 7.8C194.269 7.8 195.555 8.11333 196.702 8.74C197.849 9.35333 198.749 10.2067 199.402 11.3C200.055 12.3933 200.382 13.6267 200.382 15C200.382 16.3733 200.055 17.6067 199.402 18.7C198.749 19.7933 197.849 20.6533 196.702 21.28C195.555 21.8933 194.269 22.2 192.842 22.2ZM192.842 19.92C193.775 19.92 194.615 19.7133 195.362 19.3C196.109 18.8733 196.695 18.2867 197.122 17.54C197.549 16.78 197.762 15.9333 197.762 15C197.762 14.0667 197.549 13.2267 197.122 12.48C196.695 11.72 196.109 11.1333 195.362 10.72C194.615 10.2933 193.775 10.08 192.842 10.08C191.909 10.08 191.069 10.2933 190.322 10.72C189.575 11.1333 188.989 11.72 188.562 12.48C188.135 13.2267 187.922 14.0667 187.922 15C187.922 15.9333 188.135 16.78 188.562 17.54C188.989 18.2867 189.575 18.8733 190.322 19.3C191.069 19.7133 191.909 19.92 192.842 19.92ZM207.065 8H213.185C214.678 8 216.005 8.29333 217.165 8.88C218.325 9.45333 219.225 10.2733 219.865 11.34C220.505 12.3933 220.825 13.6133 220.825 15C220.825 16.3867 220.505 17.6133 219.865 18.68C219.225 19.7333 218.325 20.5533 217.165 21.14C216.005 21.7133 214.678 22 213.185 22H207.065V8ZM213.065 19.8C214.092 19.8 214.992 19.6067 215.765 19.22C216.552 18.82 217.152 18.26 217.565 17.54C217.992 16.8067 218.205 15.96 218.205 15C218.205 14.04 217.992 13.2 217.565 12.48C217.152 11.7467 216.552 11.1867 215.765 10.8C214.992 10.4 214.092 10.2 213.065 10.2H209.665V19.8H213.065ZM233.709 20.66C233.082 21.1533 232.275 21.5333 231.289 21.8C230.302 22.0667 229.235 22.2 228.089 22.2C226.742 22.2 225.595 22.0267 224.649 21.68C223.715 21.3333 223.009 20.8533 222.529 20.24C222.049 19.6267 221.809 18.92 221.809 18.12C221.809 17.3467 222.022 16.6733 222.449 16.1C222.875 15.5267 223.449 15.1067 224.169 14.84C223.622 14.5467 223.189 14.14 222.869 13.62C222.562 13.0867 222.409 12.4933 222.409 11.84C222.409 11.0933 222.629 10.42 223.069 9.82C223.522 9.20667 224.195 8.72 225.089 8.36C225.982 7.98667 227.082 7.8 228.389 7.8C229.269 7.8 230.129 7.89333 230.969 8.08C231.809 8.26667 232.542 8.52 233.169 8.84L232.429 10.9C231.255 10.2867 229.942 9.98 228.489 9.98C227.342 9.98 226.475 10.1667 225.889 10.54C225.315 10.9 225.029 11.3867 225.029 12C225.029 12.6 225.242 13.06 225.669 13.38C226.095 13.6867 226.722 13.84 227.549 13.84H231.249V16H227.409C226.462 16 225.729 16.1667 225.209 16.5C224.689 16.82 224.429 17.3 224.429 17.94C224.429 18.58 224.742 19.0867 225.369 19.46C225.995 19.8333 226.942 20.02 228.209 20.02C229.089 20.02 229.942 19.9 230.769 19.66C231.609 19.42 232.309 19.0867 232.869 18.66L233.709 20.66ZM250.741 20.66C250.115 21.1533 249.308 21.5333 248.321 21.8C247.335 22.0667 246.268 22.2 245.121 22.2C243.775 22.2 242.628 22.0267 241.681 21.68C240.748 21.3333 240.041 20.8533 239.561 20.24C239.081 19.6267 238.841 18.92 238.841 18.12C238.841 17.3467 239.055 16.6733 239.481 16.1C239.908 15.5267 240.481 15.1067 241.201 14.84C240.655 14.5467 240.221 14.14 239.901 13.62C239.595 13.0867 239.441 12.4933 239.441 11.84C239.441 11.0933 239.661 10.42 240.101 9.82C240.555 9.20667 241.228 8.72 242.121 8.36C243.015 7.98667 244.115 7.8 245.421 7.8C246.301 7.8 247.161 7.89333 248.001 8.08C248.841 8.26667 249.575 8.52 250.201 8.84L249.461 10.9C248.288 10.2867 246.975 9.98 245.521 9.98C244.375 9.98 243.508 10.1667 242.921 10.54C242.348 10.9 242.061 11.3867 242.061 12C242.061 12.6 242.275 13.06 242.701 13.38C243.128 13.6867 243.755 13.84 244.581 13.84H248.281V16H244.441C243.495 16 242.761 16.1667 242.241 16.5C241.721 16.82 241.461 17.3 241.461 17.94C241.461 18.58 241.775 19.0867 242.401 19.46C243.028 19.8333 243.975 20.02 245.241 20.02C246.121 20.02 246.975 19.9 247.801 19.66C248.641 19.42 249.341 19.0867 249.901 18.66L250.741 20.66ZM259.087 7.8C260.767 7.8 262.074 8.31333 263.007 9.34C263.954 10.3667 264.427 11.8333 264.427 13.74V22H261.827V13.84C261.827 12.6 261.527 11.6667 260.927 11.04C260.34 10.4 259.52 10.08 258.467 10.08C257.32 10.08 256.407 10.42 255.727 11.1C255.06 11.7667 254.727 12.7667 254.727 14.1V22H252.127V8H254.647V9.76C255.62 8.45333 257.1 7.8 259.087 7.8ZM271.604 22.2C270.524 22.2 269.478 22.0467 268.464 21.74C267.464 21.4333 266.671 21.0267 266.084 20.52L266.984 18.5C267.558 18.9533 268.258 19.3267 269.084 19.62C269.924 19.9 270.764 20.04 271.604 20.04C272.644 20.04 273.418 19.8733 273.924 19.54C274.444 19.2067 274.704 18.7667 274.704 18.22C274.704 17.82 274.558 17.4933 274.264 17.24C273.984 16.9733 273.624 16.7667 273.184 16.62C272.744 16.4733 272.144 16.3067 271.384 16.12C270.318 15.8667 269.451 15.6133 268.784 15.36C268.131 15.1067 267.564 14.7133 267.084 14.18C266.618 13.6333 266.384 12.9 266.384 11.98C266.384 11.2067 266.591 10.5067 267.004 9.88C267.431 9.24 268.064 8.73333 268.904 8.36C269.758 7.98667 270.798 7.8 272.024 7.8C272.878 7.8 273.718 7.90667 274.544 8.12C275.371 8.33333 276.084 8.64 276.684 9.04L275.864 11.06C275.251 10.7 274.611 10.4267 273.944 10.24C273.278 10.0533 272.631 9.96 272.004 9.96C270.978 9.96 270.211 10.1333 269.704 10.48C269.211 10.8267 268.964 11.2867 268.964 11.86C268.964 12.26 269.104 12.5867 269.384 12.84C269.678 13.0933 270.044 13.2933 270.484 13.44C270.924 13.5867 271.524 13.7533 272.284 13.94C273.324 14.18 274.178 14.4333 274.844 14.7C275.511 14.9533 276.078 15.3467 276.544 15.88C277.024 16.4133 277.264 17.1333 277.264 18.04C277.264 18.8133 277.051 19.5133 276.624 20.14C276.211 20.7667 275.578 21.2667 274.724 21.64C273.871 22.0133 272.831 22.2 271.604 22.2ZM283.143 10.18V19.82H285.723V22H277.983V19.82H280.563V10.18H277.983V8H285.723V10.18H283.143ZM294.578 7.8C296.258 7.8 297.564 8.31333 298.498 9.34C299.444 10.3667 299.918 11.8333 299.918 13.74V22H297.318V13.84C297.318 12.6 297.018 11.6667 296.418 11.04C295.831 10.4 295.011 10.08 293.958 10.08C292.811 10.08 291.898 10.42 291.218 11.1C290.551 11.7667 290.218 12.7667 290.218 14.1V22H287.618V8H290.138V9.76C291.111 8.45333 292.591 7.8 294.578 7.8ZM309.295 22.2C307.868 22.2 306.582 21.8933 305.435 21.28C304.288 20.6533 303.388 19.7933 302.735 18.7C302.082 17.5933 301.755 16.36 301.755 15C301.755 13.64 302.082 12.4133 302.735 11.32C303.388 10.2133 304.288 9.35333 305.435 8.74C306.582 8.11333 307.868 7.8 309.295 7.8C310.722 7.8 312.008 8.11333 313.155 8.74C314.302 9.35333 315.202 10.2067 315.855 11.3C316.508 12.3933 316.835 13.6267 316.835 15C316.835 16.3733 316.508 17.6067 315.855 18.7C315.202 19.7933 314.302 20.6533 313.155 21.28C312.008 21.8933 310.722 22.2 309.295 22.2ZM309.295 19.92C310.228 19.92 311.068 19.7133 311.815 19.3C312.562 18.8733 313.148 18.2867 313.575 17.54C314.002 16.78 314.215 15.9333 314.215 15C314.215 14.0667 314.002 13.2267 313.575 12.48C313.148 11.72 312.562 11.1333 311.815 10.72C311.068 10.2933 310.228 10.08 309.295 10.08C308.362 10.08 307.522 10.2933 306.775 10.72C306.028 11.1333 305.442 11.72 305.015 12.48C304.588 13.2267 304.375 14.0667 304.375 15C304.375 15.9333 304.588 16.78 305.015 17.54C305.442 18.2867 306.028 18.8733 306.775 19.3C307.522 19.7133 308.362 19.92 309.295 19.92Z" fill="white"/>
<path d="M73 37.08C71.8 37.08 70.8933 37.3467 70.28 37.88C69.6667 38.4133 69.36 39.2 69.36 40.24V41.44H75.46V43.64H69.36V49H66.76V40.24C66.76 38.5467 67.3 37.22 68.38 36.26C69.4733 35.2867 70.9733 34.8 72.88 34.8C73.68 34.8 74.4267 34.8867 75.12 35.06C75.8133 35.2333 76.42 35.4867 76.94 35.82L76.12 37.94C75.2933 37.3667 74.2533 37.08 73 37.08ZM90.387 35V49H87.887V47.22C86.9404 48.54 85.4737 49.2 83.487 49.2C81.8337 49.2 80.5337 48.6867 79.587 47.66C78.6404 46.62 78.167 45.1533 78.167 43.26V35H80.767V43.16C80.767 44.4 81.0604 45.34 81.647 45.98C82.247 46.6067 83.067 46.92 84.107 46.92C85.227 46.92 86.1204 46.5867 86.787 45.92C87.4537 45.24 87.787 44.2333 87.787 42.9V35H90.387ZM100.306 34.8C101.986 34.8 103.293 35.3133 104.226 36.34C105.173 37.3667 105.646 38.8333 105.646 40.74V49H103.046V40.84C103.046 39.6 102.746 38.6667 102.146 38.04C101.56 37.4 100.74 37.08 99.6864 37.08C98.5397 37.08 97.6264 37.42 96.9464 38.1C96.2797 38.7667 95.9464 39.7667 95.9464 41.1V49H93.3464V35H95.8664V36.76C96.8397 35.4533 98.3197 34.8 100.306 34.8ZM108.484 35H114.604C116.097 35 117.424 35.2933 118.584 35.88C119.744 36.4533 120.644 37.2733 121.284 38.34C121.924 39.3933 122.244 40.6133 122.244 42C122.244 43.3867 121.924 44.6133 121.284 45.68C120.644 46.7333 119.744 47.5533 118.584 48.14C117.424 48.7133 116.097 49 114.604 49H108.484V35ZM114.484 46.8C115.511 46.8 116.411 46.6067 117.184 46.22C117.971 45.82 118.571 45.26 118.984 44.54C119.411 43.8067 119.624 42.96 119.624 42C119.624 41.04 119.411 40.2 118.984 39.48C118.571 38.7467 117.971 38.1867 117.184 37.8C116.411 37.4 115.511 37.2 114.484 37.2H111.084V46.8H114.484ZM130.307 34.8C131.561 34.8 132.654 35.0467 133.587 35.54C134.521 36.0333 135.241 36.7667 135.747 37.74C136.267 38.7 136.527 39.8667 136.527 41.24V49H133.927V45.4H126.647V49H124.087V41.24C124.087 39.8667 124.341 38.7 124.847 37.74C125.367 36.7667 126.094 36.0333 127.027 35.54C127.961 35.0467 129.054 34.8 130.307 34.8ZM133.927 43.22V41C133.927 39.7067 133.607 38.7333 132.967 38.08C132.327 37.4133 131.434 37.08 130.287 37.08C129.141 37.08 128.247 37.4133 127.607 38.08C126.967 38.7333 126.647 39.7067 126.647 41V43.22H133.927ZM155.004 34.8C156.644 34.8 157.924 35.28 158.844 36.24C159.764 37.1867 160.224 38.5533 160.224 40.34V49H157.624V40.44C157.624 39.3333 157.331 38.5 156.744 37.94C156.171 37.3667 155.418 37.08 154.484 37.08C153.444 37.08 152.611 37.3733 151.984 37.96C151.371 38.5467 151.064 39.4467 151.064 40.66V49H148.464V40.44C148.464 39.32 148.191 38.48 147.644 37.92C147.111 37.36 146.378 37.08 145.444 37.08C144.391 37.08 143.544 37.38 142.904 37.98C142.278 38.5667 141.964 39.46 141.964 40.66V49H139.364V35H141.884V36.84C142.311 36.1867 142.891 35.6867 143.624 35.34C144.358 34.98 145.204 34.8 146.164 34.8C147.151 34.8 148.011 34.9867 148.744 35.36C149.478 35.7333 150.031 36.26 150.404 36.94C150.871 36.26 151.504 35.7333 152.304 35.36C153.118 34.9867 154.018 34.8 155.004 34.8ZM173.977 47.66C173.35 48.1533 172.543 48.5333 171.557 48.8C170.57 49.0667 169.503 49.2 168.357 49.2C167.01 49.2 165.863 49.0267 164.917 48.68C163.983 48.3333 163.277 47.8533 162.797 47.24C162.317 46.6267 162.077 45.92 162.077 45.12C162.077 44.3467 162.29 43.6733 162.717 43.1C163.143 42.5267 163.717 42.1067 164.437 41.84C163.89 41.5467 163.457 41.14 163.137 40.62C162.83 40.0867 162.677 39.4933 162.677 38.84C162.677 38.0933 162.897 37.42 163.337 36.82C163.79 36.2067 164.463 35.72 165.357 35.36C166.25 34.9867 167.35 34.8 168.657 34.8C169.537 34.8 170.397 34.8933 171.237 35.08C172.077 35.2667 172.81 35.52 173.437 35.84L172.697 37.9C171.523 37.2867 170.21 36.98 168.757 36.98C167.61 36.98 166.743 37.1667 166.157 37.54C165.583 37.9 165.297 38.3867 165.297 39C165.297 39.6 165.51 40.06 165.937 40.38C166.363 40.6867 166.99 40.84 167.817 40.84H171.517V43H167.677C166.73 43 165.997 43.1667 165.477 43.5C164.957 43.82 164.697 44.3 164.697 44.94C164.697 45.58 165.01 46.0867 165.637 46.46C166.263 46.8333 167.21 47.02 168.477 47.02C169.357 47.02 170.21 46.9 171.037 46.66C171.877 46.42 172.577 46.0867 173.137 45.66L173.977 47.66ZM184.984 38.48C183.664 37.7333 182.291 37.28 180.864 37.12V49H178.264V37.12C176.824 37.28 175.444 37.7333 174.124 38.48L173.224 36.48C174.158 35.92 175.158 35.5 176.224 35.22C177.304 34.94 178.411 34.8 179.544 34.8C180.678 34.8 181.784 34.94 182.864 35.22C183.944 35.5 184.951 35.92 185.884 36.48L184.984 38.48ZM192.713 34.8C193.966 34.8 195.059 35.0467 195.993 35.54C196.926 36.0333 197.646 36.7667 198.153 37.74C198.673 38.7 198.933 39.8667 198.933 41.24V49H196.333V45.4H189.053V49H186.493V41.24C186.493 39.8667 186.746 38.7 187.253 37.74C187.773 36.7667 188.499 36.0333 189.433 35.54C190.366 35.0467 191.459 34.8 192.713 34.8ZM196.333 43.22V41C196.333 39.7067 196.013 38.7333 195.373 38.08C194.733 37.4133 193.839 37.08 192.693 37.08C191.546 37.08 190.653 37.4133 190.013 38.08C189.373 38.7333 189.053 39.7067 189.053 41V43.22H196.333ZM201.77 35H204.37V46.8H211.69V49H201.77V35ZM228.59 47.66C227.963 48.1533 227.157 48.5333 226.17 48.8C225.183 49.0667 224.117 49.2 222.97 49.2C221.623 49.2 220.477 49.0267 219.53 48.68C218.597 48.3333 217.89 47.8533 217.41 47.24C216.93 46.6267 216.69 45.92 216.69 45.12C216.69 44.3467 216.903 43.6733 217.33 43.1C217.757 42.5267 218.33 42.1067 219.05 41.84C218.503 41.5467 218.07 41.14 217.75 40.62C217.443 40.0867 217.29 39.4933 217.29 38.84C217.29 38.0933 217.51 37.42 217.95 36.82C218.403 36.2067 219.077 35.72 219.97 35.36C220.863 34.9867 221.963 34.8 223.27 34.8C224.15 34.8 225.01 34.8933 225.85 35.08C226.69 35.2667 227.423 35.52 228.05 35.84L227.31 37.9C226.137 37.2867 224.823 36.98 223.37 36.98C222.223 36.98 221.357 37.1667 220.77 37.54C220.197 37.9 219.91 38.3867 219.91 39C219.91 39.6 220.123 40.06 220.55 40.38C220.977 40.6867 221.603 40.84 222.43 40.84H226.13V43H222.29C221.343 43 220.61 43.1667 220.09 43.5C219.57 43.82 219.31 44.3 219.31 44.94C219.31 45.58 219.623 46.0867 220.25 46.46C220.877 46.8333 221.823 47.02 223.09 47.02C223.97 47.02 224.823 46.9 225.65 46.66C226.49 46.42 227.19 46.0867 227.75 45.66L228.59 47.66ZM250.343 34.8C251.983 34.8 253.263 35.28 254.183 36.24C255.103 37.1867 255.563 38.5533 255.563 40.34V49H252.963V40.44C252.963 39.3333 252.669 38.5 252.083 37.94C251.509 37.3667 250.756 37.08 249.823 37.08C248.783 37.08 247.949 37.3733 247.323 37.96C246.709 38.5467 246.403 39.4467 246.403 40.66V49H243.803V40.44C243.803 39.32 243.529 38.48 242.983 37.92C242.449 37.36 241.716 37.08 240.783 37.08C239.729 37.08 238.883 37.38 238.243 37.98C237.616 38.5667 237.303 39.46 237.303 40.66V49H234.703V35H237.223V36.84C237.649 36.1867 238.229 35.6867 238.963 35.34C239.696 34.98 240.543 34.8 241.503 34.8C242.489 34.8 243.349 34.9867 244.083 35.36C244.816 35.7333 245.369 36.26 245.743 36.94C246.209 36.26 246.843 35.7333 247.643 35.36C248.456 34.9867 249.356 34.8 250.343 34.8ZM269.315 47.66C268.688 48.1533 267.882 48.5333 266.895 48.8C265.908 49.0667 264.842 49.2 263.695 49.2C262.348 49.2 261.202 49.0267 260.255 48.68C259.322 48.3333 258.615 47.8533 258.135 47.24C257.655 46.6267 257.415 45.92 257.415 45.12C257.415 44.3467 257.628 43.6733 258.055 43.1C258.482 42.5267 259.055 42.1067 259.775 41.84C259.228 41.5467 258.795 41.14 258.475 40.62C258.168 40.0867 258.015 39.4933 258.015 38.84C258.015 38.0933 258.235 37.42 258.675 36.82C259.128 36.2067 259.802 35.72 260.695 35.36C261.588 34.9867 262.688 34.8 263.995 34.8C264.875 34.8 265.735 34.8933 266.575 35.08C267.415 35.2667 268.148 35.52 268.775 35.84L268.035 37.9C266.862 37.2867 265.548 36.98 264.095 36.98C262.948 36.98 262.082 37.1667 261.495 37.54C260.922 37.9 260.635 38.3867 260.635 39C260.635 39.6 260.848 40.06 261.275 40.38C261.702 40.6867 262.328 40.84 263.155 40.84H266.855V43H263.015C262.068 43 261.335 43.1667 260.815 43.5C260.295 43.82 260.035 44.3 260.035 44.94C260.035 45.58 260.348 46.0867 260.975 46.46C261.602 46.8333 262.548 47.02 263.815 47.02C264.695 47.02 265.548 46.9 266.375 46.66C267.215 46.42 267.915 46.0867 268.475 45.66L269.315 47.66ZM264.655 31.12H267.595L264.115 33.86H261.955L264.655 31.12ZM270.7 35H276.82C278.314 35 279.64 35.2933 280.8 35.88C281.96 36.4533 282.86 37.2733 283.5 38.34C284.14 39.3933 284.46 40.6133 284.46 42C284.46 43.3867 284.14 44.6133 283.5 45.68C282.86 46.7333 281.96 47.5533 280.8 48.14C279.64 48.7133 278.314 49 276.82 49H270.7V35ZM276.7 46.8C277.727 46.8 278.627 46.6067 279.4 46.22C280.187 45.82 280.787 45.26 281.2 44.54C281.627 43.8067 281.84 42.96 281.84 42C281.84 41.04 281.627 40.2 281.2 39.48C280.787 38.7467 280.187 38.1867 279.4 37.8C278.627 37.4 277.727 37.2 276.7 37.2H273.3V46.8H276.7ZM290.426 37.18V46.82H293.006V49H285.266V46.82H287.846V37.18H285.266V35H293.006V37.18H290.426ZM301.343 49.2C299.917 49.2 298.63 48.8933 297.483 48.28C296.337 47.6533 295.437 46.7933 294.783 45.7C294.13 44.5933 293.803 43.36 293.803 42C293.803 40.64 294.13 39.4133 294.783 38.32C295.437 37.2133 296.337 36.3533 297.483 35.74C298.63 35.1133 299.917 34.8 301.343 34.8C302.77 34.8 304.057 35.1133 305.203 35.74C306.35 36.3533 307.25 37.2067 307.903 38.3C308.557 39.3933 308.883 40.6267 308.883 42C308.883 43.3733 308.557 44.6067 307.903 45.7C307.25 46.7933 306.35 47.6533 305.203 48.28C304.057 48.8933 302.77 49.2 301.343 49.2ZM301.343 46.92C302.277 46.92 303.117 46.7133 303.863 46.3C304.61 45.8733 305.197 45.2867 305.623 44.54C306.05 43.78 306.263 42.9333 306.263 42C306.263 41.0667 306.05 40.2267 305.623 39.48C305.197 38.72 304.61 38.1333 303.863 37.72C303.117 37.2933 302.277 37.08 301.343 37.08C300.41 37.08 299.57 37.2933 298.823 37.72C298.077 38.1333 297.49 38.72 297.063 39.48C296.637 40.2267 296.423 41.0667 296.423 42C296.423 42.9333 296.637 43.78 297.063 44.54C297.49 45.2867 298.077 45.8733 298.823 46.3C299.57 46.7133 300.41 46.92 301.343 46.92ZM321.327 35C322.54 35 323.593 35.2 324.487 35.6C325.393 36 326.087 36.5733 326.567 37.32C327.047 38.0667 327.287 38.9533 327.287 39.98C327.287 40.9933 327.047 41.88 326.567 42.64C326.087 43.3867 325.393 43.96 324.487 44.36C323.593 44.76 322.54 44.96 321.327 44.96H318.167V49H315.567V35H321.327ZM321.207 42.76C322.34 42.76 323.2 42.52 323.787 42.04C324.373 41.56 324.667 40.8733 324.667 39.98C324.667 39.0867 324.373 38.4 323.787 37.92C323.2 37.44 322.34 37.2 321.207 37.2H318.167V42.76H321.207ZM334.929 34.8C336.183 34.8 337.276 35.0467 338.209 35.54C339.143 36.0333 339.863 36.7667 340.369 37.74C340.889 38.7 341.149 39.8667 341.149 41.24V49H338.549V45.4H331.269V49H328.709V41.24C328.709 39.8667 328.963 38.7 329.469 37.74C329.989 36.7667 330.716 36.0333 331.649 35.54C332.583 35.0467 333.676 34.8 334.929 34.8ZM338.549 43.22V41C338.549 39.7067 338.229 38.7333 337.589 38.08C336.949 37.4133 336.056 37.08 334.909 37.08C333.763 37.08 332.869 37.4133 332.229 38.08C331.589 38.7333 331.269 39.7067 331.269 41V43.22H338.549ZM353.146 49L350.286 44.9C350.166 44.9133 349.986 44.92 349.746 44.92H346.586V49H343.986V35H349.746C350.96 35 352.013 35.2 352.906 35.6C353.813 36 354.506 36.5733 354.986 37.32C355.466 38.0667 355.706 38.9533 355.706 39.98C355.706 41.0333 355.446 41.94 354.926 42.7C354.42 43.46 353.686 44.0267 352.726 44.4L355.946 49H353.146ZM353.086 39.98C353.086 39.0867 352.793 38.4 352.206 37.92C351.62 37.44 350.76 37.2 349.626 37.2H346.586V42.78H349.626C350.76 42.78 351.62 42.54 352.206 42.06C352.793 41.5667 353.086 40.8733 353.086 39.98ZM367.535 38.48C366.215 37.7333 364.842 37.28 363.415 37.12V49H360.815V37.12C359.375 37.28 357.995 37.7333 356.675 38.48L355.775 36.48C356.708 35.92 357.708 35.5 358.775 35.22C359.855 34.94 360.962 34.8 362.095 34.8C363.228 34.8 364.335 34.94 365.415 35.22C366.495 35.5 367.502 35.92 368.435 36.48L367.535 38.48ZM373.459 37.18V46.82H376.039V49H368.299V46.82H370.879V37.18H368.299V35H376.039V37.18H373.459ZM384.316 49.2C382.903 49.2 381.623 48.8933 380.476 48.28C379.343 47.6533 378.45 46.7933 377.796 45.7C377.156 44.6067 376.836 43.3733 376.836 42C376.836 40.6267 377.163 39.3933 377.816 38.3C378.47 37.2067 379.363 36.3533 380.496 35.74C381.643 35.1133 382.923 34.8 384.336 34.8C385.483 34.8 386.53 35 387.476 35.4C388.423 35.8 389.223 36.38 389.876 37.14L388.196 38.72C387.183 37.6267 385.936 37.08 384.456 37.08C383.496 37.08 382.636 37.2933 381.876 37.72C381.116 38.1333 380.523 38.7133 380.096 39.46C379.67 40.2067 379.456 41.0533 379.456 42C379.456 42.9467 379.67 43.7933 380.096 44.54C380.523 45.2867 381.116 45.8733 381.876 46.3C382.636 46.7133 383.496 46.92 384.456 46.92C385.936 46.92 387.183 46.3667 388.196 45.26L389.876 46.86C389.223 47.62 388.416 48.2 387.456 48.6C386.51 49 385.463 49.2 384.316 49.2ZM403.57 35V49H401.07V47.22C400.123 48.54 398.657 49.2 396.67 49.2C395.017 49.2 393.717 48.6867 392.77 47.66C391.823 46.62 391.35 45.1533 391.35 43.26V35H393.95V43.16C393.95 44.4 394.243 45.34 394.83 45.98C395.43 46.6067 396.25 46.92 397.29 46.92C398.41 46.92 399.303 46.5867 399.97 45.92C400.637 45.24 400.97 44.2333 400.97 42.9V35H403.57ZM406.529 35H409.129V46.8H416.449V49H406.529V35ZM423.802 34.8C425.055 34.8 426.149 35.0467 427.082 35.54C428.015 36.0333 428.735 36.7667 429.242 37.74C429.762 38.7 430.022 39.8667 430.022 41.24V49H427.422V45.4H420.142V49H417.582V41.24C417.582 39.8667 417.835 38.7 418.342 37.74C418.862 36.7667 419.589 36.0333 420.522 35.54C421.455 35.0467 422.549 34.8 423.802 34.8ZM427.422 43.22V41C427.422 39.7067 427.102 38.7333 426.462 38.08C425.822 37.4133 424.929 37.08 423.782 37.08C422.635 37.08 421.742 37.4133 421.102 38.08C420.462 38.7333 420.142 39.7067 420.142 41V43.22H427.422ZM442.019 49L439.159 44.9C439.039 44.9133 438.859 44.92 438.619 44.92H435.459V49H432.859V35H438.619C439.832 35 440.886 35.2 441.779 35.6C442.686 36 443.379 36.5733 443.859 37.32C444.339 38.0667 444.579 38.9533 444.579 39.98C444.579 41.0333 444.319 41.94 443.799 42.7C443.292 43.46 442.559 44.0267 441.599 44.4L444.819 49H442.019ZM441.959 39.98C441.959 39.0867 441.666 38.4 441.079 37.92C440.492 37.44 439.632 37.2 438.499 37.2H435.459V42.78H438.499C439.632 42.78 440.492 42.54 441.079 42.06C441.666 41.5667 441.959 40.8733 441.959 39.98Z" fill="white"/>
<path d="M70.98 64.18V73.82H73.56V76H65.82V73.82H68.4V64.18H65.82V62H73.56V64.18H70.98ZM82.415 61.8C84.095 61.8 85.4017 62.3133 86.335 63.34C87.2817 64.3667 87.755 65.8333 87.755 67.74V76H85.155V67.84C85.155 66.6 84.855 65.6667 84.255 65.04C83.6683 64.4 82.8483 64.08 81.795 64.08C80.6483 64.08 79.735 64.42 79.055 65.1C78.3883 65.7667 78.055 66.7667 78.055 68.1V76H75.455V62H77.975V63.76C78.9483 62.4533 80.4283 61.8 82.415 61.8ZM94.9325 76.2C93.8525 76.2 92.8058 76.0467 91.7925 75.74C90.7925 75.4333 89.9992 75.0267 89.4125 74.52L90.3125 72.5C90.8858 72.9533 91.5858 73.3267 92.4125 73.62C93.2525 73.9 94.0925 74.04 94.9325 74.04C95.9725 74.04 96.7458 73.8733 97.2525 73.54C97.7725 73.2067 98.0325 72.7667 98.0325 72.22C98.0325 71.82 97.8858 71.4933 97.5925 71.24C97.3125 70.9733 96.9525 70.7667 96.5125 70.62C96.0725 70.4733 95.4725 70.3067 94.7125 70.12C93.6458 69.8667 92.7792 69.6133 92.1125 69.36C91.4592 69.1067 90.8925 68.7133 90.4125 68.18C89.9458 67.6333 89.7125 66.9 89.7125 65.98C89.7125 65.2067 89.9192 64.5067 90.3325 63.88C90.7592 63.24 91.3925 62.7333 92.2325 62.36C93.0858 61.9867 94.1258 61.8 95.3525 61.8C96.2058 61.8 97.0458 61.9067 97.8725 62.12C98.6992 62.3333 99.4125 62.64 100.012 63.04L99.1925 65.06C98.5792 64.7 97.9392 64.4267 97.2725 64.24C96.6058 64.0533 95.9592 63.96 95.3325 63.96C94.3058 63.96 93.5392 64.1333 93.0325 64.48C92.5392 64.8267 92.2925 65.2867 92.2925 65.86C92.2925 66.26 92.4325 66.5867 92.7125 66.84C93.0058 67.0933 93.3725 67.2933 93.8125 67.44C94.2525 67.5867 94.8525 67.7533 95.6125 67.94C96.6525 68.18 97.5058 68.4333 98.1725 68.7C98.8392 68.9533 99.4058 69.3467 99.8725 69.88C100.353 70.4133 100.593 71.1333 100.593 72.04C100.593 72.8133 100.379 73.5133 99.9525 74.14C99.5392 74.7667 98.9058 75.2667 98.0525 75.64C97.1992 76.0133 96.1592 76.2 94.9325 76.2ZM111.934 65.48C110.614 64.7333 109.241 64.28 107.814 64.12V76H105.214V64.12C103.774 64.28 102.394 64.7333 101.074 65.48L100.174 63.48C101.108 62.92 102.108 62.5 103.174 62.22C104.254 61.94 105.361 61.8 106.494 61.8C107.628 61.8 108.734 61.94 109.814 62.22C110.894 62.5 111.901 62.92 112.834 63.48L111.934 65.48ZM117.858 64.18V73.82H120.438V76H112.698V73.82H115.278V64.18H112.698V62H120.438V64.18H117.858ZM132.053 65.48C130.733 64.7333 129.36 64.28 127.933 64.12V76H125.333V64.12C123.893 64.28 122.513 64.7333 121.193 65.48L120.293 63.48C121.226 62.92 122.226 62.5 123.293 62.22C124.373 61.94 125.48 61.8 126.613 61.8C127.746 61.8 128.853 61.94 129.933 62.22C131.013 62.5 132.02 62.92 132.953 63.48L132.053 65.48ZM145.977 62V76H143.477V74.22C142.53 75.54 141.064 76.2 139.077 76.2C137.424 76.2 136.124 75.6867 135.177 74.66C134.23 73.62 133.757 72.1533 133.757 70.26V62H136.357V70.16C136.357 71.4 136.65 72.34 137.237 72.98C137.837 73.6067 138.657 73.92 139.697 73.92C140.817 73.92 141.71 73.5867 142.377 72.92C143.044 72.24 143.377 71.2333 143.377 69.9V62H145.977ZM153.036 64.18V73.82H155.616V76H147.876V73.82H150.456V64.18H147.876V62H155.616V64.18H153.036ZM163.894 76.2C162.48 76.2 161.2 75.8933 160.054 75.28C158.92 74.6533 158.027 73.7933 157.374 72.7C156.734 71.6067 156.414 70.3733 156.414 69C156.414 67.6267 156.74 66.3933 157.394 65.3C158.047 64.2067 158.94 63.3533 160.074 62.74C161.22 62.1133 162.5 61.8 163.914 61.8C165.06 61.8 166.107 62 167.054 62.4C168 62.8 168.8 63.38 169.454 64.14L167.774 65.72C166.76 64.6267 165.514 64.08 164.034 64.08C163.074 64.08 162.214 64.2933 161.454 64.72C160.694 65.1333 160.1 65.7133 159.674 66.46C159.247 67.2067 159.034 68.0533 159.034 69C159.034 69.9467 159.247 70.7933 159.674 71.54C160.1 72.2867 160.694 72.8733 161.454 73.3C162.214 73.7133 163.074 73.92 164.034 73.92C165.514 73.92 166.76 73.3667 167.774 72.26L169.454 73.86C168.8 74.62 167.994 75.2 167.034 75.6C166.087 76 165.04 76.2 163.894 76.2ZM162.954 80.56C162.234 80.56 161.62 80.42 161.114 80.14L161.574 78.96C161.987 79.1733 162.44 79.28 162.934 79.28C163.64 79.28 163.994 79.04 163.994 78.56C163.994 78.36 163.907 78.2 163.734 78.08C163.56 77.96 163.294 77.9 162.934 77.9H162.314L162.854 75.86H164.214L163.934 76.98C164.507 77.0467 164.94 77.2267 165.234 77.52C165.527 77.8267 165.674 78.2067 165.674 78.66C165.674 79.2333 165.427 79.6933 164.934 80.04C164.44 80.3867 163.78 80.56 162.954 80.56ZM177.245 61.8C178.498 61.8 179.592 62.0467 180.525 62.54C181.458 63.0333 182.178 63.7667 182.685 64.74C183.205 65.7 183.465 66.8667 183.465 68.24V76H180.865V72.4H173.585V76H171.025V68.24C171.025 66.8667 171.278 65.7 171.785 64.74C172.305 63.7667 173.032 63.0333 173.965 62.54C174.898 62.0467 175.992 61.8 177.245 61.8ZM180.865 70.22V68C180.865 66.7067 180.545 65.7333 179.905 65.08C179.265 64.4133 178.372 64.08 177.225 64.08C176.078 64.08 175.185 64.4133 174.545 65.08C173.905 65.7333 173.585 66.7067 173.585 68V70.22H180.865ZM178.685 60.86C178.352 60.86 178.058 60.7933 177.805 60.66C177.565 60.5267 177.265 60.3267 176.905 60.06C176.692 59.8867 176.512 59.76 176.365 59.68C176.232 59.5867 176.098 59.54 175.965 59.54C175.685 59.54 175.452 59.6467 175.265 59.86C175.092 60.0733 174.998 60.3667 174.985 60.74H173.645C173.658 59.9267 173.858 59.28 174.245 58.8C174.645 58.3067 175.165 58.06 175.805 58.06C176.138 58.06 176.425 58.1267 176.665 58.26C176.918 58.3933 177.225 58.5933 177.585 58.86C177.798 59.0333 177.972 59.1667 178.105 59.26C178.252 59.34 178.392 59.38 178.525 59.38C178.805 59.38 179.032 59.28 179.205 59.08C179.392 58.88 179.492 58.6 179.505 58.24H180.845C180.818 59.0267 180.612 59.66 180.225 60.14C179.838 60.62 179.325 60.86 178.685 60.86ZM192.842 76.2C191.415 76.2 190.129 75.8933 188.982 75.28C187.835 74.6533 186.935 73.7933 186.282 72.7C185.629 71.5933 185.302 70.36 185.302 69C185.302 67.64 185.629 66.4133 186.282 65.32C186.935 64.2133 187.835 63.3533 188.982 62.74C190.129 62.1133 191.415 61.8 192.842 61.8C194.269 61.8 195.555 62.1133 196.702 62.74C197.849 63.3533 198.749 64.2067 199.402 65.3C200.055 66.3933 200.382 67.6267 200.382 69C200.382 70.3733 200.055 71.6067 199.402 72.7C198.749 73.7933 197.849 74.6533 196.702 75.28C195.555 75.8933 194.269 76.2 192.842 76.2ZM192.842 73.92C193.775 73.92 194.615 73.7133 195.362 73.3C196.109 72.8733 196.695 72.2867 197.122 71.54C197.549 70.78 197.762 69.9333 197.762 69C197.762 68.0667 197.549 67.2267 197.122 66.48C196.695 65.72 196.109 65.1333 195.362 64.72C194.615 64.2933 193.775 64.08 192.842 64.08C191.909 64.08 191.069 64.2933 190.322 64.72C189.575 65.1333 188.989 65.72 188.562 66.48C188.135 67.2267 187.922 68.0667 187.922 69C187.922 69.9333 188.135 70.78 188.562 71.54C188.989 72.2867 189.575 72.8733 190.322 73.3C191.069 73.7133 191.909 73.92 192.842 73.92ZM207.065 62H213.185C214.678 62 216.005 62.2933 217.165 62.88C218.325 63.4533 219.225 64.2733 219.865 65.34C220.505 66.3933 220.825 67.6133 220.825 69C220.825 70.3867 220.505 71.6133 219.865 72.68C219.225 73.7333 218.325 74.5533 217.165 75.14C216.005 75.7133 214.678 76 213.185 76H207.065V62ZM213.065 73.8C214.092 73.8 214.992 73.6067 215.765 73.22C216.552 72.82 217.152 72.26 217.565 71.54C217.992 70.8067 218.205 69.96 218.205 69C218.205 68.04 217.992 67.2 217.565 66.48C217.152 65.7467 216.552 65.1867 215.765 64.8C214.992 64.4 214.092 64.2 213.065 64.2H209.665V73.8H213.065ZM233.709 74.66C233.082 75.1533 232.275 75.5333 231.289 75.8C230.302 76.0667 229.235 76.2 228.089 76.2C226.742 76.2 225.595 76.0267 224.649 75.68C223.715 75.3333 223.009 74.8533 222.529 74.24C222.049 73.6267 221.809 72.92 221.809 72.12C221.809 71.3467 222.022 70.6733 222.449 70.1C222.875 69.5267 223.449 69.1067 224.169 68.84C223.622 68.5467 223.189 68.14 222.869 67.62C222.562 67.0867 222.409 66.4933 222.409 65.84C222.409 65.0933 222.629 64.42 223.069 63.82C223.522 63.2067 224.195 62.72 225.089 62.36C225.982 61.9867 227.082 61.8 228.389 61.8C229.269 61.8 230.129 61.8933 230.969 62.08C231.809 62.2667 232.542 62.52 233.169 62.84L232.429 64.9C231.255 64.2867 229.942 63.98 228.489 63.98C227.342 63.98 226.475 64.1667 225.889 64.54C225.315 64.9 225.029 65.3867 225.029 66C225.029 66.6 225.242 67.06 225.669 67.38C226.095 67.6867 226.722 67.84 227.549 67.84H231.249V70H227.409C226.462 70 225.729 70.1667 225.209 70.5C224.689 70.82 224.429 71.3 224.429 71.94C224.429 72.58 224.742 73.0867 225.369 73.46C225.995 73.8333 226.942 74.02 228.209 74.02C229.089 74.02 229.942 73.9 230.769 73.66C231.609 73.42 232.309 73.0867 232.869 72.66L233.709 74.66ZM250.741 74.66C250.115 75.1533 249.308 75.5333 248.321 75.8C247.335 76.0667 246.268 76.2 245.121 76.2C243.775 76.2 242.628 76.0267 241.681 75.68C240.748 75.3333 240.041 74.8533 239.561 74.24C239.081 73.6267 238.841 72.92 238.841 72.12C238.841 71.3467 239.055 70.6733 239.481 70.1C239.908 69.5267 240.481 69.1067 241.201 68.84C240.655 68.5467 240.221 68.14 239.901 67.62C239.595 67.0867 239.441 66.4933 239.441 65.84C239.441 65.0933 239.661 64.42 240.101 63.82C240.555 63.2067 241.228 62.72 242.121 62.36C243.015 61.9867 244.115 61.8 245.421 61.8C246.301 61.8 247.161 61.8933 248.001 62.08C248.841 62.2667 249.575 62.52 250.201 62.84L249.461 64.9C248.288 64.2867 246.975 63.98 245.521 63.98C244.375 63.98 243.508 64.1667 242.921 64.54C242.348 64.9 242.061 65.3867 242.061 66C242.061 66.6 242.275 67.06 242.701 67.38C243.128 67.6867 243.755 67.84 244.581 67.84H248.281V70H244.441C243.495 70 242.761 70.1667 242.241 70.5C241.721 70.82 241.461 71.3 241.461 71.94C241.461 72.58 241.775 73.0867 242.401 73.46C243.028 73.8333 243.975 74.02 245.241 74.02C246.121 74.02 246.975 73.9 247.801 73.66C248.641 73.42 249.341 73.0867 249.901 72.66L250.741 74.66ZM259.087 61.8C260.767 61.8 262.074 62.3133 263.007 63.34C263.954 64.3667 264.427 65.8333 264.427 67.74V76H261.827V67.84C261.827 66.6 261.527 65.6667 260.927 65.04C260.34 64.4 259.52 64.08 258.467 64.08C257.32 64.08 256.407 64.42 255.727 65.1C255.06 65.7667 254.727 66.7667 254.727 68.1V76H252.127V62H254.647V63.76C255.62 62.4533 257.1 61.8 259.087 61.8ZM271.604 76.2C270.524 76.2 269.478 76.0467 268.464 75.74C267.464 75.4333 266.671 75.0267 266.084 74.52L266.984 72.5C267.558 72.9533 268.258 73.3267 269.084 73.62C269.924 73.9 270.764 74.04 271.604 74.04C272.644 74.04 273.418 73.8733 273.924 73.54C274.444 73.2067 274.704 72.7667 274.704 72.22C274.704 71.82 274.558 71.4933 274.264 71.24C273.984 70.9733 273.624 70.7667 273.184 70.62C272.744 70.4733 272.144 70.3067 271.384 70.12C270.318 69.8667 269.451 69.6133 268.784 69.36C268.131 69.1067 267.564 68.7133 267.084 68.18C266.618 67.6333 266.384 66.9 266.384 65.98C266.384 65.2067 266.591 64.5067 267.004 63.88C267.431 63.24 268.064 62.7333 268.904 62.36C269.758 61.9867 270.798 61.8 272.024 61.8C272.878 61.8 273.718 61.9067 274.544 62.12C275.371 62.3333 276.084 62.64 276.684 63.04L275.864 65.06C275.251 64.7 274.611 64.4267 273.944 64.24C273.278 64.0533 272.631 63.96 272.004 63.96C270.978 63.96 270.211 64.1333 269.704 64.48C269.211 64.8267 268.964 65.2867 268.964 65.86C268.964 66.26 269.104 66.5867 269.384 66.84C269.678 67.0933 270.044 67.2933 270.484 67.44C270.924 67.5867 271.524 67.7533 272.284 67.94C273.324 68.18 274.178 68.4333 274.844 68.7C275.511 68.9533 276.078 69.3467 276.544 69.88C277.024 70.4133 277.264 71.1333 277.264 72.04C277.264 72.8133 277.051 73.5133 276.624 74.14C276.211 74.7667 275.578 75.2667 274.724 75.64C273.871 76.0133 272.831 76.2 271.604 76.2ZM283.143 64.18V73.82H285.723V76H277.983V73.82H280.563V64.18H277.983V62H285.723V64.18H283.143ZM294.578 61.8C296.258 61.8 297.564 62.3133 298.498 63.34C299.444 64.3667 299.918 65.8333 299.918 67.74V76H297.318V67.84C297.318 66.6 297.018 65.6667 296.418 65.04C295.831 64.4 295.011 64.08 293.958 64.08C292.811 64.08 291.898 64.42 291.218 65.1C290.551 65.7667 290.218 66.7667 290.218 68.1V76H287.618V62H290.138V63.76C291.111 62.4533 292.591 61.8 294.578 61.8ZM309.295 76.2C307.868 76.2 306.582 75.8933 305.435 75.28C304.288 74.6533 303.388 73.7933 302.735 72.7C302.082 71.5933 301.755 70.36 301.755 69C301.755 67.64 302.082 66.4133 302.735 65.32C303.388 64.2133 304.288 63.3533 305.435 62.74C306.582 62.1133 307.868 61.8 309.295 61.8C310.722 61.8 312.008 62.1133 313.155 62.74C314.302 63.3533 315.202 64.2067 315.855 65.3C316.508 66.3933 316.835 67.6267 316.835 69C316.835 70.3733 316.508 71.6067 315.855 72.7C315.202 73.7933 314.302 74.6533 313.155 75.28C312.008 75.8933 310.722 76.2 309.295 76.2ZM309.295 73.92C310.228 73.92 311.068 73.7133 311.815 73.3C312.562 72.8733 313.148 72.2867 313.575 71.54C314.002 70.78 314.215 69.9333 314.215 69C314.215 68.0667 314.002 67.2267 313.575 66.48C313.148 65.72 312.562 65.1333 311.815 64.72C311.068 64.2933 310.228 64.08 309.295 64.08C308.362 64.08 307.522 64.2933 306.775 64.72C306.028 65.1333 305.442 65.72 305.015 66.48C304.588 67.2267 304.375 68.0667 304.375 69C304.375 69.9333 304.588 70.78 305.015 71.54C305.442 72.2867 306.028 72.8733 306.775 73.3C307.522 73.7133 308.362 73.92 309.295 73.92ZM327.618 64.18V73.82H330.198V76H322.458V73.82H325.038V64.18H322.458V62H330.198V64.18H327.618ZM339.053 61.8C340.733 61.8 342.04 62.3133 342.973 63.34C343.92 64.3667 344.393 65.8333 344.393 67.74V76H341.793V67.84C341.793 66.6 341.493 65.6667 340.893 65.04C340.307 64.4 339.487 64.08 338.433 64.08C337.287 64.08 336.373 64.42 335.693 65.1C335.027 65.7667 334.693 66.7667 334.693 68.1V76H332.093V62H334.613V63.76C335.587 62.4533 337.067 61.8 339.053 61.8ZM353.351 64.08C352.151 64.08 351.244 64.3467 350.631 64.88C350.017 65.4133 349.711 66.2 349.711 67.24V68.44H355.811V70.64H349.711V76H347.111V67.24C347.111 65.5467 347.651 64.22 348.731 63.26C349.824 62.2867 351.324 61.8 353.231 61.8C354.031 61.8 354.777 61.8867 355.471 62.06C356.164 62.2333 356.771 62.4867 357.291 62.82L356.471 64.94C355.644 64.3667 354.604 64.08 353.351 64.08ZM364.23 61.8C365.483 61.8 366.577 62.0467 367.51 62.54C368.443 63.0333 369.163 63.7667 369.67 64.74C370.19 65.7 370.45 66.8667 370.45 68.24V76H367.85V72.4H360.57V76H358.01V68.24C358.01 66.8667 358.263 65.7 358.77 64.74C359.29 63.7667 360.017 63.0333 360.95 62.54C361.883 62.0467 362.977 61.8 364.23 61.8ZM367.85 70.22V68C367.85 66.7067 367.53 65.7333 366.89 65.08C366.25 64.4133 365.357 64.08 364.21 64.08C363.063 64.08 362.17 64.4133 361.53 65.08C360.89 65.7333 360.57 66.7067 360.57 68V70.22H367.85ZM380.247 61.8C381.927 61.8 383.234 62.3133 384.167 63.34C385.114 64.3667 385.587 65.8333 385.587 67.74V76H382.987V67.84C382.987 66.6 382.687 65.6667 382.087 65.04C381.5 64.4 380.68 64.08 379.627 64.08C378.48 64.08 377.567 64.42 376.887 65.1C376.22 65.7667 375.887 66.7667 375.887 68.1V76H373.287V62H375.807V63.76C376.78 62.4533 378.26 61.8 380.247 61.8ZM398.145 65.48C396.825 64.7333 395.451 64.28 394.025 64.12V76H391.425V64.12C389.985 64.28 388.605 64.7333 387.285 65.48L386.385 63.48C387.318 62.92 388.318 62.5 389.385 62.22C390.465 61.94 391.571 61.8 392.705 61.8C393.838 61.8 394.945 61.94 396.025 62.22C397.105 62.5 398.111 62.92 399.045 63.48L398.145 65.48ZM404.068 64.18V73.82H406.648V76H398.908V73.82H401.488V64.18H398.908V62H406.648V64.18H404.068ZM408.543 62H411.143V73.8H418.463V76H408.543V62ZM430.203 62C431.417 62 432.47 62.2 433.363 62.6C434.27 63 434.963 63.5733 435.443 64.32C435.923 65.0667 436.163 65.9533 436.163 66.98C436.163 67.9933 435.923 68.88 435.443 69.64C434.963 70.3867 434.27 70.96 433.363 71.36C432.47 71.76 431.417 71.96 430.203 71.96H427.043V76H424.443V62H430.203ZM430.083 69.76C431.217 69.76 432.077 69.52 432.663 69.04C433.25 68.56 433.543 67.8733 433.543 66.98C433.543 66.0867 433.25 65.4 432.663 64.92C432.077 64.44 431.217 64.2 430.083 64.2H427.043V69.76H430.083ZM443.806 61.8C445.059 61.8 446.152 62.0467 447.086 62.54C448.019 63.0333 448.739 63.7667 449.246 64.74C449.766 65.7 450.026 66.8667 450.026 68.24V76H447.426V72.4H440.146V76H437.586V68.24C437.586 66.8667 437.839 65.7 438.346 64.74C438.866 63.7667 439.592 63.0333 440.526 62.54C441.459 62.0467 442.552 61.8 443.806 61.8ZM447.426 70.22V68C447.426 66.7067 447.106 65.7333 446.466 65.08C445.826 64.4133 444.932 64.08 443.786 64.08C442.639 64.08 441.746 64.4133 441.106 65.08C440.466 65.7333 440.146 66.7067 440.146 68V70.22H447.426ZM462.023 76L459.163 71.9C459.043 71.9133 458.863 71.92 458.623 71.92H455.463V76H452.863V62H458.623C459.836 62 460.889 62.2 461.783 62.6C462.689 63 463.383 63.5733 463.863 64.32C464.343 65.0667 464.583 65.9533 464.583 66.98C464.583 68.0333 464.323 68.94 463.803 69.7C463.296 70.46 462.563 71.0267 461.603 71.4L464.823 76H462.023ZM461.963 66.98C461.963 66.0867 461.669 65.4 461.083 64.92C460.496 64.44 459.636 64.2 458.503 64.2H455.463V69.78H458.503C459.636 69.78 460.496 69.54 461.083 69.06C461.669 68.5667 461.963 67.8733 461.963 66.98ZM476.412 65.48C475.092 64.7333 473.718 64.28 472.292 64.12V76H469.692V64.12C468.252 64.28 466.872 64.7333 465.552 65.48L464.652 63.48C465.585 62.92 466.585 62.5 467.652 62.22C468.732 61.94 469.838 61.8 470.972 61.8C472.105 61.8 473.212 61.94 474.292 62.22C475.372 62.5 476.378 62.92 477.312 63.48L476.412 65.48ZM482.335 64.18V73.82H484.915V76H477.175V73.82H479.755V64.18H477.175V62H484.915V64.18H482.335ZM493.193 76.2C491.779 76.2 490.499 75.8933 489.353 75.28C488.219 74.6533 487.326 73.7933 486.673 72.7C486.033 71.6067 485.713 70.3733 485.713 69C485.713 67.6267 486.039 66.3933 486.693 65.3C487.346 64.2067 488.239 63.3533 489.373 62.74C490.519 62.1133 491.799 61.8 493.213 61.8C494.359 61.8 495.406 62 496.353 62.4C497.299 62.8 498.099 63.38 498.753 64.14L497.073 65.72C496.059 64.6267 494.813 64.08 493.333 64.08C492.373 64.08 491.513 64.2933 490.753 64.72C489.993 65.1333 489.399 65.7133 488.973 66.46C488.546 67.2067 488.333 68.0533 488.333 69C488.333 69.9467 488.546 70.7933 488.973 71.54C489.399 72.2867 489.993 72.8733 490.753 73.3C491.513 73.7133 492.373 73.92 493.333 73.92C494.813 73.92 496.059 73.3667 497.073 72.26L498.753 73.86C498.099 74.62 497.293 75.2 496.333 75.6C495.386 76 494.339 76.2 493.193 76.2ZM512.446 62V76H509.946V74.22C509 75.54 507.533 76.2 505.546 76.2C503.893 76.2 502.593 75.6867 501.646 74.66C500.7 73.62 500.226 72.1533 500.226 70.26V62H502.826V70.16C502.826 71.4 503.12 72.34 503.706 72.98C504.306 73.6067 505.126 73.92 506.166 73.92C507.286 73.92 508.18 73.5867 508.846 72.92C509.513 72.24 509.846 71.2333 509.846 69.9V62H512.446ZM515.406 62H518.006V73.8H525.326V76H515.406V62ZM532.678 61.8C533.932 61.8 535.025 62.0467 535.958 62.54C536.892 63.0333 537.612 63.7667 538.118 64.74C538.638 65.7 538.898 66.8667 538.898 68.24V76H536.298V72.4H529.018V76H526.458V68.24C526.458 66.8667 526.712 65.7 527.218 64.74C527.738 63.7667 528.465 63.0333 529.398 62.54C530.332 62.0467 531.425 61.8 532.678 61.8ZM536.298 70.22V68C536.298 66.7067 535.978 65.7333 535.338 65.08C534.698 64.4133 533.805 64.08 532.658 64.08C531.512 64.08 530.618 64.4133 529.978 65.08C529.338 65.7333 529.018 66.7067 529.018 68V70.22H536.298ZM550.895 76L548.035 71.9C547.915 71.9133 547.735 71.92 547.495 71.92H544.335V76H541.735V62H547.495C548.709 62 549.762 62.2 550.655 62.6C551.562 63 552.255 63.5733 552.735 64.32C553.215 65.0667 553.455 65.9533 553.455 66.98C553.455 68.0333 553.195 68.94 552.675 69.7C552.169 70.46 551.435 71.0267 550.475 71.4L553.695 76H550.895ZM550.835 66.98C550.835 66.0867 550.542 65.4 549.955 64.92C549.369 64.44 548.509 64.2 547.375 64.2H544.335V69.78H547.375C548.509 69.78 549.369 69.54 549.955 69.06C550.542 68.5667 550.835 67.8733 550.835 66.98Z" fill="white"/>
</svg>
