<svg width="327" height="46" viewBox="0 0 327 46" fill="none" xmlns="http://www.w3.org/2000/svg">
<g clip-path="url(#clip0_2023_347)">
<path d="M40.81 1H1V45H40.81V1Z" fill="white" stroke="black" stroke-width="2" stroke-miterlimit="10"/>
<path d="M54.49 1H40.81V28.35H54.49V1Z" fill="#FFCC00"/>
<path d="M54.49 1H40.81V28.35H54.49V1Z" fill="#FFCC00"/>
<path d="M40.82 1H22.57V28.35H40.82V1Z" fill="#FF6600"/>
<path d="M40.82 1H22.57V28.35H40.82V1Z" fill="#FF6600"/>
<path d="M54.5 1H40.81H22.57V28.35H40.81H54.5V1Z" stroke="black" stroke-width="2" stroke-miterlimit="10"/>
<path d="M54.5 1H40.81H22.57V28.35H40.81H54.5V1Z" stroke="black" stroke-width="2" stroke-miterlimit="10"/>
<path d="M54.5 1H170.86H326V28.35H170.86H54.5V1Z" fill="#0033CC" stroke="black" stroke-width="2" stroke-miterlimit="10"/>
<path d="M40.81 1H1V45H40.81V1Z" stroke="black" stroke-width="2" stroke-miterlimit="10"/>
<path d="M68.57 9.51C69.38 9.87 70 10.39 70.43 11.06C70.86 11.73 71.08 12.53 71.08 13.45C71.08 14.37 70.86 15.16 70.43 15.84C70 16.52 69.38 17.04 68.57 17.4C67.76 17.76 66.81 17.94 65.72 17.94H62.88V21.58H60.55V8.98H65.72C66.81 8.98 67.76 9.16 68.57 9.52V9.51ZM67.93 15.3C68.46 14.87 68.72 14.25 68.72 13.45C68.72 12.65 68.46 12.03 67.93 11.6C67.4 11.17 66.63 10.95 65.61 10.95H62.88V15.95H65.61C66.63 15.95 67.4 15.73 67.93 15.3Z" fill="white"/>
<path d="M83.05 9.45C83.89 9.89 84.54 10.55 85 11.42C85.46 12.29 85.69 13.34 85.69 14.58V21.56H83.36V18.32H76.82V21.56H74.52V14.58C74.52 13.34 74.75 12.29 75.21 11.42C75.67 10.55 76.32 9.89 77.16 9.45C78 9.01 78.98 8.78 80.1 8.78C81.22 8.78 82.21 9 83.05 9.45ZM83.36 16.36V14.36C83.36 13.2 83.07 12.32 82.5 11.72C81.93 11.13 81.12 10.83 80.09 10.83C79.06 10.83 78.26 11.13 77.68 11.72C77.11 12.31 76.82 13.19 76.82 14.36V16.36H83.36Z" fill="white"/>
<path d="M90.4 8.97H92.73V19.59H99.3V21.57H90.39V8.97H90.4Z" fill="white"/>
<path d="M111.01 9.45C111.85 9.89 112.5 10.55 112.96 11.42C113.42 12.29 113.65 13.34 113.65 14.58V21.56H111.32V18.32H104.78V21.56H102.48V14.58C102.48 13.34 102.71 12.29 103.17 11.42C103.63 10.55 104.28 9.89 105.12 9.45C105.96 9.01 106.94 8.78 108.06 8.78C109.18 8.78 110.17 9 111.01 9.45ZM111.32 16.36V14.36C111.32 13.2 111.03 12.32 110.46 11.72C109.89 11.13 109.08 10.83 108.05 10.83C107.02 10.83 106.22 11.13 105.64 11.72C105.07 12.31 104.78 13.19 104.78 14.36V16.36H111.32Z" fill="white"/>
<path d="M129.49 8.97L124.01 21.57H121.71L116.21 8.97H118.74L122.92 18.69L127.14 8.97H129.47H129.49Z" fill="white"/>
<path d="M140.48 21.57L137.91 17.88C137.8 17.89 137.64 17.9 137.42 17.9H134.58V21.57H132.25V8.97H137.42C138.51 8.97 139.46 9.15 140.27 9.51C141.08 9.87 141.7 10.39 142.13 11.06C142.56 11.73 142.78 12.53 142.78 13.45C142.78 14.37 142.55 15.21 142.09 15.9C141.63 16.59 140.97 17.09 140.11 17.43L143 21.57H140.49H140.48ZM139.64 11.59C139.11 11.16 138.34 10.94 137.32 10.94H134.59V15.96H137.32C138.34 15.96 139.11 15.74 139.64 15.3C140.17 14.86 140.43 14.24 140.43 13.44C140.43 12.64 140.17 12.02 139.64 11.59Z" fill="white"/>
<path d="M155.24 9.45C156.08 9.89 156.73 10.55 157.19 11.42C157.65 12.29 157.88 13.34 157.88 14.58V21.56H155.55V18.32H149.01V21.56H146.71V14.58C146.71 13.34 146.94 12.29 147.4 11.42C147.86 10.55 148.51 9.89 149.35 9.45C150.19 9.01 151.17 8.78 152.29 8.78C153.41 8.78 154.4 9 155.24 9.45ZM155.55 16.36V14.36C155.55 13.2 155.26 12.32 154.69 11.72C154.12 11.13 153.31 10.83 152.28 10.83C151.25 10.83 150.45 11.13 149.87 11.72C149.3 12.31 149.01 13.19 149.01 14.36V16.36H155.55Z" fill="white"/>
<path d="M168.98 8.97H174.48C175.82 8.97 177.01 9.23 178.05 9.75C179.09 10.27 179.9 11.01 180.47 11.96C181.04 12.91 181.33 14.02 181.33 15.26C181.33 16.5 181.04 17.61 180.47 18.56C179.9 19.51 179.09 20.25 178.05 20.77C177.01 21.29 175.82 21.55 174.48 21.55H168.98V8.95V8.97ZM174.37 19.59C175.29 19.59 176.1 19.41 176.8 19.06C177.5 18.71 178.04 18.2 178.42 17.55C178.8 16.9 178.99 16.14 178.99 15.27C178.99 14.4 178.8 13.65 178.42 12.99C178.04 12.34 177.5 11.83 176.8 11.48C176.1 11.13 175.29 10.95 174.37 10.95H171.32V19.59H174.37Z" fill="white"/>
<path d="M187.66 20.91C186.63 20.35 185.82 19.58 185.24 18.59C184.66 17.6 184.36 16.49 184.36 15.27C184.36 14.05 184.65 12.94 185.24 11.95C185.83 10.96 186.64 10.19 187.66 9.62999C188.69 9.06999 189.85 8.78999 191.13 8.78999C192.41 8.78999 193.57 9.06999 194.6 9.62999C195.63 10.19 196.44 10.96 197.03 11.94C197.62 12.92 197.91 14.03 197.91 15.27C197.91 16.51 197.62 17.62 197.03 18.6C196.44 19.58 195.63 20.36 194.6 20.91C193.57 21.47 192.42 21.75 191.13 21.75C189.84 21.75 188.69 21.47 187.66 20.91ZM193.38 19.13C194.05 18.75 194.58 18.22 194.96 17.55C195.34 16.87 195.53 16.11 195.53 15.27C195.53 14.43 195.34 13.67 194.96 12.99C194.58 12.31 194.05 11.78 193.38 11.41C192.71 11.04 191.96 10.84 191.12 10.84C190.28 10.84 189.53 11.03 188.86 11.41C188.19 11.79 187.66 12.32 187.28 12.99C186.9 13.67 186.71 14.43 186.71 15.27C186.71 16.11 186.9 16.87 187.28 17.55C187.66 18.23 188.19 18.76 188.86 19.13C189.53 19.5 190.29 19.7 191.12 19.7C191.95 19.7 192.71 19.51 193.38 19.13Z" fill="white"/>
<path d="M225.69 10.07C226.52 10.93 226.93 12.16 226.93 13.77V21.56H224.6V13.86C224.6 12.86 224.34 12.11 223.82 11.6C223.3 11.09 222.62 10.83 221.78 10.83C220.85 10.83 220.1 11.09 219.54 11.62C218.98 12.15 218.71 12.96 218.71 14.05V21.56H216.38V13.86C216.38 12.85 216.14 12.1 215.65 11.59C215.16 11.09 214.5 10.83 213.67 10.83C212.72 10.83 211.97 11.1 211.4 11.63C210.83 12.16 210.55 12.97 210.55 14.05V21.56H208.22V8.96H210.48V10.62C210.86 10.03 211.38 9.58 212.04 9.26C212.7 8.94 213.46 8.78 214.32 8.78C215.18 8.78 215.98 8.95 216.64 9.28C217.3 9.61 217.8 10.09 218.13 10.7C218.55 10.09 219.12 9.61 219.84 9.28C220.56 8.94 221.37 8.78 222.26 8.78C223.73 8.78 224.88 9.21 225.71 10.07H225.69Z" fill="white"/>
<path d="M241.44 20.36C240.88 20.8 240.15 21.15 239.27 21.39C238.38 21.63 237.43 21.75 236.4 21.75C235.19 21.75 234.16 21.59 233.32 21.28C232.48 20.97 231.84 20.54 231.41 19.98C230.98 19.43 230.76 18.79 230.76 18.07C230.76 17.35 230.95 16.77 231.33 16.25C231.71 15.73 232.23 15.36 232.87 15.12C232.38 14.86 231.99 14.49 231.71 14.01C231.43 13.54 231.29 13.01 231.29 12.42C231.29 11.75 231.49 11.14 231.89 10.59C232.29 10.04 232.89 9.60999 233.69 9.27999C234.49 8.94999 235.48 8.78999 236.65 8.78999C237.44 8.78999 238.21 8.86999 238.97 9.03999C239.73 9.20999 240.38 9.43999 240.95 9.71999L240.29 11.57C239.24 11.02 238.06 10.74 236.75 10.74C235.72 10.74 234.94 10.91 234.42 11.23C233.9 11.56 233.64 12 233.64 12.55C233.64 13.1 233.83 13.5 234.21 13.78C234.59 14.06 235.16 14.2 235.9 14.2H239.22V16.14H235.77C234.92 16.14 234.26 16.29 233.8 16.58C233.34 16.87 233.1 17.31 233.1 17.89C233.1 18.47 233.38 18.92 233.94 19.26C234.5 19.6 235.35 19.76 236.49 19.76C237.28 19.76 238.05 19.65 238.8 19.44C239.55 19.23 240.17 18.92 240.68 18.54L241.43 20.34L241.44 20.36Z" fill="white"/>
<path d="M253.06 21.57L250.49 17.88C250.38 17.89 250.22 17.9 250 17.9H247.16V21.57H244.83V8.97H250C251.09 8.97 252.04 9.15 252.85 9.51C253.66 9.87 254.28 10.39 254.71 11.06C255.14 11.73 255.36 12.53 255.36 13.45C255.36 14.37 255.13 15.21 254.67 15.9C254.21 16.59 253.55 17.09 252.69 17.43L255.58 21.57H253.07H253.06ZM252.21 11.59C251.68 11.16 250.91 10.94 249.89 10.94H247.16V15.96H249.89C250.91 15.96 251.68 15.74 252.21 15.3C252.74 14.86 253 14.24 253 13.44C253 12.64 252.74 12.02 252.21 11.59Z" fill="white"/>
<path d="M261.78 20.91C260.76 20.35 259.95 19.58 259.37 18.6C258.79 17.62 258.5 16.51 258.5 15.27C258.5 14.03 258.79 12.92 259.38 11.94C259.97 10.96 260.77 10.19 261.8 9.62999C262.82 9.06999 263.97 8.78999 265.24 8.78999C266.27 8.78999 267.21 8.96999 268.06 9.32999C268.91 9.68999 269.63 10.21 270.22 10.9L268.71 12.32C267.8 11.34 266.68 10.84 265.35 10.84C264.49 10.84 263.72 11.03 263.03 11.41C262.35 11.79 261.82 12.31 261.43 12.99C261.05 13.66 260.86 14.42 260.86 15.28C260.86 16.14 261.05 16.89 261.43 17.57C261.81 18.24 262.35 18.77 263.03 19.15C263.71 19.53 264.48 19.72 265.35 19.72C266.68 19.72 267.8 19.22 268.71 18.23L270.22 19.67C269.63 20.35 268.91 20.88 268.06 21.24C267.2 21.6 266.26 21.78 265.23 21.78C263.96 21.78 262.81 21.5 261.79 20.94L261.78 20.91Z" fill="white"/>
<path d="M282.31 9.45C283.15 9.89 283.8 10.55 284.26 11.42C284.72 12.29 284.95 13.34 284.95 14.58V21.56H282.62V18.32H276.08V21.56H273.78V14.58C273.78 13.34 274.01 12.29 274.47 11.42C274.93 10.55 275.58 9.89 276.42 9.45C277.26 9.01 278.24 8.78 279.36 8.78C280.48 8.78 281.47 9 282.31 9.45ZM282.62 16.36V14.36C282.62 13.2 282.33 12.32 281.76 11.72C281.19 11.13 280.38 10.83 279.35 10.83C278.32 10.83 277.52 11.13 276.94 11.72C276.37 12.31 276.08 13.19 276.08 14.36V16.36H282.62Z" fill="white"/>
<path d="M289.66 8.97H295.16C296.5 8.97 297.69 9.23 298.73 9.75C299.77 10.27 300.58 11.01 301.15 11.96C301.72 12.91 302.01 14.02 302.01 15.26C302.01 16.5 301.72 17.61 301.15 18.56C300.58 19.51 299.77 20.25 298.73 20.77C297.69 21.29 296.5 21.55 295.16 21.55H289.66V8.95V8.97ZM295.04 19.59C295.96 19.59 296.77 19.41 297.47 19.06C298.17 18.71 298.71 18.2 299.09 17.55C299.47 16.9 299.66 16.14 299.66 15.27C299.66 14.4 299.47 13.65 299.09 12.99C298.71 12.34 298.17 11.83 297.47 11.48C296.77 11.13 295.96 10.95 295.04 10.95H291.99V19.59H295.04Z" fill="white"/>
<path d="M308.33 20.91C307.3 20.35 306.49 19.58 305.91 18.59C305.33 17.6 305.03 16.49 305.03 15.27C305.03 14.05 305.32 12.94 305.91 11.95C306.5 10.96 307.31 10.19 308.33 9.62999C309.36 9.06999 310.52 8.78999 311.8 8.78999C313.08 8.78999 314.24 9.06999 315.27 9.62999C316.3 10.19 317.11 10.96 317.7 11.94C318.29 12.92 318.58 14.03 318.58 15.27C318.58 16.51 318.29 17.62 317.7 18.6C317.11 19.58 316.3 20.36 315.27 20.91C314.24 21.47 313.09 21.75 311.8 21.75C310.51 21.75 309.36 21.47 308.33 20.91ZM314.06 19.13C314.73 18.75 315.26 18.22 315.64 17.55C316.02 16.87 316.21 16.11 316.21 15.27C316.21 14.43 316.02 13.67 315.64 12.99C315.26 12.31 314.73 11.78 314.06 11.41C313.39 11.04 312.64 10.84 311.8 10.84C310.96 10.84 310.21 11.03 309.54 11.41C308.87 11.79 308.34 12.32 307.96 12.99C307.58 13.67 307.39 14.43 307.39 15.27C307.39 16.11 307.58 16.87 307.96 17.55C308.34 18.23 308.87 18.76 309.54 19.13C310.21 19.5 310.97 19.7 311.8 19.7C312.63 19.7 313.39 19.51 314.06 19.13Z" fill="white"/>
<path d="M68.57 9.51C69.38 9.87 70 10.39 70.43 11.06C70.86 11.73 71.08 12.53 71.08 13.45C71.08 14.37 70.86 15.16 70.43 15.84C70 16.52 69.38 17.04 68.57 17.4C67.76 17.76 66.81 17.94 65.72 17.94H62.88V21.58H60.55V8.98H65.72C66.81 8.98 67.76 9.16 68.57 9.52V9.51ZM67.93 15.3C68.46 14.87 68.72 14.25 68.72 13.45C68.72 12.65 68.46 12.03 67.93 11.6C67.4 11.17 66.63 10.95 65.61 10.95H62.88V15.95H65.61C66.63 15.95 67.4 15.73 67.93 15.3Z" fill="white"/>
<path d="M83.05 9.45C83.89 9.89 84.54 10.55 85 11.42C85.46 12.29 85.69 13.34 85.69 14.58V21.56H83.36V18.32H76.82V21.56H74.52V14.58C74.52 13.34 74.75 12.29 75.21 11.42C75.67 10.55 76.32 9.89 77.16 9.45C78 9.01 78.98 8.78 80.1 8.78C81.22 8.78 82.21 9 83.05 9.45ZM83.36 16.36V14.36C83.36 13.2 83.07 12.32 82.5 11.72C81.93 11.13 81.12 10.83 80.09 10.83C79.06 10.83 78.26 11.13 77.68 11.72C77.11 12.31 76.82 13.19 76.82 14.36V16.36H83.36Z" fill="white"/>
<path d="M90.4 8.97H92.73V19.59H99.3V21.57H90.39V8.97H90.4Z" fill="white"/>
<path d="M111.01 9.45C111.85 9.89 112.5 10.55 112.96 11.42C113.42 12.29 113.65 13.34 113.65 14.58V21.56H111.32V18.32H104.78V21.56H102.48V14.58C102.48 13.34 102.71 12.29 103.17 11.42C103.63 10.55 104.28 9.89 105.12 9.45C105.96 9.01 106.94 8.78 108.06 8.78C109.18 8.78 110.17 9 111.01 9.45ZM111.32 16.36V14.36C111.32 13.2 111.03 12.32 110.46 11.72C109.89 11.13 109.08 10.83 108.05 10.83C107.02 10.83 106.22 11.13 105.64 11.72C105.07 12.31 104.78 13.19 104.78 14.36V16.36H111.32Z" fill="white"/>
<path d="M129.49 8.97L124.01 21.57H121.71L116.21 8.97H118.74L122.92 18.69L127.14 8.97H129.47H129.49Z" fill="white"/>
<path d="M140.48 21.57L137.91 17.88C137.8 17.89 137.64 17.9 137.42 17.9H134.58V21.57H132.25V8.97H137.42C138.51 8.97 139.46 9.15 140.27 9.51C141.08 9.87 141.7 10.39 142.13 11.06C142.56 11.73 142.78 12.53 142.78 13.45C142.78 14.37 142.55 15.21 142.09 15.9C141.63 16.59 140.97 17.09 140.11 17.43L143 21.57H140.49H140.48ZM139.64 11.59C139.11 11.16 138.34 10.94 137.32 10.94H134.59V15.96H137.32C138.34 15.96 139.11 15.74 139.64 15.3C140.17 14.86 140.43 14.24 140.43 13.44C140.43 12.64 140.17 12.02 139.64 11.59Z" fill="white"/>
<path d="M155.24 9.45C156.08 9.89 156.73 10.55 157.19 11.42C157.65 12.29 157.88 13.34 157.88 14.58V21.56H155.55V18.32H149.01V21.56H146.71V14.58C146.71 13.34 146.94 12.29 147.4 11.42C147.86 10.55 148.51 9.89 149.35 9.45C150.19 9.01 151.17 8.78 152.29 8.78C153.41 8.78 154.4 9 155.24 9.45ZM155.55 16.36V14.36C155.55 13.2 155.26 12.32 154.69 11.72C154.12 11.13 153.31 10.83 152.28 10.83C151.25 10.83 150.45 11.13 149.87 11.72C149.3 12.31 149.01 13.19 149.01 14.36V16.36H155.55Z" fill="white"/>
<path d="M168.98 8.97H174.48C175.82 8.97 177.01 9.23 178.05 9.75C179.09 10.27 179.9 11.01 180.47 11.96C181.04 12.91 181.33 14.02 181.33 15.26C181.33 16.5 181.04 17.61 180.47 18.56C179.9 19.51 179.09 20.25 178.05 20.77C177.01 21.29 175.82 21.55 174.48 21.55H168.98V8.95V8.97ZM174.37 19.59C175.29 19.59 176.1 19.41 176.8 19.06C177.5 18.71 178.04 18.2 178.42 17.55C178.8 16.9 178.99 16.14 178.99 15.27C178.99 14.4 178.8 13.65 178.42 12.99C178.04 12.34 177.5 11.83 176.8 11.48C176.1 11.13 175.29 10.95 174.37 10.95H171.32V19.59H174.37Z" fill="white"/>
<path d="M187.66 20.91C186.63 20.35 185.82 19.58 185.24 18.59C184.66 17.6 184.36 16.49 184.36 15.27C184.36 14.05 184.65 12.94 185.24 11.95C185.83 10.96 186.64 10.19 187.66 9.62999C188.69 9.06999 189.85 8.78999 191.13 8.78999C192.41 8.78999 193.57 9.06999 194.6 9.62999C195.63 10.19 196.44 10.96 197.03 11.94C197.62 12.92 197.91 14.03 197.91 15.27C197.91 16.51 197.62 17.62 197.03 18.6C196.44 19.58 195.63 20.36 194.6 20.91C193.57 21.47 192.42 21.75 191.13 21.75C189.84 21.75 188.69 21.47 187.66 20.91ZM193.38 19.13C194.05 18.75 194.58 18.22 194.96 17.55C195.34 16.87 195.53 16.11 195.53 15.27C195.53 14.43 195.34 13.67 194.96 12.99C194.58 12.31 194.05 11.78 193.38 11.41C192.71 11.04 191.96 10.84 191.12 10.84C190.28 10.84 189.53 11.03 188.86 11.41C188.19 11.79 187.66 12.32 187.28 12.99C186.9 13.67 186.71 14.43 186.71 15.27C186.71 16.11 186.9 16.87 187.28 17.55C187.66 18.23 188.19 18.76 188.86 19.13C189.53 19.5 190.29 19.7 191.12 19.7C191.95 19.7 192.71 19.51 193.38 19.13Z" fill="white"/>
<path d="M225.69 10.07C226.52 10.93 226.93 12.16 226.93 13.77V21.56H224.6V13.86C224.6 12.86 224.34 12.11 223.82 11.6C223.3 11.09 222.62 10.83 221.78 10.83C220.85 10.83 220.1 11.09 219.54 11.62C218.98 12.15 218.71 12.96 218.71 14.05V21.56H216.38V13.86C216.38 12.85 216.14 12.1 215.65 11.59C215.16 11.09 214.5 10.83 213.67 10.83C212.72 10.83 211.97 11.1 211.4 11.63C210.83 12.16 210.55 12.97 210.55 14.05V21.56H208.22V8.96H210.48V10.62C210.86 10.03 211.38 9.58 212.04 9.26C212.7 8.94 213.46 8.78 214.32 8.78C215.18 8.78 215.98 8.95 216.64 9.28C217.3 9.61 217.8 10.09 218.13 10.7C218.55 10.09 219.12 9.61 219.84 9.28C220.56 8.94 221.37 8.78 222.26 8.78C223.73 8.78 224.88 9.21 225.71 10.07H225.69Z" fill="white"/>
<path d="M241.44 20.36C240.88 20.8 240.15 21.15 239.27 21.39C238.38 21.63 237.43 21.75 236.4 21.75C235.19 21.75 234.16 21.59 233.32 21.28C232.48 20.97 231.84 20.54 231.41 19.98C230.98 19.43 230.76 18.79 230.76 18.07C230.76 17.35 230.95 16.77 231.33 16.25C231.71 15.73 232.23 15.36 232.87 15.12C232.38 14.86 231.99 14.49 231.71 14.01C231.43 13.54 231.29 13.01 231.29 12.42C231.29 11.75 231.49 11.14 231.89 10.59C232.29 10.04 232.89 9.60999 233.69 9.27999C234.49 8.94999 235.48 8.78999 236.65 8.78999C237.44 8.78999 238.21 8.86999 238.97 9.03999C239.73 9.20999 240.38 9.43999 240.95 9.71999L240.29 11.57C239.24 11.02 238.06 10.74 236.75 10.74C235.72 10.74 234.94 10.91 234.42 11.23C233.9 11.56 233.64 12 233.64 12.55C233.64 13.1 233.83 13.5 234.21 13.78C234.59 14.06 235.16 14.2 235.9 14.2H239.22V16.14H235.77C234.92 16.14 234.26 16.29 233.8 16.58C233.34 16.87 233.1 17.31 233.1 17.89C233.1 18.47 233.38 18.92 233.94 19.26C234.5 19.6 235.35 19.76 236.49 19.76C237.28 19.76 238.05 19.65 238.8 19.44C239.55 19.23 240.17 18.92 240.68 18.54L241.43 20.34L241.44 20.36Z" fill="white"/>
<path d="M253.06 21.57L250.49 17.88C250.38 17.89 250.22 17.9 250 17.9H247.16V21.57H244.83V8.97H250C251.09 8.97 252.04 9.15 252.85 9.51C253.66 9.87 254.28 10.39 254.71 11.06C255.14 11.73 255.36 12.53 255.36 13.45C255.36 14.37 255.13 15.21 254.67 15.9C254.21 16.59 253.55 17.09 252.69 17.43L255.58 21.57H253.07H253.06ZM252.21 11.59C251.68 11.16 250.91 10.94 249.89 10.94H247.16V15.96H249.89C250.91 15.96 251.68 15.74 252.21 15.3C252.74 14.86 253 14.24 253 13.44C253 12.64 252.74 12.02 252.21 11.59Z" fill="white"/>
<path d="M261.78 20.91C260.76 20.35 259.95 19.58 259.37 18.6C258.79 17.62 258.5 16.51 258.5 15.27C258.5 14.03 258.79 12.92 259.38 11.94C259.97 10.96 260.77 10.19 261.8 9.62999C262.82 9.06999 263.97 8.78999 265.24 8.78999C266.27 8.78999 267.21 8.96999 268.06 9.32999C268.91 9.68999 269.63 10.21 270.22 10.9L268.71 12.32C267.8 11.34 266.68 10.84 265.35 10.84C264.49 10.84 263.72 11.03 263.03 11.41C262.35 11.79 261.82 12.31 261.43 12.99C261.05 13.66 260.86 14.42 260.86 15.28C260.86 16.14 261.05 16.89 261.43 17.57C261.81 18.24 262.35 18.77 263.03 19.15C263.71 19.53 264.48 19.72 265.35 19.72C266.68 19.72 267.8 19.22 268.71 18.23L270.22 19.67C269.63 20.35 268.91 20.88 268.06 21.24C267.2 21.6 266.26 21.78 265.23 21.78C263.96 21.78 262.81 21.5 261.79 20.94L261.78 20.91Z" fill="white"/>
<path d="M282.31 9.45C283.15 9.89 283.8 10.55 284.26 11.42C284.72 12.29 284.95 13.34 284.95 14.58V21.56H282.62V18.32H276.08V21.56H273.78V14.58C273.78 13.34 274.01 12.29 274.47 11.42C274.93 10.55 275.58 9.89 276.42 9.45C277.26 9.01 278.24 8.78 279.36 8.78C280.48 8.78 281.47 9 282.31 9.45ZM282.62 16.36V14.36C282.62 13.2 282.33 12.32 281.76 11.72C281.19 11.13 280.38 10.83 279.35 10.83C278.32 10.83 277.52 11.13 276.94 11.72C276.37 12.31 276.08 13.19 276.08 14.36V16.36H282.62Z" fill="white"/>
<path d="M289.66 8.97H295.16C296.5 8.97 297.69 9.23 298.73 9.75C299.77 10.27 300.58 11.01 301.15 11.96C301.72 12.91 302.01 14.02 302.01 15.26C302.01 16.5 301.72 17.61 301.15 18.56C300.58 19.51 299.77 20.25 298.73 20.77C297.69 21.29 296.5 21.55 295.16 21.55H289.66V8.95V8.97ZM295.04 19.59C295.96 19.59 296.77 19.41 297.47 19.06C298.17 18.71 298.71 18.2 299.09 17.55C299.47 16.9 299.66 16.14 299.66 15.27C299.66 14.4 299.47 13.65 299.09 12.99C298.71 12.34 298.17 11.83 297.47 11.48C296.77 11.13 295.96 10.95 295.04 10.95H291.99V19.59H295.04Z" fill="white"/>
<path d="M308.33 20.91C307.3 20.35 306.49 19.58 305.91 18.59C305.33 17.6 305.03 16.49 305.03 15.27C305.03 14.05 305.32 12.94 305.91 11.95C306.5 10.96 307.31 10.19 308.33 9.62999C309.36 9.06999 310.52 8.78999 311.8 8.78999C313.08 8.78999 314.24 9.06999 315.27 9.62999C316.3 10.19 317.11 10.96 317.7 11.94C318.29 12.92 318.58 14.03 318.58 15.27C318.58 16.51 318.29 17.62 317.7 18.6C317.11 19.58 316.3 20.36 315.27 20.91C314.24 21.47 313.09 21.75 311.8 21.75C310.51 21.75 309.36 21.47 308.33 20.91ZM314.06 19.13C314.73 18.75 315.26 18.22 315.64 17.55C316.02 16.87 316.21 16.11 316.21 15.27C316.21 14.43 316.02 13.67 315.64 12.99C315.26 12.31 314.73 11.78 314.06 11.41C313.39 11.04 312.64 10.84 311.8 10.84C310.96 10.84 310.21 11.03 309.54 11.41C308.87 11.79 308.34 12.32 307.96 12.99C307.58 13.67 307.39 14.43 307.39 15.27C307.39 16.11 307.58 16.87 307.96 17.55C308.34 18.23 308.87 18.76 309.54 19.13C310.21 19.5 310.97 19.7 311.8 19.7C312.63 19.7 313.39 19.51 314.06 19.13Z" fill="white"/>
</g>
<defs>
<clipPath id="clip0_2023_347">
<rect width="327" height="46" fill="white"/>
</clipPath>
</defs>
</svg>
