<svg width="209" height="46" viewBox="0 0 209 46" fill="none" xmlns="http://www.w3.org/2000/svg">
<path d="M41 1V45H1V1H41Z" fill="white" stroke="black" stroke-width="2"/>
<path d="M208 1V28H54V1H208Z" fill="#0033CC" stroke="black" stroke-width="2"/>
<path d="M54 1V28H41V1H54Z" fill="#FFCC00" stroke="black" stroke-width="2"/>
<path d="M41 1V28H23V1H41Z" fill="#FF6600" stroke="black" stroke-width="2"/>
<path d="M82.52 7.8C84.16 7.8 85.44 8.28 86.36 9.24C87.28 10.1867 87.74 11.5533 87.74 13.34V22H85.14V13.44C85.14 12.3333 84.8467 11.5 84.26 10.94C83.6867 10.3667 82.9333 10.08 82 10.08C80.96 10.08 80.1267 10.3733 79.5 10.96C78.8867 11.5467 78.58 12.4467 78.58 13.66V22H75.98V13.44C75.98 12.32 75.7067 11.48 75.16 10.92C74.6267 10.36 73.8933 10.08 72.96 10.08C71.9067 10.08 71.06 10.38 70.42 10.98C69.7933 11.5667 69.48 12.46 69.48 13.66V22H66.88V8H69.4V9.84C69.8267 9.18667 70.4067 8.68667 71.14 8.34C71.8733 7.98 72.72 7.8 73.68 7.8C74.6667 7.8 75.5267 7.98667 76.26 8.36C76.9933 8.73333 77.5467 9.26 77.92 9.94C78.3867 9.26 79.02 8.73333 79.82 8.36C80.6333 7.98667 81.5333 7.8 82.52 7.8ZM97.4722 7.8C98.7255 7.8 99.8189 8.04667 100.752 8.54C101.686 9.03333 102.406 9.76667 102.912 10.74C103.432 11.7 103.692 12.8667 103.692 14.24V22H101.092V18.4H93.8122V22H91.2522V14.24C91.2522 12.8667 91.5055 11.7 92.0122 10.74C92.5322 9.76667 93.2589 9.03333 94.1922 8.54C95.1255 8.04667 96.2189 7.8 97.4722 7.8ZM101.092 16.22V14C101.092 12.7067 100.772 11.7333 100.132 11.08C99.4922 10.4133 98.5989 10.08 97.4522 10.08C96.3055 10.08 95.4122 10.4133 94.7722 11.08C94.1322 11.7333 93.8122 12.7067 93.8122 14V16.22H101.092ZM113.809 22.2C112.396 22.2 111.116 21.8933 109.969 21.28C108.836 20.6533 107.943 19.7933 107.289 18.7C106.649 17.6067 106.329 16.3733 106.329 15C106.329 13.6267 106.656 12.3933 107.309 11.3C107.963 10.2067 108.856 9.35333 109.989 8.74C111.136 8.11333 112.416 7.8 113.829 7.8C114.976 7.8 116.023 8 116.969 8.4C117.916 8.8 118.716 9.38 119.369 10.14L117.689 11.72C116.676 10.6267 115.429 10.08 113.949 10.08C112.989 10.08 112.129 10.2933 111.369 10.72C110.609 11.1333 110.016 11.7133 109.589 12.46C109.163 13.2067 108.949 14.0533 108.949 15C108.949 15.9467 109.163 16.7933 109.589 17.54C110.016 18.2867 110.609 18.8733 111.369 19.3C112.129 19.7133 112.989 19.92 113.949 19.92C115.429 19.92 116.676 19.3667 117.689 18.26L119.369 19.86C118.716 20.62 117.909 21.2 116.949 21.6C116.003 22 114.956 22.2 113.809 22.2ZM127.96 7.8C129.214 7.8 130.307 8.04667 131.24 8.54C132.174 9.03333 132.894 9.76667 133.4 10.74C133.92 11.7 134.18 12.8667 134.18 14.24V22H131.58V18.4H124.3V22H121.74V14.24C121.74 12.8667 121.994 11.7 122.5 10.74C123.02 9.76667 123.747 9.03333 124.68 8.54C125.614 8.04667 126.707 7.8 127.96 7.8ZM131.58 16.22V14C131.58 12.7067 131.26 11.7333 130.62 11.08C129.98 10.4133 129.087 10.08 127.94 10.08C126.794 10.08 125.9 10.4133 125.26 11.08C124.62 11.7333 124.3 12.7067 124.3 14V16.22H131.58ZM146.978 22L144.118 17.9C143.998 17.9133 143.818 17.92 143.578 17.92H140.418V22H137.818V8H143.578C144.791 8 145.844 8.2 146.738 8.6C147.644 9 148.338 9.57333 148.818 10.32C149.298 11.0667 149.538 11.9533 149.538 12.98C149.538 14.0333 149.278 14.94 148.758 15.7C148.251 16.46 147.518 17.0267 146.558 17.4L149.778 22H146.978ZM146.918 12.98C146.918 12.0867 146.624 11.4 146.037 10.92C145.451 10.44 144.591 10.2 143.458 10.2H140.418V15.78H143.458C144.591 15.78 145.451 15.54 146.037 15.06C146.624 14.5667 146.918 13.8733 146.918 12.98ZM161.606 22L158.746 17.9C158.626 17.9133 158.446 17.92 158.206 17.92H155.046V22H152.446V8H158.206C159.42 8 160.473 8.2 161.366 8.6C162.273 9 162.966 9.57333 163.446 10.32C163.926 11.0667 164.166 11.9533 164.166 12.98C164.166 14.0333 163.906 14.94 163.386 15.7C162.88 16.46 162.146 17.0267 161.186 17.4L164.406 22H161.606ZM161.546 12.98C161.546 12.0867 161.253 11.4 160.666 10.92C160.08 10.44 159.22 10.2 158.086 10.2H155.046V15.78H158.086C159.22 15.78 160.08 15.54 160.666 15.06C161.253 14.5667 161.546 13.8733 161.546 12.98ZM173.175 7.8C174.429 7.8 175.522 8.04667 176.455 8.54C177.389 9.03333 178.109 9.76667 178.615 10.74C179.135 11.7 179.395 12.8667 179.395 14.24V22H176.795V18.4H169.515V22H166.955V14.24C166.955 12.8667 167.209 11.7 167.715 10.74C168.235 9.76667 168.962 9.03333 169.895 8.54C170.829 8.04667 171.922 7.8 173.175 7.8ZM176.795 16.22V14C176.795 12.7067 176.475 11.7333 175.835 11.08C175.195 10.4133 174.302 10.08 173.155 10.08C172.009 10.08 171.115 10.4133 170.475 11.08C169.835 11.7333 169.515 12.7067 169.515 14V16.22H176.795ZM174.615 6.86C174.282 6.86 173.989 6.79333 173.735 6.66C173.495 6.52667 173.195 6.32667 172.835 6.06C172.622 5.88667 172.442 5.76 172.295 5.68C172.162 5.58667 172.029 5.54 171.895 5.54C171.615 5.54 171.382 5.64667 171.195 5.86C171.022 6.07333 170.929 6.36667 170.915 6.74H169.575C169.589 5.92667 169.789 5.28 170.175 4.8C170.575 4.30667 171.095 4.06 171.735 4.06C172.069 4.06 172.355 4.12667 172.595 4.26C172.849 4.39333 173.155 4.59333 173.515 4.86C173.729 5.03333 173.902 5.16667 174.035 5.26C174.182 5.34 174.322 5.38 174.455 5.38C174.735 5.38 174.962 5.28 175.135 5.08C175.322 4.88 175.422 4.6 175.435 4.24H176.775C176.749 5.02667 176.542 5.66 176.155 6.14C175.769 6.62 175.255 6.86 174.615 6.86ZM189.572 22.2C188.146 22.2 186.859 21.8933 185.712 21.28C184.566 20.6533 183.666 19.7933 183.012 18.7C182.359 17.5933 182.032 16.36 182.032 15C182.032 13.64 182.359 12.4133 183.012 11.32C183.666 10.2133 184.566 9.35333 185.712 8.74C186.859 8.11333 188.146 7.8 189.572 7.8C190.999 7.8 192.286 8.11333 193.432 8.74C194.579 9.35333 195.479 10.2067 196.132 11.3C196.786 12.3933 197.112 13.6267 197.112 15C197.112 16.3733 196.786 17.6067 196.132 18.7C195.479 19.7933 194.579 20.6533 193.432 21.28C192.286 21.8933 190.999 22.2 189.572 22.2ZM189.572 19.92C190.506 19.92 191.346 19.7133 192.092 19.3C192.839 18.8733 193.426 18.2867 193.852 17.54C194.279 16.78 194.492 15.9333 194.492 15C194.492 14.0667 194.279 13.2267 193.852 12.48C193.426 11.72 192.839 11.1333 192.092 10.72C191.346 10.2933 190.506 10.08 189.572 10.08C188.639 10.08 187.799 10.2933 187.052 10.72C186.306 11.1333 185.719 11.72 185.292 12.48C184.866 13.2267 184.652 14.0667 184.652 15C184.652 15.9333 184.866 16.78 185.292 17.54C185.719 18.2867 186.306 18.8733 187.052 19.3C187.799 19.7133 188.639 19.92 189.572 19.92Z" fill="white"/>
</svg>
