<svg width="250" height="46" viewBox="0 0 250 46" fill="none" xmlns="http://www.w3.org/2000/svg">
<path d="M41 1V45H1V1H41Z" fill="white" stroke="black" stroke-width="2"/>
<path d="M249 1V28H54V1H249Z" fill="#0033CC" stroke="black" stroke-width="2"/>
<path d="M54 1V28H41V1H54Z" fill="#FFCC00" stroke="black" stroke-width="2"/>
<path d="M41 1V28H23V1H41Z" fill="#FF6600" stroke="black" stroke-width="2"/>
<path d="M66.88 8H69.48V19.8H76.8V22H66.88V8ZM85.1388 22.2C83.7121 22.2 82.4254 21.8933 81.2788 21.28C80.1321 20.6533 79.2321 19.7933 78.5788 18.7C77.9254 17.5933 77.5988 16.36 77.5988 15C77.5988 13.64 77.9254 12.4133 78.5788 11.32C79.2321 10.2133 80.1321 9.35333 81.2788 8.74C82.4254 8.11333 83.7121 7.8 85.1388 7.8C86.5654 7.8 87.8521 8.11333 88.9988 8.74C90.1454 9.35333 91.0454 10.2067 91.6988 11.3C92.3521 12.3933 92.6788 13.6267 92.6788 15C92.6788 16.3733 92.3521 17.6067 91.6988 18.7C91.0454 19.7933 90.1454 20.6533 88.9988 21.28C87.8521 21.8933 86.5654 22.2 85.1388 22.2ZM85.1388 19.92C86.0721 19.92 86.9121 19.7133 87.6588 19.3C88.4054 18.8733 88.9921 18.2867 89.4188 17.54C89.8454 16.78 90.0588 15.9333 90.0588 15C90.0588 14.0667 89.8454 13.2267 89.4188 12.48C88.9921 11.72 88.4054 11.1333 87.6588 10.72C86.9121 10.2933 86.0721 10.08 85.1388 10.08C84.2054 10.08 83.3654 10.2933 82.6188 10.72C81.8721 11.1333 81.2854 11.72 80.8588 12.48C80.4321 13.2267 80.2188 14.0667 80.2188 15C80.2188 15.9333 80.4321 16.78 80.8588 17.54C81.2854 18.2867 81.8721 18.8733 82.6188 19.3C83.3654 19.7133 84.2054 19.92 85.1388 19.92ZM96.9492 24.2C96.0692 24.2 95.2559 24.0267 94.5092 23.68C93.7759 23.3333 93.1692 22.8333 92.6892 22.18L94.1292 20.4C94.8892 21.4667 95.8026 22 96.8692 22C98.3492 22 99.0892 21.14 99.0892 19.42V10.18H94.0892V8H101.669V19.28C101.669 20.92 101.269 22.1467 100.469 22.96C99.6692 23.7867 98.4959 24.2 96.9492 24.2ZM111.418 7.8C112.671 7.8 113.764 8.04667 114.698 8.54C115.631 9.03333 116.351 9.76667 116.858 10.74C117.378 11.7 117.638 12.8667 117.638 14.24V22H115.038V18.4H107.758V22H105.198V14.24C105.198 12.8667 105.451 11.7 105.958 10.74C106.478 9.76667 107.204 9.03333 108.138 8.54C109.071 8.04667 110.164 7.8 111.418 7.8ZM115.038 16.22V14C115.038 12.7067 114.718 11.7333 114.078 11.08C113.438 10.4133 112.544 10.08 111.398 10.08C110.251 10.08 109.358 10.4133 108.717 11.08C108.078 11.7333 107.758 12.7067 107.758 14V16.22H115.038ZM126.802 8H132.922C134.415 8 135.742 8.29333 136.902 8.88C138.062 9.45333 138.962 10.2733 139.602 11.34C140.242 12.3933 140.562 13.6133 140.562 15C140.562 16.3867 140.242 17.6133 139.602 18.68C138.962 19.7333 138.062 20.5533 136.902 21.14C135.742 21.7133 134.415 22 132.922 22H126.802V8ZM132.802 19.8C133.829 19.8 134.729 19.6067 135.502 19.22C136.289 18.82 136.889 18.26 137.302 17.54C137.729 16.8067 137.942 15.96 137.942 15C137.942 14.04 137.729 13.2 137.302 12.48C136.889 11.7467 136.289 11.1867 135.502 10.8C134.729 10.4 133.829 10.2 132.802 10.2H129.402V19.8H132.802ZM154.245 20.66C153.619 21.1533 152.812 21.5333 151.825 21.8C150.839 22.0667 149.772 22.2 148.625 22.2C147.279 22.2 146.132 22.0267 145.185 21.68C144.252 21.3333 143.545 20.8533 143.065 20.24C142.585 19.6267 142.345 18.92 142.345 18.12C142.345 17.3467 142.559 16.6733 142.985 16.1C143.412 15.5267 143.985 15.1067 144.705 14.84C144.159 14.5467 143.725 14.14 143.405 13.62C143.099 13.0867 142.945 12.4933 142.945 11.84C142.945 11.0933 143.165 10.42 143.605 9.82C144.059 9.20667 144.732 8.72 145.625 8.36C146.519 7.98667 147.619 7.8 148.925 7.8C149.805 7.8 150.665 7.89333 151.505 8.08C152.345 8.26667 153.079 8.52 153.705 8.84L152.965 10.9C151.792 10.2867 150.479 9.98 149.025 9.98C147.879 9.98 147.012 10.1667 146.425 10.54C145.852 10.9 145.565 11.3867 145.565 12C145.565 12.6 145.779 13.06 146.205 13.38C146.632 13.6867 147.259 13.84 148.085 13.84H151.785V16H147.945C146.999 16 146.265 16.1667 145.745 16.5C145.225 16.82 144.965 17.3 144.965 17.94C144.965 18.58 145.279 19.0867 145.905 19.46C146.532 19.8333 147.479 20.02 148.745 20.02C149.625 20.02 150.479 19.9 151.305 19.66C152.145 19.42 152.845 19.0867 153.405 18.66L154.245 20.66ZM171.678 11.48C170.358 10.7333 168.985 10.28 167.558 10.12V22H164.958V10.12C163.518 10.28 162.138 10.7333 160.818 11.48L159.918 9.48C160.851 8.92 161.851 8.5 162.918 8.22C163.998 7.94 165.105 7.8 166.238 7.8C167.371 7.8 168.478 7.94 169.558 8.22C170.638 8.5 171.645 8.92 172.578 9.48L171.678 11.48ZM178.402 10.18V19.82H180.982V22H173.242V19.82H175.822V10.18H173.242V8H180.982V10.18H178.402ZM190.637 7.8C192.317 7.8 193.624 8.31333 194.557 9.34C195.504 10.3667 195.977 11.8333 195.977 13.74V22H193.377V13.84C193.377 12.6 193.077 11.6667 192.477 11.04C191.89 10.4 191.07 10.08 190.017 10.08C188.87 10.08 187.957 10.42 187.277 11.1C186.61 11.7667 186.277 12.7667 186.277 14.1V22H183.677V8H186.197V9.76C187.17 8.45333 188.65 7.8 190.637 7.8ZM209.334 11.48C208.014 10.7333 206.641 10.28 205.214 10.12V22H202.614V10.12C201.174 10.28 199.794 10.7333 198.474 11.48L197.574 9.48C198.508 8.92 199.508 8.5 200.574 8.22C201.654 7.94 202.761 7.8 203.894 7.8C205.028 7.8 206.134 7.94 207.214 8.22C208.294 8.5 209.301 8.92 210.234 9.48L209.334 11.48ZM217.863 7.8C219.116 7.8 220.209 8.04667 221.143 8.54C222.076 9.03333 222.796 9.76667 223.303 10.74C223.823 11.7 224.083 12.8667 224.083 14.24V22H221.483V18.4H214.203V22H211.643V14.24C211.643 12.8667 211.896 11.7 212.403 10.74C212.923 9.76667 213.649 9.03333 214.583 8.54C215.516 8.04667 216.609 7.8 217.863 7.8ZM221.483 16.22V14C221.483 12.7067 221.163 11.7333 220.523 11.08C219.883 10.4133 218.989 10.08 217.843 10.08C216.696 10.08 215.803 10.4133 215.163 11.08C214.523 11.7333 214.203 12.7067 214.203 14V16.22H221.483ZM232.06 22.2C230.98 22.2 229.933 22.0467 228.92 21.74C227.92 21.4333 227.127 21.0267 226.54 20.52L227.44 18.5C228.013 18.9533 228.713 19.3267 229.54 19.62C230.38 19.9 231.22 20.04 232.06 20.04C233.1 20.04 233.873 19.8733 234.38 19.54C234.9 19.2067 235.16 18.7667 235.16 18.22C235.16 17.82 235.013 17.4933 234.72 17.24C234.44 16.9733 234.08 16.7667 233.64 16.62C233.2 16.4733 232.6 16.3067 231.84 16.12C230.773 15.8667 229.907 15.6133 229.24 15.36C228.587 15.1067 228.02 14.7133 227.54 14.18C227.073 13.6333 226.84 12.9 226.84 11.98C226.84 11.2067 227.047 10.5067 227.46 9.88C227.887 9.24 228.52 8.73333 229.36 8.36C230.213 7.98667 231.253 7.8 232.48 7.8C233.333 7.8 234.173 7.90667 235 8.12C235.827 8.33333 236.54 8.64 237.14 9.04L236.32 11.06C235.707 10.7 235.067 10.4267 234.4 10.24C233.733 10.0533 233.087 9.96 232.46 9.96C231.433 9.96 230.667 10.1333 230.16 10.48C229.667 10.8267 229.42 11.2867 229.42 11.86C229.42 12.26 229.56 12.5867 229.84 12.84C230.133 13.0933 230.5 13.2933 230.94 13.44C231.38 13.5867 231.98 13.7533 232.74 13.94C233.78 14.18 234.633 14.4333 235.3 14.7C235.967 14.9533 236.533 15.3467 237 15.88C237.48 16.4133 237.72 17.1333 237.72 18.04C237.72 18.8133 237.507 19.5133 237.08 20.14C236.667 20.7667 236.033 21.2667 235.18 21.64C234.327 22.0133 233.287 22.2 232.06 22.2Z" fill="white"/>
</svg>
