<svg width="364" height="46" viewBox="0 0 364 46" fill="none" xmlns="http://www.w3.org/2000/svg">
<path d="M41 1V45H1V1H41Z" fill="white" stroke="black" stroke-width="2"/>
<path d="M363 1V28H54V1H363Z" fill="#0033CC" stroke="black" stroke-width="2"/>
<path d="M54 1V28H41V1H54Z" fill="#FFCC00" stroke="black" stroke-width="2"/>
<path d="M41 1V28H23V1H41Z" fill="#FF6600" stroke="black" stroke-width="2"/>
<path d="M73.42 22.2C71.9933 22.2 70.7067 21.8933 69.56 21.28C68.4133 20.6533 67.5133 19.7933 66.86 18.7C66.2067 17.5933 65.88 16.36 65.88 15C65.88 13.64 66.2067 12.4133 66.86 11.32C67.5133 10.2133 68.4133 9.35333 69.56 8.74C70.7067 8.11333 71.9933 7.8 73.42 7.8C74.8467 7.8 76.1333 8.11333 77.28 8.74C78.4267 9.35333 79.3267 10.2067 79.98 11.3C80.6333 12.3933 80.96 13.6267 80.96 15C80.96 16.3733 80.6333 17.6067 79.98 18.7C79.3267 19.7933 78.4267 20.6533 77.28 21.28C76.1333 21.8933 74.8467 22.2 73.42 22.2ZM73.42 19.92C74.3533 19.92 75.1933 19.7133 75.94 19.3C76.6867 18.8733 77.2733 18.2867 77.7 17.54C78.1267 16.78 78.34 15.9333 78.34 15C78.34 14.0667 78.1267 13.2267 77.7 12.48C77.2733 11.72 76.6867 11.1333 75.94 10.72C75.1933 10.2933 74.3533 10.08 73.42 10.08C72.4867 10.08 71.6467 10.2933 70.9 10.72C70.1533 11.1333 69.5667 11.72 69.14 12.48C68.7133 13.2267 68.5 14.0667 68.5 15C68.5 15.9333 68.7133 16.78 69.14 17.54C69.5667 18.2867 70.1533 18.8733 70.9 19.3C71.6467 19.7133 72.4867 19.92 73.42 19.92ZM89.4759 8C90.6893 8 91.7426 8.2 92.6359 8.6C93.5426 9 94.2359 9.57333 94.7159 10.32C95.1959 11.0667 95.4359 11.9533 95.4359 12.98C95.4359 13.9933 95.1959 14.88 94.7159 15.64C94.2359 16.3867 93.5426 16.96 92.6359 17.36C91.7426 17.76 90.6893 17.96 89.4759 17.96H86.3159V22H83.7159V8H89.4759ZM89.3559 15.76C90.4893 15.76 91.3493 15.52 91.9359 15.04C92.5226 14.56 92.8159 13.8733 92.8159 12.98C92.8159 12.0867 92.5226 11.4 91.9359 10.92C91.3493 10.44 90.4893 10.2 89.3559 10.2H86.3159V15.76H89.3559ZM109.05 20.66C108.423 21.1533 107.617 21.5333 106.63 21.8C105.643 22.0667 104.577 22.2 103.43 22.2C102.083 22.2 100.937 22.0267 99.99 21.68C99.0567 21.3333 98.35 20.8533 97.87 20.24C97.39 19.6267 97.15 18.92 97.15 18.12C97.15 17.3467 97.3633 16.6733 97.79 16.1C98.2167 15.5267 98.79 15.1067 99.51 14.84C98.9633 14.5467 98.53 14.14 98.21 13.62C97.9033 13.0867 97.75 12.4933 97.75 11.84C97.75 11.0933 97.97 10.42 98.41 9.82C98.8633 9.20667 99.5367 8.72 100.43 8.36C101.323 7.98667 102.423 7.8 103.73 7.8C104.61 7.8 105.47 7.89333 106.31 8.08C107.15 8.26667 107.883 8.52 108.51 8.84L107.77 10.9C106.597 10.2867 105.283 9.98 103.83 9.98C102.683 9.98 101.817 10.1667 101.23 10.54C100.657 10.9 100.37 11.3867 100.37 12C100.37 12.6 100.583 13.06 101.01 13.38C101.437 13.6867 102.063 13.84 102.89 13.84H106.59V16H102.75C101.803 16 101.07 16.1667 100.55 16.5C100.03 16.82 99.77 17.3 99.77 17.94C99.77 18.58 100.083 19.0867 100.71 19.46C101.337 19.8333 102.283 20.02 103.55 20.02C104.43 20.02 105.283 19.9 106.11 19.66C106.95 19.42 107.65 19.0867 108.21 18.66L109.05 20.66ZM120.395 22L117.535 17.9C117.415 17.9133 117.235 17.92 116.995 17.92H113.835V22H111.235V8H116.995C118.209 8 119.262 8.2 120.155 8.6C121.062 9 121.755 9.57333 122.235 10.32C122.715 11.0667 122.955 11.9533 122.955 12.98C122.955 14.0333 122.695 14.94 122.175 15.7C121.669 16.46 120.935 17.0267 119.975 17.4L123.195 22H120.395ZM120.335 12.98C120.335 12.0867 120.042 11.4 119.455 10.92C118.869 10.44 118.009 10.2 116.875 10.2H113.835V15.78H116.875C118.009 15.78 118.869 15.54 119.455 15.06C120.042 14.5667 120.335 13.8733 120.335 12.98ZM131.964 7.8C133.218 7.8 134.311 8.04667 135.244 8.54C136.178 9.03333 136.898 9.76667 137.404 10.74C137.924 11.7 138.184 12.8667 138.184 14.24V22H135.584V18.4H128.304V22H125.744V14.24C125.744 12.8667 125.998 11.7 126.504 10.74C127.024 9.76667 127.751 9.03333 128.684 8.54C129.618 8.04667 130.711 7.8 131.964 7.8ZM135.584 16.22V14C135.584 12.7067 135.264 11.7333 134.624 11.08C133.984 10.4133 133.091 10.08 131.944 10.08C130.798 10.08 129.904 10.4133 129.264 11.08C128.624 11.7333 128.304 12.7067 128.304 14V16.22H135.584ZM141.821 8H147.941C149.435 8 150.761 8.29333 151.921 8.88C153.081 9.45333 153.981 10.2733 154.621 11.34C155.261 12.3933 155.581 13.6133 155.581 15C155.581 16.3867 155.261 17.6133 154.621 18.68C153.981 19.7333 153.081 20.5533 151.921 21.14C150.761 21.7133 149.435 22 147.941 22H141.821V8ZM147.821 19.8C148.848 19.8 149.748 19.6067 150.521 19.22C151.308 18.82 151.908 18.26 152.321 17.54C152.748 16.8067 152.961 15.96 152.961 15C152.961 14.04 152.748 13.2 152.321 12.48C151.908 11.7467 151.308 11.1867 150.521 10.8C149.748 10.4 148.848 10.2 147.821 10.2H144.421V19.8H147.821ZM164.885 22.2C163.458 22.2 162.172 21.8933 161.025 21.28C159.878 20.6533 158.978 19.7933 158.325 18.7C157.672 17.5933 157.345 16.36 157.345 15C157.345 13.64 157.672 12.4133 158.325 11.32C158.978 10.2133 159.878 9.35333 161.025 8.74C162.172 8.11333 163.458 7.8 164.885 7.8C166.312 7.8 167.598 8.11333 168.745 8.74C169.892 9.35333 170.792 10.2067 171.445 11.3C172.098 12.3933 172.425 13.6267 172.425 15C172.425 16.3733 172.098 17.6067 171.445 18.7C170.792 19.7933 169.892 20.6533 168.745 21.28C167.598 21.8933 166.312 22.2 164.885 22.2ZM164.885 19.92C165.818 19.92 166.658 19.7133 167.405 19.3C168.152 18.8733 168.738 18.2867 169.165 17.54C169.592 16.78 169.805 15.9333 169.805 15C169.805 14.0667 169.592 13.2267 169.165 12.48C168.738 11.72 168.152 11.1333 167.405 10.72C166.658 10.2933 165.818 10.08 164.885 10.08C163.952 10.08 163.112 10.2933 162.365 10.72C161.618 11.1333 161.032 11.72 160.605 12.48C160.178 13.2267 159.965 14.0667 159.965 15C159.965 15.9333 160.178 16.78 160.605 17.54C161.032 18.2867 161.618 18.8733 162.365 19.3C163.112 19.7133 163.952 19.92 164.885 19.92ZM184.341 22L181.481 17.9C181.361 17.9133 181.181 17.92 180.941 17.92H177.781V22H175.181V8H180.941C182.154 8 183.207 8.2 184.101 8.6C185.007 9 185.701 9.57333 186.181 10.32C186.661 11.0667 186.901 11.9533 186.901 12.98C186.901 14.0333 186.641 14.94 186.121 15.7C185.614 16.46 184.881 17.0267 183.921 17.4L187.141 22H184.341ZM184.281 12.98C184.281 12.0867 183.987 11.4 183.401 10.92C182.814 10.44 181.954 10.2 180.821 10.2H177.781V15.78H180.821C181.954 15.78 182.814 15.54 183.401 15.06C183.987 14.5667 184.281 13.8733 184.281 12.98ZM195.91 7.8C197.163 7.8 198.256 8.04667 199.19 8.54C200.123 9.03333 200.843 9.76667 201.35 10.74C201.87 11.7 202.13 12.8667 202.13 14.24V22H199.53V18.4H192.25V22H189.69V14.24C189.69 12.8667 189.943 11.7 190.45 10.74C190.97 9.76667 191.696 9.03333 192.63 8.54C193.563 8.04667 194.656 7.8 195.91 7.8ZM199.53 16.22V14C199.53 12.7067 199.21 11.7333 198.57 11.08C197.93 10.4133 197.036 10.08 195.89 10.08C194.743 10.08 193.85 10.4133 193.21 11.08C192.57 11.7333 192.25 12.7067 192.25 14V16.22H199.53ZM211.294 8H217.414C218.907 8 220.234 8.29333 221.394 8.88C222.554 9.45333 223.454 10.2733 224.094 11.34C224.734 12.3933 225.054 13.6133 225.054 15C225.054 16.3867 224.734 17.6133 224.094 18.68C223.454 19.7333 222.554 20.5533 221.394 21.14C220.234 21.7133 218.907 22 217.414 22H211.294V8ZM217.294 19.8C218.321 19.8 219.221 19.6067 219.994 19.22C220.781 18.82 221.381 18.26 221.794 17.54C222.221 16.8067 222.434 15.96 222.434 15C222.434 14.04 222.221 13.2 221.794 12.48C221.381 11.7467 220.781 11.1867 219.994 10.8C219.221 10.4 218.321 10.2 217.294 10.2H213.894V19.8H217.294ZM238.738 20.66C238.111 21.1533 237.304 21.5333 236.318 21.8C235.331 22.0667 234.264 22.2 233.118 22.2C231.771 22.2 230.624 22.0267 229.678 21.68C228.744 21.3333 228.038 20.8533 227.558 20.24C227.078 19.6267 226.838 18.92 226.838 18.12C226.838 17.3467 227.051 16.6733 227.478 16.1C227.904 15.5267 228.478 15.1067 229.198 14.84C228.651 14.5467 228.218 14.14 227.898 13.62C227.591 13.0867 227.438 12.4933 227.438 11.84C227.438 11.0933 227.658 10.42 228.098 9.82C228.551 9.20667 229.224 8.72 230.118 8.36C231.011 7.98667 232.111 7.8 233.418 7.8C234.298 7.8 235.158 7.89333 235.998 8.08C236.838 8.26667 237.571 8.52 238.198 8.84L237.458 10.9C236.284 10.2867 234.971 9.98 233.518 9.98C232.371 9.98 231.504 10.1667 230.918 10.54C230.344 10.9 230.058 11.3867 230.058 12C230.058 12.6 230.271 13.06 230.698 13.38C231.124 13.6867 231.751 13.84 232.578 13.84H236.278V16H232.438C231.491 16 230.758 16.1667 230.238 16.5C229.718 16.82 229.458 17.3 229.458 17.94C229.458 18.58 229.771 19.0867 230.398 19.46C231.024 19.8333 231.971 20.02 233.238 20.02C234.118 20.02 234.971 19.9 235.798 19.66C236.638 19.42 237.338 19.0867 237.898 18.66L238.738 20.66ZM250.55 10.18V19.82H253.13V22H245.39V19.82H247.97V10.18H245.39V8H253.13V10.18H250.55ZM262.785 7.8C264.465 7.8 265.772 8.31333 266.705 9.34C267.652 10.3667 268.125 11.8333 268.125 13.74V22H265.525V13.84C265.525 12.6 265.225 11.6667 264.625 11.04C264.039 10.4 263.219 10.08 262.165 10.08C261.019 10.08 260.105 10.42 259.425 11.1C258.759 11.7667 258.425 12.7667 258.425 14.1V22H255.825V8H258.345V9.76C259.319 8.45333 260.799 7.8 262.785 7.8ZM281.483 11.48C280.163 10.7333 278.789 10.28 277.363 10.12V22H274.763V10.12C273.323 10.28 271.943 10.7333 270.623 11.48L269.723 9.48C270.656 8.92 271.656 8.5 272.723 8.22C273.803 7.94 274.909 7.8 276.043 7.8C277.176 7.8 278.283 7.94 279.363 8.22C280.443 8.5 281.449 8.92 282.383 9.48L281.483 11.48ZM294.831 20.66C294.205 21.1533 293.398 21.5333 292.411 21.8C291.425 22.0667 290.358 22.2 289.211 22.2C287.865 22.2 286.718 22.0267 285.771 21.68C284.838 21.3333 284.131 20.8533 283.651 20.24C283.171 19.6267 282.931 18.92 282.931 18.12C282.931 17.3467 283.145 16.6733 283.571 16.1C283.998 15.5267 284.571 15.1067 285.291 14.84C284.745 14.5467 284.311 14.14 283.991 13.62C283.685 13.0867 283.531 12.4933 283.531 11.84C283.531 11.0933 283.751 10.42 284.191 9.82C284.645 9.20667 285.318 8.72 286.211 8.36C287.105 7.98667 288.205 7.8 289.511 7.8C290.391 7.8 291.251 7.89333 292.091 8.08C292.931 8.26667 293.665 8.52 294.291 8.84L293.551 10.9C292.378 10.2867 291.065 9.98 289.611 9.98C288.465 9.98 287.598 10.1667 287.011 10.54C286.438 10.9 286.151 11.3867 286.151 12C286.151 12.6 286.365 13.06 286.791 13.38C287.218 13.6867 287.845 13.84 288.671 13.84H292.371V16H288.531C287.585 16 286.851 16.1667 286.331 16.5C285.811 16.82 285.551 17.3 285.551 17.94C285.551 18.58 285.865 19.0867 286.491 19.46C287.118 19.8333 288.065 20.02 289.331 20.02C290.211 20.02 291.065 19.9 291.891 19.66C292.731 19.42 293.431 19.0867 293.991 18.66L294.831 20.66ZM306.177 22L303.317 17.9C303.197 17.9133 303.017 17.92 302.777 17.92H299.617V22H297.017V8H302.777C303.99 8 305.043 8.2 305.937 8.6C306.843 9 307.537 9.57333 308.017 10.32C308.497 11.0667 308.737 11.9533 308.737 12.98C308.737 14.0333 308.477 14.94 307.957 15.7C307.45 16.46 306.717 17.0267 305.757 17.4L308.977 22H306.177ZM306.117 12.98C306.117 12.0867 305.823 11.4 305.237 10.92C304.65 10.44 303.79 10.2 302.657 10.2H299.617V15.78H302.657C303.79 15.78 304.65 15.54 305.237 15.06C305.823 14.5667 306.117 13.8733 306.117 12.98ZM318.606 7.8C320.286 7.8 321.592 8.31333 322.526 9.34C323.472 10.3667 323.946 11.8333 323.946 13.74V22H321.346V13.84C321.346 12.6 321.046 11.6667 320.446 11.04C319.859 10.4 319.039 10.08 317.986 10.08C316.839 10.08 315.926 10.42 315.246 11.1C314.579 11.7667 314.246 12.7667 314.246 14.1V22H311.646V8H314.166V9.76C315.139 8.45333 316.619 7.8 318.606 7.8ZM338.503 20.66C337.876 21.1533 337.07 21.5333 336.083 21.8C335.096 22.0667 334.03 22.2 332.883 22.2C331.536 22.2 330.39 22.0267 329.443 21.68C328.51 21.3333 327.803 20.8533 327.323 20.24C326.843 19.6267 326.603 18.92 326.603 18.12C326.603 17.3467 326.816 16.6733 327.243 16.1C327.67 15.5267 328.243 15.1067 328.963 14.84C328.416 14.5467 327.983 14.14 327.663 13.62C327.356 13.0867 327.203 12.4933 327.203 11.84C327.203 11.0933 327.423 10.42 327.863 9.82C328.316 9.20667 328.99 8.72 329.883 8.36C330.776 7.98667 331.876 7.8 333.183 7.8C334.063 7.8 334.923 7.89333 335.763 8.08C336.603 8.26667 337.336 8.52 337.963 8.84L337.223 10.9C336.05 10.2867 334.736 9.98 333.283 9.98C332.136 9.98 331.27 10.1667 330.683 10.54C330.11 10.9 329.823 11.3867 329.823 12C329.823 12.6 330.036 13.06 330.463 13.38C330.89 13.6867 331.516 13.84 332.343 13.84H336.043V16H332.203C331.256 16 330.523 16.1667 330.003 16.5C329.483 16.82 329.223 17.3 329.223 17.94C329.223 18.58 329.536 19.0867 330.163 19.46C330.79 19.8333 331.736 20.02 333.003 20.02C333.883 20.02 334.736 19.9 335.563 19.66C336.403 19.42 337.103 19.0867 337.663 18.66L338.503 20.66ZM350.311 11.48C348.991 10.7333 347.618 10.28 346.191 10.12V22H343.591V10.12C342.151 10.28 340.771 10.7333 339.451 11.48L338.551 9.48C339.484 8.92 340.484 8.5 341.551 8.22C342.631 7.94 343.738 7.8 344.871 7.8C346.004 7.8 347.111 7.94 348.191 8.22C349.271 8.5 350.278 8.92 351.211 9.48L350.311 11.48Z" fill="white"/>
</svg>
