<svg width="262" height="46" viewBox="0 0 262 46" fill="none" xmlns="http://www.w3.org/2000/svg">
<path d="M41 1V45H1V1H41Z" fill="white" stroke="black" stroke-width="2"/>
<path d="M261 1V28H54V1H261Z" fill="#0033CC" stroke="black" stroke-width="2"/>
<path d="M54 1V28H41V1H54Z" fill="#FFCC00" stroke="black" stroke-width="2"/>
<path d="M41 1V28H23V1H41Z" fill="#FF6600" stroke="black" stroke-width="2"/>
<path d="M71.22 22.2C70.14 22.2 69.0933 22.0467 68.08 21.74C67.08 21.4333 66.2867 21.0267 65.7 20.52L66.6 18.5C67.1733 18.9533 67.8733 19.3267 68.7 19.62C69.54 19.9 70.38 20.04 71.22 20.04C72.26 20.04 73.0333 19.8733 73.54 19.54C74.06 19.2067 74.32 18.7667 74.32 18.22C74.32 17.82 74.1733 17.4933 73.88 17.24C73.6 16.9733 73.24 16.7667 72.8 16.62C72.36 16.4733 71.76 16.3067 71 16.12C69.9333 15.8667 69.0667 15.6133 68.4 15.36C67.7467 15.1067 67.18 14.7133 66.7 14.18C66.2333 13.6333 66 12.9 66 11.98C66 11.2067 66.2067 10.5067 66.62 9.88C67.0467 9.24 67.68 8.73333 68.52 8.36C69.3733 7.98667 70.4133 7.8 71.64 7.8C72.4933 7.8 73.3333 7.90667 74.16 8.12C74.9867 8.33333 75.7 8.64 76.3 9.04L75.48 11.06C74.8667 10.7 74.2267 10.4267 73.56 10.24C72.8933 10.0533 72.2467 9.96 71.62 9.96C70.5933 9.96 69.8267 10.1333 69.32 10.48C68.8267 10.8267 68.58 11.2867 68.58 11.86C68.58 12.26 68.72 12.5867 69 12.84C69.2933 13.0933 69.66 13.2933 70.1 13.44C70.54 13.5867 71.14 13.7533 71.9 13.94C72.94 14.18 73.7933 14.4333 74.46 14.7C75.1267 14.9533 75.6933 15.3467 76.16 15.88C76.64 16.4133 76.88 17.1333 76.88 18.04C76.88 18.8133 76.6667 19.5133 76.24 20.14C75.8267 20.7667 75.1933 21.2667 74.34 21.64C73.4867 22.0133 72.4467 22.2 71.22 22.2ZM91.5581 8V22H89.0581V20.22C88.1115 21.54 86.6448 22.2 84.6581 22.2C83.0048 22.2 81.7048 21.6867 80.7581 20.66C79.8115 19.62 79.3381 18.1533 79.3381 16.26V8H81.9381V16.16C81.9381 17.4 82.2315 18.34 82.8181 18.98C83.4181 19.6067 84.2381 19.92 85.2781 19.92C86.3981 19.92 87.2915 19.5867 87.9581 18.92C88.6248 18.24 88.9581 17.2333 88.9581 15.9V8H91.5581ZM101.078 8C102.291 8 103.344 8.2 104.238 8.6C105.144 9 105.838 9.57333 106.318 10.32C106.798 11.0667 107.038 11.9533 107.038 12.98C107.038 13.9933 106.798 14.88 106.318 15.64C105.838 16.3867 105.144 16.96 104.238 17.36C103.344 17.76 102.291 17.96 101.078 17.96H97.9175V22H95.3175V8H101.078ZM100.958 15.76C102.091 15.76 102.951 15.52 103.537 15.04C104.124 14.56 104.418 13.8733 104.418 12.98C104.418 12.0867 104.124 11.4 103.537 10.92C102.951 10.44 102.091 10.2 100.958 10.2H97.9175V15.76H100.958ZM120.652 20.66C120.025 21.1533 119.218 21.5333 118.232 21.8C117.245 22.0667 116.178 22.2 115.032 22.2C113.685 22.2 112.538 22.0267 111.592 21.68C110.658 21.3333 109.952 20.8533 109.472 20.24C108.992 19.6267 108.752 18.92 108.752 18.12C108.752 17.3467 108.965 16.6733 109.392 16.1C109.818 15.5267 110.392 15.1067 111.112 14.84C110.565 14.5467 110.132 14.14 109.812 13.62C109.505 13.0867 109.352 12.4933 109.352 11.84C109.352 11.0933 109.572 10.42 110.012 9.82C110.465 9.20667 111.138 8.72 112.032 8.36C112.925 7.98667 114.025 7.8 115.332 7.8C116.212 7.8 117.072 7.89333 117.912 8.08C118.752 8.26667 119.485 8.52 120.112 8.84L119.372 10.9C118.198 10.2867 116.885 9.98 115.432 9.98C114.285 9.98 113.418 10.1667 112.832 10.54C112.258 10.9 111.972 11.3867 111.972 12C111.972 12.6 112.185 13.06 112.612 13.38C113.038 13.6867 113.665 13.84 114.492 13.84H118.192V16H114.352C113.405 16 112.672 16.1667 112.152 16.5C111.632 16.82 111.372 17.3 111.372 17.94C111.372 18.58 111.685 19.0867 112.312 19.46C112.938 19.8333 113.885 20.02 115.152 20.02C116.032 20.02 116.885 19.9 117.712 19.66C118.552 19.42 119.252 19.0867 119.812 18.66L120.652 20.66ZM131.997 22L129.137 17.9C129.017 17.9133 128.837 17.92 128.597 17.92H125.437V22H122.837V8H128.597C129.81 8 130.864 8.2 131.757 8.6C132.664 9 133.357 9.57333 133.837 10.32C134.317 11.0667 134.557 11.9533 134.557 12.98C134.557 14.0333 134.297 14.94 133.777 15.7C133.27 16.46 132.537 17.0267 131.577 17.4L134.797 22H131.997ZM131.937 12.98C131.937 12.0867 131.644 11.4 131.057 10.92C130.47 10.44 129.61 10.2 128.477 10.2H125.437V15.78H128.477C129.61 15.78 130.47 15.54 131.057 15.06C131.644 14.5667 131.937 13.8733 131.937 12.98ZM153.106 7.8C154.746 7.8 156.026 8.28 156.946 9.24C157.866 10.1867 158.326 11.5533 158.326 13.34V22H155.726V13.44C155.726 12.3333 155.433 11.5 154.846 10.94C154.273 10.3667 153.519 10.08 152.586 10.08C151.546 10.08 150.713 10.3733 150.086 10.96C149.473 11.5467 149.166 12.4467 149.166 13.66V22H146.566V13.44C146.566 12.32 146.293 11.48 145.746 10.92C145.213 10.36 144.479 10.08 143.546 10.08C142.493 10.08 141.646 10.38 141.006 10.98C140.379 11.5667 140.066 12.46 140.066 13.66V22H137.466V8H139.986V9.84C140.413 9.18667 140.993 8.68667 141.726 8.34C142.459 7.98 143.306 7.8 144.266 7.8C145.253 7.8 146.113 7.98667 146.846 8.36C147.579 8.73333 148.133 9.26 148.506 9.94C148.973 9.26 149.606 8.73333 150.406 8.36C151.219 7.98667 152.119 7.8 153.106 7.8ZM172.878 20.66C172.251 21.1533 171.445 21.5333 170.458 21.8C169.471 22.0667 168.405 22.2 167.258 22.2C165.911 22.2 164.765 22.0267 163.818 21.68C162.885 21.3333 162.178 20.8533 161.698 20.24C161.218 19.6267 160.978 18.92 160.978 18.12C160.978 17.3467 161.191 16.6733 161.618 16.1C162.045 15.5267 162.618 15.1067 163.338 14.84C162.791 14.5467 162.358 14.14 162.038 13.62C161.731 13.0867 161.578 12.4933 161.578 11.84C161.578 11.0933 161.798 10.42 162.238 9.82C162.691 9.20667 163.365 8.72 164.258 8.36C165.151 7.98667 166.251 7.8 167.558 7.8C168.438 7.8 169.298 7.89333 170.138 8.08C170.978 8.26667 171.711 8.52 172.338 8.84L171.598 10.9C170.425 10.2867 169.111 9.98 167.658 9.98C166.511 9.98 165.645 10.1667 165.058 10.54C164.485 10.9 164.198 11.3867 164.198 12C164.198 12.6 164.411 13.06 164.838 13.38C165.265 13.6867 165.891 13.84 166.718 13.84H170.418V16H166.578C165.631 16 164.898 16.1667 164.378 16.5C163.858 16.82 163.598 17.3 163.598 17.94C163.598 18.58 163.911 19.0867 164.538 19.46C165.165 19.8333 166.111 20.02 167.378 20.02C168.258 20.02 169.111 19.9 169.938 19.66C170.778 19.42 171.478 19.0867 172.038 18.66L172.878 20.66ZM184.224 22L181.364 17.9C181.244 17.9133 181.064 17.92 180.824 17.92H177.664V22H175.064V8H180.824C182.037 8 183.09 8.2 183.984 8.6C184.89 9 185.584 9.57333 186.064 10.32C186.544 11.0667 186.784 11.9533 186.784 12.98C186.784 14.0333 186.524 14.94 186.004 15.7C185.497 16.46 184.764 17.0267 183.804 17.4L187.024 22H184.224ZM184.164 12.98C184.164 12.0867 183.87 11.4 183.284 10.92C182.697 10.44 181.837 10.2 180.704 10.2H177.664V15.78H180.704C181.837 15.78 182.697 15.54 183.284 15.06C183.87 14.5667 184.164 13.8733 184.164 12.98ZM196.173 22.2C194.759 22.2 193.479 21.8933 192.333 21.28C191.199 20.6533 190.306 19.7933 189.653 18.7C189.013 17.6067 188.693 16.3733 188.693 15C188.693 13.6267 189.019 12.3933 189.673 11.3C190.326 10.2067 191.219 9.35333 192.353 8.74C193.499 8.11333 194.779 7.8 196.193 7.8C197.339 7.8 198.386 8 199.333 8.4C200.279 8.8 201.079 9.38 201.733 10.14L200.053 11.72C199.039 10.6267 197.793 10.08 196.313 10.08C195.353 10.08 194.493 10.2933 193.733 10.72C192.973 11.1333 192.379 11.7133 191.953 12.46C191.526 13.2067 191.313 14.0533 191.313 15C191.313 15.9467 191.526 16.7933 191.953 17.54C192.379 18.2867 192.973 18.8733 193.733 19.3C194.493 19.7133 195.353 19.92 196.313 19.92C197.793 19.92 199.039 19.3667 200.053 18.26L201.733 19.86C201.079 20.62 200.273 21.2 199.313 21.6C198.366 22 197.319 22.2 196.173 22.2ZM210.324 7.8C211.577 7.8 212.67 8.04667 213.604 8.54C214.537 9.03333 215.257 9.76667 215.764 10.74C216.284 11.7 216.544 12.8667 216.544 14.24V22H213.944V18.4H206.664V22H204.104V14.24C204.104 12.8667 204.357 11.7 204.864 10.74C205.384 9.76667 206.11 9.03333 207.044 8.54C207.977 8.04667 209.07 7.8 210.324 7.8ZM213.944 16.22V14C213.944 12.7067 213.624 11.7333 212.984 11.08C212.344 10.4133 211.45 10.08 210.304 10.08C209.157 10.08 208.264 10.4133 207.624 11.08C206.984 11.7333 206.664 12.7067 206.664 14V16.22H213.944ZM220.181 8H226.301C227.794 8 229.121 8.29333 230.281 8.88C231.441 9.45333 232.341 10.2733 232.981 11.34C233.621 12.3933 233.941 13.6133 233.941 15C233.941 16.3867 233.621 17.6133 232.981 18.68C232.341 19.7333 231.441 20.5533 230.281 21.14C229.121 21.7133 227.794 22 226.301 22H220.181V8ZM226.181 19.8C227.207 19.8 228.107 19.6067 228.881 19.22C229.667 18.82 230.267 18.26 230.681 17.54C231.107 16.8067 231.321 15.96 231.321 15C231.321 14.04 231.107 13.2 230.681 12.48C230.267 11.7467 229.667 11.1867 228.881 10.8C228.107 10.4 227.207 10.2 226.181 10.2H222.781V19.8H226.181ZM243.244 22.2C241.818 22.2 240.531 21.8933 239.384 21.28C238.238 20.6533 237.338 19.7933 236.684 18.7C236.031 17.5933 235.704 16.36 235.704 15C235.704 13.64 236.031 12.4133 236.684 11.32C237.338 10.2133 238.238 9.35333 239.384 8.74C240.531 8.11333 241.818 7.8 243.244 7.8C244.671 7.8 245.958 8.11333 247.104 8.74C248.251 9.35333 249.151 10.2067 249.804 11.3C250.458 12.3933 250.784 13.6267 250.784 15C250.784 16.3733 250.458 17.6067 249.804 18.7C249.151 19.7933 248.251 20.6533 247.104 21.28C245.958 21.8933 244.671 22.2 243.244 22.2ZM243.244 19.92C244.178 19.92 245.018 19.7133 245.764 19.3C246.511 18.8733 247.098 18.2867 247.524 17.54C247.951 16.78 248.164 15.9333 248.164 15C248.164 14.0667 247.951 13.2267 247.524 12.48C247.098 11.72 246.511 11.1333 245.764 10.72C245.018 10.2933 244.178 10.08 243.244 10.08C242.311 10.08 241.471 10.2933 240.724 10.72C239.978 11.1333 239.391 11.72 238.964 12.48C238.538 13.2267 238.324 14.0667 238.324 15C238.324 15.9333 238.538 16.78 238.964 17.54C239.391 18.2867 239.978 18.8733 240.724 19.3C241.471 19.7133 242.311 19.92 243.244 19.92Z" fill="white"/>
</svg>
