<svg width="353" height="46" viewBox="0 0 353 46" fill="none" xmlns="http://www.w3.org/2000/svg">
<path d="M41 1V45H1V1H41Z" fill="white" stroke="black" stroke-width="2"/>
<path d="M352 1V28H54V1H352Z" fill="#0033CC" stroke="black" stroke-width="2"/>
<path d="M54 1V28H41V1H54Z" fill="#FFCC00" stroke="black" stroke-width="2"/>
<path d="M41 1V28H23V1H41Z" fill="#FF6600" stroke="black" stroke-width="2"/>
<path d="M72.64 8C73.8533 8 74.9067 8.2 75.8 8.6C76.7067 9 77.4 9.57333 77.88 10.32C78.36 11.0667 78.6 11.9533 78.6 12.98C78.6 13.9933 78.36 14.88 77.88 15.64C77.4 16.3867 76.7067 16.96 75.8 17.36C74.9067 17.76 73.8533 17.96 72.64 17.96H69.48V22H66.88V8H72.64ZM72.52 15.76C73.6533 15.76 74.5133 15.52 75.1 15.04C75.6867 14.56 75.98 13.8733 75.98 12.98C75.98 12.0867 75.6867 11.4 75.1 10.92C74.5133 10.44 73.6533 10.2 72.52 10.2H69.48V15.76H72.52ZM87.0425 7.8C88.2958 7.8 89.3892 8.04667 90.3225 8.54C91.2558 9.03333 91.9758 9.76667 92.4825 10.74C93.0025 11.7 93.2625 12.8667 93.2625 14.24V22H90.6625V18.4H83.3825V22H80.8225V14.24C80.8225 12.8667 81.0758 11.7 81.5825 10.74C82.1025 9.76667 82.8292 9.03333 83.7625 8.54C84.6958 8.04667 85.7892 7.8 87.0425 7.8ZM90.6625 16.22V14C90.6625 12.7067 90.3425 11.7333 89.7025 11.08C89.0625 10.4133 88.1692 10.08 87.0225 10.08C85.8758 10.08 84.9825 10.4133 84.3425 11.08C83.7025 11.7333 83.3825 12.7067 83.3825 14V16.22H90.6625ZM96.8995 8H103.02C104.513 8 105.84 8.29333 107 8.88C108.16 9.45333 109.06 10.2733 109.7 11.34C110.34 12.3933 110.66 13.6133 110.66 15C110.66 16.3867 110.34 17.6133 109.7 18.68C109.06 19.7333 108.16 20.5533 107 21.14C105.84 21.7133 104.513 22 103.02 22H96.8995V8ZM102.9 19.8C103.926 19.8 104.826 19.6067 105.6 19.22C106.386 18.82 106.986 18.26 107.4 17.54C107.826 16.8067 108.04 15.96 108.04 15C108.04 14.04 107.826 13.2 107.4 12.48C106.986 11.7467 106.386 11.1867 105.6 10.8C104.826 10.4 103.926 10.2 102.9 10.2H99.4995V19.8H102.9ZM119.523 7.8C120.776 7.8 121.87 8.04667 122.803 8.54C123.736 9.03333 124.456 9.76667 124.963 10.74C125.483 11.7 125.743 12.8667 125.743 14.24V22H123.143V18.4H115.863V22H113.303V14.24C113.303 12.8667 113.556 11.7 114.063 10.74C114.583 9.76667 115.31 9.03333 116.243 8.54C117.176 8.04667 118.27 7.8 119.523 7.8ZM123.143 16.22V14C123.143 12.7067 122.823 11.7333 122.183 11.08C121.543 10.4133 120.65 10.08 119.503 10.08C118.356 10.08 117.463 10.4133 116.823 11.08C116.183 11.7333 115.863 12.7067 115.863 14V16.22H123.143ZM138.54 22L135.68 17.9C135.56 17.9133 135.38 17.92 135.14 17.92H131.98V22H129.38V8H135.14C136.353 8 137.407 8.2 138.3 8.6C139.207 9 139.9 9.57333 140.38 10.32C140.86 11.0667 141.1 11.9533 141.1 12.98C141.1 14.0333 140.84 14.94 140.32 15.7C139.813 16.46 139.08 17.0267 138.12 17.4L141.34 22H138.54ZM138.48 12.98C138.48 12.0867 138.187 11.4 137.6 10.92C137.013 10.44 136.153 10.2 135.02 10.2H131.98V15.78H135.02C136.153 15.78 137.013 15.54 137.6 15.06C138.187 14.5667 138.48 13.8733 138.48 12.98ZM148.109 10.18V19.82H150.689V22H142.949V19.82H145.529V10.18H142.949V8H150.689V10.18H148.109ZM159.484 7.8C160.737 7.8 161.831 8.04667 162.764 8.54C163.697 9.03333 164.417 9.76667 164.924 10.74C165.444 11.7 165.704 12.8667 165.704 14.24V22H163.104V18.4H155.824V22H153.264V14.24C153.264 12.8667 153.517 11.7 154.024 10.74C154.544 9.76667 155.271 9.03333 156.204 8.54C157.137 8.04667 158.231 7.8 159.484 7.8ZM163.104 16.22V14C163.104 12.7067 162.784 11.7333 162.144 11.08C161.504 10.4133 160.611 10.08 159.464 10.08C158.317 10.08 157.424 10.4133 156.784 11.08C156.144 11.7333 155.824 12.7067 155.824 14V16.22H163.104ZM185.788 20.66C185.162 21.1533 184.355 21.5333 183.368 21.8C182.382 22.0667 181.315 22.2 180.168 22.2C178.822 22.2 177.675 22.0267 176.728 21.68C175.795 21.3333 175.088 20.8533 174.608 20.24C174.128 19.6267 173.888 18.92 173.888 18.12C173.888 17.3467 174.102 16.6733 174.528 16.1C174.955 15.5267 175.528 15.1067 176.248 14.84C175.702 14.5467 175.268 14.14 174.948 13.62C174.642 13.0867 174.488 12.4933 174.488 11.84C174.488 11.0933 174.708 10.42 175.148 9.82C175.602 9.20667 176.275 8.72 177.168 8.36C178.062 7.98667 179.162 7.8 180.468 7.8C181.348 7.8 182.208 7.89333 183.048 8.08C183.888 8.26667 184.622 8.52 185.248 8.84L184.508 10.9C183.335 10.2867 182.022 9.98 180.568 9.98C179.422 9.98 178.555 10.1667 177.968 10.54C177.395 10.9 177.108 11.3867 177.108 12C177.108 12.6 177.322 13.06 177.748 13.38C178.175 13.6867 178.802 13.84 179.628 13.84H183.328V16H179.488C178.542 16 177.808 16.1667 177.288 16.5C176.768 16.82 176.508 17.3 176.508 17.94C176.508 18.58 176.822 19.0867 177.448 19.46C178.075 19.8333 179.022 20.02 180.288 20.02C181.168 20.02 182.022 19.9 182.848 19.66C183.688 19.42 184.388 19.0867 184.948 18.66L185.788 20.66ZM199.981 22.2C198.568 22.2 197.288 21.8933 196.141 21.28C195.008 20.6533 194.114 19.7933 193.461 18.7C192.821 17.6067 192.501 16.3733 192.501 15C192.501 13.6267 192.828 12.3933 193.481 11.3C194.134 10.2067 195.028 9.35333 196.161 8.74C197.308 8.11333 198.588 7.8 200.001 7.8C201.148 7.8 202.194 8 203.141 8.4C204.088 8.8 204.888 9.38 205.541 10.14L203.861 11.72C202.848 10.6267 201.601 10.08 200.121 10.08C199.161 10.08 198.301 10.2933 197.541 10.72C196.781 11.1333 196.188 11.7133 195.761 12.46C195.334 13.2067 195.121 14.0533 195.121 15C195.121 15.9467 195.334 16.7933 195.761 17.54C196.188 18.2867 196.781 18.8733 197.541 19.3C198.301 19.7133 199.161 19.92 200.121 19.92C201.601 19.92 202.848 19.3667 203.861 18.26L205.541 19.86C204.888 20.62 204.081 21.2 203.121 21.6C202.174 22 201.128 22.2 199.981 22.2ZM214.279 22.2C212.853 22.2 211.566 21.8933 210.419 21.28C209.273 20.6533 208.373 19.7933 207.719 18.7C207.066 17.5933 206.739 16.36 206.739 15C206.739 13.64 207.066 12.4133 207.719 11.32C208.373 10.2133 209.273 9.35333 210.419 8.74C211.566 8.11333 212.853 7.8 214.279 7.8C215.706 7.8 216.993 8.11333 218.139 8.74C219.286 9.35333 220.186 10.2067 220.839 11.3C221.493 12.3933 221.819 13.6267 221.819 15C221.819 16.3733 221.493 17.6067 220.839 18.7C220.186 19.7933 219.286 20.6533 218.139 21.28C216.993 21.8933 215.706 22.2 214.279 22.2ZM214.279 19.92C215.213 19.92 216.053 19.7133 216.799 19.3C217.546 18.8733 218.133 18.2867 218.559 17.54C218.986 16.78 219.199 15.9333 219.199 15C219.199 14.0667 218.986 13.2267 218.559 12.48C218.133 11.72 217.546 11.1333 216.799 10.72C216.053 10.2933 215.213 10.08 214.279 10.08C213.346 10.08 212.506 10.2933 211.759 10.72C211.013 11.1333 210.426 11.72 209.999 12.48C209.573 13.2267 209.359 14.0667 209.359 15C209.359 15.9333 209.573 16.78 209.999 17.54C210.426 18.2867 211.013 18.8733 211.759 19.3C212.506 19.7133 213.346 19.92 214.279 19.92ZM231.535 7.8C233.215 7.8 234.522 8.31333 235.455 9.34C236.402 10.3667 236.875 11.8333 236.875 13.74V22H234.275V13.84C234.275 12.6 233.975 11.6667 233.375 11.04C232.789 10.4 231.969 10.08 230.915 10.08C229.769 10.08 228.855 10.42 228.175 11.1C227.509 11.7667 227.175 12.7667 227.175 14.1V22H224.575V8H227.095V9.76C228.069 8.45333 229.549 7.8 231.535 7.8ZM246.633 10.08C245.433 10.08 244.526 10.3467 243.913 10.88C243.299 11.4133 242.993 12.2 242.993 13.24V14.44H249.093V16.64H242.993V22H240.393V13.24C240.393 11.5467 240.933 10.22 242.013 9.26C243.106 8.28667 244.606 7.8 246.513 7.8C247.313 7.8 248.059 7.88667 248.753 8.06C249.446 8.23333 250.053 8.48667 250.573 8.82L249.753 10.94C248.926 10.3667 247.886 10.08 246.633 10.08ZM263.249 20.66C262.623 21.1533 261.816 21.5333 260.829 21.8C259.843 22.0667 258.776 22.2 257.629 22.2C256.283 22.2 255.136 22.0267 254.189 21.68C253.256 21.3333 252.549 20.8533 252.069 20.24C251.589 19.6267 251.349 18.92 251.349 18.12C251.349 17.3467 251.563 16.6733 251.989 16.1C252.416 15.5267 252.989 15.1067 253.709 14.84C253.163 14.5467 252.729 14.14 252.409 13.62C252.103 13.0867 251.949 12.4933 251.949 11.84C251.949 11.0933 252.169 10.42 252.609 9.82C253.063 9.20667 253.736 8.72 254.629 8.36C255.523 7.98667 256.623 7.8 257.929 7.8C258.809 7.8 259.669 7.89333 260.509 8.08C261.349 8.26667 262.083 8.52 262.709 8.84L261.969 10.9C260.796 10.2867 259.483 9.98 258.029 9.98C256.883 9.98 256.016 10.1667 255.429 10.54C254.856 10.9 254.569 11.3867 254.569 12C254.569 12.6 254.783 13.06 255.209 13.38C255.636 13.6867 256.263 13.84 257.089 13.84H260.789V16H256.949C256.003 16 255.269 16.1667 254.749 16.5C254.229 16.82 253.969 17.3 253.969 17.94C253.969 18.58 254.283 19.0867 254.909 19.46C255.536 19.8333 256.483 20.02 257.749 20.02C258.629 20.02 259.483 19.9 260.309 19.66C261.149 19.42 261.849 19.0867 262.409 18.66L263.249 20.66ZM269.535 10.18V19.82H272.115V22H264.375V19.82H266.955V10.18H264.375V8H272.115V10.18H269.535ZM284.53 11.48C283.21 10.7333 281.836 10.28 280.41 10.12V22H277.81V10.12C276.37 10.28 274.99 10.7333 273.67 11.48L272.77 9.48C273.703 8.92 274.703 8.5 275.77 8.22C276.85 7.94 277.956 7.8 279.09 7.8C280.223 7.8 281.33 7.94 282.41 8.22C283.49 8.5 284.496 8.92 285.43 9.48L284.53 11.48ZM293.058 7.8C294.311 7.8 295.405 8.04667 296.338 8.54C297.271 9.03333 297.991 9.76667 298.498 10.74C299.018 11.7 299.278 12.8667 299.278 14.24V22H296.678V18.4H289.398V22H286.838V14.24C286.838 12.8667 287.091 11.7 287.598 10.74C288.118 9.76667 288.845 9.03333 289.778 8.54C290.711 8.04667 291.805 7.8 293.058 7.8ZM296.678 16.22V14C296.678 12.7067 296.358 11.7333 295.718 11.08C295.078 10.4133 294.185 10.08 293.038 10.08C291.891 10.08 290.998 10.4133 290.358 11.08C289.718 11.7333 289.398 12.7067 289.398 14V16.22H296.678ZM312.075 22L309.215 17.9C309.095 17.9133 308.915 17.92 308.675 17.92H305.515V22H302.915V8H308.675C309.888 8 310.942 8.2 311.835 8.6C312.742 9 313.435 9.57333 313.915 10.32C314.395 11.0667 314.635 11.9533 314.635 12.98C314.635 14.0333 314.375 14.94 313.855 15.7C313.348 16.46 312.615 17.0267 311.655 17.4L314.875 22H312.075ZM312.015 12.98C312.015 12.0867 311.722 11.4 311.135 10.92C310.548 10.44 309.688 10.2 308.555 10.2H305.515V15.78H308.555C309.688 15.78 310.548 15.54 311.135 15.06C311.722 14.5667 312.015 13.8733 312.015 12.98ZM321.644 10.18V19.82H324.224V22H316.484V19.82H319.064V10.18H316.484V8H324.224V10.18H321.644ZM333.019 7.8C334.272 7.8 335.366 8.04667 336.299 8.54C337.232 9.03333 337.952 9.76667 338.459 10.74C338.979 11.7 339.239 12.8667 339.239 14.24V22H336.639V18.4H329.359V22H326.799V14.24C326.799 12.8667 327.052 11.7 327.559 10.74C328.079 9.76667 328.806 9.03333 329.739 8.54C330.672 8.04667 331.766 7.8 333.019 7.8ZM336.639 16.22V14C336.639 12.7067 336.319 11.7333 335.679 11.08C335.039 10.4133 334.146 10.08 332.999 10.08C331.852 10.08 330.959 10.4133 330.319 11.08C329.679 11.7333 329.359 12.7067 329.359 14V16.22H336.639Z" fill="white"/>
</svg>
