<svg width="328" height="46" viewBox="0 0 328 46" fill="none" xmlns="http://www.w3.org/2000/svg">
<path d="M41 1V45H1V1H41Z" fill="white" stroke="black" stroke-width="2"/>
<path d="M327 1V28H54V1H327Z" fill="#0033CC" stroke="black" stroke-width="2"/>
<path d="M54 1V28H41V1H54Z" fill="#FFCC00" stroke="black" stroke-width="2"/>
<path d="M41 1V28H23V1H41Z" fill="#FF6600" stroke="black" stroke-width="2"/>
<path d="M79.32 8V22H76.72V16H69.48V22H66.88V8H69.48V13.78H76.72V8H79.32ZM89.6114 22.2C88.1847 22.2 86.8981 21.8933 85.7514 21.28C84.6047 20.6533 83.7047 19.7933 83.0514 18.7C82.3981 17.5933 82.0714 16.36 82.0714 15C82.0714 13.64 82.3981 12.4133 83.0514 11.32C83.7047 10.2133 84.6047 9.35333 85.7514 8.74C86.8981 8.11333 88.1847 7.8 89.6114 7.8C91.0381 7.8 92.3247 8.11333 93.4714 8.74C94.6181 9.35333 95.5181 10.2067 96.1714 11.3C96.8247 12.3933 97.1514 13.6267 97.1514 15C97.1514 16.3733 96.8247 17.6067 96.1714 18.7C95.5181 19.7933 94.6181 20.6533 93.4714 21.28C92.3247 21.8933 91.0381 22.2 89.6114 22.2ZM89.6114 19.92C90.5447 19.92 91.3847 19.7133 92.1314 19.3C92.8781 18.8733 93.4647 18.2867 93.8914 17.54C94.3181 16.78 94.5314 15.9333 94.5314 15C94.5314 14.0667 94.3181 13.2267 93.8914 12.48C93.4647 11.72 92.8781 11.1333 92.1314 10.72C91.3847 10.2933 90.5447 10.08 89.6114 10.08C88.6781 10.08 87.8381 10.2933 87.0914 10.72C86.3447 11.1333 85.7581 11.72 85.3314 12.48C84.9047 13.2267 84.6914 14.0667 84.6914 15C84.6914 15.9333 84.9047 16.78 85.3314 17.54C85.7581 18.2867 86.3447 18.8733 87.0914 19.3C87.8381 19.7133 88.6781 19.92 89.6114 19.92ZM104.247 22.2C103.167 22.2 102.121 22.0467 101.107 21.74C100.107 21.4333 99.314 21.0267 98.7273 20.52L99.6273 18.5C100.201 18.9533 100.901 19.3267 101.727 19.62C102.567 19.9 103.407 20.04 104.247 20.04C105.287 20.04 106.061 19.8733 106.567 19.54C107.087 19.2067 107.347 18.7667 107.347 18.22C107.347 17.82 107.201 17.4933 106.907 17.24C106.627 16.9733 106.267 16.7667 105.827 16.62C105.387 16.4733 104.787 16.3067 104.027 16.12C102.961 15.8667 102.094 15.6133 101.427 15.36C100.774 15.1067 100.207 14.7133 99.7273 14.18C99.2607 13.6333 99.0273 12.9 99.0273 11.98C99.0273 11.2067 99.234 10.5067 99.6473 9.88C100.074 9.24 100.707 8.73333 101.547 8.36C102.401 7.98667 103.441 7.8 104.667 7.8C105.521 7.8 106.361 7.90667 107.187 8.12C108.014 8.33333 108.727 8.64 109.327 9.04L108.507 11.06C107.894 10.7 107.254 10.4267 106.587 10.24C105.921 10.0533 105.274 9.96 104.647 9.96C103.621 9.96 102.854 10.1333 102.347 10.48C101.854 10.8267 101.607 11.2867 101.607 11.86C101.607 12.26 101.747 12.5867 102.027 12.84C102.321 13.0933 102.687 13.2933 103.127 13.44C103.567 13.5867 104.167 13.7533 104.927 13.94C105.967 14.18 106.821 14.4333 107.487 14.7C108.154 14.9533 108.721 15.3467 109.187 15.88C109.667 16.4133 109.907 17.1333 109.907 18.04C109.907 18.8133 109.694 19.5133 109.267 20.14C108.854 20.7667 108.221 21.2667 107.367 21.64C106.514 22.0133 105.474 22.2 104.247 22.2ZM118.245 8C119.459 8 120.512 8.2 121.405 8.6C122.312 9 123.005 9.57333 123.485 10.32C123.965 11.0667 124.205 11.9533 124.205 12.98C124.205 13.9933 123.965 14.88 123.485 15.64C123.005 16.3867 122.312 16.96 121.405 17.36C120.512 17.76 119.459 17.96 118.245 17.96H115.085V22H112.485V8H118.245ZM118.125 15.76C119.259 15.76 120.119 15.52 120.705 15.04C121.292 14.56 121.585 13.8733 121.585 12.98C121.585 12.0867 121.292 11.4 120.705 10.92C120.119 10.44 119.259 10.2 118.125 10.2H115.085V15.76H118.125ZM130.902 10.18V19.82H133.482V22H125.742V19.82H128.322V10.18H125.742V8H133.482V10.18H130.902ZM145.897 11.48C144.577 10.7333 143.204 10.28 141.777 10.12V22H139.177V10.12C137.737 10.28 136.357 10.7333 135.037 11.48L134.137 9.48C135.07 8.92 136.07 8.5 137.137 8.22C138.217 7.94 139.324 7.8 140.457 7.8C141.59 7.8 142.697 7.94 143.777 8.22C144.857 8.5 145.864 8.92 146.797 9.48L145.897 11.48ZM154.425 7.8C155.679 7.8 156.772 8.04667 157.705 8.54C158.639 9.03333 159.359 9.76667 159.865 10.74C160.385 11.7 160.645 12.8667 160.645 14.24V22H158.045V18.4H150.765V22H148.205V14.24C148.205 12.8667 148.459 11.7 148.965 10.74C149.485 9.76667 150.212 9.03333 151.145 8.54C152.079 8.04667 153.172 7.8 154.425 7.8ZM158.045 16.22V14C158.045 12.7067 157.725 11.7333 157.085 11.08C156.445 10.4133 155.552 10.08 154.405 10.08C153.259 10.08 152.365 10.4133 151.725 11.08C151.085 11.7333 150.765 12.7067 150.765 14V16.22H158.045ZM164.282 8H166.882V19.8H174.202V22H164.282V8ZM187.542 8C188.756 8 189.809 8.2 190.702 8.6C191.609 9 192.302 9.57333 192.782 10.32C193.262 11.0667 193.502 11.9533 193.502 12.98C193.502 13.9933 193.262 14.88 192.782 15.64C192.302 16.3867 191.609 16.96 190.702 17.36C189.809 17.76 188.756 17.96 187.542 17.96H184.382V22H181.782V8H187.542ZM187.422 15.76C188.556 15.76 189.416 15.52 190.002 15.04C190.589 14.56 190.882 13.8733 190.882 12.98C190.882 12.0867 190.589 11.4 190.002 10.92C189.416 10.44 188.556 10.2 187.422 10.2H184.382V15.76H187.422ZM201.945 7.8C203.198 7.8 204.292 8.04667 205.225 8.54C206.158 9.03333 206.878 9.76667 207.385 10.74C207.905 11.7 208.165 12.8667 208.165 14.24V22H205.565V18.4H198.285V22H195.725V14.24C195.725 12.8667 195.978 11.7 196.485 10.74C197.005 9.76667 197.732 9.03333 198.665 8.54C199.598 8.04667 200.692 7.8 201.945 7.8ZM205.565 16.22V14C205.565 12.7067 205.245 11.7333 204.605 11.08C203.965 10.4133 203.072 10.08 201.925 10.08C200.778 10.08 199.885 10.4133 199.245 11.08C198.605 11.7333 198.285 12.7067 198.285 14V16.22H205.565ZM220.962 22L218.102 17.9C217.982 17.9133 217.802 17.92 217.562 17.92H214.402V22H211.802V8H217.562C218.775 8 219.829 8.2 220.722 8.6C221.629 9 222.322 9.57333 222.802 10.32C223.282 11.0667 223.522 11.9533 223.522 12.98C223.522 14.0333 223.262 14.94 222.742 15.7C222.235 16.46 221.502 17.0267 220.542 17.4L223.762 22H220.962ZM220.902 12.98C220.902 12.0867 220.609 11.4 220.022 10.92C219.435 10.44 218.575 10.2 217.442 10.2H214.402V15.78H217.442C218.575 15.78 219.435 15.54 220.022 15.06C220.609 14.5667 220.902 13.8733 220.902 12.98ZM236.151 11.48C234.831 10.7333 233.457 10.28 232.031 10.12V22H229.431V10.12C227.991 10.28 226.611 10.7333 225.291 11.48L224.391 9.48C225.324 8.92 226.324 8.5 227.391 8.22C228.471 7.94 229.577 7.8 230.711 7.8C231.844 7.8 232.951 7.94 234.031 8.22C235.111 8.5 236.117 8.92 237.051 9.48L236.151 11.48ZM242.875 10.18V19.82H245.455V22H237.715V19.82H240.295V10.18H237.715V8H245.455V10.18H242.875ZM254.532 22.2C253.119 22.2 251.839 21.8933 250.692 21.28C249.559 20.6533 248.665 19.7933 248.012 18.7C247.372 17.6067 247.052 16.3733 247.052 15C247.052 13.6267 247.379 12.3933 248.032 11.3C248.685 10.2067 249.579 9.35333 250.712 8.74C251.859 8.11333 253.139 7.8 254.552 7.8C255.699 7.8 256.745 8 257.692 8.4C258.639 8.8 259.439 9.38 260.092 10.14L258.412 11.72C257.399 10.6267 256.152 10.08 254.672 10.08C253.712 10.08 252.852 10.2933 252.092 10.72C251.332 11.1333 250.739 11.7133 250.312 12.46C249.885 13.2067 249.672 14.0533 249.672 15C249.672 15.9467 249.885 16.7933 250.312 17.54C250.739 18.2867 251.332 18.8733 252.092 19.3C252.852 19.7133 253.712 19.92 254.672 19.92C256.152 19.92 257.399 19.3667 258.412 18.26L260.092 19.86C259.439 20.62 258.632 21.2 257.672 21.6C256.725 22 255.679 22.2 254.532 22.2ZM274.585 8V22H272.085V20.22C271.139 21.54 269.672 22.2 267.685 22.2C266.032 22.2 264.732 21.6867 263.785 20.66C262.839 19.62 262.365 18.1533 262.365 16.26V8H264.965V16.16C264.965 17.4 265.259 18.34 265.845 18.98C266.445 19.6067 267.265 19.92 268.305 19.92C269.425 19.92 270.319 19.5867 270.985 18.92C271.652 18.24 271.985 17.2333 271.985 15.9V8H274.585ZM278.345 8H280.945V19.8H288.265V22H278.345V8ZM296.418 7.8C297.671 7.8 298.764 8.04667 299.698 8.54C300.631 9.03333 301.351 9.76667 301.858 10.74C302.378 11.7 302.638 12.8667 302.638 14.24V22H300.038V18.4H292.758V22H290.198V14.24C290.198 12.8667 290.451 11.7 290.958 10.74C291.478 9.76667 292.204 9.03333 293.138 8.54C294.071 8.04667 295.164 7.8 296.418 7.8ZM300.038 16.22V14C300.038 12.7067 299.718 11.7333 299.078 11.08C298.438 10.4133 297.544 10.08 296.398 10.08C295.251 10.08 294.358 10.4133 293.717 11.08C293.078 11.7333 292.758 12.7067 292.758 14V16.22H300.038ZM315.435 22L312.575 17.9C312.455 17.9133 312.275 17.92 312.035 17.92H308.875V22H306.275V8H312.035C313.248 8 314.301 8.2 315.195 8.6C316.101 9 316.795 9.57333 317.275 10.32C317.755 11.0667 317.995 11.9533 317.995 12.98C317.995 14.0333 317.735 14.94 317.215 15.7C316.708 16.46 315.975 17.0267 315.015 17.4L318.235 22H315.435ZM315.375 12.98C315.375 12.0867 315.081 11.4 314.495 10.92C313.908 10.44 313.048 10.2 311.915 10.2H308.875V15.78H311.915C313.048 15.78 313.908 15.54 314.495 15.06C315.081 14.5667 315.375 13.8733 315.375 12.98Z" fill="white"/>
</svg>
