<svg width="291" height="46" viewBox="0 0 291 46" fill="none" xmlns="http://www.w3.org/2000/svg">
<path d="M41 1V45H1V1H41Z" fill="white" stroke="black" stroke-width="2"/>
<path d="M290 1V28H54V1H290Z" fill="#0033CC" stroke="black" stroke-width="2"/>
<path d="M54 1V28H41V1H54Z" fill="#FFCC00" stroke="black" stroke-width="2"/>
<path d="M41 1V28H23V1H41Z" fill="#FF6600" stroke="black" stroke-width="2"/>
<path d="M72.64 8C73.8533 8 74.9067 8.2 75.8 8.6C76.7067 9 77.4 9.57333 77.88 10.32C78.36 11.0667 78.6 11.9533 78.6 12.98C78.6 13.9933 78.36 14.88 77.88 15.64C77.4 16.3867 76.7067 16.96 75.8 17.36C74.9067 17.76 73.8533 17.96 72.64 17.96H69.48V22H66.88V8H72.64ZM72.52 15.76C73.6533 15.76 74.5133 15.52 75.1 15.04C75.6867 14.56 75.98 13.8733 75.98 12.98C75.98 12.0867 75.6867 11.4 75.1 10.92C74.5133 10.44 73.6533 10.2 72.52 10.2H69.48V15.76H72.52ZM87.0425 7.8C88.2958 7.8 89.3892 8.04667 90.3225 8.54C91.2558 9.03333 91.9758 9.76667 92.4825 10.74C93.0025 11.7 93.2625 12.8667 93.2625 14.24V22H90.6625V18.4H83.3825V22H80.8225V14.24C80.8225 12.8667 81.0758 11.7 81.5825 10.74C82.1025 9.76667 82.8292 9.03333 83.7625 8.54C84.6958 8.04667 85.7892 7.8 87.0425 7.8ZM90.6625 16.22V14C90.6625 12.7067 90.3425 11.7333 89.7025 11.08C89.0625 10.4133 88.1692 10.08 87.0225 10.08C85.8758 10.08 84.9825 10.4133 84.3425 11.08C83.7025 11.7333 83.3825 12.7067 83.3825 14V16.22H90.6625ZM106.06 22L103.2 17.9C103.08 17.9133 102.9 17.92 102.66 17.92H99.4995V22H96.8995V8H102.66C103.873 8 104.926 8.2 105.82 8.6C106.726 9 107.42 9.57333 107.9 10.32C108.38 11.0667 108.62 11.9533 108.62 12.98C108.62 14.0333 108.36 14.94 107.84 15.7C107.333 16.46 106.6 17.0267 105.64 17.4L108.86 22H106.06ZM106 12.98C106 12.0867 105.706 11.4 105.12 10.92C104.533 10.44 103.673 10.2 102.54 10.2H99.4995V15.78H102.54C103.673 15.78 104.533 15.54 105.12 15.06C105.706 14.5667 106 13.8733 106 12.98ZM125.608 15C125.608 16.2267 125.342 17.3467 124.808 18.36C124.288 19.3733 123.555 20.2067 122.608 20.86C121.662 21.5133 120.582 21.9267 119.368 22.1V24.7H116.768V22.1C115.555 21.9267 114.475 21.5133 113.528 20.86C112.582 20.2067 111.842 19.3733 111.308 18.36C110.788 17.3467 110.528 16.2267 110.528 15C110.528 13.64 110.855 12.4133 111.508 11.32C112.162 10.2133 113.062 9.35333 114.208 8.74C115.355 8.11333 116.642 7.8 118.068 7.8C119.495 7.8 120.782 8.11333 121.928 8.74C123.075 9.35333 123.975 10.2067 124.628 11.3C125.282 12.3933 125.608 13.6267 125.608 15ZM119.268 19.8C120.388 19.5467 121.288 18.9867 121.968 18.12C122.648 17.2533 122.988 16.2133 122.988 15C122.988 14.0667 122.775 13.2267 122.348 12.48C121.922 11.72 121.335 11.1333 120.588 10.72C119.842 10.2933 119.002 10.08 118.068 10.08C117.135 10.08 116.295 10.2933 115.548 10.72C114.802 11.1333 114.215 11.72 113.788 12.48C113.362 13.2267 113.148 14.0667 113.148 15C113.148 16.2133 113.488 17.2533 114.168 18.12C114.848 18.9733 115.742 19.5267 116.848 19.78V16.7H119.268V19.8ZM140.464 8V22H137.964V20.22C137.018 21.54 135.551 22.2 133.564 22.2C131.911 22.2 130.611 21.6867 129.664 20.66C128.718 19.62 128.244 18.1533 128.244 16.26V8H130.844V16.16C130.844 17.4 131.138 18.34 131.724 18.98C132.324 19.6067 133.144 19.92 134.184 19.92C135.304 19.92 136.198 19.5867 136.864 18.92C137.531 18.24 137.864 17.2333 137.864 15.9V8H140.464ZM155.144 20.66C154.517 21.1533 153.71 21.5333 152.724 21.8C151.737 22.0667 150.67 22.2 149.524 22.2C148.177 22.2 147.03 22.0267 146.084 21.68C145.15 21.3333 144.444 20.8533 143.964 20.24C143.484 19.6267 143.244 18.92 143.244 18.12C143.244 17.3467 143.457 16.6733 143.884 16.1C144.31 15.5267 144.884 15.1067 145.604 14.84C145.057 14.5467 144.624 14.14 144.304 13.62C143.997 13.0867 143.844 12.4933 143.844 11.84C143.844 11.0933 144.064 10.42 144.504 9.82C144.957 9.20667 145.63 8.72 146.524 8.36C147.417 7.98667 148.517 7.8 149.824 7.8C150.704 7.8 151.564 7.89333 152.404 8.08C153.244 8.26667 153.977 8.52 154.604 8.84L153.864 10.9C152.69 10.2867 151.377 9.98 149.924 9.98C148.777 9.98 147.91 10.1667 147.324 10.54C146.75 10.9 146.464 11.3867 146.464 12C146.464 12.6 146.677 13.06 147.104 13.38C147.53 13.6867 148.157 13.84 148.984 13.84H152.684V16H148.844C147.897 16 147.164 16.1667 146.644 16.5C146.124 16.82 145.864 17.3 145.864 17.94C145.864 18.58 146.177 19.0867 146.804 19.46C147.43 19.8333 148.377 20.02 149.644 20.02C150.524 20.02 151.377 19.9 152.204 19.66C153.044 19.42 153.744 19.0867 154.304 18.66L155.144 20.66ZM168.957 7.8C170.21 7.8 171.303 8.04667 172.237 8.54C173.17 9.03333 173.89 9.76667 174.397 10.74C174.917 11.7 175.177 12.8667 175.177 14.24V22H172.577V18.4H165.297V22H162.737V14.24C162.737 12.8667 162.99 11.7 163.497 10.74C164.017 9.76667 164.743 9.03333 165.677 8.54C166.61 8.04667 167.703 7.8 168.957 7.8ZM172.577 16.22V14C172.577 12.7067 172.257 11.7333 171.617 11.08C170.977 10.4133 170.083 10.08 168.937 10.08C167.79 10.08 166.897 10.4133 166.257 11.08C165.617 11.7333 165.297 12.7067 165.297 14V16.22H172.577ZM192.894 15C192.894 16.2267 192.627 17.3467 192.094 18.36C191.574 19.3733 190.84 20.2067 189.894 20.86C188.947 21.5133 187.867 21.9267 186.654 22.1V24.7H184.054V22.1C182.84 21.9267 181.76 21.5133 180.814 20.86C179.867 20.2067 179.127 19.3733 178.594 18.36C178.074 17.3467 177.814 16.2267 177.814 15C177.814 13.64 178.14 12.4133 178.794 11.32C179.447 10.2133 180.347 9.35333 181.494 8.74C182.64 8.11333 183.927 7.8 185.354 7.8C186.78 7.8 188.067 8.11333 189.214 8.74C190.36 9.35333 191.26 10.2067 191.914 11.3C192.567 12.3933 192.894 13.6267 192.894 15ZM186.554 19.8C187.674 19.5467 188.574 18.9867 189.254 18.12C189.934 17.2533 190.274 16.2133 190.274 15C190.274 14.0667 190.06 13.2267 189.634 12.48C189.207 11.72 188.62 11.1333 187.874 10.72C187.127 10.2933 186.287 10.08 185.354 10.08C184.42 10.08 183.58 10.2933 182.834 10.72C182.087 11.1333 181.5 11.72 181.074 12.48C180.647 13.2267 180.434 14.0667 180.434 15C180.434 16.2133 180.774 17.2533 181.454 18.12C182.134 18.9733 183.027 19.5267 184.134 19.78V16.7H186.554V19.8ZM207.75 8V22H205.25V20.22C204.303 21.54 202.836 22.2 200.85 22.2C199.196 22.2 197.896 21.6867 196.95 20.66C196.003 19.62 195.53 18.1533 195.53 16.26V8H198.13V16.16C198.13 17.4 198.423 18.34 199.01 18.98C199.61 19.6067 200.43 19.92 201.47 19.92C202.59 19.92 203.483 19.5867 204.15 18.92C204.816 18.24 205.15 17.2333 205.15 15.9V8H207.75ZM217.609 7.8C218.862 7.8 219.956 8.04667 220.889 8.54C221.822 9.03333 222.542 9.76667 223.049 10.74C223.569 11.7 223.829 12.8667 223.829 14.24V22H221.229V18.4H213.949V22H211.389V14.24C211.389 12.8667 211.642 11.7 212.149 10.74C212.669 9.76667 213.396 9.03333 214.329 8.54C215.262 8.04667 216.356 7.8 217.609 7.8ZM221.229 16.22V14C221.229 12.7067 220.909 11.7333 220.269 11.08C219.629 10.4133 218.736 10.08 217.589 10.08C216.442 10.08 215.549 10.4133 214.909 11.08C214.269 11.7333 213.949 12.7067 213.949 14V16.22H221.229ZM218.629 4.12H221.569L218.089 6.86H215.929L218.629 4.12ZM236.991 11.48C235.671 10.7333 234.297 10.28 232.871 10.12V22H230.271V10.12C228.831 10.28 227.451 10.7333 226.131 11.48L225.231 9.48C226.164 8.92 227.164 8.5 228.231 8.22C229.311 7.94 230.417 7.8 231.551 7.8C232.684 7.8 233.791 7.94 234.871 8.22C235.951 8.5 236.957 8.92 237.891 9.48L236.991 11.48ZM243.714 10.18V19.82H246.294V22H238.554V19.82H241.134V10.18H238.554V8H246.294V10.18H243.714ZM255.372 22.2C253.958 22.2 252.678 21.8933 251.532 21.28C250.398 20.6533 249.505 19.7933 248.852 18.7C248.212 17.6067 247.892 16.3733 247.892 15C247.892 13.6267 248.218 12.3933 248.872 11.3C249.525 10.2067 250.418 9.35333 251.552 8.74C252.698 8.11333 253.978 7.8 255.392 7.8C256.538 7.8 257.585 8 258.532 8.4C259.478 8.8 260.278 9.38 260.932 10.14L259.252 11.72C258.238 10.6267 256.992 10.08 255.512 10.08C254.552 10.08 253.692 10.2933 252.932 10.72C252.172 11.1333 251.578 11.7133 251.152 12.46C250.725 13.2067 250.512 14.0533 250.512 15C250.512 15.9467 250.725 16.7933 251.152 17.54C251.578 18.2867 252.172 18.8733 252.932 19.3C253.692 19.7133 254.552 19.92 255.512 19.92C256.992 19.92 258.238 19.3667 259.252 18.26L260.932 19.86C260.278 20.62 259.472 21.2 258.512 21.6C257.565 22 256.518 22.2 255.372 22.2ZM269.67 22.2C268.243 22.2 266.957 21.8933 265.81 21.28C264.663 20.6533 263.763 19.7933 263.11 18.7C262.457 17.5933 262.13 16.36 262.13 15C262.13 13.64 262.457 12.4133 263.11 11.32C263.763 10.2133 264.663 9.35333 265.81 8.74C266.957 8.11333 268.243 7.8 269.67 7.8C271.097 7.8 272.383 8.11333 273.53 8.74C274.677 9.35333 275.577 10.2067 276.23 11.3C276.883 12.3933 277.21 13.6267 277.21 15C277.21 16.3733 276.883 17.6067 276.23 18.7C275.577 19.7933 274.677 20.6533 273.53 21.28C272.383 21.8933 271.097 22.2 269.67 22.2ZM269.67 19.92C270.603 19.92 271.443 19.7133 272.19 19.3C272.937 18.8733 273.523 18.2867 273.95 17.54C274.377 16.78 274.59 15.9333 274.59 15C274.59 14.0667 274.377 13.2267 273.95 12.48C273.523 11.72 272.937 11.1333 272.19 10.72C271.443 10.2933 270.603 10.08 269.67 10.08C268.737 10.08 267.897 10.2933 267.15 10.72C266.403 11.1333 265.817 11.72 265.39 12.48C264.963 13.2267 264.75 14.0667 264.75 15C264.75 15.9333 264.963 16.78 265.39 17.54C265.817 18.2867 266.403 18.8733 267.15 19.3C267.897 19.7133 268.737 19.92 269.67 19.92Z" fill="white"/>
</svg>
