<svg width="538" height="46" viewBox="0 0 538 46" fill="none" xmlns="http://www.w3.org/2000/svg">
<path d="M41 1V45H1V1H41Z" fill="white" stroke="black" stroke-width="2"/>
<path d="M537 1V28H54V1H537Z" fill="#0033CC" stroke="black" stroke-width="2"/>
<path d="M54 1V28H41V1H54Z" fill="#FFCC00" stroke="black" stroke-width="2"/>
<path d="M41 1V28H23V1H41Z" fill="#FF6600" stroke="black" stroke-width="2"/>
<path d="M73.36 22.2C71.9467 22.2 70.6667 21.8933 69.52 21.28C68.3867 20.6533 67.4933 19.7933 66.84 18.7C66.2 17.6067 65.88 16.3733 65.88 15C65.88 13.6267 66.2067 12.3933 66.86 11.3C67.5133 10.2067 68.4067 9.35333 69.54 8.74C70.6867 8.11333 71.9667 7.8 73.38 7.8C74.5267 7.8 75.5733 8 76.52 8.4C77.4667 8.8 78.2667 9.38 78.92 10.14L77.24 11.72C76.2267 10.6267 74.98 10.08 73.5 10.08C72.54 10.08 71.68 10.2933 70.92 10.72C70.16 11.1333 69.5667 11.7133 69.14 12.46C68.7133 13.2067 68.5 14.0533 68.5 15C68.5 15.9467 68.7133 16.7933 69.14 17.54C69.5667 18.2867 70.16 18.8733 70.92 19.3C71.68 19.7133 72.54 19.92 73.5 19.92C74.98 19.92 76.2267 19.3667 77.24 18.26L78.92 19.86C78.2667 20.62 77.46 21.2 76.5 21.6C75.5533 22 74.5067 22.2 73.36 22.2ZM87.6583 22.2C86.2316 22.2 84.9449 21.8933 83.7983 21.28C82.6516 20.6533 81.7516 19.7933 81.0983 18.7C80.4449 17.5933 80.1183 16.36 80.1183 15C80.1183 13.64 80.4449 12.4133 81.0983 11.32C81.7516 10.2133 82.6516 9.35333 83.7983 8.74C84.9449 8.11333 86.2316 7.8 87.6583 7.8C89.0849 7.8 90.3716 8.11333 91.5183 8.74C92.6649 9.35333 93.5649 10.2067 94.2183 11.3C94.8716 12.3933 95.1983 13.6267 95.1983 15C95.1983 16.3733 94.8716 17.6067 94.2183 18.7C93.5649 19.7933 92.6649 20.6533 91.5183 21.28C90.3716 21.8933 89.0849 22.2 87.6583 22.2ZM87.6583 19.92C88.5916 19.92 89.4316 19.7133 90.1783 19.3C90.9249 18.8733 91.5116 18.2867 91.9383 17.54C92.3649 16.78 92.5783 15.9333 92.5783 15C92.5783 14.0667 92.3649 13.2267 91.9383 12.48C91.5116 11.72 90.9249 11.1333 90.1783 10.72C89.4316 10.2933 88.5916 10.08 87.6583 10.08C86.7249 10.08 85.8849 10.2933 85.1383 10.72C84.3916 11.1333 83.8049 11.72 83.3783 12.48C82.9516 13.2267 82.7383 14.0667 82.7383 15C82.7383 15.9333 82.9516 16.78 83.3783 17.54C83.8049 18.2867 84.3916 18.8733 85.1383 19.3C85.8849 19.7133 86.7249 19.92 87.6583 19.92ZM113.594 7.8C115.234 7.8 116.514 8.28 117.434 9.24C118.354 10.1867 118.814 11.5533 118.814 13.34V22H116.214V13.44C116.214 12.3333 115.921 11.5 115.334 10.94C114.761 10.3667 114.008 10.08 113.074 10.08C112.034 10.08 111.201 10.3733 110.574 10.96C109.961 11.5467 109.654 12.4467 109.654 13.66V22H107.054V13.44C107.054 12.32 106.781 11.48 106.234 10.92C105.701 10.36 104.968 10.08 104.034 10.08C102.981 10.08 102.134 10.38 101.494 10.98C100.868 11.5667 100.554 12.46 100.554 13.66V22H97.9542V8H100.474V9.84C100.901 9.18667 101.481 8.68667 102.214 8.34C102.948 7.98 103.794 7.8 104.754 7.8C105.741 7.8 106.601 7.98667 107.334 8.36C108.068 8.73333 108.621 9.26 108.994 9.94C109.461 9.26 110.094 8.73333 110.894 8.36C111.708 7.98667 112.608 7.8 113.594 7.8ZM128.206 8C129.42 8 130.473 8.2 131.366 8.6C132.273 9 132.966 9.57333 133.446 10.32C133.926 11.0667 134.166 11.9533 134.166 12.98C134.166 13.9933 133.926 14.88 133.446 15.64C132.966 16.3867 132.273 16.96 131.366 17.36C130.473 17.76 129.42 17.96 128.206 17.96H125.046V22H122.446V8H128.206ZM128.086 15.76C129.22 15.76 130.08 15.52 130.666 15.04C131.253 14.56 131.546 13.8733 131.546 12.98C131.546 12.0867 131.253 11.4 130.666 10.92C130.08 10.44 129.22 10.2 128.086 10.2H125.046V15.76H128.086ZM136.763 8H139.363V19.8H146.683V22H136.763V8ZM159.558 20.66C158.931 21.1533 158.124 21.5333 157.138 21.8C156.151 22.0667 155.084 22.2 153.938 22.2C152.591 22.2 151.444 22.0267 150.498 21.68C149.564 21.3333 148.858 20.8533 148.378 20.24C147.898 19.6267 147.658 18.92 147.658 18.12C147.658 17.3467 147.871 16.6733 148.298 16.1C148.724 15.5267 149.298 15.1067 150.018 14.84C149.471 14.5467 149.038 14.14 148.718 13.62C148.411 13.0867 148.258 12.4933 148.258 11.84C148.258 11.0933 148.478 10.42 148.918 9.82C149.371 9.20667 150.044 8.72 150.938 8.36C151.831 7.98667 152.931 7.8 154.238 7.8C155.118 7.8 155.978 7.89333 156.818 8.08C157.658 8.26667 158.391 8.52 159.018 8.84L158.278 10.9C157.104 10.2867 155.791 9.98 154.338 9.98C153.191 9.98 152.324 10.1667 151.738 10.54C151.164 10.9 150.878 11.3867 150.878 12C150.878 12.6 151.091 13.06 151.518 13.38C151.944 13.6867 152.571 13.84 153.398 13.84H157.098V16H153.258C152.311 16 151.578 16.1667 151.058 16.5C150.538 16.82 150.278 17.3 150.278 17.94C150.278 18.58 150.591 19.0867 151.218 19.46C151.844 19.8333 152.791 20.02 154.058 20.02C154.938 20.02 155.791 19.9 156.618 19.66C157.458 19.42 158.158 19.0867 158.718 18.66L159.558 20.66ZM170.466 22L166.666 16.68L162.906 22H159.946L165.146 14.86L160.226 8H163.166L166.746 12.98L170.286 8H173.106L168.206 14.76L173.466 22H170.466ZM181.545 22.2C180.118 22.2 178.832 21.8933 177.685 21.28C176.538 20.6533 175.638 19.7933 174.985 18.7C174.332 17.5933 174.005 16.36 174.005 15C174.005 13.64 174.332 12.4133 174.985 11.32C175.638 10.2133 176.538 9.35333 177.685 8.74C178.832 8.11333 180.118 7.8 181.545 7.8C182.972 7.8 184.258 8.11333 185.405 8.74C186.552 9.35333 187.452 10.2067 188.105 11.3C188.758 12.3933 189.085 13.6267 189.085 15C189.085 16.3733 188.758 17.6067 188.105 18.7C187.452 19.7933 186.552 20.6533 185.405 21.28C184.258 21.8933 182.972 22.2 181.545 22.2ZM181.545 19.92C182.478 19.92 183.318 19.7133 184.065 19.3C184.812 18.8733 185.398 18.2867 185.825 17.54C186.252 16.78 186.465 15.9333 186.465 15C186.465 14.0667 186.252 13.2267 185.825 12.48C185.398 11.72 184.812 11.1333 184.065 10.72C183.318 10.2933 182.478 10.08 181.545 10.08C180.612 10.08 179.772 10.2933 179.025 10.72C178.278 11.1333 177.692 11.72 177.265 12.48C176.838 13.2267 176.625 14.0667 176.625 15C176.625 15.9333 176.838 16.78 177.265 17.54C177.692 18.2867 178.278 18.8733 179.025 19.3C179.772 19.7133 180.612 19.92 181.545 19.92ZM197.368 8H203.488C204.982 8 206.308 8.29333 207.468 8.88C208.628 9.45333 209.528 10.2733 210.168 11.34C210.808 12.3933 211.128 13.6133 211.128 15C211.128 16.3867 210.808 17.6133 210.168 18.68C209.528 19.7333 208.628 20.5533 207.468 21.14C206.308 21.7133 204.982 22 203.488 22H197.368V8ZM203.368 19.8C204.395 19.8 205.295 19.6067 206.068 19.22C206.855 18.82 207.455 18.26 207.868 17.54C208.295 16.8067 208.508 15.96 208.508 15C208.508 14.04 208.295 13.2 207.868 12.48C207.455 11.7467 206.855 11.1867 206.068 10.8C205.295 10.4 204.395 10.2 203.368 10.2H199.968V19.8H203.368ZM224.812 20.66C224.185 21.1533 223.378 21.5333 222.392 21.8C221.405 22.0667 220.338 22.2 219.192 22.2C217.845 22.2 216.698 22.0267 215.752 21.68C214.818 21.3333 214.112 20.8533 213.632 20.24C213.152 19.6267 212.912 18.92 212.912 18.12C212.912 17.3467 213.125 16.6733 213.552 16.1C213.978 15.5267 214.552 15.1067 215.272 14.84C214.725 14.5467 214.292 14.14 213.972 13.62C213.665 13.0867 213.512 12.4933 213.512 11.84C213.512 11.0933 213.732 10.42 214.172 9.82C214.625 9.20667 215.298 8.72 216.192 8.36C217.085 7.98667 218.185 7.8 219.492 7.8C220.372 7.8 221.232 7.89333 222.072 8.08C222.912 8.26667 223.645 8.52 224.272 8.84L223.532 10.9C222.358 10.2867 221.045 9.98 219.592 9.98C218.445 9.98 217.578 10.1667 216.992 10.54C216.418 10.9 216.132 11.3867 216.132 12C216.132 12.6 216.345 13.06 216.772 13.38C217.198 13.6867 217.825 13.84 218.652 13.84H222.352V16H218.512C217.565 16 216.832 16.1667 216.312 16.5C215.792 16.82 215.532 17.3 215.532 17.94C215.532 18.58 215.845 19.0867 216.472 19.46C217.098 19.8333 218.045 20.02 219.312 20.02C220.192 20.02 221.045 19.9 221.872 19.66C222.712 19.42 223.412 19.0867 223.972 18.66L224.812 20.66ZM232.525 8H235.125V19.8H242.445V22H232.525V8ZM250.597 7.8C251.851 7.8 252.944 8.04667 253.877 8.54C254.811 9.03333 255.531 9.76667 256.037 10.74C256.557 11.7 256.817 12.8667 256.817 14.24V22H254.217V18.4H246.937V22H244.377V14.24C244.377 12.8667 244.631 11.7 245.137 10.74C245.657 9.76667 246.384 9.03333 247.317 8.54C248.251 8.04667 249.344 7.8 250.597 7.8ZM254.217 16.22V14C254.217 12.7067 253.897 11.7333 253.257 11.08C252.617 10.4133 251.724 10.08 250.577 10.08C249.431 10.08 248.537 10.4133 247.897 11.08C247.257 11.7333 246.937 12.7067 246.937 14V16.22H254.217ZM271.434 19.82V22H259.494V20.42L263.134 15.9H260.654V13.84H264.794L267.754 10.18H259.594V8H271.134V9.56L267.654 13.88H269.974V15.94H265.994L262.874 19.82H271.434ZM284.831 20.66C284.205 21.1533 283.398 21.5333 282.411 21.8C281.425 22.0667 280.358 22.2 279.211 22.2C277.865 22.2 276.718 22.0267 275.771 21.68C274.838 21.3333 274.131 20.8533 273.651 20.24C273.171 19.6267 272.931 18.92 272.931 18.12C272.931 17.3467 273.145 16.6733 273.571 16.1C273.998 15.5267 274.571 15.1067 275.291 14.84C274.745 14.5467 274.311 14.14 273.991 13.62C273.685 13.0867 273.531 12.4933 273.531 11.84C273.531 11.0933 273.751 10.42 274.191 9.82C274.645 9.20667 275.318 8.72 276.211 8.36C277.105 7.98667 278.205 7.8 279.511 7.8C280.391 7.8 281.251 7.89333 282.091 8.08C282.931 8.26667 283.665 8.52 284.291 8.84L283.551 10.9C282.378 10.2867 281.065 9.98 279.611 9.98C278.465 9.98 277.598 10.1667 277.011 10.54C276.438 10.9 276.151 11.3867 276.151 12C276.151 12.6 276.365 13.06 276.791 13.38C277.218 13.6867 277.845 13.84 278.671 13.84H282.371V16H278.531C277.585 16 276.851 16.1667 276.331 16.5C275.811 16.82 275.551 17.3 275.551 17.94C275.551 18.58 275.865 19.0867 276.491 19.46C277.118 19.8333 278.065 20.02 279.331 20.02C280.211 20.02 281.065 19.9 281.891 19.66C282.731 19.42 283.431 19.0867 283.991 18.66L284.831 20.66ZM296.177 22L293.317 17.9C293.197 17.9133 293.017 17.92 292.777 17.92H289.617V22H287.017V8H292.777C293.99 8 295.043 8.2 295.937 8.6C296.843 9 297.537 9.57333 298.017 10.32C298.497 11.0667 298.737 11.9533 298.737 12.98C298.737 14.0333 298.477 14.94 297.957 15.7C297.45 16.46 296.717 17.0267 295.757 17.4L298.977 22H296.177ZM296.117 12.98C296.117 12.0867 295.823 11.4 295.237 10.92C294.65 10.44 293.79 10.2 292.657 10.2H289.617V15.78H292.657C293.79 15.78 294.65 15.54 295.237 15.06C295.823 14.5667 296.117 13.8733 296.117 12.98ZM318.093 20.66C317.466 21.1533 316.66 21.5333 315.673 21.8C314.686 22.0667 313.62 22.2 312.473 22.2C311.126 22.2 309.98 22.0267 309.033 21.68C308.1 21.3333 307.393 20.8533 306.913 20.24C306.433 19.6267 306.193 18.92 306.193 18.12C306.193 17.3467 306.406 16.6733 306.833 16.1C307.26 15.5267 307.833 15.1067 308.553 14.84C308.006 14.5467 307.573 14.14 307.253 13.62C306.946 13.0867 306.793 12.4933 306.793 11.84C306.793 11.0933 307.013 10.42 307.453 9.82C307.906 9.20667 308.58 8.72 309.473 8.36C310.366 7.98667 311.466 7.8 312.773 7.8C313.653 7.8 314.513 7.89333 315.353 8.08C316.193 8.26667 316.926 8.52 317.553 8.84L316.813 10.9C315.64 10.2867 314.326 9.98 312.873 9.98C311.726 9.98 310.86 10.1667 310.273 10.54C309.7 10.9 309.413 11.3867 309.413 12C309.413 12.6 309.626 13.06 310.053 13.38C310.48 13.6867 311.106 13.84 311.933 13.84H315.633V16H311.793C310.846 16 310.113 16.1667 309.593 16.5C309.073 16.82 308.813 17.3 308.813 17.94C308.813 18.58 309.126 19.0867 309.753 19.46C310.38 19.8333 311.326 20.02 312.593 20.02C313.473 20.02 314.326 19.9 315.153 19.66C315.993 19.42 316.693 19.0867 317.253 18.66L318.093 20.66ZM336.726 20.66C336.099 21.1533 335.292 21.5333 334.306 21.8C333.319 22.0667 332.252 22.2 331.106 22.2C329.759 22.2 328.612 22.0267 327.666 21.68C326.732 21.3333 326.026 20.8533 325.546 20.24C325.066 19.6267 324.826 18.92 324.826 18.12C324.826 17.3467 325.039 16.6733 325.466 16.1C325.892 15.5267 326.466 15.1067 327.186 14.84C326.639 14.5467 326.206 14.14 325.886 13.62C325.579 13.0867 325.426 12.4933 325.426 11.84C325.426 11.0933 325.646 10.42 326.086 9.82C326.539 9.20667 327.212 8.72 328.106 8.36C328.999 7.98667 330.099 7.8 331.406 7.8C332.286 7.8 333.146 7.89333 333.986 8.08C334.826 8.26667 335.559 8.52 336.186 8.84L335.446 10.9C334.272 10.2867 332.959 9.98 331.506 9.98C330.359 9.98 329.492 10.1667 328.906 10.54C328.332 10.9 328.046 11.3867 328.046 12C328.046 12.6 328.259 13.06 328.686 13.38C329.112 13.6867 329.739 13.84 330.566 13.84H334.266V16H330.426C329.479 16 328.746 16.1667 328.226 16.5C327.706 16.82 327.446 17.3 327.446 17.94C327.446 18.58 327.759 19.0867 328.386 19.46C329.012 19.8333 329.959 20.02 331.226 20.02C332.106 20.02 332.959 19.9 333.786 19.66C334.626 19.42 335.326 19.0867 335.886 18.66L336.726 20.66ZM345.871 7.8C347.551 7.8 348.858 8.31333 349.791 9.34C350.738 10.3667 351.211 11.8333 351.211 13.74V22H348.611V13.84C348.611 12.6 348.311 11.6667 347.711 11.04C347.125 10.4 346.305 10.08 345.251 10.08C344.105 10.08 343.191 10.42 342.511 11.1C341.845 11.7667 341.511 12.7667 341.511 14.1V22H338.911V8H341.431V9.76C342.405 8.45333 343.885 7.8 345.871 7.8ZM364.569 11.48C363.249 10.7333 361.875 10.28 360.449 10.12V22H357.849V10.12C356.409 10.28 355.029 10.7333 353.709 11.48L352.809 9.48C353.742 8.92 354.742 8.5 355.809 8.22C356.889 7.94 357.995 7.8 359.129 7.8C360.262 7.8 361.369 7.94 362.449 8.22C363.529 8.5 364.535 8.92 365.469 9.48L364.569 11.48ZM376.353 22L373.493 17.9C373.373 17.9133 373.193 17.92 372.953 17.92H369.793V22H367.193V8H372.953C374.166 8 375.219 8.2 376.113 8.6C377.019 9 377.713 9.57333 378.193 10.32C378.673 11.0667 378.913 11.9533 378.913 12.98C378.913 14.0333 378.653 14.94 378.133 15.7C377.626 16.46 376.893 17.0267 375.933 17.4L379.153 22H376.353ZM376.293 12.98C376.293 12.0867 375.999 11.4 375.412 10.92C374.826 10.44 373.966 10.2 372.833 10.2H369.793V15.78H372.833C373.966 15.78 374.826 15.54 375.412 15.06C375.999 14.5667 376.293 13.8733 376.293 12.98ZM392.741 20.66C392.115 21.1533 391.308 21.5333 390.321 21.8C389.335 22.0667 388.268 22.2 387.121 22.2C385.775 22.2 384.628 22.0267 383.681 21.68C382.748 21.3333 382.041 20.8533 381.561 20.24C381.081 19.6267 380.841 18.92 380.841 18.12C380.841 17.3467 381.055 16.6733 381.481 16.1C381.908 15.5267 382.481 15.1067 383.201 14.84C382.655 14.5467 382.221 14.14 381.901 13.62C381.595 13.0867 381.441 12.4933 381.441 11.84C381.441 11.0933 381.661 10.42 382.101 9.82C382.555 9.20667 383.228 8.72 384.121 8.36C385.015 7.98667 386.115 7.8 387.421 7.8C388.301 7.8 389.161 7.89333 390.001 8.08C390.841 8.26667 391.575 8.52 392.201 8.84L391.461 10.9C390.288 10.2867 388.975 9.98 387.521 9.98C386.375 9.98 385.508 10.1667 384.921 10.54C384.348 10.9 384.061 11.3867 384.061 12C384.061 12.6 384.275 13.06 384.701 13.38C385.128 13.6867 385.755 13.84 386.581 13.84H390.281V16H386.441C385.495 16 384.761 16.1667 384.241 16.5C383.721 16.82 383.461 17.3 383.461 17.94C383.461 18.58 383.775 19.0867 384.401 19.46C385.028 19.8333 385.975 20.02 387.241 20.02C388.121 20.02 388.975 19.9 389.801 19.66C390.641 19.42 391.341 19.0867 391.901 18.66L392.741 20.66ZM404.549 11.48C403.229 10.7333 401.856 10.28 400.429 10.12V22H397.829V10.12C396.389 10.28 395.009 10.7333 393.689 11.48L392.789 9.48C393.723 8.92 394.723 8.5 395.789 8.22C396.869 7.94 397.976 7.8 399.109 7.8C400.243 7.8 401.349 7.94 402.429 8.22C403.509 8.5 404.516 8.92 405.449 9.48L404.549 11.48ZM417.898 20.66C417.271 21.1533 416.464 21.5333 415.478 21.8C414.491 22.0667 413.424 22.2 412.278 22.2C410.931 22.2 409.784 22.0267 408.838 21.68C407.904 21.3333 407.198 20.8533 406.718 20.24C406.238 19.6267 405.998 18.92 405.998 18.12C405.998 17.3467 406.211 16.6733 406.638 16.1C407.064 15.5267 407.638 15.1067 408.358 14.84C407.811 14.5467 407.378 14.14 407.058 13.62C406.751 13.0867 406.598 12.4933 406.598 11.84C406.598 11.0933 406.818 10.42 407.258 9.82C407.711 9.20667 408.384 8.72 409.278 8.36C410.171 7.98667 411.271 7.8 412.578 7.8C413.458 7.8 414.318 7.89333 415.158 8.08C415.998 8.26667 416.731 8.52 417.358 8.84L416.618 10.9C415.444 10.2867 414.131 9.98 412.678 9.98C411.531 9.98 410.664 10.1667 410.078 10.54C409.504 10.9 409.218 11.3867 409.218 12C409.218 12.6 409.431 13.06 409.858 13.38C410.284 13.6867 410.911 13.84 411.738 13.84H415.438V16H411.598C410.651 16 409.918 16.1667 409.398 16.5C408.878 16.82 408.618 17.3 408.618 17.94C408.618 18.58 408.931 19.0867 409.558 19.46C410.184 19.8333 411.131 20.02 412.398 20.02C413.278 20.02 414.131 19.9 414.958 19.66C415.798 19.42 416.498 19.0867 417.058 18.66L417.898 20.66ZM427.043 7.8C428.723 7.8 430.03 8.31333 430.963 9.34C431.91 10.3667 432.383 11.8333 432.383 13.74V22H429.783V13.84C429.783 12.6 429.483 11.6667 428.883 11.04C428.296 10.4 427.476 10.08 426.423 10.08C425.276 10.08 424.363 10.42 423.683 11.1C423.016 11.7667 422.683 12.7667 422.683 14.1V22H420.083V8H422.603V9.76C423.576 8.45333 425.056 7.8 427.043 7.8ZM440.121 10.18V19.82H442.701V22H434.961V19.82H437.541V10.18H434.961V8H442.701V10.18H440.121ZM461.036 7.8C462.676 7.8 463.956 8.28 464.876 9.24C465.796 10.1867 466.256 11.5533 466.256 13.34V22H463.656V13.44C463.656 12.3333 463.362 11.5 462.776 10.94C462.202 10.3667 461.449 10.08 460.516 10.08C459.476 10.08 458.642 10.3733 458.016 10.96C457.402 11.5467 457.096 12.4467 457.096 13.66V22H454.496V13.44C454.496 12.32 454.222 11.48 453.676 10.92C453.142 10.36 452.409 10.08 451.476 10.08C450.422 10.08 449.576 10.38 448.936 10.98C448.309 11.5667 447.996 12.46 447.996 13.66V22H445.396V8H447.916V9.84C448.342 9.18667 448.922 8.68667 449.656 8.34C450.389 7.98 451.236 7.8 452.196 7.8C453.182 7.8 454.042 7.98667 454.776 8.36C455.509 8.73333 456.062 9.26 456.436 9.94C456.902 9.26 457.536 8.73333 458.336 8.36C459.149 7.98667 460.049 7.8 461.036 7.8ZM480.808 20.66C480.181 21.1533 479.374 21.5333 478.388 21.8C477.401 22.0667 476.334 22.2 475.188 22.2C473.841 22.2 472.694 22.0267 471.748 21.68C470.814 21.3333 470.108 20.8533 469.628 20.24C469.148 19.6267 468.908 18.92 468.908 18.12C468.908 17.3467 469.121 16.6733 469.548 16.1C469.974 15.5267 470.548 15.1067 471.268 14.84C470.721 14.5467 470.288 14.14 469.968 13.62C469.661 13.0867 469.508 12.4933 469.508 11.84C469.508 11.0933 469.728 10.42 470.168 9.82C470.621 9.20667 471.294 8.72 472.188 8.36C473.081 7.98667 474.181 7.8 475.488 7.8C476.368 7.8 477.228 7.89333 478.068 8.08C478.908 8.26667 479.641 8.52 480.268 8.84L479.528 10.9C478.354 10.2867 477.041 9.98 475.588 9.98C474.441 9.98 473.574 10.1667 472.988 10.54C472.414 10.9 472.128 11.3867 472.128 12C472.128 12.6 472.341 13.06 472.768 13.38C473.194 13.6867 473.821 13.84 474.648 13.84H478.348V16H474.508C473.561 16 472.828 16.1667 472.308 16.5C471.788 16.82 471.528 17.3 471.528 17.94C471.528 18.58 471.841 19.0867 472.468 19.46C473.094 19.8333 474.041 20.02 475.308 20.02C476.188 20.02 477.041 19.9 477.868 19.66C478.708 19.42 479.408 19.0867 479.968 18.66L480.808 20.66ZM489.953 7.8C491.633 7.8 492.94 8.31333 493.873 9.34C494.82 10.3667 495.293 11.8333 495.293 13.74V22H492.693V13.84C492.693 12.6 492.393 11.6667 491.793 11.04C491.207 10.4 490.387 10.08 489.333 10.08C488.187 10.08 487.273 10.42 486.593 11.1C485.927 11.7667 485.593 12.7667 485.593 14.1V22H482.993V8H485.513V9.76C486.487 8.45333 487.967 7.8 489.953 7.8ZM508.651 11.48C507.331 10.7333 505.957 10.28 504.531 10.12V22H501.931V10.12C500.491 10.28 499.111 10.7333 497.791 11.48L496.891 9.48C497.824 8.92 498.824 8.5 499.891 8.22C500.971 7.94 502.077 7.8 503.211 7.8C504.344 7.8 505.451 7.94 506.531 8.22C507.611 8.5 508.617 8.92 509.551 9.48L508.651 11.48ZM517.619 22.2C516.193 22.2 514.906 21.8933 513.759 21.28C512.613 20.6533 511.713 19.7933 511.059 18.7C510.406 17.5933 510.079 16.36 510.079 15C510.079 13.64 510.406 12.4133 511.059 11.32C511.713 10.2133 512.613 9.35333 513.759 8.74C514.906 8.11333 516.193 7.8 517.619 7.8C519.046 7.8 520.333 8.11333 521.479 8.74C522.626 9.35333 523.526 10.2067 524.179 11.3C524.833 12.3933 525.159 13.6267 525.159 15C525.159 16.3733 524.833 17.6067 524.179 18.7C523.526 19.7933 522.626 20.6533 521.479 21.28C520.333 21.8933 519.046 22.2 517.619 22.2ZM517.619 19.92C518.553 19.92 519.393 19.7133 520.139 19.3C520.886 18.8733 521.473 18.2867 521.899 17.54C522.326 16.78 522.539 15.9333 522.539 15C522.539 14.0667 522.326 13.2267 521.899 12.48C521.473 11.72 520.886 11.1333 520.139 10.72C519.393 10.2933 518.553 10.08 517.619 10.08C516.686 10.08 515.846 10.2933 515.099 10.72C514.353 11.1333 513.766 11.72 513.339 12.48C512.913 13.2267 512.699 14.0667 512.699 15C512.699 15.9333 512.913 16.78 513.339 17.54C513.766 18.2867 514.353 18.8733 515.099 19.3C515.846 19.7133 516.686 19.92 517.619 19.92Z" fill="white"/>
</svg>
