<svg width="395" height="56" viewBox="0 0 395 56" fill="none" xmlns="http://www.w3.org/2000/svg">
<path d="M41 1V45H1V1H41Z" fill="white" stroke="black" stroke-width="2"/>
<path d="M297 1V28H54V1H297Z" fill="#0033CC" stroke="black" stroke-width="2"/>
<path d="M394 28V55H54V28H394Z" fill="#0033CC" stroke="black" stroke-width="2"/>
<path d="M54 1V28H41V1H54Z" fill="#FFCC00" stroke="black" stroke-width="2"/>
<path d="M41 1V28H23V1H41Z" fill="#FF6600" stroke="black" stroke-width="2"/>
<path d="M66.88 8H69.48V19.8H76.8V22H66.88V8ZM85.1388 22.2C83.7121 22.2 82.4254 21.8933 81.2788 21.28C80.1321 20.6533 79.2321 19.7933 78.5788 18.7C77.9254 17.5933 77.5988 16.36 77.5988 15C77.5988 13.64 77.9254 12.4133 78.5788 11.32C79.2321 10.2133 80.1321 9.35333 81.2788 8.74C82.4254 8.11333 83.7121 7.8 85.1388 7.8C86.5654 7.8 87.8521 8.11333 88.9988 8.74C90.1454 9.35333 91.0454 10.2067 91.6988 11.3C92.3521 12.3933 92.6788 13.6267 92.6788 15C92.6788 16.3733 92.3521 17.6067 91.6988 18.7C91.0454 19.7933 90.1454 20.6533 88.9988 21.28C87.8521 21.8933 86.5654 22.2 85.1388 22.2ZM85.1388 19.92C86.0721 19.92 86.9121 19.7133 87.6588 19.3C88.4054 18.8733 88.9921 18.2867 89.4188 17.54C89.8454 16.78 90.0588 15.9333 90.0588 15C90.0588 14.0667 89.8454 13.2267 89.4188 12.48C88.9921 11.72 88.4054 11.1333 87.6588 10.72C86.9121 10.2933 86.0721 10.08 85.1388 10.08C84.2054 10.08 83.3654 10.2933 82.6188 10.72C81.8721 11.1333 81.2854 11.72 80.8588 12.48C80.4321 13.2267 80.2188 14.0667 80.2188 15C80.2188 15.9333 80.4321 16.78 80.8588 17.54C81.2854 18.2867 81.8721 18.8733 82.6188 19.3C83.3654 19.7133 84.2054 19.92 85.1388 19.92ZM96.9492 24.2C96.0692 24.2 95.2559 24.0267 94.5092 23.68C93.7759 23.3333 93.1692 22.8333 92.6892 22.18L94.1292 20.4C94.8892 21.4667 95.8026 22 96.8692 22C98.3492 22 99.0892 21.14 99.0892 19.42V10.18H94.0892V8H101.669V19.28C101.669 20.92 101.269 22.1467 100.469 22.96C99.6692 23.7867 98.4959 24.2 96.9492 24.2ZM111.418 7.8C112.671 7.8 113.764 8.04667 114.698 8.54C115.631 9.03333 116.351 9.76667 116.858 10.74C117.378 11.7 117.638 12.8667 117.638 14.24V22H115.038V18.4H107.758V22H105.198V14.24C105.198 12.8667 105.451 11.7 105.958 10.74C106.478 9.76667 107.204 9.03333 108.138 8.54C109.071 8.04667 110.164 7.8 111.418 7.8ZM115.038 16.22V14C115.038 12.7067 114.718 11.7333 114.078 11.08C113.438 10.4133 112.544 10.08 111.398 10.08C110.251 10.08 109.358 10.4133 108.717 11.08C108.078 11.7333 107.758 12.7067 107.758 14V16.22H115.038ZM126.802 8H132.922C134.415 8 135.742 8.29333 136.902 8.88C138.062 9.45333 138.962 10.2733 139.602 11.34C140.242 12.3933 140.562 13.6133 140.562 15C140.562 16.3867 140.242 17.6133 139.602 18.68C138.962 19.7333 138.062 20.5533 136.902 21.14C135.742 21.7133 134.415 22 132.922 22H126.802V8ZM132.802 19.8C133.829 19.8 134.729 19.6067 135.502 19.22C136.289 18.82 136.889 18.26 137.302 17.54C137.729 16.8067 137.942 15.96 137.942 15C137.942 14.04 137.729 13.2 137.302 12.48C136.889 11.7467 136.289 11.1867 135.502 10.8C134.729 10.4 133.829 10.2 132.802 10.2H129.402V19.8H132.802ZM154.245 20.66C153.619 21.1533 152.812 21.5333 151.825 21.8C150.839 22.0667 149.772 22.2 148.625 22.2C147.279 22.2 146.132 22.0267 145.185 21.68C144.252 21.3333 143.545 20.8533 143.065 20.24C142.585 19.6267 142.345 18.92 142.345 18.12C142.345 17.3467 142.559 16.6733 142.985 16.1C143.412 15.5267 143.985 15.1067 144.705 14.84C144.159 14.5467 143.725 14.14 143.405 13.62C143.099 13.0867 142.945 12.4933 142.945 11.84C142.945 11.0933 143.165 10.42 143.605 9.82C144.059 9.20667 144.732 8.72 145.625 8.36C146.519 7.98667 147.619 7.8 148.925 7.8C149.805 7.8 150.665 7.89333 151.505 8.08C152.345 8.26667 153.079 8.52 153.705 8.84L152.965 10.9C151.792 10.2867 150.479 9.98 149.025 9.98C147.879 9.98 147.012 10.1667 146.425 10.54C145.852 10.9 145.565 11.3867 145.565 12C145.565 12.6 145.779 13.06 146.205 13.38C146.632 13.6867 147.259 13.84 148.085 13.84H151.785V16H147.945C146.999 16 146.265 16.1667 145.745 16.5C145.225 16.82 144.965 17.3 144.965 17.94C144.965 18.58 145.279 19.0867 145.905 19.46C146.532 19.8333 147.479 20.02 148.745 20.02C149.625 20.02 150.479 19.9 151.305 19.66C152.145 19.42 152.845 19.0867 153.405 18.66L154.245 20.66ZM168.058 7.8C169.311 7.8 170.405 8.04667 171.338 8.54C172.271 9.03333 172.991 9.76667 173.498 10.74C174.018 11.7 174.278 12.8667 174.278 14.24V22H171.678V18.4H164.398V22H161.838V14.24C161.838 12.8667 162.091 11.7 162.598 10.74C163.118 9.76667 163.845 9.03333 164.778 8.54C165.711 8.04667 166.805 7.8 168.058 7.8ZM171.678 16.22V14C171.678 12.7067 171.358 11.7333 170.718 11.08C170.078 10.4133 169.185 10.08 168.038 10.08C166.891 10.08 165.998 10.4133 165.358 11.08C164.718 11.7333 164.398 12.7067 164.398 14V16.22H171.678ZM187.075 22L184.215 17.9C184.095 17.9133 183.915 17.92 183.675 17.92H180.515V22H177.915V8H183.675C184.888 8 185.942 8.2 186.835 8.6C187.742 9 188.435 9.57333 188.915 10.32C189.395 11.0667 189.635 11.9533 189.635 12.98C189.635 14.0333 189.375 14.94 188.855 15.7C188.348 16.46 187.615 17.0267 186.655 17.4L189.875 22H187.075ZM187.015 12.98C187.015 12.0867 186.722 11.4 186.135 10.92C185.548 10.44 184.688 10.2 183.555 10.2H180.515V15.78H183.555C184.688 15.78 185.548 15.54 186.135 15.06C186.722 14.5667 187.015 13.8733 187.015 12.98ZM202.264 11.48C200.944 10.7333 199.571 10.28 198.144 10.12V22H195.544V10.12C194.104 10.28 192.724 10.7333 191.404 11.48L190.504 9.48C191.437 8.92 192.437 8.5 193.504 8.22C194.584 7.94 195.691 7.8 196.824 7.8C197.957 7.8 199.064 7.94 200.144 8.22C201.224 8.5 202.231 8.92 203.164 9.48L202.264 11.48ZM208.988 10.18V19.82H211.568V22H203.828V19.82H206.408V10.18H203.828V8H211.568V10.18H208.988ZM220.383 10.08C219.183 10.08 218.276 10.3467 217.663 10.88C217.049 11.4133 216.743 12.2 216.743 13.24V14.44H222.843V16.64H216.743V22H214.143V13.24C214.143 11.5467 214.683 10.22 215.763 9.26C216.856 8.28667 218.356 7.8 220.263 7.8C221.063 7.8 221.809 7.88667 222.503 8.06C223.196 8.23333 223.803 8.48667 224.323 8.82L223.503 10.94C222.676 10.3667 221.636 10.08 220.383 10.08ZM232.756 22.2C231.329 22.2 230.043 21.8933 228.896 21.28C227.749 20.6533 226.849 19.7933 226.196 18.7C225.543 17.5933 225.216 16.36 225.216 15C225.216 13.64 225.543 12.4133 226.196 11.32C226.849 10.2133 227.749 9.35333 228.896 8.74C230.043 8.11333 231.329 7.8 232.756 7.8C234.183 7.8 235.469 8.11333 236.616 8.74C237.763 9.35333 238.663 10.2067 239.316 11.3C239.969 12.3933 240.296 13.6267 240.296 15C240.296 16.3733 239.969 17.6067 239.316 18.7C238.663 19.7933 237.763 20.6533 236.616 21.28C235.469 21.8933 234.183 22.2 232.756 22.2ZM232.756 19.92C233.689 19.92 234.529 19.7133 235.276 19.3C236.023 18.8733 236.609 18.2867 237.036 17.54C237.463 16.78 237.676 15.9333 237.676 15C237.676 14.0667 237.463 13.2267 237.036 12.48C236.609 11.72 236.023 11.1333 235.276 10.72C234.529 10.2933 233.689 10.08 232.756 10.08C231.823 10.08 230.983 10.2933 230.236 10.72C229.489 11.1333 228.903 11.72 228.476 12.48C228.049 13.2267 227.836 14.0667 227.836 15C227.836 15.9333 228.049 16.78 228.476 17.54C228.903 18.2867 229.489 18.8733 230.236 19.3C230.983 19.7133 231.823 19.92 232.756 19.92ZM247.392 22.2C246.312 22.2 245.265 22.0467 244.252 21.74C243.252 21.4333 242.459 21.0267 241.872 20.52L242.772 18.5C243.345 18.9533 244.045 19.3267 244.872 19.62C245.712 19.9 246.552 20.04 247.392 20.04C248.432 20.04 249.205 19.8733 249.712 19.54C250.232 19.2067 250.492 18.7667 250.492 18.22C250.492 17.82 250.345 17.4933 250.052 17.24C249.772 16.9733 249.412 16.7667 248.972 16.62C248.532 16.4733 247.932 16.3067 247.172 16.12C246.105 15.8667 245.239 15.6133 244.572 15.36C243.919 15.1067 243.352 14.7133 242.872 14.18C242.405 13.6333 242.172 12.9 242.172 11.98C242.172 11.2067 242.379 10.5067 242.792 9.88C243.219 9.24 243.852 8.73333 244.692 8.36C245.545 7.98667 246.585 7.8 247.812 7.8C248.665 7.8 249.505 7.90667 250.332 8.12C251.159 8.33333 251.872 8.64 252.472 9.04L251.652 11.06C251.039 10.7 250.399 10.4267 249.732 10.24C249.065 10.0533 248.419 9.96 247.792 9.96C246.765 9.96 245.999 10.1333 245.492 10.48C244.999 10.8267 244.752 11.2867 244.752 11.86C244.752 12.26 244.892 12.5867 245.172 12.84C245.465 13.0933 245.832 13.2933 246.272 13.44C246.712 13.5867 247.312 13.7533 248.072 13.94C249.112 14.18 249.965 14.4333 250.632 14.7C251.299 14.9533 251.865 15.3467 252.332 15.88C252.812 16.4133 253.052 17.1333 253.052 18.04C253.052 18.8133 252.839 19.5133 252.412 20.14C251.999 20.7667 251.365 21.2667 250.512 21.64C249.659 22.0133 248.619 22.2 247.392 22.2ZM261.157 8H267.277C268.771 8 270.097 8.29333 271.257 8.88C272.417 9.45333 273.317 10.2733 273.957 11.34C274.597 12.3933 274.917 13.6133 274.917 15C274.917 16.3867 274.597 17.6133 273.957 18.68C273.317 19.7333 272.417 20.5533 271.257 21.14C270.097 21.7133 268.771 22 267.277 22H261.157V8ZM267.157 19.8C268.184 19.8 269.084 19.6067 269.857 19.22C270.644 18.82 271.244 18.26 271.657 17.54C272.084 16.8067 272.297 15.96 272.297 15C272.297 14.04 272.084 13.2 271.657 12.48C271.244 11.7467 270.644 11.1867 269.857 10.8C269.084 10.4 268.184 10.2 267.157 10.2H263.757V19.8H267.157ZM288.601 20.66C287.974 21.1533 287.167 21.5333 286.181 21.8C285.194 22.0667 284.127 22.2 282.981 22.2C281.634 22.2 280.487 22.0267 279.541 21.68C278.607 21.3333 277.901 20.8533 277.421 20.24C276.941 19.6267 276.701 18.92 276.701 18.12C276.701 17.3467 276.914 16.6733 277.341 16.1C277.767 15.5267 278.341 15.1067 279.061 14.84C278.514 14.5467 278.081 14.14 277.761 13.62C277.454 13.0867 277.301 12.4933 277.301 11.84C277.301 11.0933 277.521 10.42 277.961 9.82C278.414 9.20667 279.087 8.72 279.981 8.36C280.874 7.98667 281.974 7.8 283.281 7.8C284.161 7.8 285.021 7.89333 285.861 8.08C286.701 8.26667 287.434 8.52 288.061 8.84L287.321 10.9C286.147 10.2867 284.834 9.98 283.381 9.98C282.234 9.98 281.367 10.1667 280.781 10.54C280.207 10.9 279.921 11.3867 279.921 12C279.921 12.6 280.134 13.06 280.561 13.38C280.987 13.6867 281.614 13.84 282.441 13.84H286.141V16H282.301C281.354 16 280.621 16.1667 280.101 16.5C279.581 16.82 279.321 17.3 279.321 17.94C279.321 18.58 279.634 19.0867 280.261 19.46C280.887 19.8333 281.834 20.02 283.101 20.02C283.981 20.02 284.834 19.9 285.661 19.66C286.501 19.42 287.201 19.0867 287.761 18.66L288.601 20.66Z" fill="white"/>
<path d="M77.8 47.66C77.1733 48.1533 76.3667 48.5333 75.38 48.8C74.3933 49.0667 73.3267 49.2 72.18 49.2C70.8333 49.2 69.6867 49.0267 68.74 48.68C67.8067 48.3333 67.1 47.8533 66.62 47.24C66.14 46.6267 65.9 45.92 65.9 45.12C65.9 44.3467 66.1133 43.6733 66.54 43.1C66.9667 42.5267 67.54 42.1067 68.26 41.84C67.7133 41.5467 67.28 41.14 66.96 40.62C66.6533 40.0867 66.5 39.4933 66.5 38.84C66.5 38.0933 66.72 37.42 67.16 36.82C67.6133 36.2067 68.2867 35.72 69.18 35.36C70.0733 34.9867 71.1733 34.8 72.48 34.8C73.36 34.8 74.22 34.8933 75.06 35.08C75.9 35.2667 76.6333 35.52 77.26 35.84L76.52 37.9C75.3467 37.2867 74.0333 36.98 72.58 36.98C71.4333 36.98 70.5667 37.1667 69.98 37.54C69.4067 37.9 69.12 38.3867 69.12 39C69.12 39.6 69.3333 40.06 69.76 40.38C70.1867 40.6867 70.8133 40.84 71.64 40.84H75.34V43H71.5C70.5533 43 69.82 43.1667 69.3 43.5C68.78 43.82 68.52 44.3 68.52 44.94C68.52 45.58 68.8333 46.0867 69.46 46.46C70.0867 46.8333 71.0333 47.02 72.3 47.02C73.18 47.02 74.0333 46.9 74.86 46.66C75.7 46.42 76.4 46.0867 76.96 45.66L77.8 47.66ZM84.3255 49.2C83.2455 49.2 82.1988 49.0467 81.1855 48.74C80.1855 48.4333 79.3921 48.0267 78.8055 47.52L79.7055 45.5C80.2788 45.9533 80.9788 46.3267 81.8055 46.62C82.6455 46.9 83.4855 47.04 84.3255 47.04C85.3655 47.04 86.1388 46.8733 86.6455 46.54C87.1655 46.2067 87.4255 45.7667 87.4255 45.22C87.4255 44.82 87.2788 44.4933 86.9855 44.24C86.7055 43.9733 86.3455 43.7667 85.9055 43.62C85.4655 43.4733 84.8655 43.3067 84.1055 43.12C83.0388 42.8667 82.1721 42.6133 81.5055 42.36C80.8521 42.1067 80.2855 41.7133 79.8055 41.18C79.3388 40.6333 79.1055 39.9 79.1055 38.98C79.1055 38.2067 79.3121 37.5067 79.7255 36.88C80.1521 36.24 80.7855 35.7333 81.6255 35.36C82.4788 34.9867 83.5188 34.8 84.7455 34.8C85.5988 34.8 86.4388 34.9067 87.2655 35.12C88.0921 35.3333 88.8055 35.64 89.4055 36.04L88.5855 38.06C87.9721 37.7 87.3321 37.4267 86.6655 37.24C85.9988 37.0533 85.3521 36.96 84.7255 36.96C83.6988 36.96 82.9321 37.1333 82.4255 37.48C81.9321 37.8267 81.6855 38.2867 81.6855 38.86C81.6855 39.26 81.8255 39.5867 82.1055 39.84C82.3988 40.0933 82.7655 40.2933 83.2055 40.44C83.6455 40.5867 84.2455 40.7533 85.0055 40.94C86.0455 41.18 86.8988 41.4333 87.5655 41.7C88.2321 41.9533 88.7988 42.3467 89.2655 42.88C89.7455 43.4133 89.9855 44.1333 89.9855 45.04C89.9855 45.8133 89.7721 46.5133 89.3455 47.14C88.9321 47.7667 88.2988 48.2667 87.4455 48.64C86.5921 49.0133 85.5521 49.2 84.3255 49.2ZM99.0436 49.2C97.6303 49.2 96.3503 48.8933 95.2036 48.28C94.0703 47.6533 93.1769 46.7933 92.5236 45.7C91.8836 44.6067 91.5636 43.3733 91.5636 42C91.5636 40.6267 91.8903 39.3933 92.5436 38.3C93.1969 37.2067 94.0903 36.3533 95.2236 35.74C96.3703 35.1133 97.6503 34.8 99.0636 34.8C100.21 34.8 101.257 35 102.204 35.4C103.15 35.8 103.95 36.38 104.604 37.14L102.924 38.72C101.91 37.6267 100.664 37.08 99.1836 37.08C98.2236 37.08 97.3636 37.2933 96.6036 37.72C95.8436 38.1333 95.2503 38.7133 94.8236 39.46C94.3969 40.2067 94.1836 41.0533 94.1836 42C94.1836 42.9467 94.3969 43.7933 94.8236 44.54C95.2503 45.2867 95.8436 45.8733 96.6036 46.3C97.3636 46.7133 98.2236 46.92 99.1836 46.92C100.664 46.92 101.91 46.3667 102.924 45.26L104.604 46.86C103.95 47.62 103.144 48.2 102.184 48.6C101.237 49 100.19 49.2 99.0436 49.2ZM116.255 49L113.395 44.9C113.275 44.9133 113.095 44.92 112.855 44.92H109.695V49H107.095V35H112.855C114.068 35 115.122 35.2 116.015 35.6C116.922 36 117.615 36.5733 118.095 37.32C118.575 38.0667 118.815 38.9533 118.815 39.98C118.815 41.0333 118.555 41.94 118.035 42.7C117.528 43.46 116.795 44.0267 115.835 44.4L119.055 49H116.255ZM116.195 39.98C116.195 39.0867 115.902 38.4 115.315 37.92C114.728 37.44 113.868 37.2 112.735 37.2H109.695V42.78H112.735C113.868 42.78 114.728 42.54 115.315 42.06C115.902 41.5667 116.195 40.8733 116.195 39.98ZM125.824 37.18V46.82H128.404V49H120.664V46.82H123.244V37.18H120.664V35H128.404V37.18H125.824ZM140.819 38.48C139.499 37.7333 138.125 37.28 136.699 37.12V49H134.099V37.12C132.659 37.28 131.279 37.7333 129.959 38.48L129.059 36.48C129.992 35.92 130.992 35.5 132.059 35.22C133.139 34.94 134.245 34.8 135.379 34.8C136.512 34.8 137.619 34.94 138.699 35.22C139.779 35.5 140.785 35.92 141.719 36.48L140.819 38.48ZM149.787 49.2C148.361 49.2 147.074 48.8933 145.927 48.28C144.781 47.6533 143.881 46.7933 143.227 45.7C142.574 44.5933 142.247 43.36 142.247 42C142.247 40.64 142.574 39.4133 143.227 38.32C143.881 37.2133 144.781 36.3533 145.927 35.74C147.074 35.1133 148.361 34.8 149.787 34.8C151.214 34.8 152.501 35.1133 153.647 35.74C154.794 36.3533 155.694 37.2067 156.347 38.3C157.001 39.3933 157.327 40.6267 157.327 42C157.327 43.3733 157.001 44.6067 156.347 45.7C155.694 46.7933 154.794 47.6533 153.647 48.28C152.501 48.8933 151.214 49.2 149.787 49.2ZM149.787 46.92C150.721 46.92 151.561 46.7133 152.307 46.3C153.054 45.8733 153.641 45.2867 154.067 44.54C154.494 43.78 154.707 42.9333 154.707 42C154.707 41.0667 154.494 40.2267 154.067 39.48C153.641 38.72 153.054 38.1333 152.307 37.72C151.561 37.2933 150.721 37.08 149.787 37.08C148.854 37.08 148.014 37.2933 147.267 37.72C146.521 38.1333 145.934 38.72 145.507 39.48C145.081 40.2267 144.867 41.0667 144.867 42C144.867 42.9333 145.081 43.78 145.507 44.54C145.934 45.2867 146.521 45.8733 147.267 46.3C148.014 46.7133 148.854 46.92 149.787 46.92ZM150.807 31.12H153.747L150.267 33.86H148.107L150.807 31.12ZM169.243 49L166.383 44.9C166.263 44.9133 166.083 44.92 165.843 44.92H162.683V49H160.083V35H165.843C167.056 35 168.11 35.2 169.003 35.6C169.91 36 170.603 36.5733 171.083 37.32C171.563 38.0667 171.803 38.9533 171.803 39.98C171.803 41.0333 171.543 41.94 171.023 42.7C170.516 43.46 169.783 44.0267 168.823 44.4L172.043 49H169.243ZM169.183 39.98C169.183 39.0867 168.89 38.4 168.303 37.92C167.716 37.44 166.856 37.2 165.723 37.2H162.683V42.78H165.723C166.856 42.78 167.716 42.54 168.303 42.06C168.89 41.5667 169.183 40.8733 169.183 39.98ZM178.812 37.18V46.82H181.392V49H173.652V46.82H176.232V37.18H173.652V35H181.392V37.18H178.812ZM190.529 49.2C189.103 49.2 187.816 48.8933 186.669 48.28C185.523 47.6533 184.623 46.7933 183.969 45.7C183.316 44.5933 182.989 43.36 182.989 42C182.989 40.64 183.316 39.4133 183.969 38.32C184.623 37.2133 185.523 36.3533 186.669 35.74C187.816 35.1133 189.103 34.8 190.529 34.8C191.956 34.8 193.243 35.1133 194.389 35.74C195.536 36.3533 196.436 37.2067 197.089 38.3C197.743 39.3933 198.069 40.6267 198.069 42C198.069 43.3733 197.743 44.6067 197.089 45.7C196.436 46.7933 195.536 47.6533 194.389 48.28C193.243 48.8933 191.956 49.2 190.529 49.2ZM190.529 46.92C191.463 46.92 192.303 46.7133 193.049 46.3C193.796 45.8733 194.383 45.2867 194.809 44.54C195.236 43.78 195.449 42.9333 195.449 42C195.449 41.0667 195.236 40.2267 194.809 39.48C194.383 38.72 193.796 38.1333 193.049 37.72C192.303 37.2933 191.463 37.08 190.529 37.08C189.596 37.08 188.756 37.2933 188.009 37.72C187.263 38.1333 186.676 38.72 186.249 39.48C185.823 40.2267 185.609 41.0667 185.609 42C185.609 42.9333 185.823 43.78 186.249 44.54C186.676 45.2867 187.263 45.8733 188.009 46.3C188.756 46.7133 189.596 46.92 190.529 46.92ZM217.273 47.66C216.646 48.1533 215.839 48.5333 214.853 48.8C213.866 49.0667 212.799 49.2 211.653 49.2C210.306 49.2 209.159 49.0267 208.213 48.68C207.279 48.3333 206.573 47.8533 206.093 47.24C205.613 46.6267 205.373 45.92 205.373 45.12C205.373 44.3467 205.586 43.6733 206.013 43.1C206.439 42.5267 207.013 42.1067 207.733 41.84C207.186 41.5467 206.753 41.14 206.433 40.62C206.126 40.0867 205.973 39.4933 205.973 38.84C205.973 38.0933 206.193 37.42 206.633 36.82C207.086 36.2067 207.759 35.72 208.653 35.36C209.546 34.9867 210.646 34.8 211.953 34.8C212.833 34.8 213.693 34.8933 214.533 35.08C215.373 35.2667 216.106 35.52 216.733 35.84L215.993 37.9C214.819 37.2867 213.506 36.98 212.053 36.98C210.906 36.98 210.039 37.1667 209.453 37.54C208.879 37.9 208.593 38.3867 208.593 39C208.593 39.6 208.806 40.06 209.233 40.38C209.659 40.6867 210.286 40.84 211.113 40.84H214.813V43H210.973C210.026 43 209.293 43.1667 208.773 43.5C208.253 43.82 207.993 44.3 207.993 44.94C207.993 45.58 208.306 46.0867 208.933 46.46C209.559 46.8333 210.506 47.02 211.773 47.02C212.653 47.02 213.506 46.9 214.333 46.66C215.173 46.42 215.873 46.0867 216.433 45.66L217.273 47.66ZM229.085 37.18V46.82H231.665V49H223.925V46.82H226.505V37.18H223.925V35H231.665V37.18H229.085ZM241.32 34.8C243 34.8 244.307 35.3133 245.24 36.34C246.187 37.3667 246.66 38.8333 246.66 40.74V49H244.06V40.84C244.06 39.6 243.76 38.6667 243.16 38.04C242.574 37.4 241.754 37.08 240.7 37.08C239.554 37.08 238.64 37.42 237.96 38.1C237.294 38.7667 236.96 39.7667 236.96 41.1V49H234.36V35H236.88V36.76C237.854 35.4533 239.334 34.8 241.32 34.8ZM256.418 37.08C255.218 37.08 254.311 37.3467 253.698 37.88C253.085 38.4133 252.778 39.2 252.778 40.24V41.44H258.878V43.64H252.778V49H250.178V40.24C250.178 38.5467 250.718 37.22 251.798 36.26C252.891 35.2867 254.391 34.8 256.298 34.8C257.098 34.8 257.845 34.8867 258.538 35.06C259.231 35.2333 259.838 35.4867 260.358 35.82L259.538 37.94C258.711 37.3667 257.671 37.08 256.418 37.08ZM268.791 49.2C267.364 49.2 266.078 48.8933 264.931 48.28C263.784 47.6533 262.884 46.7933 262.231 45.7C261.578 44.5933 261.251 43.36 261.251 42C261.251 40.64 261.578 39.4133 262.231 38.32C262.884 37.2133 263.784 36.3533 264.931 35.74C266.078 35.1133 267.364 34.8 268.791 34.8C270.218 34.8 271.504 35.1133 272.651 35.74C273.798 36.3533 274.698 37.2067 275.351 38.3C276.004 39.3933 276.331 40.6267 276.331 42C276.331 43.3733 276.004 44.6067 275.351 45.7C274.698 46.7933 273.798 47.6533 272.651 48.28C271.504 48.8933 270.218 49.2 268.791 49.2ZM268.791 46.92C269.724 46.92 270.564 46.7133 271.311 46.3C272.058 45.8733 272.644 45.2867 273.071 44.54C273.498 43.78 273.711 42.9333 273.711 42C273.711 41.0667 273.498 40.2267 273.071 39.48C272.644 38.72 272.058 38.1333 271.311 37.72C270.564 37.2933 269.724 37.08 268.791 37.08C267.858 37.08 267.018 37.2933 266.271 37.72C265.524 38.1333 264.938 38.72 264.511 39.48C264.084 40.2267 263.871 41.0667 263.871 42C263.871 42.9333 264.084 43.78 264.511 44.54C264.938 45.2867 265.524 45.8733 266.271 46.3C267.018 46.7133 267.858 46.92 268.791 46.92ZM288.247 49L285.387 44.9C285.267 44.9133 285.087 44.92 284.847 44.92H281.687V49H279.087V35H284.847C286.06 35 287.114 35.2 288.007 35.6C288.914 36 289.607 36.5733 290.087 37.32C290.567 38.0667 290.807 38.9533 290.807 39.98C290.807 41.0333 290.547 41.94 290.027 42.7C289.52 43.46 288.787 44.0267 287.827 44.4L291.047 49H288.247ZM288.187 39.98C288.187 39.0867 287.894 38.4 287.307 37.92C286.72 37.44 285.86 37.2 284.727 37.2H281.687V42.78H284.727C285.86 42.78 286.72 42.54 287.307 42.06C287.894 41.5667 288.187 40.8733 288.187 39.98ZM309.356 34.8C310.996 34.8 312.276 35.28 313.196 36.24C314.116 37.1867 314.576 38.5533 314.576 40.34V49H311.976V40.44C311.976 39.3333 311.683 38.5 311.096 37.94C310.523 37.3667 309.769 37.08 308.836 37.08C307.796 37.08 306.963 37.3733 306.336 37.96C305.723 38.5467 305.416 39.4467 305.416 40.66V49H302.816V40.44C302.816 39.32 302.543 38.48 301.996 37.92C301.463 37.36 300.729 37.08 299.796 37.08C298.743 37.08 297.896 37.38 297.256 37.98C296.629 38.5667 296.316 39.46 296.316 40.66V49H293.716V35H296.236V36.84C296.663 36.1867 297.243 35.6867 297.976 35.34C298.709 34.98 299.556 34.8 300.516 34.8C301.503 34.8 302.363 34.9867 303.096 35.36C303.829 35.7333 304.383 36.26 304.756 36.94C305.223 36.26 305.856 35.7333 306.656 35.36C307.469 34.9867 308.369 34.8 309.356 34.8ZM324.308 34.8C325.561 34.8 326.655 35.0467 327.588 35.54C328.521 36.0333 329.241 36.7667 329.748 37.74C330.268 38.7 330.528 39.8667 330.528 41.24V49H327.928V45.4H320.648V49H318.088V41.24C318.088 39.8667 318.341 38.7 318.848 37.74C319.368 36.7667 320.095 36.0333 321.028 35.54C321.961 35.0467 323.055 34.8 324.308 34.8ZM327.928 43.22V41C327.928 39.7067 327.608 38.7333 326.968 38.08C326.328 37.4133 325.435 37.08 324.288 37.08C323.141 37.08 322.248 37.4133 321.608 38.08C320.968 38.7333 320.648 39.7067 320.648 41V43.22H327.928ZM325.328 31.12H328.268L324.788 33.86H322.628L325.328 31.12ZM343.69 38.48C342.37 37.7333 340.997 37.28 339.57 37.12V49H336.97V37.12C335.53 37.28 334.15 37.7333 332.83 38.48L331.93 36.48C332.863 35.92 333.863 35.5 334.93 35.22C336.01 34.94 337.117 34.8 338.25 34.8C339.383 34.8 340.49 34.94 341.57 35.22C342.65 35.5 343.657 35.92 344.59 36.48L343.69 38.48ZM350.414 37.18V46.82H352.994V49H345.254V46.82H347.834V37.18H345.254V35H352.994V37.18H350.414ZM362.071 49.2C360.658 49.2 359.378 48.8933 358.231 48.28C357.098 47.6533 356.204 46.7933 355.551 45.7C354.911 44.6067 354.591 43.3733 354.591 42C354.591 40.6267 354.918 39.3933 355.571 38.3C356.224 37.2067 357.118 36.3533 358.251 35.74C359.398 35.1133 360.678 34.8 362.091 34.8C363.238 34.8 364.284 35 365.231 35.4C366.178 35.8 366.978 36.38 367.631 37.14L365.951 38.72C364.938 37.6267 363.691 37.08 362.211 37.08C361.251 37.08 360.391 37.2933 359.631 37.72C358.871 38.1333 358.278 38.7133 357.851 39.46C357.424 40.2067 357.211 41.0533 357.211 42C357.211 42.9467 357.424 43.7933 357.851 44.54C358.278 45.2867 358.871 45.8733 359.631 46.3C360.391 46.7133 361.251 46.92 362.211 46.92C363.691 46.92 364.938 46.3667 365.951 45.26L367.631 46.86C366.978 47.62 366.171 48.2 365.211 48.6C364.264 49 363.218 49.2 362.071 49.2ZM376.222 34.8C377.476 34.8 378.569 35.0467 379.502 35.54C380.436 36.0333 381.156 36.7667 381.662 37.74C382.182 38.7 382.442 39.8667 382.442 41.24V49H379.842V45.4H372.562V49H370.002V41.24C370.002 39.8667 370.256 38.7 370.762 37.74C371.282 36.7667 372.009 36.0333 372.942 35.54C373.876 35.0467 374.969 34.8 376.222 34.8ZM379.842 43.22V41C379.842 39.7067 379.522 38.7333 378.882 38.08C378.242 37.4133 377.349 37.08 376.202 37.08C375.056 37.08 374.162 37.4133 373.522 38.08C372.882 38.7333 372.562 39.7067 372.562 41V43.22H379.842Z" fill="white"/>
</svg>
