<svg width="390" height="46" viewBox="0 0 390 46" fill="none" xmlns="http://www.w3.org/2000/svg">
<path d="M41 1V45H1V1H41Z" fill="white" stroke="black" stroke-width="2"/>
<path d="M389 1V28H54V1H389Z" fill="#0033CC" stroke="black" stroke-width="2"/>
<path d="M54 1V28H41V1H54Z" fill="#FFCC00" stroke="black" stroke-width="2"/>
<path d="M41 1V28H23V1H41Z" fill="#FF6600" stroke="black" stroke-width="2"/>
<path d="M73.36 22.2C71.9467 22.2 70.6667 21.8933 69.52 21.28C68.3867 20.6533 67.4933 19.7933 66.84 18.7C66.2 17.6067 65.88 16.3733 65.88 15C65.88 13.6267 66.2067 12.3933 66.86 11.3C67.5133 10.2067 68.4067 9.35333 69.54 8.74C70.6867 8.11333 71.9667 7.8 73.38 7.8C74.5267 7.8 75.5733 8 76.52 8.4C77.4667 8.8 78.2667 9.38 78.92 10.14L77.24 11.72C76.2267 10.6267 74.98 10.08 73.5 10.08C72.54 10.08 71.68 10.2933 70.92 10.72C70.16 11.1333 69.5667 11.7133 69.14 12.46C68.7133 13.2067 68.5 14.0533 68.5 15C68.5 15.9467 68.7133 16.7933 69.14 17.54C69.5667 18.2867 70.16 18.8733 70.92 19.3C71.68 19.7133 72.54 19.92 73.5 19.92C74.98 19.92 76.2267 19.3667 77.24 18.26L78.92 19.86C78.2667 20.62 77.46 21.2 76.5 21.6C75.5533 22 74.5067 22.2 73.36 22.2ZM85.5113 10.18V19.82H88.0913V22H80.3513V19.82H82.9313V10.18H80.3513V8H88.0913V10.18H85.5113ZM90.7863 8H96.9063C98.3996 8 99.7263 8.29333 100.886 8.88C102.046 9.45333 102.946 10.2733 103.586 11.34C104.226 12.3933 104.546 13.6133 104.546 15C104.546 16.3867 104.226 17.6133 103.586 18.68C102.946 19.7333 102.046 20.5533 100.886 21.14C99.7263 21.7133 98.3996 22 96.9063 22H90.7863V8ZM96.7863 19.8C97.8129 19.8 98.7129 19.6067 99.4863 19.22C100.273 18.82 100.873 18.26 101.286 17.54C101.713 16.8067 101.926 15.96 101.926 15C101.926 14.04 101.713 13.2 101.286 12.48C100.873 11.7467 100.273 11.1867 99.4863 10.8C98.7129 10.4 97.8129 10.2 96.7863 10.2H93.3863V19.8H96.7863ZM113.41 7.8C114.663 7.8 115.756 8.04667 116.69 8.54C117.623 9.03333 118.343 9.76667 118.85 10.74C119.37 11.7 119.63 12.8667 119.63 14.24V22H117.03V18.4H109.75V22H107.19V14.24C107.19 12.8667 107.443 11.7 107.95 10.74C108.47 9.76667 109.196 9.03333 110.13 8.54C111.063 8.04667 112.156 7.8 113.41 7.8ZM117.03 16.22V14C117.03 12.7067 116.71 11.7333 116.07 11.08C115.43 10.4133 114.536 10.08 113.39 10.08C112.243 10.08 111.35 10.4133 110.71 11.08C110.07 11.7333 109.75 12.7067 109.75 14V16.22H117.03ZM123.267 8H129.387C130.88 8 132.207 8.29333 133.367 8.88C134.527 9.45333 135.427 10.2733 136.067 11.34C136.707 12.3933 137.027 13.6133 137.027 15C137.027 16.3867 136.707 17.6133 136.067 18.68C135.427 19.7333 134.527 20.5533 133.367 21.14C132.207 21.7133 130.88 22 129.387 22H123.267V8ZM129.267 19.8C130.293 19.8 131.193 19.6067 131.967 19.22C132.753 18.82 133.353 18.26 133.767 17.54C134.193 16.8067 134.407 15.96 134.407 15C134.407 14.04 134.193 13.2 133.767 12.48C133.353 11.7467 132.753 11.1867 131.967 10.8C131.193 10.4 130.293 10.2 129.267 10.2H125.867V19.8H129.267ZM150.71 20.66C150.083 21.1533 149.277 21.5333 148.29 21.8C147.303 22.0667 146.237 22.2 145.09 22.2C143.743 22.2 142.597 22.0267 141.65 21.68C140.717 21.3333 140.01 20.8533 139.53 20.24C139.05 19.6267 138.81 18.92 138.81 18.12C138.81 17.3467 139.023 16.6733 139.45 16.1C139.877 15.5267 140.45 15.1067 141.17 14.84C140.623 14.5467 140.19 14.14 139.87 13.62C139.563 13.0867 139.41 12.4933 139.41 11.84C139.41 11.0933 139.63 10.42 140.07 9.82C140.523 9.20667 141.197 8.72 142.09 8.36C142.983 7.98667 144.083 7.8 145.39 7.8C146.27 7.8 147.13 7.89333 147.97 8.08C148.81 8.26667 149.543 8.52 150.17 8.84L149.43 10.9C148.257 10.2867 146.943 9.98 145.49 9.98C144.343 9.98 143.477 10.1667 142.89 10.54C142.317 10.9 142.03 11.3867 142.03 12C142.03 12.6 142.243 13.06 142.67 13.38C143.097 13.6867 143.723 13.84 144.55 13.84H148.25V16H144.41C143.463 16 142.73 16.1667 142.21 16.5C141.69 16.82 141.43 17.3 141.43 17.94C141.43 18.58 141.743 19.0867 142.37 19.46C142.997 19.8333 143.943 20.02 145.21 20.02C146.09 20.02 146.943 19.9 147.77 19.66C148.61 19.42 149.31 19.0867 149.87 18.66L150.71 20.66ZM174.063 7.8C175.703 7.8 176.983 8.28 177.903 9.24C178.823 10.1867 179.283 11.5533 179.283 13.34V22H176.683V13.44C176.683 12.3333 176.39 11.5 175.803 10.94C175.23 10.3667 174.476 10.08 173.543 10.08C172.503 10.08 171.67 10.3733 171.043 10.96C170.43 11.5467 170.123 12.4467 170.123 13.66V22H167.523V13.44C167.523 12.32 167.25 11.48 166.703 10.92C166.17 10.36 165.436 10.08 164.503 10.08C163.45 10.08 162.603 10.38 161.963 10.98C161.336 11.5667 161.023 12.46 161.023 13.66V22H158.423V8H160.943V9.84C161.37 9.18667 161.95 8.68667 162.683 8.34C163.416 7.98 164.263 7.8 165.223 7.8C166.21 7.8 167.07 7.98667 167.803 8.36C168.536 8.73333 169.09 9.26 169.463 9.94C169.93 9.26 170.563 8.73333 171.363 8.36C172.176 7.98667 173.076 7.8 174.063 7.8ZM189.015 7.8C190.268 7.8 191.362 8.04667 192.295 8.54C193.228 9.03333 193.948 9.76667 194.455 10.74C194.975 11.7 195.235 12.8667 195.235 14.24V22H192.635V18.4H185.355V22H182.795V14.24C182.795 12.8667 183.048 11.7 183.555 10.74C184.075 9.76667 184.802 9.03333 185.735 8.54C186.668 8.04667 187.762 7.8 189.015 7.8ZM192.635 16.22V14C192.635 12.7067 192.315 11.7333 191.675 11.08C191.035 10.4133 190.142 10.08 188.995 10.08C187.848 10.08 186.955 10.4133 186.315 11.08C185.675 11.7333 185.355 12.7067 185.355 14V16.22H192.635ZM202.972 10.18V19.82H205.552V22H197.812V19.82H200.392V10.18H197.812V8H205.552V10.18H202.972ZM212.587 22.2C211.507 22.2 210.461 22.0467 209.447 21.74C208.447 21.4333 207.654 21.0267 207.067 20.52L207.967 18.5C208.541 18.9533 209.241 19.3267 210.067 19.62C210.907 19.9 211.747 20.04 212.587 20.04C213.627 20.04 214.401 19.8733 214.907 19.54C215.427 19.2067 215.687 18.7667 215.687 18.22C215.687 17.82 215.541 17.4933 215.247 17.24C214.967 16.9733 214.607 16.7667 214.167 16.62C213.727 16.4733 213.127 16.3067 212.367 16.12C211.301 15.8667 210.434 15.6133 209.767 15.36C209.114 15.1067 208.547 14.7133 208.067 14.18C207.601 13.6333 207.367 12.9 207.367 11.98C207.367 11.2067 207.574 10.5067 207.987 9.88C208.414 9.24 209.047 8.73333 209.887 8.36C210.741 7.98667 211.781 7.8 213.007 7.8C213.861 7.8 214.701 7.90667 215.527 8.12C216.354 8.33333 217.067 8.64 217.667 9.04L216.847 11.06C216.234 10.7 215.594 10.4267 214.927 10.24C214.261 10.0533 213.614 9.96 212.987 9.96C211.961 9.96 211.194 10.1333 210.687 10.48C210.194 10.8267 209.947 11.2867 209.947 11.86C209.947 12.26 210.087 12.5867 210.367 12.84C210.661 13.0933 211.027 13.2933 211.467 13.44C211.907 13.5867 212.507 13.7533 213.267 13.94C214.307 14.18 215.161 14.4333 215.827 14.7C216.494 14.9533 217.061 15.3467 217.527 15.88C218.007 16.4133 218.247 17.1333 218.247 18.04C218.247 18.8133 218.034 19.5133 217.607 20.14C217.194 20.7667 216.561 21.2667 215.707 21.64C214.854 22.0133 213.814 22.2 212.587 22.2ZM236.273 14.72C237.046 14.9733 237.659 15.4 238.113 16C238.566 16.5867 238.793 17.32 238.793 18.2C238.793 19.4133 238.326 20.3533 237.393 21.02C236.459 21.6733 235.099 22 233.313 22H226.353V8H232.913C234.566 8 235.839 8.32667 236.733 8.98C237.626 9.62 238.073 10.5067 238.073 11.64C238.073 12.3333 237.913 12.9467 237.593 13.48C237.273 14.0133 236.833 14.4267 236.273 14.72ZM228.953 10.04V13.9H232.633C233.539 13.9 234.233 13.74 234.713 13.42C235.206 13.0867 235.453 12.6067 235.453 11.98C235.453 11.34 235.206 10.86 234.713 10.54C234.233 10.2067 233.539 10.04 232.633 10.04H228.953ZM233.153 19.96C235.166 19.96 236.173 19.2867 236.173 17.94C236.173 16.5933 235.166 15.92 233.153 15.92H228.953V19.96H233.153ZM248.108 22.2C246.681 22.2 245.394 21.8933 244.248 21.28C243.101 20.6533 242.201 19.7933 241.548 18.7C240.894 17.5933 240.568 16.36 240.568 15C240.568 13.64 240.894 12.4133 241.548 11.32C242.201 10.2133 243.101 9.35333 244.248 8.74C245.394 8.11333 246.681 7.8 248.108 7.8C249.534 7.8 250.821 8.11333 251.968 8.74C253.114 9.35333 254.014 10.2067 254.668 11.3C255.321 12.3933 255.648 13.6267 255.648 15C255.648 16.3733 255.321 17.6067 254.668 18.7C254.014 19.7933 253.114 20.6533 251.968 21.28C250.821 21.8933 249.534 22.2 248.108 22.2ZM248.108 19.92C249.041 19.92 249.881 19.7133 250.628 19.3C251.374 18.8733 251.961 18.2867 252.388 17.54C252.814 16.78 253.028 15.9333 253.028 15C253.028 14.0667 252.814 13.2267 252.388 12.48C251.961 11.72 251.374 11.1333 250.628 10.72C249.881 10.2933 249.041 10.08 248.108 10.08C247.174 10.08 246.334 10.2933 245.588 10.72C244.841 11.1333 244.254 11.72 243.828 12.48C243.401 13.2267 243.188 14.0667 243.188 15C243.188 15.9333 243.401 16.78 243.828 17.54C244.254 18.2867 244.841 18.8733 245.588 19.3C246.334 19.7133 247.174 19.92 248.108 19.92ZM265.363 7.8C267.043 7.8 268.35 8.31333 269.283 9.34C270.23 10.3667 270.703 11.8333 270.703 13.74V22H268.103V13.84C268.103 12.6 267.803 11.6667 267.203 11.04C266.617 10.4 265.797 10.08 264.743 10.08C263.597 10.08 262.683 10.42 262.003 11.1C261.337 11.7667 261.003 12.7667 261.003 14.1V22H258.403V8H260.923V9.76C261.897 8.45333 263.377 7.8 265.363 7.8ZM278.441 10.18V19.82H281.021V22H273.281V19.82H275.861V10.18H273.281V8H281.021V10.18H278.441ZM293.436 11.48C292.116 10.7333 290.743 10.28 289.316 10.12V22H286.716V10.12C285.276 10.28 283.896 10.7333 282.576 11.48L281.676 9.48C282.609 8.92 283.609 8.5 284.676 8.22C285.756 7.94 286.863 7.8 287.996 7.8C289.129 7.8 290.236 7.94 291.316 8.22C292.396 8.5 293.403 8.92 294.336 9.48L293.436 11.48ZM301.964 7.8C303.218 7.8 304.311 8.04667 305.244 8.54C306.178 9.03333 306.898 9.76667 307.404 10.74C307.924 11.7 308.184 12.8667 308.184 14.24V22H305.584V18.4H298.304V22H295.744V14.24C295.744 12.8667 295.998 11.7 296.504 10.74C297.024 9.76667 297.751 9.03333 298.684 8.54C299.618 8.04667 300.711 7.8 301.964 7.8ZM305.584 16.22V14C305.584 12.7067 305.264 11.7333 304.624 11.08C303.984 10.4133 303.091 10.08 301.944 10.08C300.798 10.08 299.904 10.4133 299.264 11.08C298.624 11.7333 298.304 12.7067 298.304 14V16.22H305.584ZM317.349 8H323.469C324.962 8 326.289 8.29333 327.449 8.88C328.609 9.45333 329.509 10.2733 330.149 11.34C330.789 12.3933 331.109 13.6133 331.109 15C331.109 16.3867 330.789 17.6133 330.149 18.68C329.509 19.7333 328.609 20.5533 327.449 21.14C326.289 21.7133 324.962 22 323.469 22H317.349V8ZM323.349 19.8C324.375 19.8 325.275 19.6067 326.049 19.22C326.835 18.82 327.435 18.26 327.849 17.54C328.275 16.8067 328.489 15.96 328.489 15C328.489 14.04 328.275 13.2 327.849 12.48C327.435 11.7467 326.835 11.1867 326.049 10.8C325.275 10.4 324.375 10.2 323.349 10.2H319.949V19.8H323.349ZM340.412 22.2C338.986 22.2 337.699 21.8933 336.552 21.28C335.406 20.6533 334.506 19.7933 333.852 18.7C333.199 17.5933 332.872 16.36 332.872 15C332.872 13.64 333.199 12.4133 333.852 11.32C334.506 10.2133 335.406 9.35333 336.552 8.74C337.699 8.11333 338.986 7.8 340.412 7.8C341.839 7.8 343.126 8.11333 344.272 8.74C345.419 9.35333 346.319 10.2067 346.972 11.3C347.626 12.3933 347.952 13.6267 347.952 15C347.952 16.3733 347.626 17.6067 346.972 18.7C346.319 19.7933 345.419 20.6533 344.272 21.28C343.126 21.8933 341.839 22.2 340.412 22.2ZM340.412 19.92C341.346 19.92 342.186 19.7133 342.932 19.3C343.679 18.8733 344.266 18.2867 344.692 17.54C345.119 16.78 345.332 15.9333 345.332 15C345.332 14.0667 345.119 13.2267 344.692 12.48C344.266 11.72 343.679 11.1333 342.932 10.72C342.186 10.2933 341.346 10.08 340.412 10.08C339.479 10.08 338.639 10.2933 337.892 10.72C337.146 11.1333 336.559 11.72 336.132 12.48C335.706 13.2267 335.492 14.0667 335.492 15C335.492 15.9333 335.706 16.78 336.132 17.54C336.559 18.2867 337.146 18.8733 337.892 19.3C338.639 19.7133 339.479 19.92 340.412 19.92ZM367.155 20.66C366.529 21.1533 365.722 21.5333 364.735 21.8C363.749 22.0667 362.682 22.2 361.535 22.2C360.189 22.2 359.042 22.0267 358.095 21.68C357.162 21.3333 356.455 20.8533 355.975 20.24C355.495 19.6267 355.255 18.92 355.255 18.12C355.255 17.3467 355.469 16.6733 355.895 16.1C356.322 15.5267 356.895 15.1067 357.615 14.84C357.069 14.5467 356.635 14.14 356.315 13.62C356.009 13.0867 355.855 12.4933 355.855 11.84C355.855 11.0933 356.075 10.42 356.515 9.82C356.969 9.20667 357.642 8.72 358.535 8.36C359.429 7.98667 360.529 7.8 361.835 7.8C362.715 7.8 363.575 7.89333 364.415 8.08C365.255 8.26667 365.989 8.52 366.615 8.84L365.875 10.9C364.702 10.2867 363.389 9.98 361.935 9.98C360.789 9.98 359.922 10.1667 359.335 10.54C358.762 10.9 358.475 11.3867 358.475 12C358.475 12.6 358.689 13.06 359.115 13.38C359.542 13.6867 360.169 13.84 360.995 13.84H364.695V16H360.855C359.909 16 359.175 16.1667 358.655 16.5C358.135 16.82 357.875 17.3 357.875 17.94C357.875 18.58 358.189 19.0867 358.815 19.46C359.442 19.8333 360.389 20.02 361.655 20.02C362.535 20.02 363.389 19.9 364.215 19.66C365.055 19.42 365.755 19.0867 366.315 18.66L367.155 20.66ZM373.681 22.2C372.601 22.2 371.554 22.0467 370.541 21.74C369.541 21.4333 368.748 21.0267 368.161 20.52L369.061 18.5C369.634 18.9533 370.334 19.3267 371.161 19.62C372.001 19.9 372.841 20.04 373.681 20.04C374.721 20.04 375.494 19.8733 376.001 19.54C376.521 19.2067 376.781 18.7667 376.781 18.22C376.781 17.82 376.634 17.4933 376.341 17.24C376.061 16.9733 375.701 16.7667 375.261 16.62C374.821 16.4733 374.221 16.3067 373.461 16.12C372.394 15.8667 371.528 15.6133 370.861 15.36C370.208 15.1067 369.641 14.7133 369.161 14.18C368.694 13.6333 368.461 12.9 368.461 11.98C368.461 11.2067 368.668 10.5067 369.081 9.88C369.508 9.24 370.141 8.73333 370.981 8.36C371.834 7.98667 372.874 7.8 374.101 7.8C374.954 7.8 375.794 7.90667 376.621 8.12C377.448 8.33333 378.161 8.64 378.761 9.04L377.941 11.06C377.328 10.7 376.688 10.4267 376.021 10.24C375.354 10.0533 374.708 9.96 374.081 9.96C373.054 9.96 372.288 10.1333 371.781 10.48C371.288 10.8267 371.041 11.2867 371.041 11.86C371.041 12.26 371.181 12.5867 371.461 12.84C371.754 13.0933 372.121 13.2933 372.561 13.44C373.001 13.5867 373.601 13.7533 374.361 13.94C375.401 14.18 376.254 14.4333 376.921 14.7C377.588 14.9533 378.154 15.3467 378.621 15.88C379.101 16.4133 379.341 17.1333 379.341 18.04C379.341 18.8133 379.128 19.5133 378.701 20.14C378.288 20.7667 377.654 21.2667 376.801 21.64C375.948 22.0133 374.908 22.2 373.681 22.2Z" fill="white"/>
</svg>
