<svg width="174" height="46" viewBox="0 0 174 46" fill="none" xmlns="http://www.w3.org/2000/svg">
<path d="M41 1V45H1V1H41Z" fill="white" stroke="black" stroke-width="2"/>
<path d="M173 1V28H54V1H173Z" fill="#0033CC" stroke="black" stroke-width="2"/>
<path d="M54 1V28H41V1H54Z" fill="#FFCC00" stroke="black" stroke-width="2"/>
<path d="M41 1V28H23V1H41Z" fill="#FF6600" stroke="black" stroke-width="2"/>
<path d="M76.44 14.84H78.9V22H76.76V21.18C75.76 21.86 74.5067 22.2 73 22.2C71.7067 22.2 70.52 21.92 69.44 21.36C68.36 20.8 67.4933 19.9867 66.84 18.92C66.2 17.8533 65.88 16.58 65.88 15.1C65.88 13.7 66.2067 12.4467 66.86 11.34C67.5133 10.22 68.4133 9.35333 69.56 8.74C70.72 8.11333 72.02 7.8 73.46 7.8C74.6333 7.8 75.7 7.99333 76.66 8.38C77.62 8.76667 78.4267 9.33333 79.08 10.08L77.44 11.68C76.3733 10.6133 75.0867 10.08 73.58 10.08C72.5933 10.08 71.7133 10.2933 70.94 10.72C70.18 11.1333 69.58 11.72 69.14 12.48C68.7133 13.24 68.5 14.1067 68.5 15.08C68.5 16.1067 68.7133 16.9933 69.14 17.74C69.58 18.4733 70.16 19.0333 70.88 19.42C71.6 19.7933 72.3867 19.98 73.24 19.98C73.84 19.98 74.4133 19.8867 74.96 19.7C75.52 19.5133 76.0133 19.24 76.44 18.88V14.84ZM91.4892 22L88.6292 17.9C88.5092 17.9133 88.3292 17.92 88.0892 17.92H84.9292V22H82.3292V8H88.0892C89.3026 8 90.3559 8.2 91.2492 8.6C92.1559 9 92.8492 9.57333 93.3292 10.32C93.8092 11.0667 94.0492 11.9533 94.0492 12.98C94.0492 14.0333 93.7892 14.94 93.2692 15.7C92.7626 16.46 92.0292 17.0267 91.0692 17.4L94.2892 22H91.4892ZM91.4292 12.98C91.4292 12.0867 91.1359 11.4 90.5492 10.92C89.9626 10.44 89.1026 10.2 87.9692 10.2H84.9292V15.78H87.9692C89.1026 15.78 89.9626 15.54 90.5492 15.06C91.1359 14.5667 91.4292 13.8733 91.4292 12.98ZM103.058 7.8C104.311 7.8 105.405 8.04667 106.338 8.54C107.271 9.03333 107.991 9.76667 108.498 10.74C109.018 11.7 109.278 12.8667 109.278 14.24V22H106.678V18.4H99.3981V22H96.8381V14.24C96.8381 12.8667 97.0915 11.7 97.5981 10.74C98.1181 9.76667 98.8448 9.03333 99.7781 8.54C100.711 8.04667 101.805 7.8 103.058 7.8ZM106.678 16.22V14C106.678 12.7067 106.358 11.7333 105.718 11.08C105.078 10.4133 104.185 10.08 103.038 10.08C101.891 10.08 100.998 10.4133 100.358 11.08C99.7181 11.7333 99.3981 12.7067 99.3981 14V16.22H106.678ZM104.078 4.12H107.018L103.538 6.86H101.378L104.078 4.12ZM119.035 10.08C117.835 10.08 116.928 10.3467 116.315 10.88C115.702 11.4133 115.395 12.2 115.395 13.24V14.44H121.495V16.64H115.395V22H112.795V13.24C112.795 11.5467 113.335 10.22 114.415 9.26C115.508 8.28667 117.008 7.8 118.915 7.8C119.715 7.8 120.462 7.88667 121.155 8.06C121.848 8.23333 122.455 8.48667 122.975 8.82L122.155 10.94C121.328 10.3667 120.288 10.08 119.035 10.08ZM129.222 10.18V19.82H131.802V22H124.062V19.82H126.642V10.18H124.062V8H131.802V10.18H129.222ZM140.88 22.2C139.466 22.2 138.186 21.8933 137.04 21.28C135.906 20.6533 135.013 19.7933 134.36 18.7C133.72 17.6067 133.4 16.3733 133.4 15C133.4 13.6267 133.726 12.3933 134.38 11.3C135.033 10.2067 135.926 9.35333 137.06 8.74C138.206 8.11333 139.486 7.8 140.9 7.8C142.046 7.8 143.093 8 144.04 8.4C144.986 8.8 145.786 9.38 146.44 10.14L144.76 11.72C143.746 10.6267 142.5 10.08 141.02 10.08C140.06 10.08 139.2 10.2933 138.44 10.72C137.68 11.1333 137.086 11.7133 136.66 12.46C136.233 13.2067 136.02 14.0533 136.02 15C136.02 15.9467 136.233 16.7933 136.66 17.54C137.086 18.2867 137.68 18.8733 138.44 19.3C139.2 19.7133 140.06 19.92 141.02 19.92C142.5 19.92 143.746 19.3667 144.76 18.26L146.44 19.86C145.786 20.62 144.98 21.2 144.02 21.6C143.073 22 142.026 22.2 140.88 22.2ZM155.031 7.8C156.284 7.8 157.377 8.04667 158.311 8.54C159.244 9.03333 159.964 9.76667 160.471 10.74C160.991 11.7 161.251 12.8667 161.251 14.24V22H158.651V18.4H151.371V22H148.811V14.24C148.811 12.8667 149.064 11.7 149.571 10.74C150.091 9.76667 150.817 9.03333 151.751 8.54C152.684 8.04667 153.777 7.8 155.031 7.8ZM158.651 16.22V14C158.651 12.7067 158.331 11.7333 157.691 11.08C157.051 10.4133 156.157 10.08 155.011 10.08C153.864 10.08 152.971 10.4133 152.331 11.08C151.691 11.7333 151.371 12.7067 151.371 14V16.22H158.651Z" fill="white"/>
</svg>
