<svg width="40" height="40" viewBox="0 0 40 40" fill="none" xmlns="http://www.w3.org/2000/svg">
<g clip-path="url(#clip0_2018_254)">
<path d="M39.0476 0.952381H0.952393V39.0476H39.0476V0.952381Z" fill="#0033CC" stroke="black" stroke-width="2" stroke-miterlimit="10"/>
<path fill-rule="evenodd" clip-rule="evenodd" d="M27.8762 15.1143C28.7333 14.3048 28.7809 12.9619 27.9714 12.1048C27.1619 11.2476 25.819 11.2 24.9619 12.0095C24.9619 12.0095 24.8952 12.0762 24.8666 12.1048L19.9904 16.9905L15.1143 12.1143C14.3143 11.2571 12.9619 11.2095 12.1047 12.0191C11.2476 12.8191 11.2 14.1714 12.0095 15.0286C12.0381 15.0667 12.0762 15.0952 12.1047 15.1238L16.9905 20L12.1143 24.8762C11.2762 25.6952 11.2571 27.0476 12.0762 27.8857C12.8762 28.7048 14.1714 28.7429 15.019 27.981L15.1143 27.8857L19.9904 23.0095L24.8666 27.8857C25.6571 28.7524 27.0095 28.8095 27.8762 28.0191C28.7333 27.2381 28.8 25.9143 28.0381 25.0476C28.019 25.0286 27.9905 25 27.9714 24.981C27.9524 24.9619 27.9047 24.9143 27.8762 24.8857L23 20.0095L27.8762 15.1333V15.1143Z" fill="white"/>
</g>
<defs>
<clipPath id="clip0_2018_254">
<rect width="40" height="40" fill="white"/>
</clipPath>
</defs>
</svg>
