<svg width="142" height="53" viewBox="0 0 142 53" fill="none" xmlns="http://www.w3.org/2000/svg">
<g clip-path="url(#clip0_2100_189)">
<path d="M37.1068 16.5352L25.5695 34.1219L3.84338 0.339172H14.6666L25.5695 17.9525L36.4747 0.339172H47.0133V51.4857C43.7103 46.3325 40.4074 40.719 37.1068 35.5659V16.5328V16.5352ZM25.5743 32.8693L37.7896 14.253V35.3672L46.3305 49.155V1.02481H36.8535L25.5719 19.2487L14.2902 1.02481H5.09556L25.5743 32.8693Z" fill="black"/>
<path d="M49.9688 49.1574L58.4397 35.939V1.02481H49.9688V49.155V49.1574ZM59.067 36.22L49.286 51.4857V0.339172H59.1225V36.1352L59.067 36.22Z" fill="black"/>
<path d="M0.844434 0.302856L23.9819 36.4575L23.5597 37.1189L0 0.302856H0.844434Z" fill="black"/>
<path d="M64.3796 0.261658H68.1989L71.3112 5.33246L74.4236 0.261658H78.2452V13.3614H74.648V5.83881L71.3209 10.9678H71.2461L67.9383 5.87758V13.3639H64.3796V0.261658Z" fill="black"/>
<path d="M83.9488 0.167175H87.4327L92.9867 13.3614H89.1095L88.1589 11.0235H83.1285L82.1972 13.3614H78.3948L83.9488 0.167175ZM87.1166 8.21553L85.6618 4.49177L84.1901 8.21553H87.1166Z" fill="black"/>
<path d="M93.1338 0.261658H99.303C100.309 0.261658 101.161 0.385218 101.856 0.63476C102.55 0.884303 103.115 1.23318 103.552 1.68381C104.321 2.43244 104.707 3.44999 104.707 4.73404V4.77281C104.707 5.78309 104.464 6.61894 103.981 7.28034C103.496 7.94175 102.845 8.44811 102.024 8.79456L105.137 13.3614H100.963L98.3355 9.39298H96.7504V13.3614H93.1338V0.261658ZM99.1365 6.5511C99.7566 6.5511 100.234 6.41058 100.572 6.12954C100.907 5.8485 101.076 5.47298 101.076 4.99812V4.96178C101.076 4.43847 100.903 4.04841 100.553 3.79159C100.205 3.53721 99.7276 3.4088 99.1172 3.4088H96.7504V6.55352H99.1365V6.5511Z" fill="black"/>
<path d="M111.699 13.6231C110.768 13.6231 109.89 13.4559 109.069 13.1192C108.252 12.7824 107.537 12.3124 106.937 11.7067C106.334 11.101 105.856 10.3839 105.501 9.5553C105.146 8.72672 104.97 7.82304 104.97 6.85152V6.81275C104.97 5.86546 105.144 4.97632 105.491 4.14531C105.839 3.31674 106.319 2.59234 106.927 1.97454C107.537 1.35674 108.259 0.87461 109.098 0.523313C109.938 0.174438 110.852 0 111.849 0C112.52 0 113.128 0.0654141 113.675 0.196242C114.221 0.32707 114.722 0.513622 115.176 0.758319C115.63 1.00059 116.04 1.29132 116.406 1.62808C116.773 1.96484 117.099 2.3331 117.386 2.73285L114.664 4.84791C114.293 4.37305 113.883 3.99995 113.434 3.72376C112.988 3.44999 112.447 3.31189 111.813 3.31189C111.354 3.31189 110.934 3.40153 110.556 3.58324C110.177 3.76494 109.851 4.00964 109.579 4.32217C109.306 4.63471 109.091 5.00297 108.937 5.42695C108.78 5.85093 108.703 6.30156 108.703 6.77399V6.81275C108.703 7.29973 108.78 7.75762 108.937 8.18887C109.091 8.62012 109.306 8.9908 109.579 9.30334C109.851 9.61587 110.177 9.86057 110.556 10.0423C110.934 10.224 111.354 10.3136 111.813 10.3136C112.148 10.3136 112.457 10.2773 112.737 10.2022C113.017 10.1271 113.27 10.018 113.502 9.8751C113.731 9.73216 113.948 9.56257 114.153 9.37117C114.358 9.17735 114.561 8.96173 114.759 8.72672L117.48 10.6722C117.169 11.0962 116.831 11.4886 116.464 11.8521C116.098 12.213 115.683 12.5256 115.217 12.7872C114.751 13.0489 114.228 13.2548 113.651 13.405C113.074 13.5552 112.423 13.6304 111.704 13.6304L111.699 13.6231Z" fill="black"/>
<path d="M122.414 0.167175H125.898L131.452 13.3614H127.575L126.624 11.0235H121.594L120.662 13.3614H116.86L122.414 0.167175ZM125.582 8.21553L124.127 4.49177L122.655 8.21553H125.582Z" fill="black"/>
<path d="M136.726 13.5868C135.558 13.5868 134.448 13.4051 133.399 13.0416C132.349 12.6782 131.42 12.1307 130.615 11.4039L132.627 8.98354C133.932 10.0326 135.341 10.5559 136.859 10.5559C137.344 10.5559 137.713 10.4784 137.966 10.3233C138.222 10.1683 138.35 9.94537 138.35 9.65949V9.62315C138.35 9.48505 138.318 9.36391 138.258 9.25731C138.195 9.15071 138.079 9.04896 137.913 8.94963C137.744 8.85029 137.522 8.75338 137.242 8.66132C136.962 8.56926 136.598 8.46992 136.152 8.37059C135.457 8.20827 134.81 8.03141 134.214 7.83759C133.618 7.64377 133.1 7.39665 132.658 7.08896C132.219 6.78369 131.869 6.40332 131.616 5.95027C131.36 5.49479 131.232 4.93272 131.232 4.25919V4.22285C131.232 3.61232 131.348 3.05267 131.577 2.54147C131.806 2.03027 132.142 1.58933 132.583 1.21623C133.022 0.843127 133.556 0.552398 134.178 0.348887C134.798 0.142954 135.5 0.0411987 136.282 0.0411987C137.401 0.0411987 138.398 0.188986 139.274 0.484561C140.149 0.780135 140.943 1.21623 141.65 1.79284L139.843 4.36337C139.247 3.93939 138.634 3.61717 138.007 3.39912C137.38 3.18107 136.774 3.07205 136.19 3.07205C135.756 3.07205 135.43 3.152 135.213 3.31432C134.996 3.47665 134.887 3.67531 134.887 3.91274V3.95151C134.887 4.10172 134.921 4.23012 134.991 4.34399C135.061 4.45786 135.177 4.55961 135.346 4.65168C135.515 4.74374 135.744 4.83823 136.036 4.93272C136.328 5.02478 136.697 5.12169 137.143 5.22102C137.889 5.38335 138.562 5.57232 139.165 5.79037C139.768 6.00841 140.28 6.27249 140.702 6.58503C141.124 6.89514 141.448 7.27309 141.672 7.71403C141.896 8.15739 142.007 8.68312 142.007 9.29366V9.33242C142.007 10.0059 141.879 10.6019 141.624 11.1252C141.37 11.6486 141.011 12.0943 140.552 12.4602C140.092 12.8284 139.539 13.1071 138.895 13.3009C138.248 13.4947 137.527 13.5916 136.733 13.5916L136.726 13.5868Z" fill="black"/>
<path d="M64.4545 18.3911H68.0879V31.4908H64.4545V18.3911ZM66.7851 14.0495L70.0832 15.1155L67.3448 17.5116H64.8477L66.7851 14.0495Z" fill="black"/>
<path d="M75.6371 31.7525C74.7058 31.7525 73.8276 31.5853 73.0073 31.2485C72.1894 30.9118 71.4753 30.4418 70.8745 29.8361C70.2714 29.2304 69.7937 28.5133 69.439 27.6847C69.0843 26.8561 68.9082 25.9524 68.9082 24.9809V24.9421C68.9082 23.9949 69.0819 23.1057 69.4293 22.2747C69.7768 21.4461 70.2569 20.7217 70.8649 20.1039C71.4753 19.4861 72.1967 19.004 73.0363 18.6527C73.8759 18.3038 74.7903 18.1294 75.7867 18.1294C76.4574 18.1294 77.0654 18.1948 77.6131 18.3256C78.1584 18.4565 78.6602 18.643 79.1138 18.8877C79.5674 19.13 79.9775 19.4207 80.3443 19.7575C80.711 20.0942 81.0367 20.4625 81.3238 20.8622L78.6023 22.9773C78.2308 22.5024 77.8206 22.1293 77.3718 21.8532C76.9255 21.5794 76.3851 21.4413 75.7505 21.4413C75.2921 21.4413 74.8723 21.5309 74.4935 21.7126C74.1147 21.8943 73.789 22.139 73.5164 22.4516C73.2438 22.7641 73.029 23.1324 72.8746 23.5563C72.7178 23.9803 72.6406 24.431 72.6406 24.9034V24.9421C72.6406 25.4291 72.7178 25.887 72.8746 26.3183C73.029 26.7495 73.2438 27.1202 73.5164 27.4327C73.789 27.7453 74.1147 27.99 74.4935 28.1717C74.8723 28.3534 75.2921 28.443 75.7505 28.443C76.0859 28.443 76.3947 28.4067 76.6746 28.3316C76.9545 28.2565 77.2078 28.1474 77.4394 28.0045C77.6686 27.8616 77.8857 27.692 78.0908 27.5006C78.2959 27.3067 78.4986 27.0911 78.6964 26.8561L81.4179 28.8016C81.1067 29.2256 80.7689 29.618 80.4022 29.9815C80.0354 30.3424 79.6204 30.655 79.1548 30.9166C78.6892 31.1783 78.1656 31.3842 77.589 31.5344C77.0124 31.6846 76.3609 31.7597 75.642 31.7597L75.6371 31.7525Z" fill="black"/>
<path d="M88.4026 31.7525C87.3965 31.7525 86.4652 31.5756 85.6063 31.2195C84.7498 30.8633 84.0091 30.3812 83.3891 29.7682C82.7666 29.1577 82.2793 28.4381 81.9246 27.6168C81.5699 26.7931 81.3938 25.9136 81.3938 24.9785V24.9397C81.3938 24.0045 81.5699 23.1226 81.9246 22.2916C82.2793 21.4631 82.7739 20.7387 83.406 20.1209C84.0405 19.5031 84.786 19.0161 85.6425 18.66C86.499 18.3038 87.4303 18.127 88.4388 18.127C89.4473 18.127 90.3762 18.3038 91.2351 18.66C92.094 19.0161 92.8323 19.4982 93.4523 20.1112C94.0748 20.7217 94.5621 21.4413 94.9168 22.2626C95.2715 23.0863 95.4476 23.9658 95.4476 24.9009V24.9397C95.4476 25.8749 95.2715 26.7592 94.9168 27.5878C94.5621 28.4163 94.0675 29.1407 93.4354 29.7585C92.8009 30.3763 92.0554 30.8633 91.1989 31.2195C90.3424 31.5756 89.4111 31.7525 88.4026 31.7525ZM88.4291 28.4793C88.9286 28.4793 89.3821 28.3848 89.7947 28.1983C90.2073 28.0117 90.5547 27.7574 90.8418 27.44C91.1289 27.1226 91.3509 26.7519 91.5149 26.3279C91.6766 25.904 91.7586 25.4533 91.7586 24.9809V24.9421C91.7586 24.4673 91.6766 24.0191 91.5149 23.5951C91.3533 23.1711 91.1217 22.798 90.8225 22.4734C90.5233 22.1487 90.1687 21.8895 89.7585 21.6957C89.346 21.5018 88.8924 21.4049 88.393 21.4049C87.8935 21.4049 87.4424 21.4994 87.0394 21.686C86.6341 21.8725 86.2843 22.1245 85.9924 22.4443C85.698 22.7617 85.4736 23.1323 85.3192 23.5563C85.1624 23.9803 85.0852 24.4309 85.0852 24.9034V24.9421C85.0852 25.417 85.1672 25.8652 85.3289 26.2892C85.4905 26.7132 85.7173 27.0863 86.0116 27.4109C86.306 27.7356 86.6558 27.9948 87.0684 28.1886C87.4786 28.3824 87.9321 28.4793 88.4316 28.4793H88.4291Z" fill="black"/>
<path d="M96.21 18.3911H99.5901L104.968 25.3153V18.3911H108.529V31.4908H105.354L99.7687 24.305V31.4908H96.2076V18.3911H96.21Z" fill="black"/>
<path d="M109.721 18.391H120.194V21.4776H113.28V23.4618H119.543V26.3255H113.28V28.4018H120.288V31.4884H109.721V18.3886V18.391Z" fill="black"/>
<path d="M126.158 31.7162C124.991 31.7162 123.881 31.5344 122.831 31.171C121.782 30.8076 120.853 30.2601 120.047 29.5333L122.059 27.1129C123.365 28.162 124.774 28.6853 126.291 28.6853C126.776 28.6853 127.145 28.6078 127.399 28.4527C127.654 28.2977 127.782 28.0748 127.782 27.7889V27.7525C127.782 27.6144 127.751 27.4933 127.69 27.3867C127.628 27.2801 127.512 27.1784 127.345 27.079C127.177 26.9797 126.955 26.8828 126.675 26.7907C126.395 26.6987 126.031 26.5993 125.584 26.5C124.889 26.3377 124.243 26.1608 123.647 25.967C123.051 25.7732 122.532 25.526 122.091 25.2184C121.652 24.9131 121.302 24.5327 121.048 24.0797C120.793 23.6242 120.665 23.0621 120.665 22.3886V22.3522C120.665 21.7417 120.781 21.1821 121.01 20.6709C121.239 20.1597 121.574 19.7187 122.016 19.3456C122.455 18.9725 122.988 18.6818 123.611 18.4783C124.231 18.2723 124.933 18.1706 125.714 18.1706C126.834 18.1706 127.83 18.3184 128.706 18.614C129.582 18.9095 130.376 19.3456 131.083 19.9222L129.276 22.4928C128.68 22.0688 128.067 21.7466 127.44 21.5285C126.812 21.3105 126.207 21.2014 125.623 21.2014C125.189 21.2014 124.863 21.2814 124.646 21.4437C124.429 21.606 124.32 21.8047 124.32 22.0421V22.0809C124.32 22.2311 124.354 22.3595 124.424 22.4734C124.494 22.5873 124.609 22.689 124.778 22.7811C124.947 22.8731 125.176 22.9676 125.468 23.0621C125.76 23.1542 126.129 23.2511 126.576 23.3504C127.321 23.5127 127.994 23.7017 128.598 23.9198C129.201 24.1378 129.712 24.4019 130.134 24.7144C130.557 25.0245 130.88 25.4025 131.104 25.8434C131.329 26.2868 131.44 26.8125 131.44 27.4231V27.4618C131.44 28.1353 131.312 28.7313 131.056 29.2546C130.803 29.778 130.443 30.2237 129.985 30.5896C129.524 30.9578 128.972 31.2364 128.327 31.4303C127.681 31.6241 126.959 31.721 126.166 31.721L126.158 31.7162Z" fill="black"/>
<path d="M63.8392 46.8898L68.7224 43.1466C69.3304 42.6718 69.7623 42.2599 70.018 41.911C70.2713 41.5622 70.3992 41.1866 70.3992 40.7893C70.3992 40.392 70.2665 40.0528 69.9987 39.8154C69.7309 39.5779 69.3811 39.4592 68.9468 39.4592C68.5125 39.4592 68.0999 39.5925 67.7091 39.8614C67.3182 40.1303 66.8671 40.5567 66.358 41.143L63.9164 39.1031C64.2638 38.6549 64.6185 38.2551 64.978 37.9062C65.3374 37.5574 65.7259 37.2642 66.1433 37.0268C66.5582 36.7894 67.0191 36.6101 67.5233 36.4841C68.0251 36.3605 68.5945 36.2975 69.2267 36.2975C69.936 36.2975 70.5826 36.3993 71.1737 36.6077C71.7648 36.8136 72.269 37.097 72.6937 37.458C73.1159 37.819 73.4464 38.26 73.6804 38.7784C73.9169 39.2969 74.0351 39.8614 74.0351 40.4719V40.5107C74.0351 41.034 73.97 41.5016 73.8397 41.9135C73.7094 42.3253 73.514 42.7081 73.251 43.0643C72.988 43.4204 72.6744 43.7596 72.3004 44.0842C71.9289 44.4089 71.4994 44.7457 71.0144 45.0945L68.7779 46.6669H74.163V49.6226H63.8392V46.8898Z" fill="black"/>
<path d="M81.6374 49.8843C80.7061 49.8843 79.8665 49.7075 79.121 49.3513C78.3755 48.9952 77.7434 48.5082 77.2295 47.8904C76.7156 47.2726 76.3175 46.553 76.0376 45.7293C75.7602 44.9056 75.6202 44.0334 75.6202 43.1103V43.0716C75.6202 42.1485 75.7626 41.2715 76.0497 40.4429C76.3344 39.6143 76.7397 38.8899 77.2609 38.2721C77.7844 37.6543 78.4165 37.1649 79.162 36.8039C79.9075 36.4429 80.7448 36.2612 81.6785 36.2612C82.6122 36.2612 83.4445 36.4381 84.1852 36.7942C84.9235 37.1504 85.5556 37.6373 86.0767 38.2551C86.5979 38.8729 86.9984 39.5925 87.2783 40.4162C87.5581 41.24 87.6981 42.1146 87.6981 43.0352V43.074C87.6981 43.997 87.5581 44.8741 87.2783 45.7027C86.9984 46.5337 86.5955 47.2556 86.0671 47.8734C85.5387 48.4912 84.9018 48.9806 84.1563 49.3416C83.4107 49.7026 82.5711 49.8843 81.6398 49.8843H81.6374ZM81.6736 46.6645C82.0331 46.6645 82.3636 46.5773 82.6628 46.4028C82.9596 46.2284 83.2129 45.9813 83.418 45.6639C83.6231 45.3465 83.7823 44.971 83.8933 44.5397C84.0043 44.1085 84.0622 43.6312 84.0622 43.1079V43.0691C84.0622 42.5458 84.0018 42.0637 83.8836 41.6276C83.7654 41.1915 83.6013 40.8136 83.389 40.4962C83.1767 40.1788 82.9234 39.9293 82.6242 39.7476C82.3275 39.5659 81.9969 39.4762 81.6374 39.4762C81.2779 39.4762 80.9498 39.5634 80.6579 39.7379C80.366 39.9123 80.115 40.157 79.9027 40.4671C79.6904 40.7796 79.5312 41.1527 79.4178 41.5913C79.3068 42.0274 79.2489 42.5071 79.2489 43.0328V43.0716C79.2489 43.5949 79.3068 44.0794 79.425 44.5228C79.5432 44.9661 79.7073 45.3465 79.9196 45.6639C80.1319 45.9813 80.3853 46.2284 80.682 46.4028C80.9812 46.5773 81.3093 46.6645 81.6712 46.6645H81.6736Z" fill="black"/>
<path d="M89.0733 46.8898L93.9565 43.1466C94.5645 42.6718 94.9964 42.2599 95.2521 41.911C95.5055 41.5622 95.6333 41.1866 95.6333 40.7893C95.6333 40.392 95.5007 40.0528 95.2328 39.8154C94.965 39.5779 94.6152 39.4592 94.1809 39.4592C93.7466 39.4592 93.3341 39.5925 92.9432 39.8614C92.5524 40.1303 92.1012 40.5567 91.5921 41.143L89.1505 39.1031C89.4979 38.6549 89.8526 38.2551 90.2121 37.9062C90.574 37.5574 90.96 37.2642 91.3774 37.0268C91.7924 36.7894 92.2532 36.6101 92.7574 36.4841C93.2593 36.3605 93.8287 36.2975 94.4608 36.2975C95.1701 36.2975 95.8167 36.3993 96.4078 36.6077C96.9989 36.8136 97.5032 37.097 97.9278 37.458C98.35 37.819 98.6805 38.26 98.9146 38.7784C99.151 39.2969 99.2692 39.8614 99.2692 40.4719V40.5107C99.2692 41.034 99.2041 41.5016 99.0738 41.9135C98.9435 42.3253 98.7481 42.7081 98.4851 43.0643C98.2246 43.4204 97.9085 43.7596 97.5345 44.0842C97.163 44.4089 96.7335 44.7457 96.2486 45.0945L94.012 46.6669H99.3971V49.6226H89.0733V46.8898Z" fill="black"/>
<path d="M110.633 45.4652C110.633 47.7741 108.903 49.8819 105.021 49.8819C103.236 49.8819 101.342 49.4385 100.034 48.6075L101.342 45.8553C102.391 46.5579 103.68 46.9261 104.912 46.9261C106.145 46.9261 106.973 46.427 106.973 45.5597C106.973 44.765 106.44 44.249 104.471 44.249H100.975L101.619 36.6924H109.827V39.5198H104.637L104.471 41.4047H105.335C109.144 41.4047 110.635 43.1781 110.635 45.47L110.633 45.4652Z" fill="black"/>
</g>
<defs>
<clipPath id="clip0_2100_189">
<rect width="142" height="53" fill="white"/>
</clipPath>
</defs>
</svg>
